G04 #@! TF.FileFunction,Legend,Bot*
%FSLAX46Y46*%
G04 Gerber Fmt 4.6, Leading zero omitted, Abs format (unit mm)*
G04 Created by KiCad (PCBNEW 4.0.1-stable) date Thursday, February 04, 2016 'PMt' 08:08:59 PM*
%MOMM*%
G01*
G04 APERTURE LIST*
%ADD10C,0.100000*%
%ADD11C,0.200000*%
%ADD12C,0.150000*%
%ADD13C,0.300000*%
%ADD14C,0.010000*%
G04 APERTURE END LIST*
D10*
D11*
X157019763Y-125385952D02*
X157138810Y-125445476D01*
X157376906Y-125445476D01*
X157495953Y-125385952D01*
X157555477Y-125326429D01*
X157615001Y-125207381D01*
X157615001Y-124850238D01*
X157555477Y-124731190D01*
X157495953Y-124671667D01*
X157376906Y-124612143D01*
X157138810Y-124612143D01*
X157019763Y-124671667D01*
X156484048Y-125445476D02*
X156484048Y-124195476D01*
X156365000Y-124969286D02*
X156007857Y-125445476D01*
X156007857Y-124612143D02*
X156484048Y-125088333D01*
X154936429Y-125445476D02*
X154936429Y-124195476D01*
X154936429Y-125385952D02*
X155055476Y-125445476D01*
X155293572Y-125445476D01*
X155412619Y-125385952D01*
X155472143Y-125326429D01*
X155531667Y-125207381D01*
X155531667Y-124850238D01*
X155472143Y-124731190D01*
X155412619Y-124671667D01*
X155293572Y-124612143D01*
X155055476Y-124612143D01*
X154936429Y-124671667D01*
X154341191Y-125326429D02*
X154281667Y-125385952D01*
X154341191Y-125445476D01*
X154400715Y-125385952D01*
X154341191Y-125326429D01*
X154341191Y-125445476D01*
X153924524Y-124612143D02*
X153448334Y-124612143D01*
X153745953Y-124195476D02*
X153745953Y-125266905D01*
X153686429Y-125385952D01*
X153567382Y-125445476D01*
X153448334Y-125445476D01*
X152555476Y-125385952D02*
X152674524Y-125445476D01*
X152912619Y-125445476D01*
X153031667Y-125385952D01*
X153091191Y-125266905D01*
X153091191Y-124790714D01*
X153031667Y-124671667D01*
X152912619Y-124612143D01*
X152674524Y-124612143D01*
X152555476Y-124671667D01*
X152495953Y-124790714D01*
X152495953Y-124909762D01*
X153091191Y-125028810D01*
X151424524Y-125385952D02*
X151543571Y-125445476D01*
X151781667Y-125445476D01*
X151900714Y-125385952D01*
X151960238Y-125326429D01*
X152019762Y-125207381D01*
X152019762Y-124850238D01*
X151960238Y-124731190D01*
X151900714Y-124671667D01*
X151781667Y-124612143D01*
X151543571Y-124612143D01*
X151424524Y-124671667D01*
X150888809Y-125445476D02*
X150888809Y-124195476D01*
X150353095Y-125445476D02*
X150353095Y-124790714D01*
X150412618Y-124671667D01*
X150531666Y-124612143D01*
X150710238Y-124612143D01*
X150829285Y-124671667D01*
X150888809Y-124731190D01*
X148865000Y-124135952D02*
X149936428Y-125743095D01*
X148567381Y-125445476D02*
X147912619Y-124612143D01*
X148567381Y-124612143D02*
X147912619Y-125445476D01*
X146900714Y-124612143D02*
X146900714Y-125445476D01*
X147198333Y-124135952D02*
X147495952Y-125028810D01*
X146722142Y-125028810D01*
X146245952Y-125445476D02*
X146245952Y-124612143D01*
X146245952Y-124850238D02*
X146186428Y-124731190D01*
X146126904Y-124671667D01*
X146007857Y-124612143D01*
X145888809Y-124612143D01*
X145472142Y-124969286D02*
X144519761Y-124969286D01*
X143984047Y-125385952D02*
X143864999Y-125445476D01*
X143626904Y-125445476D01*
X143507856Y-125385952D01*
X143448332Y-125266905D01*
X143448332Y-125207381D01*
X143507856Y-125088333D01*
X143626904Y-125028810D01*
X143805475Y-125028810D01*
X143924523Y-124969286D01*
X143984047Y-124850238D01*
X143984047Y-124790714D01*
X143924523Y-124671667D01*
X143805475Y-124612143D01*
X143626904Y-124612143D01*
X143507856Y-124671667D01*
X142912618Y-125445476D02*
X142912618Y-124195476D01*
X142912618Y-124671667D02*
X142793570Y-124612143D01*
X142555475Y-124612143D01*
X142436427Y-124671667D01*
X142376904Y-124731190D01*
X142317380Y-124850238D01*
X142317380Y-125207381D01*
X142376904Y-125326429D01*
X142436427Y-125385952D01*
X142555475Y-125445476D01*
X142793570Y-125445476D01*
X142912618Y-125385952D01*
X140888809Y-124135952D02*
X141960237Y-125743095D01*
X140591190Y-124612143D02*
X140293571Y-125445476D01*
X139995951Y-124612143D01*
X139579285Y-124314524D02*
X139519761Y-124255000D01*
X139400713Y-124195476D01*
X139103094Y-124195476D01*
X138984047Y-124255000D01*
X138924523Y-124314524D01*
X138864999Y-124433571D01*
X138864999Y-124552619D01*
X138924523Y-124731190D01*
X139638809Y-125445476D01*
X138864999Y-125445476D01*
D12*
X144120000Y-123536667D02*
X143643809Y-123536667D01*
X144215238Y-123822381D02*
X143881905Y-122822381D01*
X143548571Y-123822381D01*
X143215238Y-123822381D02*
X143215238Y-122822381D01*
X142739048Y-123822381D02*
X142739048Y-122822381D01*
X142167619Y-123822381D01*
X142167619Y-122822381D01*
X146120952Y-123161429D02*
X145359047Y-123161429D01*
X148610952Y-123161429D02*
X147849047Y-123161429D01*
X148229999Y-123542381D02*
X148229999Y-122780476D01*
X153761429Y-123584762D02*
X153618572Y-123632381D01*
X153380476Y-123632381D01*
X153285238Y-123584762D01*
X153237619Y-123537143D01*
X153190000Y-123441905D01*
X153190000Y-123346667D01*
X153237619Y-123251429D01*
X153285238Y-123203810D01*
X153380476Y-123156190D01*
X153570953Y-123108571D01*
X153666191Y-123060952D01*
X153713810Y-123013333D01*
X153761429Y-122918095D01*
X153761429Y-122822857D01*
X153713810Y-122727619D01*
X153666191Y-122680000D01*
X153570953Y-122632381D01*
X153332857Y-122632381D01*
X153190000Y-122680000D01*
X152761429Y-123537143D02*
X152713810Y-123584762D01*
X152761429Y-123632381D01*
X152809048Y-123584762D01*
X152761429Y-123537143D01*
X152761429Y-123632381D01*
X152285239Y-123632381D02*
X152285239Y-122632381D01*
X151904286Y-122632381D01*
X151809048Y-122680000D01*
X151761429Y-122727619D01*
X151713810Y-122822857D01*
X151713810Y-122965714D01*
X151761429Y-123060952D01*
X151809048Y-123108571D01*
X151904286Y-123156190D01*
X152285239Y-123156190D01*
X151142382Y-123632381D02*
X151237620Y-123584762D01*
X151285239Y-123537143D01*
X151332858Y-123441905D01*
X151332858Y-123156190D01*
X151285239Y-123060952D01*
X151237620Y-123013333D01*
X151142382Y-122965714D01*
X150999524Y-122965714D01*
X150904286Y-123013333D01*
X150856667Y-123060952D01*
X150809048Y-123156190D01*
X150809048Y-123441905D01*
X150856667Y-123537143D01*
X150904286Y-123584762D01*
X150999524Y-123632381D01*
X151142382Y-123632381D01*
X150380477Y-123632381D02*
X150380477Y-122965714D01*
X150380477Y-123156190D02*
X150332858Y-123060952D01*
X150285239Y-123013333D01*
X150190001Y-122965714D01*
X150094762Y-122965714D01*
X149904286Y-122965714D02*
X149523334Y-122965714D01*
X149761429Y-122632381D02*
X149761429Y-123489524D01*
X149713810Y-123584762D01*
X149618572Y-123632381D01*
X149523334Y-123632381D01*
X149758571Y-91028571D02*
X149615714Y-91076190D01*
X149568095Y-91123810D01*
X149520476Y-91219048D01*
X149520476Y-91361905D01*
X149568095Y-91457143D01*
X149615714Y-91504762D01*
X149710952Y-91552381D01*
X150091905Y-91552381D01*
X150091905Y-90552381D01*
X149758571Y-90552381D01*
X149663333Y-90600000D01*
X149615714Y-90647619D01*
X149568095Y-90742857D01*
X149568095Y-90838095D01*
X149615714Y-90933333D01*
X149663333Y-90980952D01*
X149758571Y-91028571D01*
X150091905Y-91028571D01*
X148663333Y-90885714D02*
X148663333Y-91552381D01*
X149091905Y-90885714D02*
X149091905Y-91409524D01*
X149044286Y-91504762D01*
X148949048Y-91552381D01*
X148806190Y-91552381D01*
X148710952Y-91504762D01*
X148663333Y-91457143D01*
X148282381Y-90885714D02*
X147758571Y-90885714D01*
X148282381Y-91552381D01*
X147758571Y-91552381D01*
X147472857Y-90885714D02*
X146949047Y-90885714D01*
X147472857Y-91552381D01*
X146949047Y-91552381D01*
X146187142Y-91504762D02*
X146282380Y-91552381D01*
X146472857Y-91552381D01*
X146568095Y-91504762D01*
X146615714Y-91409524D01*
X146615714Y-91028571D01*
X146568095Y-90933333D01*
X146472857Y-90885714D01*
X146282380Y-90885714D01*
X146187142Y-90933333D01*
X146139523Y-91028571D01*
X146139523Y-91123810D01*
X146615714Y-91219048D01*
X145710952Y-91552381D02*
X145710952Y-90885714D01*
X145710952Y-91076190D02*
X145663333Y-90980952D01*
X145615714Y-90933333D01*
X145520476Y-90885714D01*
X145425237Y-90885714D01*
X144377143Y-94751429D02*
X143615238Y-94751429D01*
X143996190Y-95132381D02*
X143996190Y-94370476D01*
X142662857Y-94132381D02*
X143139048Y-94132381D01*
X143186667Y-94608571D01*
X143139048Y-94560952D01*
X143043810Y-94513333D01*
X142805714Y-94513333D01*
X142710476Y-94560952D01*
X142662857Y-94608571D01*
X142615238Y-94703810D01*
X142615238Y-94941905D01*
X142662857Y-95037143D01*
X142710476Y-95084762D01*
X142805714Y-95132381D01*
X143043810Y-95132381D01*
X143139048Y-95084762D01*
X143186667Y-95037143D01*
D13*
X143177143Y-91410000D02*
X143320000Y-91338571D01*
X143534286Y-91338571D01*
X143748571Y-91410000D01*
X143891429Y-91552857D01*
X143962857Y-91695714D01*
X144034286Y-91981429D01*
X144034286Y-92195714D01*
X143962857Y-92481429D01*
X143891429Y-92624286D01*
X143748571Y-92767143D01*
X143534286Y-92838571D01*
X143391429Y-92838571D01*
X143177143Y-92767143D01*
X143105714Y-92695714D01*
X143105714Y-92195714D01*
X143391429Y-92195714D01*
D12*
X158725000Y-99240000D02*
X160575000Y-99240000D01*
X158725000Y-116760000D02*
X160575000Y-116760000D01*
X159650000Y-115800000D02*
X159650000Y-100200000D01*
D14*
G36*
X164581149Y-106241839D02*
X164588165Y-106292956D01*
X164599021Y-106342582D01*
X164612299Y-106387306D01*
X164617477Y-106402582D01*
X164622163Y-106415869D01*
X164625878Y-106425848D01*
X164628144Y-106431200D01*
X164628303Y-106431481D01*
X164629523Y-106432017D01*
X164632504Y-106432171D01*
X164637545Y-106431892D01*
X164644947Y-106431132D01*
X164655011Y-106429843D01*
X164668037Y-106427974D01*
X164684326Y-106425478D01*
X164704178Y-106422306D01*
X164727895Y-106418407D01*
X164755776Y-106413735D01*
X164788122Y-106408238D01*
X164825234Y-106401870D01*
X164867412Y-106394580D01*
X164914958Y-106386320D01*
X164968170Y-106377041D01*
X165027351Y-106366694D01*
X165040374Y-106364415D01*
X165104206Y-106353226D01*
X165162056Y-106343053D01*
X165214279Y-106333824D01*
X165261233Y-106325470D01*
X165303272Y-106317918D01*
X165340753Y-106311099D01*
X165374031Y-106304941D01*
X165403463Y-106299375D01*
X165429405Y-106294328D01*
X165452212Y-106289731D01*
X165472241Y-106285513D01*
X165489847Y-106281603D01*
X165505387Y-106277930D01*
X165519216Y-106274423D01*
X165531690Y-106271012D01*
X165543165Y-106267627D01*
X165553997Y-106264195D01*
X165564543Y-106260647D01*
X165567291Y-106259693D01*
X165619928Y-106238719D01*
X165667135Y-106214362D01*
X165709026Y-106186493D01*
X165745717Y-106154981D01*
X165777325Y-106119697D01*
X165803966Y-106080511D01*
X165825755Y-106037292D01*
X165842808Y-105989912D01*
X165855241Y-105938240D01*
X165855543Y-105936625D01*
X165857425Y-105922803D01*
X165859023Y-105903958D01*
X165860306Y-105881490D01*
X165861241Y-105856802D01*
X165861798Y-105831296D01*
X165861945Y-105806373D01*
X165861651Y-105783435D01*
X165860883Y-105763883D01*
X165859733Y-105750101D01*
X165857169Y-105731766D01*
X165853745Y-105711580D01*
X165849713Y-105690638D01*
X165845321Y-105670033D01*
X165840821Y-105650860D01*
X165836464Y-105634211D01*
X165832499Y-105621181D01*
X165829177Y-105612864D01*
X165827843Y-105610823D01*
X165824106Y-105610524D01*
X165815486Y-105611212D01*
X165803419Y-105612673D01*
X165789339Y-105614690D01*
X165774683Y-105617050D01*
X165760883Y-105619537D01*
X165749377Y-105621936D01*
X165743323Y-105623486D01*
X165741799Y-105624317D01*
X165740576Y-105626247D01*
X165739622Y-105629920D01*
X165738903Y-105635979D01*
X165738385Y-105645069D01*
X165738037Y-105657834D01*
X165737825Y-105674917D01*
X165737715Y-105696962D01*
X165737675Y-105724614D01*
X165737672Y-105733438D01*
X165737570Y-105760208D01*
X165737293Y-105785783D01*
X165736864Y-105809230D01*
X165736306Y-105829614D01*
X165735645Y-105846001D01*
X165734902Y-105857456D01*
X165734424Y-105861596D01*
X165725367Y-105899380D01*
X165711050Y-105933488D01*
X165691459Y-105963936D01*
X165666579Y-105990742D01*
X165636397Y-106013921D01*
X165600898Y-106033489D01*
X165578612Y-106042907D01*
X165566757Y-106047045D01*
X165551574Y-106051770D01*
X165534469Y-106056709D01*
X165516850Y-106061488D01*
X165500124Y-106065734D01*
X165485699Y-106069075D01*
X165474980Y-106071137D01*
X165470321Y-106071620D01*
X165468115Y-106070780D01*
X165467959Y-106067601D01*
X165470119Y-106061090D01*
X165474857Y-106050259D01*
X165477578Y-106044400D01*
X165486981Y-106023178D01*
X165493942Y-106004219D01*
X165498797Y-105985847D01*
X165501883Y-105966389D01*
X165503538Y-105944169D01*
X165504096Y-105917515D01*
X165504106Y-105912468D01*
X165503984Y-105890803D01*
X165503531Y-105874105D01*
X165502618Y-105860918D01*
X165501119Y-105849782D01*
X165498905Y-105839237D01*
X165497043Y-105832088D01*
X165484775Y-105796021D01*
X165469112Y-105765152D01*
X165449795Y-105739064D01*
X165426563Y-105717343D01*
X165424589Y-105715828D01*
X165392613Y-105695600D01*
X165355946Y-105679754D01*
X165314605Y-105668291D01*
X165268608Y-105661214D01*
X165223318Y-105658809D01*
X165223318Y-105875187D01*
X165262148Y-105878346D01*
X165295872Y-105884779D01*
X165308468Y-105888470D01*
X165332615Y-105899356D01*
X165351979Y-105914410D01*
X165366425Y-105933355D01*
X165375820Y-105955915D01*
X165380029Y-105981816D01*
X165378918Y-106010781D01*
X165376094Y-106027435D01*
X165372493Y-106040460D01*
X165367216Y-106054689D01*
X165360965Y-106068699D01*
X165354435Y-106081070D01*
X165348327Y-106090378D01*
X165343338Y-106095201D01*
X165342690Y-106095462D01*
X165338743Y-106096251D01*
X165329007Y-106098042D01*
X165314004Y-106100743D01*
X165294255Y-106104264D01*
X165270282Y-106108514D01*
X165242607Y-106113400D01*
X165211750Y-106118834D01*
X165178234Y-106124723D01*
X165142580Y-106130976D01*
X165105310Y-106137503D01*
X165066944Y-106144212D01*
X165028005Y-106151013D01*
X164989014Y-106157814D01*
X164950492Y-106164524D01*
X164912962Y-106171053D01*
X164876944Y-106177310D01*
X164842960Y-106183202D01*
X164811532Y-106188640D01*
X164783180Y-106193533D01*
X164758428Y-106197789D01*
X164737796Y-106201317D01*
X164721805Y-106204026D01*
X164710977Y-106205826D01*
X164705835Y-106206625D01*
X164705502Y-106206658D01*
X164704091Y-106204931D01*
X164703169Y-106199338D01*
X164702711Y-106189265D01*
X164702691Y-106174096D01*
X164703085Y-106153214D01*
X164703177Y-106149588D01*
X164703890Y-106127203D01*
X164704795Y-106109961D01*
X164706031Y-106096576D01*
X164707735Y-106085761D01*
X164710047Y-106076228D01*
X164711604Y-106071138D01*
X164723827Y-106043192D01*
X164741695Y-106017427D01*
X164765284Y-105993793D01*
X164794669Y-105972241D01*
X164829924Y-105952723D01*
X164871125Y-105935190D01*
X164918348Y-105919592D01*
X164962835Y-105907924D01*
X165022802Y-105894960D01*
X165079126Y-105885188D01*
X165131515Y-105878625D01*
X165179677Y-105875285D01*
X165223318Y-105875187D01*
X165223318Y-105658809D01*
X165217973Y-105658525D01*
X165162718Y-105660226D01*
X165102860Y-105666319D01*
X165076975Y-105670091D01*
X165006769Y-105682815D01*
X164942453Y-105697943D01*
X164883934Y-105715517D01*
X164831120Y-105735578D01*
X164783919Y-105758169D01*
X164742240Y-105783332D01*
X164705989Y-105811109D01*
X164675077Y-105841542D01*
X164659032Y-105861121D01*
X164635869Y-105895543D01*
X164616886Y-105931973D01*
X164601879Y-105971091D01*
X164590641Y-106013580D01*
X164582967Y-106060120D01*
X164578651Y-106111394D01*
X164577919Y-106129764D01*
X164577793Y-106187889D01*
X164581149Y-106241839D01*
X164581149Y-106241839D01*
G37*
X164581149Y-106241839D02*
X164588165Y-106292956D01*
X164599021Y-106342582D01*
X164612299Y-106387306D01*
X164617477Y-106402582D01*
X164622163Y-106415869D01*
X164625878Y-106425848D01*
X164628144Y-106431200D01*
X164628303Y-106431481D01*
X164629523Y-106432017D01*
X164632504Y-106432171D01*
X164637545Y-106431892D01*
X164644947Y-106431132D01*
X164655011Y-106429843D01*
X164668037Y-106427974D01*
X164684326Y-106425478D01*
X164704178Y-106422306D01*
X164727895Y-106418407D01*
X164755776Y-106413735D01*
X164788122Y-106408238D01*
X164825234Y-106401870D01*
X164867412Y-106394580D01*
X164914958Y-106386320D01*
X164968170Y-106377041D01*
X165027351Y-106366694D01*
X165040374Y-106364415D01*
X165104206Y-106353226D01*
X165162056Y-106343053D01*
X165214279Y-106333824D01*
X165261233Y-106325470D01*
X165303272Y-106317918D01*
X165340753Y-106311099D01*
X165374031Y-106304941D01*
X165403463Y-106299375D01*
X165429405Y-106294328D01*
X165452212Y-106289731D01*
X165472241Y-106285513D01*
X165489847Y-106281603D01*
X165505387Y-106277930D01*
X165519216Y-106274423D01*
X165531690Y-106271012D01*
X165543165Y-106267627D01*
X165553997Y-106264195D01*
X165564543Y-106260647D01*
X165567291Y-106259693D01*
X165619928Y-106238719D01*
X165667135Y-106214362D01*
X165709026Y-106186493D01*
X165745717Y-106154981D01*
X165777325Y-106119697D01*
X165803966Y-106080511D01*
X165825755Y-106037292D01*
X165842808Y-105989912D01*
X165855241Y-105938240D01*
X165855543Y-105936625D01*
X165857425Y-105922803D01*
X165859023Y-105903958D01*
X165860306Y-105881490D01*
X165861241Y-105856802D01*
X165861798Y-105831296D01*
X165861945Y-105806373D01*
X165861651Y-105783435D01*
X165860883Y-105763883D01*
X165859733Y-105750101D01*
X165857169Y-105731766D01*
X165853745Y-105711580D01*
X165849713Y-105690638D01*
X165845321Y-105670033D01*
X165840821Y-105650860D01*
X165836464Y-105634211D01*
X165832499Y-105621181D01*
X165829177Y-105612864D01*
X165827843Y-105610823D01*
X165824106Y-105610524D01*
X165815486Y-105611212D01*
X165803419Y-105612673D01*
X165789339Y-105614690D01*
X165774683Y-105617050D01*
X165760883Y-105619537D01*
X165749377Y-105621936D01*
X165743323Y-105623486D01*
X165741799Y-105624317D01*
X165740576Y-105626247D01*
X165739622Y-105629920D01*
X165738903Y-105635979D01*
X165738385Y-105645069D01*
X165738037Y-105657834D01*
X165737825Y-105674917D01*
X165737715Y-105696962D01*
X165737675Y-105724614D01*
X165737672Y-105733438D01*
X165737570Y-105760208D01*
X165737293Y-105785783D01*
X165736864Y-105809230D01*
X165736306Y-105829614D01*
X165735645Y-105846001D01*
X165734902Y-105857456D01*
X165734424Y-105861596D01*
X165725367Y-105899380D01*
X165711050Y-105933488D01*
X165691459Y-105963936D01*
X165666579Y-105990742D01*
X165636397Y-106013921D01*
X165600898Y-106033489D01*
X165578612Y-106042907D01*
X165566757Y-106047045D01*
X165551574Y-106051770D01*
X165534469Y-106056709D01*
X165516850Y-106061488D01*
X165500124Y-106065734D01*
X165485699Y-106069075D01*
X165474980Y-106071137D01*
X165470321Y-106071620D01*
X165468115Y-106070780D01*
X165467959Y-106067601D01*
X165470119Y-106061090D01*
X165474857Y-106050259D01*
X165477578Y-106044400D01*
X165486981Y-106023178D01*
X165493942Y-106004219D01*
X165498797Y-105985847D01*
X165501883Y-105966389D01*
X165503538Y-105944169D01*
X165504096Y-105917515D01*
X165504106Y-105912468D01*
X165503984Y-105890803D01*
X165503531Y-105874105D01*
X165502618Y-105860918D01*
X165501119Y-105849782D01*
X165498905Y-105839237D01*
X165497043Y-105832088D01*
X165484775Y-105796021D01*
X165469112Y-105765152D01*
X165449795Y-105739064D01*
X165426563Y-105717343D01*
X165424589Y-105715828D01*
X165392613Y-105695600D01*
X165355946Y-105679754D01*
X165314605Y-105668291D01*
X165268608Y-105661214D01*
X165223318Y-105658809D01*
X165223318Y-105875187D01*
X165262148Y-105878346D01*
X165295872Y-105884779D01*
X165308468Y-105888470D01*
X165332615Y-105899356D01*
X165351979Y-105914410D01*
X165366425Y-105933355D01*
X165375820Y-105955915D01*
X165380029Y-105981816D01*
X165378918Y-106010781D01*
X165376094Y-106027435D01*
X165372493Y-106040460D01*
X165367216Y-106054689D01*
X165360965Y-106068699D01*
X165354435Y-106081070D01*
X165348327Y-106090378D01*
X165343338Y-106095201D01*
X165342690Y-106095462D01*
X165338743Y-106096251D01*
X165329007Y-106098042D01*
X165314004Y-106100743D01*
X165294255Y-106104264D01*
X165270282Y-106108514D01*
X165242607Y-106113400D01*
X165211750Y-106118834D01*
X165178234Y-106124723D01*
X165142580Y-106130976D01*
X165105310Y-106137503D01*
X165066944Y-106144212D01*
X165028005Y-106151013D01*
X164989014Y-106157814D01*
X164950492Y-106164524D01*
X164912962Y-106171053D01*
X164876944Y-106177310D01*
X164842960Y-106183202D01*
X164811532Y-106188640D01*
X164783180Y-106193533D01*
X164758428Y-106197789D01*
X164737796Y-106201317D01*
X164721805Y-106204026D01*
X164710977Y-106205826D01*
X164705835Y-106206625D01*
X164705502Y-106206658D01*
X164704091Y-106204931D01*
X164703169Y-106199338D01*
X164702711Y-106189265D01*
X164702691Y-106174096D01*
X164703085Y-106153214D01*
X164703177Y-106149588D01*
X164703890Y-106127203D01*
X164704795Y-106109961D01*
X164706031Y-106096576D01*
X164707735Y-106085761D01*
X164710047Y-106076228D01*
X164711604Y-106071138D01*
X164723827Y-106043192D01*
X164741695Y-106017427D01*
X164765284Y-105993793D01*
X164794669Y-105972241D01*
X164829924Y-105952723D01*
X164871125Y-105935190D01*
X164918348Y-105919592D01*
X164962835Y-105907924D01*
X165022802Y-105894960D01*
X165079126Y-105885188D01*
X165131515Y-105878625D01*
X165179677Y-105875285D01*
X165223318Y-105875187D01*
X165223318Y-105658809D01*
X165217973Y-105658525D01*
X165162718Y-105660226D01*
X165102860Y-105666319D01*
X165076975Y-105670091D01*
X165006769Y-105682815D01*
X164942453Y-105697943D01*
X164883934Y-105715517D01*
X164831120Y-105735578D01*
X164783919Y-105758169D01*
X164742240Y-105783332D01*
X164705989Y-105811109D01*
X164675077Y-105841542D01*
X164659032Y-105861121D01*
X164635869Y-105895543D01*
X164616886Y-105931973D01*
X164601879Y-105971091D01*
X164590641Y-106013580D01*
X164582967Y-106060120D01*
X164578651Y-106111394D01*
X164577919Y-106129764D01*
X164577793Y-106187889D01*
X164581149Y-106241839D01*
G36*
X164397033Y-107768821D02*
X164397233Y-107792137D01*
X164397546Y-107812574D01*
X164397954Y-107829371D01*
X164398441Y-107841765D01*
X164398988Y-107848992D01*
X164399373Y-107850561D01*
X164402853Y-107850279D01*
X164411766Y-107849027D01*
X164425216Y-107846956D01*
X164442303Y-107844217D01*
X164462130Y-107840962D01*
X164483798Y-107837342D01*
X164506411Y-107833508D01*
X164529069Y-107829612D01*
X164550876Y-107825804D01*
X164570932Y-107822237D01*
X164588339Y-107819061D01*
X164602201Y-107816427D01*
X164603538Y-107816164D01*
X164612380Y-107814414D01*
X164612380Y-108056196D01*
X164622257Y-108054221D01*
X164629219Y-108052903D01*
X164640893Y-108050770D01*
X164655656Y-108048118D01*
X164671886Y-108045238D01*
X164672029Y-108045213D01*
X164711925Y-108038180D01*
X164717112Y-108020337D01*
X164726693Y-107982499D01*
X164734833Y-107940541D01*
X164741181Y-107896677D01*
X164745388Y-107853125D01*
X164746486Y-107834284D01*
X164747333Y-107816966D01*
X164748170Y-107805025D01*
X164749204Y-107797410D01*
X164750640Y-107793072D01*
X164752684Y-107790960D01*
X164755151Y-107790108D01*
X164759357Y-107789311D01*
X164769378Y-107787487D01*
X164784697Y-107784726D01*
X164804797Y-107781123D01*
X164829161Y-107776769D01*
X164857271Y-107771757D01*
X164888612Y-107766179D01*
X164922665Y-107760126D01*
X164958914Y-107753693D01*
X164991772Y-107747868D01*
X165036114Y-107740024D01*
X165074638Y-107733246D01*
X165107852Y-107727456D01*
X165136268Y-107722576D01*
X165160394Y-107718530D01*
X165180740Y-107715238D01*
X165197815Y-107712626D01*
X165212129Y-107710614D01*
X165224192Y-107709125D01*
X165234514Y-107708082D01*
X165243603Y-107707408D01*
X165251970Y-107707025D01*
X165260124Y-107706856D01*
X165261848Y-107706841D01*
X165286917Y-107707277D01*
X165306924Y-107709253D01*
X165323132Y-107713149D01*
X165336806Y-107719346D01*
X165349208Y-107728225D01*
X165357104Y-107735533D01*
X165363468Y-107742196D01*
X165368582Y-107748688D01*
X165372582Y-107755785D01*
X165375603Y-107764260D01*
X165377782Y-107774889D01*
X165379255Y-107788448D01*
X165380157Y-107805712D01*
X165380625Y-107827456D01*
X165380795Y-107854454D01*
X165380810Y-107870677D01*
X165380839Y-107893303D01*
X165380921Y-107913661D01*
X165381048Y-107930914D01*
X165381212Y-107944227D01*
X165381405Y-107952761D01*
X165381614Y-107955684D01*
X165389185Y-107954804D01*
X165400586Y-107952853D01*
X165414416Y-107950141D01*
X165429276Y-107946979D01*
X165443766Y-107943678D01*
X165456486Y-107940550D01*
X165466034Y-107937904D01*
X165471012Y-107936053D01*
X165471379Y-107935751D01*
X165474417Y-107928987D01*
X165478257Y-107917408D01*
X165482485Y-107902513D01*
X165486685Y-107885799D01*
X165490443Y-107868767D01*
X165491676Y-107862481D01*
X165497903Y-107823765D01*
X165502312Y-107784110D01*
X165504839Y-107744966D01*
X165505418Y-107707783D01*
X165503985Y-107674011D01*
X165501215Y-107649578D01*
X165493444Y-107613096D01*
X165482201Y-107581835D01*
X165467279Y-107555477D01*
X165448472Y-107533705D01*
X165425572Y-107516199D01*
X165408736Y-107507117D01*
X165378328Y-107496019D01*
X165343532Y-107489016D01*
X165304977Y-107486171D01*
X165263288Y-107487553D01*
X165242825Y-107489676D01*
X165236219Y-107490660D01*
X165223998Y-107492639D01*
X165206786Y-107495505D01*
X165185207Y-107499149D01*
X165159884Y-107503462D01*
X165131443Y-107508336D01*
X165100506Y-107513662D01*
X165067698Y-107519331D01*
X165033643Y-107525235D01*
X164998966Y-107531264D01*
X164964289Y-107537311D01*
X164930237Y-107543266D01*
X164897435Y-107549021D01*
X164866506Y-107554467D01*
X164838073Y-107559496D01*
X164812762Y-107563998D01*
X164791197Y-107567866D01*
X164774000Y-107570990D01*
X164761797Y-107573262D01*
X164755211Y-107574572D01*
X164754734Y-107574682D01*
X164752010Y-107575171D01*
X164750065Y-107574498D01*
X164748743Y-107571749D01*
X164747890Y-107566010D01*
X164747351Y-107556364D01*
X164746972Y-107541898D01*
X164746696Y-107527142D01*
X164745810Y-107477873D01*
X164679899Y-107489322D01*
X164613987Y-107500772D01*
X164613100Y-107549763D01*
X164612725Y-107568468D01*
X164612284Y-107581725D01*
X164611620Y-107590517D01*
X164610578Y-107595826D01*
X164609002Y-107598635D01*
X164606735Y-107599926D01*
X164605062Y-107600362D01*
X164600149Y-107601305D01*
X164589763Y-107603184D01*
X164574767Y-107605848D01*
X164556026Y-107609143D01*
X164534403Y-107612917D01*
X164510763Y-107617017D01*
X164504671Y-107618070D01*
X164480658Y-107622231D01*
X164458443Y-107626108D01*
X164438891Y-107629548D01*
X164422867Y-107632397D01*
X164411236Y-107634503D01*
X164404863Y-107635712D01*
X164404196Y-107635856D01*
X164396962Y-107637540D01*
X164396962Y-107743390D01*
X164397033Y-107768821D01*
X164397033Y-107768821D01*
G37*
X164397033Y-107768821D02*
X164397233Y-107792137D01*
X164397546Y-107812574D01*
X164397954Y-107829371D01*
X164398441Y-107841765D01*
X164398988Y-107848992D01*
X164399373Y-107850561D01*
X164402853Y-107850279D01*
X164411766Y-107849027D01*
X164425216Y-107846956D01*
X164442303Y-107844217D01*
X164462130Y-107840962D01*
X164483798Y-107837342D01*
X164506411Y-107833508D01*
X164529069Y-107829612D01*
X164550876Y-107825804D01*
X164570932Y-107822237D01*
X164588339Y-107819061D01*
X164602201Y-107816427D01*
X164603538Y-107816164D01*
X164612380Y-107814414D01*
X164612380Y-108056196D01*
X164622257Y-108054221D01*
X164629219Y-108052903D01*
X164640893Y-108050770D01*
X164655656Y-108048118D01*
X164671886Y-108045238D01*
X164672029Y-108045213D01*
X164711925Y-108038180D01*
X164717112Y-108020337D01*
X164726693Y-107982499D01*
X164734833Y-107940541D01*
X164741181Y-107896677D01*
X164745388Y-107853125D01*
X164746486Y-107834284D01*
X164747333Y-107816966D01*
X164748170Y-107805025D01*
X164749204Y-107797410D01*
X164750640Y-107793072D01*
X164752684Y-107790960D01*
X164755151Y-107790108D01*
X164759357Y-107789311D01*
X164769378Y-107787487D01*
X164784697Y-107784726D01*
X164804797Y-107781123D01*
X164829161Y-107776769D01*
X164857271Y-107771757D01*
X164888612Y-107766179D01*
X164922665Y-107760126D01*
X164958914Y-107753693D01*
X164991772Y-107747868D01*
X165036114Y-107740024D01*
X165074638Y-107733246D01*
X165107852Y-107727456D01*
X165136268Y-107722576D01*
X165160394Y-107718530D01*
X165180740Y-107715238D01*
X165197815Y-107712626D01*
X165212129Y-107710614D01*
X165224192Y-107709125D01*
X165234514Y-107708082D01*
X165243603Y-107707408D01*
X165251970Y-107707025D01*
X165260124Y-107706856D01*
X165261848Y-107706841D01*
X165286917Y-107707277D01*
X165306924Y-107709253D01*
X165323132Y-107713149D01*
X165336806Y-107719346D01*
X165349208Y-107728225D01*
X165357104Y-107735533D01*
X165363468Y-107742196D01*
X165368582Y-107748688D01*
X165372582Y-107755785D01*
X165375603Y-107764260D01*
X165377782Y-107774889D01*
X165379255Y-107788448D01*
X165380157Y-107805712D01*
X165380625Y-107827456D01*
X165380795Y-107854454D01*
X165380810Y-107870677D01*
X165380839Y-107893303D01*
X165380921Y-107913661D01*
X165381048Y-107930914D01*
X165381212Y-107944227D01*
X165381405Y-107952761D01*
X165381614Y-107955684D01*
X165389185Y-107954804D01*
X165400586Y-107952853D01*
X165414416Y-107950141D01*
X165429276Y-107946979D01*
X165443766Y-107943678D01*
X165456486Y-107940550D01*
X165466034Y-107937904D01*
X165471012Y-107936053D01*
X165471379Y-107935751D01*
X165474417Y-107928987D01*
X165478257Y-107917408D01*
X165482485Y-107902513D01*
X165486685Y-107885799D01*
X165490443Y-107868767D01*
X165491676Y-107862481D01*
X165497903Y-107823765D01*
X165502312Y-107784110D01*
X165504839Y-107744966D01*
X165505418Y-107707783D01*
X165503985Y-107674011D01*
X165501215Y-107649578D01*
X165493444Y-107613096D01*
X165482201Y-107581835D01*
X165467279Y-107555477D01*
X165448472Y-107533705D01*
X165425572Y-107516199D01*
X165408736Y-107507117D01*
X165378328Y-107496019D01*
X165343532Y-107489016D01*
X165304977Y-107486171D01*
X165263288Y-107487553D01*
X165242825Y-107489676D01*
X165236219Y-107490660D01*
X165223998Y-107492639D01*
X165206786Y-107495505D01*
X165185207Y-107499149D01*
X165159884Y-107503462D01*
X165131443Y-107508336D01*
X165100506Y-107513662D01*
X165067698Y-107519331D01*
X165033643Y-107525235D01*
X164998966Y-107531264D01*
X164964289Y-107537311D01*
X164930237Y-107543266D01*
X164897435Y-107549021D01*
X164866506Y-107554467D01*
X164838073Y-107559496D01*
X164812762Y-107563998D01*
X164791197Y-107567866D01*
X164774000Y-107570990D01*
X164761797Y-107573262D01*
X164755211Y-107574572D01*
X164754734Y-107574682D01*
X164752010Y-107575171D01*
X164750065Y-107574498D01*
X164748743Y-107571749D01*
X164747890Y-107566010D01*
X164747351Y-107556364D01*
X164746972Y-107541898D01*
X164746696Y-107527142D01*
X164745810Y-107477873D01*
X164679899Y-107489322D01*
X164613987Y-107500772D01*
X164613100Y-107549763D01*
X164612725Y-107568468D01*
X164612284Y-107581725D01*
X164611620Y-107590517D01*
X164610578Y-107595826D01*
X164609002Y-107598635D01*
X164606735Y-107599926D01*
X164605062Y-107600362D01*
X164600149Y-107601305D01*
X164589763Y-107603184D01*
X164574767Y-107605848D01*
X164556026Y-107609143D01*
X164534403Y-107612917D01*
X164510763Y-107617017D01*
X164504671Y-107618070D01*
X164480658Y-107622231D01*
X164458443Y-107626108D01*
X164438891Y-107629548D01*
X164422867Y-107632397D01*
X164411236Y-107634503D01*
X164404863Y-107635712D01*
X164404196Y-107635856D01*
X164396962Y-107637540D01*
X164396962Y-107743390D01*
X164397033Y-107768821D01*
G36*
X164221424Y-108662081D02*
X164223269Y-108699792D01*
X164226106Y-108736605D01*
X164229915Y-108771316D01*
X164231840Y-108785240D01*
X164234754Y-108802870D01*
X164238323Y-108821319D01*
X164242250Y-108839366D01*
X164246243Y-108855789D01*
X164250006Y-108869367D01*
X164253245Y-108878879D01*
X164255388Y-108882877D01*
X164259479Y-108883420D01*
X164268637Y-108882877D01*
X164281624Y-108881422D01*
X164297200Y-108879231D01*
X164314129Y-108876479D01*
X164331170Y-108873341D01*
X164347087Y-108869992D01*
X164347930Y-108869799D01*
X164355164Y-108868138D01*
X164355164Y-108730516D01*
X164355211Y-108693249D01*
X164355388Y-108661737D01*
X164355754Y-108635303D01*
X164356363Y-108613275D01*
X164357274Y-108594975D01*
X164358543Y-108579729D01*
X164360227Y-108566861D01*
X164362383Y-108555697D01*
X164365067Y-108545560D01*
X164368336Y-108535777D01*
X164372247Y-108525671D01*
X164372428Y-108525224D01*
X164388553Y-108493639D01*
X164409508Y-108466255D01*
X164435207Y-108443131D01*
X164465563Y-108424324D01*
X164500490Y-108409893D01*
X164539902Y-108399895D01*
X164565460Y-108396072D01*
X164596517Y-108394596D01*
X164624457Y-108397972D01*
X164650297Y-108406555D01*
X164675054Y-108420702D01*
X164699744Y-108440770D01*
X164703750Y-108444549D01*
X164715889Y-108456731D01*
X164726975Y-108469163D01*
X164737558Y-108482677D01*
X164748188Y-108498107D01*
X164759415Y-108516287D01*
X164771790Y-108538049D01*
X164785862Y-108564228D01*
X164797546Y-108586651D01*
X164813951Y-108617654D01*
X164828726Y-108643710D01*
X164842592Y-108665860D01*
X164856271Y-108685144D01*
X164870483Y-108702600D01*
X164885949Y-108719269D01*
X164897228Y-108730376D01*
X164928469Y-108756425D01*
X164962243Y-108776985D01*
X164999672Y-108792714D01*
X165007848Y-108795387D01*
X165017415Y-108798184D01*
X165026315Y-108800188D01*
X165035897Y-108801523D01*
X165047512Y-108802309D01*
X165062509Y-108802672D01*
X165082239Y-108802735D01*
X165088228Y-108802717D01*
X165111936Y-108802451D01*
X165130886Y-108801759D01*
X165146740Y-108800505D01*
X165161163Y-108798553D01*
X165175819Y-108795768D01*
X165177251Y-108795462D01*
X165228585Y-108781615D01*
X165275975Y-108763080D01*
X165319216Y-108740005D01*
X165358105Y-108712536D01*
X165392438Y-108680821D01*
X165422009Y-108645008D01*
X165446614Y-108605244D01*
X165449959Y-108598759D01*
X165466033Y-108562983D01*
X165479188Y-108525047D01*
X165489830Y-108483598D01*
X165498255Y-108438000D01*
X165500053Y-108422721D01*
X165501610Y-108402252D01*
X165502903Y-108377832D01*
X165503908Y-108350697D01*
X165504601Y-108322086D01*
X165504957Y-108293235D01*
X165504952Y-108265382D01*
X165504563Y-108239766D01*
X165503765Y-108217622D01*
X165502821Y-108203291D01*
X165500403Y-108179258D01*
X165497281Y-108154459D01*
X165493623Y-108129752D01*
X165489598Y-108105994D01*
X165485374Y-108084043D01*
X165481121Y-108064755D01*
X165477007Y-108048988D01*
X165473200Y-108037599D01*
X165469870Y-108031446D01*
X165468853Y-108030690D01*
X165464019Y-108030607D01*
X165453886Y-108031679D01*
X165439454Y-108033751D01*
X165421719Y-108036666D01*
X165401679Y-108040272D01*
X165380333Y-108044412D01*
X165380006Y-108044478D01*
X165371164Y-108046258D01*
X165371102Y-108189882D01*
X165371022Y-108228856D01*
X165370811Y-108261982D01*
X165370452Y-108289842D01*
X165369930Y-108313017D01*
X165369230Y-108332087D01*
X165368335Y-108347636D01*
X165367231Y-108360243D01*
X165366376Y-108367266D01*
X165360079Y-108403562D01*
X165351706Y-108434672D01*
X165340778Y-108461637D01*
X165326818Y-108485500D01*
X165309346Y-108507302D01*
X165295775Y-108520960D01*
X165276256Y-108537509D01*
X165256245Y-108550596D01*
X165233630Y-108561441D01*
X165211945Y-108569424D01*
X165174103Y-108579613D01*
X165138984Y-108584010D01*
X165106457Y-108582583D01*
X165076391Y-108575300D01*
X165048654Y-108562131D01*
X165023113Y-108543043D01*
X165000576Y-108519168D01*
X164993199Y-108509730D01*
X164985970Y-108499611D01*
X164978429Y-108488036D01*
X164970120Y-108474229D01*
X164960584Y-108457416D01*
X164949362Y-108436821D01*
X164935997Y-108411669D01*
X164927519Y-108395519D01*
X164905543Y-108355247D01*
X164884616Y-108320647D01*
X164864251Y-108291148D01*
X164843964Y-108266176D01*
X164823269Y-108245161D01*
X164801679Y-108227529D01*
X164778710Y-108212709D01*
X164766986Y-108206392D01*
X164728707Y-108190414D01*
X164687919Y-108180153D01*
X164644424Y-108175578D01*
X164598026Y-108176656D01*
X164589873Y-108177395D01*
X164538330Y-108184506D01*
X164491730Y-108195165D01*
X164449494Y-108209629D01*
X164411042Y-108228154D01*
X164375793Y-108250996D01*
X164343170Y-108278412D01*
X164328798Y-108292720D01*
X164299911Y-108326745D01*
X164275748Y-108363612D01*
X164256006Y-108403947D01*
X164240383Y-108448375D01*
X164228577Y-108497523D01*
X164227680Y-108502260D01*
X164224306Y-108526375D01*
X164222010Y-108555619D01*
X164220777Y-108588789D01*
X164220587Y-108624678D01*
X164221424Y-108662081D01*
X164221424Y-108662081D01*
G37*
X164221424Y-108662081D02*
X164223269Y-108699792D01*
X164226106Y-108736605D01*
X164229915Y-108771316D01*
X164231840Y-108785240D01*
X164234754Y-108802870D01*
X164238323Y-108821319D01*
X164242250Y-108839366D01*
X164246243Y-108855789D01*
X164250006Y-108869367D01*
X164253245Y-108878879D01*
X164255388Y-108882877D01*
X164259479Y-108883420D01*
X164268637Y-108882877D01*
X164281624Y-108881422D01*
X164297200Y-108879231D01*
X164314129Y-108876479D01*
X164331170Y-108873341D01*
X164347087Y-108869992D01*
X164347930Y-108869799D01*
X164355164Y-108868138D01*
X164355164Y-108730516D01*
X164355211Y-108693249D01*
X164355388Y-108661737D01*
X164355754Y-108635303D01*
X164356363Y-108613275D01*
X164357274Y-108594975D01*
X164358543Y-108579729D01*
X164360227Y-108566861D01*
X164362383Y-108555697D01*
X164365067Y-108545560D01*
X164368336Y-108535777D01*
X164372247Y-108525671D01*
X164372428Y-108525224D01*
X164388553Y-108493639D01*
X164409508Y-108466255D01*
X164435207Y-108443131D01*
X164465563Y-108424324D01*
X164500490Y-108409893D01*
X164539902Y-108399895D01*
X164565460Y-108396072D01*
X164596517Y-108394596D01*
X164624457Y-108397972D01*
X164650297Y-108406555D01*
X164675054Y-108420702D01*
X164699744Y-108440770D01*
X164703750Y-108444549D01*
X164715889Y-108456731D01*
X164726975Y-108469163D01*
X164737558Y-108482677D01*
X164748188Y-108498107D01*
X164759415Y-108516287D01*
X164771790Y-108538049D01*
X164785862Y-108564228D01*
X164797546Y-108586651D01*
X164813951Y-108617654D01*
X164828726Y-108643710D01*
X164842592Y-108665860D01*
X164856271Y-108685144D01*
X164870483Y-108702600D01*
X164885949Y-108719269D01*
X164897228Y-108730376D01*
X164928469Y-108756425D01*
X164962243Y-108776985D01*
X164999672Y-108792714D01*
X165007848Y-108795387D01*
X165017415Y-108798184D01*
X165026315Y-108800188D01*
X165035897Y-108801523D01*
X165047512Y-108802309D01*
X165062509Y-108802672D01*
X165082239Y-108802735D01*
X165088228Y-108802717D01*
X165111936Y-108802451D01*
X165130886Y-108801759D01*
X165146740Y-108800505D01*
X165161163Y-108798553D01*
X165175819Y-108795768D01*
X165177251Y-108795462D01*
X165228585Y-108781615D01*
X165275975Y-108763080D01*
X165319216Y-108740005D01*
X165358105Y-108712536D01*
X165392438Y-108680821D01*
X165422009Y-108645008D01*
X165446614Y-108605244D01*
X165449959Y-108598759D01*
X165466033Y-108562983D01*
X165479188Y-108525047D01*
X165489830Y-108483598D01*
X165498255Y-108438000D01*
X165500053Y-108422721D01*
X165501610Y-108402252D01*
X165502903Y-108377832D01*
X165503908Y-108350697D01*
X165504601Y-108322086D01*
X165504957Y-108293235D01*
X165504952Y-108265382D01*
X165504563Y-108239766D01*
X165503765Y-108217622D01*
X165502821Y-108203291D01*
X165500403Y-108179258D01*
X165497281Y-108154459D01*
X165493623Y-108129752D01*
X165489598Y-108105994D01*
X165485374Y-108084043D01*
X165481121Y-108064755D01*
X165477007Y-108048988D01*
X165473200Y-108037599D01*
X165469870Y-108031446D01*
X165468853Y-108030690D01*
X165464019Y-108030607D01*
X165453886Y-108031679D01*
X165439454Y-108033751D01*
X165421719Y-108036666D01*
X165401679Y-108040272D01*
X165380333Y-108044412D01*
X165380006Y-108044478D01*
X165371164Y-108046258D01*
X165371102Y-108189882D01*
X165371022Y-108228856D01*
X165370811Y-108261982D01*
X165370452Y-108289842D01*
X165369930Y-108313017D01*
X165369230Y-108332087D01*
X165368335Y-108347636D01*
X165367231Y-108360243D01*
X165366376Y-108367266D01*
X165360079Y-108403562D01*
X165351706Y-108434672D01*
X165340778Y-108461637D01*
X165326818Y-108485500D01*
X165309346Y-108507302D01*
X165295775Y-108520960D01*
X165276256Y-108537509D01*
X165256245Y-108550596D01*
X165233630Y-108561441D01*
X165211945Y-108569424D01*
X165174103Y-108579613D01*
X165138984Y-108584010D01*
X165106457Y-108582583D01*
X165076391Y-108575300D01*
X165048654Y-108562131D01*
X165023113Y-108543043D01*
X165000576Y-108519168D01*
X164993199Y-108509730D01*
X164985970Y-108499611D01*
X164978429Y-108488036D01*
X164970120Y-108474229D01*
X164960584Y-108457416D01*
X164949362Y-108436821D01*
X164935997Y-108411669D01*
X164927519Y-108395519D01*
X164905543Y-108355247D01*
X164884616Y-108320647D01*
X164864251Y-108291148D01*
X164843964Y-108266176D01*
X164823269Y-108245161D01*
X164801679Y-108227529D01*
X164778710Y-108212709D01*
X164766986Y-108206392D01*
X164728707Y-108190414D01*
X164687919Y-108180153D01*
X164644424Y-108175578D01*
X164598026Y-108176656D01*
X164589873Y-108177395D01*
X164538330Y-108184506D01*
X164491730Y-108195165D01*
X164449494Y-108209629D01*
X164411042Y-108228154D01*
X164375793Y-108250996D01*
X164343170Y-108278412D01*
X164328798Y-108292720D01*
X164299911Y-108326745D01*
X164275748Y-108363612D01*
X164256006Y-108403947D01*
X164240383Y-108448375D01*
X164228577Y-108497523D01*
X164227680Y-108502260D01*
X164224306Y-108526375D01*
X164222010Y-108555619D01*
X164220777Y-108588789D01*
X164220587Y-108624678D01*
X164221424Y-108662081D01*
G36*
X164397033Y-109251024D02*
X164397233Y-109274340D01*
X164397546Y-109294779D01*
X164397954Y-109311577D01*
X164398441Y-109323971D01*
X164398988Y-109331200D01*
X164399373Y-109332770D01*
X164402865Y-109332497D01*
X164411782Y-109331255D01*
X164425219Y-109329198D01*
X164442271Y-109326476D01*
X164462032Y-109323243D01*
X164483594Y-109319651D01*
X164506054Y-109315851D01*
X164528504Y-109311997D01*
X164550039Y-109308241D01*
X164569754Y-109304734D01*
X164586741Y-109301630D01*
X164600095Y-109299081D01*
X164601930Y-109298715D01*
X164612380Y-109296616D01*
X164612380Y-109538399D01*
X164622257Y-109536423D01*
X164629219Y-109535105D01*
X164640893Y-109532973D01*
X164655656Y-109530320D01*
X164671886Y-109527441D01*
X164672029Y-109527415D01*
X164711925Y-109520383D01*
X164717112Y-109502539D01*
X164726693Y-109464702D01*
X164734833Y-109422743D01*
X164741181Y-109378880D01*
X164745388Y-109335327D01*
X164746486Y-109316487D01*
X164747333Y-109299169D01*
X164748170Y-109287227D01*
X164749204Y-109279613D01*
X164750640Y-109275275D01*
X164752684Y-109273163D01*
X164755151Y-109272312D01*
X164760757Y-109271215D01*
X164772065Y-109269137D01*
X164788436Y-109266190D01*
X164809236Y-109262484D01*
X164833827Y-109258131D01*
X164861573Y-109253241D01*
X164891837Y-109247925D01*
X164923984Y-109242294D01*
X164957377Y-109236459D01*
X164991378Y-109230530D01*
X165025353Y-109224619D01*
X165058664Y-109218837D01*
X165090676Y-109213294D01*
X165120751Y-109208101D01*
X165148253Y-109203369D01*
X165172546Y-109199209D01*
X165192993Y-109195731D01*
X165208959Y-109193048D01*
X165219806Y-109191268D01*
X165224302Y-109190580D01*
X165258231Y-109187758D01*
X165288706Y-109188919D01*
X165315371Y-109193923D01*
X165337871Y-109202627D01*
X165355853Y-109214888D01*
X165368960Y-109230565D01*
X165376837Y-109249515D01*
X165377405Y-109251958D01*
X165378359Y-109259656D01*
X165379203Y-109272773D01*
X165379904Y-109290299D01*
X165380426Y-109311223D01*
X165380737Y-109334534D01*
X165380810Y-109352880D01*
X165380850Y-109375508D01*
X165380963Y-109395870D01*
X165381139Y-109413130D01*
X165381366Y-109426450D01*
X165381632Y-109434993D01*
X165381921Y-109437924D01*
X165388508Y-109437252D01*
X165399200Y-109435448D01*
X165412587Y-109432824D01*
X165427261Y-109429698D01*
X165441811Y-109426382D01*
X165454830Y-109423192D01*
X165464907Y-109420444D01*
X165470633Y-109418450D01*
X165471388Y-109417939D01*
X165474420Y-109411185D01*
X165478256Y-109399617D01*
X165482480Y-109384733D01*
X165486678Y-109368033D01*
X165490433Y-109351015D01*
X165491676Y-109344683D01*
X165497903Y-109305968D01*
X165502312Y-109266313D01*
X165504839Y-109227169D01*
X165505418Y-109189986D01*
X165503985Y-109156214D01*
X165501215Y-109131780D01*
X165493285Y-109094940D01*
X165481652Y-109063243D01*
X165466106Y-109036430D01*
X165446436Y-109014244D01*
X165422429Y-108996427D01*
X165393875Y-108982722D01*
X165373635Y-108976131D01*
X165357760Y-108972974D01*
X165337276Y-108970726D01*
X165313947Y-108969453D01*
X165289537Y-108969218D01*
X165265813Y-108970086D01*
X165248998Y-108971562D01*
X165241818Y-108972581D01*
X165228961Y-108974605D01*
X165211064Y-108977522D01*
X165188768Y-108981223D01*
X165162708Y-108985598D01*
X165133524Y-108990535D01*
X165101853Y-108995926D01*
X165068334Y-109001660D01*
X165033604Y-109007626D01*
X164998302Y-109013715D01*
X164963066Y-109019816D01*
X164928533Y-109025818D01*
X164895343Y-109031613D01*
X164864132Y-109037089D01*
X164835539Y-109042136D01*
X164810202Y-109046644D01*
X164788760Y-109050503D01*
X164771850Y-109053603D01*
X164760110Y-109055832D01*
X164754734Y-109056947D01*
X164752009Y-109057411D01*
X164750063Y-109056716D01*
X164748741Y-109053947D01*
X164747888Y-109048187D01*
X164747349Y-109038520D01*
X164746970Y-109024028D01*
X164746696Y-109009397D01*
X164745810Y-108960180D01*
X164679899Y-108971577D01*
X164613987Y-108982975D01*
X164613100Y-109031966D01*
X164612725Y-109050670D01*
X164612283Y-109063928D01*
X164611620Y-109072721D01*
X164610577Y-109078031D01*
X164609001Y-109080842D01*
X164606734Y-109082136D01*
X164605062Y-109082574D01*
X164600149Y-109083520D01*
X164589763Y-109085402D01*
X164574767Y-109088069D01*
X164556026Y-109091367D01*
X164534404Y-109095144D01*
X164510764Y-109099247D01*
X164504671Y-109100301D01*
X164480658Y-109104463D01*
X164458444Y-109108341D01*
X164438892Y-109111779D01*
X164422867Y-109114627D01*
X164411236Y-109116729D01*
X164404863Y-109117935D01*
X164404196Y-109118077D01*
X164396962Y-109119743D01*
X164396962Y-109225593D01*
X164397033Y-109251024D01*
X164397033Y-109251024D01*
G37*
X164397033Y-109251024D02*
X164397233Y-109274340D01*
X164397546Y-109294779D01*
X164397954Y-109311577D01*
X164398441Y-109323971D01*
X164398988Y-109331200D01*
X164399373Y-109332770D01*
X164402865Y-109332497D01*
X164411782Y-109331255D01*
X164425219Y-109329198D01*
X164442271Y-109326476D01*
X164462032Y-109323243D01*
X164483594Y-109319651D01*
X164506054Y-109315851D01*
X164528504Y-109311997D01*
X164550039Y-109308241D01*
X164569754Y-109304734D01*
X164586741Y-109301630D01*
X164600095Y-109299081D01*
X164601930Y-109298715D01*
X164612380Y-109296616D01*
X164612380Y-109538399D01*
X164622257Y-109536423D01*
X164629219Y-109535105D01*
X164640893Y-109532973D01*
X164655656Y-109530320D01*
X164671886Y-109527441D01*
X164672029Y-109527415D01*
X164711925Y-109520383D01*
X164717112Y-109502539D01*
X164726693Y-109464702D01*
X164734833Y-109422743D01*
X164741181Y-109378880D01*
X164745388Y-109335327D01*
X164746486Y-109316487D01*
X164747333Y-109299169D01*
X164748170Y-109287227D01*
X164749204Y-109279613D01*
X164750640Y-109275275D01*
X164752684Y-109273163D01*
X164755151Y-109272312D01*
X164760757Y-109271215D01*
X164772065Y-109269137D01*
X164788436Y-109266190D01*
X164809236Y-109262484D01*
X164833827Y-109258131D01*
X164861573Y-109253241D01*
X164891837Y-109247925D01*
X164923984Y-109242294D01*
X164957377Y-109236459D01*
X164991378Y-109230530D01*
X165025353Y-109224619D01*
X165058664Y-109218837D01*
X165090676Y-109213294D01*
X165120751Y-109208101D01*
X165148253Y-109203369D01*
X165172546Y-109199209D01*
X165192993Y-109195731D01*
X165208959Y-109193048D01*
X165219806Y-109191268D01*
X165224302Y-109190580D01*
X165258231Y-109187758D01*
X165288706Y-109188919D01*
X165315371Y-109193923D01*
X165337871Y-109202627D01*
X165355853Y-109214888D01*
X165368960Y-109230565D01*
X165376837Y-109249515D01*
X165377405Y-109251958D01*
X165378359Y-109259656D01*
X165379203Y-109272773D01*
X165379904Y-109290299D01*
X165380426Y-109311223D01*
X165380737Y-109334534D01*
X165380810Y-109352880D01*
X165380850Y-109375508D01*
X165380963Y-109395870D01*
X165381139Y-109413130D01*
X165381366Y-109426450D01*
X165381632Y-109434993D01*
X165381921Y-109437924D01*
X165388508Y-109437252D01*
X165399200Y-109435448D01*
X165412587Y-109432824D01*
X165427261Y-109429698D01*
X165441811Y-109426382D01*
X165454830Y-109423192D01*
X165464907Y-109420444D01*
X165470633Y-109418450D01*
X165471388Y-109417939D01*
X165474420Y-109411185D01*
X165478256Y-109399617D01*
X165482480Y-109384733D01*
X165486678Y-109368033D01*
X165490433Y-109351015D01*
X165491676Y-109344683D01*
X165497903Y-109305968D01*
X165502312Y-109266313D01*
X165504839Y-109227169D01*
X165505418Y-109189986D01*
X165503985Y-109156214D01*
X165501215Y-109131780D01*
X165493285Y-109094940D01*
X165481652Y-109063243D01*
X165466106Y-109036430D01*
X165446436Y-109014244D01*
X165422429Y-108996427D01*
X165393875Y-108982722D01*
X165373635Y-108976131D01*
X165357760Y-108972974D01*
X165337276Y-108970726D01*
X165313947Y-108969453D01*
X165289537Y-108969218D01*
X165265813Y-108970086D01*
X165248998Y-108971562D01*
X165241818Y-108972581D01*
X165228961Y-108974605D01*
X165211064Y-108977522D01*
X165188768Y-108981223D01*
X165162708Y-108985598D01*
X165133524Y-108990535D01*
X165101853Y-108995926D01*
X165068334Y-109001660D01*
X165033604Y-109007626D01*
X164998302Y-109013715D01*
X164963066Y-109019816D01*
X164928533Y-109025818D01*
X164895343Y-109031613D01*
X164864132Y-109037089D01*
X164835539Y-109042136D01*
X164810202Y-109046644D01*
X164788760Y-109050503D01*
X164771850Y-109053603D01*
X164760110Y-109055832D01*
X164754734Y-109056947D01*
X164752009Y-109057411D01*
X164750063Y-109056716D01*
X164748741Y-109053947D01*
X164747888Y-109048187D01*
X164747349Y-109038520D01*
X164746970Y-109024028D01*
X164746696Y-109009397D01*
X164745810Y-108960180D01*
X164679899Y-108971577D01*
X164613987Y-108982975D01*
X164613100Y-109031966D01*
X164612725Y-109050670D01*
X164612283Y-109063928D01*
X164611620Y-109072721D01*
X164610577Y-109078031D01*
X164609001Y-109080842D01*
X164606734Y-109082136D01*
X164605062Y-109082574D01*
X164600149Y-109083520D01*
X164589763Y-109085402D01*
X164574767Y-109088069D01*
X164556026Y-109091367D01*
X164534404Y-109095144D01*
X164510764Y-109099247D01*
X164504671Y-109100301D01*
X164480658Y-109104463D01*
X164458444Y-109108341D01*
X164438892Y-109111779D01*
X164422867Y-109114627D01*
X164411236Y-109116729D01*
X164404863Y-109117935D01*
X164404196Y-109118077D01*
X164396962Y-109119743D01*
X164396962Y-109225593D01*
X164397033Y-109251024D01*
G36*
X164578611Y-110087209D02*
X164579179Y-110113540D01*
X164580210Y-110137206D01*
X164581714Y-110156910D01*
X164582828Y-110166164D01*
X164586008Y-110185062D01*
X164590253Y-110205946D01*
X164595308Y-110227929D01*
X164600915Y-110250121D01*
X164606816Y-110271633D01*
X164612755Y-110291576D01*
X164618473Y-110309061D01*
X164623715Y-110323199D01*
X164628223Y-110333100D01*
X164631739Y-110337876D01*
X164632591Y-110338177D01*
X164636175Y-110337633D01*
X164645643Y-110336052D01*
X164660546Y-110333513D01*
X164680435Y-110330095D01*
X164704860Y-110325876D01*
X164733373Y-110320935D01*
X164765524Y-110315351D01*
X164800865Y-110309203D01*
X164838946Y-110302568D01*
X164879318Y-110295526D01*
X164921532Y-110288156D01*
X164965140Y-110280535D01*
X165009691Y-110272743D01*
X165054738Y-110264858D01*
X165099830Y-110256959D01*
X165144519Y-110249124D01*
X165188356Y-110241433D01*
X165230892Y-110233963D01*
X165271677Y-110226794D01*
X165310262Y-110220004D01*
X165346199Y-110213671D01*
X165379038Y-110207875D01*
X165408331Y-110202694D01*
X165433627Y-110198206D01*
X165454479Y-110194491D01*
X165470437Y-110191627D01*
X165481051Y-110189692D01*
X165485874Y-110188766D01*
X165486108Y-110188707D01*
X165487460Y-110186645D01*
X165488497Y-110181152D01*
X165489252Y-110171635D01*
X165489754Y-110157497D01*
X165490035Y-110138145D01*
X165490126Y-110112984D01*
X165490127Y-110111806D01*
X165490127Y-110036348D01*
X165462797Y-110027448D01*
X165450543Y-110023032D01*
X165441172Y-110018838D01*
X165436037Y-110015507D01*
X165435468Y-110014487D01*
X165437137Y-110010140D01*
X165441607Y-110001906D01*
X165448072Y-109991220D01*
X165451661Y-109985623D01*
X165469318Y-109956828D01*
X165482745Y-109930417D01*
X165492478Y-109904664D01*
X165499050Y-109877845D01*
X165502998Y-109848236D01*
X165504854Y-109814113D01*
X165504855Y-109814101D01*
X165505255Y-109792450D01*
X165505071Y-109775503D01*
X165504198Y-109761553D01*
X165502531Y-109748891D01*
X165500073Y-109736307D01*
X165489533Y-109701026D01*
X165474197Y-109669796D01*
X165454006Y-109642575D01*
X165428901Y-109619320D01*
X165398823Y-109599988D01*
X165363712Y-109584537D01*
X165323508Y-109572924D01*
X165278152Y-109565105D01*
X165259692Y-109563133D01*
X165220882Y-109561178D01*
X165199972Y-109561611D01*
X165199972Y-109777896D01*
X165200759Y-109777896D01*
X165240672Y-109779167D01*
X165274936Y-109783052D01*
X165303837Y-109789683D01*
X165327659Y-109799191D01*
X165346686Y-109811710D01*
X165361203Y-109827370D01*
X165371494Y-109846303D01*
X165375712Y-109859114D01*
X165379985Y-109884494D01*
X165379353Y-109910956D01*
X165376185Y-109930240D01*
X165372004Y-109945438D01*
X165366059Y-109961298D01*
X165359174Y-109976032D01*
X165352176Y-109987852D01*
X165346598Y-109994404D01*
X165342848Y-109995811D01*
X165333878Y-109998044D01*
X165319569Y-110001125D01*
X165299804Y-110005076D01*
X165274462Y-110009919D01*
X165243427Y-110015677D01*
X165206579Y-110022370D01*
X165163799Y-110030023D01*
X165114969Y-110038656D01*
X165059970Y-110048292D01*
X165030354Y-110053452D01*
X164986385Y-110061102D01*
X164944095Y-110068462D01*
X164903930Y-110075454D01*
X164866336Y-110082000D01*
X164831756Y-110088023D01*
X164800636Y-110093446D01*
X164773421Y-110098191D01*
X164750555Y-110102180D01*
X164732484Y-110105336D01*
X164719653Y-110107581D01*
X164712506Y-110108839D01*
X164711247Y-110109064D01*
X164702405Y-110110702D01*
X164702461Y-110062876D01*
X164703543Y-110027616D01*
X164706881Y-109997599D01*
X164712746Y-109971955D01*
X164721410Y-109949811D01*
X164733145Y-109930295D01*
X164748221Y-109912535D01*
X164749738Y-109911006D01*
X164772569Y-109890751D01*
X164798607Y-109872473D01*
X164828327Y-109855978D01*
X164862209Y-109841072D01*
X164900728Y-109827560D01*
X164944364Y-109815248D01*
X164993593Y-109803940D01*
X165030354Y-109796755D01*
X165071532Y-109789620D01*
X165107833Y-109784304D01*
X165140508Y-109780671D01*
X165170804Y-109778581D01*
X165199972Y-109777896D01*
X165199972Y-109561611D01*
X165178304Y-109562060D01*
X165131469Y-109565817D01*
X165079887Y-109572488D01*
X165027139Y-109581357D01*
X164973749Y-109592298D01*
X164925489Y-109604606D01*
X164881133Y-109618654D01*
X164839459Y-109634818D01*
X164812385Y-109647039D01*
X164766158Y-109671638D01*
X164725660Y-109698764D01*
X164690590Y-109728808D01*
X164660650Y-109762164D01*
X164635541Y-109799222D01*
X164614963Y-109840376D01*
X164598617Y-109886017D01*
X164586204Y-109936538D01*
X164584411Y-109945924D01*
X164582395Y-109960995D01*
X164580787Y-109981187D01*
X164579595Y-110005202D01*
X164578828Y-110031742D01*
X164578498Y-110059510D01*
X164578611Y-110087209D01*
X164578611Y-110087209D01*
G37*
X164578611Y-110087209D02*
X164579179Y-110113540D01*
X164580210Y-110137206D01*
X164581714Y-110156910D01*
X164582828Y-110166164D01*
X164586008Y-110185062D01*
X164590253Y-110205946D01*
X164595308Y-110227929D01*
X164600915Y-110250121D01*
X164606816Y-110271633D01*
X164612755Y-110291576D01*
X164618473Y-110309061D01*
X164623715Y-110323199D01*
X164628223Y-110333100D01*
X164631739Y-110337876D01*
X164632591Y-110338177D01*
X164636175Y-110337633D01*
X164645643Y-110336052D01*
X164660546Y-110333513D01*
X164680435Y-110330095D01*
X164704860Y-110325876D01*
X164733373Y-110320935D01*
X164765524Y-110315351D01*
X164800865Y-110309203D01*
X164838946Y-110302568D01*
X164879318Y-110295526D01*
X164921532Y-110288156D01*
X164965140Y-110280535D01*
X165009691Y-110272743D01*
X165054738Y-110264858D01*
X165099830Y-110256959D01*
X165144519Y-110249124D01*
X165188356Y-110241433D01*
X165230892Y-110233963D01*
X165271677Y-110226794D01*
X165310262Y-110220004D01*
X165346199Y-110213671D01*
X165379038Y-110207875D01*
X165408331Y-110202694D01*
X165433627Y-110198206D01*
X165454479Y-110194491D01*
X165470437Y-110191627D01*
X165481051Y-110189692D01*
X165485874Y-110188766D01*
X165486108Y-110188707D01*
X165487460Y-110186645D01*
X165488497Y-110181152D01*
X165489252Y-110171635D01*
X165489754Y-110157497D01*
X165490035Y-110138145D01*
X165490126Y-110112984D01*
X165490127Y-110111806D01*
X165490127Y-110036348D01*
X165462797Y-110027448D01*
X165450543Y-110023032D01*
X165441172Y-110018838D01*
X165436037Y-110015507D01*
X165435468Y-110014487D01*
X165437137Y-110010140D01*
X165441607Y-110001906D01*
X165448072Y-109991220D01*
X165451661Y-109985623D01*
X165469318Y-109956828D01*
X165482745Y-109930417D01*
X165492478Y-109904664D01*
X165499050Y-109877845D01*
X165502998Y-109848236D01*
X165504854Y-109814113D01*
X165504855Y-109814101D01*
X165505255Y-109792450D01*
X165505071Y-109775503D01*
X165504198Y-109761553D01*
X165502531Y-109748891D01*
X165500073Y-109736307D01*
X165489533Y-109701026D01*
X165474197Y-109669796D01*
X165454006Y-109642575D01*
X165428901Y-109619320D01*
X165398823Y-109599988D01*
X165363712Y-109584537D01*
X165323508Y-109572924D01*
X165278152Y-109565105D01*
X165259692Y-109563133D01*
X165220882Y-109561178D01*
X165199972Y-109561611D01*
X165199972Y-109777896D01*
X165200759Y-109777896D01*
X165240672Y-109779167D01*
X165274936Y-109783052D01*
X165303837Y-109789683D01*
X165327659Y-109799191D01*
X165346686Y-109811710D01*
X165361203Y-109827370D01*
X165371494Y-109846303D01*
X165375712Y-109859114D01*
X165379985Y-109884494D01*
X165379353Y-109910956D01*
X165376185Y-109930240D01*
X165372004Y-109945438D01*
X165366059Y-109961298D01*
X165359174Y-109976032D01*
X165352176Y-109987852D01*
X165346598Y-109994404D01*
X165342848Y-109995811D01*
X165333878Y-109998044D01*
X165319569Y-110001125D01*
X165299804Y-110005076D01*
X165274462Y-110009919D01*
X165243427Y-110015677D01*
X165206579Y-110022370D01*
X165163799Y-110030023D01*
X165114969Y-110038656D01*
X165059970Y-110048292D01*
X165030354Y-110053452D01*
X164986385Y-110061102D01*
X164944095Y-110068462D01*
X164903930Y-110075454D01*
X164866336Y-110082000D01*
X164831756Y-110088023D01*
X164800636Y-110093446D01*
X164773421Y-110098191D01*
X164750555Y-110102180D01*
X164732484Y-110105336D01*
X164719653Y-110107581D01*
X164712506Y-110108839D01*
X164711247Y-110109064D01*
X164702405Y-110110702D01*
X164702461Y-110062876D01*
X164703543Y-110027616D01*
X164706881Y-109997599D01*
X164712746Y-109971955D01*
X164721410Y-109949811D01*
X164733145Y-109930295D01*
X164748221Y-109912535D01*
X164749738Y-109911006D01*
X164772569Y-109890751D01*
X164798607Y-109872473D01*
X164828327Y-109855978D01*
X164862209Y-109841072D01*
X164900728Y-109827560D01*
X164944364Y-109815248D01*
X164993593Y-109803940D01*
X165030354Y-109796755D01*
X165071532Y-109789620D01*
X165107833Y-109784304D01*
X165140508Y-109780671D01*
X165170804Y-109778581D01*
X165199972Y-109777896D01*
X165199972Y-109561611D01*
X165178304Y-109562060D01*
X165131469Y-109565817D01*
X165079887Y-109572488D01*
X165027139Y-109581357D01*
X164973749Y-109592298D01*
X164925489Y-109604606D01*
X164881133Y-109618654D01*
X164839459Y-109634818D01*
X164812385Y-109647039D01*
X164766158Y-109671638D01*
X164725660Y-109698764D01*
X164690590Y-109728808D01*
X164660650Y-109762164D01*
X164635541Y-109799222D01*
X164614963Y-109840376D01*
X164598617Y-109886017D01*
X164586204Y-109936538D01*
X164584411Y-109945924D01*
X164582395Y-109960995D01*
X164580787Y-109981187D01*
X164579595Y-110005202D01*
X164578828Y-110031742D01*
X164578498Y-110059510D01*
X164578611Y-110087209D01*
G36*
X164581907Y-110980370D02*
X164591015Y-111038866D01*
X164595070Y-111058135D01*
X164599197Y-111075474D01*
X164603414Y-111091352D01*
X164607381Y-111104659D01*
X164610760Y-111114283D01*
X164613213Y-111119115D01*
X164613774Y-111119468D01*
X164617330Y-111118933D01*
X164625724Y-111117505D01*
X164637471Y-111115451D01*
X164651084Y-111113034D01*
X164665077Y-111110522D01*
X164677962Y-111108180D01*
X164688254Y-111106274D01*
X164694467Y-111105069D01*
X164695171Y-111104918D01*
X164702405Y-111103270D01*
X164702461Y-110996426D01*
X164702553Y-110963057D01*
X164702849Y-110935332D01*
X164703437Y-110912465D01*
X164704404Y-110893669D01*
X164705839Y-110878159D01*
X164707829Y-110865148D01*
X164710461Y-110853852D01*
X164713823Y-110843484D01*
X164718004Y-110833259D01*
X164721516Y-110825655D01*
X164735363Y-110803328D01*
X164755056Y-110781598D01*
X164780011Y-110760893D01*
X164809648Y-110741643D01*
X164843383Y-110724276D01*
X164878693Y-110709914D01*
X164910264Y-110699726D01*
X164946695Y-110689926D01*
X164986535Y-110680767D01*
X165028332Y-110672505D01*
X165070632Y-110665395D01*
X165111984Y-110659693D01*
X165150936Y-110655652D01*
X165186036Y-110653529D01*
X165201184Y-110653266D01*
X165237271Y-110654500D01*
X165268058Y-110658343D01*
X165294211Y-110665001D01*
X165316396Y-110674681D01*
X165335279Y-110687591D01*
X165346845Y-110698614D01*
X165354693Y-110707660D01*
X165361245Y-110716806D01*
X165366618Y-110726712D01*
X165370923Y-110738038D01*
X165374276Y-110751445D01*
X165376791Y-110767592D01*
X165378580Y-110787141D01*
X165379760Y-110810751D01*
X165380442Y-110839082D01*
X165380742Y-110872795D01*
X165380786Y-110895209D01*
X165380851Y-110925695D01*
X165381043Y-110950232D01*
X165381379Y-110969300D01*
X165381878Y-110983379D01*
X165382556Y-110992949D01*
X165383432Y-110998490D01*
X165384523Y-111000483D01*
X165384675Y-111000506D01*
X165391684Y-110999883D01*
X165402712Y-110998214D01*
X165416270Y-110995802D01*
X165430866Y-110992950D01*
X165445009Y-110989960D01*
X165457209Y-110987135D01*
X165465975Y-110984777D01*
X165469766Y-110983243D01*
X165472195Y-110978439D01*
X165475510Y-110968455D01*
X165479435Y-110954437D01*
X165483693Y-110937529D01*
X165488007Y-110918876D01*
X165492099Y-110899623D01*
X165495693Y-110880914D01*
X165498275Y-110865468D01*
X165500764Y-110844652D01*
X165502692Y-110819596D01*
X165504034Y-110791832D01*
X165504768Y-110762893D01*
X165504869Y-110734313D01*
X165504316Y-110707623D01*
X165503084Y-110684358D01*
X165501299Y-110667064D01*
X165495611Y-110636651D01*
X165487509Y-110606680D01*
X165477603Y-110579072D01*
X165466503Y-110555749D01*
X165465287Y-110553615D01*
X165457359Y-110541780D01*
X165446518Y-110527955D01*
X165434628Y-110514455D01*
X165429748Y-110509417D01*
X165416615Y-110497051D01*
X165404321Y-110487416D01*
X165390539Y-110478889D01*
X165373482Y-110470105D01*
X165351584Y-110460108D01*
X165331269Y-110452478D01*
X165310997Y-110446880D01*
X165289226Y-110442980D01*
X165264415Y-110440443D01*
X165235023Y-110438934D01*
X165229146Y-110438746D01*
X165199315Y-110438262D01*
X165171476Y-110438757D01*
X165144041Y-110440361D01*
X165115424Y-110443206D01*
X165084040Y-110447424D01*
X165048302Y-110453146D01*
X165041608Y-110454291D01*
X164977664Y-110466805D01*
X164919466Y-110481391D01*
X164866620Y-110498206D01*
X164818734Y-110517409D01*
X164775415Y-110539159D01*
X164736268Y-110563612D01*
X164700901Y-110590927D01*
X164700184Y-110591543D01*
X164673080Y-110618152D01*
X164648141Y-110649013D01*
X164626293Y-110682656D01*
X164608466Y-110717611D01*
X164595588Y-110752406D01*
X164593233Y-110760975D01*
X164583226Y-110811750D01*
X164578007Y-110865869D01*
X164577569Y-110922390D01*
X164581907Y-110980370D01*
X164581907Y-110980370D01*
G37*
X164581907Y-110980370D02*
X164591015Y-111038866D01*
X164595070Y-111058135D01*
X164599197Y-111075474D01*
X164603414Y-111091352D01*
X164607381Y-111104659D01*
X164610760Y-111114283D01*
X164613213Y-111119115D01*
X164613774Y-111119468D01*
X164617330Y-111118933D01*
X164625724Y-111117505D01*
X164637471Y-111115451D01*
X164651084Y-111113034D01*
X164665077Y-111110522D01*
X164677962Y-111108180D01*
X164688254Y-111106274D01*
X164694467Y-111105069D01*
X164695171Y-111104918D01*
X164702405Y-111103270D01*
X164702461Y-110996426D01*
X164702553Y-110963057D01*
X164702849Y-110935332D01*
X164703437Y-110912465D01*
X164704404Y-110893669D01*
X164705839Y-110878159D01*
X164707829Y-110865148D01*
X164710461Y-110853852D01*
X164713823Y-110843484D01*
X164718004Y-110833259D01*
X164721516Y-110825655D01*
X164735363Y-110803328D01*
X164755056Y-110781598D01*
X164780011Y-110760893D01*
X164809648Y-110741643D01*
X164843383Y-110724276D01*
X164878693Y-110709914D01*
X164910264Y-110699726D01*
X164946695Y-110689926D01*
X164986535Y-110680767D01*
X165028332Y-110672505D01*
X165070632Y-110665395D01*
X165111984Y-110659693D01*
X165150936Y-110655652D01*
X165186036Y-110653529D01*
X165201184Y-110653266D01*
X165237271Y-110654500D01*
X165268058Y-110658343D01*
X165294211Y-110665001D01*
X165316396Y-110674681D01*
X165335279Y-110687591D01*
X165346845Y-110698614D01*
X165354693Y-110707660D01*
X165361245Y-110716806D01*
X165366618Y-110726712D01*
X165370923Y-110738038D01*
X165374276Y-110751445D01*
X165376791Y-110767592D01*
X165378580Y-110787141D01*
X165379760Y-110810751D01*
X165380442Y-110839082D01*
X165380742Y-110872795D01*
X165380786Y-110895209D01*
X165380851Y-110925695D01*
X165381043Y-110950232D01*
X165381379Y-110969300D01*
X165381878Y-110983379D01*
X165382556Y-110992949D01*
X165383432Y-110998490D01*
X165384523Y-111000483D01*
X165384675Y-111000506D01*
X165391684Y-110999883D01*
X165402712Y-110998214D01*
X165416270Y-110995802D01*
X165430866Y-110992950D01*
X165445009Y-110989960D01*
X165457209Y-110987135D01*
X165465975Y-110984777D01*
X165469766Y-110983243D01*
X165472195Y-110978439D01*
X165475510Y-110968455D01*
X165479435Y-110954437D01*
X165483693Y-110937529D01*
X165488007Y-110918876D01*
X165492099Y-110899623D01*
X165495693Y-110880914D01*
X165498275Y-110865468D01*
X165500764Y-110844652D01*
X165502692Y-110819596D01*
X165504034Y-110791832D01*
X165504768Y-110762893D01*
X165504869Y-110734313D01*
X165504316Y-110707623D01*
X165503084Y-110684358D01*
X165501299Y-110667064D01*
X165495611Y-110636651D01*
X165487509Y-110606680D01*
X165477603Y-110579072D01*
X165466503Y-110555749D01*
X165465287Y-110553615D01*
X165457359Y-110541780D01*
X165446518Y-110527955D01*
X165434628Y-110514455D01*
X165429748Y-110509417D01*
X165416615Y-110497051D01*
X165404321Y-110487416D01*
X165390539Y-110478889D01*
X165373482Y-110470105D01*
X165351584Y-110460108D01*
X165331269Y-110452478D01*
X165310997Y-110446880D01*
X165289226Y-110442980D01*
X165264415Y-110440443D01*
X165235023Y-110438934D01*
X165229146Y-110438746D01*
X165199315Y-110438262D01*
X165171476Y-110438757D01*
X165144041Y-110440361D01*
X165115424Y-110443206D01*
X165084040Y-110447424D01*
X165048302Y-110453146D01*
X165041608Y-110454291D01*
X164977664Y-110466805D01*
X164919466Y-110481391D01*
X164866620Y-110498206D01*
X164818734Y-110517409D01*
X164775415Y-110539159D01*
X164736268Y-110563612D01*
X164700901Y-110590927D01*
X164700184Y-110591543D01*
X164673080Y-110618152D01*
X164648141Y-110649013D01*
X164626293Y-110682656D01*
X164608466Y-110717611D01*
X164595588Y-110752406D01*
X164593233Y-110760975D01*
X164583226Y-110811750D01*
X164578007Y-110865869D01*
X164577569Y-110922390D01*
X164581907Y-110980370D01*
G36*
X164236226Y-104501536D02*
X164236293Y-104544871D01*
X164236402Y-104585924D01*
X164236549Y-104624266D01*
X164236731Y-104659471D01*
X164236945Y-104691109D01*
X164237187Y-104718754D01*
X164237455Y-104741978D01*
X164237745Y-104760354D01*
X164238054Y-104773454D01*
X164238379Y-104780849D01*
X164238614Y-104782404D01*
X164242355Y-104781898D01*
X164251486Y-104780442D01*
X164265063Y-104778191D01*
X164282141Y-104775304D01*
X164301775Y-104771938D01*
X164310956Y-104770350D01*
X164380886Y-104758222D01*
X164380886Y-104320576D01*
X164584247Y-104284483D01*
X164619567Y-104278222D01*
X164653015Y-104272309D01*
X164684054Y-104266838D01*
X164712146Y-104261902D01*
X164736754Y-104257595D01*
X164757341Y-104254012D01*
X164773370Y-104251247D01*
X164784305Y-104249392D01*
X164789607Y-104248543D01*
X164790019Y-104248498D01*
X164790464Y-104251639D01*
X164790882Y-104260636D01*
X164791266Y-104274918D01*
X164791608Y-104293910D01*
X164791901Y-104317041D01*
X164792137Y-104343736D01*
X164792309Y-104373423D01*
X164792408Y-104405528D01*
X164792430Y-104430266D01*
X164792458Y-104470558D01*
X164792546Y-104504833D01*
X164792705Y-104533503D01*
X164792944Y-104556981D01*
X164793271Y-104575679D01*
X164793695Y-104590009D01*
X164794226Y-104600385D01*
X164794874Y-104607219D01*
X164795646Y-104610924D01*
X164796456Y-104611924D01*
X164800729Y-104611391D01*
X164810314Y-104609904D01*
X164824189Y-104607631D01*
X164841333Y-104604739D01*
X164860727Y-104601396D01*
X164864779Y-104600690D01*
X164884372Y-104597286D01*
X164901797Y-104594294D01*
X164916066Y-104591882D01*
X164926190Y-104590216D01*
X164931181Y-104589463D01*
X164931487Y-104589437D01*
X164931930Y-104586313D01*
X164932347Y-104577329D01*
X164932730Y-104563056D01*
X164933071Y-104544063D01*
X164933364Y-104520921D01*
X164933600Y-104494200D01*
X164933773Y-104464471D01*
X164933874Y-104432304D01*
X164933899Y-104406213D01*
X164933899Y-104223008D01*
X164941133Y-104221354D01*
X164945342Y-104220563D01*
X164955409Y-104218758D01*
X164970856Y-104216021D01*
X164991204Y-104212438D01*
X165015975Y-104208092D01*
X165044692Y-104203066D01*
X165076877Y-104197445D01*
X165112050Y-104191312D01*
X165149734Y-104184750D01*
X165189451Y-104177844D01*
X165216096Y-104173215D01*
X165256764Y-104166138D01*
X165295626Y-104159343D01*
X165332214Y-104152915D01*
X165366058Y-104146937D01*
X165396691Y-104141494D01*
X165423642Y-104136668D01*
X165446444Y-104132545D01*
X165464628Y-104129206D01*
X165477725Y-104126738D01*
X165485266Y-104125222D01*
X165486976Y-104124783D01*
X165487806Y-104121208D01*
X165488513Y-104112193D01*
X165489095Y-104098648D01*
X165489552Y-104081483D01*
X165489883Y-104061609D01*
X165490089Y-104039936D01*
X165490168Y-104017374D01*
X165490121Y-103994833D01*
X165489945Y-103973225D01*
X165489642Y-103953458D01*
X165489209Y-103936444D01*
X165488648Y-103923092D01*
X165487957Y-103914313D01*
X165487136Y-103911017D01*
X165487101Y-103911013D01*
X165483791Y-103911558D01*
X165474518Y-103913151D01*
X165459652Y-103915726D01*
X165439564Y-103919219D01*
X165414623Y-103923564D01*
X165385200Y-103928698D01*
X165351665Y-103934554D01*
X165314389Y-103941068D01*
X165273742Y-103948176D01*
X165230094Y-103955811D01*
X165183815Y-103963910D01*
X165135276Y-103972407D01*
X165084847Y-103981238D01*
X165032898Y-103990337D01*
X164979800Y-103999640D01*
X164925923Y-104009081D01*
X164871636Y-104018596D01*
X164817311Y-104028121D01*
X164763318Y-104037589D01*
X164710027Y-104046936D01*
X164657808Y-104056098D01*
X164607031Y-104065009D01*
X164558067Y-104073604D01*
X164511287Y-104081818D01*
X164467060Y-104089588D01*
X164425756Y-104096846D01*
X164387746Y-104103530D01*
X164353401Y-104109574D01*
X164323090Y-104114912D01*
X164297184Y-104119480D01*
X164276053Y-104123214D01*
X164260068Y-104126048D01*
X164249598Y-104127917D01*
X164246652Y-104128450D01*
X164236202Y-104130361D01*
X164236202Y-104456345D01*
X164236226Y-104501536D01*
X164236226Y-104501536D01*
G37*
X164236226Y-104501536D02*
X164236293Y-104544871D01*
X164236402Y-104585924D01*
X164236549Y-104624266D01*
X164236731Y-104659471D01*
X164236945Y-104691109D01*
X164237187Y-104718754D01*
X164237455Y-104741978D01*
X164237745Y-104760354D01*
X164238054Y-104773454D01*
X164238379Y-104780849D01*
X164238614Y-104782404D01*
X164242355Y-104781898D01*
X164251486Y-104780442D01*
X164265063Y-104778191D01*
X164282141Y-104775304D01*
X164301775Y-104771938D01*
X164310956Y-104770350D01*
X164380886Y-104758222D01*
X164380886Y-104320576D01*
X164584247Y-104284483D01*
X164619567Y-104278222D01*
X164653015Y-104272309D01*
X164684054Y-104266838D01*
X164712146Y-104261902D01*
X164736754Y-104257595D01*
X164757341Y-104254012D01*
X164773370Y-104251247D01*
X164784305Y-104249392D01*
X164789607Y-104248543D01*
X164790019Y-104248498D01*
X164790464Y-104251639D01*
X164790882Y-104260636D01*
X164791266Y-104274918D01*
X164791608Y-104293910D01*
X164791901Y-104317041D01*
X164792137Y-104343736D01*
X164792309Y-104373423D01*
X164792408Y-104405528D01*
X164792430Y-104430266D01*
X164792458Y-104470558D01*
X164792546Y-104504833D01*
X164792705Y-104533503D01*
X164792944Y-104556981D01*
X164793271Y-104575679D01*
X164793695Y-104590009D01*
X164794226Y-104600385D01*
X164794874Y-104607219D01*
X164795646Y-104610924D01*
X164796456Y-104611924D01*
X164800729Y-104611391D01*
X164810314Y-104609904D01*
X164824189Y-104607631D01*
X164841333Y-104604739D01*
X164860727Y-104601396D01*
X164864779Y-104600690D01*
X164884372Y-104597286D01*
X164901797Y-104594294D01*
X164916066Y-104591882D01*
X164926190Y-104590216D01*
X164931181Y-104589463D01*
X164931487Y-104589437D01*
X164931930Y-104586313D01*
X164932347Y-104577329D01*
X164932730Y-104563056D01*
X164933071Y-104544063D01*
X164933364Y-104520921D01*
X164933600Y-104494200D01*
X164933773Y-104464471D01*
X164933874Y-104432304D01*
X164933899Y-104406213D01*
X164933899Y-104223008D01*
X164941133Y-104221354D01*
X164945342Y-104220563D01*
X164955409Y-104218758D01*
X164970856Y-104216021D01*
X164991204Y-104212438D01*
X165015975Y-104208092D01*
X165044692Y-104203066D01*
X165076877Y-104197445D01*
X165112050Y-104191312D01*
X165149734Y-104184750D01*
X165189451Y-104177844D01*
X165216096Y-104173215D01*
X165256764Y-104166138D01*
X165295626Y-104159343D01*
X165332214Y-104152915D01*
X165366058Y-104146937D01*
X165396691Y-104141494D01*
X165423642Y-104136668D01*
X165446444Y-104132545D01*
X165464628Y-104129206D01*
X165477725Y-104126738D01*
X165485266Y-104125222D01*
X165486976Y-104124783D01*
X165487806Y-104121208D01*
X165488513Y-104112193D01*
X165489095Y-104098648D01*
X165489552Y-104081483D01*
X165489883Y-104061609D01*
X165490089Y-104039936D01*
X165490168Y-104017374D01*
X165490121Y-103994833D01*
X165489945Y-103973225D01*
X165489642Y-103953458D01*
X165489209Y-103936444D01*
X165488648Y-103923092D01*
X165487957Y-103914313D01*
X165487136Y-103911017D01*
X165487101Y-103911013D01*
X165483791Y-103911558D01*
X165474518Y-103913151D01*
X165459652Y-103915726D01*
X165439564Y-103919219D01*
X165414623Y-103923564D01*
X165385200Y-103928698D01*
X165351665Y-103934554D01*
X165314389Y-103941068D01*
X165273742Y-103948176D01*
X165230094Y-103955811D01*
X165183815Y-103963910D01*
X165135276Y-103972407D01*
X165084847Y-103981238D01*
X165032898Y-103990337D01*
X164979800Y-103999640D01*
X164925923Y-104009081D01*
X164871636Y-104018596D01*
X164817311Y-104028121D01*
X164763318Y-104037589D01*
X164710027Y-104046936D01*
X164657808Y-104056098D01*
X164607031Y-104065009D01*
X164558067Y-104073604D01*
X164511287Y-104081818D01*
X164467060Y-104089588D01*
X164425756Y-104096846D01*
X164387746Y-104103530D01*
X164353401Y-104109574D01*
X164323090Y-104114912D01*
X164297184Y-104119480D01*
X164276053Y-104123214D01*
X164260068Y-104126048D01*
X164249598Y-104127917D01*
X164246652Y-104128450D01*
X164236202Y-104130361D01*
X164236202Y-104456345D01*
X164236226Y-104501536D01*
G36*
X164245044Y-105157166D02*
X164249062Y-105156431D01*
X164259104Y-105154640D01*
X164274859Y-105151847D01*
X164296016Y-105148108D01*
X164322266Y-105143476D01*
X164353298Y-105138007D01*
X164388802Y-105131754D01*
X164428467Y-105124774D01*
X164471983Y-105117119D01*
X164519039Y-105108846D01*
X164569326Y-105100008D01*
X164622533Y-105090660D01*
X164678350Y-105080856D01*
X164736465Y-105070652D01*
X164796570Y-105060101D01*
X164858354Y-105049259D01*
X164867987Y-105047569D01*
X164929924Y-105036698D01*
X164990186Y-105026113D01*
X165048465Y-105015869D01*
X165104455Y-105006019D01*
X165157848Y-104996619D01*
X165208338Y-104987722D01*
X165255616Y-104979383D01*
X165299376Y-104971656D01*
X165339312Y-104964595D01*
X165375114Y-104958255D01*
X165406477Y-104952689D01*
X165433094Y-104947952D01*
X165454656Y-104944099D01*
X165470858Y-104941183D01*
X165481392Y-104939260D01*
X165485950Y-104938382D01*
X165486108Y-104938341D01*
X165487259Y-104936480D01*
X165488186Y-104931485D01*
X165488907Y-104922837D01*
X165489441Y-104910013D01*
X165489809Y-104892492D01*
X165490029Y-104869755D01*
X165490121Y-104841279D01*
X165490127Y-104830658D01*
X165490103Y-104801584D01*
X165490010Y-104778307D01*
X165489818Y-104760193D01*
X165489494Y-104746609D01*
X165489008Y-104736921D01*
X165488328Y-104730495D01*
X165487422Y-104726698D01*
X165486260Y-104724896D01*
X165484874Y-104724456D01*
X165481321Y-104725002D01*
X165471808Y-104726596D01*
X165456708Y-104729173D01*
X165436394Y-104732669D01*
X165411238Y-104737017D01*
X165381614Y-104742152D01*
X165347895Y-104748009D01*
X165310453Y-104754522D01*
X165269662Y-104761627D01*
X165225895Y-104769257D01*
X165179524Y-104777348D01*
X165130922Y-104785835D01*
X165080464Y-104794651D01*
X165028520Y-104803732D01*
X164975465Y-104813013D01*
X164921672Y-104822427D01*
X164867513Y-104831910D01*
X164813361Y-104841396D01*
X164759590Y-104850821D01*
X164706572Y-104860118D01*
X164654681Y-104869223D01*
X164604289Y-104878070D01*
X164555769Y-104886594D01*
X164509494Y-104894729D01*
X164465838Y-104902410D01*
X164425173Y-104909572D01*
X164387872Y-104916150D01*
X164354308Y-104922078D01*
X164324854Y-104927291D01*
X164299884Y-104931723D01*
X164279769Y-104935310D01*
X164264884Y-104937986D01*
X164255601Y-104939685D01*
X164253082Y-104940167D01*
X164236202Y-104943544D01*
X164236202Y-105159017D01*
X164245044Y-105157166D01*
X164245044Y-105157166D01*
G37*
X164245044Y-105157166D02*
X164249062Y-105156431D01*
X164259104Y-105154640D01*
X164274859Y-105151847D01*
X164296016Y-105148108D01*
X164322266Y-105143476D01*
X164353298Y-105138007D01*
X164388802Y-105131754D01*
X164428467Y-105124774D01*
X164471983Y-105117119D01*
X164519039Y-105108846D01*
X164569326Y-105100008D01*
X164622533Y-105090660D01*
X164678350Y-105080856D01*
X164736465Y-105070652D01*
X164796570Y-105060101D01*
X164858354Y-105049259D01*
X164867987Y-105047569D01*
X164929924Y-105036698D01*
X164990186Y-105026113D01*
X165048465Y-105015869D01*
X165104455Y-105006019D01*
X165157848Y-104996619D01*
X165208338Y-104987722D01*
X165255616Y-104979383D01*
X165299376Y-104971656D01*
X165339312Y-104964595D01*
X165375114Y-104958255D01*
X165406477Y-104952689D01*
X165433094Y-104947952D01*
X165454656Y-104944099D01*
X165470858Y-104941183D01*
X165481392Y-104939260D01*
X165485950Y-104938382D01*
X165486108Y-104938341D01*
X165487259Y-104936480D01*
X165488186Y-104931485D01*
X165488907Y-104922837D01*
X165489441Y-104910013D01*
X165489809Y-104892492D01*
X165490029Y-104869755D01*
X165490121Y-104841279D01*
X165490127Y-104830658D01*
X165490103Y-104801584D01*
X165490010Y-104778307D01*
X165489818Y-104760193D01*
X165489494Y-104746609D01*
X165489008Y-104736921D01*
X165488328Y-104730495D01*
X165487422Y-104726698D01*
X165486260Y-104724896D01*
X165484874Y-104724456D01*
X165481321Y-104725002D01*
X165471808Y-104726596D01*
X165456708Y-104729173D01*
X165436394Y-104732669D01*
X165411238Y-104737017D01*
X165381614Y-104742152D01*
X165347895Y-104748009D01*
X165310453Y-104754522D01*
X165269662Y-104761627D01*
X165225895Y-104769257D01*
X165179524Y-104777348D01*
X165130922Y-104785835D01*
X165080464Y-104794651D01*
X165028520Y-104803732D01*
X164975465Y-104813013D01*
X164921672Y-104822427D01*
X164867513Y-104831910D01*
X164813361Y-104841396D01*
X164759590Y-104850821D01*
X164706572Y-104860118D01*
X164654681Y-104869223D01*
X164604289Y-104878070D01*
X164555769Y-104886594D01*
X164509494Y-104894729D01*
X164465838Y-104902410D01*
X164425173Y-104909572D01*
X164387872Y-104916150D01*
X164354308Y-104922078D01*
X164324854Y-104927291D01*
X164299884Y-104931723D01*
X164279769Y-104935310D01*
X164264884Y-104937986D01*
X164255601Y-104939685D01*
X164253082Y-104940167D01*
X164236202Y-104943544D01*
X164236202Y-105159017D01*
X164245044Y-105157166D01*
G36*
X164593159Y-105476391D02*
X164593359Y-105499706D01*
X164593672Y-105520143D01*
X164594081Y-105536940D01*
X164594567Y-105549334D01*
X164595115Y-105556561D01*
X164595500Y-105558129D01*
X164598866Y-105557729D01*
X164608125Y-105556280D01*
X164622839Y-105553860D01*
X164642570Y-105550544D01*
X164666879Y-105546411D01*
X164695328Y-105541537D01*
X164727480Y-105535999D01*
X164762895Y-105529874D01*
X164801136Y-105523238D01*
X164841765Y-105516170D01*
X164884343Y-105508746D01*
X164928433Y-105501042D01*
X164973595Y-105493137D01*
X165019393Y-105485106D01*
X165065388Y-105477026D01*
X165111141Y-105468976D01*
X165156214Y-105461031D01*
X165200170Y-105453268D01*
X165242570Y-105445765D01*
X165282976Y-105438599D01*
X165320950Y-105431846D01*
X165356054Y-105425583D01*
X165387849Y-105419887D01*
X165415897Y-105414836D01*
X165439760Y-105410506D01*
X165459001Y-105406975D01*
X165473180Y-105404318D01*
X165481861Y-105402613D01*
X165484542Y-105401990D01*
X165486069Y-105400998D01*
X165487291Y-105398883D01*
X165488241Y-105394994D01*
X165488954Y-105388677D01*
X165489462Y-105379280D01*
X165489800Y-105366149D01*
X165490001Y-105348633D01*
X165490098Y-105326077D01*
X165490126Y-105297831D01*
X165490127Y-105293645D01*
X165490049Y-105268243D01*
X165489827Y-105245019D01*
X165489481Y-105224722D01*
X165489030Y-105208101D01*
X165488492Y-105195904D01*
X165487886Y-105188881D01*
X165487447Y-105187443D01*
X165483998Y-105187989D01*
X165474656Y-105189575D01*
X165459860Y-105192124D01*
X165440050Y-105195560D01*
X165415664Y-105199803D01*
X165387143Y-105204778D01*
X165354926Y-105210408D01*
X165319452Y-105216614D01*
X165281160Y-105223320D01*
X165240491Y-105230448D01*
X165197882Y-105237921D01*
X165153774Y-105245663D01*
X165108606Y-105253595D01*
X165062818Y-105261640D01*
X165016848Y-105269722D01*
X164971136Y-105277763D01*
X164926122Y-105285685D01*
X164882244Y-105293412D01*
X164839943Y-105300867D01*
X164799657Y-105307971D01*
X164761827Y-105314648D01*
X164726890Y-105320821D01*
X164695288Y-105326412D01*
X164667458Y-105331344D01*
X164643841Y-105335540D01*
X164624876Y-105338922D01*
X164611002Y-105341414D01*
X164602659Y-105342938D01*
X164600323Y-105343393D01*
X164593089Y-105345110D01*
X164593089Y-105450960D01*
X164593159Y-105476391D01*
X164593159Y-105476391D01*
G37*
X164593159Y-105476391D02*
X164593359Y-105499706D01*
X164593672Y-105520143D01*
X164594081Y-105536940D01*
X164594567Y-105549334D01*
X164595115Y-105556561D01*
X164595500Y-105558129D01*
X164598866Y-105557729D01*
X164608125Y-105556280D01*
X164622839Y-105553860D01*
X164642570Y-105550544D01*
X164666879Y-105546411D01*
X164695328Y-105541537D01*
X164727480Y-105535999D01*
X164762895Y-105529874D01*
X164801136Y-105523238D01*
X164841765Y-105516170D01*
X164884343Y-105508746D01*
X164928433Y-105501042D01*
X164973595Y-105493137D01*
X165019393Y-105485106D01*
X165065388Y-105477026D01*
X165111141Y-105468976D01*
X165156214Y-105461031D01*
X165200170Y-105453268D01*
X165242570Y-105445765D01*
X165282976Y-105438599D01*
X165320950Y-105431846D01*
X165356054Y-105425583D01*
X165387849Y-105419887D01*
X165415897Y-105414836D01*
X165439760Y-105410506D01*
X165459001Y-105406975D01*
X165473180Y-105404318D01*
X165481861Y-105402613D01*
X165484542Y-105401990D01*
X165486069Y-105400998D01*
X165487291Y-105398883D01*
X165488241Y-105394994D01*
X165488954Y-105388677D01*
X165489462Y-105379280D01*
X165489800Y-105366149D01*
X165490001Y-105348633D01*
X165490098Y-105326077D01*
X165490126Y-105297831D01*
X165490127Y-105293645D01*
X165490049Y-105268243D01*
X165489827Y-105245019D01*
X165489481Y-105224722D01*
X165489030Y-105208101D01*
X165488492Y-105195904D01*
X165487886Y-105188881D01*
X165487447Y-105187443D01*
X165483998Y-105187989D01*
X165474656Y-105189575D01*
X165459860Y-105192124D01*
X165440050Y-105195560D01*
X165415664Y-105199803D01*
X165387143Y-105204778D01*
X165354926Y-105210408D01*
X165319452Y-105216614D01*
X165281160Y-105223320D01*
X165240491Y-105230448D01*
X165197882Y-105237921D01*
X165153774Y-105245663D01*
X165108606Y-105253595D01*
X165062818Y-105261640D01*
X165016848Y-105269722D01*
X164971136Y-105277763D01*
X164926122Y-105285685D01*
X164882244Y-105293412D01*
X164839943Y-105300867D01*
X164799657Y-105307971D01*
X164761827Y-105314648D01*
X164726890Y-105320821D01*
X164695288Y-105326412D01*
X164667458Y-105331344D01*
X164643841Y-105335540D01*
X164624876Y-105338922D01*
X164611002Y-105341414D01*
X164602659Y-105342938D01*
X164600323Y-105343393D01*
X164593089Y-105345110D01*
X164593089Y-105450960D01*
X164593159Y-105476391D01*
G36*
X164236273Y-106878349D02*
X164236474Y-106901642D01*
X164236787Y-106922056D01*
X164237196Y-106938827D01*
X164237683Y-106951192D01*
X164238231Y-106958388D01*
X164238614Y-106959933D01*
X164242183Y-106959655D01*
X164251431Y-106958339D01*
X164265711Y-106956093D01*
X164284375Y-106953025D01*
X164306775Y-106949242D01*
X164332263Y-106944852D01*
X164360191Y-106939962D01*
X164382494Y-106936007D01*
X164414175Y-106930360D01*
X164445863Y-106924718D01*
X164476573Y-106919255D01*
X164505324Y-106914145D01*
X164531131Y-106909563D01*
X164553012Y-106905685D01*
X164569983Y-106902684D01*
X164575705Y-106901676D01*
X164627448Y-106892571D01*
X164611748Y-106923380D01*
X164603028Y-106942376D01*
X164594751Y-106963674D01*
X164588302Y-106983672D01*
X164587577Y-106986342D01*
X164584544Y-106998372D01*
X164582330Y-107008952D01*
X164580805Y-107019477D01*
X164579843Y-107031345D01*
X164579316Y-107045951D01*
X164579097Y-107064691D01*
X164579058Y-107079582D01*
X164579625Y-107113333D01*
X164581514Y-107141960D01*
X164584927Y-107166672D01*
X164590063Y-107188677D01*
X164597122Y-107209182D01*
X164602619Y-107221814D01*
X164618062Y-107247453D01*
X164638370Y-107269265D01*
X164663109Y-107287062D01*
X164691843Y-107300655D01*
X164724135Y-107309855D01*
X164759551Y-107314474D01*
X164797653Y-107314323D01*
X164813242Y-107312920D01*
X164819517Y-107312021D01*
X164831593Y-107310111D01*
X164848935Y-107307281D01*
X164871008Y-107303623D01*
X164897279Y-107299229D01*
X164927213Y-107294190D01*
X164960275Y-107288599D01*
X164995931Y-107282546D01*
X165033646Y-107276125D01*
X165072887Y-107269426D01*
X165113118Y-107262541D01*
X165153805Y-107255562D01*
X165194414Y-107248580D01*
X165234410Y-107241688D01*
X165273259Y-107234977D01*
X165310426Y-107228538D01*
X165345377Y-107222464D01*
X165377577Y-107216847D01*
X165406493Y-107211777D01*
X165431589Y-107207346D01*
X165452331Y-107203647D01*
X165468185Y-107200772D01*
X165478616Y-107198810D01*
X165481285Y-107198275D01*
X165490127Y-107196426D01*
X165490127Y-107090770D01*
X165490055Y-107065352D01*
X165489851Y-107042042D01*
X165489533Y-107021603D01*
X165489118Y-107004801D01*
X165488624Y-106992401D01*
X165488068Y-106985170D01*
X165487681Y-106983602D01*
X165484241Y-106983933D01*
X165474891Y-106985304D01*
X165460059Y-106987644D01*
X165440168Y-106990880D01*
X165415644Y-106994943D01*
X165386912Y-106999759D01*
X165354398Y-107005258D01*
X165318526Y-107011369D01*
X165279721Y-107018019D01*
X165238409Y-107025137D01*
X165195015Y-107032651D01*
X165163848Y-107038071D01*
X165106045Y-107048111D01*
X165054314Y-107057037D01*
X165008401Y-107064888D01*
X164968051Y-107071706D01*
X164933010Y-107077532D01*
X164903025Y-107082407D01*
X164877842Y-107086372D01*
X164857205Y-107089467D01*
X164840862Y-107091735D01*
X164828558Y-107093215D01*
X164820040Y-107093950D01*
X164816923Y-107094050D01*
X164789536Y-107091947D01*
X164766037Y-107085425D01*
X164745360Y-107074166D01*
X164741989Y-107071713D01*
X164726648Y-107056253D01*
X164715039Y-107036523D01*
X164707256Y-107013557D01*
X164703394Y-106988389D01*
X164703546Y-106962049D01*
X164707806Y-106935573D01*
X164716268Y-106909993D01*
X164725614Y-106891710D01*
X164736164Y-106874243D01*
X165112342Y-106808006D01*
X165488519Y-106741770D01*
X165489366Y-106634973D01*
X165489589Y-106605986D01*
X165489724Y-106582785D01*
X165489736Y-106564726D01*
X165489590Y-106551164D01*
X165489249Y-106541456D01*
X165488679Y-106534958D01*
X165487844Y-106531025D01*
X165486708Y-106529013D01*
X165485236Y-106528279D01*
X165483476Y-106528177D01*
X165479763Y-106528724D01*
X165470089Y-106530320D01*
X165454827Y-106532902D01*
X165434349Y-106536403D01*
X165409028Y-106540758D01*
X165379235Y-106545903D01*
X165345345Y-106551771D01*
X165307728Y-106558299D01*
X165266757Y-106565419D01*
X165222805Y-106573068D01*
X165176245Y-106581180D01*
X165127447Y-106589691D01*
X165076786Y-106598533D01*
X165024632Y-106607643D01*
X164971360Y-106616956D01*
X164917340Y-106626406D01*
X164862946Y-106635927D01*
X164808550Y-106645455D01*
X164754524Y-106654925D01*
X164701241Y-106664270D01*
X164649073Y-106673427D01*
X164598392Y-106682330D01*
X164549572Y-106690913D01*
X164502983Y-106699111D01*
X164458999Y-106706860D01*
X164417993Y-106714094D01*
X164380335Y-106720748D01*
X164346400Y-106726756D01*
X164316559Y-106732053D01*
X164291184Y-106736575D01*
X164270649Y-106740256D01*
X164255325Y-106743030D01*
X164245585Y-106744833D01*
X164241829Y-106745591D01*
X164240288Y-106746429D01*
X164239056Y-106748377D01*
X164238099Y-106752086D01*
X164237381Y-106758208D01*
X164236870Y-106767395D01*
X164236531Y-106780299D01*
X164236329Y-106797572D01*
X164236231Y-106819866D01*
X164236203Y-106847832D01*
X164236202Y-106852938D01*
X164236273Y-106878349D01*
X164236273Y-106878349D01*
G37*
X164236273Y-106878349D02*
X164236474Y-106901642D01*
X164236787Y-106922056D01*
X164237196Y-106938827D01*
X164237683Y-106951192D01*
X164238231Y-106958388D01*
X164238614Y-106959933D01*
X164242183Y-106959655D01*
X164251431Y-106958339D01*
X164265711Y-106956093D01*
X164284375Y-106953025D01*
X164306775Y-106949242D01*
X164332263Y-106944852D01*
X164360191Y-106939962D01*
X164382494Y-106936007D01*
X164414175Y-106930360D01*
X164445863Y-106924718D01*
X164476573Y-106919255D01*
X164505324Y-106914145D01*
X164531131Y-106909563D01*
X164553012Y-106905685D01*
X164569983Y-106902684D01*
X164575705Y-106901676D01*
X164627448Y-106892571D01*
X164611748Y-106923380D01*
X164603028Y-106942376D01*
X164594751Y-106963674D01*
X164588302Y-106983672D01*
X164587577Y-106986342D01*
X164584544Y-106998372D01*
X164582330Y-107008952D01*
X164580805Y-107019477D01*
X164579843Y-107031345D01*
X164579316Y-107045951D01*
X164579097Y-107064691D01*
X164579058Y-107079582D01*
X164579625Y-107113333D01*
X164581514Y-107141960D01*
X164584927Y-107166672D01*
X164590063Y-107188677D01*
X164597122Y-107209182D01*
X164602619Y-107221814D01*
X164618062Y-107247453D01*
X164638370Y-107269265D01*
X164663109Y-107287062D01*
X164691843Y-107300655D01*
X164724135Y-107309855D01*
X164759551Y-107314474D01*
X164797653Y-107314323D01*
X164813242Y-107312920D01*
X164819517Y-107312021D01*
X164831593Y-107310111D01*
X164848935Y-107307281D01*
X164871008Y-107303623D01*
X164897279Y-107299229D01*
X164927213Y-107294190D01*
X164960275Y-107288599D01*
X164995931Y-107282546D01*
X165033646Y-107276125D01*
X165072887Y-107269426D01*
X165113118Y-107262541D01*
X165153805Y-107255562D01*
X165194414Y-107248580D01*
X165234410Y-107241688D01*
X165273259Y-107234977D01*
X165310426Y-107228538D01*
X165345377Y-107222464D01*
X165377577Y-107216847D01*
X165406493Y-107211777D01*
X165431589Y-107207346D01*
X165452331Y-107203647D01*
X165468185Y-107200772D01*
X165478616Y-107198810D01*
X165481285Y-107198275D01*
X165490127Y-107196426D01*
X165490127Y-107090770D01*
X165490055Y-107065352D01*
X165489851Y-107042042D01*
X165489533Y-107021603D01*
X165489118Y-107004801D01*
X165488624Y-106992401D01*
X165488068Y-106985170D01*
X165487681Y-106983602D01*
X165484241Y-106983933D01*
X165474891Y-106985304D01*
X165460059Y-106987644D01*
X165440168Y-106990880D01*
X165415644Y-106994943D01*
X165386912Y-106999759D01*
X165354398Y-107005258D01*
X165318526Y-107011369D01*
X165279721Y-107018019D01*
X165238409Y-107025137D01*
X165195015Y-107032651D01*
X165163848Y-107038071D01*
X165106045Y-107048111D01*
X165054314Y-107057037D01*
X165008401Y-107064888D01*
X164968051Y-107071706D01*
X164933010Y-107077532D01*
X164903025Y-107082407D01*
X164877842Y-107086372D01*
X164857205Y-107089467D01*
X164840862Y-107091735D01*
X164828558Y-107093215D01*
X164820040Y-107093950D01*
X164816923Y-107094050D01*
X164789536Y-107091947D01*
X164766037Y-107085425D01*
X164745360Y-107074166D01*
X164741989Y-107071713D01*
X164726648Y-107056253D01*
X164715039Y-107036523D01*
X164707256Y-107013557D01*
X164703394Y-106988389D01*
X164703546Y-106962049D01*
X164707806Y-106935573D01*
X164716268Y-106909993D01*
X164725614Y-106891710D01*
X164736164Y-106874243D01*
X165112342Y-106808006D01*
X165488519Y-106741770D01*
X165489366Y-106634973D01*
X165489589Y-106605986D01*
X165489724Y-106582785D01*
X165489736Y-106564726D01*
X165489590Y-106551164D01*
X165489249Y-106541456D01*
X165488679Y-106534958D01*
X165487844Y-106531025D01*
X165486708Y-106529013D01*
X165485236Y-106528279D01*
X165483476Y-106528177D01*
X165479763Y-106528724D01*
X165470089Y-106530320D01*
X165454827Y-106532902D01*
X165434349Y-106536403D01*
X165409028Y-106540758D01*
X165379235Y-106545903D01*
X165345345Y-106551771D01*
X165307728Y-106558299D01*
X165266757Y-106565419D01*
X165222805Y-106573068D01*
X165176245Y-106581180D01*
X165127447Y-106589691D01*
X165076786Y-106598533D01*
X165024632Y-106607643D01*
X164971360Y-106616956D01*
X164917340Y-106626406D01*
X164862946Y-106635927D01*
X164808550Y-106645455D01*
X164754524Y-106654925D01*
X164701241Y-106664270D01*
X164649073Y-106673427D01*
X164598392Y-106682330D01*
X164549572Y-106690913D01*
X164502983Y-106699111D01*
X164458999Y-106706860D01*
X164417993Y-106714094D01*
X164380335Y-106720748D01*
X164346400Y-106726756D01*
X164316559Y-106732053D01*
X164291184Y-106736575D01*
X164270649Y-106740256D01*
X164255325Y-106743030D01*
X164245585Y-106744833D01*
X164241829Y-106745591D01*
X164240288Y-106746429D01*
X164239056Y-106748377D01*
X164238099Y-106752086D01*
X164237381Y-106758208D01*
X164236870Y-106767395D01*
X164236531Y-106780299D01*
X164236329Y-106797572D01*
X164236231Y-106819866D01*
X164236203Y-106847832D01*
X164236202Y-106852938D01*
X164236273Y-106878349D01*
G36*
X164236273Y-111485580D02*
X164236473Y-111508895D01*
X164236786Y-111529332D01*
X164237195Y-111546129D01*
X164237681Y-111558521D01*
X164238229Y-111565748D01*
X164238614Y-111567316D01*
X164242033Y-111566941D01*
X164251384Y-111565510D01*
X164266267Y-111563093D01*
X164286280Y-111559758D01*
X164311025Y-111555573D01*
X164340101Y-111550608D01*
X164373109Y-111544931D01*
X164409647Y-111538611D01*
X164449317Y-111531716D01*
X164491718Y-111524315D01*
X164536449Y-111516477D01*
X164583112Y-111508271D01*
X164602734Y-111504811D01*
X164650105Y-111496465D01*
X164695730Y-111488452D01*
X164739207Y-111480840D01*
X164780133Y-111473699D01*
X164818106Y-111467098D01*
X164852725Y-111461106D01*
X164883588Y-111455794D01*
X164910292Y-111451230D01*
X164932435Y-111447483D01*
X164949616Y-111444623D01*
X164961432Y-111442719D01*
X164967482Y-111441840D01*
X164968200Y-111441792D01*
X164966294Y-111443772D01*
X164959592Y-111449245D01*
X164948492Y-111457912D01*
X164933389Y-111469473D01*
X164914682Y-111483630D01*
X164892768Y-111500082D01*
X164868043Y-111518532D01*
X164840905Y-111538678D01*
X164811750Y-111560223D01*
X164783326Y-111581140D01*
X164594696Y-111719686D01*
X164593851Y-111833330D01*
X164593721Y-111859755D01*
X164593732Y-111884127D01*
X164593872Y-111905704D01*
X164594132Y-111923743D01*
X164594500Y-111937501D01*
X164594966Y-111946235D01*
X164595458Y-111949183D01*
X164598341Y-111947635D01*
X164605960Y-111942482D01*
X164617928Y-111934008D01*
X164633860Y-111922498D01*
X164653369Y-111908236D01*
X164676070Y-111891505D01*
X164701576Y-111872590D01*
X164729502Y-111851774D01*
X164759461Y-111829342D01*
X164791068Y-111805576D01*
X164806317Y-111794076D01*
X165014723Y-111636760D01*
X165250014Y-111724828D01*
X165287127Y-111738692D01*
X165322500Y-111751854D01*
X165355671Y-111764143D01*
X165386178Y-111775393D01*
X165413558Y-111785434D01*
X165437351Y-111794097D01*
X165457094Y-111801214D01*
X165472326Y-111806616D01*
X165482584Y-111810135D01*
X165487407Y-111811601D01*
X165487715Y-111811625D01*
X165488273Y-111808229D01*
X165488785Y-111799136D01*
X165489237Y-111785079D01*
X165489612Y-111766793D01*
X165489895Y-111745010D01*
X165490072Y-111720464D01*
X165490127Y-111696291D01*
X165490127Y-111582227D01*
X165476462Y-111576497D01*
X165471134Y-111574458D01*
X165460283Y-111570472D01*
X165444450Y-111564733D01*
X165424176Y-111557434D01*
X165400001Y-111548769D01*
X165372465Y-111538931D01*
X165342110Y-111528115D01*
X165309477Y-111516513D01*
X165275105Y-111504320D01*
X165259251Y-111498704D01*
X165224856Y-111486485D01*
X165192410Y-111474876D01*
X165162396Y-111464055D01*
X165135296Y-111454200D01*
X165111592Y-111445489D01*
X165091766Y-111438100D01*
X165076302Y-111432210D01*
X165065681Y-111427997D01*
X165060385Y-111425640D01*
X165059909Y-111425201D01*
X165063719Y-111424413D01*
X165073331Y-111422611D01*
X165088213Y-111419893D01*
X165107835Y-111416352D01*
X165131664Y-111412083D01*
X165159168Y-111407183D01*
X165189815Y-111401746D01*
X165223075Y-111395866D01*
X165258414Y-111389640D01*
X165276316Y-111386494D01*
X165488519Y-111349228D01*
X165489366Y-111242386D01*
X165489587Y-111213391D01*
X165489719Y-111190182D01*
X165489727Y-111172115D01*
X165489576Y-111158546D01*
X165489232Y-111148832D01*
X165488660Y-111142329D01*
X165487826Y-111138393D01*
X165486695Y-111136379D01*
X165485232Y-111135644D01*
X165483629Y-111135544D01*
X165479995Y-111136090D01*
X165470400Y-111137685D01*
X165455217Y-111140263D01*
X165434817Y-111143760D01*
X165409572Y-111148110D01*
X165379855Y-111153248D01*
X165346039Y-111159109D01*
X165308495Y-111165628D01*
X165267595Y-111172739D01*
X165223712Y-111180379D01*
X165177218Y-111188480D01*
X165128485Y-111196979D01*
X165077886Y-111205810D01*
X165025792Y-111214908D01*
X164972576Y-111224208D01*
X164918610Y-111233644D01*
X164864266Y-111243152D01*
X164809917Y-111252667D01*
X164755934Y-111262123D01*
X164702690Y-111271455D01*
X164650557Y-111280598D01*
X164599908Y-111289487D01*
X164551114Y-111298057D01*
X164504548Y-111306242D01*
X164460582Y-111313978D01*
X164419588Y-111321199D01*
X164381938Y-111327840D01*
X164348005Y-111333836D01*
X164318161Y-111339123D01*
X164292778Y-111343634D01*
X164272228Y-111347304D01*
X164256883Y-111350069D01*
X164247116Y-111351864D01*
X164243437Y-111352587D01*
X164236202Y-111354300D01*
X164236202Y-111460150D01*
X164236273Y-111485580D01*
X164236273Y-111485580D01*
G37*
X164236273Y-111485580D02*
X164236473Y-111508895D01*
X164236786Y-111529332D01*
X164237195Y-111546129D01*
X164237681Y-111558521D01*
X164238229Y-111565748D01*
X164238614Y-111567316D01*
X164242033Y-111566941D01*
X164251384Y-111565510D01*
X164266267Y-111563093D01*
X164286280Y-111559758D01*
X164311025Y-111555573D01*
X164340101Y-111550608D01*
X164373109Y-111544931D01*
X164409647Y-111538611D01*
X164449317Y-111531716D01*
X164491718Y-111524315D01*
X164536449Y-111516477D01*
X164583112Y-111508271D01*
X164602734Y-111504811D01*
X164650105Y-111496465D01*
X164695730Y-111488452D01*
X164739207Y-111480840D01*
X164780133Y-111473699D01*
X164818106Y-111467098D01*
X164852725Y-111461106D01*
X164883588Y-111455794D01*
X164910292Y-111451230D01*
X164932435Y-111447483D01*
X164949616Y-111444623D01*
X164961432Y-111442719D01*
X164967482Y-111441840D01*
X164968200Y-111441792D01*
X164966294Y-111443772D01*
X164959592Y-111449245D01*
X164948492Y-111457912D01*
X164933389Y-111469473D01*
X164914682Y-111483630D01*
X164892768Y-111500082D01*
X164868043Y-111518532D01*
X164840905Y-111538678D01*
X164811750Y-111560223D01*
X164783326Y-111581140D01*
X164594696Y-111719686D01*
X164593851Y-111833330D01*
X164593721Y-111859755D01*
X164593732Y-111884127D01*
X164593872Y-111905704D01*
X164594132Y-111923743D01*
X164594500Y-111937501D01*
X164594966Y-111946235D01*
X164595458Y-111949183D01*
X164598341Y-111947635D01*
X164605960Y-111942482D01*
X164617928Y-111934008D01*
X164633860Y-111922498D01*
X164653369Y-111908236D01*
X164676070Y-111891505D01*
X164701576Y-111872590D01*
X164729502Y-111851774D01*
X164759461Y-111829342D01*
X164791068Y-111805576D01*
X164806317Y-111794076D01*
X165014723Y-111636760D01*
X165250014Y-111724828D01*
X165287127Y-111738692D01*
X165322500Y-111751854D01*
X165355671Y-111764143D01*
X165386178Y-111775393D01*
X165413558Y-111785434D01*
X165437351Y-111794097D01*
X165457094Y-111801214D01*
X165472326Y-111806616D01*
X165482584Y-111810135D01*
X165487407Y-111811601D01*
X165487715Y-111811625D01*
X165488273Y-111808229D01*
X165488785Y-111799136D01*
X165489237Y-111785079D01*
X165489612Y-111766793D01*
X165489895Y-111745010D01*
X165490072Y-111720464D01*
X165490127Y-111696291D01*
X165490127Y-111582227D01*
X165476462Y-111576497D01*
X165471134Y-111574458D01*
X165460283Y-111570472D01*
X165444450Y-111564733D01*
X165424176Y-111557434D01*
X165400001Y-111548769D01*
X165372465Y-111538931D01*
X165342110Y-111528115D01*
X165309477Y-111516513D01*
X165275105Y-111504320D01*
X165259251Y-111498704D01*
X165224856Y-111486485D01*
X165192410Y-111474876D01*
X165162396Y-111464055D01*
X165135296Y-111454200D01*
X165111592Y-111445489D01*
X165091766Y-111438100D01*
X165076302Y-111432210D01*
X165065681Y-111427997D01*
X165060385Y-111425640D01*
X165059909Y-111425201D01*
X165063719Y-111424413D01*
X165073331Y-111422611D01*
X165088213Y-111419893D01*
X165107835Y-111416352D01*
X165131664Y-111412083D01*
X165159168Y-111407183D01*
X165189815Y-111401746D01*
X165223075Y-111395866D01*
X165258414Y-111389640D01*
X165276316Y-111386494D01*
X165488519Y-111349228D01*
X165489366Y-111242386D01*
X165489587Y-111213391D01*
X165489719Y-111190182D01*
X165489727Y-111172115D01*
X165489576Y-111158546D01*
X165489232Y-111148832D01*
X165488660Y-111142329D01*
X165487826Y-111138393D01*
X165486695Y-111136379D01*
X165485232Y-111135644D01*
X165483629Y-111135544D01*
X165479995Y-111136090D01*
X165470400Y-111137685D01*
X165455217Y-111140263D01*
X165434817Y-111143760D01*
X165409572Y-111148110D01*
X165379855Y-111153248D01*
X165346039Y-111159109D01*
X165308495Y-111165628D01*
X165267595Y-111172739D01*
X165223712Y-111180379D01*
X165177218Y-111188480D01*
X165128485Y-111196979D01*
X165077886Y-111205810D01*
X165025792Y-111214908D01*
X164972576Y-111224208D01*
X164918610Y-111233644D01*
X164864266Y-111243152D01*
X164809917Y-111252667D01*
X164755934Y-111262123D01*
X164702690Y-111271455D01*
X164650557Y-111280598D01*
X164599908Y-111289487D01*
X164551114Y-111298057D01*
X164504548Y-111306242D01*
X164460582Y-111313978D01*
X164419588Y-111321199D01*
X164381938Y-111327840D01*
X164348005Y-111333836D01*
X164318161Y-111339123D01*
X164292778Y-111343634D01*
X164272228Y-111347304D01*
X164256883Y-111350069D01*
X164247116Y-111351864D01*
X164243437Y-111352587D01*
X164236202Y-111354300D01*
X164236202Y-111460150D01*
X164236273Y-111485580D01*
G36*
X164271641Y-105531133D02*
X164271844Y-105554458D01*
X164272161Y-105574911D01*
X164272575Y-105591728D01*
X164273067Y-105604144D01*
X164273622Y-105611395D01*
X164274010Y-105612976D01*
X164277493Y-105612735D01*
X164286399Y-105611532D01*
X164299819Y-105609520D01*
X164316843Y-105606851D01*
X164336560Y-105603676D01*
X164358060Y-105600148D01*
X164380434Y-105596418D01*
X164402771Y-105592639D01*
X164424162Y-105588961D01*
X164443697Y-105585538D01*
X164460465Y-105582520D01*
X164473557Y-105580061D01*
X164482063Y-105578311D01*
X164482968Y-105578099D01*
X164490202Y-105576358D01*
X164490202Y-105470508D01*
X164490132Y-105445078D01*
X164489932Y-105421763D01*
X164489619Y-105401326D01*
X164489210Y-105384531D01*
X164488724Y-105372139D01*
X164488176Y-105364913D01*
X164487791Y-105363345D01*
X164484248Y-105363609D01*
X164475188Y-105364870D01*
X164461422Y-105366991D01*
X164443763Y-105369834D01*
X164423023Y-105373264D01*
X164400014Y-105377143D01*
X164375549Y-105381334D01*
X164350439Y-105385702D01*
X164325496Y-105390108D01*
X164301534Y-105394417D01*
X164282019Y-105397998D01*
X164271570Y-105399937D01*
X164271570Y-105505703D01*
X164271641Y-105531133D01*
X164271641Y-105531133D01*
G37*
X164271641Y-105531133D02*
X164271844Y-105554458D01*
X164272161Y-105574911D01*
X164272575Y-105591728D01*
X164273067Y-105604144D01*
X164273622Y-105611395D01*
X164274010Y-105612976D01*
X164277493Y-105612735D01*
X164286399Y-105611532D01*
X164299819Y-105609520D01*
X164316843Y-105606851D01*
X164336560Y-105603676D01*
X164358060Y-105600148D01*
X164380434Y-105596418D01*
X164402771Y-105592639D01*
X164424162Y-105588961D01*
X164443697Y-105585538D01*
X164460465Y-105582520D01*
X164473557Y-105580061D01*
X164482063Y-105578311D01*
X164482968Y-105578099D01*
X164490202Y-105576358D01*
X164490202Y-105470508D01*
X164490132Y-105445078D01*
X164489932Y-105421763D01*
X164489619Y-105401326D01*
X164489210Y-105384531D01*
X164488724Y-105372139D01*
X164488176Y-105364913D01*
X164487791Y-105363345D01*
X164484248Y-105363609D01*
X164475188Y-105364870D01*
X164461422Y-105366991D01*
X164443763Y-105369834D01*
X164423023Y-105373264D01*
X164400014Y-105377143D01*
X164375549Y-105381334D01*
X164350439Y-105385702D01*
X164325496Y-105390108D01*
X164301534Y-105394417D01*
X164282019Y-105397998D01*
X164271570Y-105399937D01*
X164271570Y-105505703D01*
X164271641Y-105531133D01*
D12*
X156850000Y-96500000D02*
X157550000Y-96500000D01*
X157550000Y-95300000D02*
X156850000Y-95300000D01*
X158337500Y-94737500D02*
X156187500Y-94737500D01*
X159162500Y-92487500D02*
X156187500Y-92487500D01*
X154950000Y-91875000D02*
X155950000Y-91875000D01*
X155950000Y-90525000D02*
X154950000Y-90525000D01*
X153455000Y-97890000D02*
X153455000Y-96890000D01*
X152105000Y-96890000D02*
X152105000Y-97890000D01*
X151352381Y-96033334D02*
X150876190Y-95700000D01*
X151352381Y-95461905D02*
X150352381Y-95461905D01*
X150352381Y-95842858D01*
X150400000Y-95938096D01*
X150447619Y-95985715D01*
X150542857Y-96033334D01*
X150685714Y-96033334D01*
X150780952Y-95985715D01*
X150828571Y-95938096D01*
X150876190Y-95842858D01*
X150876190Y-95461905D01*
X151352381Y-96985715D02*
X151352381Y-96414286D01*
X151352381Y-96700000D02*
X150352381Y-96700000D01*
X150495238Y-96604762D01*
X150590476Y-96509524D01*
X150638095Y-96414286D01*
M02*
