G04 #@! TF.FileFunction,Soldermask,Top*
%FSLAX46Y46*%
G04 Gerber Fmt 4.6, Leading zero omitted, Abs format (unit mm)*
G04 Created by KiCad (PCBNEW 4.0.1-stable) date Tuesday, January 12, 2016 'PMt' 12:54:15 PM*
%MOMM*%
G01*
G04 APERTURE LIST*
%ADD10C,0.100000*%
%ADD11C,0.010000*%
%ADD12R,0.600000X0.930000*%
%ADD13R,1.100000X0.600000*%
%ADD14R,1.901140X0.798780*%
%ADD15R,2.000000X2.400000*%
%ADD16R,1.000000X1.100000*%
%ADD17R,2.127200X2.432000*%
%ADD18O,2.127200X2.432000*%
%ADD19R,2.127200X2.127200*%
%ADD20O,2.127200X2.127200*%
%ADD21R,2.432000X2.432000*%
%ADD22O,2.432000X2.432000*%
%ADD23R,1.200100X2.200860*%
G04 APERTURE END LIST*
D10*
D11*
G36*
X136969564Y-123647271D02*
X136995508Y-123648488D01*
X137020124Y-123650595D01*
X137044568Y-123653681D01*
X137069999Y-123657837D01*
X137087168Y-123661069D01*
X137112517Y-123666313D01*
X137136699Y-123671924D01*
X137160431Y-123678132D01*
X137184429Y-123685164D01*
X137209412Y-123693250D01*
X137236095Y-123702618D01*
X137265196Y-123713498D01*
X137297433Y-123726118D01*
X137321820Y-123735936D01*
X137354200Y-123749238D01*
X137387073Y-123763047D01*
X137420715Y-123777494D01*
X137455404Y-123792708D01*
X137491417Y-123808820D01*
X137529031Y-123825959D01*
X137568524Y-123844255D01*
X137610172Y-123863839D01*
X137654253Y-123884840D01*
X137701044Y-123907389D01*
X137750822Y-123931615D01*
X137803864Y-123957648D01*
X137860448Y-123985619D01*
X137920850Y-124015657D01*
X137960459Y-124035436D01*
X138016490Y-124063404D01*
X138068559Y-124089279D01*
X138116988Y-124113209D01*
X138162102Y-124135343D01*
X138204224Y-124155830D01*
X138243679Y-124174819D01*
X138280790Y-124192457D01*
X138315881Y-124208895D01*
X138349276Y-124224280D01*
X138381299Y-124238762D01*
X138412273Y-124252489D01*
X138442524Y-124265610D01*
X138472374Y-124278274D01*
X138502148Y-124290629D01*
X138532169Y-124302825D01*
X138562761Y-124315009D01*
X138594249Y-124327331D01*
X138606029Y-124331892D01*
X138622479Y-124338261D01*
X138637757Y-124344205D01*
X138651184Y-124349460D01*
X138662085Y-124353759D01*
X138669780Y-124356837D01*
X138673479Y-124358374D01*
X138680453Y-124361501D01*
X138662374Y-124383146D01*
X138633873Y-124414827D01*
X138601092Y-124446893D01*
X138564528Y-124478967D01*
X138524680Y-124510672D01*
X138482044Y-124541630D01*
X138437117Y-124571464D01*
X138390398Y-124599796D01*
X138342384Y-124626249D01*
X138341143Y-124626898D01*
X138278462Y-124657677D01*
X138211875Y-124686709D01*
X138142059Y-124713797D01*
X138069691Y-124738741D01*
X137995448Y-124761345D01*
X137920008Y-124781410D01*
X137844046Y-124798739D01*
X137768242Y-124813134D01*
X137693271Y-124824396D01*
X137646876Y-124829783D01*
X137633122Y-124830864D01*
X137615842Y-124831713D01*
X137595936Y-124832329D01*
X137574304Y-124832713D01*
X137551847Y-124832865D01*
X137529465Y-124832784D01*
X137508058Y-124832470D01*
X137488527Y-124831924D01*
X137471772Y-124831145D01*
X137458693Y-124830133D01*
X137455771Y-124829803D01*
X137407644Y-124822101D01*
X137363278Y-124811442D01*
X137322693Y-124797833D01*
X137285913Y-124781281D01*
X137252956Y-124761793D01*
X137240357Y-124752808D01*
X137212485Y-124729111D01*
X137188707Y-124702997D01*
X137168783Y-124674136D01*
X137152472Y-124642199D01*
X137144275Y-124621296D01*
X137137956Y-124601987D01*
X137133438Y-124584431D01*
X137130478Y-124567095D01*
X137128830Y-124548448D01*
X137128252Y-124526961D01*
X137128248Y-124520593D01*
X137128385Y-124481576D01*
X137112590Y-124479957D01*
X137096795Y-124478339D01*
X137079736Y-124489946D01*
X137062676Y-124501553D01*
X137061971Y-124524534D01*
X137063042Y-124556744D01*
X137067967Y-124590431D01*
X137076445Y-124624588D01*
X137088179Y-124658208D01*
X137102870Y-124690285D01*
X137119657Y-124718962D01*
X137144193Y-124751774D01*
X137172306Y-124781339D01*
X137203984Y-124807649D01*
X137239212Y-124830697D01*
X137277975Y-124850476D01*
X137320260Y-124866978D01*
X137366051Y-124880197D01*
X137415335Y-124890126D01*
X137468098Y-124896756D01*
X137474165Y-124897288D01*
X137493351Y-124898440D01*
X137516266Y-124899063D01*
X137541833Y-124899181D01*
X137568974Y-124898821D01*
X137596613Y-124898010D01*
X137623672Y-124896773D01*
X137649074Y-124895135D01*
X137671742Y-124893124D01*
X137678696Y-124892353D01*
X137755758Y-124881672D01*
X137833900Y-124867752D01*
X137912359Y-124850807D01*
X137990372Y-124831049D01*
X138067179Y-124808691D01*
X138142018Y-124783945D01*
X138214126Y-124757024D01*
X138282742Y-124728141D01*
X138307519Y-124716800D01*
X138367409Y-124687174D01*
X138424890Y-124655605D01*
X138479644Y-124622323D01*
X138531355Y-124587560D01*
X138579708Y-124551548D01*
X138624385Y-124514519D01*
X138665071Y-124476703D01*
X138701449Y-124438332D01*
X138723167Y-124412539D01*
X138733329Y-124400158D01*
X138740981Y-124391607D01*
X138746308Y-124386697D01*
X138749493Y-124385240D01*
X138749730Y-124385285D01*
X138759725Y-124387780D01*
X138773746Y-124390610D01*
X138791003Y-124393661D01*
X138810705Y-124396818D01*
X138832062Y-124399969D01*
X138854283Y-124402997D01*
X138876576Y-124405789D01*
X138898152Y-124408231D01*
X138918220Y-124410208D01*
X138927762Y-124411012D01*
X138948511Y-124412203D01*
X138971492Y-124412670D01*
X138997009Y-124412395D01*
X139025366Y-124411358D01*
X139056869Y-124409543D01*
X139091823Y-124406929D01*
X139130531Y-124403500D01*
X139173300Y-124399236D01*
X139220433Y-124394119D01*
X139234981Y-124392471D01*
X139302135Y-124384370D01*
X139373732Y-124374916D01*
X139449583Y-124364144D01*
X139529497Y-124352088D01*
X139613283Y-124338784D01*
X139700750Y-124324265D01*
X139791708Y-124308566D01*
X139885966Y-124291722D01*
X139983333Y-124273769D01*
X140083619Y-124254740D01*
X140186632Y-124234670D01*
X140292183Y-124213594D01*
X140400080Y-124191547D01*
X140510133Y-124168564D01*
X140622152Y-124144679D01*
X140735945Y-124119926D01*
X140755352Y-124115657D01*
X140776975Y-124110927D01*
X140797593Y-124106482D01*
X140816624Y-124102445D01*
X140833484Y-124098935D01*
X140847589Y-124096074D01*
X140858356Y-124093982D01*
X140865202Y-124092780D01*
X140866629Y-124092585D01*
X140885403Y-124092642D01*
X140905267Y-124096479D01*
X140924974Y-124103639D01*
X140943279Y-124113666D01*
X140958935Y-124126103D01*
X140959424Y-124126581D01*
X140966801Y-124135057D01*
X140975869Y-124147486D01*
X140986370Y-124163394D01*
X140998044Y-124182306D01*
X141010631Y-124203748D01*
X141023871Y-124227247D01*
X141037504Y-124252328D01*
X141051272Y-124278518D01*
X141064913Y-124305341D01*
X141078169Y-124332324D01*
X141090780Y-124358993D01*
X141102485Y-124384874D01*
X141108472Y-124398666D01*
X141127315Y-124445939D01*
X141142317Y-124490460D01*
X141153473Y-124532204D01*
X141160779Y-124571151D01*
X141164234Y-124607277D01*
X141163833Y-124640560D01*
X141159574Y-124670977D01*
X141151922Y-124697272D01*
X141145352Y-124711166D01*
X141136051Y-124726192D01*
X141125218Y-124740659D01*
X141114050Y-124752874D01*
X141109947Y-124756590D01*
X141099394Y-124764757D01*
X141087999Y-124771968D01*
X141075387Y-124778298D01*
X141061185Y-124783822D01*
X141045021Y-124788616D01*
X141026521Y-124792756D01*
X141005313Y-124796316D01*
X140981022Y-124799373D01*
X140953277Y-124802002D01*
X140921703Y-124804278D01*
X140885928Y-124806277D01*
X140858162Y-124807554D01*
X140844605Y-124808088D01*
X140826894Y-124808715D01*
X140805714Y-124809415D01*
X140781747Y-124810168D01*
X140755677Y-124810951D01*
X140728188Y-124811745D01*
X140699962Y-124812528D01*
X140671684Y-124813281D01*
X140657381Y-124813648D01*
X140584719Y-124815565D01*
X140516484Y-124817528D01*
X140452266Y-124819558D01*
X140391652Y-124821674D01*
X140334233Y-124823897D01*
X140279597Y-124826247D01*
X140227333Y-124828745D01*
X140177031Y-124831410D01*
X140128279Y-124834262D01*
X140080667Y-124837322D01*
X140033783Y-124840611D01*
X139987217Y-124844147D01*
X139940557Y-124847952D01*
X139915943Y-124850059D01*
X139811434Y-124859875D01*
X139710971Y-124870858D01*
X139613873Y-124883149D01*
X139519460Y-124896888D01*
X139427053Y-124912215D01*
X139335972Y-124929270D01*
X139245536Y-124948195D01*
X139155066Y-124969128D01*
X139063882Y-124992210D01*
X138971303Y-125017582D01*
X138876651Y-125045384D01*
X138779245Y-125075757D01*
X138705210Y-125099897D01*
X138666363Y-125112856D01*
X138630412Y-125125038D01*
X138596965Y-125136626D01*
X138565630Y-125147802D01*
X138536014Y-125158748D01*
X138507726Y-125169647D01*
X138480374Y-125180682D01*
X138453565Y-125192035D01*
X138426908Y-125203888D01*
X138400011Y-125216425D01*
X138372481Y-125229827D01*
X138343927Y-125244277D01*
X138313956Y-125259959D01*
X138282176Y-125277053D01*
X138248196Y-125295743D01*
X138211624Y-125316212D01*
X138172066Y-125338641D01*
X138129132Y-125363213D01*
X138084724Y-125388788D01*
X138050306Y-125408624D01*
X138019607Y-125426252D01*
X137992175Y-125441919D01*
X137967562Y-125455873D01*
X137945318Y-125468363D01*
X137924993Y-125479636D01*
X137906136Y-125489941D01*
X137888299Y-125499525D01*
X137871031Y-125508636D01*
X137853882Y-125517523D01*
X137836404Y-125526433D01*
X137821048Y-125534162D01*
X137776259Y-125556051D01*
X137734576Y-125575225D01*
X137695282Y-125591930D01*
X137657658Y-125606415D01*
X137620986Y-125618927D01*
X137584550Y-125629716D01*
X137547629Y-125639028D01*
X137509508Y-125647111D01*
X137476955Y-125652979D01*
X137436308Y-125659412D01*
X137398878Y-125664468D01*
X137363278Y-125668258D01*
X137328120Y-125670896D01*
X137292020Y-125672492D01*
X137253589Y-125673158D01*
X137227171Y-125673149D01*
X137208939Y-125673012D01*
X137191766Y-125672835D01*
X137176402Y-125672630D01*
X137163598Y-125672407D01*
X137154102Y-125672178D01*
X137148667Y-125671955D01*
X137148552Y-125671947D01*
X137086121Y-125665765D01*
X137024537Y-125656409D01*
X136964390Y-125644029D01*
X136906264Y-125628776D01*
X136850747Y-125610800D01*
X136798426Y-125590253D01*
X136758886Y-125571875D01*
X136700028Y-125539716D01*
X136642684Y-125503002D01*
X136586906Y-125461788D01*
X136532747Y-125416130D01*
X136480259Y-125366086D01*
X136429494Y-125311710D01*
X136380504Y-125253060D01*
X136333342Y-125190192D01*
X136288060Y-125123161D01*
X136244710Y-125052024D01*
X136203344Y-124976837D01*
X136200377Y-124971140D01*
X136175001Y-124919703D01*
X136151334Y-124866393D01*
X136129132Y-124810569D01*
X136108147Y-124751594D01*
X136088134Y-124688827D01*
X136076818Y-124650234D01*
X136071630Y-124632002D01*
X135903124Y-124564030D01*
X135876054Y-124553076D01*
X135850329Y-124542600D01*
X135826297Y-124532746D01*
X135804304Y-124523662D01*
X135784699Y-124515491D01*
X135767827Y-124508380D01*
X135754038Y-124502474D01*
X135743676Y-124497918D01*
X135737091Y-124494859D01*
X135734628Y-124493441D01*
X135734619Y-124493409D01*
X135736385Y-124491437D01*
X135741507Y-124486490D01*
X135749724Y-124478808D01*
X135760775Y-124468629D01*
X135774396Y-124456189D01*
X135790327Y-124441728D01*
X135808305Y-124425482D01*
X135828069Y-124407690D01*
X135849357Y-124388590D01*
X135871906Y-124368419D01*
X135889438Y-124352777D01*
X136044257Y-124214794D01*
X136054116Y-124187558D01*
X136073546Y-124139507D01*
X136096344Y-124093631D01*
X136122790Y-124049513D01*
X136153162Y-124006736D01*
X136187739Y-123964883D01*
X136226801Y-123923536D01*
X136238039Y-123912515D01*
X136284198Y-123871250D01*
X136333975Y-123833069D01*
X136387189Y-123798064D01*
X136443659Y-123766324D01*
X136503203Y-123737941D01*
X136565639Y-123713004D01*
X136630785Y-123691605D01*
X136698460Y-123673835D01*
X136730057Y-123666972D01*
X136760501Y-123661050D01*
X136787739Y-123656407D01*
X136813186Y-123652888D01*
X136838256Y-123650335D01*
X136864364Y-123648592D01*
X136892925Y-123647501D01*
X136909067Y-123647143D01*
X136941136Y-123646853D01*
X136969564Y-123647271D01*
X136969564Y-123647271D01*
G37*
X136969564Y-123647271D02*
X136995508Y-123648488D01*
X137020124Y-123650595D01*
X137044568Y-123653681D01*
X137069999Y-123657837D01*
X137087168Y-123661069D01*
X137112517Y-123666313D01*
X137136699Y-123671924D01*
X137160431Y-123678132D01*
X137184429Y-123685164D01*
X137209412Y-123693250D01*
X137236095Y-123702618D01*
X137265196Y-123713498D01*
X137297433Y-123726118D01*
X137321820Y-123735936D01*
X137354200Y-123749238D01*
X137387073Y-123763047D01*
X137420715Y-123777494D01*
X137455404Y-123792708D01*
X137491417Y-123808820D01*
X137529031Y-123825959D01*
X137568524Y-123844255D01*
X137610172Y-123863839D01*
X137654253Y-123884840D01*
X137701044Y-123907389D01*
X137750822Y-123931615D01*
X137803864Y-123957648D01*
X137860448Y-123985619D01*
X137920850Y-124015657D01*
X137960459Y-124035436D01*
X138016490Y-124063404D01*
X138068559Y-124089279D01*
X138116988Y-124113209D01*
X138162102Y-124135343D01*
X138204224Y-124155830D01*
X138243679Y-124174819D01*
X138280790Y-124192457D01*
X138315881Y-124208895D01*
X138349276Y-124224280D01*
X138381299Y-124238762D01*
X138412273Y-124252489D01*
X138442524Y-124265610D01*
X138472374Y-124278274D01*
X138502148Y-124290629D01*
X138532169Y-124302825D01*
X138562761Y-124315009D01*
X138594249Y-124327331D01*
X138606029Y-124331892D01*
X138622479Y-124338261D01*
X138637757Y-124344205D01*
X138651184Y-124349460D01*
X138662085Y-124353759D01*
X138669780Y-124356837D01*
X138673479Y-124358374D01*
X138680453Y-124361501D01*
X138662374Y-124383146D01*
X138633873Y-124414827D01*
X138601092Y-124446893D01*
X138564528Y-124478967D01*
X138524680Y-124510672D01*
X138482044Y-124541630D01*
X138437117Y-124571464D01*
X138390398Y-124599796D01*
X138342384Y-124626249D01*
X138341143Y-124626898D01*
X138278462Y-124657677D01*
X138211875Y-124686709D01*
X138142059Y-124713797D01*
X138069691Y-124738741D01*
X137995448Y-124761345D01*
X137920008Y-124781410D01*
X137844046Y-124798739D01*
X137768242Y-124813134D01*
X137693271Y-124824396D01*
X137646876Y-124829783D01*
X137633122Y-124830864D01*
X137615842Y-124831713D01*
X137595936Y-124832329D01*
X137574304Y-124832713D01*
X137551847Y-124832865D01*
X137529465Y-124832784D01*
X137508058Y-124832470D01*
X137488527Y-124831924D01*
X137471772Y-124831145D01*
X137458693Y-124830133D01*
X137455771Y-124829803D01*
X137407644Y-124822101D01*
X137363278Y-124811442D01*
X137322693Y-124797833D01*
X137285913Y-124781281D01*
X137252956Y-124761793D01*
X137240357Y-124752808D01*
X137212485Y-124729111D01*
X137188707Y-124702997D01*
X137168783Y-124674136D01*
X137152472Y-124642199D01*
X137144275Y-124621296D01*
X137137956Y-124601987D01*
X137133438Y-124584431D01*
X137130478Y-124567095D01*
X137128830Y-124548448D01*
X137128252Y-124526961D01*
X137128248Y-124520593D01*
X137128385Y-124481576D01*
X137112590Y-124479957D01*
X137096795Y-124478339D01*
X137079736Y-124489946D01*
X137062676Y-124501553D01*
X137061971Y-124524534D01*
X137063042Y-124556744D01*
X137067967Y-124590431D01*
X137076445Y-124624588D01*
X137088179Y-124658208D01*
X137102870Y-124690285D01*
X137119657Y-124718962D01*
X137144193Y-124751774D01*
X137172306Y-124781339D01*
X137203984Y-124807649D01*
X137239212Y-124830697D01*
X137277975Y-124850476D01*
X137320260Y-124866978D01*
X137366051Y-124880197D01*
X137415335Y-124890126D01*
X137468098Y-124896756D01*
X137474165Y-124897288D01*
X137493351Y-124898440D01*
X137516266Y-124899063D01*
X137541833Y-124899181D01*
X137568974Y-124898821D01*
X137596613Y-124898010D01*
X137623672Y-124896773D01*
X137649074Y-124895135D01*
X137671742Y-124893124D01*
X137678696Y-124892353D01*
X137755758Y-124881672D01*
X137833900Y-124867752D01*
X137912359Y-124850807D01*
X137990372Y-124831049D01*
X138067179Y-124808691D01*
X138142018Y-124783945D01*
X138214126Y-124757024D01*
X138282742Y-124728141D01*
X138307519Y-124716800D01*
X138367409Y-124687174D01*
X138424890Y-124655605D01*
X138479644Y-124622323D01*
X138531355Y-124587560D01*
X138579708Y-124551548D01*
X138624385Y-124514519D01*
X138665071Y-124476703D01*
X138701449Y-124438332D01*
X138723167Y-124412539D01*
X138733329Y-124400158D01*
X138740981Y-124391607D01*
X138746308Y-124386697D01*
X138749493Y-124385240D01*
X138749730Y-124385285D01*
X138759725Y-124387780D01*
X138773746Y-124390610D01*
X138791003Y-124393661D01*
X138810705Y-124396818D01*
X138832062Y-124399969D01*
X138854283Y-124402997D01*
X138876576Y-124405789D01*
X138898152Y-124408231D01*
X138918220Y-124410208D01*
X138927762Y-124411012D01*
X138948511Y-124412203D01*
X138971492Y-124412670D01*
X138997009Y-124412395D01*
X139025366Y-124411358D01*
X139056869Y-124409543D01*
X139091823Y-124406929D01*
X139130531Y-124403500D01*
X139173300Y-124399236D01*
X139220433Y-124394119D01*
X139234981Y-124392471D01*
X139302135Y-124384370D01*
X139373732Y-124374916D01*
X139449583Y-124364144D01*
X139529497Y-124352088D01*
X139613283Y-124338784D01*
X139700750Y-124324265D01*
X139791708Y-124308566D01*
X139885966Y-124291722D01*
X139983333Y-124273769D01*
X140083619Y-124254740D01*
X140186632Y-124234670D01*
X140292183Y-124213594D01*
X140400080Y-124191547D01*
X140510133Y-124168564D01*
X140622152Y-124144679D01*
X140735945Y-124119926D01*
X140755352Y-124115657D01*
X140776975Y-124110927D01*
X140797593Y-124106482D01*
X140816624Y-124102445D01*
X140833484Y-124098935D01*
X140847589Y-124096074D01*
X140858356Y-124093982D01*
X140865202Y-124092780D01*
X140866629Y-124092585D01*
X140885403Y-124092642D01*
X140905267Y-124096479D01*
X140924974Y-124103639D01*
X140943279Y-124113666D01*
X140958935Y-124126103D01*
X140959424Y-124126581D01*
X140966801Y-124135057D01*
X140975869Y-124147486D01*
X140986370Y-124163394D01*
X140998044Y-124182306D01*
X141010631Y-124203748D01*
X141023871Y-124227247D01*
X141037504Y-124252328D01*
X141051272Y-124278518D01*
X141064913Y-124305341D01*
X141078169Y-124332324D01*
X141090780Y-124358993D01*
X141102485Y-124384874D01*
X141108472Y-124398666D01*
X141127315Y-124445939D01*
X141142317Y-124490460D01*
X141153473Y-124532204D01*
X141160779Y-124571151D01*
X141164234Y-124607277D01*
X141163833Y-124640560D01*
X141159574Y-124670977D01*
X141151922Y-124697272D01*
X141145352Y-124711166D01*
X141136051Y-124726192D01*
X141125218Y-124740659D01*
X141114050Y-124752874D01*
X141109947Y-124756590D01*
X141099394Y-124764757D01*
X141087999Y-124771968D01*
X141075387Y-124778298D01*
X141061185Y-124783822D01*
X141045021Y-124788616D01*
X141026521Y-124792756D01*
X141005313Y-124796316D01*
X140981022Y-124799373D01*
X140953277Y-124802002D01*
X140921703Y-124804278D01*
X140885928Y-124806277D01*
X140858162Y-124807554D01*
X140844605Y-124808088D01*
X140826894Y-124808715D01*
X140805714Y-124809415D01*
X140781747Y-124810168D01*
X140755677Y-124810951D01*
X140728188Y-124811745D01*
X140699962Y-124812528D01*
X140671684Y-124813281D01*
X140657381Y-124813648D01*
X140584719Y-124815565D01*
X140516484Y-124817528D01*
X140452266Y-124819558D01*
X140391652Y-124821674D01*
X140334233Y-124823897D01*
X140279597Y-124826247D01*
X140227333Y-124828745D01*
X140177031Y-124831410D01*
X140128279Y-124834262D01*
X140080667Y-124837322D01*
X140033783Y-124840611D01*
X139987217Y-124844147D01*
X139940557Y-124847952D01*
X139915943Y-124850059D01*
X139811434Y-124859875D01*
X139710971Y-124870858D01*
X139613873Y-124883149D01*
X139519460Y-124896888D01*
X139427053Y-124912215D01*
X139335972Y-124929270D01*
X139245536Y-124948195D01*
X139155066Y-124969128D01*
X139063882Y-124992210D01*
X138971303Y-125017582D01*
X138876651Y-125045384D01*
X138779245Y-125075757D01*
X138705210Y-125099897D01*
X138666363Y-125112856D01*
X138630412Y-125125038D01*
X138596965Y-125136626D01*
X138565630Y-125147802D01*
X138536014Y-125158748D01*
X138507726Y-125169647D01*
X138480374Y-125180682D01*
X138453565Y-125192035D01*
X138426908Y-125203888D01*
X138400011Y-125216425D01*
X138372481Y-125229827D01*
X138343927Y-125244277D01*
X138313956Y-125259959D01*
X138282176Y-125277053D01*
X138248196Y-125295743D01*
X138211624Y-125316212D01*
X138172066Y-125338641D01*
X138129132Y-125363213D01*
X138084724Y-125388788D01*
X138050306Y-125408624D01*
X138019607Y-125426252D01*
X137992175Y-125441919D01*
X137967562Y-125455873D01*
X137945318Y-125468363D01*
X137924993Y-125479636D01*
X137906136Y-125489941D01*
X137888299Y-125499525D01*
X137871031Y-125508636D01*
X137853882Y-125517523D01*
X137836404Y-125526433D01*
X137821048Y-125534162D01*
X137776259Y-125556051D01*
X137734576Y-125575225D01*
X137695282Y-125591930D01*
X137657658Y-125606415D01*
X137620986Y-125618927D01*
X137584550Y-125629716D01*
X137547629Y-125639028D01*
X137509508Y-125647111D01*
X137476955Y-125652979D01*
X137436308Y-125659412D01*
X137398878Y-125664468D01*
X137363278Y-125668258D01*
X137328120Y-125670896D01*
X137292020Y-125672492D01*
X137253589Y-125673158D01*
X137227171Y-125673149D01*
X137208939Y-125673012D01*
X137191766Y-125672835D01*
X137176402Y-125672630D01*
X137163598Y-125672407D01*
X137154102Y-125672178D01*
X137148667Y-125671955D01*
X137148552Y-125671947D01*
X137086121Y-125665765D01*
X137024537Y-125656409D01*
X136964390Y-125644029D01*
X136906264Y-125628776D01*
X136850747Y-125610800D01*
X136798426Y-125590253D01*
X136758886Y-125571875D01*
X136700028Y-125539716D01*
X136642684Y-125503002D01*
X136586906Y-125461788D01*
X136532747Y-125416130D01*
X136480259Y-125366086D01*
X136429494Y-125311710D01*
X136380504Y-125253060D01*
X136333342Y-125190192D01*
X136288060Y-125123161D01*
X136244710Y-125052024D01*
X136203344Y-124976837D01*
X136200377Y-124971140D01*
X136175001Y-124919703D01*
X136151334Y-124866393D01*
X136129132Y-124810569D01*
X136108147Y-124751594D01*
X136088134Y-124688827D01*
X136076818Y-124650234D01*
X136071630Y-124632002D01*
X135903124Y-124564030D01*
X135876054Y-124553076D01*
X135850329Y-124542600D01*
X135826297Y-124532746D01*
X135804304Y-124523662D01*
X135784699Y-124515491D01*
X135767827Y-124508380D01*
X135754038Y-124502474D01*
X135743676Y-124497918D01*
X135737091Y-124494859D01*
X135734628Y-124493441D01*
X135734619Y-124493409D01*
X135736385Y-124491437D01*
X135741507Y-124486490D01*
X135749724Y-124478808D01*
X135760775Y-124468629D01*
X135774396Y-124456189D01*
X135790327Y-124441728D01*
X135808305Y-124425482D01*
X135828069Y-124407690D01*
X135849357Y-124388590D01*
X135871906Y-124368419D01*
X135889438Y-124352777D01*
X136044257Y-124214794D01*
X136054116Y-124187558D01*
X136073546Y-124139507D01*
X136096344Y-124093631D01*
X136122790Y-124049513D01*
X136153162Y-124006736D01*
X136187739Y-123964883D01*
X136226801Y-123923536D01*
X136238039Y-123912515D01*
X136284198Y-123871250D01*
X136333975Y-123833069D01*
X136387189Y-123798064D01*
X136443659Y-123766324D01*
X136503203Y-123737941D01*
X136565639Y-123713004D01*
X136630785Y-123691605D01*
X136698460Y-123673835D01*
X136730057Y-123666972D01*
X136760501Y-123661050D01*
X136787739Y-123656407D01*
X136813186Y-123652888D01*
X136838256Y-123650335D01*
X136864364Y-123648592D01*
X136892925Y-123647501D01*
X136909067Y-123647143D01*
X136941136Y-123646853D01*
X136969564Y-123647271D01*
D12*
X156045000Y-119625000D03*
X156395000Y-119625000D03*
X156745000Y-119625000D03*
X157095000Y-119625000D03*
X157095000Y-118955000D03*
X156745000Y-118955000D03*
X156395000Y-118955000D03*
X156045000Y-118955000D03*
D13*
X161190000Y-100200000D03*
X161190000Y-100600000D03*
X161190000Y-101000000D03*
X161190000Y-101400000D03*
X161190000Y-101800000D03*
X161190000Y-102200000D03*
X161190000Y-102600000D03*
X161190000Y-103000000D03*
X161190000Y-103400000D03*
X161190000Y-103800000D03*
X161190000Y-107800000D03*
X161190000Y-107400000D03*
X161190000Y-107000000D03*
X161190000Y-106600000D03*
X161190000Y-106200000D03*
X161190000Y-105800000D03*
X161190000Y-105400000D03*
X161190000Y-105000000D03*
X161190000Y-104600000D03*
X161190000Y-104200000D03*
X161190000Y-108200000D03*
X161190000Y-108600000D03*
X161190000Y-109000000D03*
X161190000Y-109400000D03*
X161190000Y-109800000D03*
X161190000Y-110200000D03*
X161190000Y-110600000D03*
X161190000Y-111000000D03*
X161190000Y-111400000D03*
X161190000Y-111800000D03*
X161190000Y-115800000D03*
X161190000Y-115400000D03*
X161190000Y-115000000D03*
X161190000Y-114600000D03*
X161190000Y-114200000D03*
X161190000Y-113800000D03*
X161190000Y-113400000D03*
X161190000Y-113000000D03*
X161190000Y-112600000D03*
X161190000Y-112200000D03*
X158110000Y-112200000D03*
X158110000Y-112600000D03*
X158110000Y-113000000D03*
X158110000Y-113400000D03*
X158110000Y-113800000D03*
X158110000Y-114200000D03*
X158110000Y-114600000D03*
X158110000Y-115000000D03*
X158110000Y-115400000D03*
X158110000Y-115800000D03*
X158110000Y-111800000D03*
X158110000Y-111400000D03*
X158110000Y-111000000D03*
X158110000Y-110600000D03*
X158110000Y-110200000D03*
X158110000Y-109800000D03*
X158110000Y-109400000D03*
X158110000Y-109000000D03*
X158110000Y-108600000D03*
X158110000Y-108200000D03*
X158110000Y-104200000D03*
X158110000Y-104600000D03*
X158110000Y-105000000D03*
X158110000Y-105400000D03*
X158110000Y-105800000D03*
X158110000Y-106200000D03*
X158110000Y-106600000D03*
X158110000Y-107000000D03*
X158110000Y-107400000D03*
X158110000Y-107800000D03*
X158110000Y-103800000D03*
X158110000Y-103400000D03*
X158110000Y-103000000D03*
X158110000Y-102600000D03*
X158110000Y-102200000D03*
X158110000Y-101800000D03*
X158110000Y-101400000D03*
X158110000Y-101000000D03*
X158110000Y-100600000D03*
X158110000Y-100200000D03*
D14*
X158461920Y-94250000D03*
X158461920Y-93599760D03*
X158461920Y-92949520D03*
X155800000Y-92949520D03*
X155800000Y-93599760D03*
X155800000Y-94250000D03*
X164300000Y-98250000D03*
X164300000Y-97599760D03*
X164300000Y-96949520D03*
X161638080Y-96949520D03*
X161638080Y-97599760D03*
X161638080Y-98250000D03*
X158611920Y-96700000D03*
X158611920Y-96049760D03*
X158611920Y-95399520D03*
X155950000Y-95399520D03*
X155950000Y-96049760D03*
X155950000Y-96700000D03*
D15*
X153810000Y-109650000D03*
X153810000Y-105650000D03*
D16*
X154800000Y-121760000D03*
X153400000Y-121760000D03*
D17*
X143180000Y-121090000D03*
D18*
X145720000Y-121090000D03*
X148260000Y-121090000D03*
X150800000Y-121090000D03*
D19*
X150850000Y-111180000D03*
D20*
X148310000Y-111180000D03*
X150850000Y-108640000D03*
X148310000Y-108640000D03*
X150850000Y-106100000D03*
X148310000Y-106100000D03*
X150850000Y-103560000D03*
X148310000Y-103560000D03*
X150850000Y-101020000D03*
X148310000Y-101020000D03*
X150850000Y-98480000D03*
X148310000Y-98480000D03*
D21*
X141070000Y-92060000D03*
D22*
X141070000Y-94600000D03*
D23*
X136780000Y-94751140D03*
X138680000Y-94751140D03*
X137730000Y-91748860D03*
M02*
