G04 #@! TF.FileFunction,Legend,Top*
%FSLAX46Y46*%
G04 Gerber Fmt 4.6, Leading zero omitted, Abs format (unit mm)*
G04 Created by KiCad (PCBNEW 4.0.1-stable) date Tuesday, April 12, 2016 'PMt' 10:53:03 PM*
%MOMM*%
G01*
G04 APERTURE LIST*
%ADD10C,0.100000*%
%ADD11C,0.150000*%
%ADD12C,0.300000*%
%ADD13C,0.200000*%
G04 APERTURE END LIST*
D10*
D11*
X151562857Y-94751429D02*
X152324762Y-94751429D01*
X151943810Y-95132381D02*
X151943810Y-94370476D01*
X153277143Y-94132381D02*
X152800952Y-94132381D01*
X152753333Y-94608571D01*
X152800952Y-94560952D01*
X152896190Y-94513333D01*
X153134286Y-94513333D01*
X153229524Y-94560952D01*
X153277143Y-94608571D01*
X153324762Y-94703810D01*
X153324762Y-94941905D01*
X153277143Y-95037143D01*
X153229524Y-95084762D01*
X153134286Y-95132381D01*
X152896190Y-95132381D01*
X152800952Y-95084762D01*
X152753333Y-95037143D01*
D12*
X152762857Y-91410000D02*
X152620000Y-91338571D01*
X152405714Y-91338571D01*
X152191429Y-91410000D01*
X152048571Y-91552857D01*
X151977143Y-91695714D01*
X151905714Y-91981429D01*
X151905714Y-92195714D01*
X151977143Y-92481429D01*
X152048571Y-92624286D01*
X152191429Y-92767143D01*
X152405714Y-92838571D01*
X152548571Y-92838571D01*
X152762857Y-92767143D01*
X152834286Y-92695714D01*
X152834286Y-92195714D01*
X152548571Y-92195714D01*
D11*
X142120000Y-123536667D02*
X142596191Y-123536667D01*
X142024762Y-123822381D02*
X142358095Y-122822381D01*
X142691429Y-123822381D01*
X143024762Y-123822381D02*
X143024762Y-122822381D01*
X143500952Y-123822381D02*
X143500952Y-122822381D01*
X144072381Y-123822381D01*
X144072381Y-122822381D01*
X145359048Y-123161429D02*
X146120953Y-123161429D01*
X147849048Y-123161429D02*
X148610953Y-123161429D01*
X148230001Y-123542381D02*
X148230001Y-122780476D01*
X149618571Y-123584762D02*
X149761428Y-123632381D01*
X149999524Y-123632381D01*
X150094762Y-123584762D01*
X150142381Y-123537143D01*
X150190000Y-123441905D01*
X150190000Y-123346667D01*
X150142381Y-123251429D01*
X150094762Y-123203810D01*
X149999524Y-123156190D01*
X149809047Y-123108571D01*
X149713809Y-123060952D01*
X149666190Y-123013333D01*
X149618571Y-122918095D01*
X149618571Y-122822857D01*
X149666190Y-122727619D01*
X149713809Y-122680000D01*
X149809047Y-122632381D01*
X150047143Y-122632381D01*
X150190000Y-122680000D01*
X150618571Y-123537143D02*
X150666190Y-123584762D01*
X150618571Y-123632381D01*
X150570952Y-123584762D01*
X150618571Y-123537143D01*
X150618571Y-123632381D01*
X151094761Y-123632381D02*
X151094761Y-122632381D01*
X151475714Y-122632381D01*
X151570952Y-122680000D01*
X151618571Y-122727619D01*
X151666190Y-122822857D01*
X151666190Y-122965714D01*
X151618571Y-123060952D01*
X151570952Y-123108571D01*
X151475714Y-123156190D01*
X151094761Y-123156190D01*
X152237618Y-123632381D02*
X152142380Y-123584762D01*
X152094761Y-123537143D01*
X152047142Y-123441905D01*
X152047142Y-123156190D01*
X152094761Y-123060952D01*
X152142380Y-123013333D01*
X152237618Y-122965714D01*
X152380476Y-122965714D01*
X152475714Y-123013333D01*
X152523333Y-123060952D01*
X152570952Y-123156190D01*
X152570952Y-123441905D01*
X152523333Y-123537143D01*
X152475714Y-123584762D01*
X152380476Y-123632381D01*
X152237618Y-123632381D01*
X152999523Y-123632381D02*
X152999523Y-122965714D01*
X152999523Y-123156190D02*
X153047142Y-123060952D01*
X153094761Y-123013333D01*
X153189999Y-122965714D01*
X153285238Y-122965714D01*
X153475714Y-122965714D02*
X153856666Y-122965714D01*
X153618571Y-122632381D02*
X153618571Y-123489524D01*
X153666190Y-123584762D01*
X153761428Y-123632381D01*
X153856666Y-123632381D01*
D13*
X139900237Y-125375952D02*
X139781190Y-125435476D01*
X139543094Y-125435476D01*
X139424047Y-125375952D01*
X139364523Y-125316429D01*
X139304999Y-125197381D01*
X139304999Y-124840238D01*
X139364523Y-124721190D01*
X139424047Y-124661667D01*
X139543094Y-124602143D01*
X139781190Y-124602143D01*
X139900237Y-124661667D01*
X140435952Y-125435476D02*
X140435952Y-124185476D01*
X140555000Y-124959286D02*
X140912143Y-125435476D01*
X140912143Y-124602143D02*
X140435952Y-125078333D01*
X141983571Y-125435476D02*
X141983571Y-124185476D01*
X141983571Y-125375952D02*
X141864524Y-125435476D01*
X141626428Y-125435476D01*
X141507381Y-125375952D01*
X141447857Y-125316429D01*
X141388333Y-125197381D01*
X141388333Y-124840238D01*
X141447857Y-124721190D01*
X141507381Y-124661667D01*
X141626428Y-124602143D01*
X141864524Y-124602143D01*
X141983571Y-124661667D01*
X142578809Y-125316429D02*
X142638333Y-125375952D01*
X142578809Y-125435476D01*
X142519285Y-125375952D01*
X142578809Y-125316429D01*
X142578809Y-125435476D01*
X142995476Y-124602143D02*
X143471666Y-124602143D01*
X143174047Y-124185476D02*
X143174047Y-125256905D01*
X143233571Y-125375952D01*
X143352618Y-125435476D01*
X143471666Y-125435476D01*
X144364524Y-125375952D02*
X144245476Y-125435476D01*
X144007381Y-125435476D01*
X143888333Y-125375952D01*
X143828809Y-125256905D01*
X143828809Y-124780714D01*
X143888333Y-124661667D01*
X144007381Y-124602143D01*
X144245476Y-124602143D01*
X144364524Y-124661667D01*
X144424047Y-124780714D01*
X144424047Y-124899762D01*
X143828809Y-125018810D01*
X145495476Y-125375952D02*
X145376429Y-125435476D01*
X145138333Y-125435476D01*
X145019286Y-125375952D01*
X144959762Y-125316429D01*
X144900238Y-125197381D01*
X144900238Y-124840238D01*
X144959762Y-124721190D01*
X145019286Y-124661667D01*
X145138333Y-124602143D01*
X145376429Y-124602143D01*
X145495476Y-124661667D01*
X146031191Y-125435476D02*
X146031191Y-124185476D01*
X146566905Y-125435476D02*
X146566905Y-124780714D01*
X146507382Y-124661667D01*
X146388334Y-124602143D01*
X146209762Y-124602143D01*
X146090715Y-124661667D01*
X146031191Y-124721190D01*
X148055000Y-124125952D02*
X146983572Y-125733095D01*
X148352619Y-125435476D02*
X149007381Y-124602143D01*
X148352619Y-124602143D02*
X149007381Y-125435476D01*
X150019286Y-124602143D02*
X150019286Y-125435476D01*
X149721667Y-124125952D02*
X149424048Y-125018810D01*
X150197858Y-125018810D01*
X150674048Y-125435476D02*
X150674048Y-124602143D01*
X150674048Y-124840238D02*
X150733572Y-124721190D01*
X150793096Y-124661667D01*
X150912143Y-124602143D01*
X151031191Y-124602143D01*
X151447858Y-124959286D02*
X152400239Y-124959286D01*
X152935953Y-125375952D02*
X153055001Y-125435476D01*
X153293096Y-125435476D01*
X153412144Y-125375952D01*
X153471668Y-125256905D01*
X153471668Y-125197381D01*
X153412144Y-125078333D01*
X153293096Y-125018810D01*
X153114525Y-125018810D01*
X152995477Y-124959286D01*
X152935953Y-124840238D01*
X152935953Y-124780714D01*
X152995477Y-124661667D01*
X153114525Y-124602143D01*
X153293096Y-124602143D01*
X153412144Y-124661667D01*
X154007382Y-125435476D02*
X154007382Y-124185476D01*
X154007382Y-124661667D02*
X154126430Y-124602143D01*
X154364525Y-124602143D01*
X154483573Y-124661667D01*
X154543096Y-124721190D01*
X154602620Y-124840238D01*
X154602620Y-125197381D01*
X154543096Y-125316429D01*
X154483573Y-125375952D01*
X154364525Y-125435476D01*
X154126430Y-125435476D01*
X154007382Y-125375952D01*
X156031191Y-124125952D02*
X154959763Y-125733095D01*
X156328810Y-124602143D02*
X156626429Y-125435476D01*
X156924049Y-124602143D01*
X157935953Y-124602143D02*
X157935953Y-125435476D01*
X157638334Y-124125952D02*
X157340715Y-125018810D01*
X158114525Y-125018810D01*
D11*
X145901429Y-91028571D02*
X146044286Y-91076190D01*
X146091905Y-91123810D01*
X146139524Y-91219048D01*
X146139524Y-91361905D01*
X146091905Y-91457143D01*
X146044286Y-91504762D01*
X145949048Y-91552381D01*
X145568095Y-91552381D01*
X145568095Y-90552381D01*
X145901429Y-90552381D01*
X145996667Y-90600000D01*
X146044286Y-90647619D01*
X146091905Y-90742857D01*
X146091905Y-90838095D01*
X146044286Y-90933333D01*
X145996667Y-90980952D01*
X145901429Y-91028571D01*
X145568095Y-91028571D01*
X146996667Y-90885714D02*
X146996667Y-91552381D01*
X146568095Y-90885714D02*
X146568095Y-91409524D01*
X146615714Y-91504762D01*
X146710952Y-91552381D01*
X146853810Y-91552381D01*
X146949048Y-91504762D01*
X146996667Y-91457143D01*
X147377619Y-90885714D02*
X147901429Y-90885714D01*
X147377619Y-91552381D01*
X147901429Y-91552381D01*
X148187143Y-90885714D02*
X148710953Y-90885714D01*
X148187143Y-91552381D01*
X148710953Y-91552381D01*
X149472858Y-91504762D02*
X149377620Y-91552381D01*
X149187143Y-91552381D01*
X149091905Y-91504762D01*
X149044286Y-91409524D01*
X149044286Y-91028571D01*
X149091905Y-90933333D01*
X149187143Y-90885714D01*
X149377620Y-90885714D01*
X149472858Y-90933333D01*
X149520477Y-91028571D01*
X149520477Y-91123810D01*
X149044286Y-91219048D01*
X149949048Y-91552381D02*
X149949048Y-90885714D01*
X149949048Y-91076190D02*
X149996667Y-90980952D01*
X150044286Y-90933333D01*
X150139524Y-90885714D01*
X150234763Y-90885714D01*
X142662857Y-94751429D02*
X143424762Y-94751429D01*
X143043810Y-95132381D02*
X143043810Y-94370476D01*
X144377143Y-94132381D02*
X143900952Y-94132381D01*
X143853333Y-94608571D01*
X143900952Y-94560952D01*
X143996190Y-94513333D01*
X144234286Y-94513333D01*
X144329524Y-94560952D01*
X144377143Y-94608571D01*
X144424762Y-94703810D01*
X144424762Y-94941905D01*
X144377143Y-95037143D01*
X144329524Y-95084762D01*
X144234286Y-95132381D01*
X143996190Y-95132381D01*
X143900952Y-95084762D01*
X143853333Y-95037143D01*
D12*
X143962857Y-91410000D02*
X143820000Y-91338571D01*
X143605714Y-91338571D01*
X143391429Y-91410000D01*
X143248571Y-91552857D01*
X143177143Y-91695714D01*
X143105714Y-91981429D01*
X143105714Y-92195714D01*
X143177143Y-92481429D01*
X143248571Y-92624286D01*
X143391429Y-92767143D01*
X143605714Y-92838571D01*
X143748571Y-92838571D01*
X143962857Y-92767143D01*
X144034286Y-92695714D01*
X144034286Y-92195714D01*
X143748571Y-92195714D01*
D11*
X159057144Y-117815714D02*
X159057144Y-118482381D01*
X158819048Y-117434762D02*
X158580953Y-118149048D01*
X159200001Y-118149048D01*
X159580953Y-118482381D02*
X159580953Y-117815714D01*
X159580953Y-117910952D02*
X159628572Y-117863333D01*
X159723810Y-117815714D01*
X159866668Y-117815714D01*
X159961906Y-117863333D01*
X160009525Y-117958571D01*
X160009525Y-118482381D01*
X160009525Y-117958571D02*
X160057144Y-117863333D01*
X160152382Y-117815714D01*
X160295239Y-117815714D01*
X160390477Y-117863333D01*
X160438096Y-117958571D01*
X160438096Y-118482381D01*
X160914286Y-118482381D02*
X160914286Y-117815714D01*
X160914286Y-117910952D02*
X160961905Y-117863333D01*
X161057143Y-117815714D01*
X161200001Y-117815714D01*
X161295239Y-117863333D01*
X161342858Y-117958571D01*
X161342858Y-118482381D01*
X161342858Y-117958571D02*
X161390477Y-117863333D01*
X161485715Y-117815714D01*
X161628572Y-117815714D01*
X161723810Y-117863333D01*
X161771429Y-117958571D01*
X161771429Y-118482381D01*
X159109620Y-94920560D02*
X159678580Y-94920560D01*
X159678580Y-94920560D02*
X159678580Y-94509080D01*
X164947700Y-98920560D02*
X165516660Y-98920560D01*
X165516660Y-98920560D02*
X165516660Y-98509080D01*
X159259620Y-97370560D02*
X159828580Y-97370560D01*
X159828580Y-97370560D02*
X159828580Y-96959080D01*
X152785000Y-106650000D02*
X152785000Y-108650000D01*
X154835000Y-108650000D02*
X154835000Y-106650000D01*
X154200000Y-121200000D02*
X152650000Y-121200000D01*
X154200000Y-122400000D02*
X152650000Y-122400000D01*
X144450000Y-122360000D02*
X152070000Y-122360000D01*
X144450000Y-119820000D02*
X152070000Y-119820000D01*
X141630000Y-119540000D02*
X143180000Y-119540000D01*
X152070000Y-122360000D02*
X152070000Y-119820000D01*
X144450000Y-119820000D02*
X144450000Y-122360000D01*
X143180000Y-122640000D02*
X141630000Y-122640000D01*
X141630000Y-122640000D02*
X141630000Y-119540000D01*
X149326000Y-98734000D02*
X149834000Y-98734000D01*
X149326000Y-98226000D02*
X149834000Y-98226000D01*
X149326000Y-100766000D02*
X149834000Y-100766000D01*
X149326000Y-101274000D02*
X149834000Y-101274000D01*
X149326000Y-103306000D02*
X149834000Y-103306000D01*
X149326000Y-103814000D02*
X149834000Y-103814000D01*
X149326000Y-111434000D02*
X149834000Y-111434000D01*
X149326000Y-110926000D02*
X149834000Y-110926000D01*
X149326000Y-105846000D02*
X149834000Y-105846000D01*
X149326000Y-106354000D02*
X149834000Y-106354000D01*
X149326000Y-108386000D02*
X149834000Y-108386000D01*
X149326000Y-108894000D02*
X149834000Y-108894000D01*
X146786000Y-98226000D02*
X147294000Y-98226000D01*
X146786000Y-98734000D02*
X147294000Y-98734000D01*
X146786000Y-100766000D02*
X147294000Y-100766000D01*
X146786000Y-101274000D02*
X147294000Y-101274000D01*
X146786000Y-111434000D02*
X147294000Y-111434000D01*
X146786000Y-110926000D02*
X147294000Y-110926000D01*
X146786000Y-108894000D02*
X147294000Y-108894000D01*
X146786000Y-108386000D02*
X147294000Y-108386000D01*
X146786000Y-103306000D02*
X147294000Y-103306000D01*
X146786000Y-103814000D02*
X147294000Y-103814000D01*
X146786000Y-105846000D02*
X147294000Y-105846000D01*
X146786000Y-106354000D02*
X147294000Y-106354000D01*
X150850000Y-112730000D02*
X152000000Y-112730000D01*
X152000000Y-112730000D02*
X152000000Y-111180000D01*
X144246000Y-111307000D02*
X138277000Y-111307000D01*
X138277000Y-111307000D02*
X138277000Y-111053000D01*
X138277000Y-111053000D02*
X144119000Y-111053000D01*
X144119000Y-111053000D02*
X144119000Y-111180000D01*
X144119000Y-111180000D02*
X138277000Y-111180000D01*
X146786000Y-102290000D02*
X144246000Y-102290000D01*
X146786000Y-102290000D02*
X146786000Y-99750000D01*
X146786000Y-99750000D02*
X144246000Y-99750000D01*
X144246000Y-101274000D02*
X138150000Y-101274000D01*
X138150000Y-101274000D02*
X138150000Y-100766000D01*
X138150000Y-100766000D02*
X144246000Y-100766000D01*
X144246000Y-99750000D02*
X144246000Y-102290000D01*
X144246000Y-97210000D02*
X144246000Y-99750000D01*
X138150000Y-98226000D02*
X144246000Y-98226000D01*
X138150000Y-98734000D02*
X138150000Y-98226000D01*
X144246000Y-98734000D02*
X138150000Y-98734000D01*
X146786000Y-99750000D02*
X146786000Y-97210000D01*
X146786000Y-99750000D02*
X144246000Y-99750000D01*
X146786000Y-97210000D02*
X144246000Y-97210000D01*
X146786000Y-107370000D02*
X144246000Y-107370000D01*
X146786000Y-107370000D02*
X146786000Y-104830000D01*
X146786000Y-104830000D02*
X144246000Y-104830000D01*
X144246000Y-106354000D02*
X138150000Y-106354000D01*
X138150000Y-106354000D02*
X138150000Y-105846000D01*
X138150000Y-105846000D02*
X144246000Y-105846000D01*
X144246000Y-104830000D02*
X144246000Y-107370000D01*
X144246000Y-102290000D02*
X144246000Y-104830000D01*
X138150000Y-103306000D02*
X144246000Y-103306000D01*
X138150000Y-103814000D02*
X138150000Y-103306000D01*
X144246000Y-103814000D02*
X138150000Y-103814000D01*
X146786000Y-102290000D02*
X144246000Y-102290000D01*
X146786000Y-104830000D02*
X146786000Y-102290000D01*
X146786000Y-104830000D02*
X144246000Y-104830000D01*
X146786000Y-109910000D02*
X144246000Y-109910000D01*
X146786000Y-109910000D02*
X146786000Y-107370000D01*
X146786000Y-107370000D02*
X144246000Y-107370000D01*
X144246000Y-108894000D02*
X138150000Y-108894000D01*
X138150000Y-108894000D02*
X138150000Y-108386000D01*
X138150000Y-108386000D02*
X144246000Y-108386000D01*
X144246000Y-107370000D02*
X144246000Y-109910000D01*
X144246000Y-109910000D02*
X144246000Y-112450000D01*
X138150000Y-110926000D02*
X144246000Y-110926000D01*
X138150000Y-111434000D02*
X138150000Y-110926000D01*
X144246000Y-111434000D02*
X138150000Y-111434000D01*
X146786000Y-109910000D02*
X144246000Y-109910000D01*
X146786000Y-112450000D02*
X146786000Y-109910000D01*
X146786000Y-112450000D02*
X144246000Y-112450000D01*
X139500000Y-90510000D02*
X139500000Y-92060000D01*
X140800000Y-90510000D02*
X139500000Y-90510000D01*
X144991000Y-91933000D02*
X150833000Y-91933000D01*
X150833000Y-91933000D02*
X150833000Y-92187000D01*
X150833000Y-92187000D02*
X144991000Y-92187000D01*
X144991000Y-92187000D02*
X144991000Y-92060000D01*
X144991000Y-92060000D02*
X150833000Y-92060000D01*
X142324000Y-91806000D02*
X141943000Y-91806000D01*
X142324000Y-92314000D02*
X141943000Y-92314000D01*
X142324000Y-94346000D02*
X141943000Y-94346000D01*
X142324000Y-94854000D02*
X141943000Y-94854000D01*
X142324000Y-90790000D02*
X144864000Y-90790000D01*
X142324000Y-93330000D02*
X144864000Y-93330000D01*
X142324000Y-93330000D02*
X142324000Y-95870000D01*
X142324000Y-95870000D02*
X144864000Y-95870000D01*
X144864000Y-94346000D02*
X150960000Y-94346000D01*
X150960000Y-94346000D02*
X150960000Y-94854000D01*
X150960000Y-94854000D02*
X144864000Y-94854000D01*
X144864000Y-95870000D02*
X144864000Y-93330000D01*
X144864000Y-93330000D02*
X144864000Y-90790000D01*
X150960000Y-92314000D02*
X144864000Y-92314000D01*
X150960000Y-91806000D02*
X150960000Y-92314000D01*
X144864000Y-91806000D02*
X150960000Y-91806000D01*
X142324000Y-93330000D02*
X144864000Y-93330000D01*
X142324000Y-90790000D02*
X142324000Y-93330000D01*
X136230180Y-93300800D02*
X136230180Y-92599760D01*
X136230180Y-92599760D02*
X136479100Y-92599760D01*
X139029160Y-92599760D02*
X139229820Y-92599760D01*
X139229820Y-92599760D02*
X139229820Y-93300800D01*
X159803553Y-123700000D02*
G75*
G03X159803553Y-123700000I-353553J0D01*
G01*
D10*
G36*
X165687579Y-111654438D02*
X164719203Y-111654438D01*
X164601191Y-111426039D01*
X164605263Y-111433186D01*
X164609616Y-111439900D01*
X164614249Y-111446181D01*
X164619164Y-111452029D01*
X164624359Y-111457444D01*
X164629835Y-111462425D01*
X164635592Y-111466973D01*
X164641630Y-111471089D01*
X164647948Y-111474771D01*
X164654548Y-111478019D01*
X164661428Y-111480835D01*
X164668589Y-111483217D01*
X164676031Y-111485167D01*
X164683754Y-111486683D01*
X164691757Y-111487766D01*
X164700041Y-111488415D01*
X164708607Y-111488632D01*
X165174275Y-111488632D01*
X165174263Y-111488632D01*
X165178169Y-111478231D01*
X165181852Y-111467803D01*
X165185312Y-111457347D01*
X165188548Y-111446865D01*
X165191562Y-111436355D01*
X165194352Y-111425818D01*
X165196919Y-111415254D01*
X165199263Y-111404662D01*
X165201383Y-111394043D01*
X165203281Y-111383398D01*
X165204955Y-111372724D01*
X165206406Y-111362024D01*
X165207633Y-111351296D01*
X165208638Y-111340542D01*
X165209419Y-111329760D01*
X165209977Y-111318950D01*
X165210312Y-111308114D01*
X165210423Y-111297250D01*
X165210293Y-111285110D01*
X165209900Y-111273383D01*
X165209246Y-111262070D01*
X165208330Y-111251171D01*
X165207153Y-111240686D01*
X165205714Y-111230614D01*
X165204013Y-111220956D01*
X165202051Y-111211712D01*
X165199827Y-111202882D01*
X165196875Y-111192988D01*
X165193318Y-111183149D01*
X165189155Y-111173364D01*
X165184387Y-111163635D01*
X165179013Y-111153962D01*
X165173034Y-111144343D01*
X165166449Y-111134779D01*
X165159259Y-111125271D01*
X165153529Y-111118529D01*
X165147244Y-111112093D01*
X165140406Y-111105963D01*
X165133015Y-111100139D01*
X165125069Y-111094622D01*
X165116570Y-111089410D01*
X165107517Y-111084505D01*
X165097911Y-111079905D01*
X165087751Y-111075612D01*
X165077037Y-111071625D01*
X165065769Y-111067945D01*
X165057035Y-111065330D01*
X165048004Y-111062896D01*
X165038674Y-111060642D01*
X165029047Y-111058568D01*
X165019122Y-111056675D01*
X165008899Y-111054962D01*
X164998378Y-111053430D01*
X164987559Y-111052077D01*
X164976442Y-111050905D01*
X164965027Y-111049914D01*
X164953315Y-111049102D01*
X164941304Y-111048471D01*
X164928996Y-111048020D01*
X164916390Y-111047750D01*
X164903486Y-111047660D01*
X164890510Y-111047739D01*
X164877815Y-111047977D01*
X164865404Y-111048373D01*
X164853275Y-111048928D01*
X164841428Y-111049641D01*
X164829863Y-111050512D01*
X164818581Y-111051542D01*
X164807582Y-111052731D01*
X164796864Y-111054078D01*
X164786430Y-111055584D01*
X164776277Y-111057247D01*
X164766407Y-111059070D01*
X164756820Y-111061051D01*
X164747515Y-111063190D01*
X164738492Y-111065488D01*
X164729752Y-111067945D01*
X164717395Y-111071618D01*
X164705666Y-111075583D01*
X164694564Y-111079840D01*
X164684089Y-111084388D01*
X164674242Y-111089228D01*
X164665021Y-111094359D01*
X164656428Y-111099782D01*
X164648462Y-111105496D01*
X164641123Y-111111502D01*
X164634411Y-111117800D01*
X164628326Y-111124389D01*
X164620705Y-111133636D01*
X164613718Y-111142855D01*
X164607364Y-111152046D01*
X164601645Y-111161210D01*
X164596560Y-111170347D01*
X164592109Y-111179455D01*
X164588292Y-111188537D01*
X164585109Y-111197590D01*
X164582428Y-111206796D01*
X164580105Y-111216332D01*
X164578138Y-111226198D01*
X164576530Y-111236396D01*
X164575279Y-111246924D01*
X164574385Y-111257783D01*
X164573849Y-111268973D01*
X164573670Y-111280493D01*
X164573810Y-111293705D01*
X164574231Y-111306483D01*
X164574934Y-111318829D01*
X164575916Y-111330741D01*
X164577180Y-111342220D01*
X164578725Y-111353266D01*
X164580550Y-111363879D01*
X164582656Y-111374058D01*
X164585043Y-111383805D01*
X164587711Y-111393118D01*
X164590660Y-111401998D01*
X164593889Y-111410445D01*
X164597400Y-111418458D01*
X164601191Y-111426039D01*
X164719203Y-111654438D01*
X164709526Y-111654291D01*
X164699898Y-111653850D01*
X164690319Y-111653115D01*
X164680788Y-111652086D01*
X164671307Y-111650763D01*
X164661874Y-111649146D01*
X164653252Y-111647310D01*
X164644019Y-111644826D01*
X164634174Y-111641694D01*
X164623716Y-111637915D01*
X164612647Y-111633487D01*
X164600966Y-111628411D01*
X164588674Y-111622688D01*
X164579005Y-111617603D01*
X164569598Y-111612148D01*
X164560452Y-111606323D01*
X164551568Y-111600127D01*
X164542945Y-111593562D01*
X164534583Y-111586626D01*
X164526483Y-111579320D01*
X164518644Y-111571644D01*
X164511066Y-111563597D01*
X164505546Y-111557166D01*
X164500162Y-111550221D01*
X164494912Y-111542761D01*
X164489797Y-111534787D01*
X164484817Y-111526298D01*
X164479972Y-111517295D01*
X164475262Y-111507778D01*
X164470687Y-111497745D01*
X164466247Y-111487199D01*
X164461942Y-111476138D01*
X164457772Y-111464562D01*
X164453737Y-111452472D01*
X164450746Y-111443119D01*
X164447948Y-111433579D01*
X164445344Y-111423854D01*
X164442932Y-111413942D01*
X164440713Y-111403845D01*
X164438687Y-111393561D01*
X164436854Y-111383092D01*
X164435214Y-111372436D01*
X164433767Y-111361594D01*
X164432513Y-111350566D01*
X164431451Y-111339353D01*
X164430583Y-111327953D01*
X164429908Y-111316367D01*
X164429425Y-111304595D01*
X164429136Y-111292637D01*
X164429040Y-111280493D01*
X164429148Y-111269355D01*
X164429474Y-111258281D01*
X164430016Y-111247273D01*
X164430776Y-111236331D01*
X164431753Y-111225453D01*
X164432946Y-111214641D01*
X164434357Y-111203895D01*
X164435985Y-111193213D01*
X164437830Y-111182597D01*
X164439611Y-111173712D01*
X164441757Y-111164696D01*
X164444269Y-111155549D01*
X164447146Y-111146270D01*
X164450389Y-111136860D01*
X164453997Y-111127319D01*
X164457970Y-111117647D01*
X164462309Y-111107843D01*
X164467014Y-111097909D01*
X164472083Y-111087843D01*
X164477519Y-111077646D01*
X164482793Y-111068202D01*
X164488324Y-111058978D01*
X164494113Y-111049975D01*
X164500158Y-111041192D01*
X164506460Y-111032630D01*
X164513020Y-111024288D01*
X164519836Y-111016167D01*
X164526910Y-111008266D01*
X164534241Y-111000586D01*
X164541828Y-110993126D01*
X164549673Y-110985887D01*
X164557775Y-110978868D01*
X164564541Y-110973404D01*
X164571668Y-110968065D01*
X164579155Y-110962852D01*
X164587003Y-110957764D01*
X164595212Y-110952802D01*
X164603781Y-110947965D01*
X164612711Y-110943253D01*
X164622001Y-110938667D01*
X164631652Y-110934206D01*
X164641664Y-110929871D01*
X164652036Y-110925661D01*
X164662769Y-110921577D01*
X164673863Y-110917618D01*
X164685317Y-110913785D01*
X164697131Y-110910076D01*
X164706585Y-110907184D01*
X164716196Y-110904448D01*
X164725962Y-110901868D01*
X164735886Y-110899444D01*
X164745965Y-110897177D01*
X164756201Y-110895066D01*
X164766593Y-110893112D01*
X164777142Y-110891314D01*
X164787847Y-110889672D01*
X164798709Y-110888187D01*
X164809726Y-110886858D01*
X164820900Y-110885685D01*
X164832231Y-110884669D01*
X164843718Y-110883809D01*
X164855361Y-110883105D01*
X164867161Y-110882558D01*
X164879117Y-110882167D01*
X164891229Y-110881932D01*
X164903498Y-110881854D01*
X164916177Y-110881938D01*
X164928681Y-110882190D01*
X164941008Y-110882610D01*
X164953160Y-110883198D01*
X164965135Y-110883954D01*
X164976934Y-110884878D01*
X164988558Y-110885970D01*
X165000005Y-110887230D01*
X165011276Y-110888658D01*
X165022372Y-110890254D01*
X165033291Y-110892018D01*
X165044034Y-110893950D01*
X165054602Y-110896049D01*
X165064993Y-110898317D01*
X165075208Y-110900753D01*
X165085248Y-110903357D01*
X165095111Y-110906129D01*
X165104798Y-110909069D01*
X165114309Y-110912176D01*
X165123645Y-110915452D01*
X165132804Y-110918896D01*
X165144411Y-110923526D01*
X165155638Y-110928377D01*
X165166487Y-110933448D01*
X165176957Y-110938740D01*
X165187048Y-110944252D01*
X165196760Y-110949984D01*
X165206093Y-110955938D01*
X165215047Y-110962111D01*
X165223623Y-110968505D01*
X165231819Y-110975120D01*
X165239636Y-110981955D01*
X165247075Y-110989010D01*
X165254134Y-110996287D01*
X165260815Y-111003783D01*
X165267116Y-111011500D01*
X165273039Y-111019438D01*
X165279459Y-111028648D01*
X165285618Y-111037886D01*
X165291517Y-111047151D01*
X165297154Y-111056443D01*
X165302531Y-111065762D01*
X165307647Y-111075108D01*
X165312502Y-111084481D01*
X165317096Y-111093881D01*
X165321429Y-111103308D01*
X165325502Y-111112762D01*
X165329313Y-111122243D01*
X165332864Y-111131750D01*
X165336154Y-111141285D01*
X165339183Y-111150847D01*
X165341855Y-111160369D01*
X165344330Y-111170034D01*
X165346606Y-111179843D01*
X165348684Y-111189797D01*
X165350565Y-111199894D01*
X165352247Y-111210136D01*
X165353732Y-111220521D01*
X165355019Y-111231050D01*
X165356107Y-111241724D01*
X165356998Y-111252541D01*
X165357691Y-111263502D01*
X165358186Y-111274608D01*
X165358483Y-111285857D01*
X165358582Y-111297250D01*
X165358500Y-111308299D01*
X165358255Y-111319299D01*
X165357847Y-111330249D01*
X165357275Y-111341151D01*
X165356540Y-111352004D01*
X165355642Y-111362808D01*
X165354581Y-111373563D01*
X165353356Y-111384269D01*
X165351968Y-111394925D01*
X165350417Y-111405533D01*
X165348702Y-111416092D01*
X165346824Y-111426602D01*
X165344783Y-111437063D01*
X165342578Y-111447475D01*
X165340210Y-111457837D01*
X165337679Y-111468151D01*
X165334984Y-111478416D01*
X165332127Y-111488632D01*
X165687555Y-111488632D01*
X165687555Y-111654438D01*
X165687579Y-111654438D01*
X165687579Y-111654438D01*
G37*
G36*
X165128421Y-110656958D02*
X164728018Y-110508792D01*
X164736317Y-110511141D01*
X164744899Y-110513339D01*
X164753763Y-110515386D01*
X164762910Y-110517280D01*
X164772339Y-110519024D01*
X164782051Y-110520615D01*
X164792046Y-110522055D01*
X164802323Y-110523344D01*
X164812882Y-110524481D01*
X164823724Y-110525466D01*
X164834848Y-110526300D01*
X164846255Y-110526982D01*
X164857945Y-110527512D01*
X164869916Y-110527891D01*
X164882171Y-110528119D01*
X164894708Y-110528194D01*
X164907248Y-110528119D01*
X164919513Y-110527891D01*
X164931502Y-110527512D01*
X164943215Y-110526982D01*
X164954653Y-110526300D01*
X164965815Y-110525466D01*
X164976702Y-110524481D01*
X164987313Y-110523344D01*
X164997648Y-110522055D01*
X165007708Y-110520615D01*
X165017492Y-110519024D01*
X165027000Y-110517280D01*
X165036233Y-110515386D01*
X165045190Y-110513339D01*
X165053871Y-110511141D01*
X165062277Y-110508792D01*
X165073866Y-110504943D01*
X165084902Y-110500774D01*
X165095383Y-110496284D01*
X165105311Y-110491473D01*
X165114685Y-110486342D01*
X165123505Y-110480890D01*
X165131771Y-110475117D01*
X165139483Y-110469024D01*
X165146641Y-110462610D01*
X165153245Y-110455875D01*
X165159295Y-110448819D01*
X165166088Y-110439989D01*
X165172358Y-110431137D01*
X165178105Y-110422263D01*
X165183331Y-110413367D01*
X165188033Y-110404450D01*
X165192214Y-110395511D01*
X165195872Y-110386550D01*
X165199008Y-110377567D01*
X165201621Y-110368562D01*
X165203845Y-110359340D01*
X165205807Y-110349704D01*
X165207508Y-110339654D01*
X165208947Y-110329191D01*
X165210124Y-110318313D01*
X165211040Y-110307022D01*
X165211694Y-110295318D01*
X165212087Y-110283199D01*
X165212218Y-110270667D01*
X165212087Y-110257949D01*
X165211694Y-110245667D01*
X165211040Y-110233821D01*
X165210124Y-110222410D01*
X165208947Y-110211435D01*
X165207508Y-110200895D01*
X165205807Y-110190791D01*
X165203845Y-110181122D01*
X165201621Y-110171889D01*
X165199005Y-110162884D01*
X165195868Y-110153902D01*
X165192209Y-110144941D01*
X165188028Y-110136001D01*
X165183325Y-110127084D01*
X165178100Y-110118188D01*
X165172354Y-110109314D01*
X165166085Y-110100462D01*
X165159295Y-110091632D01*
X165153245Y-110084584D01*
X165146641Y-110077871D01*
X165139483Y-110071493D01*
X165131771Y-110065451D01*
X165123505Y-110059743D01*
X165114685Y-110054372D01*
X165105311Y-110049335D01*
X165095383Y-110044634D01*
X165084902Y-110040268D01*
X165073866Y-110036237D01*
X165062277Y-110032542D01*
X165053871Y-110030085D01*
X165045190Y-110027787D01*
X165036233Y-110025648D01*
X165027000Y-110023667D01*
X165017492Y-110021845D01*
X165007708Y-110020181D01*
X164997648Y-110018675D01*
X164987313Y-110017328D01*
X164976702Y-110016140D01*
X164965815Y-110015109D01*
X164954653Y-110014238D01*
X164943215Y-110013525D01*
X164931502Y-110012970D01*
X164919513Y-110012574D01*
X164907248Y-110012336D01*
X164894708Y-110012257D01*
X164882171Y-110012336D01*
X164869916Y-110012574D01*
X164857945Y-110012970D01*
X164846255Y-110013525D01*
X164834848Y-110014238D01*
X164823724Y-110015109D01*
X164812882Y-110016140D01*
X164802323Y-110017328D01*
X164792046Y-110018675D01*
X164782051Y-110020181D01*
X164772339Y-110021845D01*
X164762910Y-110023667D01*
X164753763Y-110025648D01*
X164744899Y-110027787D01*
X164736317Y-110030085D01*
X164728018Y-110032542D01*
X164716276Y-110036237D01*
X164705102Y-110040268D01*
X164694497Y-110044634D01*
X164684460Y-110049335D01*
X164674992Y-110054372D01*
X164666092Y-110059743D01*
X164657761Y-110065451D01*
X164649998Y-110071493D01*
X164642804Y-110077871D01*
X164636178Y-110084584D01*
X164630120Y-110091632D01*
X164623328Y-110100462D01*
X164617058Y-110109314D01*
X164611310Y-110118188D01*
X164606085Y-110127084D01*
X164601382Y-110136001D01*
X164597202Y-110144941D01*
X164593543Y-110153902D01*
X164590408Y-110162884D01*
X164587794Y-110171889D01*
X164585571Y-110181122D01*
X164583608Y-110190791D01*
X164581908Y-110200895D01*
X164580469Y-110211435D01*
X164579291Y-110222410D01*
X164578375Y-110233821D01*
X164577721Y-110245667D01*
X164577329Y-110257949D01*
X164577198Y-110270667D01*
X164577329Y-110283199D01*
X164577721Y-110295318D01*
X164578375Y-110307022D01*
X164579291Y-110318313D01*
X164580469Y-110329191D01*
X164581908Y-110339654D01*
X164583608Y-110349704D01*
X164585571Y-110359340D01*
X164587794Y-110368562D01*
X164590410Y-110377567D01*
X164593548Y-110386550D01*
X164597207Y-110395511D01*
X164601388Y-110404450D01*
X164606091Y-110413367D01*
X164611316Y-110422263D01*
X164617062Y-110431137D01*
X164623330Y-110439989D01*
X164630120Y-110448819D01*
X164636178Y-110455875D01*
X164642804Y-110462610D01*
X164649998Y-110469024D01*
X164657761Y-110475117D01*
X164666092Y-110480890D01*
X164674992Y-110486342D01*
X164684460Y-110491473D01*
X164694497Y-110496284D01*
X164705102Y-110500774D01*
X164716276Y-110504943D01*
X164728018Y-110508792D01*
X165128421Y-110656958D01*
X165119596Y-110660328D01*
X165110601Y-110663540D01*
X165101433Y-110666596D01*
X165092095Y-110669495D01*
X165082585Y-110672237D01*
X165072904Y-110674823D01*
X165063052Y-110677252D01*
X165053028Y-110679524D01*
X165042833Y-110681640D01*
X165032467Y-110683599D01*
X165021929Y-110685401D01*
X165011220Y-110687046D01*
X165000340Y-110688535D01*
X164989288Y-110689867D01*
X164978065Y-110691043D01*
X164966671Y-110692061D01*
X164955105Y-110692923D01*
X164943368Y-110693628D01*
X164931460Y-110694177D01*
X164919381Y-110694569D01*
X164907130Y-110694804D01*
X164894708Y-110694882D01*
X164882287Y-110694804D01*
X164870042Y-110694569D01*
X164857972Y-110694177D01*
X164846076Y-110693628D01*
X164834356Y-110692923D01*
X164822810Y-110692061D01*
X164811439Y-110691043D01*
X164800244Y-110689867D01*
X164789223Y-110688535D01*
X164778377Y-110687046D01*
X164767706Y-110685401D01*
X164757210Y-110683599D01*
X164746889Y-110681640D01*
X164736743Y-110679524D01*
X164726772Y-110677252D01*
X164716976Y-110674823D01*
X164707355Y-110672237D01*
X164697909Y-110669495D01*
X164688638Y-110666596D01*
X164679541Y-110663540D01*
X164670620Y-110660328D01*
X164661874Y-110656958D01*
X164650732Y-110652402D01*
X164639927Y-110647657D01*
X164629457Y-110642722D01*
X164619322Y-110637598D01*
X164609523Y-110632285D01*
X164600060Y-110626783D01*
X164590932Y-110621092D01*
X164582140Y-110615211D01*
X164573683Y-110609141D01*
X164565562Y-110602882D01*
X164557776Y-110596434D01*
X164550326Y-110589796D01*
X164543212Y-110582970D01*
X164536433Y-110575954D01*
X164529990Y-110568749D01*
X164523882Y-110561354D01*
X164518110Y-110553771D01*
X164511451Y-110544434D01*
X164505080Y-110535070D01*
X164498996Y-110525679D01*
X164493201Y-110516261D01*
X164487693Y-110506816D01*
X164482474Y-110497344D01*
X164477543Y-110487845D01*
X164472899Y-110478320D01*
X164468544Y-110468767D01*
X164464477Y-110459187D01*
X164460697Y-110449580D01*
X164457206Y-110439946D01*
X164454003Y-110430285D01*
X164451088Y-110420597D01*
X164448294Y-110410707D01*
X164445708Y-110400690D01*
X164443328Y-110390548D01*
X164441156Y-110380280D01*
X164439190Y-110369885D01*
X164437431Y-110359365D01*
X164435879Y-110348719D01*
X164434534Y-110337946D01*
X164433396Y-110327048D01*
X164432465Y-110316024D01*
X164431741Y-110304874D01*
X164431224Y-110293597D01*
X164430913Y-110282195D01*
X164430810Y-110270667D01*
X164430913Y-110259021D01*
X164431224Y-110247520D01*
X164431741Y-110236163D01*
X164432465Y-110224950D01*
X164433396Y-110213880D01*
X164434534Y-110202955D01*
X164435879Y-110192174D01*
X164437431Y-110181536D01*
X164439190Y-110171043D01*
X164441156Y-110160694D01*
X164443328Y-110150488D01*
X164445708Y-110140427D01*
X164448294Y-110130510D01*
X164451088Y-110120736D01*
X164454003Y-110110927D01*
X164457206Y-110101153D01*
X164460697Y-110091416D01*
X164464477Y-110081715D01*
X164468544Y-110072049D01*
X164472899Y-110062420D01*
X164477543Y-110052826D01*
X164482474Y-110043269D01*
X164487693Y-110033748D01*
X164493201Y-110024262D01*
X164498996Y-110014813D01*
X164505080Y-110005399D01*
X164511451Y-109996022D01*
X164518110Y-109986681D01*
X164523882Y-109979097D01*
X164529990Y-109971703D01*
X164536433Y-109964498D01*
X164543212Y-109957482D01*
X164550326Y-109950655D01*
X164557776Y-109944018D01*
X164565562Y-109937569D01*
X164573683Y-109931310D01*
X164582140Y-109925240D01*
X164590932Y-109919360D01*
X164600060Y-109913668D01*
X164609523Y-109908166D01*
X164619322Y-109902853D01*
X164629457Y-109897729D01*
X164639927Y-109892795D01*
X164650732Y-109888049D01*
X164661874Y-109883493D01*
X164670620Y-109880124D01*
X164679541Y-109876911D01*
X164688638Y-109873855D01*
X164697909Y-109870956D01*
X164707355Y-109868214D01*
X164716976Y-109865628D01*
X164726772Y-109863199D01*
X164736743Y-109860927D01*
X164746889Y-109858811D01*
X164757210Y-109856853D01*
X164767706Y-109855050D01*
X164778377Y-109853405D01*
X164789223Y-109851916D01*
X164800244Y-109850584D01*
X164811439Y-109849409D01*
X164822810Y-109848390D01*
X164834356Y-109847528D01*
X164846076Y-109846823D01*
X164857972Y-109846275D01*
X164870042Y-109845883D01*
X164882287Y-109845648D01*
X164894708Y-109845569D01*
X164907130Y-109845648D01*
X164919381Y-109845883D01*
X164931460Y-109846275D01*
X164943368Y-109846823D01*
X164955105Y-109847528D01*
X164966671Y-109848390D01*
X164978065Y-109849409D01*
X164989288Y-109850584D01*
X165000340Y-109851916D01*
X165011220Y-109853405D01*
X165021929Y-109855050D01*
X165032467Y-109856853D01*
X165042833Y-109858811D01*
X165053028Y-109860927D01*
X165063052Y-109863199D01*
X165072904Y-109865628D01*
X165082585Y-109868214D01*
X165092095Y-109870956D01*
X165101433Y-109873855D01*
X165110601Y-109876911D01*
X165119596Y-109880124D01*
X165128421Y-109883493D01*
X165139462Y-109888049D01*
X165150173Y-109892795D01*
X165160555Y-109897729D01*
X165170607Y-109902853D01*
X165180329Y-109908166D01*
X165189722Y-109913668D01*
X165198786Y-109919360D01*
X165207520Y-109925240D01*
X165215924Y-109931310D01*
X165223999Y-109937569D01*
X165231744Y-109944018D01*
X165239159Y-109950655D01*
X165246245Y-109957482D01*
X165253001Y-109964498D01*
X165259428Y-109971703D01*
X165265525Y-109979097D01*
X165271293Y-109986681D01*
X165277957Y-109996022D01*
X165284342Y-110005399D01*
X165290448Y-110014813D01*
X165296275Y-110024262D01*
X165301824Y-110033748D01*
X165307093Y-110043269D01*
X165312084Y-110052826D01*
X165316795Y-110062420D01*
X165321228Y-110072049D01*
X165325381Y-110081715D01*
X165329256Y-110091416D01*
X165332852Y-110101153D01*
X165336169Y-110110927D01*
X165339207Y-110120736D01*
X165341879Y-110130510D01*
X165344354Y-110140427D01*
X165346630Y-110150488D01*
X165348708Y-110160694D01*
X165350589Y-110171043D01*
X165352272Y-110181536D01*
X165353756Y-110192174D01*
X165355043Y-110202955D01*
X165356131Y-110213880D01*
X165357022Y-110224950D01*
X165357715Y-110236163D01*
X165358210Y-110247520D01*
X165358507Y-110259021D01*
X165358606Y-110270667D01*
X165358507Y-110282195D01*
X165358210Y-110293597D01*
X165357715Y-110304874D01*
X165357022Y-110316024D01*
X165356131Y-110327048D01*
X165355043Y-110337946D01*
X165353756Y-110348719D01*
X165352272Y-110359365D01*
X165350589Y-110369885D01*
X165348708Y-110380280D01*
X165346630Y-110390548D01*
X165344354Y-110400690D01*
X165341879Y-110410707D01*
X165339207Y-110420597D01*
X165336169Y-110430285D01*
X165332852Y-110439946D01*
X165329256Y-110449580D01*
X165325381Y-110459187D01*
X165321228Y-110468767D01*
X165316795Y-110478320D01*
X165312084Y-110487845D01*
X165307093Y-110497344D01*
X165301824Y-110506816D01*
X165296275Y-110516261D01*
X165290448Y-110525679D01*
X165284342Y-110535070D01*
X165277957Y-110544434D01*
X165271293Y-110553771D01*
X165265525Y-110561354D01*
X165259428Y-110568749D01*
X165253001Y-110575954D01*
X165246245Y-110582970D01*
X165239159Y-110589796D01*
X165231744Y-110596434D01*
X165223999Y-110602882D01*
X165215924Y-110609141D01*
X165207520Y-110615211D01*
X165198786Y-110621092D01*
X165189722Y-110626783D01*
X165180329Y-110632285D01*
X165170607Y-110637598D01*
X165160555Y-110642722D01*
X165150173Y-110647657D01*
X165139462Y-110652402D01*
X165128421Y-110656958D01*
X165128421Y-110656958D01*
G37*
G36*
X165344493Y-109605681D02*
X164100078Y-109605681D01*
X164100078Y-109439875D01*
X165344493Y-109439875D01*
X165344493Y-109605681D01*
X165344493Y-109605681D01*
G37*
G36*
X164443152Y-109242319D02*
X164443152Y-109065049D01*
X165118715Y-108822514D01*
X164443152Y-108584389D01*
X164443152Y-108407118D01*
X165440632Y-108777535D01*
X165453126Y-108782276D01*
X165465312Y-108787121D01*
X165477189Y-108792070D01*
X165488757Y-108797123D01*
X165500018Y-108802280D01*
X165510969Y-108807541D01*
X165521612Y-108812905D01*
X165531947Y-108818374D01*
X165541973Y-108823946D01*
X165551690Y-108829622D01*
X165561099Y-108835403D01*
X165570200Y-108841287D01*
X165578992Y-108847274D01*
X165587476Y-108853366D01*
X165595651Y-108859562D01*
X165603517Y-108865861D01*
X165611075Y-108872265D01*
X165618325Y-108878772D01*
X165625266Y-108885383D01*
X165631899Y-108892098D01*
X165638223Y-108898917D01*
X165644238Y-108905840D01*
X165649946Y-108912867D01*
X165655344Y-108919997D01*
X165660434Y-108927232D01*
X165665216Y-108934570D01*
X165669689Y-108942012D01*
X165673854Y-108949558D01*
X165677710Y-108957208D01*
X165681258Y-108964962D01*
X165684497Y-108972820D01*
X165687428Y-108980782D01*
X165690050Y-108988847D01*
X165692364Y-108997017D01*
X165694369Y-109005290D01*
X165696065Y-109013667D01*
X165697454Y-109022148D01*
X165698533Y-109030733D01*
X165699305Y-109039422D01*
X165699767Y-109048215D01*
X165699922Y-109057111D01*
X165699922Y-109057990D01*
X165699824Y-109068028D01*
X165699530Y-109078152D01*
X165699040Y-109088362D01*
X165698354Y-109098658D01*
X165697472Y-109109039D01*
X165696393Y-109119506D01*
X165695119Y-109130058D01*
X165693649Y-109140697D01*
X165691983Y-109151421D01*
X165690121Y-109162231D01*
X165688063Y-109173127D01*
X165685809Y-109184108D01*
X165537639Y-109184108D01*
X165540329Y-109173410D01*
X165542755Y-109162836D01*
X165544916Y-109152385D01*
X165546813Y-109142057D01*
X165548446Y-109131853D01*
X165549814Y-109121772D01*
X165550918Y-109111815D01*
X165551757Y-109101982D01*
X165552332Y-109092271D01*
X165552642Y-109082685D01*
X165552411Y-109075265D01*
X165551717Y-109067942D01*
X165550561Y-109060715D01*
X165548942Y-109053584D01*
X165546860Y-109046549D01*
X165544316Y-109039610D01*
X165541310Y-109032768D01*
X165537841Y-109026021D01*
X165533909Y-109019370D01*
X165529515Y-109012815D01*
X165524658Y-109006356D01*
X165519338Y-108999994D01*
X165513556Y-108993727D01*
X165507312Y-108987556D01*
X165500605Y-108981482D01*
X165493435Y-108975503D01*
X165485803Y-108969620D01*
X165477709Y-108963834D01*
X165469151Y-108958143D01*
X165460132Y-108952549D01*
X165450649Y-108947050D01*
X165440704Y-108941648D01*
X165430297Y-108936342D01*
X165419427Y-108931131D01*
X165408094Y-108926017D01*
X165396299Y-108920999D01*
X165384042Y-108916077D01*
X165371321Y-108911250D01*
X165358139Y-108906520D01*
X165344493Y-108901886D01*
X164443152Y-109242317D01*
X164443152Y-109242319D01*
X164443152Y-109242319D01*
G37*
G36*
X164698034Y-108287174D02*
X164686917Y-108286975D01*
X164675968Y-108286380D01*
X164665186Y-108285388D01*
X164654571Y-108283999D01*
X164644125Y-108282213D01*
X164633845Y-108280030D01*
X164623734Y-108277450D01*
X164613790Y-108274474D01*
X164604014Y-108271100D01*
X164594405Y-108267330D01*
X164584964Y-108263163D01*
X164575691Y-108258599D01*
X164566585Y-108253638D01*
X164557647Y-108248280D01*
X164548876Y-108242525D01*
X164540274Y-108236374D01*
X164531838Y-108229825D01*
X164523571Y-108222880D01*
X164515470Y-108215538D01*
X164507538Y-108207799D01*
X164501384Y-108201244D01*
X164495481Y-108194421D01*
X164489829Y-108187330D01*
X164484428Y-108179971D01*
X164479279Y-108172344D01*
X164474380Y-108164449D01*
X164469733Y-108156286D01*
X164465337Y-108147855D01*
X164461193Y-108139155D01*
X164457299Y-108130187D01*
X164453657Y-108120952D01*
X164450266Y-108111448D01*
X164447126Y-108101676D01*
X164444237Y-108091636D01*
X164441599Y-108081328D01*
X164439213Y-108070752D01*
X164437078Y-108059907D01*
X164435194Y-108048795D01*
X164433561Y-108037414D01*
X164432180Y-108025765D01*
X164431049Y-108013848D01*
X164430170Y-108001664D01*
X164429542Y-107989210D01*
X164429165Y-107976489D01*
X164429040Y-107963500D01*
X164429151Y-107952847D01*
X164429486Y-107942207D01*
X164430045Y-107931580D01*
X164430827Y-107920967D01*
X164431832Y-107910367D01*
X164433061Y-107899780D01*
X164434513Y-107889207D01*
X164436188Y-107878647D01*
X164438087Y-107868100D01*
X164440209Y-107857567D01*
X164442555Y-107847047D01*
X164445124Y-107836540D01*
X164447916Y-107826047D01*
X164450932Y-107815567D01*
X164454171Y-107805100D01*
X164457634Y-107794647D01*
X164461320Y-107784207D01*
X164465229Y-107773780D01*
X164469362Y-107763367D01*
X164473718Y-107752967D01*
X164478298Y-107742580D01*
X164483101Y-107732207D01*
X164488127Y-107721847D01*
X164630999Y-107721847D01*
X164625999Y-107732989D01*
X164621242Y-107744070D01*
X164616729Y-107755091D01*
X164612460Y-107766052D01*
X164608435Y-107776954D01*
X164604654Y-107787795D01*
X164601116Y-107798576D01*
X164597823Y-107809298D01*
X164594774Y-107819959D01*
X164591969Y-107830560D01*
X164589407Y-107841102D01*
X164587090Y-107851583D01*
X164585016Y-107862004D01*
X164583187Y-107872366D01*
X164581601Y-107882667D01*
X164580259Y-107892908D01*
X164579162Y-107903090D01*
X164578308Y-107913211D01*
X164577698Y-107923273D01*
X164577332Y-107933274D01*
X164577210Y-107943215D01*
X164577369Y-107956232D01*
X164577844Y-107968757D01*
X164578636Y-107980790D01*
X164579746Y-107992333D01*
X164581172Y-108003385D01*
X164582915Y-108013945D01*
X164584975Y-108024014D01*
X164587352Y-108033592D01*
X164590046Y-108042679D01*
X164593057Y-108051275D01*
X164596385Y-108059379D01*
X164600030Y-108066992D01*
X164603992Y-108074114D01*
X164608271Y-108080745D01*
X164612866Y-108086885D01*
X164617779Y-108092534D01*
X164623008Y-108097691D01*
X164628555Y-108102357D01*
X164634418Y-108106532D01*
X164640599Y-108110216D01*
X164647096Y-108113409D01*
X164653910Y-108116110D01*
X164661042Y-108118321D01*
X164668490Y-108120040D01*
X164676255Y-108121268D01*
X164684337Y-108122004D01*
X164692736Y-108122250D01*
X164701013Y-108121662D01*
X164708984Y-108119898D01*
X164716650Y-108116958D01*
X164724012Y-108112843D01*
X164731068Y-108107551D01*
X164737819Y-108101083D01*
X164744266Y-108093440D01*
X164750407Y-108084620D01*
X164756243Y-108074625D01*
X164760689Y-108065806D01*
X164765048Y-108056665D01*
X164769320Y-108047205D01*
X164773504Y-108037423D01*
X164777600Y-108027321D01*
X164781609Y-108016898D01*
X164785530Y-108006154D01*
X164789363Y-107995090D01*
X164793109Y-107983705D01*
X164796768Y-107971999D01*
X164800339Y-107959972D01*
X164803240Y-107949660D01*
X164806246Y-107939348D01*
X164809356Y-107929036D01*
X164812571Y-107918724D01*
X164815890Y-107908412D01*
X164819314Y-107898100D01*
X164822842Y-107887788D01*
X164826475Y-107877476D01*
X164830212Y-107867165D01*
X164834053Y-107856853D01*
X164837999Y-107846541D01*
X164842050Y-107836229D01*
X164846205Y-107825917D01*
X164850173Y-107816319D01*
X164854519Y-107806928D01*
X164859243Y-107797744D01*
X164864346Y-107788767D01*
X164869826Y-107779997D01*
X164875684Y-107771434D01*
X164881920Y-107763078D01*
X164888534Y-107754929D01*
X164895526Y-107746987D01*
X164902895Y-107739252D01*
X164910643Y-107731724D01*
X164918769Y-107724403D01*
X164927273Y-107717289D01*
X164936155Y-107710382D01*
X164944210Y-107704508D01*
X164952500Y-107699013D01*
X164961023Y-107693897D01*
X164969781Y-107689160D01*
X164978773Y-107684802D01*
X164987999Y-107680823D01*
X164997460Y-107677223D01*
X165007154Y-107674002D01*
X165017083Y-107671159D01*
X165027246Y-107668696D01*
X165037642Y-107666612D01*
X165048274Y-107664907D01*
X165059139Y-107663580D01*
X165070238Y-107662633D01*
X165081572Y-107662064D01*
X165093139Y-107661875D01*
X165103913Y-107662080D01*
X165114536Y-107662695D01*
X165125009Y-107663720D01*
X165135333Y-107665156D01*
X165145506Y-107667001D01*
X165155530Y-107669257D01*
X165165404Y-107671923D01*
X165175127Y-107674998D01*
X165184701Y-107678484D01*
X165194125Y-107682380D01*
X165203399Y-107686686D01*
X165212523Y-107691402D01*
X165221498Y-107696529D01*
X165230322Y-107702065D01*
X165238996Y-107708012D01*
X165247521Y-107714368D01*
X165255895Y-107721135D01*
X165264120Y-107728312D01*
X165272195Y-107735899D01*
X165280119Y-107743896D01*
X165286041Y-107750338D01*
X165291730Y-107757047D01*
X165297187Y-107764021D01*
X165302411Y-107771262D01*
X165307404Y-107778769D01*
X165312164Y-107786542D01*
X165316692Y-107794582D01*
X165320988Y-107802887D01*
X165325052Y-107811458D01*
X165328883Y-107820296D01*
X165332482Y-107829400D01*
X165335849Y-107838770D01*
X165338984Y-107848406D01*
X165341887Y-107858309D01*
X165344557Y-107868477D01*
X165346995Y-107878912D01*
X165349201Y-107889612D01*
X165351175Y-107900579D01*
X165352917Y-107911812D01*
X165354426Y-107923311D01*
X165355703Y-107935077D01*
X165356748Y-107947108D01*
X165357561Y-107959406D01*
X165358141Y-107971970D01*
X165358490Y-107984800D01*
X165358606Y-107997896D01*
X165358506Y-108009420D01*
X165358205Y-108020852D01*
X165357704Y-108032190D01*
X165357003Y-108043435D01*
X165356101Y-108054587D01*
X165354999Y-108065646D01*
X165353697Y-108076612D01*
X165352194Y-108087484D01*
X165350491Y-108098264D01*
X165348587Y-108108950D01*
X165346483Y-108119543D01*
X165344179Y-108130044D01*
X165341675Y-108140450D01*
X165338970Y-108150764D01*
X165336064Y-108160985D01*
X165332958Y-108171113D01*
X165329652Y-108181147D01*
X165326146Y-108191088D01*
X165322439Y-108200936D01*
X165318532Y-108210691D01*
X165314424Y-108220353D01*
X165310116Y-108229922D01*
X165305608Y-108239398D01*
X165300899Y-108248780D01*
X165295990Y-108258069D01*
X165146062Y-108258069D01*
X165151459Y-108248269D01*
X165156626Y-108238416D01*
X165161564Y-108228511D01*
X165166272Y-108218553D01*
X165170751Y-108208544D01*
X165175000Y-108198483D01*
X165179019Y-108188370D01*
X165182808Y-108178204D01*
X165186368Y-108167987D01*
X165189698Y-108157718D01*
X165192799Y-108147396D01*
X165195670Y-108137023D01*
X165198311Y-108126597D01*
X165200722Y-108116119D01*
X165202904Y-108105590D01*
X165204856Y-108095008D01*
X165206579Y-108084374D01*
X165208072Y-108073688D01*
X165209335Y-108062950D01*
X165210368Y-108052160D01*
X165211172Y-108041318D01*
X165211746Y-108030424D01*
X165212091Y-108019477D01*
X165212206Y-108008479D01*
X165212206Y-108004951D01*
X165212023Y-107991899D01*
X165211475Y-107979338D01*
X165210562Y-107967267D01*
X165209284Y-107955687D01*
X165207640Y-107944598D01*
X165205631Y-107933999D01*
X165203257Y-107923890D01*
X165200518Y-107914273D01*
X165197414Y-107905145D01*
X165193944Y-107896508D01*
X165190109Y-107888362D01*
X165185909Y-107880706D01*
X165181343Y-107873541D01*
X165174825Y-107864828D01*
X165167972Y-107857031D01*
X165160784Y-107850152D01*
X165153261Y-107844190D01*
X165145402Y-107839145D01*
X165137209Y-107835018D01*
X165128681Y-107831808D01*
X165119818Y-107829515D01*
X165110620Y-107828139D01*
X165101087Y-107827680D01*
X165091165Y-107828074D01*
X165081608Y-107829255D01*
X165072416Y-107831223D01*
X165063588Y-107833978D01*
X165055125Y-107837520D01*
X165047027Y-107841850D01*
X165039293Y-107846966D01*
X165031924Y-107852870D01*
X165024919Y-107859561D01*
X165018279Y-107867040D01*
X165012004Y-107875305D01*
X165006382Y-107883243D01*
X165000981Y-107891474D01*
X164995801Y-107900000D01*
X164990840Y-107908819D01*
X164986100Y-107917933D01*
X164981581Y-107927340D01*
X164977282Y-107937041D01*
X164973204Y-107947037D01*
X164969345Y-107957326D01*
X164965708Y-107967909D01*
X164962290Y-107978787D01*
X164959094Y-107989958D01*
X164956086Y-108000406D01*
X164953038Y-108010853D01*
X164949947Y-108021301D01*
X164946816Y-108031749D01*
X164943642Y-108042196D01*
X164940427Y-108052644D01*
X164937170Y-108063091D01*
X164933872Y-108073539D01*
X164930532Y-108083987D01*
X164927150Y-108094434D01*
X164923727Y-108104882D01*
X164920262Y-108115330D01*
X164916756Y-108125777D01*
X164912914Y-108135975D01*
X164908718Y-108145942D01*
X164904167Y-108155680D01*
X164899261Y-108165188D01*
X164894001Y-108174467D01*
X164888385Y-108183516D01*
X164882416Y-108192336D01*
X164876091Y-108200925D01*
X164869412Y-108209286D01*
X164862378Y-108217416D01*
X164854990Y-108225317D01*
X164847246Y-108232988D01*
X164839148Y-108240430D01*
X164831717Y-108246455D01*
X164824002Y-108252064D01*
X164816006Y-108257258D01*
X164807727Y-108262036D01*
X164799167Y-108266399D01*
X164790324Y-108270346D01*
X164781198Y-108273877D01*
X164771791Y-108276994D01*
X164762101Y-108279694D01*
X164752129Y-108281980D01*
X164741874Y-108283849D01*
X164731338Y-108285303D01*
X164720519Y-108286342D01*
X164709418Y-108286965D01*
X164698034Y-108287173D01*
X164698034Y-108287174D01*
X164698034Y-108287174D01*
G37*
G36*
X164582496Y-107533111D02*
X164443152Y-107533111D01*
X164443152Y-107376125D01*
X164174158Y-107376125D01*
X164174158Y-107211201D01*
X164443152Y-107211201D01*
X164443152Y-106971312D01*
X164582496Y-106971312D01*
X164582496Y-107211201D01*
X165106373Y-107211201D01*
X165115775Y-107210926D01*
X165124741Y-107210101D01*
X165133268Y-107208725D01*
X165141359Y-107206799D01*
X165149012Y-107204323D01*
X165156228Y-107201296D01*
X165163006Y-107197719D01*
X165169348Y-107193592D01*
X165175252Y-107188914D01*
X165180718Y-107183686D01*
X165185747Y-107177908D01*
X165190339Y-107171579D01*
X165194494Y-107164701D01*
X165198211Y-107157272D01*
X165201491Y-107149292D01*
X165204334Y-107140762D01*
X165206739Y-107131682D01*
X165208707Y-107122052D01*
X165210238Y-107111871D01*
X165211331Y-107101140D01*
X165211987Y-107089859D01*
X165212206Y-107078028D01*
X165212206Y-107076264D01*
X165211941Y-107064102D01*
X165211147Y-107052310D01*
X165209825Y-107040889D01*
X165207973Y-107029838D01*
X165205592Y-107019158D01*
X165202682Y-107008848D01*
X165199242Y-106998908D01*
X165195274Y-106989339D01*
X165190777Y-106980140D01*
X165185750Y-106971312D01*
X165333921Y-106971312D01*
X165337864Y-106981602D01*
X165341463Y-106991891D01*
X165344721Y-107002180D01*
X165347635Y-107012470D01*
X165350206Y-107022759D01*
X165352435Y-107033048D01*
X165354320Y-107043338D01*
X165355863Y-107053627D01*
X165357063Y-107063916D01*
X165357920Y-107074206D01*
X165358434Y-107084495D01*
X165358606Y-107094784D01*
X165358606Y-107099194D01*
X165358444Y-107108607D01*
X165357957Y-107118201D01*
X165357146Y-107127974D01*
X165356011Y-107137928D01*
X165354551Y-107148061D01*
X165352767Y-107158374D01*
X165350658Y-107168868D01*
X165348708Y-107177284D01*
X165346387Y-107186071D01*
X165343697Y-107195228D01*
X165340638Y-107204755D01*
X165337208Y-107214653D01*
X165333410Y-107224920D01*
X165329241Y-107235558D01*
X165324704Y-107246566D01*
X165319796Y-107257944D01*
X165315189Y-107267099D01*
X165310027Y-107275962D01*
X165304312Y-107284534D01*
X165298043Y-107292814D01*
X165291220Y-107300802D01*
X165283842Y-107308499D01*
X165275912Y-107315905D01*
X165267427Y-107323018D01*
X165258388Y-107329841D01*
X165248795Y-107336372D01*
X165238649Y-107342611D01*
X165230194Y-107347227D01*
X165221460Y-107351502D01*
X165212447Y-107355435D01*
X165203155Y-107359026D01*
X165193585Y-107362274D01*
X165183735Y-107365181D01*
X165173607Y-107367746D01*
X165163199Y-107369969D01*
X165152513Y-107371850D01*
X165141548Y-107373389D01*
X165130303Y-107374586D01*
X165118780Y-107375441D01*
X165106978Y-107375954D01*
X165094897Y-107376125D01*
X164582484Y-107376125D01*
X164582484Y-107533111D01*
X164582496Y-107533111D01*
X164582496Y-107533111D01*
G37*
G36*
X165060507Y-106804625D02*
X165058713Y-106640584D01*
X165067872Y-106640385D01*
X165076750Y-106639787D01*
X165085346Y-106638791D01*
X165093660Y-106637396D01*
X165101692Y-106635603D01*
X165109442Y-106633412D01*
X165116911Y-106630822D01*
X165124097Y-106627833D01*
X165131002Y-106624447D01*
X165137625Y-106620661D01*
X165143966Y-106616477D01*
X165150026Y-106611895D01*
X165155803Y-106606915D01*
X165161299Y-106601535D01*
X165166513Y-106595758D01*
X165171445Y-106589582D01*
X165176095Y-106583007D01*
X165180463Y-106576034D01*
X165184550Y-106568663D01*
X165188355Y-106560893D01*
X165191878Y-106552725D01*
X165195119Y-106544158D01*
X165198078Y-106535193D01*
X165200755Y-106525829D01*
X165203151Y-106516067D01*
X165205265Y-106505906D01*
X165207096Y-106495347D01*
X165208647Y-106484390D01*
X165209915Y-106473034D01*
X165210901Y-106461279D01*
X165211606Y-106449127D01*
X165212028Y-106436575D01*
X165212169Y-106423626D01*
X165212169Y-106420980D01*
X165212026Y-106408392D01*
X165211594Y-106396203D01*
X165210875Y-106384414D01*
X165209868Y-106373024D01*
X165208574Y-106362034D01*
X165206992Y-106351444D01*
X165205122Y-106341254D01*
X165202964Y-106331463D01*
X165200519Y-106322071D01*
X165197787Y-106313080D01*
X165194766Y-106304488D01*
X165191458Y-106296295D01*
X165187863Y-106288502D01*
X165183979Y-106281109D01*
X165179808Y-106274116D01*
X165175350Y-106267522D01*
X165170603Y-106261327D01*
X165165569Y-106255533D01*
X165160248Y-106250138D01*
X165154638Y-106245142D01*
X165148741Y-106240547D01*
X165142557Y-106236351D01*
X165136085Y-106232554D01*
X165129325Y-106229157D01*
X165122277Y-106226160D01*
X165114942Y-106223562D01*
X165107319Y-106221364D01*
X165099409Y-106219566D01*
X165091210Y-106218167D01*
X165082725Y-106217168D01*
X165073951Y-106216569D01*
X165064890Y-106216369D01*
X164918478Y-106216369D01*
X164917014Y-106225827D01*
X164915649Y-106235556D01*
X164914384Y-106245554D01*
X164913219Y-106255823D01*
X164912153Y-106266361D01*
X164911186Y-106277169D01*
X164910320Y-106288247D01*
X164909552Y-106299596D01*
X164908884Y-106311214D01*
X164908316Y-106323102D01*
X164907847Y-106335260D01*
X164907478Y-106347689D01*
X164907208Y-106360387D01*
X164907038Y-106373355D01*
X164907183Y-106383758D01*
X164907618Y-106394306D01*
X164908343Y-106404997D01*
X164909358Y-106415832D01*
X164910663Y-106426812D01*
X164912258Y-106437935D01*
X164914143Y-106449202D01*
X164915803Y-106459221D01*
X164917714Y-106469432D01*
X164919875Y-106479836D01*
X164922286Y-106490433D01*
X164924947Y-106501223D01*
X164927859Y-106512206D01*
X164931021Y-106523382D01*
X164934433Y-106534751D01*
X164937797Y-106544746D01*
X164941619Y-106554350D01*
X164945899Y-106563561D01*
X164950635Y-106572381D01*
X164955829Y-106580808D01*
X164961480Y-106588843D01*
X164967589Y-106596487D01*
X164974155Y-106603739D01*
X164981178Y-106610598D01*
X164989529Y-106617626D01*
X164998265Y-106623717D01*
X165007388Y-106628871D01*
X165016896Y-106633088D01*
X165026789Y-106636367D01*
X165037069Y-106638710D01*
X165047734Y-106640116D01*
X165058785Y-106640584D01*
X165058713Y-106640584D01*
X165060507Y-106804625D01*
X165049439Y-106804429D01*
X165038576Y-106803841D01*
X165027919Y-106802861D01*
X165017466Y-106801489D01*
X165007219Y-106799725D01*
X164997176Y-106797569D01*
X164987339Y-106795022D01*
X164977707Y-106792082D01*
X164968280Y-106788750D01*
X164959058Y-106785026D01*
X164950042Y-106780910D01*
X164941230Y-106776403D01*
X164932624Y-106771503D01*
X164924222Y-106766211D01*
X164916026Y-106760528D01*
X164908035Y-106754452D01*
X164900249Y-106747984D01*
X164892668Y-106741125D01*
X164885293Y-106733873D01*
X164878122Y-106726230D01*
X164871157Y-106718194D01*
X164864396Y-106709767D01*
X164857841Y-106700947D01*
X164851491Y-106691736D01*
X164846519Y-106684115D01*
X164841715Y-106676304D01*
X164837080Y-106668303D01*
X164832613Y-106660111D01*
X164828315Y-106651730D01*
X164824185Y-106643159D01*
X164820224Y-106634397D01*
X164816432Y-106625445D01*
X164812808Y-106616303D01*
X164809352Y-106606971D01*
X164806066Y-106597449D01*
X164802947Y-106587737D01*
X164799998Y-106577835D01*
X164797217Y-106567742D01*
X164794604Y-106557460D01*
X164792160Y-106546987D01*
X164789884Y-106536325D01*
X164787777Y-106525472D01*
X164785839Y-106514429D01*
X164784069Y-106503196D01*
X164782468Y-106491773D01*
X164781035Y-106480160D01*
X164779771Y-106468356D01*
X164778676Y-106456363D01*
X164777749Y-106444179D01*
X164776990Y-106431805D01*
X164776400Y-106419242D01*
X164775979Y-106406488D01*
X164775726Y-106393544D01*
X164775642Y-106380410D01*
X164775689Y-106369144D01*
X164775830Y-106357926D01*
X164776065Y-106346755D01*
X164776395Y-106335630D01*
X164776819Y-106324553D01*
X164777337Y-106313523D01*
X164777949Y-106302540D01*
X164778656Y-106291604D01*
X164779456Y-106280715D01*
X164780351Y-106269873D01*
X164781340Y-106259078D01*
X164782423Y-106248330D01*
X164783601Y-106237629D01*
X164784872Y-106226975D01*
X164786238Y-106216368D01*
X164773076Y-106217171D01*
X164760360Y-106218333D01*
X164748089Y-106219856D01*
X164736264Y-106221739D01*
X164724884Y-106223982D01*
X164713950Y-106226585D01*
X164703461Y-106229549D01*
X164693418Y-106232872D01*
X164683820Y-106236555D01*
X164674668Y-106240599D01*
X164665961Y-106245002D01*
X164657700Y-106249766D01*
X164649884Y-106254890D01*
X164642514Y-106260374D01*
X164635589Y-106266218D01*
X164629110Y-106272422D01*
X164623076Y-106278986D01*
X164618015Y-106285130D01*
X164613227Y-106291680D01*
X164608713Y-106298636D01*
X164604472Y-106305997D01*
X164600505Y-106313763D01*
X164596812Y-106321935D01*
X164593392Y-106330513D01*
X164590246Y-106339496D01*
X164587373Y-106348884D01*
X164584774Y-106358679D01*
X164582449Y-106368878D01*
X164580397Y-106379484D01*
X164578618Y-106390495D01*
X164577114Y-106401911D01*
X164575883Y-106413733D01*
X164574925Y-106425960D01*
X164574241Y-106438594D01*
X164573831Y-106451632D01*
X164573694Y-106465076D01*
X164573779Y-106475305D01*
X164574034Y-106485589D01*
X164574459Y-106495931D01*
X164575054Y-106506329D01*
X164575819Y-106516784D01*
X164576755Y-106527296D01*
X164577860Y-106537864D01*
X164579135Y-106548489D01*
X164580580Y-106559171D01*
X164582196Y-106569909D01*
X164583981Y-106580704D01*
X164585937Y-106591556D01*
X164588062Y-106602465D01*
X164590358Y-106613430D01*
X164592823Y-106624452D01*
X164595459Y-106635530D01*
X164598264Y-106646665D01*
X164601240Y-106657857D01*
X164604386Y-106669106D01*
X164607701Y-106680411D01*
X164611187Y-106691773D01*
X164614843Y-106703191D01*
X164618669Y-106714667D01*
X164477555Y-106714667D01*
X164473752Y-106704409D01*
X164470105Y-106694098D01*
X164466612Y-106683734D01*
X164463275Y-106673315D01*
X164460094Y-106662844D01*
X164457067Y-106652318D01*
X164454196Y-106641739D01*
X164451479Y-106631106D01*
X164448919Y-106620420D01*
X164446513Y-106609680D01*
X164444262Y-106598886D01*
X164442167Y-106588039D01*
X164440227Y-106577138D01*
X164438442Y-106566184D01*
X164436812Y-106555176D01*
X164435338Y-106544114D01*
X164434018Y-106532999D01*
X164432854Y-106521830D01*
X164431845Y-106510607D01*
X164430992Y-106499331D01*
X164430293Y-106488001D01*
X164429750Y-106476618D01*
X164429362Y-106465181D01*
X164429129Y-106453690D01*
X164429052Y-106442146D01*
X164429160Y-106429717D01*
X164429487Y-106417479D01*
X164430031Y-106405430D01*
X164430792Y-106393572D01*
X164431771Y-106381904D01*
X164432968Y-106370426D01*
X164434382Y-106359138D01*
X164436013Y-106348040D01*
X164437862Y-106337133D01*
X164439929Y-106326415D01*
X164442213Y-106315888D01*
X164444715Y-106305550D01*
X164447435Y-106295403D01*
X164450371Y-106285446D01*
X164453526Y-106275679D01*
X164456898Y-106266102D01*
X164460488Y-106256715D01*
X164464295Y-106247518D01*
X164468319Y-106238512D01*
X164472562Y-106229695D01*
X164477021Y-106221069D01*
X164481699Y-106212633D01*
X164486593Y-106204386D01*
X164491706Y-106196330D01*
X164497036Y-106188464D01*
X164502583Y-106180788D01*
X164508348Y-106173303D01*
X164514331Y-106166007D01*
X164520531Y-106158902D01*
X164526949Y-106151986D01*
X164533742Y-106145052D01*
X164540738Y-106138362D01*
X164547937Y-106131914D01*
X164555340Y-106125710D01*
X164562946Y-106119749D01*
X164570756Y-106114032D01*
X164578769Y-106108558D01*
X164586986Y-106103327D01*
X164595406Y-106098340D01*
X164604030Y-106093595D01*
X164612856Y-106089094D01*
X164621887Y-106084837D01*
X164631121Y-106080822D01*
X164640558Y-106077051D01*
X164650199Y-106073523D01*
X164660043Y-106070239D01*
X164670090Y-106067198D01*
X164680341Y-106064400D01*
X164690795Y-106061845D01*
X164701453Y-106059534D01*
X164712315Y-106057466D01*
X164723379Y-106055641D01*
X164734647Y-106054060D01*
X164746119Y-106052722D01*
X164757794Y-106051627D01*
X164769672Y-106050775D01*
X164781754Y-106050167D01*
X164794039Y-106049802D01*
X164806528Y-106049680D01*
X165066696Y-106049680D01*
X165076398Y-106049852D01*
X165086099Y-106050366D01*
X165095801Y-106051224D01*
X165105502Y-106052424D01*
X165115203Y-106053968D01*
X165124905Y-106055854D01*
X165133311Y-106057708D01*
X165142401Y-106060246D01*
X165152174Y-106063468D01*
X165162631Y-106067374D01*
X165173772Y-106071963D01*
X165185597Y-106077237D01*
X165198105Y-106083194D01*
X165207960Y-106088094D01*
X165217532Y-106093386D01*
X165226821Y-106099069D01*
X165235827Y-106105145D01*
X165244549Y-106111613D01*
X165252987Y-106118472D01*
X165261143Y-106125724D01*
X165269015Y-106133367D01*
X165276603Y-106141403D01*
X165282127Y-106147834D01*
X165287529Y-106154779D01*
X165292808Y-106162239D01*
X165297965Y-106170213D01*
X165302999Y-106178702D01*
X165307911Y-106187705D01*
X165312701Y-106197222D01*
X165317368Y-106207255D01*
X165321912Y-106217801D01*
X165326335Y-106228862D01*
X165330634Y-106240438D01*
X165334812Y-106252528D01*
X165337695Y-106261878D01*
X165340391Y-106271407D01*
X165342902Y-106281115D01*
X165345227Y-106291003D01*
X165347366Y-106301069D01*
X165349319Y-106311315D01*
X165351086Y-106321740D01*
X165352666Y-106332344D01*
X165354061Y-106343127D01*
X165355270Y-106354089D01*
X165356293Y-106365231D01*
X165357130Y-106376551D01*
X165357781Y-106388051D01*
X165358246Y-106399730D01*
X165358525Y-106411588D01*
X165358618Y-106423625D01*
X165358521Y-106435986D01*
X165358232Y-106448154D01*
X165357750Y-106460129D01*
X165357075Y-106471911D01*
X165356207Y-106483501D01*
X165355147Y-106494897D01*
X165353893Y-106506101D01*
X165352447Y-106517111D01*
X165350807Y-106527929D01*
X165348975Y-106538553D01*
X165346950Y-106548985D01*
X165344733Y-106559224D01*
X165342322Y-106569270D01*
X165339718Y-106579123D01*
X165336922Y-106588783D01*
X165333933Y-106598250D01*
X165329613Y-106610487D01*
X165325183Y-106622209D01*
X165320644Y-106633417D01*
X165315994Y-106644111D01*
X165311234Y-106654290D01*
X165306364Y-106663955D01*
X165301384Y-106673105D01*
X165296294Y-106681741D01*
X165291094Y-106689862D01*
X165285784Y-106697469D01*
X165280363Y-106704561D01*
X165274833Y-106711139D01*
X165268007Y-106718574D01*
X165260934Y-106725709D01*
X165253614Y-106732544D01*
X165246047Y-106739079D01*
X165238233Y-106745314D01*
X165230172Y-106751250D01*
X165221863Y-106756885D01*
X165213308Y-106762221D01*
X165204505Y-106767257D01*
X165195456Y-106771993D01*
X165184240Y-106777243D01*
X165173521Y-106781970D01*
X165163297Y-106786173D01*
X165153570Y-106789852D01*
X165144338Y-106793008D01*
X165135602Y-106795640D01*
X165127362Y-106797749D01*
X165119619Y-106799333D01*
X165109645Y-106800950D01*
X165099721Y-106802273D01*
X165089846Y-106803302D01*
X165080021Y-106804037D01*
X165070245Y-106804479D01*
X165060519Y-106804626D01*
X165060507Y-106804625D01*
X165060507Y-106804625D01*
G37*
G36*
X165238661Y-105753347D02*
X165231720Y-105759507D01*
X165224607Y-105765489D01*
X165217321Y-105771291D01*
X165209862Y-105776916D01*
X165202231Y-105782361D01*
X165194426Y-105787629D01*
X165186449Y-105792717D01*
X165178299Y-105797627D01*
X165169977Y-105802359D01*
X165161481Y-105806912D01*
X165152813Y-105811286D01*
X165143972Y-105815482D01*
X165134958Y-105819500D01*
X165125771Y-105823338D01*
X165116412Y-105826999D01*
X165106880Y-105830480D01*
X165097175Y-105833783D01*
X165087297Y-105836908D01*
X165077246Y-105839854D01*
X165067023Y-105842622D01*
X165056627Y-105845211D01*
X165046058Y-105847621D01*
X165035316Y-105849853D01*
X165024401Y-105851906D01*
X165013314Y-105853781D01*
X165002054Y-105855477D01*
X164990621Y-105856995D01*
X164979015Y-105858334D01*
X164967237Y-105859494D01*
X164955286Y-105860476D01*
X164943162Y-105861280D01*
X164930865Y-105861905D01*
X164918395Y-105862351D01*
X164905753Y-105862619D01*
X164892938Y-105862708D01*
X164880123Y-105862619D01*
X164867483Y-105862351D01*
X164855017Y-105861905D01*
X164842725Y-105861280D01*
X164830608Y-105860476D01*
X164818665Y-105859494D01*
X164806896Y-105858334D01*
X164795301Y-105856995D01*
X164783880Y-105855477D01*
X164772634Y-105853781D01*
X164761562Y-105851906D01*
X164750664Y-105849853D01*
X164739941Y-105847621D01*
X164729391Y-105845211D01*
X164719016Y-105842622D01*
X164708815Y-105839854D01*
X164698789Y-105836908D01*
X164688936Y-105833783D01*
X164679258Y-105830480D01*
X164669754Y-105826999D01*
X164660425Y-105823338D01*
X164651269Y-105819500D01*
X164642288Y-105815482D01*
X164633481Y-105811286D01*
X164624849Y-105806912D01*
X164616390Y-105802359D01*
X164608106Y-105797627D01*
X164599996Y-105792717D01*
X164592061Y-105787629D01*
X164584299Y-105782361D01*
X164576712Y-105776916D01*
X164569299Y-105771291D01*
X164562060Y-105765489D01*
X164554996Y-105759507D01*
X164548106Y-105753347D01*
X164540999Y-105746631D01*
X164534111Y-105739738D01*
X164527441Y-105732669D01*
X164520991Y-105725423D01*
X164514759Y-105718001D01*
X164508745Y-105710402D01*
X164502950Y-105702626D01*
X164497374Y-105694674D01*
X164492017Y-105686545D01*
X164486878Y-105678240D01*
X164481958Y-105669758D01*
X164477256Y-105661100D01*
X164472774Y-105652265D01*
X164468510Y-105643254D01*
X164464464Y-105634066D01*
X164460638Y-105624702D01*
X164457029Y-105615161D01*
X164453640Y-105605443D01*
X164450469Y-105595549D01*
X164447517Y-105585478D01*
X164444784Y-105575231D01*
X164442269Y-105564807D01*
X164439973Y-105554207D01*
X164437896Y-105543430D01*
X164436037Y-105532476D01*
X164434397Y-105521346D01*
X164432976Y-105510040D01*
X164431773Y-105498557D01*
X164430789Y-105486897D01*
X164430024Y-105475061D01*
X164429477Y-105463048D01*
X164429149Y-105450859D01*
X164429040Y-105438493D01*
X164429120Y-105427502D01*
X164429361Y-105416542D01*
X164429764Y-105405613D01*
X164430327Y-105394715D01*
X164431051Y-105383848D01*
X164431935Y-105373012D01*
X164432981Y-105362207D01*
X164434188Y-105351433D01*
X164435555Y-105340690D01*
X164437083Y-105329979D01*
X164438772Y-105319298D01*
X164440623Y-105308648D01*
X164442633Y-105298030D01*
X164444805Y-105287442D01*
X164447138Y-105276885D01*
X164449632Y-105266360D01*
X164452286Y-105255866D01*
X164455101Y-105245402D01*
X164458077Y-105234970D01*
X164461214Y-105224569D01*
X164464512Y-105214198D01*
X164467971Y-105203859D01*
X164471591Y-105193551D01*
X164475371Y-105183274D01*
X164479313Y-105173028D01*
X164636298Y-105173028D01*
X164631476Y-105183248D01*
X164626860Y-105193478D01*
X164622449Y-105203717D01*
X164618243Y-105213965D01*
X164614242Y-105224222D01*
X164610447Y-105234488D01*
X164606856Y-105244764D01*
X164603471Y-105255049D01*
X164600291Y-105265342D01*
X164597316Y-105275646D01*
X164594546Y-105285958D01*
X164591982Y-105296279D01*
X164589623Y-105306610D01*
X164587468Y-105316950D01*
X164585519Y-105327299D01*
X164583775Y-105337657D01*
X164582237Y-105348025D01*
X164580903Y-105358401D01*
X164579775Y-105368787D01*
X164578851Y-105379182D01*
X164578133Y-105389586D01*
X164577620Y-105400000D01*
X164577313Y-105410422D01*
X164577210Y-105420854D01*
X164577210Y-105424382D01*
X164577371Y-105436683D01*
X164577854Y-105448715D01*
X164578658Y-105460478D01*
X164579785Y-105471972D01*
X164581233Y-105483197D01*
X164583004Y-105494153D01*
X164585096Y-105504840D01*
X164587510Y-105515258D01*
X164590246Y-105525407D01*
X164593303Y-105535287D01*
X164596683Y-105544898D01*
X164600385Y-105554240D01*
X164604408Y-105563313D01*
X164608753Y-105572117D01*
X164613420Y-105580652D01*
X164618409Y-105588918D01*
X164623720Y-105596915D01*
X164629353Y-105604643D01*
X164635307Y-105612102D01*
X164641584Y-105619292D01*
X164646653Y-105624615D01*
X164652090Y-105629729D01*
X164657895Y-105634635D01*
X164664067Y-105639331D01*
X164670608Y-105643819D01*
X164677516Y-105648099D01*
X164684793Y-105652169D01*
X164692437Y-105656031D01*
X164700449Y-105659684D01*
X164708829Y-105663128D01*
X164717576Y-105666364D01*
X164726692Y-105669391D01*
X164736176Y-105672209D01*
X164746027Y-105674818D01*
X164756246Y-105677218D01*
X164766833Y-105679410D01*
X164777788Y-105681393D01*
X164789111Y-105683168D01*
X164800802Y-105684733D01*
X164812861Y-105686090D01*
X164825287Y-105687238D01*
X164838082Y-105688178D01*
X164851244Y-105688908D01*
X164864774Y-105689430D01*
X164878672Y-105689743D01*
X164892938Y-105689848D01*
X164906078Y-105689757D01*
X164918920Y-105689487D01*
X164931464Y-105689036D01*
X164943710Y-105688405D01*
X164955658Y-105687594D01*
X164967308Y-105686602D01*
X164978660Y-105685430D01*
X164989714Y-105684078D01*
X165000470Y-105682545D01*
X165010928Y-105680832D01*
X165021088Y-105678939D01*
X165030950Y-105676865D01*
X165040515Y-105674611D01*
X165049781Y-105672177D01*
X165058749Y-105669563D01*
X165070338Y-105665554D01*
X165081374Y-105661224D01*
X165091855Y-105656574D01*
X165101783Y-105651603D01*
X165111157Y-105646312D01*
X165119977Y-105640699D01*
X165128242Y-105634766D01*
X165135954Y-105628512D01*
X165143113Y-105621938D01*
X165149717Y-105615043D01*
X165155767Y-105607827D01*
X165162560Y-105598615D01*
X165168830Y-105589404D01*
X165174577Y-105580192D01*
X165179802Y-105570981D01*
X165184505Y-105561770D01*
X165188686Y-105552558D01*
X165192344Y-105543347D01*
X165195480Y-105534135D01*
X165198093Y-105524924D01*
X165200106Y-105516298D01*
X165201908Y-105507356D01*
X165203497Y-105498095D01*
X165204875Y-105488517D01*
X165206040Y-105478622D01*
X165206994Y-105468409D01*
X165207736Y-105457879D01*
X165208266Y-105447031D01*
X165208583Y-105435865D01*
X165208689Y-105424382D01*
X165208590Y-105413592D01*
X165208291Y-105402830D01*
X165207794Y-105392095D01*
X165207097Y-105381387D01*
X165206201Y-105370708D01*
X165205106Y-105360055D01*
X165203812Y-105349431D01*
X165202319Y-105338834D01*
X165200627Y-105328264D01*
X165198736Y-105317722D01*
X165196646Y-105307208D01*
X165194357Y-105296721D01*
X165191869Y-105286261D01*
X165189181Y-105275830D01*
X165186295Y-105265426D01*
X165183210Y-105255049D01*
X165179925Y-105244700D01*
X165176442Y-105234378D01*
X165172759Y-105224084D01*
X165168877Y-105213818D01*
X165164796Y-105203579D01*
X165160517Y-105193368D01*
X165156038Y-105183184D01*
X165151360Y-105173028D01*
X165308345Y-105173028D01*
X165312286Y-105183274D01*
X165316067Y-105193551D01*
X165319686Y-105203859D01*
X165323145Y-105214199D01*
X165326443Y-105224569D01*
X165329580Y-105234970D01*
X165332556Y-105245403D01*
X165335372Y-105255866D01*
X165338026Y-105266360D01*
X165340520Y-105276886D01*
X165342852Y-105287442D01*
X165345024Y-105298030D01*
X165347035Y-105308649D01*
X165348885Y-105319298D01*
X165350574Y-105329979D01*
X165352102Y-105340691D01*
X165353470Y-105351433D01*
X165354676Y-105362207D01*
X165355722Y-105373012D01*
X165356607Y-105383848D01*
X165357331Y-105394715D01*
X165357894Y-105405613D01*
X165358296Y-105416542D01*
X165358537Y-105427502D01*
X165358618Y-105438493D01*
X165358508Y-105450859D01*
X165358177Y-105463049D01*
X165357627Y-105475061D01*
X165356856Y-105486897D01*
X165355864Y-105498557D01*
X165354653Y-105510040D01*
X165353221Y-105521347D01*
X165351569Y-105532477D01*
X165349696Y-105543430D01*
X165347604Y-105554207D01*
X165345291Y-105564807D01*
X165342757Y-105575231D01*
X165340004Y-105585478D01*
X165337030Y-105595549D01*
X165333836Y-105605443D01*
X165330421Y-105615161D01*
X165326787Y-105624702D01*
X165322932Y-105634066D01*
X165318856Y-105643254D01*
X165314561Y-105652266D01*
X165310045Y-105661101D01*
X165305309Y-105669759D01*
X165300352Y-105678241D01*
X165295176Y-105686546D01*
X165289779Y-105694674D01*
X165284162Y-105702626D01*
X165278324Y-105710402D01*
X165272266Y-105718001D01*
X165265988Y-105725423D01*
X165259490Y-105732669D01*
X165252771Y-105739739D01*
X165245832Y-105746631D01*
X165238673Y-105753348D01*
X165238661Y-105753347D01*
X165238661Y-105753347D01*
G37*
G36*
X165344493Y-104976354D02*
X164100078Y-104976354D01*
X164100078Y-104811430D01*
X164820629Y-104811430D01*
X164443152Y-104421611D01*
X164443152Y-104197597D01*
X164818858Y-104589180D01*
X165344493Y-104145562D01*
X165344493Y-104365167D01*
X164925570Y-104699423D01*
X165034052Y-104811430D01*
X165344493Y-104811430D01*
X165344493Y-104976354D01*
X165344493Y-104976354D01*
G37*
D11*
X158526667Y-91178571D02*
X158193333Y-91178571D01*
X158193333Y-91702381D02*
X158193333Y-90702381D01*
X158669524Y-90702381D01*
X158955238Y-90702381D02*
X159574286Y-90702381D01*
X159240952Y-91083333D01*
X159383810Y-91083333D01*
X159479048Y-91130952D01*
X159526667Y-91178571D01*
X159574286Y-91273810D01*
X159574286Y-91511905D01*
X159526667Y-91607143D01*
X159479048Y-91654762D01*
X159383810Y-91702381D01*
X159098095Y-91702381D01*
X159002857Y-91654762D01*
X158955238Y-91607143D01*
X132976667Y-95328571D02*
X132643333Y-95328571D01*
X132643333Y-95852381D02*
X132643333Y-94852381D01*
X133119524Y-94852381D01*
X133452857Y-94947619D02*
X133500476Y-94900000D01*
X133595714Y-94852381D01*
X133833810Y-94852381D01*
X133929048Y-94900000D01*
X133976667Y-94947619D01*
X134024286Y-95042857D01*
X134024286Y-95138095D01*
X133976667Y-95280952D01*
X133405238Y-95852381D01*
X134024286Y-95852381D01*
X153733334Y-112087143D02*
X153685715Y-112134762D01*
X153542858Y-112182381D01*
X153447620Y-112182381D01*
X153304762Y-112134762D01*
X153209524Y-112039524D01*
X153161905Y-111944286D01*
X153114286Y-111753810D01*
X153114286Y-111610952D01*
X153161905Y-111420476D01*
X153209524Y-111325238D01*
X153304762Y-111230000D01*
X153447620Y-111182381D01*
X153542858Y-111182381D01*
X153685715Y-111230000D01*
X153733334Y-111277619D01*
X154685715Y-112182381D02*
X154114286Y-112182381D01*
X154400000Y-112182381D02*
X154400000Y-111182381D01*
X154304762Y-111325238D01*
X154209524Y-111420476D01*
X154114286Y-111468095D01*
X152761905Y-119952381D02*
X152761905Y-118952381D01*
X153000000Y-118952381D01*
X153142858Y-119000000D01*
X153238096Y-119095238D01*
X153285715Y-119190476D01*
X153333334Y-119380952D01*
X153333334Y-119523810D01*
X153285715Y-119714286D01*
X153238096Y-119809524D01*
X153142858Y-119904762D01*
X153000000Y-119952381D01*
X152761905Y-119952381D01*
X154285715Y-119952381D02*
X153714286Y-119952381D01*
X154000000Y-119952381D02*
X154000000Y-118952381D01*
X153904762Y-119095238D01*
X153809524Y-119190476D01*
X153714286Y-119238095D01*
X135064762Y-96157619D02*
X134969524Y-96110000D01*
X134874286Y-96014762D01*
X134731429Y-95871905D01*
X134636190Y-95824286D01*
X134540952Y-95824286D01*
X134588571Y-96062381D02*
X134493333Y-96014762D01*
X134398095Y-95919524D01*
X134350476Y-95729048D01*
X134350476Y-95395714D01*
X134398095Y-95205238D01*
X134493333Y-95110000D01*
X134588571Y-95062381D01*
X134779048Y-95062381D01*
X134874286Y-95110000D01*
X134969524Y-95205238D01*
X135017143Y-95395714D01*
X135017143Y-95729048D01*
X134969524Y-95919524D01*
X134874286Y-96014762D01*
X134779048Y-96062381D01*
X134588571Y-96062381D01*
X135969524Y-96062381D02*
X135398095Y-96062381D01*
X135683809Y-96062381D02*
X135683809Y-95062381D01*
X135588571Y-95205238D01*
X135493333Y-95300476D01*
X135398095Y-95348095D01*
X133066667Y-120648571D02*
X132733333Y-120648571D01*
X132733333Y-121172381D02*
X132733333Y-120172381D01*
X133209524Y-120172381D01*
X134114286Y-121172381D02*
X133542857Y-121172381D01*
X133828571Y-121172381D02*
X133828571Y-120172381D01*
X133733333Y-120315238D01*
X133638095Y-120410476D01*
X133542857Y-120458095D01*
X156938095Y-117902381D02*
X156938095Y-118711905D01*
X156985714Y-118807143D01*
X157033333Y-118854762D01*
X157128571Y-118902381D01*
X157319048Y-118902381D01*
X157414286Y-118854762D01*
X157461905Y-118807143D01*
X157509524Y-118711905D01*
X157509524Y-117902381D01*
X158509524Y-118902381D02*
X157938095Y-118902381D01*
X158223809Y-118902381D02*
X158223809Y-117902381D01*
X158128571Y-118045238D01*
X158033333Y-118140476D01*
X157938095Y-118188095D01*
M02*
