M48
INCH,TZ
T1C0.013
T2C0.013
T3C0.040
T4C0.118
%
G90
G05
T1
X54657Y-36654
X55000Y-37705
X59110Y-36941
X60157Y-46614
X60198Y-36776
X60500Y-36953
X60547Y-42220
X60567Y-40933
X60591Y-47402
X60630Y-48425
X60758Y-36272
X60789Y-37753
X60846Y-36591
X60946Y-47402
X60946Y-37362
X61169Y-41232
X61284Y-46232
X61713Y-36299
X61732Y-46299
X61929Y-37402
X61929Y-38228
X62087Y-47913
X62165Y-46535
X62217Y-46015
X62559Y-46063
X62638Y-38642
X62645Y-45615
X62972Y-36772
X63111Y-38155
X63189Y-37579
X63189Y-47795
X63279Y-37134
X63976Y-37520
X64154Y-38524
X64315Y-37720
T2
X60732Y-45402
X60852Y-40069
X60866Y-44973
X60895Y-45689
X60949Y-39425
X60990Y-40513
X61001Y-44544
X61008Y-39779
X61030Y-45260
X61059Y-39098
X61135Y-44115
X61164Y-44830
X61188Y-40216
X61269Y-43686
X61298Y-44401
X61299Y-40664
X61404Y-41783
X61404Y-43257
X61433Y-43972
X61507Y-39155
X61538Y-42212
X61538Y-42827
X61567Y-41497
X61567Y-43543
X61701Y-41926
X61701Y-43114
X61799Y-38941
X61836Y-42355
X61836Y-42685
X61979Y-39251
X62305Y-38998
X62305Y-38998
X63404Y-38998
X63404Y-46042
X63794Y-39312
X63794Y-45727
X63873Y-42355
X63873Y-42685
X63981Y-39042
X63981Y-45998
X64008Y-41926
X64008Y-43114
X64142Y-41497
X64142Y-43543
X64171Y-42212
X64171Y-42827
X64239Y-39249
X64239Y-45791
X64276Y-41067
X64276Y-43972
X64305Y-41783
X64305Y-43257
X64411Y-40638
X64411Y-44401
X64426Y-38978
X64426Y-46061
X64440Y-41354
X64440Y-43686
X64545Y-40209
X64545Y-44830
X64574Y-40925
X64574Y-44115
X64679Y-39780
X64679Y-45260
X64708Y-40496
X64708Y-44544
X64814Y-39351
X64814Y-45689
X64843Y-40066
X64843Y-44973
X64977Y-39637
X64977Y-45402
T3
X55433Y-36244
X55433Y-37244
X56370Y-47673
X57370Y-47673
X58370Y-47673
X58390Y-38772
X58390Y-39772
X58390Y-40772
X58390Y-41772
X58390Y-42772
X58390Y-43772
X59370Y-47673
X59390Y-38772
X59390Y-39772
X59390Y-40772
X59390Y-41772
X59390Y-42772
X59390Y-43772
T4
X52264Y-36516
X52264Y-48524
X64272Y-36516
X64272Y-48524
T0
M30
