G04 #@! TF.FileFunction,Legend,Top*
%FSLAX46Y46*%
G04 Gerber Fmt 4.6, Leading zero omitted, Abs format (unit mm)*
G04 Created by KiCad (PCBNEW 4.0.1-stable) date Tuesday, March 08, 2016 'PMt' 12:04:07 PM*
%MOMM*%
G01*
G04 APERTURE LIST*
%ADD10C,0.100000*%
%ADD11C,0.150000*%
%ADD12C,0.300000*%
%ADD13C,0.200000*%
%ADD14C,0.010000*%
G04 APERTURE END LIST*
D10*
D11*
X151562857Y-94751429D02*
X152324762Y-94751429D01*
X151943810Y-95132381D02*
X151943810Y-94370476D01*
X153277143Y-94132381D02*
X152800952Y-94132381D01*
X152753333Y-94608571D01*
X152800952Y-94560952D01*
X152896190Y-94513333D01*
X153134286Y-94513333D01*
X153229524Y-94560952D01*
X153277143Y-94608571D01*
X153324762Y-94703810D01*
X153324762Y-94941905D01*
X153277143Y-95037143D01*
X153229524Y-95084762D01*
X153134286Y-95132381D01*
X152896190Y-95132381D01*
X152800952Y-95084762D01*
X152753333Y-95037143D01*
D12*
X152762857Y-91410000D02*
X152620000Y-91338571D01*
X152405714Y-91338571D01*
X152191429Y-91410000D01*
X152048571Y-91552857D01*
X151977143Y-91695714D01*
X151905714Y-91981429D01*
X151905714Y-92195714D01*
X151977143Y-92481429D01*
X152048571Y-92624286D01*
X152191429Y-92767143D01*
X152405714Y-92838571D01*
X152548571Y-92838571D01*
X152762857Y-92767143D01*
X152834286Y-92695714D01*
X152834286Y-92195714D01*
X152548571Y-92195714D01*
D11*
X142120000Y-123536667D02*
X142596191Y-123536667D01*
X142024762Y-123822381D02*
X142358095Y-122822381D01*
X142691429Y-123822381D01*
X143024762Y-123822381D02*
X143024762Y-122822381D01*
X143500952Y-123822381D02*
X143500952Y-122822381D01*
X144072381Y-123822381D01*
X144072381Y-122822381D01*
X145359048Y-123161429D02*
X146120953Y-123161429D01*
X147849048Y-123161429D02*
X148610953Y-123161429D01*
X148230001Y-123542381D02*
X148230001Y-122780476D01*
X149618571Y-123584762D02*
X149761428Y-123632381D01*
X149999524Y-123632381D01*
X150094762Y-123584762D01*
X150142381Y-123537143D01*
X150190000Y-123441905D01*
X150190000Y-123346667D01*
X150142381Y-123251429D01*
X150094762Y-123203810D01*
X149999524Y-123156190D01*
X149809047Y-123108571D01*
X149713809Y-123060952D01*
X149666190Y-123013333D01*
X149618571Y-122918095D01*
X149618571Y-122822857D01*
X149666190Y-122727619D01*
X149713809Y-122680000D01*
X149809047Y-122632381D01*
X150047143Y-122632381D01*
X150190000Y-122680000D01*
X150618571Y-123537143D02*
X150666190Y-123584762D01*
X150618571Y-123632381D01*
X150570952Y-123584762D01*
X150618571Y-123537143D01*
X150618571Y-123632381D01*
X151094761Y-123632381D02*
X151094761Y-122632381D01*
X151475714Y-122632381D01*
X151570952Y-122680000D01*
X151618571Y-122727619D01*
X151666190Y-122822857D01*
X151666190Y-122965714D01*
X151618571Y-123060952D01*
X151570952Y-123108571D01*
X151475714Y-123156190D01*
X151094761Y-123156190D01*
X152237618Y-123632381D02*
X152142380Y-123584762D01*
X152094761Y-123537143D01*
X152047142Y-123441905D01*
X152047142Y-123156190D01*
X152094761Y-123060952D01*
X152142380Y-123013333D01*
X152237618Y-122965714D01*
X152380476Y-122965714D01*
X152475714Y-123013333D01*
X152523333Y-123060952D01*
X152570952Y-123156190D01*
X152570952Y-123441905D01*
X152523333Y-123537143D01*
X152475714Y-123584762D01*
X152380476Y-123632381D01*
X152237618Y-123632381D01*
X152999523Y-123632381D02*
X152999523Y-122965714D01*
X152999523Y-123156190D02*
X153047142Y-123060952D01*
X153094761Y-123013333D01*
X153189999Y-122965714D01*
X153285238Y-122965714D01*
X153475714Y-122965714D02*
X153856666Y-122965714D01*
X153618571Y-122632381D02*
X153618571Y-123489524D01*
X153666190Y-123584762D01*
X153761428Y-123632381D01*
X153856666Y-123632381D01*
D13*
X139900237Y-125375952D02*
X139781190Y-125435476D01*
X139543094Y-125435476D01*
X139424047Y-125375952D01*
X139364523Y-125316429D01*
X139304999Y-125197381D01*
X139304999Y-124840238D01*
X139364523Y-124721190D01*
X139424047Y-124661667D01*
X139543094Y-124602143D01*
X139781190Y-124602143D01*
X139900237Y-124661667D01*
X140435952Y-125435476D02*
X140435952Y-124185476D01*
X140555000Y-124959286D02*
X140912143Y-125435476D01*
X140912143Y-124602143D02*
X140435952Y-125078333D01*
X141983571Y-125435476D02*
X141983571Y-124185476D01*
X141983571Y-125375952D02*
X141864524Y-125435476D01*
X141626428Y-125435476D01*
X141507381Y-125375952D01*
X141447857Y-125316429D01*
X141388333Y-125197381D01*
X141388333Y-124840238D01*
X141447857Y-124721190D01*
X141507381Y-124661667D01*
X141626428Y-124602143D01*
X141864524Y-124602143D01*
X141983571Y-124661667D01*
X142578809Y-125316429D02*
X142638333Y-125375952D01*
X142578809Y-125435476D01*
X142519285Y-125375952D01*
X142578809Y-125316429D01*
X142578809Y-125435476D01*
X142995476Y-124602143D02*
X143471666Y-124602143D01*
X143174047Y-124185476D02*
X143174047Y-125256905D01*
X143233571Y-125375952D01*
X143352618Y-125435476D01*
X143471666Y-125435476D01*
X144364524Y-125375952D02*
X144245476Y-125435476D01*
X144007381Y-125435476D01*
X143888333Y-125375952D01*
X143828809Y-125256905D01*
X143828809Y-124780714D01*
X143888333Y-124661667D01*
X144007381Y-124602143D01*
X144245476Y-124602143D01*
X144364524Y-124661667D01*
X144424047Y-124780714D01*
X144424047Y-124899762D01*
X143828809Y-125018810D01*
X145495476Y-125375952D02*
X145376429Y-125435476D01*
X145138333Y-125435476D01*
X145019286Y-125375952D01*
X144959762Y-125316429D01*
X144900238Y-125197381D01*
X144900238Y-124840238D01*
X144959762Y-124721190D01*
X145019286Y-124661667D01*
X145138333Y-124602143D01*
X145376429Y-124602143D01*
X145495476Y-124661667D01*
X146031191Y-125435476D02*
X146031191Y-124185476D01*
X146566905Y-125435476D02*
X146566905Y-124780714D01*
X146507382Y-124661667D01*
X146388334Y-124602143D01*
X146209762Y-124602143D01*
X146090715Y-124661667D01*
X146031191Y-124721190D01*
X148055000Y-124125952D02*
X146983572Y-125733095D01*
X148352619Y-125435476D02*
X149007381Y-124602143D01*
X148352619Y-124602143D02*
X149007381Y-125435476D01*
X150019286Y-124602143D02*
X150019286Y-125435476D01*
X149721667Y-124125952D02*
X149424048Y-125018810D01*
X150197858Y-125018810D01*
X150674048Y-125435476D02*
X150674048Y-124602143D01*
X150674048Y-124840238D02*
X150733572Y-124721190D01*
X150793096Y-124661667D01*
X150912143Y-124602143D01*
X151031191Y-124602143D01*
X151447858Y-124959286D02*
X152400239Y-124959286D01*
X152935953Y-125375952D02*
X153055001Y-125435476D01*
X153293096Y-125435476D01*
X153412144Y-125375952D01*
X153471668Y-125256905D01*
X153471668Y-125197381D01*
X153412144Y-125078333D01*
X153293096Y-125018810D01*
X153114525Y-125018810D01*
X152995477Y-124959286D01*
X152935953Y-124840238D01*
X152935953Y-124780714D01*
X152995477Y-124661667D01*
X153114525Y-124602143D01*
X153293096Y-124602143D01*
X153412144Y-124661667D01*
X154007382Y-125435476D02*
X154007382Y-124185476D01*
X154007382Y-124661667D02*
X154126430Y-124602143D01*
X154364525Y-124602143D01*
X154483573Y-124661667D01*
X154543096Y-124721190D01*
X154602620Y-124840238D01*
X154602620Y-125197381D01*
X154543096Y-125316429D01*
X154483573Y-125375952D01*
X154364525Y-125435476D01*
X154126430Y-125435476D01*
X154007382Y-125375952D01*
X156031191Y-124125952D02*
X154959763Y-125733095D01*
X156328810Y-124602143D02*
X156626429Y-125435476D01*
X156924049Y-124602143D01*
X157281191Y-124185476D02*
X158055001Y-124185476D01*
X157638334Y-124661667D01*
X157816906Y-124661667D01*
X157935953Y-124721190D01*
X157995477Y-124780714D01*
X158055001Y-124899762D01*
X158055001Y-125197381D01*
X157995477Y-125316429D01*
X157935953Y-125375952D01*
X157816906Y-125435476D01*
X157459763Y-125435476D01*
X157340715Y-125375952D01*
X157281191Y-125316429D01*
D11*
X145901429Y-91028571D02*
X146044286Y-91076190D01*
X146091905Y-91123810D01*
X146139524Y-91219048D01*
X146139524Y-91361905D01*
X146091905Y-91457143D01*
X146044286Y-91504762D01*
X145949048Y-91552381D01*
X145568095Y-91552381D01*
X145568095Y-90552381D01*
X145901429Y-90552381D01*
X145996667Y-90600000D01*
X146044286Y-90647619D01*
X146091905Y-90742857D01*
X146091905Y-90838095D01*
X146044286Y-90933333D01*
X145996667Y-90980952D01*
X145901429Y-91028571D01*
X145568095Y-91028571D01*
X146996667Y-90885714D02*
X146996667Y-91552381D01*
X146568095Y-90885714D02*
X146568095Y-91409524D01*
X146615714Y-91504762D01*
X146710952Y-91552381D01*
X146853810Y-91552381D01*
X146949048Y-91504762D01*
X146996667Y-91457143D01*
X147377619Y-90885714D02*
X147901429Y-90885714D01*
X147377619Y-91552381D01*
X147901429Y-91552381D01*
X148187143Y-90885714D02*
X148710953Y-90885714D01*
X148187143Y-91552381D01*
X148710953Y-91552381D01*
X149472858Y-91504762D02*
X149377620Y-91552381D01*
X149187143Y-91552381D01*
X149091905Y-91504762D01*
X149044286Y-91409524D01*
X149044286Y-91028571D01*
X149091905Y-90933333D01*
X149187143Y-90885714D01*
X149377620Y-90885714D01*
X149472858Y-90933333D01*
X149520477Y-91028571D01*
X149520477Y-91123810D01*
X149044286Y-91219048D01*
X149949048Y-91552381D02*
X149949048Y-90885714D01*
X149949048Y-91076190D02*
X149996667Y-90980952D01*
X150044286Y-90933333D01*
X150139524Y-90885714D01*
X150234763Y-90885714D01*
X142662857Y-94751429D02*
X143424762Y-94751429D01*
X143043810Y-95132381D02*
X143043810Y-94370476D01*
X144377143Y-94132381D02*
X143900952Y-94132381D01*
X143853333Y-94608571D01*
X143900952Y-94560952D01*
X143996190Y-94513333D01*
X144234286Y-94513333D01*
X144329524Y-94560952D01*
X144377143Y-94608571D01*
X144424762Y-94703810D01*
X144424762Y-94941905D01*
X144377143Y-95037143D01*
X144329524Y-95084762D01*
X144234286Y-95132381D01*
X143996190Y-95132381D01*
X143900952Y-95084762D01*
X143853333Y-95037143D01*
D12*
X143962857Y-91410000D02*
X143820000Y-91338571D01*
X143605714Y-91338571D01*
X143391429Y-91410000D01*
X143248571Y-91552857D01*
X143177143Y-91695714D01*
X143105714Y-91981429D01*
X143105714Y-92195714D01*
X143177143Y-92481429D01*
X143248571Y-92624286D01*
X143391429Y-92767143D01*
X143605714Y-92838571D01*
X143748571Y-92838571D01*
X143962857Y-92767143D01*
X144034286Y-92695714D01*
X144034286Y-92195714D01*
X143748571Y-92195714D01*
D11*
X159057144Y-117815714D02*
X159057144Y-118482381D01*
X158819048Y-117434762D02*
X158580953Y-118149048D01*
X159200001Y-118149048D01*
X159580953Y-118482381D02*
X159580953Y-117815714D01*
X159580953Y-117910952D02*
X159628572Y-117863333D01*
X159723810Y-117815714D01*
X159866668Y-117815714D01*
X159961906Y-117863333D01*
X160009525Y-117958571D01*
X160009525Y-118482381D01*
X160009525Y-117958571D02*
X160057144Y-117863333D01*
X160152382Y-117815714D01*
X160295239Y-117815714D01*
X160390477Y-117863333D01*
X160438096Y-117958571D01*
X160438096Y-118482381D01*
X160914286Y-118482381D02*
X160914286Y-117815714D01*
X160914286Y-117910952D02*
X160961905Y-117863333D01*
X161057143Y-117815714D01*
X161200001Y-117815714D01*
X161295239Y-117863333D01*
X161342858Y-117958571D01*
X161342858Y-118482381D01*
X161342858Y-117958571D02*
X161390477Y-117863333D01*
X161485715Y-117815714D01*
X161628572Y-117815714D01*
X161723810Y-117863333D01*
X161771429Y-117958571D01*
X161771429Y-118482381D01*
X159803553Y-123700000D02*
G75*
G03X159803553Y-123700000I-353553J0D01*
G01*
X159109620Y-94920560D02*
X159678580Y-94920560D01*
X159678580Y-94920560D02*
X159678580Y-94509080D01*
X164947700Y-98920560D02*
X165516660Y-98920560D01*
X165516660Y-98920560D02*
X165516660Y-98509080D01*
X159259620Y-97370560D02*
X159828580Y-97370560D01*
X159828580Y-97370560D02*
X159828580Y-96959080D01*
X152785000Y-106650000D02*
X152785000Y-108650000D01*
X154835000Y-108650000D02*
X154835000Y-106650000D01*
X154200000Y-121200000D02*
X152650000Y-121200000D01*
X154200000Y-122400000D02*
X152650000Y-122400000D01*
X144450000Y-122360000D02*
X152070000Y-122360000D01*
X144450000Y-119820000D02*
X152070000Y-119820000D01*
X141630000Y-119540000D02*
X143180000Y-119540000D01*
X152070000Y-122360000D02*
X152070000Y-119820000D01*
X144450000Y-119820000D02*
X144450000Y-122360000D01*
X143180000Y-122640000D02*
X141630000Y-122640000D01*
X141630000Y-122640000D02*
X141630000Y-119540000D01*
X149326000Y-98734000D02*
X149834000Y-98734000D01*
X149326000Y-98226000D02*
X149834000Y-98226000D01*
X149326000Y-100766000D02*
X149834000Y-100766000D01*
X149326000Y-101274000D02*
X149834000Y-101274000D01*
X149326000Y-103306000D02*
X149834000Y-103306000D01*
X149326000Y-103814000D02*
X149834000Y-103814000D01*
X149326000Y-111434000D02*
X149834000Y-111434000D01*
X149326000Y-110926000D02*
X149834000Y-110926000D01*
X149326000Y-105846000D02*
X149834000Y-105846000D01*
X149326000Y-106354000D02*
X149834000Y-106354000D01*
X149326000Y-108386000D02*
X149834000Y-108386000D01*
X149326000Y-108894000D02*
X149834000Y-108894000D01*
X146786000Y-98226000D02*
X147294000Y-98226000D01*
X146786000Y-98734000D02*
X147294000Y-98734000D01*
X146786000Y-100766000D02*
X147294000Y-100766000D01*
X146786000Y-101274000D02*
X147294000Y-101274000D01*
X146786000Y-111434000D02*
X147294000Y-111434000D01*
X146786000Y-110926000D02*
X147294000Y-110926000D01*
X146786000Y-108894000D02*
X147294000Y-108894000D01*
X146786000Y-108386000D02*
X147294000Y-108386000D01*
X146786000Y-103306000D02*
X147294000Y-103306000D01*
X146786000Y-103814000D02*
X147294000Y-103814000D01*
X146786000Y-105846000D02*
X147294000Y-105846000D01*
X146786000Y-106354000D02*
X147294000Y-106354000D01*
X150850000Y-112730000D02*
X152000000Y-112730000D01*
X152000000Y-112730000D02*
X152000000Y-111180000D01*
X144246000Y-111307000D02*
X138277000Y-111307000D01*
X138277000Y-111307000D02*
X138277000Y-111053000D01*
X138277000Y-111053000D02*
X144119000Y-111053000D01*
X144119000Y-111053000D02*
X144119000Y-111180000D01*
X144119000Y-111180000D02*
X138277000Y-111180000D01*
X146786000Y-102290000D02*
X144246000Y-102290000D01*
X146786000Y-102290000D02*
X146786000Y-99750000D01*
X146786000Y-99750000D02*
X144246000Y-99750000D01*
X144246000Y-101274000D02*
X138150000Y-101274000D01*
X138150000Y-101274000D02*
X138150000Y-100766000D01*
X138150000Y-100766000D02*
X144246000Y-100766000D01*
X144246000Y-99750000D02*
X144246000Y-102290000D01*
X144246000Y-97210000D02*
X144246000Y-99750000D01*
X138150000Y-98226000D02*
X144246000Y-98226000D01*
X138150000Y-98734000D02*
X138150000Y-98226000D01*
X144246000Y-98734000D02*
X138150000Y-98734000D01*
X146786000Y-99750000D02*
X146786000Y-97210000D01*
X146786000Y-99750000D02*
X144246000Y-99750000D01*
X146786000Y-97210000D02*
X144246000Y-97210000D01*
X146786000Y-107370000D02*
X144246000Y-107370000D01*
X146786000Y-107370000D02*
X146786000Y-104830000D01*
X146786000Y-104830000D02*
X144246000Y-104830000D01*
X144246000Y-106354000D02*
X138150000Y-106354000D01*
X138150000Y-106354000D02*
X138150000Y-105846000D01*
X138150000Y-105846000D02*
X144246000Y-105846000D01*
X144246000Y-104830000D02*
X144246000Y-107370000D01*
X144246000Y-102290000D02*
X144246000Y-104830000D01*
X138150000Y-103306000D02*
X144246000Y-103306000D01*
X138150000Y-103814000D02*
X138150000Y-103306000D01*
X144246000Y-103814000D02*
X138150000Y-103814000D01*
X146786000Y-102290000D02*
X144246000Y-102290000D01*
X146786000Y-104830000D02*
X146786000Y-102290000D01*
X146786000Y-104830000D02*
X144246000Y-104830000D01*
X146786000Y-109910000D02*
X144246000Y-109910000D01*
X146786000Y-109910000D02*
X146786000Y-107370000D01*
X146786000Y-107370000D02*
X144246000Y-107370000D01*
X144246000Y-108894000D02*
X138150000Y-108894000D01*
X138150000Y-108894000D02*
X138150000Y-108386000D01*
X138150000Y-108386000D02*
X144246000Y-108386000D01*
X144246000Y-107370000D02*
X144246000Y-109910000D01*
X144246000Y-109910000D02*
X144246000Y-112450000D01*
X138150000Y-110926000D02*
X144246000Y-110926000D01*
X138150000Y-111434000D02*
X138150000Y-110926000D01*
X144246000Y-111434000D02*
X138150000Y-111434000D01*
X146786000Y-109910000D02*
X144246000Y-109910000D01*
X146786000Y-112450000D02*
X146786000Y-109910000D01*
X146786000Y-112450000D02*
X144246000Y-112450000D01*
X139500000Y-90510000D02*
X139500000Y-92060000D01*
X140800000Y-90510000D02*
X139500000Y-90510000D01*
X144991000Y-91933000D02*
X150833000Y-91933000D01*
X150833000Y-91933000D02*
X150833000Y-92187000D01*
X150833000Y-92187000D02*
X144991000Y-92187000D01*
X144991000Y-92187000D02*
X144991000Y-92060000D01*
X144991000Y-92060000D02*
X150833000Y-92060000D01*
X142324000Y-91806000D02*
X141943000Y-91806000D01*
X142324000Y-92314000D02*
X141943000Y-92314000D01*
X142324000Y-94346000D02*
X141943000Y-94346000D01*
X142324000Y-94854000D02*
X141943000Y-94854000D01*
X142324000Y-90790000D02*
X144864000Y-90790000D01*
X142324000Y-93330000D02*
X144864000Y-93330000D01*
X142324000Y-93330000D02*
X142324000Y-95870000D01*
X142324000Y-95870000D02*
X144864000Y-95870000D01*
X144864000Y-94346000D02*
X150960000Y-94346000D01*
X150960000Y-94346000D02*
X150960000Y-94854000D01*
X150960000Y-94854000D02*
X144864000Y-94854000D01*
X144864000Y-95870000D02*
X144864000Y-93330000D01*
X144864000Y-93330000D02*
X144864000Y-90790000D01*
X150960000Y-92314000D02*
X144864000Y-92314000D01*
X150960000Y-91806000D02*
X150960000Y-92314000D01*
X144864000Y-91806000D02*
X150960000Y-91806000D01*
X142324000Y-93330000D02*
X144864000Y-93330000D01*
X142324000Y-90790000D02*
X142324000Y-93330000D01*
X136230180Y-93300800D02*
X136230180Y-92599760D01*
X136230180Y-92599760D02*
X136479100Y-92599760D01*
X139029160Y-92599760D02*
X139229820Y-92599760D01*
X139229820Y-92599760D02*
X139229820Y-93300800D01*
D14*
G36*
X164379952Y-109685750D02*
X164383674Y-109638814D01*
X164390308Y-109591077D01*
X164396230Y-109559530D01*
X164399947Y-109542624D01*
X164404096Y-109525576D01*
X164408546Y-109508787D01*
X164413163Y-109492659D01*
X164417817Y-109477592D01*
X164422375Y-109463986D01*
X164426706Y-109452243D01*
X164430677Y-109442764D01*
X164434157Y-109435947D01*
X164437014Y-109432196D01*
X164438338Y-109431582D01*
X164440608Y-109431906D01*
X164446410Y-109432852D01*
X164455542Y-109434386D01*
X164467801Y-109436472D01*
X164482987Y-109439075D01*
X164500897Y-109442160D01*
X164521329Y-109445691D01*
X164544081Y-109449633D01*
X164568952Y-109453950D01*
X164595740Y-109458607D01*
X164624242Y-109463569D01*
X164654258Y-109468800D01*
X164685585Y-109474266D01*
X164718021Y-109479929D01*
X164751365Y-109485756D01*
X164785414Y-109491711D01*
X164819967Y-109497758D01*
X164854822Y-109503863D01*
X164889776Y-109509989D01*
X164924629Y-109516102D01*
X164959179Y-109522165D01*
X164993223Y-109528144D01*
X165026559Y-109534004D01*
X165058986Y-109539708D01*
X165090302Y-109545222D01*
X165120305Y-109550510D01*
X165148793Y-109555537D01*
X165175565Y-109560267D01*
X165200418Y-109564665D01*
X165223151Y-109568696D01*
X165243561Y-109572324D01*
X165261448Y-109575514D01*
X165276608Y-109578231D01*
X165288841Y-109580439D01*
X165297943Y-109582103D01*
X165303715Y-109583187D01*
X165305023Y-109583446D01*
X165348174Y-109593013D01*
X165389393Y-109603666D01*
X165428391Y-109615303D01*
X165464879Y-109627822D01*
X165498570Y-109641123D01*
X165529174Y-109655102D01*
X165556403Y-109669660D01*
X165565127Y-109674900D01*
X165595616Y-109695668D01*
X165623263Y-109718332D01*
X165647879Y-109742701D01*
X165669271Y-109768586D01*
X165687249Y-109795794D01*
X165688718Y-109798344D01*
X165699337Y-109819363D01*
X165709149Y-109843436D01*
X165717957Y-109869878D01*
X165725564Y-109898000D01*
X165731775Y-109927116D01*
X165736392Y-109956540D01*
X165737985Y-109970572D01*
X165739119Y-109984684D01*
X165740002Y-110000994D01*
X165740616Y-110018513D01*
X165740944Y-110036256D01*
X165740968Y-110053236D01*
X165740670Y-110068464D01*
X165740032Y-110080955D01*
X165739991Y-110081489D01*
X165734170Y-110132413D01*
X165724642Y-110183972D01*
X165719983Y-110204008D01*
X165717134Y-110215138D01*
X165714099Y-110226213D01*
X165711094Y-110236518D01*
X165708334Y-110245336D01*
X165706036Y-110251952D01*
X165704417Y-110255649D01*
X165704340Y-110255771D01*
X165703102Y-110256536D01*
X165700393Y-110256796D01*
X165695764Y-110256506D01*
X165688763Y-110255620D01*
X165678941Y-110254094D01*
X165665940Y-110251897D01*
X165629157Y-110245544D01*
X165628107Y-110124313D01*
X165627878Y-110099154D01*
X165627652Y-110077478D01*
X165627420Y-110058976D01*
X165627172Y-110043339D01*
X165626898Y-110030258D01*
X165626588Y-110019426D01*
X165626234Y-110010532D01*
X165625825Y-110003270D01*
X165625351Y-109997329D01*
X165624804Y-109992402D01*
X165624173Y-109988180D01*
X165623782Y-109986023D01*
X165618382Y-109961314D01*
X165612198Y-109939733D01*
X165604999Y-109920656D01*
X165596555Y-109903460D01*
X165588372Y-109890074D01*
X165581612Y-109881161D01*
X165572520Y-109870869D01*
X165561886Y-109859967D01*
X165550503Y-109849222D01*
X165539161Y-109839402D01*
X165528654Y-109831276D01*
X165525602Y-109829162D01*
X165508029Y-109818460D01*
X165487473Y-109807740D01*
X165464721Y-109797347D01*
X165440564Y-109787628D01*
X165415790Y-109778925D01*
X165398740Y-109773692D01*
X165390456Y-109771433D01*
X165380356Y-109768873D01*
X165369145Y-109766169D01*
X165357527Y-109763478D01*
X165346207Y-109760958D01*
X165335889Y-109758766D01*
X165327276Y-109757061D01*
X165321074Y-109755998D01*
X165318326Y-109755717D01*
X165317554Y-109756843D01*
X165318230Y-109760434D01*
X165320443Y-109766808D01*
X165323807Y-109775146D01*
X165334996Y-109803919D01*
X165344545Y-109832627D01*
X165352212Y-109860448D01*
X165357758Y-109886560D01*
X165359412Y-109896933D01*
X165360380Y-109906366D01*
X165361091Y-109918630D01*
X165361546Y-109932841D01*
X165361744Y-109948111D01*
X165361685Y-109963556D01*
X165361368Y-109978289D01*
X165360793Y-109991425D01*
X165359958Y-110002078D01*
X165359480Y-110005948D01*
X165356652Y-110022220D01*
X165352884Y-110039321D01*
X165348516Y-110055894D01*
X165343888Y-110070579D01*
X165342051Y-110075593D01*
X165332428Y-110095612D01*
X165319546Y-110114745D01*
X165303923Y-110132459D01*
X165286074Y-110148219D01*
X165266516Y-110161491D01*
X165251506Y-110169279D01*
X165223613Y-110180073D01*
X165192767Y-110188501D01*
X165158981Y-110194563D01*
X165122266Y-110198257D01*
X165082632Y-110199582D01*
X165040090Y-110198539D01*
X165037836Y-110198370D01*
X165037836Y-110027733D01*
X165069159Y-110027569D01*
X165098773Y-110025802D01*
X165126104Y-110022453D01*
X165150579Y-110017539D01*
X165151848Y-110017219D01*
X165173997Y-110009962D01*
X165193307Y-110000200D01*
X165209780Y-109987931D01*
X165223417Y-109973153D01*
X165234219Y-109955863D01*
X165242188Y-109936059D01*
X165247325Y-109913738D01*
X165249632Y-109888898D01*
X165249109Y-109861536D01*
X165246959Y-109840103D01*
X165244949Y-109827946D01*
X165242046Y-109814758D01*
X165238442Y-109801069D01*
X165234326Y-109787413D01*
X165229889Y-109774322D01*
X165225319Y-109762329D01*
X165220808Y-109751965D01*
X165216546Y-109743763D01*
X165212721Y-109738255D01*
X165209812Y-109736042D01*
X165207595Y-109735605D01*
X165201874Y-109734554D01*
X165192869Y-109732928D01*
X165180802Y-109730765D01*
X165165895Y-109728105D01*
X165148369Y-109724986D01*
X165128444Y-109721448D01*
X165106344Y-109717530D01*
X165082287Y-109713269D01*
X165056497Y-109708707D01*
X165029195Y-109703880D01*
X165000601Y-109698830D01*
X164970938Y-109693593D01*
X164940425Y-109688210D01*
X164909286Y-109682719D01*
X164877741Y-109677160D01*
X164846011Y-109671571D01*
X164814319Y-109665991D01*
X164782884Y-109660460D01*
X164751929Y-109655016D01*
X164721675Y-109649698D01*
X164692343Y-109644546D01*
X164664154Y-109639597D01*
X164637331Y-109634892D01*
X164612093Y-109630469D01*
X164588663Y-109626367D01*
X164567262Y-109622625D01*
X164548112Y-109619283D01*
X164531433Y-109616378D01*
X164517447Y-109613951D01*
X164506375Y-109612039D01*
X164498438Y-109610683D01*
X164493859Y-109609921D01*
X164492770Y-109609761D01*
X164492136Y-109611580D01*
X164491643Y-109616733D01*
X164491286Y-109624767D01*
X164491056Y-109635229D01*
X164490947Y-109647665D01*
X164490951Y-109661622D01*
X164491062Y-109676646D01*
X164491273Y-109692284D01*
X164491577Y-109708082D01*
X164491966Y-109723587D01*
X164492433Y-109738345D01*
X164492972Y-109751902D01*
X164493576Y-109763807D01*
X164494238Y-109773603D01*
X164494950Y-109780840D01*
X164495465Y-109784095D01*
X164501444Y-109807400D01*
X164509166Y-109827949D01*
X164519076Y-109846549D01*
X164531617Y-109864008D01*
X164547233Y-109881131D01*
X164550849Y-109884667D01*
X164570377Y-109901393D01*
X164593354Y-109917437D01*
X164619480Y-109932651D01*
X164648450Y-109946892D01*
X164679964Y-109960013D01*
X164713717Y-109971869D01*
X164749408Y-109982315D01*
X164759112Y-109984818D01*
X164779599Y-109989677D01*
X164803052Y-109994756D01*
X164828667Y-109999912D01*
X164855638Y-110005000D01*
X164883159Y-110009873D01*
X164910423Y-110014389D01*
X164936625Y-110018400D01*
X164960959Y-110021763D01*
X164972358Y-110023178D01*
X165005378Y-110026275D01*
X165037836Y-110027733D01*
X165037836Y-110198370D01*
X164994653Y-110195125D01*
X164962881Y-110191548D01*
X164921114Y-110185733D01*
X164879306Y-110178889D01*
X164837973Y-110171134D01*
X164797631Y-110162586D01*
X164758796Y-110153364D01*
X164721985Y-110143587D01*
X164687714Y-110133373D01*
X164656498Y-110122841D01*
X164644438Y-110118358D01*
X164608077Y-110103282D01*
X164575130Y-110087202D01*
X164545312Y-110069944D01*
X164518338Y-110051333D01*
X164493922Y-110031193D01*
X164479523Y-110017437D01*
X164458099Y-109993665D01*
X164439676Y-109968594D01*
X164424028Y-109941804D01*
X164410930Y-109912877D01*
X164400156Y-109881394D01*
X164394211Y-109859023D01*
X164386269Y-109818521D01*
X164381247Y-109775926D01*
X164379142Y-109731562D01*
X164379952Y-109685750D01*
X164379952Y-109685750D01*
G37*
X164379952Y-109685750D02*
X164383674Y-109638814D01*
X164390308Y-109591077D01*
X164396230Y-109559530D01*
X164399947Y-109542624D01*
X164404096Y-109525576D01*
X164408546Y-109508787D01*
X164413163Y-109492659D01*
X164417817Y-109477592D01*
X164422375Y-109463986D01*
X164426706Y-109452243D01*
X164430677Y-109442764D01*
X164434157Y-109435947D01*
X164437014Y-109432196D01*
X164438338Y-109431582D01*
X164440608Y-109431906D01*
X164446410Y-109432852D01*
X164455542Y-109434386D01*
X164467801Y-109436472D01*
X164482987Y-109439075D01*
X164500897Y-109442160D01*
X164521329Y-109445691D01*
X164544081Y-109449633D01*
X164568952Y-109453950D01*
X164595740Y-109458607D01*
X164624242Y-109463569D01*
X164654258Y-109468800D01*
X164685585Y-109474266D01*
X164718021Y-109479929D01*
X164751365Y-109485756D01*
X164785414Y-109491711D01*
X164819967Y-109497758D01*
X164854822Y-109503863D01*
X164889776Y-109509989D01*
X164924629Y-109516102D01*
X164959179Y-109522165D01*
X164993223Y-109528144D01*
X165026559Y-109534004D01*
X165058986Y-109539708D01*
X165090302Y-109545222D01*
X165120305Y-109550510D01*
X165148793Y-109555537D01*
X165175565Y-109560267D01*
X165200418Y-109564665D01*
X165223151Y-109568696D01*
X165243561Y-109572324D01*
X165261448Y-109575514D01*
X165276608Y-109578231D01*
X165288841Y-109580439D01*
X165297943Y-109582103D01*
X165303715Y-109583187D01*
X165305023Y-109583446D01*
X165348174Y-109593013D01*
X165389393Y-109603666D01*
X165428391Y-109615303D01*
X165464879Y-109627822D01*
X165498570Y-109641123D01*
X165529174Y-109655102D01*
X165556403Y-109669660D01*
X165565127Y-109674900D01*
X165595616Y-109695668D01*
X165623263Y-109718332D01*
X165647879Y-109742701D01*
X165669271Y-109768586D01*
X165687249Y-109795794D01*
X165688718Y-109798344D01*
X165699337Y-109819363D01*
X165709149Y-109843436D01*
X165717957Y-109869878D01*
X165725564Y-109898000D01*
X165731775Y-109927116D01*
X165736392Y-109956540D01*
X165737985Y-109970572D01*
X165739119Y-109984684D01*
X165740002Y-110000994D01*
X165740616Y-110018513D01*
X165740944Y-110036256D01*
X165740968Y-110053236D01*
X165740670Y-110068464D01*
X165740032Y-110080955D01*
X165739991Y-110081489D01*
X165734170Y-110132413D01*
X165724642Y-110183972D01*
X165719983Y-110204008D01*
X165717134Y-110215138D01*
X165714099Y-110226213D01*
X165711094Y-110236518D01*
X165708334Y-110245336D01*
X165706036Y-110251952D01*
X165704417Y-110255649D01*
X165704340Y-110255771D01*
X165703102Y-110256536D01*
X165700393Y-110256796D01*
X165695764Y-110256506D01*
X165688763Y-110255620D01*
X165678941Y-110254094D01*
X165665940Y-110251897D01*
X165629157Y-110245544D01*
X165628107Y-110124313D01*
X165627878Y-110099154D01*
X165627652Y-110077478D01*
X165627420Y-110058976D01*
X165627172Y-110043339D01*
X165626898Y-110030258D01*
X165626588Y-110019426D01*
X165626234Y-110010532D01*
X165625825Y-110003270D01*
X165625351Y-109997329D01*
X165624804Y-109992402D01*
X165624173Y-109988180D01*
X165623782Y-109986023D01*
X165618382Y-109961314D01*
X165612198Y-109939733D01*
X165604999Y-109920656D01*
X165596555Y-109903460D01*
X165588372Y-109890074D01*
X165581612Y-109881161D01*
X165572520Y-109870869D01*
X165561886Y-109859967D01*
X165550503Y-109849222D01*
X165539161Y-109839402D01*
X165528654Y-109831276D01*
X165525602Y-109829162D01*
X165508029Y-109818460D01*
X165487473Y-109807740D01*
X165464721Y-109797347D01*
X165440564Y-109787628D01*
X165415790Y-109778925D01*
X165398740Y-109773692D01*
X165390456Y-109771433D01*
X165380356Y-109768873D01*
X165369145Y-109766169D01*
X165357527Y-109763478D01*
X165346207Y-109760958D01*
X165335889Y-109758766D01*
X165327276Y-109757061D01*
X165321074Y-109755998D01*
X165318326Y-109755717D01*
X165317554Y-109756843D01*
X165318230Y-109760434D01*
X165320443Y-109766808D01*
X165323807Y-109775146D01*
X165334996Y-109803919D01*
X165344545Y-109832627D01*
X165352212Y-109860448D01*
X165357758Y-109886560D01*
X165359412Y-109896933D01*
X165360380Y-109906366D01*
X165361091Y-109918630D01*
X165361546Y-109932841D01*
X165361744Y-109948111D01*
X165361685Y-109963556D01*
X165361368Y-109978289D01*
X165360793Y-109991425D01*
X165359958Y-110002078D01*
X165359480Y-110005948D01*
X165356652Y-110022220D01*
X165352884Y-110039321D01*
X165348516Y-110055894D01*
X165343888Y-110070579D01*
X165342051Y-110075593D01*
X165332428Y-110095612D01*
X165319546Y-110114745D01*
X165303923Y-110132459D01*
X165286074Y-110148219D01*
X165266516Y-110161491D01*
X165251506Y-110169279D01*
X165223613Y-110180073D01*
X165192767Y-110188501D01*
X165158981Y-110194563D01*
X165122266Y-110198257D01*
X165082632Y-110199582D01*
X165040090Y-110198539D01*
X165037836Y-110198370D01*
X165037836Y-110027733D01*
X165069159Y-110027569D01*
X165098773Y-110025802D01*
X165126104Y-110022453D01*
X165150579Y-110017539D01*
X165151848Y-110017219D01*
X165173997Y-110009962D01*
X165193307Y-110000200D01*
X165209780Y-109987931D01*
X165223417Y-109973153D01*
X165234219Y-109955863D01*
X165242188Y-109936059D01*
X165247325Y-109913738D01*
X165249632Y-109888898D01*
X165249109Y-109861536D01*
X165246959Y-109840103D01*
X165244949Y-109827946D01*
X165242046Y-109814758D01*
X165238442Y-109801069D01*
X165234326Y-109787413D01*
X165229889Y-109774322D01*
X165225319Y-109762329D01*
X165220808Y-109751965D01*
X165216546Y-109743763D01*
X165212721Y-109738255D01*
X165209812Y-109736042D01*
X165207595Y-109735605D01*
X165201874Y-109734554D01*
X165192869Y-109732928D01*
X165180802Y-109730765D01*
X165165895Y-109728105D01*
X165148369Y-109724986D01*
X165128444Y-109721448D01*
X165106344Y-109717530D01*
X165082287Y-109713269D01*
X165056497Y-109708707D01*
X165029195Y-109703880D01*
X165000601Y-109698830D01*
X164970938Y-109693593D01*
X164940425Y-109688210D01*
X164909286Y-109682719D01*
X164877741Y-109677160D01*
X164846011Y-109671571D01*
X164814319Y-109665991D01*
X164782884Y-109660460D01*
X164751929Y-109655016D01*
X164721675Y-109649698D01*
X164692343Y-109644546D01*
X164664154Y-109639597D01*
X164637331Y-109634892D01*
X164612093Y-109630469D01*
X164588663Y-109626367D01*
X164567262Y-109622625D01*
X164548112Y-109619283D01*
X164531433Y-109616378D01*
X164517447Y-109613951D01*
X164506375Y-109612039D01*
X164498438Y-109610683D01*
X164493859Y-109609921D01*
X164492770Y-109609761D01*
X164492136Y-109611580D01*
X164491643Y-109616733D01*
X164491286Y-109624767D01*
X164491056Y-109635229D01*
X164490947Y-109647665D01*
X164490951Y-109661622D01*
X164491062Y-109676646D01*
X164491273Y-109692284D01*
X164491577Y-109708082D01*
X164491966Y-109723587D01*
X164492433Y-109738345D01*
X164492972Y-109751902D01*
X164493576Y-109763807D01*
X164494238Y-109773603D01*
X164494950Y-109780840D01*
X164495465Y-109784095D01*
X164501444Y-109807400D01*
X164509166Y-109827949D01*
X164519076Y-109846549D01*
X164531617Y-109864008D01*
X164547233Y-109881131D01*
X164550849Y-109884667D01*
X164570377Y-109901393D01*
X164593354Y-109917437D01*
X164619480Y-109932651D01*
X164648450Y-109946892D01*
X164679964Y-109960013D01*
X164713717Y-109971869D01*
X164749408Y-109982315D01*
X164759112Y-109984818D01*
X164779599Y-109989677D01*
X164803052Y-109994756D01*
X164828667Y-109999912D01*
X164855638Y-110005000D01*
X164883159Y-110009873D01*
X164910423Y-110014389D01*
X164936625Y-110018400D01*
X164960959Y-110021763D01*
X164972358Y-110023178D01*
X165005378Y-110026275D01*
X165037836Y-110027733D01*
X165037836Y-110198370D01*
X164994653Y-110195125D01*
X164962881Y-110191548D01*
X164921114Y-110185733D01*
X164879306Y-110178889D01*
X164837973Y-110171134D01*
X164797631Y-110162586D01*
X164758796Y-110153364D01*
X164721985Y-110143587D01*
X164687714Y-110133373D01*
X164656498Y-110122841D01*
X164644438Y-110118358D01*
X164608077Y-110103282D01*
X164575130Y-110087202D01*
X164545312Y-110069944D01*
X164518338Y-110051333D01*
X164493922Y-110031193D01*
X164479523Y-110017437D01*
X164458099Y-109993665D01*
X164439676Y-109968594D01*
X164424028Y-109941804D01*
X164410930Y-109912877D01*
X164400156Y-109881394D01*
X164394211Y-109859023D01*
X164386269Y-109818521D01*
X164381247Y-109775926D01*
X164379142Y-109731562D01*
X164379952Y-109685750D01*
G36*
X164193773Y-108033588D02*
X164196265Y-108034060D01*
X164202038Y-108035102D01*
X164210694Y-108036644D01*
X164221834Y-108038617D01*
X164235059Y-108040950D01*
X164249971Y-108043575D01*
X164266171Y-108046420D01*
X164283261Y-108049417D01*
X164300842Y-108052496D01*
X164318515Y-108055587D01*
X164335881Y-108058620D01*
X164352543Y-108061525D01*
X164368101Y-108064234D01*
X164382157Y-108066675D01*
X164394312Y-108068780D01*
X164404167Y-108070479D01*
X164411324Y-108071701D01*
X164415385Y-108072378D01*
X164416169Y-108072493D01*
X164416305Y-108070648D01*
X164416447Y-108065316D01*
X164416592Y-108056800D01*
X164416737Y-108045405D01*
X164416880Y-108031433D01*
X164417018Y-108015189D01*
X164417147Y-107996977D01*
X164417265Y-107977100D01*
X164417368Y-107955862D01*
X164417432Y-107940188D01*
X164417918Y-107807883D01*
X164459930Y-107815346D01*
X164501941Y-107822810D01*
X164503799Y-107829655D01*
X164505117Y-107834502D01*
X164507101Y-107841788D01*
X164509419Y-107850292D01*
X164510612Y-107854668D01*
X164520056Y-107893628D01*
X164527701Y-107934296D01*
X164533390Y-107975535D01*
X164536969Y-108016203D01*
X164538281Y-108055160D01*
X164538284Y-108057124D01*
X164538284Y-108094938D01*
X164543497Y-108096007D01*
X164546357Y-108096533D01*
X164552687Y-108097657D01*
X164562222Y-108099332D01*
X164574697Y-108101513D01*
X164589845Y-108104153D01*
X164607401Y-108107207D01*
X164627100Y-108110629D01*
X164648675Y-108114373D01*
X164671861Y-108118393D01*
X164696393Y-108122643D01*
X164722005Y-108127077D01*
X164748431Y-108131650D01*
X164775406Y-108136315D01*
X164802663Y-108141026D01*
X164829938Y-108145739D01*
X164856965Y-108150406D01*
X164883479Y-108154981D01*
X164909212Y-108159420D01*
X164933901Y-108163675D01*
X164957279Y-108167702D01*
X164979081Y-108171454D01*
X164999041Y-108174885D01*
X165016893Y-108177950D01*
X165032372Y-108180602D01*
X165045212Y-108182796D01*
X165055148Y-108184486D01*
X165061914Y-108185625D01*
X165065239Y-108186168D01*
X165090778Y-108188985D01*
X165115796Y-108189735D01*
X165139730Y-108188472D01*
X165162019Y-108185252D01*
X165182102Y-108180129D01*
X165199418Y-108173158D01*
X165199742Y-108172996D01*
X165208638Y-108167578D01*
X165218105Y-108160295D01*
X165227094Y-108152084D01*
X165234561Y-108143885D01*
X165238684Y-108138052D01*
X165241013Y-108133909D01*
X165242990Y-108129840D01*
X165244647Y-108125500D01*
X165246015Y-108120546D01*
X165247127Y-108114633D01*
X165248015Y-108107419D01*
X165248712Y-108098558D01*
X165249248Y-108087708D01*
X165249657Y-108074523D01*
X165249971Y-108058662D01*
X165250221Y-108039779D01*
X165250441Y-108017530D01*
X165250492Y-108011696D01*
X165251303Y-107917728D01*
X165281954Y-107923045D01*
X165295712Y-107925408D01*
X165306233Y-107927252D01*
X165314000Y-107928793D01*
X165319496Y-107930247D01*
X165323203Y-107931829D01*
X165325603Y-107933756D01*
X165327178Y-107936243D01*
X165328412Y-107939507D01*
X165329787Y-107943763D01*
X165330062Y-107944577D01*
X165335829Y-107963429D01*
X165341377Y-107985343D01*
X165346566Y-108009592D01*
X165351253Y-108035450D01*
X165355298Y-108062188D01*
X165358559Y-108089079D01*
X165359037Y-108093730D01*
X165361042Y-108116572D01*
X165362168Y-108136657D01*
X165362431Y-108154908D01*
X165361848Y-108172253D01*
X165360719Y-108186766D01*
X165356692Y-108216560D01*
X165350591Y-108243237D01*
X165342308Y-108266922D01*
X165331737Y-108287739D01*
X165318773Y-108305811D01*
X165303308Y-108321263D01*
X165285236Y-108334218D01*
X165264451Y-108344800D01*
X165240847Y-108353132D01*
X165214316Y-108359340D01*
X165212142Y-108359734D01*
X165201928Y-108361058D01*
X165188811Y-108362007D01*
X165173660Y-108362574D01*
X165157346Y-108362751D01*
X165140738Y-108362531D01*
X165124706Y-108361905D01*
X165110120Y-108360867D01*
X165107888Y-108360653D01*
X165102864Y-108360140D01*
X165097918Y-108359607D01*
X165092847Y-108359020D01*
X165087451Y-108358345D01*
X165081525Y-108357550D01*
X165074870Y-108356601D01*
X165067283Y-108355464D01*
X165058561Y-108354106D01*
X165048504Y-108352494D01*
X165036908Y-108350595D01*
X165023573Y-108348375D01*
X165008296Y-108345801D01*
X164990875Y-108342839D01*
X164971108Y-108339457D01*
X164948793Y-108335620D01*
X164923729Y-108331297D01*
X164895713Y-108326452D01*
X164864544Y-108321053D01*
X164830019Y-108315067D01*
X164796761Y-108309297D01*
X164766417Y-108304037D01*
X164737066Y-108298959D01*
X164708930Y-108294101D01*
X164682228Y-108289500D01*
X164657181Y-108285195D01*
X164634010Y-108281222D01*
X164612934Y-108277620D01*
X164594175Y-108274426D01*
X164577953Y-108271678D01*
X164564489Y-108269413D01*
X164554003Y-108267670D01*
X164546715Y-108266485D01*
X164542846Y-108265896D01*
X164542287Y-108265836D01*
X164541141Y-108265913D01*
X164540238Y-108266411D01*
X164539549Y-108267734D01*
X164539044Y-108270285D01*
X164538695Y-108274467D01*
X164538474Y-108280683D01*
X164538351Y-108289335D01*
X164538297Y-108300827D01*
X164538284Y-108315561D01*
X164538284Y-108321754D01*
X164538250Y-108338505D01*
X164538138Y-108351789D01*
X164537935Y-108361931D01*
X164537626Y-108369255D01*
X164537199Y-108374085D01*
X164536640Y-108376744D01*
X164535934Y-108377558D01*
X164535914Y-108377558D01*
X164533524Y-108377191D01*
X164527880Y-108376207D01*
X164519456Y-108374692D01*
X164508724Y-108372731D01*
X164496157Y-108370411D01*
X164482226Y-108367818D01*
X164475732Y-108366602D01*
X164417918Y-108355762D01*
X164416916Y-108241964D01*
X164303214Y-108222150D01*
X164189511Y-108202336D01*
X164189509Y-108117475D01*
X164189508Y-108032615D01*
X164193773Y-108033588D01*
X164193773Y-108033588D01*
G37*
X164193773Y-108033588D02*
X164196265Y-108034060D01*
X164202038Y-108035102D01*
X164210694Y-108036644D01*
X164221834Y-108038617D01*
X164235059Y-108040950D01*
X164249971Y-108043575D01*
X164266171Y-108046420D01*
X164283261Y-108049417D01*
X164300842Y-108052496D01*
X164318515Y-108055587D01*
X164335881Y-108058620D01*
X164352543Y-108061525D01*
X164368101Y-108064234D01*
X164382157Y-108066675D01*
X164394312Y-108068780D01*
X164404167Y-108070479D01*
X164411324Y-108071701D01*
X164415385Y-108072378D01*
X164416169Y-108072493D01*
X164416305Y-108070648D01*
X164416447Y-108065316D01*
X164416592Y-108056800D01*
X164416737Y-108045405D01*
X164416880Y-108031433D01*
X164417018Y-108015189D01*
X164417147Y-107996977D01*
X164417265Y-107977100D01*
X164417368Y-107955862D01*
X164417432Y-107940188D01*
X164417918Y-107807883D01*
X164459930Y-107815346D01*
X164501941Y-107822810D01*
X164503799Y-107829655D01*
X164505117Y-107834502D01*
X164507101Y-107841788D01*
X164509419Y-107850292D01*
X164510612Y-107854668D01*
X164520056Y-107893628D01*
X164527701Y-107934296D01*
X164533390Y-107975535D01*
X164536969Y-108016203D01*
X164538281Y-108055160D01*
X164538284Y-108057124D01*
X164538284Y-108094938D01*
X164543497Y-108096007D01*
X164546357Y-108096533D01*
X164552687Y-108097657D01*
X164562222Y-108099332D01*
X164574697Y-108101513D01*
X164589845Y-108104153D01*
X164607401Y-108107207D01*
X164627100Y-108110629D01*
X164648675Y-108114373D01*
X164671861Y-108118393D01*
X164696393Y-108122643D01*
X164722005Y-108127077D01*
X164748431Y-108131650D01*
X164775406Y-108136315D01*
X164802663Y-108141026D01*
X164829938Y-108145739D01*
X164856965Y-108150406D01*
X164883479Y-108154981D01*
X164909212Y-108159420D01*
X164933901Y-108163675D01*
X164957279Y-108167702D01*
X164979081Y-108171454D01*
X164999041Y-108174885D01*
X165016893Y-108177950D01*
X165032372Y-108180602D01*
X165045212Y-108182796D01*
X165055148Y-108184486D01*
X165061914Y-108185625D01*
X165065239Y-108186168D01*
X165090778Y-108188985D01*
X165115796Y-108189735D01*
X165139730Y-108188472D01*
X165162019Y-108185252D01*
X165182102Y-108180129D01*
X165199418Y-108173158D01*
X165199742Y-108172996D01*
X165208638Y-108167578D01*
X165218105Y-108160295D01*
X165227094Y-108152084D01*
X165234561Y-108143885D01*
X165238684Y-108138052D01*
X165241013Y-108133909D01*
X165242990Y-108129840D01*
X165244647Y-108125500D01*
X165246015Y-108120546D01*
X165247127Y-108114633D01*
X165248015Y-108107419D01*
X165248712Y-108098558D01*
X165249248Y-108087708D01*
X165249657Y-108074523D01*
X165249971Y-108058662D01*
X165250221Y-108039779D01*
X165250441Y-108017530D01*
X165250492Y-108011696D01*
X165251303Y-107917728D01*
X165281954Y-107923045D01*
X165295712Y-107925408D01*
X165306233Y-107927252D01*
X165314000Y-107928793D01*
X165319496Y-107930247D01*
X165323203Y-107931829D01*
X165325603Y-107933756D01*
X165327178Y-107936243D01*
X165328412Y-107939507D01*
X165329787Y-107943763D01*
X165330062Y-107944577D01*
X165335829Y-107963429D01*
X165341377Y-107985343D01*
X165346566Y-108009592D01*
X165351253Y-108035450D01*
X165355298Y-108062188D01*
X165358559Y-108089079D01*
X165359037Y-108093730D01*
X165361042Y-108116572D01*
X165362168Y-108136657D01*
X165362431Y-108154908D01*
X165361848Y-108172253D01*
X165360719Y-108186766D01*
X165356692Y-108216560D01*
X165350591Y-108243237D01*
X165342308Y-108266922D01*
X165331737Y-108287739D01*
X165318773Y-108305811D01*
X165303308Y-108321263D01*
X165285236Y-108334218D01*
X165264451Y-108344800D01*
X165240847Y-108353132D01*
X165214316Y-108359340D01*
X165212142Y-108359734D01*
X165201928Y-108361058D01*
X165188811Y-108362007D01*
X165173660Y-108362574D01*
X165157346Y-108362751D01*
X165140738Y-108362531D01*
X165124706Y-108361905D01*
X165110120Y-108360867D01*
X165107888Y-108360653D01*
X165102864Y-108360140D01*
X165097918Y-108359607D01*
X165092847Y-108359020D01*
X165087451Y-108358345D01*
X165081525Y-108357550D01*
X165074870Y-108356601D01*
X165067283Y-108355464D01*
X165058561Y-108354106D01*
X165048504Y-108352494D01*
X165036908Y-108350595D01*
X165023573Y-108348375D01*
X165008296Y-108345801D01*
X164990875Y-108342839D01*
X164971108Y-108339457D01*
X164948793Y-108335620D01*
X164923729Y-108331297D01*
X164895713Y-108326452D01*
X164864544Y-108321053D01*
X164830019Y-108315067D01*
X164796761Y-108309297D01*
X164766417Y-108304037D01*
X164737066Y-108298959D01*
X164708930Y-108294101D01*
X164682228Y-108289500D01*
X164657181Y-108285195D01*
X164634010Y-108281222D01*
X164612934Y-108277620D01*
X164594175Y-108274426D01*
X164577953Y-108271678D01*
X164564489Y-108269413D01*
X164554003Y-108267670D01*
X164546715Y-108266485D01*
X164542846Y-108265896D01*
X164542287Y-108265836D01*
X164541141Y-108265913D01*
X164540238Y-108266411D01*
X164539549Y-108267734D01*
X164539044Y-108270285D01*
X164538695Y-108274467D01*
X164538474Y-108280683D01*
X164538351Y-108289335D01*
X164538297Y-108300827D01*
X164538284Y-108315561D01*
X164538284Y-108321754D01*
X164538250Y-108338505D01*
X164538138Y-108351789D01*
X164537935Y-108361931D01*
X164537626Y-108369255D01*
X164537199Y-108374085D01*
X164536640Y-108376744D01*
X164535934Y-108377558D01*
X164535914Y-108377558D01*
X164533524Y-108377191D01*
X164527880Y-108376207D01*
X164519456Y-108374692D01*
X164508724Y-108372731D01*
X164496157Y-108370411D01*
X164482226Y-108367818D01*
X164475732Y-108366602D01*
X164417918Y-108355762D01*
X164416916Y-108241964D01*
X164303214Y-108222150D01*
X164189511Y-108202336D01*
X164189509Y-108117475D01*
X164189508Y-108032615D01*
X164193773Y-108033588D01*
G36*
X164000954Y-107211266D02*
X164002352Y-107176033D01*
X164004848Y-107140630D01*
X164008386Y-107105699D01*
X164012913Y-107071881D01*
X164018371Y-107039815D01*
X164024705Y-107010143D01*
X164031861Y-106983504D01*
X164032322Y-106981993D01*
X164035069Y-106973439D01*
X164037160Y-106968002D01*
X164038880Y-106965125D01*
X164040509Y-106964252D01*
X164041269Y-106964359D01*
X164043812Y-106964897D01*
X164049352Y-106965953D01*
X164057211Y-106967405D01*
X164066711Y-106969132D01*
X164077174Y-106971014D01*
X164087921Y-106972929D01*
X164098274Y-106974757D01*
X164107554Y-106976376D01*
X164115083Y-106977666D01*
X164120184Y-106978505D01*
X164122146Y-106978776D01*
X164122287Y-106980624D01*
X164122437Y-106985975D01*
X164122593Y-106994541D01*
X164122751Y-107006035D01*
X164122910Y-107020168D01*
X164123065Y-107036654D01*
X164123215Y-107055204D01*
X164123355Y-107075530D01*
X164123484Y-107097345D01*
X164123599Y-107120361D01*
X164123624Y-107126153D01*
X164123749Y-107154630D01*
X164123876Y-107179611D01*
X164124024Y-107201389D01*
X164124212Y-107220259D01*
X164124461Y-107236516D01*
X164124788Y-107250453D01*
X164125214Y-107262365D01*
X164125757Y-107272547D01*
X164126438Y-107281292D01*
X164127275Y-107288895D01*
X164128288Y-107295651D01*
X164129495Y-107301853D01*
X164130917Y-107307797D01*
X164132572Y-107313775D01*
X164134480Y-107320083D01*
X164136660Y-107327016D01*
X164136830Y-107327552D01*
X164146187Y-107352996D01*
X164157383Y-107375584D01*
X164170806Y-107395968D01*
X164186846Y-107414795D01*
X164192655Y-107420655D01*
X164214371Y-107439216D01*
X164238740Y-107455244D01*
X164265513Y-107468643D01*
X164294438Y-107479316D01*
X164325265Y-107487166D01*
X164357741Y-107492097D01*
X164382349Y-107493797D01*
X164404774Y-107493985D01*
X164424367Y-107492696D01*
X164441874Y-107489713D01*
X164458038Y-107484819D01*
X164473603Y-107477798D01*
X164489315Y-107468432D01*
X164503217Y-107458558D01*
X164515010Y-107449174D01*
X164526156Y-107439189D01*
X164536852Y-107428316D01*
X164547294Y-107416267D01*
X164557680Y-107402752D01*
X164568206Y-107387485D01*
X164579068Y-107370177D01*
X164590464Y-107350539D01*
X164602591Y-107328283D01*
X164615644Y-107303122D01*
X164629821Y-107274766D01*
X164632757Y-107268791D01*
X164643280Y-107247856D01*
X164653026Y-107229723D01*
X164662481Y-107213619D01*
X164672135Y-107198773D01*
X164682476Y-107184412D01*
X164693992Y-107169765D01*
X164699882Y-107162642D01*
X164717243Y-107143137D01*
X164734351Y-107126574D01*
X164752052Y-107112268D01*
X164771192Y-107099533D01*
X164791954Y-107088022D01*
X164812780Y-107078232D01*
X164832755Y-107070781D01*
X164852816Y-107065454D01*
X164873902Y-107062037D01*
X164896951Y-107060316D01*
X164914545Y-107060004D01*
X164951691Y-107061470D01*
X164989146Y-107065866D01*
X165015145Y-107070544D01*
X165056504Y-107080027D01*
X165094497Y-107090996D01*
X165129292Y-107103565D01*
X165161058Y-107117849D01*
X165189962Y-107133961D01*
X165216174Y-107152016D01*
X165239860Y-107172128D01*
X165261190Y-107194411D01*
X165280332Y-107218978D01*
X165297453Y-107245944D01*
X165310590Y-107270935D01*
X165322064Y-107296606D01*
X165331818Y-107322639D01*
X165340014Y-107349659D01*
X165346815Y-107378292D01*
X165352383Y-107409164D01*
X165356879Y-107442900D01*
X165358133Y-107454552D01*
X165358875Y-107463653D01*
X165359582Y-107475712D01*
X165360237Y-107490069D01*
X165360825Y-107506064D01*
X165361332Y-107523037D01*
X165361742Y-107540329D01*
X165362040Y-107557279D01*
X165362210Y-107573228D01*
X165362238Y-107587517D01*
X165362109Y-107599484D01*
X165361806Y-107608470D01*
X165361715Y-107609985D01*
X165359876Y-107635718D01*
X165358012Y-107658415D01*
X165356033Y-107678832D01*
X165353848Y-107697726D01*
X165351368Y-107715850D01*
X165348503Y-107733961D01*
X165345162Y-107752814D01*
X165343864Y-107759732D01*
X165341552Y-107771228D01*
X165338913Y-107783272D01*
X165336107Y-107795242D01*
X165333292Y-107806517D01*
X165330628Y-107816478D01*
X165328274Y-107824503D01*
X165326390Y-107829971D01*
X165325264Y-107832160D01*
X165323183Y-107832168D01*
X165318025Y-107831603D01*
X165310440Y-107830570D01*
X165301080Y-107829172D01*
X165290597Y-107827516D01*
X165279643Y-107825705D01*
X165268870Y-107823844D01*
X165258929Y-107822038D01*
X165250472Y-107820391D01*
X165246004Y-107819439D01*
X165241956Y-107818529D01*
X165240943Y-107669239D01*
X165240730Y-107639485D01*
X165240511Y-107613213D01*
X165240269Y-107590115D01*
X165239988Y-107569881D01*
X165239651Y-107552203D01*
X165239243Y-107536772D01*
X165238746Y-107523279D01*
X165238145Y-107511415D01*
X165237424Y-107500872D01*
X165236566Y-107491340D01*
X165235555Y-107482510D01*
X165234375Y-107474075D01*
X165233010Y-107465724D01*
X165231443Y-107457150D01*
X165229658Y-107448043D01*
X165229187Y-107445704D01*
X165221748Y-107414944D01*
X165212455Y-107387334D01*
X165201207Y-107362667D01*
X165187905Y-107340733D01*
X165172450Y-107321323D01*
X165167466Y-107316050D01*
X165148402Y-107298545D01*
X165127651Y-107283247D01*
X165104874Y-107269993D01*
X165079732Y-107258620D01*
X165051885Y-107248964D01*
X165020995Y-107240862D01*
X165003635Y-107237213D01*
X164992399Y-107235548D01*
X164979127Y-107234411D01*
X164964734Y-107233801D01*
X164950134Y-107233718D01*
X164936240Y-107234161D01*
X164923968Y-107235131D01*
X164914230Y-107236626D01*
X164911702Y-107237243D01*
X164896159Y-107242559D01*
X164881161Y-107249860D01*
X164866051Y-107259543D01*
X164850170Y-107272003D01*
X164842016Y-107279145D01*
X164830682Y-107290492D01*
X164818732Y-107304674D01*
X164806093Y-107321806D01*
X164792693Y-107342002D01*
X164778458Y-107365377D01*
X164763316Y-107392045D01*
X164747195Y-107422119D01*
X164732031Y-107451709D01*
X164721153Y-107472963D01*
X164711313Y-107491336D01*
X164702129Y-107507462D01*
X164693221Y-107521975D01*
X164684207Y-107535510D01*
X164674708Y-107548701D01*
X164670264Y-107554574D01*
X164648644Y-107580053D01*
X164625287Y-107602250D01*
X164599893Y-107621391D01*
X164572163Y-107637702D01*
X164542075Y-107651298D01*
X164518039Y-107659029D01*
X164491296Y-107664444D01*
X164462140Y-107667546D01*
X164430866Y-107668336D01*
X164397768Y-107666816D01*
X164363138Y-107662988D01*
X164327272Y-107656854D01*
X164295657Y-107649734D01*
X164256293Y-107638377D01*
X164219897Y-107624699D01*
X164186403Y-107608655D01*
X164155746Y-107590199D01*
X164127862Y-107569284D01*
X164102684Y-107545866D01*
X164080148Y-107519898D01*
X164060188Y-107491334D01*
X164052650Y-107478714D01*
X164040896Y-107455442D01*
X164030328Y-107429161D01*
X164021135Y-107400519D01*
X164013501Y-107370164D01*
X164007614Y-107338744D01*
X164003910Y-107309545D01*
X164001678Y-107278663D01*
X164000711Y-107245689D01*
X164000954Y-107211266D01*
X164000954Y-107211266D01*
G37*
X164000954Y-107211266D02*
X164002352Y-107176033D01*
X164004848Y-107140630D01*
X164008386Y-107105699D01*
X164012913Y-107071881D01*
X164018371Y-107039815D01*
X164024705Y-107010143D01*
X164031861Y-106983504D01*
X164032322Y-106981993D01*
X164035069Y-106973439D01*
X164037160Y-106968002D01*
X164038880Y-106965125D01*
X164040509Y-106964252D01*
X164041269Y-106964359D01*
X164043812Y-106964897D01*
X164049352Y-106965953D01*
X164057211Y-106967405D01*
X164066711Y-106969132D01*
X164077174Y-106971014D01*
X164087921Y-106972929D01*
X164098274Y-106974757D01*
X164107554Y-106976376D01*
X164115083Y-106977666D01*
X164120184Y-106978505D01*
X164122146Y-106978776D01*
X164122287Y-106980624D01*
X164122437Y-106985975D01*
X164122593Y-106994541D01*
X164122751Y-107006035D01*
X164122910Y-107020168D01*
X164123065Y-107036654D01*
X164123215Y-107055204D01*
X164123355Y-107075530D01*
X164123484Y-107097345D01*
X164123599Y-107120361D01*
X164123624Y-107126153D01*
X164123749Y-107154630D01*
X164123876Y-107179611D01*
X164124024Y-107201389D01*
X164124212Y-107220259D01*
X164124461Y-107236516D01*
X164124788Y-107250453D01*
X164125214Y-107262365D01*
X164125757Y-107272547D01*
X164126438Y-107281292D01*
X164127275Y-107288895D01*
X164128288Y-107295651D01*
X164129495Y-107301853D01*
X164130917Y-107307797D01*
X164132572Y-107313775D01*
X164134480Y-107320083D01*
X164136660Y-107327016D01*
X164136830Y-107327552D01*
X164146187Y-107352996D01*
X164157383Y-107375584D01*
X164170806Y-107395968D01*
X164186846Y-107414795D01*
X164192655Y-107420655D01*
X164214371Y-107439216D01*
X164238740Y-107455244D01*
X164265513Y-107468643D01*
X164294438Y-107479316D01*
X164325265Y-107487166D01*
X164357741Y-107492097D01*
X164382349Y-107493797D01*
X164404774Y-107493985D01*
X164424367Y-107492696D01*
X164441874Y-107489713D01*
X164458038Y-107484819D01*
X164473603Y-107477798D01*
X164489315Y-107468432D01*
X164503217Y-107458558D01*
X164515010Y-107449174D01*
X164526156Y-107439189D01*
X164536852Y-107428316D01*
X164547294Y-107416267D01*
X164557680Y-107402752D01*
X164568206Y-107387485D01*
X164579068Y-107370177D01*
X164590464Y-107350539D01*
X164602591Y-107328283D01*
X164615644Y-107303122D01*
X164629821Y-107274766D01*
X164632757Y-107268791D01*
X164643280Y-107247856D01*
X164653026Y-107229723D01*
X164662481Y-107213619D01*
X164672135Y-107198773D01*
X164682476Y-107184412D01*
X164693992Y-107169765D01*
X164699882Y-107162642D01*
X164717243Y-107143137D01*
X164734351Y-107126574D01*
X164752052Y-107112268D01*
X164771192Y-107099533D01*
X164791954Y-107088022D01*
X164812780Y-107078232D01*
X164832755Y-107070781D01*
X164852816Y-107065454D01*
X164873902Y-107062037D01*
X164896951Y-107060316D01*
X164914545Y-107060004D01*
X164951691Y-107061470D01*
X164989146Y-107065866D01*
X165015145Y-107070544D01*
X165056504Y-107080027D01*
X165094497Y-107090996D01*
X165129292Y-107103565D01*
X165161058Y-107117849D01*
X165189962Y-107133961D01*
X165216174Y-107152016D01*
X165239860Y-107172128D01*
X165261190Y-107194411D01*
X165280332Y-107218978D01*
X165297453Y-107245944D01*
X165310590Y-107270935D01*
X165322064Y-107296606D01*
X165331818Y-107322639D01*
X165340014Y-107349659D01*
X165346815Y-107378292D01*
X165352383Y-107409164D01*
X165356879Y-107442900D01*
X165358133Y-107454552D01*
X165358875Y-107463653D01*
X165359582Y-107475712D01*
X165360237Y-107490069D01*
X165360825Y-107506064D01*
X165361332Y-107523037D01*
X165361742Y-107540329D01*
X165362040Y-107557279D01*
X165362210Y-107573228D01*
X165362238Y-107587517D01*
X165362109Y-107599484D01*
X165361806Y-107608470D01*
X165361715Y-107609985D01*
X165359876Y-107635718D01*
X165358012Y-107658415D01*
X165356033Y-107678832D01*
X165353848Y-107697726D01*
X165351368Y-107715850D01*
X165348503Y-107733961D01*
X165345162Y-107752814D01*
X165343864Y-107759732D01*
X165341552Y-107771228D01*
X165338913Y-107783272D01*
X165336107Y-107795242D01*
X165333292Y-107806517D01*
X165330628Y-107816478D01*
X165328274Y-107824503D01*
X165326390Y-107829971D01*
X165325264Y-107832160D01*
X165323183Y-107832168D01*
X165318025Y-107831603D01*
X165310440Y-107830570D01*
X165301080Y-107829172D01*
X165290597Y-107827516D01*
X165279643Y-107825705D01*
X165268870Y-107823844D01*
X165258929Y-107822038D01*
X165250472Y-107820391D01*
X165246004Y-107819439D01*
X165241956Y-107818529D01*
X165240943Y-107669239D01*
X165240730Y-107639485D01*
X165240511Y-107613213D01*
X165240269Y-107590115D01*
X165239988Y-107569881D01*
X165239651Y-107552203D01*
X165239243Y-107536772D01*
X165238746Y-107523279D01*
X165238145Y-107511415D01*
X165237424Y-107500872D01*
X165236566Y-107491340D01*
X165235555Y-107482510D01*
X165234375Y-107474075D01*
X165233010Y-107465724D01*
X165231443Y-107457150D01*
X165229658Y-107448043D01*
X165229187Y-107445704D01*
X165221748Y-107414944D01*
X165212455Y-107387334D01*
X165201207Y-107362667D01*
X165187905Y-107340733D01*
X165172450Y-107321323D01*
X165167466Y-107316050D01*
X165148402Y-107298545D01*
X165127651Y-107283247D01*
X165104874Y-107269993D01*
X165079732Y-107258620D01*
X165051885Y-107248964D01*
X165020995Y-107240862D01*
X165003635Y-107237213D01*
X164992399Y-107235548D01*
X164979127Y-107234411D01*
X164964734Y-107233801D01*
X164950134Y-107233718D01*
X164936240Y-107234161D01*
X164923968Y-107235131D01*
X164914230Y-107236626D01*
X164911702Y-107237243D01*
X164896159Y-107242559D01*
X164881161Y-107249860D01*
X164866051Y-107259543D01*
X164850170Y-107272003D01*
X164842016Y-107279145D01*
X164830682Y-107290492D01*
X164818732Y-107304674D01*
X164806093Y-107321806D01*
X164792693Y-107342002D01*
X164778458Y-107365377D01*
X164763316Y-107392045D01*
X164747195Y-107422119D01*
X164732031Y-107451709D01*
X164721153Y-107472963D01*
X164711313Y-107491336D01*
X164702129Y-107507462D01*
X164693221Y-107521975D01*
X164684207Y-107535510D01*
X164674708Y-107548701D01*
X164670264Y-107554574D01*
X164648644Y-107580053D01*
X164625287Y-107602250D01*
X164599893Y-107621391D01*
X164572163Y-107637702D01*
X164542075Y-107651298D01*
X164518039Y-107659029D01*
X164491296Y-107664444D01*
X164462140Y-107667546D01*
X164430866Y-107668336D01*
X164397768Y-107666816D01*
X164363138Y-107662988D01*
X164327272Y-107656854D01*
X164295657Y-107649734D01*
X164256293Y-107638377D01*
X164219897Y-107624699D01*
X164186403Y-107608655D01*
X164155746Y-107590199D01*
X164127862Y-107569284D01*
X164102684Y-107545866D01*
X164080148Y-107519898D01*
X164060188Y-107491334D01*
X164052650Y-107478714D01*
X164040896Y-107455442D01*
X164030328Y-107429161D01*
X164021135Y-107400519D01*
X164013501Y-107370164D01*
X164007614Y-107338744D01*
X164003910Y-107309545D01*
X164001678Y-107278663D01*
X164000711Y-107245689D01*
X164000954Y-107211266D01*
G36*
X164193773Y-106536166D02*
X164196283Y-106536649D01*
X164202077Y-106537702D01*
X164210755Y-106539253D01*
X164221916Y-106541234D01*
X164235163Y-106543575D01*
X164250094Y-106546205D01*
X164266310Y-106549056D01*
X164283412Y-106552056D01*
X164301001Y-106555136D01*
X164318676Y-106558226D01*
X164336038Y-106561257D01*
X164352687Y-106564158D01*
X164368225Y-106566859D01*
X164382251Y-106569292D01*
X164394366Y-106571384D01*
X164404170Y-106573068D01*
X164411264Y-106574273D01*
X164415248Y-106574929D01*
X164415972Y-106575030D01*
X164416141Y-106573185D01*
X164416314Y-106567853D01*
X164416488Y-106559338D01*
X164416660Y-106547943D01*
X164416826Y-106533972D01*
X164416983Y-106517730D01*
X164417128Y-106499519D01*
X164417257Y-106479644D01*
X164417367Y-106458409D01*
X164417432Y-106442798D01*
X164417918Y-106310565D01*
X164459944Y-106318013D01*
X164501970Y-106325460D01*
X164503813Y-106332249D01*
X164505124Y-106337069D01*
X164507102Y-106344331D01*
X164509417Y-106352821D01*
X164510612Y-106357205D01*
X164520056Y-106396165D01*
X164527701Y-106436834D01*
X164533390Y-106478072D01*
X164536969Y-106518740D01*
X164538281Y-106557698D01*
X164538284Y-106559661D01*
X164538284Y-106597475D01*
X164543497Y-106598577D01*
X164548371Y-106599531D01*
X164556625Y-106601052D01*
X164567991Y-106603096D01*
X164582203Y-106605617D01*
X164598994Y-106608569D01*
X164618097Y-106611907D01*
X164639246Y-106615585D01*
X164662174Y-106619558D01*
X164686614Y-106623780D01*
X164712300Y-106628205D01*
X164738965Y-106632789D01*
X164766342Y-106637485D01*
X164794165Y-106642248D01*
X164822167Y-106647032D01*
X164850081Y-106651793D01*
X164877641Y-106656484D01*
X164904579Y-106661059D01*
X164930630Y-106665474D01*
X164955527Y-106669683D01*
X164979002Y-106673640D01*
X165000790Y-106677300D01*
X165020624Y-106680617D01*
X165038236Y-106683546D01*
X165053360Y-106686041D01*
X165065731Y-106688056D01*
X165075080Y-106689547D01*
X165081141Y-106690466D01*
X165083247Y-106690743D01*
X165109963Y-106692350D01*
X165135065Y-106691575D01*
X165158310Y-106688498D01*
X165179458Y-106683195D01*
X165198265Y-106675745D01*
X165214492Y-106666226D01*
X165227896Y-106654716D01*
X165238236Y-106641294D01*
X165238771Y-106640400D01*
X165241082Y-106636305D01*
X165243044Y-106632266D01*
X165244687Y-106627940D01*
X165246045Y-106622984D01*
X165247149Y-106617054D01*
X165248031Y-106609809D01*
X165248723Y-106600904D01*
X165249257Y-106589996D01*
X165249664Y-106576742D01*
X165249977Y-106560800D01*
X165250227Y-106541825D01*
X165250446Y-106519476D01*
X165250492Y-106514271D01*
X165251303Y-106420340D01*
X165286609Y-106426550D01*
X165297805Y-106428541D01*
X165307761Y-106430353D01*
X165315857Y-106431870D01*
X165321470Y-106432976D01*
X165323982Y-106433553D01*
X165323995Y-106433558D01*
X165325424Y-106435675D01*
X165327559Y-106440815D01*
X165330197Y-106448319D01*
X165333136Y-106457528D01*
X165336173Y-106467786D01*
X165339105Y-106478434D01*
X165341729Y-106488813D01*
X165343645Y-106497314D01*
X165350635Y-106533966D01*
X165356022Y-106569138D01*
X165359773Y-106602459D01*
X165361855Y-106633557D01*
X165362233Y-106662060D01*
X165360875Y-106687596D01*
X165360796Y-106688429D01*
X165356812Y-106717999D01*
X165350845Y-106744450D01*
X165342842Y-106767925D01*
X165332748Y-106788568D01*
X165320510Y-106806524D01*
X165314113Y-106813956D01*
X165305032Y-106823058D01*
X165295957Y-106830444D01*
X165285615Y-106837044D01*
X165274429Y-106842953D01*
X165253745Y-106851722D01*
X165231224Y-106858370D01*
X165206638Y-106862918D01*
X165179758Y-106865387D01*
X165150356Y-106865796D01*
X165118204Y-106864166D01*
X165083073Y-106860517D01*
X165080610Y-106860202D01*
X165076090Y-106859534D01*
X165068074Y-106858255D01*
X165056799Y-106856407D01*
X165042506Y-106854029D01*
X165025431Y-106851162D01*
X165005814Y-106847846D01*
X164983893Y-106844123D01*
X164959906Y-106840032D01*
X164934092Y-106835615D01*
X164906690Y-106830911D01*
X164877937Y-106825961D01*
X164848072Y-106820807D01*
X164817334Y-106815488D01*
X164802187Y-106812861D01*
X164771486Y-106807539D01*
X164741781Y-106802399D01*
X164713289Y-106797478D01*
X164686228Y-106792813D01*
X164660815Y-106788441D01*
X164637267Y-106784399D01*
X164615803Y-106780725D01*
X164596639Y-106777456D01*
X164579993Y-106774630D01*
X164566084Y-106772282D01*
X164555127Y-106770451D01*
X164547342Y-106769173D01*
X164542945Y-106768486D01*
X164542026Y-106768373D01*
X164540957Y-106768494D01*
X164540113Y-106769124D01*
X164539468Y-106770665D01*
X164538996Y-106773518D01*
X164538670Y-106778086D01*
X164538462Y-106784770D01*
X164538346Y-106793972D01*
X164538296Y-106806093D01*
X164538284Y-106821535D01*
X164538284Y-106880651D01*
X164533071Y-106879652D01*
X164529921Y-106879064D01*
X164523557Y-106877892D01*
X164514499Y-106876229D01*
X164503262Y-106874170D01*
X164490363Y-106871810D01*
X164476320Y-106869244D01*
X164472415Y-106868531D01*
X164416971Y-106858411D01*
X164416971Y-106801515D01*
X164416970Y-106744620D01*
X164303239Y-106724776D01*
X164189508Y-106704933D01*
X164189508Y-106535152D01*
X164193773Y-106536166D01*
X164193773Y-106536166D01*
G37*
X164193773Y-106536166D02*
X164196283Y-106536649D01*
X164202077Y-106537702D01*
X164210755Y-106539253D01*
X164221916Y-106541234D01*
X164235163Y-106543575D01*
X164250094Y-106546205D01*
X164266310Y-106549056D01*
X164283412Y-106552056D01*
X164301001Y-106555136D01*
X164318676Y-106558226D01*
X164336038Y-106561257D01*
X164352687Y-106564158D01*
X164368225Y-106566859D01*
X164382251Y-106569292D01*
X164394366Y-106571384D01*
X164404170Y-106573068D01*
X164411264Y-106574273D01*
X164415248Y-106574929D01*
X164415972Y-106575030D01*
X164416141Y-106573185D01*
X164416314Y-106567853D01*
X164416488Y-106559338D01*
X164416660Y-106547943D01*
X164416826Y-106533972D01*
X164416983Y-106517730D01*
X164417128Y-106499519D01*
X164417257Y-106479644D01*
X164417367Y-106458409D01*
X164417432Y-106442798D01*
X164417918Y-106310565D01*
X164459944Y-106318013D01*
X164501970Y-106325460D01*
X164503813Y-106332249D01*
X164505124Y-106337069D01*
X164507102Y-106344331D01*
X164509417Y-106352821D01*
X164510612Y-106357205D01*
X164520056Y-106396165D01*
X164527701Y-106436834D01*
X164533390Y-106478072D01*
X164536969Y-106518740D01*
X164538281Y-106557698D01*
X164538284Y-106559661D01*
X164538284Y-106597475D01*
X164543497Y-106598577D01*
X164548371Y-106599531D01*
X164556625Y-106601052D01*
X164567991Y-106603096D01*
X164582203Y-106605617D01*
X164598994Y-106608569D01*
X164618097Y-106611907D01*
X164639246Y-106615585D01*
X164662174Y-106619558D01*
X164686614Y-106623780D01*
X164712300Y-106628205D01*
X164738965Y-106632789D01*
X164766342Y-106637485D01*
X164794165Y-106642248D01*
X164822167Y-106647032D01*
X164850081Y-106651793D01*
X164877641Y-106656484D01*
X164904579Y-106661059D01*
X164930630Y-106665474D01*
X164955527Y-106669683D01*
X164979002Y-106673640D01*
X165000790Y-106677300D01*
X165020624Y-106680617D01*
X165038236Y-106683546D01*
X165053360Y-106686041D01*
X165065731Y-106688056D01*
X165075080Y-106689547D01*
X165081141Y-106690466D01*
X165083247Y-106690743D01*
X165109963Y-106692350D01*
X165135065Y-106691575D01*
X165158310Y-106688498D01*
X165179458Y-106683195D01*
X165198265Y-106675745D01*
X165214492Y-106666226D01*
X165227896Y-106654716D01*
X165238236Y-106641294D01*
X165238771Y-106640400D01*
X165241082Y-106636305D01*
X165243044Y-106632266D01*
X165244687Y-106627940D01*
X165246045Y-106622984D01*
X165247149Y-106617054D01*
X165248031Y-106609809D01*
X165248723Y-106600904D01*
X165249257Y-106589996D01*
X165249664Y-106576742D01*
X165249977Y-106560800D01*
X165250227Y-106541825D01*
X165250446Y-106519476D01*
X165250492Y-106514271D01*
X165251303Y-106420340D01*
X165286609Y-106426550D01*
X165297805Y-106428541D01*
X165307761Y-106430353D01*
X165315857Y-106431870D01*
X165321470Y-106432976D01*
X165323982Y-106433553D01*
X165323995Y-106433558D01*
X165325424Y-106435675D01*
X165327559Y-106440815D01*
X165330197Y-106448319D01*
X165333136Y-106457528D01*
X165336173Y-106467786D01*
X165339105Y-106478434D01*
X165341729Y-106488813D01*
X165343645Y-106497314D01*
X165350635Y-106533966D01*
X165356022Y-106569138D01*
X165359773Y-106602459D01*
X165361855Y-106633557D01*
X165362233Y-106662060D01*
X165360875Y-106687596D01*
X165360796Y-106688429D01*
X165356812Y-106717999D01*
X165350845Y-106744450D01*
X165342842Y-106767925D01*
X165332748Y-106788568D01*
X165320510Y-106806524D01*
X165314113Y-106813956D01*
X165305032Y-106823058D01*
X165295957Y-106830444D01*
X165285615Y-106837044D01*
X165274429Y-106842953D01*
X165253745Y-106851722D01*
X165231224Y-106858370D01*
X165206638Y-106862918D01*
X165179758Y-106865387D01*
X165150356Y-106865796D01*
X165118204Y-106864166D01*
X165083073Y-106860517D01*
X165080610Y-106860202D01*
X165076090Y-106859534D01*
X165068074Y-106858255D01*
X165056799Y-106856407D01*
X165042506Y-106854029D01*
X165025431Y-106851162D01*
X165005814Y-106847846D01*
X164983893Y-106844123D01*
X164959906Y-106840032D01*
X164934092Y-106835615D01*
X164906690Y-106830911D01*
X164877937Y-106825961D01*
X164848072Y-106820807D01*
X164817334Y-106815488D01*
X164802187Y-106812861D01*
X164771486Y-106807539D01*
X164741781Y-106802399D01*
X164713289Y-106797478D01*
X164686228Y-106792813D01*
X164660815Y-106788441D01*
X164637267Y-106784399D01*
X164615803Y-106780725D01*
X164596639Y-106777456D01*
X164579993Y-106774630D01*
X164566084Y-106772282D01*
X164555127Y-106770451D01*
X164547342Y-106769173D01*
X164542945Y-106768486D01*
X164542026Y-106768373D01*
X164540957Y-106768494D01*
X164540113Y-106769124D01*
X164539468Y-106770665D01*
X164538996Y-106773518D01*
X164538670Y-106778086D01*
X164538462Y-106784770D01*
X164538346Y-106793972D01*
X164538296Y-106806093D01*
X164538284Y-106821535D01*
X164538284Y-106880651D01*
X164533071Y-106879652D01*
X164529921Y-106879064D01*
X164523557Y-106877892D01*
X164514499Y-106876229D01*
X164503262Y-106874170D01*
X164490363Y-106871810D01*
X164476320Y-106869244D01*
X164472415Y-106868531D01*
X164416971Y-106858411D01*
X164416971Y-106801515D01*
X164416970Y-106744620D01*
X164303239Y-106724776D01*
X164189508Y-106704933D01*
X164189508Y-106535152D01*
X164193773Y-106536166D01*
G36*
X164380320Y-105772476D02*
X164380863Y-105753238D01*
X164381708Y-105735539D01*
X164382855Y-105720139D01*
X164383544Y-105713515D01*
X164387623Y-105683789D01*
X164392905Y-105653495D01*
X164399213Y-105623348D01*
X164406371Y-105594064D01*
X164414203Y-105566359D01*
X164422532Y-105540947D01*
X164431184Y-105518545D01*
X164431971Y-105516704D01*
X164434470Y-105511378D01*
X164436532Y-105508839D01*
X164439034Y-105508316D01*
X164441136Y-105508655D01*
X164443456Y-105509078D01*
X164449347Y-105510125D01*
X164458642Y-105511766D01*
X164471179Y-105513973D01*
X164486792Y-105516717D01*
X164505316Y-105519970D01*
X164526588Y-105523701D01*
X164550442Y-105527884D01*
X164576714Y-105532487D01*
X164605239Y-105537484D01*
X164635853Y-105542845D01*
X164668391Y-105548540D01*
X164702689Y-105554542D01*
X164738582Y-105560822D01*
X164775906Y-105567350D01*
X164814495Y-105574098D01*
X164854186Y-105581037D01*
X164890851Y-105587446D01*
X164931382Y-105594530D01*
X164970953Y-105601449D01*
X165009400Y-105608174D01*
X165046559Y-105614675D01*
X165082266Y-105620925D01*
X165116356Y-105626893D01*
X165148666Y-105632553D01*
X165179032Y-105637873D01*
X165207289Y-105642827D01*
X165233273Y-105647385D01*
X165256821Y-105651518D01*
X165277767Y-105655198D01*
X165295949Y-105658396D01*
X165311201Y-105661083D01*
X165323360Y-105663230D01*
X165332262Y-105664808D01*
X165337742Y-105665790D01*
X165339616Y-105666139D01*
X165343881Y-105667147D01*
X165343881Y-105807344D01*
X165287015Y-105807344D01*
X165287015Y-105812167D01*
X165288190Y-105816021D01*
X165291517Y-105822251D01*
X165296702Y-105830339D01*
X165300235Y-105835388D01*
X165319134Y-105864897D01*
X165334685Y-105896095D01*
X165346845Y-105928814D01*
X165355570Y-105962882D01*
X165360818Y-105998131D01*
X165362544Y-106034392D01*
X165360727Y-106071260D01*
X165356786Y-106099685D01*
X165350689Y-106126205D01*
X165342561Y-106150471D01*
X165332527Y-106172136D01*
X165320711Y-106190851D01*
X165315715Y-106197194D01*
X165300369Y-106213408D01*
X165283176Y-106227573D01*
X165263887Y-106239798D01*
X165242251Y-106250189D01*
X165218016Y-106258853D01*
X165190932Y-106265898D01*
X165160748Y-106271430D01*
X165133791Y-106274883D01*
X165107692Y-106276758D01*
X165078380Y-106277178D01*
X165071057Y-106276950D01*
X165071057Y-106104957D01*
X165101671Y-106103117D01*
X165129340Y-106099410D01*
X165153959Y-106093840D01*
X165175426Y-106086411D01*
X165185476Y-106081730D01*
X165198602Y-106073634D01*
X165211160Y-106063437D01*
X165222238Y-106052014D01*
X165230924Y-106040244D01*
X165233621Y-106035444D01*
X165240846Y-106017596D01*
X165245983Y-105997144D01*
X165248964Y-105974691D01*
X165249721Y-105950840D01*
X165248188Y-105926193D01*
X165246931Y-105916336D01*
X165240945Y-105886827D01*
X165231705Y-105857088D01*
X165221239Y-105831783D01*
X165212774Y-105813574D01*
X165178339Y-105807501D01*
X165172758Y-105806516D01*
X165163661Y-105804911D01*
X165151265Y-105802723D01*
X165135787Y-105799992D01*
X165117444Y-105796754D01*
X165096453Y-105793049D01*
X165073031Y-105788914D01*
X165047394Y-105784389D01*
X165019761Y-105779511D01*
X164990348Y-105774319D01*
X164959373Y-105768851D01*
X164927051Y-105763145D01*
X164893601Y-105757240D01*
X164859239Y-105751174D01*
X164824183Y-105744986D01*
X164818821Y-105744039D01*
X164784263Y-105737944D01*
X164750709Y-105732037D01*
X164718350Y-105726352D01*
X164687376Y-105720920D01*
X164657978Y-105715776D01*
X164630347Y-105710953D01*
X164604672Y-105706483D01*
X164581144Y-105702399D01*
X164559954Y-105698735D01*
X164541291Y-105695523D01*
X164525347Y-105692797D01*
X164512312Y-105690589D01*
X164502377Y-105688933D01*
X164495731Y-105687862D01*
X164492565Y-105687409D01*
X164492317Y-105687400D01*
X164491901Y-105689454D01*
X164491561Y-105694807D01*
X164491296Y-105702969D01*
X164491105Y-105713448D01*
X164490986Y-105725755D01*
X164490937Y-105739399D01*
X164490957Y-105753888D01*
X164491043Y-105768732D01*
X164491195Y-105783441D01*
X164491409Y-105797523D01*
X164491685Y-105810487D01*
X164492022Y-105821844D01*
X164492416Y-105831101D01*
X164492841Y-105837489D01*
X164496282Y-105863240D01*
X164501946Y-105886314D01*
X164510086Y-105907276D01*
X164520958Y-105926688D01*
X164534815Y-105945115D01*
X164547698Y-105959004D01*
X164556759Y-105967519D01*
X164566997Y-105976310D01*
X164577066Y-105984256D01*
X164583776Y-105989040D01*
X164593922Y-105995340D01*
X164606736Y-106002584D01*
X164621351Y-106010339D01*
X164636902Y-106018173D01*
X164652524Y-106025655D01*
X164667351Y-106032353D01*
X164680517Y-106037835D01*
X164685084Y-106039576D01*
X164711288Y-106048449D01*
X164741147Y-106057126D01*
X164774529Y-106065576D01*
X164811301Y-106073768D01*
X164851332Y-106081674D01*
X164894489Y-106089262D01*
X164921179Y-106093549D01*
X164962556Y-106099226D01*
X165001397Y-106103016D01*
X165037598Y-106104925D01*
X165071057Y-106104957D01*
X165071057Y-106276950D01*
X165046128Y-106276173D01*
X165011214Y-106273770D01*
X164973911Y-106270001D01*
X164934494Y-106264894D01*
X164893238Y-106258477D01*
X164850419Y-106250782D01*
X164806311Y-106241836D01*
X164790388Y-106238363D01*
X164740613Y-106226287D01*
X164694391Y-106212950D01*
X164651697Y-106198339D01*
X164612506Y-106182442D01*
X164576791Y-106165246D01*
X164544528Y-106146740D01*
X164515691Y-106126911D01*
X164490253Y-106105746D01*
X164468546Y-106083639D01*
X164450023Y-106060798D01*
X164433959Y-106036905D01*
X164420194Y-106011570D01*
X164408564Y-105984401D01*
X164398910Y-105955008D01*
X164391069Y-105923001D01*
X164384880Y-105887989D01*
X164383432Y-105877677D01*
X164382153Y-105865159D01*
X164381178Y-105849622D01*
X164380508Y-105831825D01*
X164380142Y-105812529D01*
X164380079Y-105792493D01*
X164380320Y-105772476D01*
X164380320Y-105772476D01*
G37*
X164380320Y-105772476D02*
X164380863Y-105753238D01*
X164381708Y-105735539D01*
X164382855Y-105720139D01*
X164383544Y-105713515D01*
X164387623Y-105683789D01*
X164392905Y-105653495D01*
X164399213Y-105623348D01*
X164406371Y-105594064D01*
X164414203Y-105566359D01*
X164422532Y-105540947D01*
X164431184Y-105518545D01*
X164431971Y-105516704D01*
X164434470Y-105511378D01*
X164436532Y-105508839D01*
X164439034Y-105508316D01*
X164441136Y-105508655D01*
X164443456Y-105509078D01*
X164449347Y-105510125D01*
X164458642Y-105511766D01*
X164471179Y-105513973D01*
X164486792Y-105516717D01*
X164505316Y-105519970D01*
X164526588Y-105523701D01*
X164550442Y-105527884D01*
X164576714Y-105532487D01*
X164605239Y-105537484D01*
X164635853Y-105542845D01*
X164668391Y-105548540D01*
X164702689Y-105554542D01*
X164738582Y-105560822D01*
X164775906Y-105567350D01*
X164814495Y-105574098D01*
X164854186Y-105581037D01*
X164890851Y-105587446D01*
X164931382Y-105594530D01*
X164970953Y-105601449D01*
X165009400Y-105608174D01*
X165046559Y-105614675D01*
X165082266Y-105620925D01*
X165116356Y-105626893D01*
X165148666Y-105632553D01*
X165179032Y-105637873D01*
X165207289Y-105642827D01*
X165233273Y-105647385D01*
X165256821Y-105651518D01*
X165277767Y-105655198D01*
X165295949Y-105658396D01*
X165311201Y-105661083D01*
X165323360Y-105663230D01*
X165332262Y-105664808D01*
X165337742Y-105665790D01*
X165339616Y-105666139D01*
X165343881Y-105667147D01*
X165343881Y-105807344D01*
X165287015Y-105807344D01*
X165287015Y-105812167D01*
X165288190Y-105816021D01*
X165291517Y-105822251D01*
X165296702Y-105830339D01*
X165300235Y-105835388D01*
X165319134Y-105864897D01*
X165334685Y-105896095D01*
X165346845Y-105928814D01*
X165355570Y-105962882D01*
X165360818Y-105998131D01*
X165362544Y-106034392D01*
X165360727Y-106071260D01*
X165356786Y-106099685D01*
X165350689Y-106126205D01*
X165342561Y-106150471D01*
X165332527Y-106172136D01*
X165320711Y-106190851D01*
X165315715Y-106197194D01*
X165300369Y-106213408D01*
X165283176Y-106227573D01*
X165263887Y-106239798D01*
X165242251Y-106250189D01*
X165218016Y-106258853D01*
X165190932Y-106265898D01*
X165160748Y-106271430D01*
X165133791Y-106274883D01*
X165107692Y-106276758D01*
X165078380Y-106277178D01*
X165071057Y-106276950D01*
X165071057Y-106104957D01*
X165101671Y-106103117D01*
X165129340Y-106099410D01*
X165153959Y-106093840D01*
X165175426Y-106086411D01*
X165185476Y-106081730D01*
X165198602Y-106073634D01*
X165211160Y-106063437D01*
X165222238Y-106052014D01*
X165230924Y-106040244D01*
X165233621Y-106035444D01*
X165240846Y-106017596D01*
X165245983Y-105997144D01*
X165248964Y-105974691D01*
X165249721Y-105950840D01*
X165248188Y-105926193D01*
X165246931Y-105916336D01*
X165240945Y-105886827D01*
X165231705Y-105857088D01*
X165221239Y-105831783D01*
X165212774Y-105813574D01*
X165178339Y-105807501D01*
X165172758Y-105806516D01*
X165163661Y-105804911D01*
X165151265Y-105802723D01*
X165135787Y-105799992D01*
X165117444Y-105796754D01*
X165096453Y-105793049D01*
X165073031Y-105788914D01*
X165047394Y-105784389D01*
X165019761Y-105779511D01*
X164990348Y-105774319D01*
X164959373Y-105768851D01*
X164927051Y-105763145D01*
X164893601Y-105757240D01*
X164859239Y-105751174D01*
X164824183Y-105744986D01*
X164818821Y-105744039D01*
X164784263Y-105737944D01*
X164750709Y-105732037D01*
X164718350Y-105726352D01*
X164687376Y-105720920D01*
X164657978Y-105715776D01*
X164630347Y-105710953D01*
X164604672Y-105706483D01*
X164581144Y-105702399D01*
X164559954Y-105698735D01*
X164541291Y-105695523D01*
X164525347Y-105692797D01*
X164512312Y-105690589D01*
X164502377Y-105688933D01*
X164495731Y-105687862D01*
X164492565Y-105687409D01*
X164492317Y-105687400D01*
X164491901Y-105689454D01*
X164491561Y-105694807D01*
X164491296Y-105702969D01*
X164491105Y-105713448D01*
X164490986Y-105725755D01*
X164490937Y-105739399D01*
X164490957Y-105753888D01*
X164491043Y-105768732D01*
X164491195Y-105783441D01*
X164491409Y-105797523D01*
X164491685Y-105810487D01*
X164492022Y-105821844D01*
X164492416Y-105831101D01*
X164492841Y-105837489D01*
X164496282Y-105863240D01*
X164501946Y-105886314D01*
X164510086Y-105907276D01*
X164520958Y-105926688D01*
X164534815Y-105945115D01*
X164547698Y-105959004D01*
X164556759Y-105967519D01*
X164566997Y-105976310D01*
X164577066Y-105984256D01*
X164583776Y-105989040D01*
X164593922Y-105995340D01*
X164606736Y-106002584D01*
X164621351Y-106010339D01*
X164636902Y-106018173D01*
X164652524Y-106025655D01*
X164667351Y-106032353D01*
X164680517Y-106037835D01*
X164685084Y-106039576D01*
X164711288Y-106048449D01*
X164741147Y-106057126D01*
X164774529Y-106065576D01*
X164811301Y-106073768D01*
X164851332Y-106081674D01*
X164894489Y-106089262D01*
X164921179Y-106093549D01*
X164962556Y-106099226D01*
X165001397Y-106103016D01*
X165037598Y-106104925D01*
X165071057Y-106104957D01*
X165071057Y-106276950D01*
X165046128Y-106276173D01*
X165011214Y-106273770D01*
X164973911Y-106270001D01*
X164934494Y-106264894D01*
X164893238Y-106258477D01*
X164850419Y-106250782D01*
X164806311Y-106241836D01*
X164790388Y-106238363D01*
X164740613Y-106226287D01*
X164694391Y-106212950D01*
X164651697Y-106198339D01*
X164612506Y-106182442D01*
X164576791Y-106165246D01*
X164544528Y-106146740D01*
X164515691Y-106126911D01*
X164490253Y-106105746D01*
X164468546Y-106083639D01*
X164450023Y-106060798D01*
X164433959Y-106036905D01*
X164420194Y-106011570D01*
X164408564Y-105984401D01*
X164398910Y-105955008D01*
X164391069Y-105923001D01*
X164384880Y-105887989D01*
X164383432Y-105877677D01*
X164382153Y-105865159D01*
X164381178Y-105849622D01*
X164380508Y-105831825D01*
X164380142Y-105812529D01*
X164380079Y-105792493D01*
X164380320Y-105772476D01*
G36*
X164380278Y-104928016D02*
X164380658Y-104910353D01*
X164381308Y-104893814D01*
X164382223Y-104879216D01*
X164383397Y-104867375D01*
X164383480Y-104866740D01*
X164386260Y-104847523D01*
X164389617Y-104827217D01*
X164393330Y-104807030D01*
X164397175Y-104788171D01*
X164400930Y-104771847D01*
X164401031Y-104771441D01*
X164403732Y-104761084D01*
X164406679Y-104750580D01*
X164409650Y-104740641D01*
X164412422Y-104731976D01*
X164414774Y-104725294D01*
X164416484Y-104721305D01*
X164416916Y-104720646D01*
X164419124Y-104720485D01*
X164424468Y-104720927D01*
X164432352Y-104721899D01*
X164442182Y-104723327D01*
X164453364Y-104725136D01*
X164454591Y-104725345D01*
X164490896Y-104731555D01*
X164490912Y-104823527D01*
X164490955Y-104842923D01*
X164491072Y-104862039D01*
X164491253Y-104880363D01*
X164491492Y-104897381D01*
X164491779Y-104912579D01*
X164492107Y-104925443D01*
X164492468Y-104935460D01*
X164492788Y-104941284D01*
X164496362Y-104971020D01*
X164502677Y-104998244D01*
X164511852Y-105023176D01*
X164524002Y-105046037D01*
X164539242Y-105067048D01*
X164557689Y-105086430D01*
X164577782Y-105103156D01*
X164597428Y-105116840D01*
X164618691Y-105129551D01*
X164641807Y-105141369D01*
X164667010Y-105152376D01*
X164694538Y-105162650D01*
X164724624Y-105172272D01*
X164757506Y-105181323D01*
X164793418Y-105189881D01*
X164832596Y-105198028D01*
X164875276Y-105205843D01*
X164884111Y-105207350D01*
X164913151Y-105212115D01*
X164939001Y-105216056D01*
X164962161Y-105219221D01*
X164983132Y-105221659D01*
X165002413Y-105223418D01*
X165020505Y-105224545D01*
X165037907Y-105225088D01*
X165055120Y-105225096D01*
X165066187Y-105224845D01*
X165094275Y-105223244D01*
X165119123Y-105220221D01*
X165141041Y-105215681D01*
X165160342Y-105209531D01*
X165177337Y-105201675D01*
X165192335Y-105192020D01*
X165202612Y-105183399D01*
X165214596Y-105171085D01*
X165224150Y-105158519D01*
X165231711Y-105144876D01*
X165237721Y-105129331D01*
X165242617Y-105111058D01*
X165243660Y-105106245D01*
X165245214Y-105097838D01*
X165246549Y-105088388D01*
X165247679Y-105077587D01*
X165248616Y-105065129D01*
X165249374Y-105050709D01*
X165249967Y-105034020D01*
X165250408Y-105014757D01*
X165250710Y-104992612D01*
X165250886Y-104967281D01*
X165250951Y-104939431D01*
X165251000Y-104847735D01*
X165256213Y-104848721D01*
X165259788Y-104849360D01*
X165266353Y-104850500D01*
X165275162Y-104852012D01*
X165285466Y-104853769D01*
X165293164Y-104855073D01*
X165324902Y-104860441D01*
X165328672Y-104871859D01*
X165332720Y-104885394D01*
X165336989Y-104901949D01*
X165341328Y-104920771D01*
X165345583Y-104941105D01*
X165349602Y-104962200D01*
X165353233Y-104983301D01*
X165356324Y-105003656D01*
X165358182Y-105017858D01*
X165359051Y-105026855D01*
X165359860Y-105038530D01*
X165360588Y-105052120D01*
X165361210Y-105066865D01*
X165361703Y-105082001D01*
X165362045Y-105096769D01*
X165362212Y-105110405D01*
X165362181Y-105122148D01*
X165361930Y-105131236D01*
X165361723Y-105134433D01*
X165358664Y-105165263D01*
X165354937Y-105192712D01*
X165350417Y-105217153D01*
X165344975Y-105238958D01*
X165338486Y-105258500D01*
X165330822Y-105276149D01*
X165321857Y-105292279D01*
X165311463Y-105307262D01*
X165299514Y-105321470D01*
X165297074Y-105324095D01*
X165280525Y-105339691D01*
X165262192Y-105353154D01*
X165241756Y-105364628D01*
X165218897Y-105374260D01*
X165193293Y-105382193D01*
X165164625Y-105388572D01*
X165148642Y-105391287D01*
X165134487Y-105392997D01*
X165117396Y-105394291D01*
X165098204Y-105395156D01*
X165077745Y-105395581D01*
X165056852Y-105395553D01*
X165036361Y-105395060D01*
X165017105Y-105394089D01*
X165007426Y-105393355D01*
X164973396Y-105389862D01*
X164936786Y-105385110D01*
X164898528Y-105379263D01*
X164859556Y-105372484D01*
X164820801Y-105364939D01*
X164783198Y-105356789D01*
X164747680Y-105348200D01*
X164742053Y-105346744D01*
X164694570Y-105333140D01*
X164650573Y-105318062D01*
X164610053Y-105301506D01*
X164573000Y-105283466D01*
X164539404Y-105263934D01*
X164509257Y-105242906D01*
X164482548Y-105220376D01*
X164459269Y-105196338D01*
X164439408Y-105170786D01*
X164428347Y-105153395D01*
X164416800Y-105130975D01*
X164406439Y-105105473D01*
X164397440Y-105077459D01*
X164389979Y-105047506D01*
X164384231Y-105016184D01*
X164382603Y-105004590D01*
X164381557Y-104993565D01*
X164380807Y-104979577D01*
X164380347Y-104963446D01*
X164380172Y-104945986D01*
X164380278Y-104928016D01*
X164380278Y-104928016D01*
G37*
X164380278Y-104928016D02*
X164380658Y-104910353D01*
X164381308Y-104893814D01*
X164382223Y-104879216D01*
X164383397Y-104867375D01*
X164383480Y-104866740D01*
X164386260Y-104847523D01*
X164389617Y-104827217D01*
X164393330Y-104807030D01*
X164397175Y-104788171D01*
X164400930Y-104771847D01*
X164401031Y-104771441D01*
X164403732Y-104761084D01*
X164406679Y-104750580D01*
X164409650Y-104740641D01*
X164412422Y-104731976D01*
X164414774Y-104725294D01*
X164416484Y-104721305D01*
X164416916Y-104720646D01*
X164419124Y-104720485D01*
X164424468Y-104720927D01*
X164432352Y-104721899D01*
X164442182Y-104723327D01*
X164453364Y-104725136D01*
X164454591Y-104725345D01*
X164490896Y-104731555D01*
X164490912Y-104823527D01*
X164490955Y-104842923D01*
X164491072Y-104862039D01*
X164491253Y-104880363D01*
X164491492Y-104897381D01*
X164491779Y-104912579D01*
X164492107Y-104925443D01*
X164492468Y-104935460D01*
X164492788Y-104941284D01*
X164496362Y-104971020D01*
X164502677Y-104998244D01*
X164511852Y-105023176D01*
X164524002Y-105046037D01*
X164539242Y-105067048D01*
X164557689Y-105086430D01*
X164577782Y-105103156D01*
X164597428Y-105116840D01*
X164618691Y-105129551D01*
X164641807Y-105141369D01*
X164667010Y-105152376D01*
X164694538Y-105162650D01*
X164724624Y-105172272D01*
X164757506Y-105181323D01*
X164793418Y-105189881D01*
X164832596Y-105198028D01*
X164875276Y-105205843D01*
X164884111Y-105207350D01*
X164913151Y-105212115D01*
X164939001Y-105216056D01*
X164962161Y-105219221D01*
X164983132Y-105221659D01*
X165002413Y-105223418D01*
X165020505Y-105224545D01*
X165037907Y-105225088D01*
X165055120Y-105225096D01*
X165066187Y-105224845D01*
X165094275Y-105223244D01*
X165119123Y-105220221D01*
X165141041Y-105215681D01*
X165160342Y-105209531D01*
X165177337Y-105201675D01*
X165192335Y-105192020D01*
X165202612Y-105183399D01*
X165214596Y-105171085D01*
X165224150Y-105158519D01*
X165231711Y-105144876D01*
X165237721Y-105129331D01*
X165242617Y-105111058D01*
X165243660Y-105106245D01*
X165245214Y-105097838D01*
X165246549Y-105088388D01*
X165247679Y-105077587D01*
X165248616Y-105065129D01*
X165249374Y-105050709D01*
X165249967Y-105034020D01*
X165250408Y-105014757D01*
X165250710Y-104992612D01*
X165250886Y-104967281D01*
X165250951Y-104939431D01*
X165251000Y-104847735D01*
X165256213Y-104848721D01*
X165259788Y-104849360D01*
X165266353Y-104850500D01*
X165275162Y-104852012D01*
X165285466Y-104853769D01*
X165293164Y-104855073D01*
X165324902Y-104860441D01*
X165328672Y-104871859D01*
X165332720Y-104885394D01*
X165336989Y-104901949D01*
X165341328Y-104920771D01*
X165345583Y-104941105D01*
X165349602Y-104962200D01*
X165353233Y-104983301D01*
X165356324Y-105003656D01*
X165358182Y-105017858D01*
X165359051Y-105026855D01*
X165359860Y-105038530D01*
X165360588Y-105052120D01*
X165361210Y-105066865D01*
X165361703Y-105082001D01*
X165362045Y-105096769D01*
X165362212Y-105110405D01*
X165362181Y-105122148D01*
X165361930Y-105131236D01*
X165361723Y-105134433D01*
X165358664Y-105165263D01*
X165354937Y-105192712D01*
X165350417Y-105217153D01*
X165344975Y-105238958D01*
X165338486Y-105258500D01*
X165330822Y-105276149D01*
X165321857Y-105292279D01*
X165311463Y-105307262D01*
X165299514Y-105321470D01*
X165297074Y-105324095D01*
X165280525Y-105339691D01*
X165262192Y-105353154D01*
X165241756Y-105364628D01*
X165218897Y-105374260D01*
X165193293Y-105382193D01*
X165164625Y-105388572D01*
X165148642Y-105391287D01*
X165134487Y-105392997D01*
X165117396Y-105394291D01*
X165098204Y-105395156D01*
X165077745Y-105395581D01*
X165056852Y-105395553D01*
X165036361Y-105395060D01*
X165017105Y-105394089D01*
X165007426Y-105393355D01*
X164973396Y-105389862D01*
X164936786Y-105385110D01*
X164898528Y-105379263D01*
X164859556Y-105372484D01*
X164820801Y-105364939D01*
X164783198Y-105356789D01*
X164747680Y-105348200D01*
X164742053Y-105346744D01*
X164694570Y-105333140D01*
X164650573Y-105318062D01*
X164610053Y-105301506D01*
X164573000Y-105283466D01*
X164539404Y-105263934D01*
X164509257Y-105242906D01*
X164482548Y-105220376D01*
X164459269Y-105196338D01*
X164439408Y-105170786D01*
X164428347Y-105153395D01*
X164416800Y-105130975D01*
X164406439Y-105105473D01*
X164397440Y-105077459D01*
X164389979Y-105047506D01*
X164384231Y-105016184D01*
X164382603Y-105004590D01*
X164381557Y-104993565D01*
X164380807Y-104979577D01*
X164380347Y-104963446D01*
X164380172Y-104945986D01*
X164380278Y-104928016D01*
G36*
X164024123Y-111024571D02*
X164027264Y-111025143D01*
X164033632Y-111026253D01*
X164042718Y-111027814D01*
X164054010Y-111029738D01*
X164066997Y-111031939D01*
X164081169Y-111034329D01*
X164086202Y-111035175D01*
X164100605Y-111037602D01*
X164113947Y-111039866D01*
X164125729Y-111041879D01*
X164135451Y-111043556D01*
X164142611Y-111044810D01*
X164146709Y-111045557D01*
X164147332Y-111045684D01*
X164151597Y-111046640D01*
X164151597Y-111519663D01*
X164381429Y-111560855D01*
X164410435Y-111566050D01*
X164438420Y-111571055D01*
X164465156Y-111575829D01*
X164490415Y-111580332D01*
X164513969Y-111584524D01*
X164535590Y-111588364D01*
X164555049Y-111591811D01*
X164572119Y-111594826D01*
X164586571Y-111597368D01*
X164598178Y-111599396D01*
X164606710Y-111600871D01*
X164611940Y-111601751D01*
X164613631Y-111602001D01*
X164614024Y-111601297D01*
X164614375Y-111599078D01*
X164614684Y-111595164D01*
X164614954Y-111589373D01*
X164615188Y-111581525D01*
X164615387Y-111571437D01*
X164615554Y-111558930D01*
X164615691Y-111543821D01*
X164615800Y-111525930D01*
X164615883Y-111505074D01*
X164615942Y-111481074D01*
X164615979Y-111453748D01*
X164615998Y-111422914D01*
X164616000Y-111403873D01*
X164616009Y-111370989D01*
X164616035Y-111341714D01*
X164616082Y-111315868D01*
X164616151Y-111293270D01*
X164616244Y-111273737D01*
X164616364Y-111257090D01*
X164616514Y-111243147D01*
X164616694Y-111231726D01*
X164616908Y-111222646D01*
X164617156Y-111215727D01*
X164617443Y-111210786D01*
X164617769Y-111207644D01*
X164618137Y-111206117D01*
X164618370Y-111205902D01*
X164620745Y-111206242D01*
X164626401Y-111207159D01*
X164634883Y-111208576D01*
X164645738Y-111210414D01*
X164658511Y-111212599D01*
X164672748Y-111215052D01*
X164683291Y-111216880D01*
X164745844Y-111227748D01*
X164746791Y-111426667D01*
X164747739Y-111625586D01*
X164978045Y-111665781D01*
X165008597Y-111671113D01*
X165039115Y-111676439D01*
X165069275Y-111681703D01*
X165098756Y-111686849D01*
X165127235Y-111691819D01*
X165154390Y-111696559D01*
X165179897Y-111701011D01*
X165203436Y-111705119D01*
X165224682Y-111708828D01*
X165243314Y-111712080D01*
X165259010Y-111714820D01*
X165271447Y-111716991D01*
X165276116Y-111717806D01*
X165343881Y-111729636D01*
X165343881Y-111899097D01*
X165330138Y-111896556D01*
X165327241Y-111896038D01*
X165320748Y-111894889D01*
X165310797Y-111893134D01*
X165297529Y-111890797D01*
X165281080Y-111887902D01*
X165261589Y-111884474D01*
X165239196Y-111880537D01*
X165214038Y-111876115D01*
X165186254Y-111871233D01*
X165155982Y-111865915D01*
X165123361Y-111860185D01*
X165088530Y-111854068D01*
X165051626Y-111847588D01*
X165012789Y-111840769D01*
X164972157Y-111833636D01*
X164929868Y-111826212D01*
X164886061Y-111818523D01*
X164840874Y-111810593D01*
X164794447Y-111802445D01*
X164746916Y-111794105D01*
X164698422Y-111785596D01*
X164672866Y-111781113D01*
X164624021Y-111772543D01*
X164576113Y-111764136D01*
X164529278Y-111755918D01*
X164483652Y-111747910D01*
X164439372Y-111740138D01*
X164396573Y-111732625D01*
X164355392Y-111725396D01*
X164315964Y-111718473D01*
X164278427Y-111711882D01*
X164242915Y-111705645D01*
X164209564Y-111699787D01*
X164178512Y-111694332D01*
X164149894Y-111689303D01*
X164123846Y-111684725D01*
X164100505Y-111680621D01*
X164080006Y-111677016D01*
X164062485Y-111673932D01*
X164048079Y-111671395D01*
X164036923Y-111669428D01*
X164029154Y-111668055D01*
X164024908Y-111667299D01*
X164024123Y-111667156D01*
X164018911Y-111666102D01*
X164018911Y-111023520D01*
X164024123Y-111024571D01*
X164024123Y-111024571D01*
G37*
X164024123Y-111024571D02*
X164027264Y-111025143D01*
X164033632Y-111026253D01*
X164042718Y-111027814D01*
X164054010Y-111029738D01*
X164066997Y-111031939D01*
X164081169Y-111034329D01*
X164086202Y-111035175D01*
X164100605Y-111037602D01*
X164113947Y-111039866D01*
X164125729Y-111041879D01*
X164135451Y-111043556D01*
X164142611Y-111044810D01*
X164146709Y-111045557D01*
X164147332Y-111045684D01*
X164151597Y-111046640D01*
X164151597Y-111519663D01*
X164381429Y-111560855D01*
X164410435Y-111566050D01*
X164438420Y-111571055D01*
X164465156Y-111575829D01*
X164490415Y-111580332D01*
X164513969Y-111584524D01*
X164535590Y-111588364D01*
X164555049Y-111591811D01*
X164572119Y-111594826D01*
X164586571Y-111597368D01*
X164598178Y-111599396D01*
X164606710Y-111600871D01*
X164611940Y-111601751D01*
X164613631Y-111602001D01*
X164614024Y-111601297D01*
X164614375Y-111599078D01*
X164614684Y-111595164D01*
X164614954Y-111589373D01*
X164615188Y-111581525D01*
X164615387Y-111571437D01*
X164615554Y-111558930D01*
X164615691Y-111543821D01*
X164615800Y-111525930D01*
X164615883Y-111505074D01*
X164615942Y-111481074D01*
X164615979Y-111453748D01*
X164615998Y-111422914D01*
X164616000Y-111403873D01*
X164616009Y-111370989D01*
X164616035Y-111341714D01*
X164616082Y-111315868D01*
X164616151Y-111293270D01*
X164616244Y-111273737D01*
X164616364Y-111257090D01*
X164616514Y-111243147D01*
X164616694Y-111231726D01*
X164616908Y-111222646D01*
X164617156Y-111215727D01*
X164617443Y-111210786D01*
X164617769Y-111207644D01*
X164618137Y-111206117D01*
X164618370Y-111205902D01*
X164620745Y-111206242D01*
X164626401Y-111207159D01*
X164634883Y-111208576D01*
X164645738Y-111210414D01*
X164658511Y-111212599D01*
X164672748Y-111215052D01*
X164683291Y-111216880D01*
X164745844Y-111227748D01*
X164746791Y-111426667D01*
X164747739Y-111625586D01*
X164978045Y-111665781D01*
X165008597Y-111671113D01*
X165039115Y-111676439D01*
X165069275Y-111681703D01*
X165098756Y-111686849D01*
X165127235Y-111691819D01*
X165154390Y-111696559D01*
X165179897Y-111701011D01*
X165203436Y-111705119D01*
X165224682Y-111708828D01*
X165243314Y-111712080D01*
X165259010Y-111714820D01*
X165271447Y-111716991D01*
X165276116Y-111717806D01*
X165343881Y-111729636D01*
X165343881Y-111899097D01*
X165330138Y-111896556D01*
X165327241Y-111896038D01*
X165320748Y-111894889D01*
X165310797Y-111893134D01*
X165297529Y-111890797D01*
X165281080Y-111887902D01*
X165261589Y-111884474D01*
X165239196Y-111880537D01*
X165214038Y-111876115D01*
X165186254Y-111871233D01*
X165155982Y-111865915D01*
X165123361Y-111860185D01*
X165088530Y-111854068D01*
X165051626Y-111847588D01*
X165012789Y-111840769D01*
X164972157Y-111833636D01*
X164929868Y-111826212D01*
X164886061Y-111818523D01*
X164840874Y-111810593D01*
X164794447Y-111802445D01*
X164746916Y-111794105D01*
X164698422Y-111785596D01*
X164672866Y-111781113D01*
X164624021Y-111772543D01*
X164576113Y-111764136D01*
X164529278Y-111755918D01*
X164483652Y-111747910D01*
X164439372Y-111740138D01*
X164396573Y-111732625D01*
X164355392Y-111725396D01*
X164315964Y-111718473D01*
X164278427Y-111711882D01*
X164242915Y-111705645D01*
X164209564Y-111699787D01*
X164178512Y-111694332D01*
X164149894Y-111689303D01*
X164123846Y-111684725D01*
X164100505Y-111680621D01*
X164080006Y-111677016D01*
X164062485Y-111673932D01*
X164048079Y-111671395D01*
X164036923Y-111669428D01*
X164029154Y-111668055D01*
X164024908Y-111667299D01*
X164024123Y-111667156D01*
X164018911Y-111666102D01*
X164018911Y-111023520D01*
X164024123Y-111024571D01*
G36*
X164018922Y-110748633D02*
X164018964Y-110731865D01*
X164019047Y-110718251D01*
X164019183Y-110707473D01*
X164019382Y-110699213D01*
X164019656Y-110693152D01*
X164020015Y-110688971D01*
X164020471Y-110686353D01*
X164021035Y-110684979D01*
X164021717Y-110684530D01*
X164021837Y-110684523D01*
X164023814Y-110684846D01*
X164029364Y-110685795D01*
X164038322Y-110687344D01*
X164050527Y-110689462D01*
X164065816Y-110692122D01*
X164084028Y-110695295D01*
X164104998Y-110698952D01*
X164128566Y-110703066D01*
X164154568Y-110707607D01*
X164182843Y-110712548D01*
X164213227Y-110717859D01*
X164245559Y-110723513D01*
X164279676Y-110729481D01*
X164315415Y-110735734D01*
X164352614Y-110742243D01*
X164391111Y-110748982D01*
X164430743Y-110755920D01*
X164471348Y-110763030D01*
X164512764Y-110770283D01*
X164554827Y-110777651D01*
X164597376Y-110785105D01*
X164640249Y-110792616D01*
X164683282Y-110800157D01*
X164726313Y-110807699D01*
X164769180Y-110815213D01*
X164811721Y-110822671D01*
X164853773Y-110830044D01*
X164895173Y-110837304D01*
X164935760Y-110844423D01*
X164975371Y-110851372D01*
X165013843Y-110858122D01*
X165051014Y-110864646D01*
X165086721Y-110870914D01*
X165120803Y-110876898D01*
X165153097Y-110882570D01*
X165183439Y-110887902D01*
X165211669Y-110892864D01*
X165237623Y-110897429D01*
X165261139Y-110901567D01*
X165282055Y-110905251D01*
X165300208Y-110908452D01*
X165315436Y-110911141D01*
X165327576Y-110913291D01*
X165336467Y-110914872D01*
X165337720Y-110915096D01*
X165343881Y-110916198D01*
X165343881Y-111000338D01*
X165343872Y-111020460D01*
X165343837Y-111037114D01*
X165343763Y-111050626D01*
X165343639Y-111061318D01*
X165343452Y-111069515D01*
X165343191Y-111075542D01*
X165342843Y-111079721D01*
X165342395Y-111082376D01*
X165341837Y-111083833D01*
X165341155Y-111084414D01*
X165340729Y-111084478D01*
X165338646Y-111084153D01*
X165332963Y-111083196D01*
X165323815Y-111081628D01*
X165311334Y-111079474D01*
X165295656Y-111076758D01*
X165276914Y-111073501D01*
X165255242Y-111069729D01*
X165230773Y-111065464D01*
X165203643Y-111060729D01*
X165173985Y-111055549D01*
X165141933Y-111049946D01*
X165107620Y-111043945D01*
X165071182Y-111037567D01*
X165032751Y-111030838D01*
X164992462Y-111023780D01*
X164950449Y-111016416D01*
X164906845Y-111008771D01*
X164861785Y-111000867D01*
X164815403Y-110992729D01*
X164767832Y-110984378D01*
X164719207Y-110975839D01*
X164679423Y-110968851D01*
X164630068Y-110960181D01*
X164581670Y-110951680D01*
X164534363Y-110943372D01*
X164488279Y-110935279D01*
X164443552Y-110927426D01*
X164400316Y-110919836D01*
X164358704Y-110912532D01*
X164318849Y-110905538D01*
X164280886Y-110898877D01*
X164244946Y-110892572D01*
X164211164Y-110886648D01*
X164179674Y-110881126D01*
X164150608Y-110876031D01*
X164124100Y-110871386D01*
X164100283Y-110867215D01*
X164079292Y-110863540D01*
X164061259Y-110860385D01*
X164046318Y-110857775D01*
X164034601Y-110855731D01*
X164026244Y-110854278D01*
X164021379Y-110853438D01*
X164020089Y-110853224D01*
X164019845Y-110851392D01*
X164019618Y-110846149D01*
X164019413Y-110837876D01*
X164019237Y-110826954D01*
X164019093Y-110813762D01*
X164018987Y-110798681D01*
X164018925Y-110782091D01*
X164018911Y-110768873D01*
X164018922Y-110748633D01*
X164018922Y-110748633D01*
G37*
X164018922Y-110748633D02*
X164018964Y-110731865D01*
X164019047Y-110718251D01*
X164019183Y-110707473D01*
X164019382Y-110699213D01*
X164019656Y-110693152D01*
X164020015Y-110688971D01*
X164020471Y-110686353D01*
X164021035Y-110684979D01*
X164021717Y-110684530D01*
X164021837Y-110684523D01*
X164023814Y-110684846D01*
X164029364Y-110685795D01*
X164038322Y-110687344D01*
X164050527Y-110689462D01*
X164065816Y-110692122D01*
X164084028Y-110695295D01*
X164104998Y-110698952D01*
X164128566Y-110703066D01*
X164154568Y-110707607D01*
X164182843Y-110712548D01*
X164213227Y-110717859D01*
X164245559Y-110723513D01*
X164279676Y-110729481D01*
X164315415Y-110735734D01*
X164352614Y-110742243D01*
X164391111Y-110748982D01*
X164430743Y-110755920D01*
X164471348Y-110763030D01*
X164512764Y-110770283D01*
X164554827Y-110777651D01*
X164597376Y-110785105D01*
X164640249Y-110792616D01*
X164683282Y-110800157D01*
X164726313Y-110807699D01*
X164769180Y-110815213D01*
X164811721Y-110822671D01*
X164853773Y-110830044D01*
X164895173Y-110837304D01*
X164935760Y-110844423D01*
X164975371Y-110851372D01*
X165013843Y-110858122D01*
X165051014Y-110864646D01*
X165086721Y-110870914D01*
X165120803Y-110876898D01*
X165153097Y-110882570D01*
X165183439Y-110887902D01*
X165211669Y-110892864D01*
X165237623Y-110897429D01*
X165261139Y-110901567D01*
X165282055Y-110905251D01*
X165300208Y-110908452D01*
X165315436Y-110911141D01*
X165327576Y-110913291D01*
X165336467Y-110914872D01*
X165337720Y-110915096D01*
X165343881Y-110916198D01*
X165343881Y-111000338D01*
X165343872Y-111020460D01*
X165343837Y-111037114D01*
X165343763Y-111050626D01*
X165343639Y-111061318D01*
X165343452Y-111069515D01*
X165343191Y-111075542D01*
X165342843Y-111079721D01*
X165342395Y-111082376D01*
X165341837Y-111083833D01*
X165341155Y-111084414D01*
X165340729Y-111084478D01*
X165338646Y-111084153D01*
X165332963Y-111083196D01*
X165323815Y-111081628D01*
X165311334Y-111079474D01*
X165295656Y-111076758D01*
X165276914Y-111073501D01*
X165255242Y-111069729D01*
X165230773Y-111065464D01*
X165203643Y-111060729D01*
X165173985Y-111055549D01*
X165141933Y-111049946D01*
X165107620Y-111043945D01*
X165071182Y-111037567D01*
X165032751Y-111030838D01*
X164992462Y-111023780D01*
X164950449Y-111016416D01*
X164906845Y-111008771D01*
X164861785Y-111000867D01*
X164815403Y-110992729D01*
X164767832Y-110984378D01*
X164719207Y-110975839D01*
X164679423Y-110968851D01*
X164630068Y-110960181D01*
X164581670Y-110951680D01*
X164534363Y-110943372D01*
X164488279Y-110935279D01*
X164443552Y-110927426D01*
X164400316Y-110919836D01*
X164358704Y-110912532D01*
X164318849Y-110905538D01*
X164280886Y-110898877D01*
X164244946Y-110892572D01*
X164211164Y-110886648D01*
X164179674Y-110881126D01*
X164150608Y-110876031D01*
X164124100Y-110871386D01*
X164100283Y-110867215D01*
X164079292Y-110863540D01*
X164061259Y-110860385D01*
X164046318Y-110857775D01*
X164034601Y-110855731D01*
X164026244Y-110854278D01*
X164021379Y-110853438D01*
X164020089Y-110853224D01*
X164019845Y-110851392D01*
X164019618Y-110846149D01*
X164019413Y-110837876D01*
X164019237Y-110826954D01*
X164019093Y-110813762D01*
X164018987Y-110798681D01*
X164018925Y-110782091D01*
X164018911Y-110768873D01*
X164018922Y-110748633D01*
G36*
X164398283Y-110442861D02*
X164398327Y-110427732D01*
X164398399Y-110411110D01*
X164398469Y-110398011D01*
X164398963Y-110313728D01*
X164870000Y-110396693D01*
X164911689Y-110404035D01*
X164952401Y-110411204D01*
X164991978Y-110418171D01*
X165030262Y-110424910D01*
X165067095Y-110431391D01*
X165102319Y-110437589D01*
X165135777Y-110443474D01*
X165167310Y-110449019D01*
X165196760Y-110454196D01*
X165223970Y-110458978D01*
X165248780Y-110463337D01*
X165271035Y-110467244D01*
X165290575Y-110470673D01*
X165307242Y-110473595D01*
X165320878Y-110475983D01*
X165331327Y-110477809D01*
X165338428Y-110479045D01*
X165342026Y-110479663D01*
X165342459Y-110479732D01*
X165342754Y-110481580D01*
X165343028Y-110486838D01*
X165343274Y-110495125D01*
X165343488Y-110506061D01*
X165343661Y-110519264D01*
X165343789Y-110534354D01*
X165343863Y-110550950D01*
X165343881Y-110564157D01*
X165343857Y-110585278D01*
X165343782Y-110602863D01*
X165343649Y-110617164D01*
X165343450Y-110628438D01*
X165343178Y-110636937D01*
X165342828Y-110642916D01*
X165342391Y-110646630D01*
X165341861Y-110648331D01*
X165341585Y-110648508D01*
X165339543Y-110648185D01*
X165333968Y-110647239D01*
X165325050Y-110645703D01*
X165312983Y-110643612D01*
X165297957Y-110640999D01*
X165280166Y-110637898D01*
X165259801Y-110634343D01*
X165237055Y-110630367D01*
X165212118Y-110626004D01*
X165185185Y-110621288D01*
X165156445Y-110616252D01*
X165126093Y-110610931D01*
X165094319Y-110605359D01*
X165061316Y-110599568D01*
X165027275Y-110593593D01*
X164992389Y-110587468D01*
X164956851Y-110581226D01*
X164920851Y-110574901D01*
X164884582Y-110568527D01*
X164848237Y-110562137D01*
X164812006Y-110555766D01*
X164776083Y-110549446D01*
X164740659Y-110543213D01*
X164705926Y-110537099D01*
X164672077Y-110531139D01*
X164639304Y-110525366D01*
X164607798Y-110519814D01*
X164577751Y-110514516D01*
X164549357Y-110509507D01*
X164522806Y-110504821D01*
X164498291Y-110500490D01*
X164476003Y-110496549D01*
X164456136Y-110493031D01*
X164438881Y-110489971D01*
X164424430Y-110487402D01*
X164412975Y-110485357D01*
X164404708Y-110483871D01*
X164399821Y-110482978D01*
X164398469Y-110482710D01*
X164398378Y-110480790D01*
X164398313Y-110475462D01*
X164398276Y-110467109D01*
X164398266Y-110456114D01*
X164398283Y-110442861D01*
X164398283Y-110442861D01*
G37*
X164398283Y-110442861D02*
X164398327Y-110427732D01*
X164398399Y-110411110D01*
X164398469Y-110398011D01*
X164398963Y-110313728D01*
X164870000Y-110396693D01*
X164911689Y-110404035D01*
X164952401Y-110411204D01*
X164991978Y-110418171D01*
X165030262Y-110424910D01*
X165067095Y-110431391D01*
X165102319Y-110437589D01*
X165135777Y-110443474D01*
X165167310Y-110449019D01*
X165196760Y-110454196D01*
X165223970Y-110458978D01*
X165248780Y-110463337D01*
X165271035Y-110467244D01*
X165290575Y-110470673D01*
X165307242Y-110473595D01*
X165320878Y-110475983D01*
X165331327Y-110477809D01*
X165338428Y-110479045D01*
X165342026Y-110479663D01*
X165342459Y-110479732D01*
X165342754Y-110481580D01*
X165343028Y-110486838D01*
X165343274Y-110495125D01*
X165343488Y-110506061D01*
X165343661Y-110519264D01*
X165343789Y-110534354D01*
X165343863Y-110550950D01*
X165343881Y-110564157D01*
X165343857Y-110585278D01*
X165343782Y-110602863D01*
X165343649Y-110617164D01*
X165343450Y-110628438D01*
X165343178Y-110636937D01*
X165342828Y-110642916D01*
X165342391Y-110646630D01*
X165341861Y-110648331D01*
X165341585Y-110648508D01*
X165339543Y-110648185D01*
X165333968Y-110647239D01*
X165325050Y-110645703D01*
X165312983Y-110643612D01*
X165297957Y-110640999D01*
X165280166Y-110637898D01*
X165259801Y-110634343D01*
X165237055Y-110630367D01*
X165212118Y-110626004D01*
X165185185Y-110621288D01*
X165156445Y-110616252D01*
X165126093Y-110610931D01*
X165094319Y-110605359D01*
X165061316Y-110599568D01*
X165027275Y-110593593D01*
X164992389Y-110587468D01*
X164956851Y-110581226D01*
X164920851Y-110574901D01*
X164884582Y-110568527D01*
X164848237Y-110562137D01*
X164812006Y-110555766D01*
X164776083Y-110549446D01*
X164740659Y-110543213D01*
X164705926Y-110537099D01*
X164672077Y-110531139D01*
X164639304Y-110525366D01*
X164607798Y-110519814D01*
X164577751Y-110514516D01*
X164549357Y-110509507D01*
X164522806Y-110504821D01*
X164498291Y-110500490D01*
X164476003Y-110496549D01*
X164456136Y-110493031D01*
X164438881Y-110489971D01*
X164424430Y-110487402D01*
X164412975Y-110485357D01*
X164404708Y-110483871D01*
X164399821Y-110482978D01*
X164398469Y-110482710D01*
X164398378Y-110480790D01*
X164398313Y-110475462D01*
X164398276Y-110467109D01*
X164398266Y-110456114D01*
X164398283Y-110442861D01*
G36*
X164019178Y-108944343D02*
X164019222Y-108936747D01*
X164019293Y-108932271D01*
X164019365Y-108931190D01*
X164021259Y-108931516D01*
X164026645Y-108932459D01*
X164035284Y-108933978D01*
X164046934Y-108936028D01*
X164061356Y-108938569D01*
X164078308Y-108941558D01*
X164097550Y-108944951D01*
X164118841Y-108948708D01*
X164141942Y-108952785D01*
X164166611Y-108957140D01*
X164192609Y-108961730D01*
X164219694Y-108966514D01*
X164222679Y-108967041D01*
X164249866Y-108971838D01*
X164275992Y-108976438D01*
X164300816Y-108980798D01*
X164324097Y-108984877D01*
X164345596Y-108988634D01*
X164365072Y-108992026D01*
X164382283Y-108995011D01*
X164396991Y-108997548D01*
X164408954Y-108999595D01*
X164417932Y-109001110D01*
X164423684Y-109002052D01*
X164425969Y-109002378D01*
X164425999Y-109002375D01*
X164425553Y-109000534D01*
X164423900Y-108996211D01*
X164421610Y-108990831D01*
X164417819Y-108981575D01*
X164413372Y-108969624D01*
X164408595Y-108955945D01*
X164403812Y-108941506D01*
X164399349Y-108927272D01*
X164395532Y-108914212D01*
X164394214Y-108909366D01*
X164387804Y-108880905D01*
X164383208Y-108851288D01*
X164380404Y-108821041D01*
X164379367Y-108790687D01*
X164380073Y-108760750D01*
X164382497Y-108731755D01*
X164386617Y-108704224D01*
X164392408Y-108678684D01*
X164399845Y-108655657D01*
X164406563Y-108640202D01*
X164417673Y-108621596D01*
X164431657Y-108604410D01*
X164447784Y-108589432D01*
X164463736Y-108578371D01*
X164480800Y-108570094D01*
X164500820Y-108563444D01*
X164523293Y-108558488D01*
X164547720Y-108555291D01*
X164573599Y-108553921D01*
X164600431Y-108554443D01*
X164626482Y-108556770D01*
X164629905Y-108557287D01*
X164636833Y-108558417D01*
X164647038Y-108560119D01*
X164660289Y-108562354D01*
X164676357Y-108565082D01*
X164695014Y-108568263D01*
X164716031Y-108571858D01*
X164739176Y-108575827D01*
X164764223Y-108580130D01*
X164790941Y-108584728D01*
X164819101Y-108589580D01*
X164848473Y-108594647D01*
X164878830Y-108599890D01*
X164909940Y-108605268D01*
X164941576Y-108610742D01*
X164973508Y-108616272D01*
X165005506Y-108621819D01*
X165037342Y-108627342D01*
X165068785Y-108632803D01*
X165099608Y-108638160D01*
X165129580Y-108643375D01*
X165158473Y-108648408D01*
X165186056Y-108653218D01*
X165212102Y-108657767D01*
X165236380Y-108662015D01*
X165258662Y-108665921D01*
X165278718Y-108669447D01*
X165296318Y-108672552D01*
X165311235Y-108675197D01*
X165323237Y-108677341D01*
X165332097Y-108678946D01*
X165337585Y-108679971D01*
X165338668Y-108680186D01*
X165343881Y-108681257D01*
X165343881Y-108850142D01*
X165335825Y-108848859D01*
X165333134Y-108848401D01*
X165326902Y-108847320D01*
X165317321Y-108845652D01*
X165304584Y-108843428D01*
X165288882Y-108840684D01*
X165270409Y-108837452D01*
X165249357Y-108833767D01*
X165225919Y-108829662D01*
X165200286Y-108825171D01*
X165172651Y-108820328D01*
X165143207Y-108815166D01*
X165112147Y-108809719D01*
X165079662Y-108804021D01*
X165045945Y-108798106D01*
X165011189Y-108792006D01*
X164992261Y-108788684D01*
X164950667Y-108781384D01*
X164912631Y-108774712D01*
X164877976Y-108768639D01*
X164846527Y-108763138D01*
X164818108Y-108758178D01*
X164792544Y-108753731D01*
X164769657Y-108749769D01*
X164749273Y-108746263D01*
X164731216Y-108743183D01*
X164715309Y-108740501D01*
X164701376Y-108738189D01*
X164689242Y-108736218D01*
X164678731Y-108734558D01*
X164669666Y-108733182D01*
X164661873Y-108732060D01*
X164655174Y-108731163D01*
X164649395Y-108730464D01*
X164644359Y-108729932D01*
X164639890Y-108729540D01*
X164635812Y-108729258D01*
X164631950Y-108729059D01*
X164628128Y-108728912D01*
X164626268Y-108728852D01*
X164614132Y-108728542D01*
X164604868Y-108728508D01*
X164597564Y-108728809D01*
X164591307Y-108729506D01*
X164585185Y-108730660D01*
X164579828Y-108731939D01*
X164570871Y-108734500D01*
X164561848Y-108737571D01*
X164554511Y-108740549D01*
X164553631Y-108740966D01*
X164544608Y-108746510D01*
X164534777Y-108754402D01*
X164525145Y-108763665D01*
X164516721Y-108773318D01*
X164510514Y-108782383D01*
X164510018Y-108783287D01*
X164503820Y-108797761D01*
X164498900Y-108815123D01*
X164495310Y-108834675D01*
X164493099Y-108855719D01*
X164492317Y-108877557D01*
X164493016Y-108899489D01*
X164495246Y-108920819D01*
X164498740Y-108939513D01*
X164502995Y-108955599D01*
X164508338Y-108972537D01*
X164514295Y-108988964D01*
X164520393Y-109003517D01*
X164522655Y-109008285D01*
X164529388Y-109021905D01*
X164541892Y-109024020D01*
X164544956Y-109024548D01*
X164551575Y-109025696D01*
X164561570Y-109027433D01*
X164574761Y-109029727D01*
X164590970Y-109032548D01*
X164610016Y-109035864D01*
X164631720Y-109039644D01*
X164655903Y-109043857D01*
X164682386Y-109048470D01*
X164710989Y-109053454D01*
X164741532Y-109058777D01*
X164773837Y-109064407D01*
X164807723Y-109070314D01*
X164843012Y-109076466D01*
X164879525Y-109082831D01*
X164917080Y-109089379D01*
X164948664Y-109094886D01*
X165342933Y-109163638D01*
X165343427Y-109248416D01*
X165343920Y-109333194D01*
X165337740Y-109332054D01*
X165335427Y-109331644D01*
X165329515Y-109330601D01*
X165320139Y-109328951D01*
X165307434Y-109326715D01*
X165291536Y-109323919D01*
X165272579Y-109320586D01*
X165250698Y-109316740D01*
X165226028Y-109312404D01*
X165198705Y-109307602D01*
X165168864Y-109302358D01*
X165136638Y-109296695D01*
X165102165Y-109290638D01*
X165065578Y-109284210D01*
X165027012Y-109277434D01*
X164986603Y-109270335D01*
X164944486Y-109262936D01*
X164900795Y-109255261D01*
X164855667Y-109247334D01*
X164809235Y-109239178D01*
X164761634Y-109230818D01*
X164713001Y-109222276D01*
X164675709Y-109215726D01*
X164019858Y-109100538D01*
X164019365Y-109015851D01*
X164019274Y-108998345D01*
X164019209Y-108982061D01*
X164019172Y-108967380D01*
X164019162Y-108954681D01*
X164019178Y-108944343D01*
X164019178Y-108944343D01*
G37*
X164019178Y-108944343D02*
X164019222Y-108936747D01*
X164019293Y-108932271D01*
X164019365Y-108931190D01*
X164021259Y-108931516D01*
X164026645Y-108932459D01*
X164035284Y-108933978D01*
X164046934Y-108936028D01*
X164061356Y-108938569D01*
X164078308Y-108941558D01*
X164097550Y-108944951D01*
X164118841Y-108948708D01*
X164141942Y-108952785D01*
X164166611Y-108957140D01*
X164192609Y-108961730D01*
X164219694Y-108966514D01*
X164222679Y-108967041D01*
X164249866Y-108971838D01*
X164275992Y-108976438D01*
X164300816Y-108980798D01*
X164324097Y-108984877D01*
X164345596Y-108988634D01*
X164365072Y-108992026D01*
X164382283Y-108995011D01*
X164396991Y-108997548D01*
X164408954Y-108999595D01*
X164417932Y-109001110D01*
X164423684Y-109002052D01*
X164425969Y-109002378D01*
X164425999Y-109002375D01*
X164425553Y-109000534D01*
X164423900Y-108996211D01*
X164421610Y-108990831D01*
X164417819Y-108981575D01*
X164413372Y-108969624D01*
X164408595Y-108955945D01*
X164403812Y-108941506D01*
X164399349Y-108927272D01*
X164395532Y-108914212D01*
X164394214Y-108909366D01*
X164387804Y-108880905D01*
X164383208Y-108851288D01*
X164380404Y-108821041D01*
X164379367Y-108790687D01*
X164380073Y-108760750D01*
X164382497Y-108731755D01*
X164386617Y-108704224D01*
X164392408Y-108678684D01*
X164399845Y-108655657D01*
X164406563Y-108640202D01*
X164417673Y-108621596D01*
X164431657Y-108604410D01*
X164447784Y-108589432D01*
X164463736Y-108578371D01*
X164480800Y-108570094D01*
X164500820Y-108563444D01*
X164523293Y-108558488D01*
X164547720Y-108555291D01*
X164573599Y-108553921D01*
X164600431Y-108554443D01*
X164626482Y-108556770D01*
X164629905Y-108557287D01*
X164636833Y-108558417D01*
X164647038Y-108560119D01*
X164660289Y-108562354D01*
X164676357Y-108565082D01*
X164695014Y-108568263D01*
X164716031Y-108571858D01*
X164739176Y-108575827D01*
X164764223Y-108580130D01*
X164790941Y-108584728D01*
X164819101Y-108589580D01*
X164848473Y-108594647D01*
X164878830Y-108599890D01*
X164909940Y-108605268D01*
X164941576Y-108610742D01*
X164973508Y-108616272D01*
X165005506Y-108621819D01*
X165037342Y-108627342D01*
X165068785Y-108632803D01*
X165099608Y-108638160D01*
X165129580Y-108643375D01*
X165158473Y-108648408D01*
X165186056Y-108653218D01*
X165212102Y-108657767D01*
X165236380Y-108662015D01*
X165258662Y-108665921D01*
X165278718Y-108669447D01*
X165296318Y-108672552D01*
X165311235Y-108675197D01*
X165323237Y-108677341D01*
X165332097Y-108678946D01*
X165337585Y-108679971D01*
X165338668Y-108680186D01*
X165343881Y-108681257D01*
X165343881Y-108850142D01*
X165335825Y-108848859D01*
X165333134Y-108848401D01*
X165326902Y-108847320D01*
X165317321Y-108845652D01*
X165304584Y-108843428D01*
X165288882Y-108840684D01*
X165270409Y-108837452D01*
X165249357Y-108833767D01*
X165225919Y-108829662D01*
X165200286Y-108825171D01*
X165172651Y-108820328D01*
X165143207Y-108815166D01*
X165112147Y-108809719D01*
X165079662Y-108804021D01*
X165045945Y-108798106D01*
X165011189Y-108792006D01*
X164992261Y-108788684D01*
X164950667Y-108781384D01*
X164912631Y-108774712D01*
X164877976Y-108768639D01*
X164846527Y-108763138D01*
X164818108Y-108758178D01*
X164792544Y-108753731D01*
X164769657Y-108749769D01*
X164749273Y-108746263D01*
X164731216Y-108743183D01*
X164715309Y-108740501D01*
X164701376Y-108738189D01*
X164689242Y-108736218D01*
X164678731Y-108734558D01*
X164669666Y-108733182D01*
X164661873Y-108732060D01*
X164655174Y-108731163D01*
X164649395Y-108730464D01*
X164644359Y-108729932D01*
X164639890Y-108729540D01*
X164635812Y-108729258D01*
X164631950Y-108729059D01*
X164628128Y-108728912D01*
X164626268Y-108728852D01*
X164614132Y-108728542D01*
X164604868Y-108728508D01*
X164597564Y-108728809D01*
X164591307Y-108729506D01*
X164585185Y-108730660D01*
X164579828Y-108731939D01*
X164570871Y-108734500D01*
X164561848Y-108737571D01*
X164554511Y-108740549D01*
X164553631Y-108740966D01*
X164544608Y-108746510D01*
X164534777Y-108754402D01*
X164525145Y-108763665D01*
X164516721Y-108773318D01*
X164510514Y-108782383D01*
X164510018Y-108783287D01*
X164503820Y-108797761D01*
X164498900Y-108815123D01*
X164495310Y-108834675D01*
X164493099Y-108855719D01*
X164492317Y-108877557D01*
X164493016Y-108899489D01*
X164495246Y-108920819D01*
X164498740Y-108939513D01*
X164502995Y-108955599D01*
X164508338Y-108972537D01*
X164514295Y-108988964D01*
X164520393Y-109003517D01*
X164522655Y-109008285D01*
X164529388Y-109021905D01*
X164541892Y-109024020D01*
X164544956Y-109024548D01*
X164551575Y-109025696D01*
X164561570Y-109027433D01*
X164574761Y-109029727D01*
X164590970Y-109032548D01*
X164610016Y-109035864D01*
X164631720Y-109039644D01*
X164655903Y-109043857D01*
X164682386Y-109048470D01*
X164710989Y-109053454D01*
X164741532Y-109058777D01*
X164773837Y-109064407D01*
X164807723Y-109070314D01*
X164843012Y-109076466D01*
X164879525Y-109082831D01*
X164917080Y-109089379D01*
X164948664Y-109094886D01*
X165342933Y-109163638D01*
X165343427Y-109248416D01*
X165343920Y-109333194D01*
X165337740Y-109332054D01*
X165335427Y-109331644D01*
X165329515Y-109330601D01*
X165320139Y-109328951D01*
X165307434Y-109326715D01*
X165291536Y-109323919D01*
X165272579Y-109320586D01*
X165250698Y-109316740D01*
X165226028Y-109312404D01*
X165198705Y-109307602D01*
X165168864Y-109302358D01*
X165136638Y-109296695D01*
X165102165Y-109290638D01*
X165065578Y-109284210D01*
X165027012Y-109277434D01*
X164986603Y-109270335D01*
X164944486Y-109262936D01*
X164900795Y-109255261D01*
X164855667Y-109247334D01*
X164809235Y-109239178D01*
X164761634Y-109230818D01*
X164713001Y-109222276D01*
X164675709Y-109215726D01*
X164019858Y-109100538D01*
X164019365Y-109015851D01*
X164019274Y-108998345D01*
X164019209Y-108982061D01*
X164019172Y-108967380D01*
X164019162Y-108954681D01*
X164019178Y-108944343D01*
G36*
X164019178Y-104311717D02*
X164019222Y-104304117D01*
X164019292Y-104299637D01*
X164019365Y-104298552D01*
X164021251Y-104298881D01*
X164026700Y-104299841D01*
X164035543Y-104301401D01*
X164047609Y-104303532D01*
X164062729Y-104306203D01*
X164080733Y-104309384D01*
X164101452Y-104313046D01*
X164124715Y-104317158D01*
X164150353Y-104321690D01*
X164178196Y-104326612D01*
X164208075Y-104331895D01*
X164239818Y-104337508D01*
X164273258Y-104343421D01*
X164308223Y-104349604D01*
X164344544Y-104356027D01*
X164382051Y-104362661D01*
X164420575Y-104369475D01*
X164425500Y-104370346D01*
X164464143Y-104377177D01*
X164501794Y-104383826D01*
X164538282Y-104390261D01*
X164573438Y-104396454D01*
X164607091Y-104402375D01*
X164639072Y-104407994D01*
X164669211Y-104413282D01*
X164697338Y-104418208D01*
X164723282Y-104422744D01*
X164746875Y-104426858D01*
X164767946Y-104430522D01*
X164786325Y-104433707D01*
X164801842Y-104436381D01*
X164814327Y-104438516D01*
X164823611Y-104440082D01*
X164829523Y-104441049D01*
X164831893Y-104441387D01*
X164831932Y-104441384D01*
X164831932Y-104440046D01*
X164830392Y-104438803D01*
X164826067Y-104435310D01*
X164819120Y-104429700D01*
X164809716Y-104422103D01*
X164798017Y-104412654D01*
X164784187Y-104401483D01*
X164768391Y-104388723D01*
X164750791Y-104374506D01*
X164731552Y-104358964D01*
X164710837Y-104342231D01*
X164688810Y-104324437D01*
X164665634Y-104305715D01*
X164641474Y-104286197D01*
X164616492Y-104266016D01*
X164614579Y-104264470D01*
X164398015Y-104089522D01*
X164398015Y-103995700D01*
X164398021Y-103974428D01*
X164398046Y-103956647D01*
X164398101Y-103942057D01*
X164398196Y-103930358D01*
X164398342Y-103921250D01*
X164398551Y-103914432D01*
X164398832Y-103909606D01*
X164399197Y-103906470D01*
X164399656Y-103904725D01*
X164400221Y-103904071D01*
X164400901Y-103904207D01*
X164401292Y-103904481D01*
X164403100Y-103905979D01*
X164407652Y-103909774D01*
X164414785Y-103915731D01*
X164424336Y-103923714D01*
X164436143Y-103933586D01*
X164450043Y-103945211D01*
X164465872Y-103958453D01*
X164483469Y-103973176D01*
X164502670Y-103989243D01*
X164523313Y-104006519D01*
X164545235Y-104024868D01*
X164568273Y-104044152D01*
X164592265Y-104064237D01*
X164617048Y-104084985D01*
X164620774Y-104088105D01*
X164645653Y-104108935D01*
X164669761Y-104129118D01*
X164692937Y-104148518D01*
X164715017Y-104167000D01*
X164735838Y-104184428D01*
X164755240Y-104200665D01*
X164773058Y-104215576D01*
X164789132Y-104229025D01*
X164803297Y-104240876D01*
X164815393Y-104250993D01*
X164825256Y-104259240D01*
X164832725Y-104265481D01*
X164837636Y-104269581D01*
X164839827Y-104271403D01*
X164839911Y-104271471D01*
X164840770Y-104271582D01*
X164842585Y-104271176D01*
X164845511Y-104270182D01*
X164849699Y-104268529D01*
X164855301Y-104266144D01*
X164862471Y-104262954D01*
X164871360Y-104258890D01*
X164882121Y-104253877D01*
X164894907Y-104247845D01*
X164909869Y-104240722D01*
X164927162Y-104232435D01*
X164946936Y-104222912D01*
X164969344Y-104212082D01*
X164994539Y-104199873D01*
X165022674Y-104186213D01*
X165053900Y-104171029D01*
X165088371Y-104154250D01*
X165089942Y-104153485D01*
X165118737Y-104139467D01*
X165146627Y-104125897D01*
X165173418Y-104112868D01*
X165198919Y-104100476D01*
X165222936Y-104088812D01*
X165245275Y-104077970D01*
X165265745Y-104068045D01*
X165284152Y-104059128D01*
X165300303Y-104051315D01*
X165314006Y-104044699D01*
X165325067Y-104039372D01*
X165333293Y-104035428D01*
X165338492Y-104032962D01*
X165340461Y-104032069D01*
X165341237Y-104031969D01*
X165341886Y-104032408D01*
X165342420Y-104033693D01*
X165342849Y-104036130D01*
X165343185Y-104040026D01*
X165343439Y-104045687D01*
X165343622Y-104053419D01*
X165343747Y-104063530D01*
X165343824Y-104076325D01*
X165343864Y-104092112D01*
X165343879Y-104111196D01*
X165343881Y-104124598D01*
X165343881Y-104218212D01*
X165099832Y-104330646D01*
X165071103Y-104343886D01*
X165043313Y-104356704D01*
X165016658Y-104369007D01*
X164991332Y-104380706D01*
X164967531Y-104391711D01*
X164945451Y-104401929D01*
X164925287Y-104411272D01*
X164907235Y-104419648D01*
X164891488Y-104426967D01*
X164878244Y-104433138D01*
X164867698Y-104438071D01*
X164860044Y-104441674D01*
X164855478Y-104443859D01*
X164854175Y-104444527D01*
X164853793Y-104444763D01*
X164853362Y-104444960D01*
X164853066Y-104445152D01*
X164853091Y-104445372D01*
X164853621Y-104445654D01*
X164854841Y-104446031D01*
X164856935Y-104446537D01*
X164860088Y-104447205D01*
X164864485Y-104448069D01*
X164870311Y-104449161D01*
X164877749Y-104450516D01*
X164886986Y-104452167D01*
X164898205Y-104454148D01*
X164911592Y-104456491D01*
X164927330Y-104459231D01*
X164945605Y-104462400D01*
X164966602Y-104466033D01*
X164990504Y-104470163D01*
X165017497Y-104474822D01*
X165047766Y-104480046D01*
X165081495Y-104485867D01*
X165099358Y-104488950D01*
X165128814Y-104494036D01*
X165157276Y-104498956D01*
X165184516Y-104503668D01*
X165210307Y-104508134D01*
X165234420Y-104512314D01*
X165256628Y-104516169D01*
X165276703Y-104519658D01*
X165294417Y-104522742D01*
X165309542Y-104525381D01*
X165321851Y-104527537D01*
X165331114Y-104529168D01*
X165337105Y-104530237D01*
X165339596Y-104530702D01*
X165339616Y-104530707D01*
X165343881Y-104531729D01*
X165343881Y-104616044D01*
X165343850Y-104633509D01*
X165343762Y-104649748D01*
X165343622Y-104664382D01*
X165343438Y-104677029D01*
X165343216Y-104687311D01*
X165342961Y-104694847D01*
X165342682Y-104699257D01*
X165342459Y-104700285D01*
X165340507Y-104699955D01*
X165334955Y-104698992D01*
X165325935Y-104697419D01*
X165313581Y-104695260D01*
X165298027Y-104692538D01*
X165279404Y-104689276D01*
X165257848Y-104685498D01*
X165233491Y-104681227D01*
X165206466Y-104676487D01*
X165176906Y-104671300D01*
X165144945Y-104665691D01*
X165110717Y-104659683D01*
X165074353Y-104653299D01*
X165035988Y-104646562D01*
X164995755Y-104639496D01*
X164953787Y-104632125D01*
X164910217Y-104624471D01*
X164865178Y-104616558D01*
X164818805Y-104608410D01*
X164771229Y-104600049D01*
X164722584Y-104591500D01*
X164680448Y-104584094D01*
X164019858Y-104467976D01*
X164019365Y-104383242D01*
X164019274Y-104365731D01*
X164019209Y-104349444D01*
X164019172Y-104334760D01*
X164019162Y-104322057D01*
X164019178Y-104311717D01*
X164019178Y-104311717D01*
G37*
X164019178Y-104311717D02*
X164019222Y-104304117D01*
X164019292Y-104299637D01*
X164019365Y-104298552D01*
X164021251Y-104298881D01*
X164026700Y-104299841D01*
X164035543Y-104301401D01*
X164047609Y-104303532D01*
X164062729Y-104306203D01*
X164080733Y-104309384D01*
X164101452Y-104313046D01*
X164124715Y-104317158D01*
X164150353Y-104321690D01*
X164178196Y-104326612D01*
X164208075Y-104331895D01*
X164239818Y-104337508D01*
X164273258Y-104343421D01*
X164308223Y-104349604D01*
X164344544Y-104356027D01*
X164382051Y-104362661D01*
X164420575Y-104369475D01*
X164425500Y-104370346D01*
X164464143Y-104377177D01*
X164501794Y-104383826D01*
X164538282Y-104390261D01*
X164573438Y-104396454D01*
X164607091Y-104402375D01*
X164639072Y-104407994D01*
X164669211Y-104413282D01*
X164697338Y-104418208D01*
X164723282Y-104422744D01*
X164746875Y-104426858D01*
X164767946Y-104430522D01*
X164786325Y-104433707D01*
X164801842Y-104436381D01*
X164814327Y-104438516D01*
X164823611Y-104440082D01*
X164829523Y-104441049D01*
X164831893Y-104441387D01*
X164831932Y-104441384D01*
X164831932Y-104440046D01*
X164830392Y-104438803D01*
X164826067Y-104435310D01*
X164819120Y-104429700D01*
X164809716Y-104422103D01*
X164798017Y-104412654D01*
X164784187Y-104401483D01*
X164768391Y-104388723D01*
X164750791Y-104374506D01*
X164731552Y-104358964D01*
X164710837Y-104342231D01*
X164688810Y-104324437D01*
X164665634Y-104305715D01*
X164641474Y-104286197D01*
X164616492Y-104266016D01*
X164614579Y-104264470D01*
X164398015Y-104089522D01*
X164398015Y-103995700D01*
X164398021Y-103974428D01*
X164398046Y-103956647D01*
X164398101Y-103942057D01*
X164398196Y-103930358D01*
X164398342Y-103921250D01*
X164398551Y-103914432D01*
X164398832Y-103909606D01*
X164399197Y-103906470D01*
X164399656Y-103904725D01*
X164400221Y-103904071D01*
X164400901Y-103904207D01*
X164401292Y-103904481D01*
X164403100Y-103905979D01*
X164407652Y-103909774D01*
X164414785Y-103915731D01*
X164424336Y-103923714D01*
X164436143Y-103933586D01*
X164450043Y-103945211D01*
X164465872Y-103958453D01*
X164483469Y-103973176D01*
X164502670Y-103989243D01*
X164523313Y-104006519D01*
X164545235Y-104024868D01*
X164568273Y-104044152D01*
X164592265Y-104064237D01*
X164617048Y-104084985D01*
X164620774Y-104088105D01*
X164645653Y-104108935D01*
X164669761Y-104129118D01*
X164692937Y-104148518D01*
X164715017Y-104167000D01*
X164735838Y-104184428D01*
X164755240Y-104200665D01*
X164773058Y-104215576D01*
X164789132Y-104229025D01*
X164803297Y-104240876D01*
X164815393Y-104250993D01*
X164825256Y-104259240D01*
X164832725Y-104265481D01*
X164837636Y-104269581D01*
X164839827Y-104271403D01*
X164839911Y-104271471D01*
X164840770Y-104271582D01*
X164842585Y-104271176D01*
X164845511Y-104270182D01*
X164849699Y-104268529D01*
X164855301Y-104266144D01*
X164862471Y-104262954D01*
X164871360Y-104258890D01*
X164882121Y-104253877D01*
X164894907Y-104247845D01*
X164909869Y-104240722D01*
X164927162Y-104232435D01*
X164946936Y-104222912D01*
X164969344Y-104212082D01*
X164994539Y-104199873D01*
X165022674Y-104186213D01*
X165053900Y-104171029D01*
X165088371Y-104154250D01*
X165089942Y-104153485D01*
X165118737Y-104139467D01*
X165146627Y-104125897D01*
X165173418Y-104112868D01*
X165198919Y-104100476D01*
X165222936Y-104088812D01*
X165245275Y-104077970D01*
X165265745Y-104068045D01*
X165284152Y-104059128D01*
X165300303Y-104051315D01*
X165314006Y-104044699D01*
X165325067Y-104039372D01*
X165333293Y-104035428D01*
X165338492Y-104032962D01*
X165340461Y-104032069D01*
X165341237Y-104031969D01*
X165341886Y-104032408D01*
X165342420Y-104033693D01*
X165342849Y-104036130D01*
X165343185Y-104040026D01*
X165343439Y-104045687D01*
X165343622Y-104053419D01*
X165343747Y-104063530D01*
X165343824Y-104076325D01*
X165343864Y-104092112D01*
X165343879Y-104111196D01*
X165343881Y-104124598D01*
X165343881Y-104218212D01*
X165099832Y-104330646D01*
X165071103Y-104343886D01*
X165043313Y-104356704D01*
X165016658Y-104369007D01*
X164991332Y-104380706D01*
X164967531Y-104391711D01*
X164945451Y-104401929D01*
X164925287Y-104411272D01*
X164907235Y-104419648D01*
X164891488Y-104426967D01*
X164878244Y-104433138D01*
X164867698Y-104438071D01*
X164860044Y-104441674D01*
X164855478Y-104443859D01*
X164854175Y-104444527D01*
X164853793Y-104444763D01*
X164853362Y-104444960D01*
X164853066Y-104445152D01*
X164853091Y-104445372D01*
X164853621Y-104445654D01*
X164854841Y-104446031D01*
X164856935Y-104446537D01*
X164860088Y-104447205D01*
X164864485Y-104448069D01*
X164870311Y-104449161D01*
X164877749Y-104450516D01*
X164886986Y-104452167D01*
X164898205Y-104454148D01*
X164911592Y-104456491D01*
X164927330Y-104459231D01*
X164945605Y-104462400D01*
X164966602Y-104466033D01*
X164990504Y-104470163D01*
X165017497Y-104474822D01*
X165047766Y-104480046D01*
X165081495Y-104485867D01*
X165099358Y-104488950D01*
X165128814Y-104494036D01*
X165157276Y-104498956D01*
X165184516Y-104503668D01*
X165210307Y-104508134D01*
X165234420Y-104512314D01*
X165256628Y-104516169D01*
X165276703Y-104519658D01*
X165294417Y-104522742D01*
X165309542Y-104525381D01*
X165321851Y-104527537D01*
X165331114Y-104529168D01*
X165337105Y-104530237D01*
X165339596Y-104530702D01*
X165339616Y-104530707D01*
X165343881Y-104531729D01*
X165343881Y-104616044D01*
X165343850Y-104633509D01*
X165343762Y-104649748D01*
X165343622Y-104664382D01*
X165343438Y-104677029D01*
X165343216Y-104687311D01*
X165342961Y-104694847D01*
X165342682Y-104699257D01*
X165342459Y-104700285D01*
X165340507Y-104699955D01*
X165334955Y-104698992D01*
X165325935Y-104697419D01*
X165313581Y-104695260D01*
X165298027Y-104692538D01*
X165279404Y-104689276D01*
X165257848Y-104685498D01*
X165233491Y-104681227D01*
X165206466Y-104676487D01*
X165176906Y-104671300D01*
X165144945Y-104665691D01*
X165110717Y-104659683D01*
X165074353Y-104653299D01*
X165035988Y-104646562D01*
X164995755Y-104639496D01*
X164953787Y-104632125D01*
X164910217Y-104624471D01*
X164865178Y-104616558D01*
X164818805Y-104608410D01*
X164771229Y-104600049D01*
X164722584Y-104591500D01*
X164680448Y-104584094D01*
X164019858Y-104467976D01*
X164019365Y-104383242D01*
X164019274Y-104365731D01*
X164019209Y-104349444D01*
X164019172Y-104334760D01*
X164019162Y-104322057D01*
X164019178Y-104311717D01*
G36*
X164057089Y-110384100D02*
X164057133Y-110368972D01*
X164057205Y-110352352D01*
X164057275Y-110339269D01*
X164057769Y-110255006D01*
X164137381Y-110268739D01*
X164155384Y-110271845D01*
X164173159Y-110274911D01*
X164190151Y-110277841D01*
X164205805Y-110280541D01*
X164219567Y-110282914D01*
X164230883Y-110284864D01*
X164239197Y-110286297D01*
X164241161Y-110286636D01*
X164265329Y-110290798D01*
X164265329Y-110374877D01*
X164265321Y-110394951D01*
X164265290Y-110411560D01*
X164265222Y-110425031D01*
X164265106Y-110435689D01*
X164264926Y-110443862D01*
X164264672Y-110449875D01*
X164264330Y-110454054D01*
X164263887Y-110456727D01*
X164263331Y-110458218D01*
X164262647Y-110458855D01*
X164262011Y-110458969D01*
X164259666Y-110458662D01*
X164254043Y-110457783D01*
X164245560Y-110456404D01*
X164234630Y-110454595D01*
X164221669Y-110452427D01*
X164207093Y-110449972D01*
X164191316Y-110447300D01*
X164174754Y-110444483D01*
X164157821Y-110441592D01*
X164140934Y-110438697D01*
X164124506Y-110435869D01*
X164108955Y-110433180D01*
X164094694Y-110430701D01*
X164082138Y-110428503D01*
X164071704Y-110426656D01*
X164063806Y-110425232D01*
X164058860Y-110424302D01*
X164057275Y-110423946D01*
X164057184Y-110422026D01*
X164057119Y-110416699D01*
X164057082Y-110408347D01*
X164057072Y-110397353D01*
X164057089Y-110384100D01*
X164057089Y-110384100D01*
G37*
X164057089Y-110384100D02*
X164057133Y-110368972D01*
X164057205Y-110352352D01*
X164057275Y-110339269D01*
X164057769Y-110255006D01*
X164137381Y-110268739D01*
X164155384Y-110271845D01*
X164173159Y-110274911D01*
X164190151Y-110277841D01*
X164205805Y-110280541D01*
X164219567Y-110282914D01*
X164230883Y-110284864D01*
X164239197Y-110286297D01*
X164241161Y-110286636D01*
X164265329Y-110290798D01*
X164265329Y-110374877D01*
X164265321Y-110394951D01*
X164265290Y-110411560D01*
X164265222Y-110425031D01*
X164265106Y-110435689D01*
X164264926Y-110443862D01*
X164264672Y-110449875D01*
X164264330Y-110454054D01*
X164263887Y-110456727D01*
X164263331Y-110458218D01*
X164262647Y-110458855D01*
X164262011Y-110458969D01*
X164259666Y-110458662D01*
X164254043Y-110457783D01*
X164245560Y-110456404D01*
X164234630Y-110454595D01*
X164221669Y-110452427D01*
X164207093Y-110449972D01*
X164191316Y-110447300D01*
X164174754Y-110444483D01*
X164157821Y-110441592D01*
X164140934Y-110438697D01*
X164124506Y-110435869D01*
X164108955Y-110433180D01*
X164094694Y-110430701D01*
X164082138Y-110428503D01*
X164071704Y-110426656D01*
X164063806Y-110425232D01*
X164058860Y-110424302D01*
X164057275Y-110423946D01*
X164057184Y-110422026D01*
X164057119Y-110416699D01*
X164057082Y-110408347D01*
X164057072Y-110397353D01*
X164057089Y-110384100D01*
D11*
X158526667Y-91178571D02*
X158193333Y-91178571D01*
X158193333Y-91702381D02*
X158193333Y-90702381D01*
X158669524Y-90702381D01*
X158955238Y-90702381D02*
X159574286Y-90702381D01*
X159240952Y-91083333D01*
X159383810Y-91083333D01*
X159479048Y-91130952D01*
X159526667Y-91178571D01*
X159574286Y-91273810D01*
X159574286Y-91511905D01*
X159526667Y-91607143D01*
X159479048Y-91654762D01*
X159383810Y-91702381D01*
X159098095Y-91702381D01*
X159002857Y-91654762D01*
X158955238Y-91607143D01*
X132976667Y-95328571D02*
X132643333Y-95328571D01*
X132643333Y-95852381D02*
X132643333Y-94852381D01*
X133119524Y-94852381D01*
X133452857Y-94947619D02*
X133500476Y-94900000D01*
X133595714Y-94852381D01*
X133833810Y-94852381D01*
X133929048Y-94900000D01*
X133976667Y-94947619D01*
X134024286Y-95042857D01*
X134024286Y-95138095D01*
X133976667Y-95280952D01*
X133405238Y-95852381D01*
X134024286Y-95852381D01*
X153733334Y-112087143D02*
X153685715Y-112134762D01*
X153542858Y-112182381D01*
X153447620Y-112182381D01*
X153304762Y-112134762D01*
X153209524Y-112039524D01*
X153161905Y-111944286D01*
X153114286Y-111753810D01*
X153114286Y-111610952D01*
X153161905Y-111420476D01*
X153209524Y-111325238D01*
X153304762Y-111230000D01*
X153447620Y-111182381D01*
X153542858Y-111182381D01*
X153685715Y-111230000D01*
X153733334Y-111277619D01*
X154685715Y-112182381D02*
X154114286Y-112182381D01*
X154400000Y-112182381D02*
X154400000Y-111182381D01*
X154304762Y-111325238D01*
X154209524Y-111420476D01*
X154114286Y-111468095D01*
X152761905Y-119952381D02*
X152761905Y-118952381D01*
X153000000Y-118952381D01*
X153142858Y-119000000D01*
X153238096Y-119095238D01*
X153285715Y-119190476D01*
X153333334Y-119380952D01*
X153333334Y-119523810D01*
X153285715Y-119714286D01*
X153238096Y-119809524D01*
X153142858Y-119904762D01*
X153000000Y-119952381D01*
X152761905Y-119952381D01*
X154285715Y-119952381D02*
X153714286Y-119952381D01*
X154000000Y-119952381D02*
X154000000Y-118952381D01*
X153904762Y-119095238D01*
X153809524Y-119190476D01*
X153714286Y-119238095D01*
X135064762Y-96157619D02*
X134969524Y-96110000D01*
X134874286Y-96014762D01*
X134731429Y-95871905D01*
X134636190Y-95824286D01*
X134540952Y-95824286D01*
X134588571Y-96062381D02*
X134493333Y-96014762D01*
X134398095Y-95919524D01*
X134350476Y-95729048D01*
X134350476Y-95395714D01*
X134398095Y-95205238D01*
X134493333Y-95110000D01*
X134588571Y-95062381D01*
X134779048Y-95062381D01*
X134874286Y-95110000D01*
X134969524Y-95205238D01*
X135017143Y-95395714D01*
X135017143Y-95729048D01*
X134969524Y-95919524D01*
X134874286Y-96014762D01*
X134779048Y-96062381D01*
X134588571Y-96062381D01*
X135969524Y-96062381D02*
X135398095Y-96062381D01*
X135683809Y-96062381D02*
X135683809Y-95062381D01*
X135588571Y-95205238D01*
X135493333Y-95300476D01*
X135398095Y-95348095D01*
X133066667Y-120648571D02*
X132733333Y-120648571D01*
X132733333Y-121172381D02*
X132733333Y-120172381D01*
X133209524Y-120172381D01*
X134114286Y-121172381D02*
X133542857Y-121172381D01*
X133828571Y-121172381D02*
X133828571Y-120172381D01*
X133733333Y-120315238D01*
X133638095Y-120410476D01*
X133542857Y-120458095D01*
M02*
