G04 #@! TF.FileFunction,Copper,L2,Bot,Signal*
%FSLAX46Y46*%
G04 Gerber Fmt 4.6, Leading zero omitted, Abs format (unit mm)*
G04 Created by KiCad (PCBNEW 4.0.1-stable) date Thursday, February 04, 2016 'PMt' 08:08:59 PM*
%MOMM*%
G01*
G04 APERTURE LIST*
%ADD10C,0.100000*%
%ADD11C,0.010000*%
%ADD12R,0.660000X0.230000*%
%ADD13R,0.660000X0.350000*%
%ADD14R,1.200000X0.750000*%
%ADD15R,0.750000X0.300000*%
%ADD16R,0.875000X0.725000*%
%ADD17R,1.200000X0.900000*%
%ADD18C,1.524000*%
%ADD19R,1.727200X2.032000*%
%ADD20O,1.727200X2.032000*%
%ADD21R,1.727200X1.727200*%
%ADD22O,1.727200X1.727200*%
%ADD23R,2.032000X2.032000*%
%ADD24O,2.032000X2.032000*%
%ADD25R,0.900000X1.200000*%
%ADD26C,0.685800*%
%ADD27C,0.685801*%
%ADD28C,0.152400*%
%ADD29C,0.254000*%
G04 APERTURE END LIST*
D10*
D11*
G36*
X139952110Y-121603476D02*
X139930393Y-121603821D01*
X139911445Y-121604540D01*
X139894235Y-121605719D01*
X139877730Y-121607441D01*
X139860899Y-121609790D01*
X139842708Y-121612850D01*
X139827648Y-121615645D01*
X139787289Y-121624396D01*
X139745394Y-121635414D01*
X139703941Y-121648125D01*
X139664907Y-121661957D01*
X139657105Y-121664990D01*
X139627497Y-121676780D01*
X139598440Y-121688531D01*
X139569668Y-121700368D01*
X139540917Y-121712414D01*
X139511919Y-121724793D01*
X139482409Y-121737628D01*
X139452121Y-121751043D01*
X139420790Y-121765162D01*
X139388149Y-121780109D01*
X139353933Y-121796008D01*
X139317876Y-121812981D01*
X139279712Y-121831153D01*
X139239176Y-121850648D01*
X139196001Y-121871589D01*
X139149922Y-121894100D01*
X139100673Y-121918305D01*
X139047987Y-121944327D01*
X138991601Y-121972290D01*
X138931246Y-122002318D01*
X138915667Y-122010083D01*
X138863659Y-122035963D01*
X138815600Y-122059774D01*
X138771145Y-122081675D01*
X138729950Y-122101825D01*
X138691669Y-122120383D01*
X138655957Y-122137509D01*
X138622469Y-122153361D01*
X138590860Y-122168099D01*
X138560786Y-122181882D01*
X138531901Y-122194869D01*
X138503860Y-122207221D01*
X138476318Y-122219095D01*
X138448931Y-122230651D01*
X138421352Y-122242048D01*
X138393239Y-122253446D01*
X138364244Y-122265004D01*
X138358216Y-122267386D01*
X138340759Y-122274341D01*
X138324798Y-122280833D01*
X138310879Y-122286627D01*
X138299550Y-122291492D01*
X138291355Y-122295195D01*
X138286842Y-122297503D01*
X138286131Y-122298075D01*
X138287437Y-122300832D01*
X138291820Y-122306251D01*
X138298730Y-122313795D01*
X138307615Y-122322924D01*
X138317925Y-122333099D01*
X138329110Y-122343782D01*
X138340620Y-122354433D01*
X138351904Y-122364515D01*
X138362412Y-122373487D01*
X138366796Y-122377062D01*
X138417789Y-122415188D01*
X138473145Y-122451379D01*
X138532775Y-122485598D01*
X138596594Y-122517810D01*
X138664513Y-122547978D01*
X138736445Y-122576066D01*
X138812304Y-122602040D01*
X138892002Y-122625862D01*
X138975451Y-122647496D01*
X139062565Y-122666907D01*
X139076533Y-122669744D01*
X139136331Y-122680927D01*
X139192312Y-122689711D01*
X139244846Y-122696122D01*
X139294302Y-122700187D01*
X139341050Y-122701931D01*
X139385458Y-122701382D01*
X139427897Y-122698567D01*
X139447625Y-122696425D01*
X139492521Y-122689163D01*
X139533907Y-122678835D01*
X139571726Y-122665475D01*
X139605921Y-122649116D01*
X139636435Y-122629792D01*
X139663212Y-122607535D01*
X139686195Y-122582379D01*
X139705327Y-122554357D01*
X139712480Y-122541186D01*
X139721131Y-122522070D01*
X139728130Y-122501992D01*
X139733742Y-122479947D01*
X139738230Y-122454928D01*
X139741222Y-122431810D01*
X139742983Y-122416104D01*
X139790153Y-122411992D01*
X139804896Y-122410714D01*
X139818084Y-122409583D01*
X139828921Y-122408667D01*
X139836612Y-122408033D01*
X139840361Y-122407747D01*
X139840490Y-122407741D01*
X139842531Y-122406313D01*
X139842227Y-122405286D01*
X139843472Y-122404251D01*
X139848086Y-122403987D01*
X139854679Y-122404379D01*
X139861863Y-122405312D01*
X139868249Y-122406672D01*
X139871190Y-122407675D01*
X139874967Y-122408715D01*
X139882720Y-122410402D01*
X139893655Y-122412577D01*
X139906978Y-122415085D01*
X139921893Y-122417768D01*
X139925619Y-122418420D01*
X139981495Y-122427682D01*
X140034580Y-122435481D01*
X140086618Y-122442048D01*
X140139348Y-122447618D01*
X140155429Y-122449116D01*
X140170809Y-122450209D01*
X140189464Y-122451055D01*
X140210467Y-122451653D01*
X140232891Y-122452003D01*
X140255808Y-122452105D01*
X140278294Y-122451958D01*
X140299419Y-122451562D01*
X140318259Y-122450917D01*
X140333886Y-122450022D01*
X140342905Y-122449190D01*
X140392844Y-122442570D01*
X140441432Y-122434418D01*
X140489954Y-122424468D01*
X140539696Y-122412450D01*
X140591945Y-122398096D01*
X140602555Y-122394996D01*
X140618052Y-122390341D01*
X140629471Y-122386674D01*
X140637414Y-122383756D01*
X140642486Y-122381346D01*
X140645286Y-122379204D01*
X140646278Y-122377578D01*
X140646934Y-122374072D01*
X140648011Y-122366328D01*
X140649443Y-122354920D01*
X140651159Y-122340422D01*
X140653094Y-122323409D01*
X140655177Y-122304456D01*
X140657296Y-122284582D01*
X140659759Y-122260806D01*
X140661684Y-122241429D01*
X140663099Y-122226043D01*
X140664032Y-122214244D01*
X140664511Y-122205623D01*
X140664564Y-122199776D01*
X140664217Y-122196294D01*
X140663500Y-122194773D01*
X140663435Y-122194728D01*
X140659181Y-122193159D01*
X140652429Y-122191623D01*
X140650395Y-122191280D01*
X140642683Y-122189889D01*
X140630991Y-122187518D01*
X140616039Y-122184332D01*
X140598549Y-122180495D01*
X140579240Y-122176171D01*
X140558835Y-122171523D01*
X140538054Y-122166716D01*
X140517617Y-122161914D01*
X140498246Y-122157280D01*
X140480661Y-122152979D01*
X140467486Y-122149664D01*
X140397112Y-122130903D01*
X140331290Y-122111815D01*
X140269740Y-122092305D01*
X140212181Y-122072280D01*
X140158334Y-122051646D01*
X140107918Y-122030309D01*
X140099790Y-122026661D01*
X140051328Y-122003036D01*
X140001977Y-121975787D01*
X139952917Y-121945663D01*
X139905327Y-121913417D01*
X139860384Y-121879797D01*
X139830067Y-121854939D01*
X139817955Y-121844405D01*
X139805384Y-121833151D01*
X139792845Y-121821653D01*
X139780830Y-121810384D01*
X139769829Y-121799818D01*
X139760335Y-121790429D01*
X139752839Y-121782691D01*
X139747832Y-121777077D01*
X139745806Y-121774062D01*
X139745849Y-121773738D01*
X139749390Y-121771991D01*
X139756909Y-121769332D01*
X139767679Y-121765973D01*
X139780975Y-121762129D01*
X139796069Y-121758015D01*
X139812235Y-121753845D01*
X139819181Y-121752125D01*
X139867115Y-121742245D01*
X139915253Y-121736066D01*
X139964063Y-121733600D01*
X140014013Y-121734860D01*
X140065573Y-121739857D01*
X140119210Y-121748605D01*
X140175395Y-121761115D01*
X140176731Y-121761449D01*
X140233850Y-121777728D01*
X140288616Y-121797221D01*
X140340827Y-121819771D01*
X140390278Y-121845220D01*
X140436768Y-121873411D01*
X140480093Y-121904186D01*
X140520050Y-121937388D01*
X140556438Y-121972858D01*
X140589052Y-122010440D01*
X140617689Y-122049977D01*
X140642148Y-122091309D01*
X140662225Y-122134281D01*
X140664627Y-122140296D01*
X140672196Y-122159648D01*
X140773646Y-122256202D01*
X140792169Y-122273846D01*
X140809620Y-122290497D01*
X140825689Y-122305857D01*
X140840064Y-122319627D01*
X140852434Y-122331508D01*
X140862488Y-122341202D01*
X140869915Y-122348409D01*
X140874404Y-122352832D01*
X140875676Y-122354174D01*
X140873649Y-122355404D01*
X140867613Y-122358401D01*
X140857984Y-122362971D01*
X140845176Y-122368924D01*
X140829605Y-122376069D01*
X140811686Y-122384213D01*
X140791836Y-122393165D01*
X140770469Y-122402735D01*
X140765360Y-122405013D01*
X140654464Y-122454436D01*
X140642917Y-122495728D01*
X140637359Y-122514900D01*
X140630610Y-122537059D01*
X140623088Y-122560919D01*
X140615209Y-122585195D01*
X140607389Y-122608602D01*
X140600047Y-122629855D01*
X140593878Y-122646919D01*
X140590142Y-122656304D01*
X140587043Y-122662115D01*
X140583850Y-122665417D01*
X140579945Y-122667241D01*
X140574938Y-122668040D01*
X140565804Y-122668683D01*
X140553250Y-122669172D01*
X140537986Y-122669507D01*
X140520720Y-122669690D01*
X140502158Y-122669724D01*
X140483011Y-122669608D01*
X140463986Y-122669345D01*
X140445791Y-122668937D01*
X140429134Y-122668384D01*
X140414724Y-122667689D01*
X140403381Y-122666863D01*
X140291649Y-122654774D01*
X140223162Y-122645603D01*
X140193868Y-122641189D01*
X140168621Y-122636868D01*
X140146640Y-122632428D01*
X140127143Y-122627653D01*
X140109349Y-122622331D01*
X140092477Y-122616246D01*
X140075745Y-122609184D01*
X140058372Y-122600933D01*
X140056248Y-122599873D01*
X140017924Y-122578252D01*
X139980341Y-122552307D01*
X139944131Y-122522553D01*
X139909927Y-122489502D01*
X139882637Y-122458880D01*
X139869981Y-122443635D01*
X139869981Y-122451987D01*
X139869288Y-122462188D01*
X139867375Y-122475800D01*
X139864488Y-122491624D01*
X139860873Y-122508462D01*
X139856778Y-122525114D01*
X139852450Y-122540381D01*
X139850595Y-122546173D01*
X139834555Y-122586904D01*
X139814678Y-122624716D01*
X139791022Y-122659558D01*
X139763650Y-122691374D01*
X139732620Y-122720111D01*
X139697994Y-122745717D01*
X139659832Y-122768137D01*
X139618195Y-122787319D01*
X139573143Y-122803209D01*
X139553086Y-122808923D01*
X139517259Y-122817339D01*
X139480385Y-122823721D01*
X139441593Y-122828166D01*
X139400012Y-122830775D01*
X139354772Y-122831646D01*
X139353514Y-122831647D01*
X139318422Y-122831229D01*
X139284337Y-122829929D01*
X139250467Y-122827658D01*
X139216018Y-122824326D01*
X139180197Y-122819845D01*
X139142210Y-122814126D01*
X139101265Y-122807080D01*
X139056567Y-122798618D01*
X139053552Y-122798025D01*
X138968906Y-122779934D01*
X138886963Y-122759615D01*
X138807888Y-122737142D01*
X138731847Y-122712591D01*
X138659005Y-122686036D01*
X138589526Y-122657553D01*
X138523576Y-122627216D01*
X138461320Y-122595101D01*
X138402923Y-122561282D01*
X138348550Y-122525834D01*
X138298367Y-122488833D01*
X138252538Y-122450352D01*
X138220190Y-122419632D01*
X138209125Y-122408214D01*
X138197811Y-122396029D01*
X138187362Y-122384311D01*
X138178896Y-122374294D01*
X138176648Y-122371469D01*
X138169727Y-122362594D01*
X138163592Y-122354754D01*
X138159057Y-122348989D01*
X138157295Y-122346775D01*
X138155413Y-122344749D01*
X138153130Y-122343686D01*
X138149423Y-122343591D01*
X138143273Y-122344470D01*
X138133655Y-122346329D01*
X138130686Y-122346929D01*
X138059527Y-122358886D01*
X137987931Y-122366051D01*
X137915776Y-122368432D01*
X137842943Y-122366035D01*
X137831933Y-122365262D01*
X137774120Y-122360415D01*
X137711841Y-122354221D01*
X137645270Y-122346710D01*
X137574580Y-122337912D01*
X137499944Y-122327858D01*
X137421536Y-122316576D01*
X137339527Y-122304097D01*
X137254092Y-122290450D01*
X137165402Y-122275667D01*
X137073632Y-122259776D01*
X136978955Y-122242808D01*
X136881542Y-122224792D01*
X136781568Y-122205758D01*
X136679205Y-122185737D01*
X136574627Y-122164759D01*
X136468005Y-122142852D01*
X136359515Y-122120048D01*
X136249328Y-122096376D01*
X136144648Y-122073423D01*
X136114138Y-122066666D01*
X136087931Y-122060983D01*
X136065594Y-122056466D01*
X136046693Y-122053208D01*
X136030792Y-122051300D01*
X136017459Y-122050835D01*
X136006260Y-122051905D01*
X135996760Y-122054603D01*
X135988525Y-122059020D01*
X135981121Y-122065249D01*
X135974114Y-122073382D01*
X135967071Y-122083511D01*
X135959557Y-122095729D01*
X135951138Y-122110128D01*
X135948203Y-122115174D01*
X135922648Y-122160278D01*
X135898694Y-122205021D01*
X135876614Y-122248833D01*
X135856677Y-122291142D01*
X135839156Y-122331379D01*
X135824320Y-122368973D01*
X135814813Y-122396018D01*
X135804211Y-122431958D01*
X135796863Y-122465498D01*
X135792749Y-122496481D01*
X135791850Y-122524750D01*
X135794147Y-122550150D01*
X135799622Y-122572523D01*
X135808256Y-122591713D01*
X135820031Y-122607563D01*
X135834926Y-122619917D01*
X135842143Y-122624043D01*
X135849092Y-122627306D01*
X135856669Y-122630302D01*
X135865121Y-122633051D01*
X135874693Y-122635572D01*
X135885628Y-122637884D01*
X135898174Y-122640007D01*
X135912573Y-122641960D01*
X135929073Y-122643761D01*
X135947916Y-122645431D01*
X135969350Y-122646989D01*
X135993617Y-122648454D01*
X136020965Y-122649845D01*
X136051637Y-122651181D01*
X136085879Y-122652483D01*
X136123935Y-122653769D01*
X136166051Y-122655058D01*
X136212471Y-122656370D01*
X136263442Y-122657724D01*
X136272857Y-122657967D01*
X136356567Y-122660256D01*
X136435821Y-122662711D01*
X136511001Y-122665352D01*
X136582487Y-122668202D01*
X136650660Y-122671281D01*
X136715901Y-122674609D01*
X136778589Y-122678209D01*
X136839107Y-122682101D01*
X136897835Y-122686306D01*
X136955153Y-122690846D01*
X137011442Y-122695740D01*
X137067083Y-122701011D01*
X137085657Y-122702866D01*
X137173908Y-122712350D01*
X137259256Y-122722702D01*
X137342213Y-122734038D01*
X137423293Y-122746474D01*
X137503009Y-122760127D01*
X137581875Y-122775112D01*
X137660402Y-122791546D01*
X137739106Y-122809545D01*
X137818498Y-122829225D01*
X137899092Y-122850703D01*
X137981401Y-122874095D01*
X138065938Y-122899516D01*
X138153217Y-122927083D01*
X138243751Y-122956912D01*
X138315743Y-122981406D01*
X138349933Y-122993412D01*
X138382526Y-123005361D01*
X138413982Y-123017474D01*
X138444759Y-123029971D01*
X138475317Y-123043070D01*
X138506114Y-123056991D01*
X138537610Y-123071955D01*
X138570264Y-123088180D01*
X138604534Y-123105887D01*
X138640880Y-123125295D01*
X138679761Y-123146623D01*
X138721635Y-123170092D01*
X138766962Y-123195920D01*
X138781410Y-123204224D01*
X138821607Y-123227353D01*
X138857930Y-123248218D01*
X138890685Y-123266989D01*
X138920180Y-123283834D01*
X138946721Y-123298923D01*
X138970614Y-123312425D01*
X138992168Y-123324510D01*
X139011689Y-123335347D01*
X139029484Y-123345105D01*
X139045860Y-123353953D01*
X139061124Y-123362061D01*
X139075583Y-123369598D01*
X139089543Y-123376734D01*
X139103313Y-123383637D01*
X139117198Y-123390478D01*
X139131506Y-123397425D01*
X139132761Y-123398031D01*
X139179005Y-123419588D01*
X139222629Y-123438276D01*
X139264572Y-123454365D01*
X139305777Y-123468123D01*
X139347182Y-123479819D01*
X139389730Y-123489722D01*
X139434361Y-123498101D01*
X139482015Y-123505226D01*
X139526476Y-123510592D01*
X139554581Y-123513170D01*
X139586087Y-123515200D01*
X139619583Y-123516643D01*
X139653660Y-123517463D01*
X139686906Y-123517622D01*
X139717912Y-123517082D01*
X139738143Y-123516234D01*
X139792689Y-123511679D01*
X139847859Y-123504053D01*
X139902838Y-123493561D01*
X139956811Y-123480409D01*
X140008964Y-123464801D01*
X140058482Y-123446941D01*
X140104549Y-123427036D01*
X140116966Y-123421000D01*
X140172495Y-123390655D01*
X140226819Y-123355709D01*
X140279841Y-123316270D01*
X140331466Y-123272446D01*
X140381598Y-123224345D01*
X140430141Y-123172076D01*
X140476999Y-123115746D01*
X140522076Y-123055465D01*
X140565277Y-122991339D01*
X140606505Y-122923477D01*
X140645665Y-122851987D01*
X140676585Y-122789852D01*
X140689160Y-122762482D01*
X140701243Y-122734118D01*
X140713182Y-122703873D01*
X140725324Y-122670861D01*
X140738016Y-122634197D01*
X140740995Y-122625315D01*
X140746254Y-122609237D01*
X140751811Y-122591690D01*
X140757423Y-122573490D01*
X140762851Y-122555456D01*
X140767851Y-122538405D01*
X140772182Y-122523156D01*
X140775603Y-122510525D01*
X140777871Y-122501330D01*
X140778427Y-122498669D01*
X140779914Y-122490741D01*
X140920221Y-122434122D01*
X140944893Y-122424148D01*
X140968212Y-122414687D01*
X140989795Y-122405897D01*
X141009259Y-122397934D01*
X141026219Y-122390958D01*
X141040293Y-122385125D01*
X141051096Y-122380595D01*
X141058246Y-122377524D01*
X141061359Y-122376070D01*
X141061461Y-122375993D01*
X141059856Y-122374176D01*
X141054918Y-122369406D01*
X141046929Y-122361941D01*
X141036175Y-122352039D01*
X141022939Y-122339960D01*
X141007506Y-122325962D01*
X140990159Y-122310303D01*
X140971184Y-122293243D01*
X140950863Y-122275039D01*
X140933461Y-122259499D01*
X140908764Y-122237467D01*
X140887429Y-122218409D01*
X140869202Y-122202080D01*
X140853830Y-122188239D01*
X140841060Y-122176642D01*
X140830639Y-122167046D01*
X140822314Y-122159209D01*
X140815831Y-122152887D01*
X140810938Y-122147839D01*
X140807381Y-122143820D01*
X140804908Y-122140588D01*
X140803264Y-122137901D01*
X140802198Y-122135515D01*
X140801455Y-122133187D01*
X140801329Y-122132730D01*
X140796934Y-122118639D01*
X140790693Y-122101530D01*
X140783101Y-122082617D01*
X140774658Y-122063114D01*
X140765859Y-122044235D01*
X140761337Y-122035123D01*
X140739087Y-121995208D01*
X140713559Y-121956722D01*
X140684286Y-121919028D01*
X140650801Y-121881488D01*
X140641788Y-121872125D01*
X140603725Y-121835413D01*
X140564448Y-121802167D01*
X140523130Y-121771793D01*
X140478948Y-121743696D01*
X140431076Y-121717283D01*
X140416686Y-121710002D01*
X140370020Y-121688147D01*
X140323382Y-121669060D01*
X140275929Y-121652485D01*
X140226818Y-121638166D01*
X140175208Y-121625846D01*
X140120255Y-121615269D01*
X140088391Y-121610116D01*
X140074789Y-121608114D01*
X140062907Y-121606560D01*
X140051787Y-121605397D01*
X140040472Y-121604566D01*
X140028005Y-121604011D01*
X140013430Y-121603672D01*
X139995789Y-121603493D01*
X139977629Y-121603423D01*
X139952110Y-121603476D01*
X139952110Y-121603476D01*
G37*
X139952110Y-121603476D02*
X139930393Y-121603821D01*
X139911445Y-121604540D01*
X139894235Y-121605719D01*
X139877730Y-121607441D01*
X139860899Y-121609790D01*
X139842708Y-121612850D01*
X139827648Y-121615645D01*
X139787289Y-121624396D01*
X139745394Y-121635414D01*
X139703941Y-121648125D01*
X139664907Y-121661957D01*
X139657105Y-121664990D01*
X139627497Y-121676780D01*
X139598440Y-121688531D01*
X139569668Y-121700368D01*
X139540917Y-121712414D01*
X139511919Y-121724793D01*
X139482409Y-121737628D01*
X139452121Y-121751043D01*
X139420790Y-121765162D01*
X139388149Y-121780109D01*
X139353933Y-121796008D01*
X139317876Y-121812981D01*
X139279712Y-121831153D01*
X139239176Y-121850648D01*
X139196001Y-121871589D01*
X139149922Y-121894100D01*
X139100673Y-121918305D01*
X139047987Y-121944327D01*
X138991601Y-121972290D01*
X138931246Y-122002318D01*
X138915667Y-122010083D01*
X138863659Y-122035963D01*
X138815600Y-122059774D01*
X138771145Y-122081675D01*
X138729950Y-122101825D01*
X138691669Y-122120383D01*
X138655957Y-122137509D01*
X138622469Y-122153361D01*
X138590860Y-122168099D01*
X138560786Y-122181882D01*
X138531901Y-122194869D01*
X138503860Y-122207221D01*
X138476318Y-122219095D01*
X138448931Y-122230651D01*
X138421352Y-122242048D01*
X138393239Y-122253446D01*
X138364244Y-122265004D01*
X138358216Y-122267386D01*
X138340759Y-122274341D01*
X138324798Y-122280833D01*
X138310879Y-122286627D01*
X138299550Y-122291492D01*
X138291355Y-122295195D01*
X138286842Y-122297503D01*
X138286131Y-122298075D01*
X138287437Y-122300832D01*
X138291820Y-122306251D01*
X138298730Y-122313795D01*
X138307615Y-122322924D01*
X138317925Y-122333099D01*
X138329110Y-122343782D01*
X138340620Y-122354433D01*
X138351904Y-122364515D01*
X138362412Y-122373487D01*
X138366796Y-122377062D01*
X138417789Y-122415188D01*
X138473145Y-122451379D01*
X138532775Y-122485598D01*
X138596594Y-122517810D01*
X138664513Y-122547978D01*
X138736445Y-122576066D01*
X138812304Y-122602040D01*
X138892002Y-122625862D01*
X138975451Y-122647496D01*
X139062565Y-122666907D01*
X139076533Y-122669744D01*
X139136331Y-122680927D01*
X139192312Y-122689711D01*
X139244846Y-122696122D01*
X139294302Y-122700187D01*
X139341050Y-122701931D01*
X139385458Y-122701382D01*
X139427897Y-122698567D01*
X139447625Y-122696425D01*
X139492521Y-122689163D01*
X139533907Y-122678835D01*
X139571726Y-122665475D01*
X139605921Y-122649116D01*
X139636435Y-122629792D01*
X139663212Y-122607535D01*
X139686195Y-122582379D01*
X139705327Y-122554357D01*
X139712480Y-122541186D01*
X139721131Y-122522070D01*
X139728130Y-122501992D01*
X139733742Y-122479947D01*
X139738230Y-122454928D01*
X139741222Y-122431810D01*
X139742983Y-122416104D01*
X139790153Y-122411992D01*
X139804896Y-122410714D01*
X139818084Y-122409583D01*
X139828921Y-122408667D01*
X139836612Y-122408033D01*
X139840361Y-122407747D01*
X139840490Y-122407741D01*
X139842531Y-122406313D01*
X139842227Y-122405286D01*
X139843472Y-122404251D01*
X139848086Y-122403987D01*
X139854679Y-122404379D01*
X139861863Y-122405312D01*
X139868249Y-122406672D01*
X139871190Y-122407675D01*
X139874967Y-122408715D01*
X139882720Y-122410402D01*
X139893655Y-122412577D01*
X139906978Y-122415085D01*
X139921893Y-122417768D01*
X139925619Y-122418420D01*
X139981495Y-122427682D01*
X140034580Y-122435481D01*
X140086618Y-122442048D01*
X140139348Y-122447618D01*
X140155429Y-122449116D01*
X140170809Y-122450209D01*
X140189464Y-122451055D01*
X140210467Y-122451653D01*
X140232891Y-122452003D01*
X140255808Y-122452105D01*
X140278294Y-122451958D01*
X140299419Y-122451562D01*
X140318259Y-122450917D01*
X140333886Y-122450022D01*
X140342905Y-122449190D01*
X140392844Y-122442570D01*
X140441432Y-122434418D01*
X140489954Y-122424468D01*
X140539696Y-122412450D01*
X140591945Y-122398096D01*
X140602555Y-122394996D01*
X140618052Y-122390341D01*
X140629471Y-122386674D01*
X140637414Y-122383756D01*
X140642486Y-122381346D01*
X140645286Y-122379204D01*
X140646278Y-122377578D01*
X140646934Y-122374072D01*
X140648011Y-122366328D01*
X140649443Y-122354920D01*
X140651159Y-122340422D01*
X140653094Y-122323409D01*
X140655177Y-122304456D01*
X140657296Y-122284582D01*
X140659759Y-122260806D01*
X140661684Y-122241429D01*
X140663099Y-122226043D01*
X140664032Y-122214244D01*
X140664511Y-122205623D01*
X140664564Y-122199776D01*
X140664217Y-122196294D01*
X140663500Y-122194773D01*
X140663435Y-122194728D01*
X140659181Y-122193159D01*
X140652429Y-122191623D01*
X140650395Y-122191280D01*
X140642683Y-122189889D01*
X140630991Y-122187518D01*
X140616039Y-122184332D01*
X140598549Y-122180495D01*
X140579240Y-122176171D01*
X140558835Y-122171523D01*
X140538054Y-122166716D01*
X140517617Y-122161914D01*
X140498246Y-122157280D01*
X140480661Y-122152979D01*
X140467486Y-122149664D01*
X140397112Y-122130903D01*
X140331290Y-122111815D01*
X140269740Y-122092305D01*
X140212181Y-122072280D01*
X140158334Y-122051646D01*
X140107918Y-122030309D01*
X140099790Y-122026661D01*
X140051328Y-122003036D01*
X140001977Y-121975787D01*
X139952917Y-121945663D01*
X139905327Y-121913417D01*
X139860384Y-121879797D01*
X139830067Y-121854939D01*
X139817955Y-121844405D01*
X139805384Y-121833151D01*
X139792845Y-121821653D01*
X139780830Y-121810384D01*
X139769829Y-121799818D01*
X139760335Y-121790429D01*
X139752839Y-121782691D01*
X139747832Y-121777077D01*
X139745806Y-121774062D01*
X139745849Y-121773738D01*
X139749390Y-121771991D01*
X139756909Y-121769332D01*
X139767679Y-121765973D01*
X139780975Y-121762129D01*
X139796069Y-121758015D01*
X139812235Y-121753845D01*
X139819181Y-121752125D01*
X139867115Y-121742245D01*
X139915253Y-121736066D01*
X139964063Y-121733600D01*
X140014013Y-121734860D01*
X140065573Y-121739857D01*
X140119210Y-121748605D01*
X140175395Y-121761115D01*
X140176731Y-121761449D01*
X140233850Y-121777728D01*
X140288616Y-121797221D01*
X140340827Y-121819771D01*
X140390278Y-121845220D01*
X140436768Y-121873411D01*
X140480093Y-121904186D01*
X140520050Y-121937388D01*
X140556438Y-121972858D01*
X140589052Y-122010440D01*
X140617689Y-122049977D01*
X140642148Y-122091309D01*
X140662225Y-122134281D01*
X140664627Y-122140296D01*
X140672196Y-122159648D01*
X140773646Y-122256202D01*
X140792169Y-122273846D01*
X140809620Y-122290497D01*
X140825689Y-122305857D01*
X140840064Y-122319627D01*
X140852434Y-122331508D01*
X140862488Y-122341202D01*
X140869915Y-122348409D01*
X140874404Y-122352832D01*
X140875676Y-122354174D01*
X140873649Y-122355404D01*
X140867613Y-122358401D01*
X140857984Y-122362971D01*
X140845176Y-122368924D01*
X140829605Y-122376069D01*
X140811686Y-122384213D01*
X140791836Y-122393165D01*
X140770469Y-122402735D01*
X140765360Y-122405013D01*
X140654464Y-122454436D01*
X140642917Y-122495728D01*
X140637359Y-122514900D01*
X140630610Y-122537059D01*
X140623088Y-122560919D01*
X140615209Y-122585195D01*
X140607389Y-122608602D01*
X140600047Y-122629855D01*
X140593878Y-122646919D01*
X140590142Y-122656304D01*
X140587043Y-122662115D01*
X140583850Y-122665417D01*
X140579945Y-122667241D01*
X140574938Y-122668040D01*
X140565804Y-122668683D01*
X140553250Y-122669172D01*
X140537986Y-122669507D01*
X140520720Y-122669690D01*
X140502158Y-122669724D01*
X140483011Y-122669608D01*
X140463986Y-122669345D01*
X140445791Y-122668937D01*
X140429134Y-122668384D01*
X140414724Y-122667689D01*
X140403381Y-122666863D01*
X140291649Y-122654774D01*
X140223162Y-122645603D01*
X140193868Y-122641189D01*
X140168621Y-122636868D01*
X140146640Y-122632428D01*
X140127143Y-122627653D01*
X140109349Y-122622331D01*
X140092477Y-122616246D01*
X140075745Y-122609184D01*
X140058372Y-122600933D01*
X140056248Y-122599873D01*
X140017924Y-122578252D01*
X139980341Y-122552307D01*
X139944131Y-122522553D01*
X139909927Y-122489502D01*
X139882637Y-122458880D01*
X139869981Y-122443635D01*
X139869981Y-122451987D01*
X139869288Y-122462188D01*
X139867375Y-122475800D01*
X139864488Y-122491624D01*
X139860873Y-122508462D01*
X139856778Y-122525114D01*
X139852450Y-122540381D01*
X139850595Y-122546173D01*
X139834555Y-122586904D01*
X139814678Y-122624716D01*
X139791022Y-122659558D01*
X139763650Y-122691374D01*
X139732620Y-122720111D01*
X139697994Y-122745717D01*
X139659832Y-122768137D01*
X139618195Y-122787319D01*
X139573143Y-122803209D01*
X139553086Y-122808923D01*
X139517259Y-122817339D01*
X139480385Y-122823721D01*
X139441593Y-122828166D01*
X139400012Y-122830775D01*
X139354772Y-122831646D01*
X139353514Y-122831647D01*
X139318422Y-122831229D01*
X139284337Y-122829929D01*
X139250467Y-122827658D01*
X139216018Y-122824326D01*
X139180197Y-122819845D01*
X139142210Y-122814126D01*
X139101265Y-122807080D01*
X139056567Y-122798618D01*
X139053552Y-122798025D01*
X138968906Y-122779934D01*
X138886963Y-122759615D01*
X138807888Y-122737142D01*
X138731847Y-122712591D01*
X138659005Y-122686036D01*
X138589526Y-122657553D01*
X138523576Y-122627216D01*
X138461320Y-122595101D01*
X138402923Y-122561282D01*
X138348550Y-122525834D01*
X138298367Y-122488833D01*
X138252538Y-122450352D01*
X138220190Y-122419632D01*
X138209125Y-122408214D01*
X138197811Y-122396029D01*
X138187362Y-122384311D01*
X138178896Y-122374294D01*
X138176648Y-122371469D01*
X138169727Y-122362594D01*
X138163592Y-122354754D01*
X138159057Y-122348989D01*
X138157295Y-122346775D01*
X138155413Y-122344749D01*
X138153130Y-122343686D01*
X138149423Y-122343591D01*
X138143273Y-122344470D01*
X138133655Y-122346329D01*
X138130686Y-122346929D01*
X138059527Y-122358886D01*
X137987931Y-122366051D01*
X137915776Y-122368432D01*
X137842943Y-122366035D01*
X137831933Y-122365262D01*
X137774120Y-122360415D01*
X137711841Y-122354221D01*
X137645270Y-122346710D01*
X137574580Y-122337912D01*
X137499944Y-122327858D01*
X137421536Y-122316576D01*
X137339527Y-122304097D01*
X137254092Y-122290450D01*
X137165402Y-122275667D01*
X137073632Y-122259776D01*
X136978955Y-122242808D01*
X136881542Y-122224792D01*
X136781568Y-122205758D01*
X136679205Y-122185737D01*
X136574627Y-122164759D01*
X136468005Y-122142852D01*
X136359515Y-122120048D01*
X136249328Y-122096376D01*
X136144648Y-122073423D01*
X136114138Y-122066666D01*
X136087931Y-122060983D01*
X136065594Y-122056466D01*
X136046693Y-122053208D01*
X136030792Y-122051300D01*
X136017459Y-122050835D01*
X136006260Y-122051905D01*
X135996760Y-122054603D01*
X135988525Y-122059020D01*
X135981121Y-122065249D01*
X135974114Y-122073382D01*
X135967071Y-122083511D01*
X135959557Y-122095729D01*
X135951138Y-122110128D01*
X135948203Y-122115174D01*
X135922648Y-122160278D01*
X135898694Y-122205021D01*
X135876614Y-122248833D01*
X135856677Y-122291142D01*
X135839156Y-122331379D01*
X135824320Y-122368973D01*
X135814813Y-122396018D01*
X135804211Y-122431958D01*
X135796863Y-122465498D01*
X135792749Y-122496481D01*
X135791850Y-122524750D01*
X135794147Y-122550150D01*
X135799622Y-122572523D01*
X135808256Y-122591713D01*
X135820031Y-122607563D01*
X135834926Y-122619917D01*
X135842143Y-122624043D01*
X135849092Y-122627306D01*
X135856669Y-122630302D01*
X135865121Y-122633051D01*
X135874693Y-122635572D01*
X135885628Y-122637884D01*
X135898174Y-122640007D01*
X135912573Y-122641960D01*
X135929073Y-122643761D01*
X135947916Y-122645431D01*
X135969350Y-122646989D01*
X135993617Y-122648454D01*
X136020965Y-122649845D01*
X136051637Y-122651181D01*
X136085879Y-122652483D01*
X136123935Y-122653769D01*
X136166051Y-122655058D01*
X136212471Y-122656370D01*
X136263442Y-122657724D01*
X136272857Y-122657967D01*
X136356567Y-122660256D01*
X136435821Y-122662711D01*
X136511001Y-122665352D01*
X136582487Y-122668202D01*
X136650660Y-122671281D01*
X136715901Y-122674609D01*
X136778589Y-122678209D01*
X136839107Y-122682101D01*
X136897835Y-122686306D01*
X136955153Y-122690846D01*
X137011442Y-122695740D01*
X137067083Y-122701011D01*
X137085657Y-122702866D01*
X137173908Y-122712350D01*
X137259256Y-122722702D01*
X137342213Y-122734038D01*
X137423293Y-122746474D01*
X137503009Y-122760127D01*
X137581875Y-122775112D01*
X137660402Y-122791546D01*
X137739106Y-122809545D01*
X137818498Y-122829225D01*
X137899092Y-122850703D01*
X137981401Y-122874095D01*
X138065938Y-122899516D01*
X138153217Y-122927083D01*
X138243751Y-122956912D01*
X138315743Y-122981406D01*
X138349933Y-122993412D01*
X138382526Y-123005361D01*
X138413982Y-123017474D01*
X138444759Y-123029971D01*
X138475317Y-123043070D01*
X138506114Y-123056991D01*
X138537610Y-123071955D01*
X138570264Y-123088180D01*
X138604534Y-123105887D01*
X138640880Y-123125295D01*
X138679761Y-123146623D01*
X138721635Y-123170092D01*
X138766962Y-123195920D01*
X138781410Y-123204224D01*
X138821607Y-123227353D01*
X138857930Y-123248218D01*
X138890685Y-123266989D01*
X138920180Y-123283834D01*
X138946721Y-123298923D01*
X138970614Y-123312425D01*
X138992168Y-123324510D01*
X139011689Y-123335347D01*
X139029484Y-123345105D01*
X139045860Y-123353953D01*
X139061124Y-123362061D01*
X139075583Y-123369598D01*
X139089543Y-123376734D01*
X139103313Y-123383637D01*
X139117198Y-123390478D01*
X139131506Y-123397425D01*
X139132761Y-123398031D01*
X139179005Y-123419588D01*
X139222629Y-123438276D01*
X139264572Y-123454365D01*
X139305777Y-123468123D01*
X139347182Y-123479819D01*
X139389730Y-123489722D01*
X139434361Y-123498101D01*
X139482015Y-123505226D01*
X139526476Y-123510592D01*
X139554581Y-123513170D01*
X139586087Y-123515200D01*
X139619583Y-123516643D01*
X139653660Y-123517463D01*
X139686906Y-123517622D01*
X139717912Y-123517082D01*
X139738143Y-123516234D01*
X139792689Y-123511679D01*
X139847859Y-123504053D01*
X139902838Y-123493561D01*
X139956811Y-123480409D01*
X140008964Y-123464801D01*
X140058482Y-123446941D01*
X140104549Y-123427036D01*
X140116966Y-123421000D01*
X140172495Y-123390655D01*
X140226819Y-123355709D01*
X140279841Y-123316270D01*
X140331466Y-123272446D01*
X140381598Y-123224345D01*
X140430141Y-123172076D01*
X140476999Y-123115746D01*
X140522076Y-123055465D01*
X140565277Y-122991339D01*
X140606505Y-122923477D01*
X140645665Y-122851987D01*
X140676585Y-122789852D01*
X140689160Y-122762482D01*
X140701243Y-122734118D01*
X140713182Y-122703873D01*
X140725324Y-122670861D01*
X140738016Y-122634197D01*
X140740995Y-122625315D01*
X140746254Y-122609237D01*
X140751811Y-122591690D01*
X140757423Y-122573490D01*
X140762851Y-122555456D01*
X140767851Y-122538405D01*
X140772182Y-122523156D01*
X140775603Y-122510525D01*
X140777871Y-122501330D01*
X140778427Y-122498669D01*
X140779914Y-122490741D01*
X140920221Y-122434122D01*
X140944893Y-122424148D01*
X140968212Y-122414687D01*
X140989795Y-122405897D01*
X141009259Y-122397934D01*
X141026219Y-122390958D01*
X141040293Y-122385125D01*
X141051096Y-122380595D01*
X141058246Y-122377524D01*
X141061359Y-122376070D01*
X141061461Y-122375993D01*
X141059856Y-122374176D01*
X141054918Y-122369406D01*
X141046929Y-122361941D01*
X141036175Y-122352039D01*
X141022939Y-122339960D01*
X141007506Y-122325962D01*
X140990159Y-122310303D01*
X140971184Y-122293243D01*
X140950863Y-122275039D01*
X140933461Y-122259499D01*
X140908764Y-122237467D01*
X140887429Y-122218409D01*
X140869202Y-122202080D01*
X140853830Y-122188239D01*
X140841060Y-122176642D01*
X140830639Y-122167046D01*
X140822314Y-122159209D01*
X140815831Y-122152887D01*
X140810938Y-122147839D01*
X140807381Y-122143820D01*
X140804908Y-122140588D01*
X140803264Y-122137901D01*
X140802198Y-122135515D01*
X140801455Y-122133187D01*
X140801329Y-122132730D01*
X140796934Y-122118639D01*
X140790693Y-122101530D01*
X140783101Y-122082617D01*
X140774658Y-122063114D01*
X140765859Y-122044235D01*
X140761337Y-122035123D01*
X140739087Y-121995208D01*
X140713559Y-121956722D01*
X140684286Y-121919028D01*
X140650801Y-121881488D01*
X140641788Y-121872125D01*
X140603725Y-121835413D01*
X140564448Y-121802167D01*
X140523130Y-121771793D01*
X140478948Y-121743696D01*
X140431076Y-121717283D01*
X140416686Y-121710002D01*
X140370020Y-121688147D01*
X140323382Y-121669060D01*
X140275929Y-121652485D01*
X140226818Y-121638166D01*
X140175208Y-121625846D01*
X140120255Y-121615269D01*
X140088391Y-121610116D01*
X140074789Y-121608114D01*
X140062907Y-121606560D01*
X140051787Y-121605397D01*
X140040472Y-121604566D01*
X140028005Y-121604011D01*
X140013430Y-121603672D01*
X139995789Y-121603493D01*
X139977629Y-121603423D01*
X139952110Y-121603476D01*
D12*
X161005000Y-115800000D03*
X158295000Y-115800000D03*
X161005000Y-100200000D03*
X158295000Y-100200000D03*
X161005000Y-115400000D03*
X161005000Y-115000000D03*
X161005000Y-114600000D03*
X161005000Y-114200000D03*
X161005000Y-113800000D03*
X161005000Y-113400000D03*
X161005000Y-113000000D03*
X161005000Y-112600000D03*
X161005000Y-112200000D03*
X161005000Y-111800000D03*
X161005000Y-111400000D03*
X161005000Y-111000000D03*
X161005000Y-110600000D03*
X161005000Y-110200000D03*
X161005000Y-109800000D03*
X161005000Y-109400000D03*
X161005000Y-109000000D03*
X161005000Y-108600000D03*
X161005000Y-108200000D03*
X161005000Y-107800000D03*
X161005000Y-107400000D03*
X161005000Y-107000000D03*
X161005000Y-106600000D03*
X161005000Y-106200000D03*
X161005000Y-105800000D03*
X161005000Y-105400000D03*
X161005000Y-105000000D03*
X161005000Y-104600000D03*
X161005000Y-104200000D03*
X161005000Y-103800000D03*
X161005000Y-103400000D03*
X161005000Y-103000000D03*
X161005000Y-102600000D03*
X161005000Y-102200000D03*
X161005000Y-101800000D03*
X161005000Y-101400000D03*
X161005000Y-101000000D03*
X161005000Y-100600000D03*
D13*
X161005000Y-99725000D03*
X158295000Y-99725000D03*
X161005000Y-116275000D03*
X158295000Y-116275000D03*
D12*
X158295000Y-100600000D03*
X158295000Y-101000000D03*
X158295000Y-101400000D03*
X158295000Y-101800000D03*
X158295000Y-102200000D03*
X158295000Y-102600000D03*
X158295000Y-103000000D03*
X158295000Y-103400000D03*
X158295000Y-103800000D03*
X158295000Y-104200000D03*
X158295000Y-104600000D03*
X158295000Y-105000000D03*
X158295000Y-105400000D03*
X158295000Y-105800000D03*
X158295000Y-106200000D03*
X158295000Y-106600000D03*
X158295000Y-107000000D03*
X158295000Y-107400000D03*
X158295000Y-107800000D03*
X158295000Y-108200000D03*
X158295000Y-108600000D03*
X158295000Y-109000000D03*
X158295000Y-109400000D03*
X158295000Y-109800000D03*
X158295000Y-110200000D03*
X158295000Y-110600000D03*
X158295000Y-111000000D03*
X158295000Y-111400000D03*
X158295000Y-111800000D03*
X158295000Y-112200000D03*
X158295000Y-112600000D03*
X158295000Y-113000000D03*
X158295000Y-113400000D03*
X158295000Y-113800000D03*
X158295000Y-114200000D03*
X158295000Y-114600000D03*
X158295000Y-115000000D03*
X158295000Y-115400000D03*
D14*
X156250000Y-95900000D03*
X158150000Y-95900000D03*
D15*
X158712500Y-92862500D03*
X158712500Y-93362500D03*
X158712500Y-93862500D03*
X158712500Y-94362500D03*
X155812500Y-94362500D03*
X155812500Y-93862500D03*
X155812500Y-93362500D03*
X155812500Y-92862500D03*
D16*
X156825000Y-93975000D03*
X156825000Y-93250000D03*
X157700000Y-93975000D03*
X157700000Y-93250000D03*
D17*
X156550000Y-91200000D03*
X154350000Y-91200000D03*
D18*
X158550000Y-91250000D03*
D19*
X143180000Y-121090000D03*
D20*
X145720000Y-121090000D03*
X148260000Y-121090000D03*
X150800000Y-121090000D03*
D21*
X150850000Y-111180000D03*
D22*
X148310000Y-111180000D03*
X150850000Y-108640000D03*
X148310000Y-108640000D03*
X150850000Y-106100000D03*
X148310000Y-106100000D03*
X150850000Y-103560000D03*
X148310000Y-103560000D03*
X150850000Y-101020000D03*
X148310000Y-101020000D03*
X150850000Y-98480000D03*
X148310000Y-98480000D03*
D23*
X140800000Y-92060000D03*
D24*
X140800000Y-94600000D03*
D25*
X152780000Y-96290000D03*
X152780000Y-98490000D03*
D18*
X153900000Y-121800000D03*
D26*
X162950000Y-97849974D03*
X162500000Y-95300000D03*
X159100000Y-98150000D03*
X159950000Y-93400000D03*
X154548089Y-92940038D03*
X152902199Y-93411565D03*
X160729126Y-94320874D03*
D27*
X156306694Y-107218712D03*
X157062650Y-107581100D03*
X157062650Y-108419301D03*
X156306694Y-108781689D03*
X156721418Y-109509292D03*
X155965462Y-109871680D03*
D26*
X158900000Y-117000000D03*
X159117518Y-115862566D03*
D27*
X156721418Y-106491109D03*
D26*
X152800000Y-118400000D03*
X154802150Y-120402150D03*
X154803578Y-94899560D03*
X154325068Y-92130246D03*
X160303087Y-96914049D03*
X157300000Y-97100000D03*
X156750000Y-92200000D03*
D27*
X156380187Y-105401118D03*
X154913879Y-102902092D03*
X155699255Y-103286282D03*
X161045015Y-116945501D03*
D26*
X158030302Y-116878777D03*
D27*
X161045015Y-99054899D03*
X158255617Y-99054899D03*
X158255617Y-99054899D03*
X162035617Y-116147324D03*
X162511810Y-116834445D03*
X163166374Y-116308281D03*
X163642567Y-116995401D03*
X164626605Y-116049236D03*
X165041329Y-115321633D03*
X164285373Y-114959245D03*
X164700097Y-114231642D03*
X163944142Y-113869254D03*
X164358866Y-113141651D03*
X163602910Y-112779264D03*
X164017634Y-112051661D03*
X163261678Y-111689273D03*
X163676402Y-110961670D03*
X162920446Y-110599282D03*
X162920446Y-105401118D03*
X163676402Y-105038731D03*
X163261678Y-104311128D03*
X164017634Y-103948740D03*
X163602910Y-103221137D03*
X164358866Y-102858749D03*
X163944142Y-102131146D03*
X164700097Y-101768759D03*
X164285373Y-101041156D03*
X165041329Y-100678768D03*
X164626605Y-99951165D03*
X163642567Y-99005000D03*
X163166374Y-99692120D03*
X162511810Y-99165956D03*
X162035617Y-99853076D03*
X157426095Y-99696345D03*
X156970000Y-98910000D03*
X156227435Y-99454691D03*
D26*
X154404883Y-95893410D03*
X153670000Y-93860000D03*
D27*
X155090000Y-99310000D03*
X154810000Y-100140000D03*
X154961415Y-101039360D03*
X154564974Y-101774722D03*
X155418244Y-102148905D03*
X155965462Y-106128721D03*
X156380187Y-110599282D03*
X155624231Y-110961670D03*
X156038955Y-111689273D03*
X155282999Y-112051661D03*
X155697723Y-112779264D03*
X154941767Y-113141651D03*
X155356491Y-113869254D03*
X154600535Y-114231642D03*
X155015259Y-114959245D03*
X154259303Y-115321633D03*
X154674027Y-116049236D03*
D26*
X155662567Y-117429257D03*
X154000000Y-123000000D03*
X153900000Y-120400000D03*
X156800000Y-117600000D03*
X157900000Y-118200000D03*
X157700000Y-121700000D03*
X160500000Y-121400000D03*
X150140000Y-93830000D03*
X138830000Y-93100000D03*
X139700000Y-95770000D03*
X153790000Y-107240000D03*
X155370000Y-104730000D03*
X153840000Y-103970000D03*
D27*
X163335170Y-106128721D03*
X162579214Y-106491109D03*
X162993938Y-107218712D03*
X162237982Y-107581100D03*
X162237982Y-108419301D03*
X162993938Y-108781689D03*
X162579214Y-109509292D03*
X163335170Y-109871680D03*
D26*
X164264956Y-95352566D03*
X160500000Y-95450000D03*
X157300000Y-95000000D03*
D28*
X162154815Y-98095191D02*
X162850000Y-97400006D01*
X162850000Y-97400006D02*
X162850000Y-97749974D01*
X162850000Y-97749974D02*
X162950000Y-97849974D01*
X159945189Y-105385878D02*
X159945189Y-98623744D01*
X160473743Y-98095191D02*
X162154815Y-98095191D01*
X159531067Y-105800000D02*
X159945189Y-105385878D01*
X159945189Y-98623744D02*
X160473743Y-98095191D01*
X158295000Y-105800000D02*
X159531067Y-105800000D01*
X162500000Y-94815067D02*
X162500000Y-95300000D01*
X159239900Y-92560100D02*
X160445033Y-92560100D01*
X158937500Y-92862500D02*
X159239900Y-92560100D01*
X160445033Y-92560100D02*
X162500000Y-94615067D01*
X158712500Y-92862500D02*
X158937500Y-92862500D01*
X162500000Y-94615067D02*
X162500000Y-94815067D01*
X158808467Y-105400000D02*
X159300000Y-104908467D01*
X158295000Y-105400000D02*
X158808467Y-105400000D01*
X160228028Y-93749372D02*
X159927400Y-94050000D01*
X159589348Y-98950000D02*
X159589348Y-98548519D01*
X161003448Y-93749372D02*
X160228028Y-93749372D01*
X161376312Y-97163035D02*
X161376312Y-94122236D01*
X161376312Y-94122236D02*
X161003448Y-93749372D01*
X160748967Y-97790380D02*
X161376312Y-97163035D01*
X159589348Y-98548519D02*
X160347487Y-97790380D01*
X160347487Y-97790380D02*
X160748967Y-97790380D01*
X159589348Y-98639348D02*
X159100000Y-98150000D01*
X159300000Y-99239348D02*
X159589348Y-98950000D01*
X159589348Y-98950000D02*
X159589348Y-98639348D01*
X159300000Y-104908467D02*
X159300000Y-99239348D01*
X159950000Y-94027400D02*
X159927400Y-94050000D01*
X159950000Y-93400000D02*
X159950000Y-94027400D01*
X159927400Y-94050000D02*
X159239900Y-93362500D01*
X159239900Y-93362500D02*
X158712500Y-93362500D01*
X153245098Y-93068666D02*
X152902199Y-93411565D01*
X153373726Y-92940038D02*
X153245098Y-93068666D01*
X154548089Y-92940038D02*
X153373726Y-92940038D01*
X158295000Y-105000000D02*
X158777400Y-105000000D01*
X158777400Y-105000000D02*
X158950000Y-104827400D01*
X161071501Y-97036738D02*
X161071501Y-95175679D01*
X158528498Y-98474322D02*
X158528498Y-97875678D01*
X161071501Y-95175679D02*
X160745822Y-94850000D01*
X160745822Y-94850000D02*
X160227400Y-94850000D01*
X160622670Y-97485569D02*
X161071501Y-97036738D01*
X158950000Y-104827400D02*
X158950000Y-98895824D01*
X158528498Y-97875678D02*
X158918607Y-97485569D01*
X158918607Y-97485569D02*
X160622670Y-97485569D01*
X158950000Y-98895824D02*
X158528498Y-98474322D01*
X160227400Y-94850000D02*
X160227400Y-94822600D01*
X160227400Y-94822600D02*
X160386227Y-94663773D01*
X160386227Y-94663773D02*
X160729126Y-94320874D01*
X160227400Y-94850000D02*
X159239900Y-93862500D01*
X159239900Y-93862500D02*
X158712500Y-93862500D01*
X156400000Y-91200000D02*
X156550000Y-91200000D01*
X155812500Y-93362500D02*
X155285100Y-93362500D01*
X155208899Y-93286299D02*
X155208899Y-92391101D01*
X155208899Y-92391101D02*
X156400000Y-91200000D01*
X155285100Y-93362500D02*
X155208899Y-93286299D01*
X156550000Y-91200000D02*
X158500000Y-91200000D01*
X158500000Y-91200000D02*
X158550000Y-91250000D01*
X158110316Y-107424000D02*
X157760316Y-107424000D01*
X157760316Y-107424000D02*
X157180872Y-106931569D01*
X157180872Y-106931569D02*
X156892034Y-107036104D01*
X156892034Y-107036104D02*
X156306694Y-107218712D01*
X158110316Y-107824000D02*
X157760316Y-107824000D01*
X157760316Y-107824000D02*
X157235359Y-107377873D01*
X157235359Y-107377873D02*
X157062650Y-107581100D01*
X158110316Y-108176401D02*
X157760316Y-108176401D01*
X157760316Y-108176401D02*
X157235359Y-108622527D01*
X157235359Y-108622527D02*
X157062650Y-108419301D01*
X158110316Y-108576401D02*
X157760316Y-108576401D01*
X157760316Y-108576401D02*
X157180872Y-109068832D01*
X157180872Y-109068832D02*
X156892034Y-108964297D01*
X156892034Y-108964297D02*
X156306694Y-108781689D01*
X158110316Y-108976401D02*
X157760316Y-108976401D01*
X157760316Y-108976401D02*
X156894127Y-109712518D01*
X156894127Y-109712518D02*
X156721418Y-109509292D01*
X158110316Y-109376401D02*
X157760316Y-109376401D01*
X157760316Y-109376401D02*
X156839640Y-110158823D01*
X156839640Y-110158823D02*
X156550802Y-110054287D01*
X156550802Y-110054287D02*
X155965462Y-109871680D01*
X159117518Y-116782482D02*
X158900000Y-117000000D01*
X159117518Y-115862566D02*
X159117518Y-116782482D01*
X158110316Y-107024000D02*
X157760316Y-107024000D01*
X157760316Y-107024000D02*
X156894127Y-106287883D01*
X156894127Y-106287883D02*
X156721418Y-106491109D01*
X154802150Y-120402150D02*
X152800000Y-118400000D01*
X156250000Y-95900000D02*
X156025000Y-95900000D01*
X155024560Y-94899560D02*
X154803578Y-94899560D01*
X156025000Y-95900000D02*
X155024560Y-94899560D01*
X154350000Y-92105314D02*
X154325068Y-92130246D01*
X154350000Y-91200000D02*
X154350000Y-92105314D01*
X157300000Y-97100000D02*
X160117136Y-97100000D01*
X160117136Y-97100000D02*
X160303087Y-96914049D01*
X156250000Y-96050000D02*
X156250000Y-95900000D01*
X157300000Y-97100000D02*
X156250000Y-96050000D01*
X156750000Y-92200000D02*
X156475000Y-92200000D01*
X156475000Y-92200000D02*
X155812500Y-92862500D01*
X158110316Y-106224000D02*
X157760316Y-106224000D01*
X157760316Y-106224000D02*
X156552895Y-105197892D01*
X156552895Y-105197892D02*
X156380187Y-105401118D01*
X154594335Y-94304522D02*
X153931134Y-94967723D01*
X155812500Y-94362500D02*
X155285100Y-94362500D01*
X154545146Y-102559193D02*
X154570980Y-102559193D01*
X153836176Y-95620430D02*
X153836176Y-96166390D01*
X154570980Y-102559193D02*
X154913879Y-102902092D01*
X153836189Y-101850236D02*
X154545146Y-102559193D01*
X155227122Y-94304522D02*
X154594335Y-94304522D01*
X153931134Y-94967723D02*
X153931133Y-95525473D01*
X153836176Y-96166390D02*
X153836189Y-96166403D01*
X155285100Y-94362500D02*
X155227122Y-94304522D01*
X153931133Y-95525473D02*
X153836176Y-95620430D01*
X153836189Y-96166403D02*
X153836189Y-101850236D01*
X155098357Y-102717614D02*
X154913879Y-102902092D01*
X157733200Y-104224000D02*
X157579742Y-104070542D01*
X158110316Y-104224000D02*
X157733200Y-104224000D01*
X157579742Y-104070542D02*
X155827454Y-102581386D01*
X155827454Y-102581386D02*
X155691226Y-102717614D01*
X155691226Y-102717614D02*
X155098357Y-102717614D01*
X155356356Y-103629181D02*
X155699255Y-103286282D01*
X154799278Y-103629181D02*
X155356356Y-103629181D01*
X153534159Y-100000473D02*
X153288029Y-100246603D01*
X153288029Y-102117932D02*
X154799278Y-103629181D01*
X153288029Y-100246603D02*
X153288029Y-102117932D01*
X153534159Y-95495331D02*
X153534159Y-100000473D01*
X153629117Y-95400373D02*
X153534159Y-95495331D01*
X154609250Y-93862500D02*
X153629117Y-94842633D01*
X153629117Y-94842633D02*
X153629117Y-95400373D01*
X155812500Y-93862500D02*
X154609250Y-93862500D01*
X157036973Y-104624000D02*
X156042154Y-103629181D01*
X156042154Y-103629181D02*
X155699255Y-103286282D01*
X158110316Y-104624000D02*
X157036973Y-104624000D01*
X161005000Y-116200000D02*
X161005000Y-116905486D01*
X161005000Y-116905486D02*
X161045015Y-116945501D01*
X161005000Y-115800000D02*
X161005000Y-116200000D01*
X158295000Y-116200000D02*
X158224146Y-116200000D01*
X158030302Y-116393844D02*
X158030302Y-116878777D01*
X158224146Y-116200000D02*
X158030302Y-116393844D01*
X158295000Y-115800000D02*
X158295000Y-116200000D01*
X161005000Y-99800000D02*
X161005000Y-99094914D01*
X161005000Y-99094914D02*
X161045015Y-99054899D01*
X161005000Y-100200000D02*
X161005000Y-99800000D01*
X158295000Y-99800000D02*
X158295000Y-99094282D01*
X158295000Y-99094282D02*
X158255617Y-99054899D01*
X158295000Y-100200000D02*
X158295000Y-99800000D01*
X161190316Y-115376401D02*
X161540316Y-115376401D01*
X161540316Y-115376401D02*
X162208326Y-115944098D01*
X162208326Y-115944098D02*
X162035617Y-116147324D01*
X161190316Y-114976401D02*
X161540316Y-114976401D01*
X161540316Y-114976401D02*
X162657575Y-115925886D01*
X162657575Y-115925886D02*
X162600996Y-116227803D01*
X162600996Y-116227803D02*
X162511810Y-116834445D01*
X161190316Y-114576401D02*
X161540316Y-114576401D01*
X161540316Y-114576401D02*
X163339083Y-116105055D01*
X163339083Y-116105055D02*
X163166374Y-116308281D01*
X161190316Y-114176401D02*
X161540316Y-114176401D01*
X161540316Y-114176401D02*
X163788332Y-116086842D01*
X163788332Y-116086842D02*
X163731753Y-116388759D01*
X163731753Y-116388759D02*
X163642567Y-116995401D01*
X161190316Y-113776401D02*
X161540316Y-113776401D01*
X161540316Y-113776401D02*
X164453897Y-116252462D01*
X164453897Y-116252462D02*
X164626605Y-116049236D01*
X161190316Y-113376401D02*
X161540316Y-113376401D01*
X161540316Y-113376401D02*
X164167151Y-115608776D01*
X164167151Y-115608776D02*
X164455989Y-115504240D01*
X164455989Y-115504240D02*
X165041329Y-115321633D01*
X161190316Y-112976401D02*
X161540316Y-112976401D01*
X161540316Y-112976401D02*
X164112665Y-115162471D01*
X164112665Y-115162471D02*
X164285373Y-114959245D01*
X161190316Y-112576401D02*
X161540316Y-112576401D01*
X161540316Y-112576401D02*
X163825920Y-114518785D01*
X163825920Y-114518785D02*
X164114757Y-114414250D01*
X164114757Y-114414250D02*
X164700097Y-114231642D01*
X161190316Y-112176401D02*
X161540316Y-112176401D01*
X161540316Y-112176401D02*
X163771433Y-114072481D01*
X163771433Y-114072481D02*
X163944142Y-113869254D01*
X161190316Y-111776401D02*
X161540316Y-111776401D01*
X161540316Y-111776401D02*
X163484688Y-113428795D01*
X163484688Y-113428795D02*
X163773526Y-113324259D01*
X163773526Y-113324259D02*
X164358866Y-113141651D01*
X161190316Y-111376401D02*
X161540316Y-111376401D01*
X161540316Y-111376401D02*
X163430201Y-112982490D01*
X163430201Y-112982490D02*
X163602910Y-112779264D01*
X161190316Y-110976401D02*
X161540316Y-110976401D01*
X161540316Y-110976401D02*
X163143456Y-112338804D01*
X163143456Y-112338804D02*
X163432294Y-112234268D01*
X163432294Y-112234268D02*
X164017634Y-112051661D01*
X161190316Y-110576401D02*
X161540316Y-110576401D01*
X161540316Y-110576401D02*
X163088969Y-111892499D01*
X163088969Y-111892499D02*
X163261678Y-111689273D01*
X161190316Y-110176401D02*
X161540316Y-110176401D01*
X161540316Y-110176401D02*
X162802224Y-111248813D01*
X162802224Y-111248813D02*
X163091062Y-111144278D01*
X163091062Y-111144278D02*
X163676402Y-110961670D01*
X161190316Y-109776401D02*
X161540316Y-109776401D01*
X161540316Y-109776401D02*
X162747737Y-110802509D01*
X162747737Y-110802509D02*
X162920446Y-110599282D01*
X161190316Y-106224000D02*
X161540316Y-106224000D01*
X161540316Y-106224000D02*
X162747737Y-105197892D01*
X162747737Y-105197892D02*
X162920446Y-105401118D01*
X161190316Y-105824000D02*
X161540316Y-105824000D01*
X161540316Y-105824000D02*
X162802224Y-104751587D01*
X162802224Y-104751587D02*
X163091062Y-104856123D01*
X163091062Y-104856123D02*
X163676402Y-105038731D01*
X161190316Y-105424000D02*
X161540316Y-105424000D01*
X161540316Y-105424000D02*
X163088969Y-104107901D01*
X163088969Y-104107901D02*
X163261678Y-104311128D01*
X161190316Y-105024000D02*
X161540316Y-105024000D01*
X161540316Y-105024000D02*
X163143456Y-103661597D01*
X163143456Y-103661597D02*
X163432294Y-103766132D01*
X163432294Y-103766132D02*
X164017634Y-103948740D01*
X161190316Y-104624000D02*
X161540316Y-104624000D01*
X161540316Y-104624000D02*
X163430201Y-103017911D01*
X163430201Y-103017911D02*
X163602910Y-103221137D01*
X161190316Y-104224000D02*
X161540316Y-104224000D01*
X161540316Y-104224000D02*
X163484688Y-102571606D01*
X163484688Y-102571606D02*
X163773526Y-102676142D01*
X163773526Y-102676142D02*
X164358866Y-102858749D01*
X161190316Y-103824000D02*
X161540316Y-103824000D01*
X161540316Y-103824000D02*
X163771433Y-101927920D01*
X163771433Y-101927920D02*
X163944142Y-102131146D01*
X161190316Y-103424000D02*
X161540316Y-103424000D01*
X161540316Y-103424000D02*
X163825920Y-101481616D01*
X163825920Y-101481616D02*
X164114757Y-101586151D01*
X164114757Y-101586151D02*
X164700097Y-101768759D01*
X161190316Y-103024000D02*
X161540316Y-103024000D01*
X161540316Y-103024000D02*
X164112665Y-100837930D01*
X164112665Y-100837930D02*
X164285373Y-101041156D01*
X161190316Y-102624000D02*
X161540316Y-102624000D01*
X161540316Y-102624000D02*
X164167151Y-100391625D01*
X164167151Y-100391625D02*
X164455989Y-100496161D01*
X164455989Y-100496161D02*
X165041329Y-100678768D01*
X161190316Y-102224000D02*
X161540316Y-102224000D01*
X161540316Y-102224000D02*
X164453897Y-99747939D01*
X164453897Y-99747939D02*
X164626605Y-99951165D01*
X161190316Y-101824000D02*
X161540316Y-101824000D01*
X161540316Y-101824000D02*
X163788332Y-99913558D01*
X163788332Y-99913558D02*
X163731753Y-99611642D01*
X163731753Y-99611642D02*
X163642567Y-99005000D01*
X161190316Y-101424000D02*
X161540316Y-101424000D01*
X161540316Y-101424000D02*
X163339083Y-99895346D01*
X163339083Y-99895346D02*
X163166374Y-99692120D01*
X161190316Y-101024000D02*
X161540316Y-101024000D01*
X161540316Y-101024000D02*
X162657575Y-100074515D01*
X162657575Y-100074515D02*
X162600996Y-99772598D01*
X162600996Y-99772598D02*
X162511810Y-99165956D01*
X161190316Y-100624000D02*
X161540316Y-100624000D01*
X161540316Y-100624000D02*
X162208326Y-100056303D01*
X162208326Y-100056303D02*
X162035617Y-99853076D01*
X157426095Y-100181278D02*
X157426095Y-99696345D01*
X158110316Y-100624000D02*
X158027123Y-100540807D01*
X157785624Y-100540807D02*
X157426095Y-100181278D01*
X158027123Y-100540807D02*
X157785624Y-100540807D01*
X156796144Y-99979713D02*
X156796144Y-99083856D01*
X157768950Y-100842822D02*
X157659253Y-100842822D01*
X156796144Y-99083856D02*
X156970000Y-98910000D01*
X157950128Y-101024000D02*
X157768950Y-100842822D01*
X158110316Y-101024000D02*
X157950128Y-101024000D01*
X157659253Y-100842822D02*
X156796144Y-99979713D01*
X156227435Y-99838120D02*
X156227435Y-99454691D01*
X157534154Y-101144839D02*
X156227435Y-99838120D01*
X157923012Y-101424000D02*
X157643851Y-101144839D01*
X157643851Y-101144839D02*
X157534154Y-101144839D01*
X158110316Y-101424000D02*
X157923012Y-101424000D01*
X154747782Y-96236309D02*
X154404883Y-95893410D01*
X155658709Y-99005643D02*
X155658709Y-97147236D01*
X155658709Y-97147236D02*
X154747782Y-96236309D01*
X153670000Y-93860000D02*
X152780000Y-94750000D01*
X152780000Y-94750000D02*
X152780000Y-96290000D01*
X157518750Y-101446854D02*
X157409053Y-101446854D01*
X158110316Y-101824000D02*
X157895896Y-101824000D01*
X155658709Y-99005643D02*
X155658066Y-99005000D01*
X155658709Y-99696510D02*
X155658709Y-99005643D01*
X157409053Y-101446854D02*
X155658709Y-99696510D01*
X157895896Y-101824000D02*
X157518750Y-101446854D01*
X157283954Y-101748871D02*
X155090000Y-99554917D01*
X157393651Y-101748871D02*
X157283954Y-101748871D01*
X158110316Y-102224000D02*
X157868780Y-102224000D01*
X155090000Y-99554917D02*
X155090000Y-99310000D01*
X157868780Y-102224000D02*
X157393651Y-101748871D01*
X157158854Y-102050887D02*
X155590866Y-100482899D01*
X157268552Y-102050888D02*
X157158854Y-102050887D01*
X155152899Y-100482899D02*
X154810000Y-100140000D01*
X158110316Y-102624000D02*
X157841664Y-102624000D01*
X155590866Y-100482899D02*
X155152899Y-100482899D01*
X157841664Y-102624000D02*
X157268552Y-102050888D01*
X155720211Y-101039360D02*
X155446348Y-101039360D01*
X155446348Y-101039360D02*
X154961415Y-101039360D01*
X157033754Y-102352903D02*
X155720211Y-101039360D01*
X158110316Y-103024000D02*
X157814548Y-103024000D01*
X157814548Y-103024000D02*
X157143451Y-102352903D01*
X157143451Y-102352903D02*
X157033754Y-102352903D01*
X154728380Y-101611316D02*
X154564974Y-101774722D01*
X156908654Y-102654919D02*
X155715093Y-101461358D01*
X155382605Y-101461358D02*
X155232647Y-101611316D01*
X158110316Y-103424000D02*
X157787432Y-103424000D01*
X155715093Y-101461358D02*
X155382605Y-101461358D01*
X155232647Y-101611316D02*
X154728380Y-101611316D01*
X157018352Y-102654920D02*
X156908654Y-102654919D01*
X157787432Y-103424000D02*
X157018352Y-102654920D01*
X156783554Y-102956935D02*
X155975524Y-102148905D01*
X157760316Y-103824000D02*
X156893251Y-102956935D01*
X158110316Y-103824000D02*
X157760316Y-103824000D01*
X155975524Y-102148905D02*
X155903177Y-102148905D01*
X155903177Y-102148905D02*
X155418244Y-102148905D01*
X156893251Y-102956935D02*
X156783554Y-102956935D01*
X158110316Y-106624000D02*
X157760316Y-106624000D01*
X157760316Y-106624000D02*
X156839640Y-105841578D01*
X156839640Y-105841578D02*
X156550802Y-105946114D01*
X156550802Y-105946114D02*
X155965462Y-106128721D01*
X158110316Y-109776401D02*
X157760316Y-109776401D01*
X157760316Y-109776401D02*
X156552895Y-110802509D01*
X156552895Y-110802509D02*
X156380187Y-110599282D01*
X158110316Y-110176401D02*
X157760316Y-110176401D01*
X157760316Y-110176401D02*
X156498409Y-111248813D01*
X156498409Y-111248813D02*
X156209571Y-111144278D01*
X156209571Y-111144278D02*
X155624231Y-110961670D01*
X158110316Y-110576401D02*
X157760316Y-110576401D01*
X157760316Y-110576401D02*
X156211663Y-111892499D01*
X156211663Y-111892499D02*
X156038955Y-111689273D01*
X158110316Y-110976401D02*
X157760316Y-110976401D01*
X157760316Y-110976401D02*
X156157177Y-112338804D01*
X156157177Y-112338804D02*
X155868339Y-112234268D01*
X155868339Y-112234268D02*
X155282999Y-112051661D01*
X158110316Y-111376401D02*
X157760316Y-111376401D01*
X157760316Y-111376401D02*
X155870431Y-112982490D01*
X155870431Y-112982490D02*
X155697723Y-112779264D01*
X158110316Y-111776401D02*
X157760316Y-111776401D01*
X157760316Y-111776401D02*
X155815945Y-113428795D01*
X155815945Y-113428795D02*
X155527107Y-113324259D01*
X155527107Y-113324259D02*
X154941767Y-113141651D01*
X158110316Y-112176401D02*
X157760316Y-112176401D01*
X157760316Y-112176401D02*
X155529200Y-114072481D01*
X155529200Y-114072481D02*
X155356491Y-113869254D01*
X158110316Y-112576401D02*
X157760316Y-112576401D01*
X157760316Y-112576401D02*
X155474713Y-114518785D01*
X155474713Y-114518785D02*
X155185875Y-114414250D01*
X155185875Y-114414250D02*
X154600535Y-114231642D01*
X158110316Y-112976401D02*
X157760316Y-112976401D01*
X157760316Y-112976401D02*
X155187968Y-115162471D01*
X155187968Y-115162471D02*
X155015259Y-114959245D01*
X158110316Y-113376401D02*
X157760316Y-113376401D01*
X157760316Y-113376401D02*
X155133481Y-115608776D01*
X155133481Y-115608776D02*
X154844643Y-115504240D01*
X154844643Y-115504240D02*
X154259303Y-115321633D01*
X158110316Y-113776401D02*
X157760316Y-113776401D01*
X157760316Y-113776401D02*
X154846736Y-116252462D01*
X154846736Y-116252462D02*
X154674027Y-116049236D01*
X155319668Y-117086358D02*
X155662567Y-117429257D01*
X155319668Y-116279474D02*
X155319668Y-117086358D01*
X155512300Y-116086842D02*
X155319668Y-116279474D01*
X157760316Y-114176401D02*
X155512300Y-116086842D01*
X158110316Y-114176401D02*
X157760316Y-114176401D01*
X153900000Y-121800000D02*
X153900000Y-122900000D01*
X153900000Y-122900000D02*
X154000000Y-123000000D01*
X153900000Y-120400000D02*
X153900000Y-121800000D01*
X156134258Y-116627426D02*
X156134258Y-116934258D01*
X156134258Y-116934258D02*
X156800000Y-117600000D01*
X156134258Y-116308281D02*
X156134258Y-116627426D01*
X158110316Y-114576401D02*
X157760316Y-114576401D01*
X157760316Y-114576401D02*
X155961549Y-116105055D01*
X155961549Y-116105055D02*
X156134258Y-116308281D01*
X157900000Y-118111666D02*
X157900000Y-118200000D01*
X158177470Y-117834196D02*
X157900000Y-118111666D01*
X158110316Y-114976401D02*
X157760316Y-114976401D01*
X156643057Y-116299783D02*
X158177470Y-117834196D01*
X158177470Y-117834196D02*
X158177470Y-117899080D01*
X156643057Y-115925886D02*
X156643057Y-116299783D01*
X157760316Y-114976401D02*
X156643057Y-115925886D01*
D29*
X138830000Y-93100000D02*
X139314933Y-93100000D01*
X139314933Y-93100000D02*
X139334933Y-93120000D01*
X139730000Y-95740000D02*
X139700000Y-95770000D01*
D28*
X159810000Y-107110000D02*
X159810000Y-107400000D01*
X159810000Y-107400000D02*
X159810000Y-107790000D01*
X161005000Y-107400000D02*
X160522600Y-107400000D01*
X160522600Y-107400000D02*
X159810000Y-107400000D01*
X159810000Y-107790000D02*
X159810000Y-108200000D01*
X161005000Y-107800000D02*
X159820000Y-107800000D01*
X159820000Y-107800000D02*
X159810000Y-107790000D01*
X159810000Y-108200000D02*
X159810000Y-108870000D01*
X161005000Y-108200000D02*
X160522600Y-108200000D01*
X160522600Y-108200000D02*
X159810000Y-108200000D01*
X159810000Y-108870000D02*
X159810000Y-109220000D01*
X160080000Y-108600000D02*
X159810000Y-108870000D01*
X161005000Y-108600000D02*
X160080000Y-108600000D01*
X159810000Y-109220000D02*
X159810000Y-109810000D01*
X161005000Y-109000000D02*
X160030000Y-109000000D01*
X160030000Y-109000000D02*
X159810000Y-109220000D01*
X159810000Y-109810000D02*
X160220000Y-109400000D01*
X160220000Y-109400000D02*
X161005000Y-109400000D01*
X159920000Y-107000000D02*
X159810000Y-107110000D01*
X161005000Y-107000000D02*
X159920000Y-107000000D01*
X153840000Y-103970000D02*
X153180000Y-103970000D01*
X160522600Y-106600000D02*
X160250000Y-106327400D01*
X161005000Y-106600000D02*
X160522600Y-106600000D01*
X160250000Y-99550000D02*
X160473514Y-99326486D01*
X160473514Y-99326486D02*
X160473514Y-98780578D01*
X160770694Y-98483398D02*
X163362426Y-98483398D01*
X163362426Y-98483398D02*
X164200000Y-97645824D01*
X164200000Y-97645824D02*
X164200000Y-97400000D01*
X160250000Y-106327400D02*
X160250000Y-99550000D01*
X160473514Y-98780578D02*
X160770694Y-98483398D01*
X161190316Y-106624000D02*
X161540316Y-106624000D01*
X161540316Y-106624000D02*
X162460992Y-105841578D01*
X162460992Y-105841578D02*
X162749830Y-105946114D01*
X162749830Y-105946114D02*
X163335170Y-106128721D01*
X161190316Y-107024000D02*
X161540316Y-107024000D01*
X161540316Y-107024000D02*
X162406505Y-106287883D01*
X162406505Y-106287883D02*
X162579214Y-106491109D01*
X161190316Y-107424000D02*
X161540316Y-107424000D01*
X161540316Y-107424000D02*
X162119760Y-106931569D01*
X162119760Y-106931569D02*
X162408598Y-107036104D01*
X162408598Y-107036104D02*
X162993938Y-107218712D01*
X161190316Y-107824000D02*
X161540316Y-107824000D01*
X161540316Y-107824000D02*
X162065274Y-107377873D01*
X162065274Y-107377873D02*
X162237982Y-107581100D01*
X161190316Y-108176401D02*
X161540316Y-108176401D01*
X161540316Y-108176401D02*
X162065274Y-108622527D01*
X162065274Y-108622527D02*
X162237982Y-108419301D01*
X161190316Y-108576401D02*
X161540316Y-108576401D01*
X161540316Y-108576401D02*
X162119760Y-109068832D01*
X162119760Y-109068832D02*
X162408598Y-108964297D01*
X162408598Y-108964297D02*
X162993938Y-108781689D01*
X161190316Y-108976401D02*
X161540316Y-108976401D01*
X161540316Y-108976401D02*
X162406505Y-109712518D01*
X162406505Y-109712518D02*
X162579214Y-109509292D01*
X161190316Y-109376401D02*
X161540316Y-109376401D01*
X161540316Y-109376401D02*
X162460992Y-110158823D01*
X162460992Y-110158823D02*
X162749830Y-110054287D01*
X162749830Y-110054287D02*
X163335170Y-109871680D01*
X163750000Y-95382589D02*
X163780023Y-95352566D01*
X163780023Y-95352566D02*
X164264956Y-95352566D01*
X163750000Y-95450000D02*
X163750000Y-95382589D01*
X160500000Y-95450000D02*
X160050000Y-95900000D01*
X160050000Y-95900000D02*
X158150000Y-95900000D01*
X160500000Y-95450000D02*
X159497600Y-95450000D01*
X159497600Y-95450000D02*
X158712500Y-94664900D01*
X158712500Y-94664900D02*
X158712500Y-94362500D01*
X157300000Y-95000000D02*
X158377400Y-95000000D01*
X158377400Y-95000000D02*
X158712500Y-94664900D01*
X157300000Y-95000000D02*
X157300000Y-95050000D01*
X157300000Y-95050000D02*
X158150000Y-95900000D01*
G36*
X157624618Y-90630511D02*
X157556897Y-90793600D01*
X157486669Y-90793600D01*
X157486669Y-90750000D01*
X157463644Y-90627635D01*
X157391327Y-90515251D01*
X157280983Y-90439856D01*
X157150000Y-90413331D01*
X155950000Y-90413331D01*
X155827635Y-90436356D01*
X155715251Y-90508673D01*
X155639856Y-90619017D01*
X155613331Y-90750000D01*
X155613331Y-91411933D01*
X155264172Y-91761092D01*
X155286669Y-91650000D01*
X155286669Y-90750000D01*
X155263644Y-90627635D01*
X155191327Y-90515251D01*
X155080983Y-90439856D01*
X154950000Y-90413331D01*
X153750000Y-90413331D01*
X153627635Y-90436356D01*
X153515251Y-90508673D01*
X153439856Y-90619017D01*
X153413331Y-90750000D01*
X153413331Y-91650000D01*
X153436356Y-91772365D01*
X153508673Y-91884749D01*
X153619017Y-91960144D01*
X153663166Y-91969085D01*
X153652085Y-91995771D01*
X153651851Y-92263547D01*
X153754109Y-92511029D01*
X153776679Y-92533638D01*
X153373726Y-92533638D01*
X153240691Y-92560100D01*
X153218203Y-92564573D01*
X153086357Y-92652670D01*
X153000477Y-92738550D01*
X152768898Y-92738348D01*
X152521416Y-92840606D01*
X152331905Y-93029787D01*
X152229216Y-93277090D01*
X152228982Y-93544866D01*
X152331240Y-93792348D01*
X152520421Y-93981859D01*
X152767724Y-94084548D01*
X152870626Y-94084638D01*
X152492632Y-94462632D01*
X152404535Y-94594477D01*
X152373600Y-94750000D01*
X152373600Y-95353331D01*
X152330000Y-95353331D01*
X152207635Y-95376356D01*
X152095251Y-95448673D01*
X152019856Y-95559017D01*
X151993331Y-95690000D01*
X151993331Y-96890000D01*
X152016356Y-97012365D01*
X152088673Y-97124749D01*
X152199017Y-97200144D01*
X152330000Y-97226669D01*
X153127759Y-97226669D01*
X153127759Y-97305800D01*
X153103850Y-97305800D01*
X152957800Y-97451850D01*
X152957800Y-98312200D01*
X152977800Y-98312200D01*
X152977800Y-98667800D01*
X152957800Y-98667800D01*
X152957800Y-99528150D01*
X153103850Y-99674200D01*
X153127759Y-99674200D01*
X153127759Y-99832137D01*
X153000661Y-99959235D01*
X152912564Y-100091080D01*
X152881629Y-100246603D01*
X152881629Y-102117932D01*
X152912564Y-102273455D01*
X152981093Y-102376015D01*
X153000661Y-102405300D01*
X154511910Y-103916549D01*
X154643755Y-104004646D01*
X154799278Y-104035581D01*
X155356356Y-104035581D01*
X155511879Y-104004646D01*
X155579776Y-103959278D01*
X155797706Y-103959469D01*
X156603089Y-104764853D01*
X156514662Y-104728135D01*
X156246886Y-104727901D01*
X155999404Y-104830159D01*
X155809893Y-105019340D01*
X155707204Y-105266643D01*
X155706994Y-105507222D01*
X155584679Y-105557762D01*
X155395168Y-105746943D01*
X155292479Y-105994246D01*
X155292245Y-106262022D01*
X155394503Y-106509504D01*
X155583684Y-106699015D01*
X155789110Y-106784315D01*
X155736400Y-106836934D01*
X155633711Y-107084237D01*
X155633477Y-107352013D01*
X155735735Y-107599495D01*
X155924916Y-107789006D01*
X156172219Y-107891695D01*
X156439995Y-107891929D01*
X156459463Y-107883885D01*
X156491691Y-107961883D01*
X156529843Y-108000101D01*
X156492356Y-108037523D01*
X156459617Y-108116366D01*
X156441169Y-108108706D01*
X156173393Y-108108472D01*
X155925911Y-108210730D01*
X155736400Y-108399911D01*
X155633711Y-108647214D01*
X155633477Y-108914990D01*
X155735735Y-109162472D01*
X155789330Y-109216160D01*
X155584679Y-109300721D01*
X155395168Y-109489902D01*
X155292479Y-109737205D01*
X155292245Y-110004981D01*
X155394503Y-110252463D01*
X155448098Y-110306151D01*
X155243448Y-110390711D01*
X155053937Y-110579892D01*
X154951248Y-110827195D01*
X154951014Y-111094971D01*
X155053272Y-111342453D01*
X155106867Y-111396141D01*
X154902216Y-111480702D01*
X154712705Y-111669883D01*
X154610016Y-111917186D01*
X154609782Y-112184962D01*
X154712040Y-112432444D01*
X154765634Y-112486132D01*
X154560984Y-112570692D01*
X154371473Y-112759873D01*
X154268784Y-113007176D01*
X154268550Y-113274952D01*
X154370808Y-113522434D01*
X154424403Y-113576122D01*
X154219752Y-113660683D01*
X154030241Y-113849864D01*
X153927552Y-114097167D01*
X153927318Y-114364943D01*
X154029576Y-114612425D01*
X154083171Y-114666113D01*
X153878520Y-114750674D01*
X153689009Y-114939855D01*
X153586320Y-115187158D01*
X153586086Y-115454934D01*
X153688344Y-115702416D01*
X153877525Y-115891927D01*
X154001019Y-115943206D01*
X154000810Y-116182537D01*
X154103068Y-116430019D01*
X154292249Y-116619530D01*
X154539552Y-116722219D01*
X154807328Y-116722453D01*
X154913268Y-116678679D01*
X154913268Y-117086358D01*
X154944203Y-117241881D01*
X154989571Y-117309778D01*
X154989350Y-117562558D01*
X155091608Y-117810040D01*
X155280789Y-117999551D01*
X155528092Y-118102240D01*
X155795868Y-118102474D01*
X156043350Y-118000216D01*
X156180500Y-117863305D01*
X156229041Y-117980783D01*
X156418222Y-118170294D01*
X156665525Y-118272983D01*
X156933301Y-118273217D01*
X157180783Y-118170959D01*
X157226965Y-118124857D01*
X157226783Y-118333301D01*
X157329041Y-118580783D01*
X157518222Y-118770294D01*
X157765525Y-118872983D01*
X158033301Y-118873217D01*
X158280783Y-118770959D01*
X158470294Y-118581778D01*
X158572983Y-118334475D01*
X158573217Y-118066699D01*
X158557902Y-118029633D01*
X158583870Y-117899080D01*
X158583870Y-117834196D01*
X158552935Y-117678673D01*
X158464838Y-117546828D01*
X158380418Y-117462408D01*
X158401732Y-117453601D01*
X158518222Y-117570294D01*
X158765525Y-117672983D01*
X159033301Y-117673217D01*
X159280783Y-117570959D01*
X159470294Y-117381778D01*
X159572983Y-117134475D01*
X159573217Y-116866699D01*
X159523918Y-116747387D01*
X159523918Y-116407953D01*
X159687812Y-116244344D01*
X159790501Y-115997041D01*
X159790735Y-115729265D01*
X159688477Y-115481783D01*
X159499296Y-115292272D01*
X159251993Y-115189583D01*
X158984217Y-115189349D01*
X158946596Y-115204894D01*
X158945088Y-115196880D01*
X158961669Y-115115000D01*
X158961669Y-114885000D01*
X158945088Y-114796880D01*
X158961669Y-114715000D01*
X158961669Y-114485000D01*
X158945088Y-114396880D01*
X158961669Y-114315000D01*
X158961669Y-114085000D01*
X158945088Y-113996880D01*
X158961669Y-113915000D01*
X158961669Y-113685000D01*
X158945088Y-113596880D01*
X158961669Y-113515000D01*
X158961669Y-113285000D01*
X158945088Y-113196880D01*
X158961669Y-113115000D01*
X158961669Y-112885000D01*
X158945088Y-112796880D01*
X158961669Y-112715000D01*
X158961669Y-112485000D01*
X158945088Y-112396880D01*
X158961669Y-112315000D01*
X158961669Y-112085000D01*
X158945088Y-111996880D01*
X158961669Y-111915000D01*
X158961669Y-111685000D01*
X158945088Y-111596880D01*
X158961669Y-111515000D01*
X158961669Y-111285000D01*
X158945088Y-111196880D01*
X158961669Y-111115000D01*
X158961669Y-110885000D01*
X158945088Y-110796880D01*
X158961669Y-110715000D01*
X158961669Y-110485000D01*
X158945088Y-110396880D01*
X158961669Y-110315000D01*
X158961669Y-110085000D01*
X158945088Y-109996880D01*
X158961669Y-109915000D01*
X158961669Y-109685000D01*
X158945088Y-109596880D01*
X158961669Y-109515000D01*
X158961669Y-109285000D01*
X158945088Y-109196880D01*
X158961669Y-109115000D01*
X158961669Y-108885000D01*
X158945088Y-108796880D01*
X158961669Y-108715000D01*
X158961669Y-108485000D01*
X158945088Y-108396880D01*
X158961669Y-108315000D01*
X158961669Y-108085000D01*
X158945088Y-107996880D01*
X158961669Y-107915000D01*
X158961669Y-107685000D01*
X158945088Y-107596880D01*
X158961669Y-107515000D01*
X158961669Y-107285000D01*
X158945088Y-107196880D01*
X158961669Y-107115000D01*
X158961669Y-106885000D01*
X158945088Y-106796880D01*
X158961669Y-106715000D01*
X158961669Y-106485000D01*
X158945088Y-106396880D01*
X158961669Y-106315000D01*
X158961669Y-106206400D01*
X159531067Y-106206400D01*
X159686590Y-106175465D01*
X159818435Y-106087368D01*
X160232557Y-105673246D01*
X160251780Y-105644477D01*
X160320654Y-105541401D01*
X160338331Y-105452531D01*
X160338331Y-105515000D01*
X160354912Y-105603120D01*
X160338331Y-105685000D01*
X160338331Y-105915000D01*
X160351793Y-105986543D01*
X160344077Y-105989739D01*
X160179739Y-106154078D01*
X160090800Y-106368796D01*
X160090800Y-106396450D01*
X160214083Y-106519733D01*
X160179739Y-106554078D01*
X160090800Y-106768796D01*
X160090800Y-106796450D01*
X160094350Y-106800000D01*
X160090800Y-106803550D01*
X160090800Y-106831204D01*
X160160718Y-107000000D01*
X160090800Y-107168796D01*
X160090800Y-107196450D01*
X160094350Y-107200000D01*
X160090800Y-107203550D01*
X160090800Y-107231204D01*
X160160718Y-107400000D01*
X160090800Y-107568796D01*
X160090800Y-107596450D01*
X160094350Y-107600000D01*
X160090800Y-107603550D01*
X160090800Y-107631204D01*
X160160718Y-107800000D01*
X160090800Y-107968796D01*
X160090800Y-107996450D01*
X160094350Y-108000000D01*
X160090800Y-108003550D01*
X160090800Y-108031204D01*
X160160718Y-108200000D01*
X160090800Y-108368796D01*
X160090800Y-108396450D01*
X160094350Y-108400000D01*
X160090800Y-108403550D01*
X160090800Y-108431204D01*
X160160718Y-108600000D01*
X160090800Y-108768796D01*
X160090800Y-108796450D01*
X160094350Y-108800000D01*
X160090800Y-108803550D01*
X160090800Y-108831204D01*
X160160718Y-109000000D01*
X160090800Y-109168796D01*
X160090800Y-109196450D01*
X160094350Y-109200000D01*
X160090800Y-109203550D01*
X160090800Y-109231204D01*
X160179739Y-109445922D01*
X160214083Y-109480267D01*
X160090800Y-109603550D01*
X160090800Y-109631204D01*
X160179739Y-109845922D01*
X160344077Y-110010261D01*
X160352740Y-110013849D01*
X160338331Y-110085000D01*
X160338331Y-110315000D01*
X160354912Y-110403120D01*
X160338331Y-110485000D01*
X160338331Y-110715000D01*
X160354912Y-110803120D01*
X160338331Y-110885000D01*
X160338331Y-111115000D01*
X160354912Y-111203120D01*
X160338331Y-111285000D01*
X160338331Y-111515000D01*
X160354912Y-111603120D01*
X160338331Y-111685000D01*
X160338331Y-111915000D01*
X160354912Y-112003120D01*
X160338331Y-112085000D01*
X160338331Y-112315000D01*
X160354912Y-112403120D01*
X160338331Y-112485000D01*
X160338331Y-112715000D01*
X160354912Y-112803120D01*
X160338331Y-112885000D01*
X160338331Y-113115000D01*
X160354912Y-113203120D01*
X160338331Y-113285000D01*
X160338331Y-113515000D01*
X160354912Y-113603120D01*
X160338331Y-113685000D01*
X160338331Y-113915000D01*
X160354912Y-114003120D01*
X160338331Y-114085000D01*
X160338331Y-114315000D01*
X160354912Y-114403120D01*
X160338331Y-114485000D01*
X160338331Y-114715000D01*
X160354912Y-114803120D01*
X160338331Y-114885000D01*
X160338331Y-115115000D01*
X160354912Y-115203120D01*
X160338331Y-115285000D01*
X160338331Y-115515000D01*
X160354912Y-115603120D01*
X160338331Y-115685000D01*
X160338331Y-115915000D01*
X160356375Y-116010895D01*
X160338331Y-116100000D01*
X160338331Y-116450000D01*
X160361356Y-116572365D01*
X160428077Y-116676053D01*
X160372032Y-116811026D01*
X160371798Y-117078802D01*
X160474056Y-117326284D01*
X160663237Y-117515795D01*
X160910540Y-117618484D01*
X161178316Y-117618718D01*
X161425798Y-117516460D01*
X161615309Y-117327279D01*
X161717998Y-117079976D01*
X161718232Y-116812200D01*
X161684394Y-116730305D01*
X161838744Y-116794397D01*
X161838593Y-116967746D01*
X161940851Y-117215228D01*
X162130032Y-117404739D01*
X162377335Y-117507428D01*
X162645111Y-117507662D01*
X162892593Y-117405404D01*
X163027879Y-117270353D01*
X163071608Y-117376184D01*
X163260789Y-117565695D01*
X163508092Y-117668384D01*
X163775868Y-117668618D01*
X164023350Y-117566360D01*
X164212861Y-117377179D01*
X164315550Y-117129876D01*
X164315784Y-116862100D01*
X164213526Y-116614618D01*
X164122694Y-116523627D01*
X164125216Y-116506470D01*
X164169713Y-116544285D01*
X164244827Y-116619530D01*
X164492130Y-116722219D01*
X164759906Y-116722453D01*
X165007388Y-116620195D01*
X165196899Y-116431014D01*
X165299588Y-116183711D01*
X165299798Y-115943131D01*
X165422112Y-115892592D01*
X165594800Y-115720205D01*
X165594800Y-123210093D01*
X165408979Y-124144277D01*
X164902410Y-124902412D01*
X164144277Y-125408979D01*
X163210092Y-125594800D01*
X132789907Y-125594800D01*
X131855723Y-125408979D01*
X131097588Y-124902410D01*
X130591021Y-124144277D01*
X130485235Y-123612452D01*
X130919483Y-123612452D01*
X131197527Y-124285371D01*
X131711921Y-124800664D01*
X132384354Y-125079882D01*
X133112452Y-125080517D01*
X133785371Y-124802473D01*
X134300664Y-124288079D01*
X134579882Y-123615646D01*
X134580517Y-122887548D01*
X134426210Y-122514095D01*
X135456819Y-122514095D01*
X135460197Y-122534436D01*
X135458012Y-122554940D01*
X135460309Y-122580340D01*
X135467451Y-122604580D01*
X135468554Y-122629827D01*
X135474029Y-122652200D01*
X135483077Y-122671603D01*
X135483168Y-122673422D01*
X135487699Y-122682983D01*
X135493937Y-122710057D01*
X135502571Y-122729247D01*
X135520891Y-122754956D01*
X135523595Y-122764038D01*
X135529647Y-122771491D01*
X135539182Y-122791609D01*
X135550957Y-122807458D01*
X135569378Y-122824127D01*
X135569863Y-122825100D01*
X135572529Y-122827418D01*
X135578472Y-122835758D01*
X135585303Y-122840031D01*
X135606040Y-122865568D01*
X135620935Y-122877923D01*
X135640577Y-122888553D01*
X135647936Y-122895212D01*
X135652280Y-122896762D01*
X135668559Y-122910917D01*
X135675776Y-122915043D01*
X135688699Y-122919369D01*
X135699670Y-122927458D01*
X135706619Y-122930721D01*
X135716919Y-122933271D01*
X135725837Y-122939023D01*
X135733414Y-122942019D01*
X135743793Y-122943910D01*
X135752992Y-122949065D01*
X135761444Y-122951814D01*
X135771053Y-122952954D01*
X135779750Y-122957197D01*
X135789321Y-122959718D01*
X135797667Y-122960229D01*
X135805354Y-122963522D01*
X135816289Y-122965834D01*
X135823221Y-122965917D01*
X135829701Y-122968386D01*
X135842247Y-122970508D01*
X135847833Y-122970348D01*
X135853122Y-122972166D01*
X135867521Y-122974119D01*
X135871960Y-122973845D01*
X135876201Y-122975181D01*
X135892701Y-122976982D01*
X135896155Y-122976679D01*
X135899481Y-122977652D01*
X135918324Y-122979322D01*
X135921009Y-122979031D01*
X135923615Y-122979749D01*
X135945049Y-122981307D01*
X135947126Y-122981049D01*
X135949151Y-122981580D01*
X135973418Y-122983045D01*
X135975022Y-122982825D01*
X135976590Y-122983221D01*
X136003937Y-122984612D01*
X136005169Y-122984431D01*
X136006378Y-122984727D01*
X136037050Y-122986063D01*
X136037982Y-122985920D01*
X136038901Y-122986139D01*
X136073143Y-122987441D01*
X136073855Y-122987327D01*
X136074558Y-122987492D01*
X136112615Y-122988778D01*
X136113152Y-122988690D01*
X136113681Y-122988812D01*
X136155797Y-122990101D01*
X136156191Y-122990035D01*
X136156581Y-122990124D01*
X136203001Y-122991436D01*
X136203286Y-122991388D01*
X136203570Y-122991452D01*
X136254541Y-122992806D01*
X136254669Y-122992784D01*
X136254793Y-122992812D01*
X136263694Y-122993042D01*
X136263695Y-122993042D01*
X136346953Y-122995319D01*
X136424762Y-122997729D01*
X136498349Y-123000314D01*
X136568193Y-123003098D01*
X136634574Y-123006097D01*
X136697733Y-123009318D01*
X136758268Y-123012795D01*
X136816400Y-123016533D01*
X136872691Y-123020564D01*
X136927369Y-123024895D01*
X136981095Y-123029566D01*
X137034579Y-123034633D01*
X137051134Y-123036286D01*
X137135838Y-123045389D01*
X137216339Y-123055153D01*
X137294163Y-123065788D01*
X137369583Y-123077356D01*
X137443425Y-123090002D01*
X137516237Y-123103837D01*
X137588699Y-123119002D01*
X137661410Y-123135630D01*
X137734988Y-123153869D01*
X137810115Y-123173890D01*
X137887321Y-123195832D01*
X137967237Y-123219864D01*
X138050267Y-123246089D01*
X138137318Y-123274770D01*
X138206272Y-123298231D01*
X138236690Y-123308912D01*
X138264601Y-123319145D01*
X138290695Y-123329192D01*
X138315641Y-123339322D01*
X138340239Y-123349865D01*
X138365115Y-123361110D01*
X138391125Y-123373468D01*
X138418753Y-123387195D01*
X138448633Y-123402634D01*
X138481295Y-123420075D01*
X138517153Y-123439744D01*
X138556807Y-123461969D01*
X138600542Y-123486890D01*
X138614235Y-123494761D01*
X138614237Y-123494762D01*
X138654434Y-123517891D01*
X138654550Y-123517930D01*
X138654644Y-123518012D01*
X138690967Y-123538877D01*
X138691133Y-123538933D01*
X138691264Y-123539047D01*
X138724019Y-123557818D01*
X138724257Y-123557898D01*
X138724448Y-123558064D01*
X138753943Y-123574908D01*
X138754260Y-123575014D01*
X138754514Y-123575234D01*
X138781055Y-123590323D01*
X138781475Y-123590462D01*
X138781809Y-123590750D01*
X138805702Y-123604252D01*
X138806246Y-123604431D01*
X138806682Y-123604804D01*
X138828236Y-123616889D01*
X138828923Y-123617113D01*
X138829472Y-123617578D01*
X138848993Y-123628415D01*
X138849840Y-123628687D01*
X138850521Y-123629258D01*
X138868316Y-123639016D01*
X138869327Y-123639335D01*
X138870145Y-123640012D01*
X138886521Y-123648860D01*
X138887678Y-123649217D01*
X138888614Y-123649981D01*
X138903878Y-123658090D01*
X138905149Y-123658472D01*
X138906182Y-123659302D01*
X138920641Y-123666839D01*
X138921948Y-123667221D01*
X138923015Y-123668064D01*
X138936975Y-123675200D01*
X138938266Y-123675566D01*
X138939324Y-123676389D01*
X138953093Y-123683292D01*
X138954232Y-123683605D01*
X138955168Y-123684323D01*
X138969053Y-123691164D01*
X138970005Y-123691419D01*
X138970792Y-123692015D01*
X138985100Y-123698962D01*
X138985457Y-123699055D01*
X138985751Y-123699277D01*
X138987007Y-123699883D01*
X138989259Y-123700466D01*
X138991137Y-123701843D01*
X139037381Y-123723400D01*
X139042589Y-123724674D01*
X139047011Y-123727706D01*
X139090635Y-123746394D01*
X139097040Y-123747748D01*
X139102578Y-123751241D01*
X139144521Y-123767330D01*
X139151908Y-123768597D01*
X139158413Y-123772310D01*
X139199618Y-123786068D01*
X139207541Y-123787071D01*
X139214656Y-123790700D01*
X139256061Y-123802396D01*
X139263968Y-123803022D01*
X139271196Y-123806293D01*
X139313743Y-123816196D01*
X139321076Y-123816433D01*
X139327880Y-123819166D01*
X139372512Y-123827546D01*
X139378840Y-123827478D01*
X139384794Y-123829616D01*
X139432449Y-123836741D01*
X139437267Y-123836510D01*
X139441851Y-123838011D01*
X139486313Y-123843377D01*
X139491177Y-123843005D01*
X139495857Y-123844391D01*
X139523963Y-123846969D01*
X139528563Y-123846485D01*
X139533028Y-123847676D01*
X139564534Y-123849706D01*
X139568133Y-123849228D01*
X139571660Y-123850089D01*
X139605156Y-123851532D01*
X139608357Y-123851037D01*
X139611519Y-123851746D01*
X139645597Y-123852566D01*
X139648836Y-123852002D01*
X139652057Y-123852659D01*
X139685303Y-123852818D01*
X139689019Y-123852097D01*
X139692743Y-123852771D01*
X139723749Y-123852231D01*
X139727826Y-123851346D01*
X139731950Y-123851988D01*
X139752181Y-123851140D01*
X139759033Y-123849476D01*
X139766038Y-123850271D01*
X139820584Y-123845716D01*
X139829414Y-123843180D01*
X139838586Y-123843722D01*
X139893757Y-123836096D01*
X139901986Y-123833243D01*
X139910693Y-123833311D01*
X139965672Y-123822819D01*
X139973625Y-123819597D01*
X139982197Y-123819231D01*
X140036169Y-123806080D01*
X140044151Y-123802367D01*
X140052916Y-123801537D01*
X140105068Y-123785929D01*
X140113386Y-123781522D01*
X140122692Y-123780118D01*
X140172209Y-123762259D01*
X140181189Y-123756846D01*
X140191437Y-123754645D01*
X140237504Y-123734740D01*
X140243749Y-123730429D01*
X140251095Y-123728505D01*
X140263512Y-123722469D01*
X140269972Y-123717570D01*
X140277708Y-123715145D01*
X140333236Y-123684800D01*
X140342547Y-123677013D01*
X140353843Y-123672563D01*
X140408167Y-123637617D01*
X140416461Y-123629607D01*
X140426874Y-123624664D01*
X140479897Y-123585225D01*
X140487222Y-123577120D01*
X140496768Y-123571812D01*
X140548393Y-123527988D01*
X140554821Y-123519884D01*
X140563538Y-123514317D01*
X140613670Y-123466216D01*
X140619277Y-123458188D01*
X140627213Y-123452451D01*
X140675756Y-123400182D01*
X140680624Y-123392280D01*
X140687837Y-123386440D01*
X140734695Y-123330110D01*
X140738897Y-123322373D01*
X140745445Y-123316485D01*
X140790522Y-123256204D01*
X140794132Y-123248648D01*
X140800075Y-123242750D01*
X140843276Y-123178624D01*
X140846358Y-123171262D01*
X140851753Y-123165381D01*
X140892981Y-123097519D01*
X140895593Y-123090355D01*
X140900489Y-123084512D01*
X140939649Y-123013022D01*
X140941661Y-123006627D01*
X140945761Y-123001323D01*
X140976681Y-122939188D01*
X140978069Y-122934080D01*
X140981175Y-122929794D01*
X140993750Y-122902424D01*
X140994856Y-122897789D01*
X140997544Y-122893853D01*
X141009627Y-122865489D01*
X141010561Y-122861026D01*
X141013030Y-122857194D01*
X141024969Y-122826949D01*
X141025685Y-122823004D01*
X141027777Y-122819583D01*
X141039919Y-122786571D01*
X141040428Y-122783339D01*
X141042082Y-122780513D01*
X141054774Y-122743849D01*
X141054999Y-122742216D01*
X141055763Y-122740882D01*
X141070525Y-122734914D01*
X141070703Y-122734797D01*
X141070913Y-122734757D01*
X141094232Y-122725296D01*
X141094420Y-122725172D01*
X141094644Y-122725129D01*
X141116227Y-122716339D01*
X141116453Y-122716190D01*
X141116719Y-122716138D01*
X141136183Y-122708175D01*
X141136451Y-122707997D01*
X141136769Y-122707935D01*
X141153729Y-122700958D01*
X141154109Y-122700705D01*
X141154558Y-122700616D01*
X141168632Y-122694783D01*
X141169220Y-122694390D01*
X141169917Y-122694248D01*
X141180719Y-122689718D01*
X141181940Y-122688894D01*
X141183382Y-122688588D01*
X141190532Y-122685516D01*
X141194923Y-122682499D01*
X141200099Y-122681229D01*
X141203212Y-122679775D01*
X141231606Y-122658928D01*
X141263317Y-122643599D01*
X141263419Y-122643522D01*
X141272099Y-122633780D01*
X141283373Y-122627217D01*
X141292153Y-122615690D01*
X141298326Y-122611448D01*
X141300197Y-122608568D01*
X141308636Y-122602372D01*
X141326819Y-122572365D01*
X141350425Y-122545871D01*
X141354716Y-122533549D01*
X141362620Y-122523172D01*
X141367249Y-122505644D01*
X141376416Y-122490517D01*
X141381693Y-122456086D01*
X141393439Y-122422358D01*
X141392688Y-122409331D01*
X141396019Y-122396719D01*
X141393568Y-122378605D01*
X141396230Y-122361238D01*
X141387976Y-122327596D01*
X141385911Y-122291787D01*
X141380233Y-122280042D01*
X141378484Y-122267111D01*
X141369796Y-122252187D01*
X141367274Y-122240562D01*
X141366263Y-122239104D01*
X141365064Y-122234217D01*
X141344625Y-122206378D01*
X141328990Y-122174035D01*
X141319249Y-122165356D01*
X141312685Y-122154080D01*
X141311081Y-122152263D01*
X141300396Y-122144125D01*
X141292742Y-122133088D01*
X141287804Y-122128318D01*
X141285423Y-122126786D01*
X141283772Y-122124488D01*
X141275783Y-122117023D01*
X141274718Y-122116363D01*
X141273981Y-122115352D01*
X141263228Y-122105450D01*
X141262578Y-122105054D01*
X141262128Y-122104442D01*
X141248892Y-122092363D01*
X141248447Y-122092094D01*
X141248137Y-122091676D01*
X141232704Y-122077678D01*
X141232356Y-122077469D01*
X141232113Y-122077143D01*
X141214766Y-122061484D01*
X141214472Y-122061309D01*
X141214269Y-122061037D01*
X141195294Y-122043977D01*
X141195029Y-122043820D01*
X141194844Y-122043573D01*
X141174523Y-122025369D01*
X141174293Y-122025233D01*
X141174132Y-122025019D01*
X141156729Y-122009479D01*
X141156656Y-122009436D01*
X141156603Y-122009366D01*
X141131906Y-121987334D01*
X141110735Y-121968422D01*
X141093035Y-121952565D01*
X141090987Y-121950721D01*
X141090713Y-121949449D01*
X141082270Y-121929946D01*
X141079597Y-121926080D01*
X141078480Y-121921511D01*
X141069681Y-121902632D01*
X141067210Y-121899260D01*
X141066118Y-121895226D01*
X141061596Y-121886114D01*
X141056622Y-121879665D01*
X141054121Y-121871916D01*
X141031871Y-121832000D01*
X141023390Y-121822031D01*
X141018423Y-121809923D01*
X140992895Y-121771437D01*
X140983970Y-121762452D01*
X140978302Y-121751124D01*
X140949028Y-121713430D01*
X140940296Y-121705862D01*
X140934433Y-121695901D01*
X140900948Y-121658361D01*
X140895784Y-121654467D01*
X140892294Y-121649022D01*
X140883281Y-121639659D01*
X140878094Y-121636048D01*
X140874490Y-121630860D01*
X140836427Y-121594148D01*
X140827151Y-121588190D01*
X140820289Y-121579564D01*
X140781012Y-121546317D01*
X140770837Y-121540678D01*
X140762988Y-121532091D01*
X140721670Y-121501717D01*
X140711289Y-121496861D01*
X140703005Y-121488943D01*
X140658823Y-121460846D01*
X140648962Y-121457020D01*
X140640879Y-121450205D01*
X140593008Y-121423792D01*
X140587205Y-121421947D01*
X140582410Y-121418189D01*
X140568020Y-121410908D01*
X140563026Y-121409515D01*
X140558851Y-121406443D01*
X140512185Y-121384588D01*
X140504007Y-121382573D01*
X140496983Y-121377922D01*
X140450344Y-121358835D01*
X140441596Y-121357133D01*
X140433916Y-121352609D01*
X140386463Y-121336034D01*
X140377650Y-121334795D01*
X140369755Y-121330684D01*
X140320644Y-121316365D01*
X140312278Y-121315632D01*
X140304648Y-121312127D01*
X140253038Y-121299807D01*
X140245526Y-121299522D01*
X140238563Y-121296688D01*
X140183609Y-121286111D01*
X140178530Y-121286142D01*
X140173768Y-121284368D01*
X140141904Y-121279215D01*
X140139483Y-121279302D01*
X140137202Y-121278489D01*
X140123599Y-121276487D01*
X140120857Y-121276625D01*
X140118258Y-121275745D01*
X140106376Y-121274191D01*
X140101984Y-121274483D01*
X140097775Y-121273178D01*
X140086654Y-121272015D01*
X140081412Y-121272499D01*
X140076338Y-121271097D01*
X140065024Y-121270266D01*
X140060147Y-121270869D01*
X140055379Y-121269698D01*
X140042913Y-121269143D01*
X140039333Y-121269691D01*
X140035799Y-121268902D01*
X140021224Y-121268563D01*
X140019022Y-121268948D01*
X140016831Y-121268489D01*
X139999190Y-121268310D01*
X139998135Y-121268509D01*
X139997081Y-121268295D01*
X139978921Y-121268225D01*
X139977925Y-121268419D01*
X139976933Y-121268224D01*
X139951414Y-121268277D01*
X139949105Y-121268741D01*
X139946786Y-121268318D01*
X139925069Y-121268663D01*
X139921394Y-121269455D01*
X139917683Y-121268862D01*
X139898735Y-121269581D01*
X139893684Y-121270786D01*
X139888535Y-121270124D01*
X139871325Y-121271303D01*
X139865480Y-121272888D01*
X139859452Y-121272329D01*
X139842947Y-121274051D01*
X139837300Y-121275800D01*
X139831397Y-121275459D01*
X139814566Y-121277808D01*
X139810063Y-121279376D01*
X139805295Y-121279234D01*
X139787104Y-121282294D01*
X139784416Y-121283315D01*
X139781542Y-121283278D01*
X139766482Y-121286073D01*
X139761733Y-121287969D01*
X139756618Y-121288057D01*
X139716258Y-121296808D01*
X139709446Y-121299768D01*
X139702034Y-121300219D01*
X139660139Y-121311237D01*
X139653961Y-121314248D01*
X139647126Y-121314942D01*
X139605673Y-121327653D01*
X139599228Y-121331123D01*
X139591982Y-121332175D01*
X139552948Y-121346007D01*
X139548523Y-121348641D01*
X139543454Y-121349534D01*
X139535652Y-121352567D01*
X139534473Y-121353318D01*
X139533097Y-121353572D01*
X139503489Y-121365362D01*
X139502722Y-121365860D01*
X139501826Y-121366030D01*
X139472769Y-121377781D01*
X139471913Y-121378343D01*
X139470908Y-121378540D01*
X139442136Y-121390377D01*
X139441218Y-121390988D01*
X139440137Y-121391207D01*
X139411386Y-121403253D01*
X139410437Y-121403893D01*
X139409313Y-121404129D01*
X139380315Y-121416508D01*
X139379357Y-121417163D01*
X139378226Y-121417409D01*
X139348716Y-121430244D01*
X139347778Y-121430895D01*
X139346663Y-121431145D01*
X139316375Y-121444560D01*
X139315477Y-121445192D01*
X139314404Y-121445440D01*
X139283073Y-121459559D01*
X139282233Y-121460158D01*
X139281232Y-121460396D01*
X139248590Y-121475343D01*
X139247820Y-121475899D01*
X139246897Y-121476124D01*
X139212681Y-121492023D01*
X139211996Y-121492524D01*
X139211171Y-121492729D01*
X139175114Y-121509702D01*
X139174505Y-121510152D01*
X139173771Y-121510338D01*
X139135607Y-121528510D01*
X139135075Y-121528906D01*
X139134432Y-121529072D01*
X139093896Y-121548567D01*
X139093441Y-121548909D01*
X139092893Y-121549052D01*
X139049719Y-121569992D01*
X139049332Y-121570285D01*
X139048865Y-121570408D01*
X139002786Y-121592919D01*
X139002462Y-121593165D01*
X139002070Y-121593270D01*
X138952820Y-121617475D01*
X138952555Y-121617678D01*
X138952234Y-121617764D01*
X138899548Y-121643786D01*
X138899328Y-121643955D01*
X138899062Y-121644027D01*
X138842676Y-121671990D01*
X138842503Y-121672123D01*
X138842290Y-121672181D01*
X138781935Y-121702209D01*
X138781837Y-121702284D01*
X138781718Y-121702317D01*
X138766334Y-121709986D01*
X138766333Y-121709986D01*
X138714519Y-121735769D01*
X138667288Y-121759170D01*
X138623510Y-121780738D01*
X138583044Y-121800531D01*
X138546055Y-121818463D01*
X138511689Y-121834942D01*
X138480045Y-121849922D01*
X138450176Y-121863849D01*
X138422265Y-121876640D01*
X138395552Y-121888651D01*
X138369934Y-121899935D01*
X138344888Y-121910733D01*
X138319746Y-121921342D01*
X138294397Y-121931818D01*
X138268163Y-121942454D01*
X138240780Y-121953369D01*
X138235029Y-121955643D01*
X138234627Y-121955902D01*
X138234153Y-121955990D01*
X138216696Y-121962945D01*
X138215668Y-121963612D01*
X138214467Y-121963843D01*
X138198505Y-121970335D01*
X138197345Y-121971099D01*
X138195981Y-121971373D01*
X138182062Y-121977168D01*
X138180481Y-121978229D01*
X138178614Y-121978625D01*
X138167285Y-121983490D01*
X138164644Y-121985305D01*
X138161523Y-121986029D01*
X138153328Y-121989732D01*
X138147452Y-121993934D01*
X138142632Y-121995144D01*
X138141526Y-121995965D01*
X138138731Y-121996758D01*
X138134218Y-121999066D01*
X138117120Y-122012586D01*
X138101995Y-122011763D01*
X138095846Y-122012642D01*
X138087990Y-122015406D01*
X138079662Y-122015361D01*
X138070066Y-122017216D01*
X138015011Y-122026467D01*
X137965694Y-122031402D01*
X137915762Y-122033050D01*
X137860192Y-122031221D01*
X137857662Y-122031043D01*
X137804692Y-122026602D01*
X137747276Y-122020892D01*
X137684758Y-122013838D01*
X137617677Y-122005489D01*
X137546135Y-121995852D01*
X137470571Y-121984979D01*
X137391257Y-121972910D01*
X137308001Y-121959612D01*
X137221673Y-121945222D01*
X137131734Y-121929648D01*
X137038974Y-121913024D01*
X136943410Y-121895350D01*
X136845168Y-121876646D01*
X136744295Y-121856916D01*
X136641250Y-121836246D01*
X136536308Y-121814684D01*
X136429068Y-121792143D01*
X136320439Y-121768805D01*
X136216963Y-121746116D01*
X136186618Y-121739396D01*
X136185865Y-121739380D01*
X136185175Y-121739080D01*
X136158968Y-121733397D01*
X136156578Y-121733356D01*
X136154370Y-121732433D01*
X136132033Y-121727916D01*
X136127121Y-121727900D01*
X136122534Y-121726137D01*
X136103632Y-121722879D01*
X136094916Y-121723103D01*
X136086628Y-121720395D01*
X136070727Y-121718487D01*
X136056429Y-121719589D01*
X136042475Y-121716304D01*
X136029142Y-121715839D01*
X136007446Y-121719373D01*
X135985578Y-121717155D01*
X135974379Y-121718225D01*
X135964552Y-121721175D01*
X135963423Y-121721065D01*
X135943519Y-121727134D01*
X135914685Y-121729456D01*
X135905185Y-121732155D01*
X135891894Y-121738958D01*
X135887316Y-121739465D01*
X135867755Y-121750229D01*
X135849112Y-121755825D01*
X135848925Y-121755978D01*
X135838321Y-121759211D01*
X135830086Y-121763628D01*
X135807713Y-121782043D01*
X135788760Y-121791744D01*
X135785631Y-121795421D01*
X135772731Y-121802520D01*
X135765327Y-121808749D01*
X135748451Y-121829832D01*
X135727172Y-121846459D01*
X135720165Y-121854592D01*
X135711531Y-121869855D01*
X135698905Y-121882021D01*
X135691862Y-121892150D01*
X135688042Y-121900909D01*
X135681546Y-121907914D01*
X135674031Y-121920132D01*
X135672709Y-121923697D01*
X135670190Y-121926538D01*
X135661771Y-121940937D01*
X135661644Y-121941303D01*
X135661387Y-121941595D01*
X135658452Y-121946641D01*
X135657824Y-121948470D01*
X135656560Y-121949936D01*
X135631006Y-121995039D01*
X135629725Y-121998915D01*
X135627134Y-122002068D01*
X135603179Y-122046812D01*
X135601953Y-122050845D01*
X135599359Y-122054165D01*
X135577279Y-122097977D01*
X135576074Y-122102322D01*
X135573393Y-122105948D01*
X135553456Y-122148257D01*
X135552234Y-122153166D01*
X135549350Y-122157318D01*
X135531829Y-122197555D01*
X135530568Y-122203347D01*
X135527358Y-122208331D01*
X135512521Y-122245926D01*
X135511371Y-122252265D01*
X135508089Y-122257810D01*
X135498582Y-122284855D01*
X135497353Y-122293472D01*
X135493310Y-122301177D01*
X135482708Y-122337117D01*
X135481616Y-122349152D01*
X135476777Y-122360224D01*
X135469429Y-122393763D01*
X135469155Y-122407946D01*
X135464579Y-122421377D01*
X135460465Y-122452360D01*
X135461556Y-122469296D01*
X135457718Y-122485827D01*
X135456819Y-122514095D01*
X134426210Y-122514095D01*
X134302473Y-122214629D01*
X133788079Y-121699336D01*
X133115646Y-121420118D01*
X132387548Y-121419483D01*
X131714629Y-121697527D01*
X131199336Y-122211921D01*
X130920118Y-122884354D01*
X130919483Y-123612452D01*
X130485235Y-123612452D01*
X130405200Y-123210092D01*
X130405200Y-119789907D01*
X130419750Y-119716760D01*
X130438579Y-119688580D01*
X130466761Y-119669749D01*
X130539907Y-119655200D01*
X145093087Y-119655200D01*
X144890470Y-119752637D01*
X144500148Y-120160284D01*
X144380269Y-120468455D01*
X144380269Y-120074000D01*
X144357244Y-119951635D01*
X144284927Y-119839251D01*
X144174583Y-119763856D01*
X144043600Y-119737331D01*
X142316400Y-119737331D01*
X142194035Y-119760356D01*
X142081651Y-119832673D01*
X142006256Y-119943017D01*
X141979731Y-120074000D01*
X141979731Y-122106000D01*
X142002756Y-122228365D01*
X142075073Y-122340749D01*
X142185417Y-122416144D01*
X142316400Y-122442669D01*
X144043600Y-122442669D01*
X144165965Y-122419644D01*
X144278349Y-122347327D01*
X144353744Y-122236983D01*
X144380269Y-122106000D01*
X144380269Y-121711545D01*
X144500148Y-122019716D01*
X144890470Y-122427363D01*
X145319618Y-122633737D01*
X145542200Y-122531950D01*
X145542200Y-121267800D01*
X145522200Y-121267800D01*
X145522200Y-120912200D01*
X145542200Y-120912200D01*
X145542200Y-120892200D01*
X145897800Y-120892200D01*
X145897800Y-120912200D01*
X145917800Y-120912200D01*
X145917800Y-121267800D01*
X145897800Y-121267800D01*
X145897800Y-122531950D01*
X146120382Y-122633737D01*
X146549530Y-122427363D01*
X146939852Y-122019716D01*
X147122286Y-121550736D01*
X147157073Y-121725621D01*
X147415856Y-122112918D01*
X147803153Y-122371701D01*
X148260000Y-122462574D01*
X148716847Y-122371701D01*
X149104144Y-122112918D01*
X149362927Y-121725621D01*
X149453800Y-121268774D01*
X149453800Y-120911226D01*
X149606200Y-120911226D01*
X149606200Y-121268774D01*
X149697073Y-121725621D01*
X149955856Y-122112918D01*
X150343153Y-122371701D01*
X150800000Y-122462574D01*
X151256847Y-122371701D01*
X151644144Y-122112918D01*
X151902927Y-121725621D01*
X151993800Y-121268774D01*
X151993800Y-120911226D01*
X151902927Y-120454379D01*
X151644144Y-120067082D01*
X151256847Y-119808299D01*
X150800000Y-119717426D01*
X150343153Y-119808299D01*
X149955856Y-120067082D01*
X149697073Y-120454379D01*
X149606200Y-120911226D01*
X149453800Y-120911226D01*
X149362927Y-120454379D01*
X149104144Y-120067082D01*
X148716847Y-119808299D01*
X148260000Y-119717426D01*
X147803153Y-119808299D01*
X147415856Y-120067082D01*
X147157073Y-120454379D01*
X147122286Y-120629264D01*
X146939852Y-120160284D01*
X146549530Y-119752637D01*
X146346913Y-119655200D01*
X152170000Y-119655200D01*
X152325063Y-119624356D01*
X152456520Y-119536520D01*
X152544356Y-119405063D01*
X152575200Y-119250000D01*
X152575200Y-119035477D01*
X152665525Y-119072983D01*
X152898451Y-119073187D01*
X153614808Y-119789544D01*
X153519217Y-119829041D01*
X153329706Y-120018222D01*
X153227017Y-120265525D01*
X153226783Y-120533301D01*
X153329041Y-120780783D01*
X153380895Y-120832728D01*
X153282127Y-120873538D01*
X152974618Y-121180511D01*
X152807990Y-121581795D01*
X152807611Y-122016299D01*
X152973538Y-122417873D01*
X153280511Y-122725382D01*
X153369812Y-122762463D01*
X153327017Y-122865525D01*
X153326783Y-123133301D01*
X153429041Y-123380783D01*
X153618222Y-123570294D01*
X153865525Y-123672983D01*
X154133301Y-123673217D01*
X154280362Y-123612452D01*
X161419483Y-123612452D01*
X161697527Y-124285371D01*
X162211921Y-124800664D01*
X162884354Y-125079882D01*
X163612452Y-125080517D01*
X164285371Y-124802473D01*
X164800664Y-124288079D01*
X165079882Y-123615646D01*
X165080517Y-122887548D01*
X164802473Y-122214629D01*
X164288079Y-121699336D01*
X163615646Y-121420118D01*
X162887548Y-121419483D01*
X162214629Y-121697527D01*
X161699336Y-122211921D01*
X161420118Y-122884354D01*
X161419483Y-123612452D01*
X154280362Y-123612452D01*
X154380783Y-123570959D01*
X154570294Y-123381778D01*
X154672983Y-123134475D01*
X154673217Y-122866699D01*
X154586829Y-122657626D01*
X154825382Y-122419489D01*
X154992010Y-122018205D01*
X154992389Y-121583701D01*
X154826462Y-121182127D01*
X154719700Y-121075178D01*
X154935451Y-121075367D01*
X155182933Y-120973109D01*
X155372444Y-120783928D01*
X155475133Y-120536625D01*
X155475367Y-120268849D01*
X155373109Y-120021367D01*
X155183928Y-119831856D01*
X154936625Y-119729167D01*
X154703699Y-119728963D01*
X153473015Y-118498279D01*
X153473217Y-118266699D01*
X153370959Y-118019217D01*
X153181778Y-117829706D01*
X152934475Y-117727017D01*
X152666699Y-117726783D01*
X152575200Y-117764590D01*
X152575200Y-112500000D01*
X152544356Y-112344937D01*
X152456520Y-112213480D01*
X152325063Y-112125644D01*
X152170000Y-112094800D01*
X152039901Y-112094800D01*
X152050269Y-112043600D01*
X152050269Y-110316400D01*
X152027244Y-110194035D01*
X151954927Y-110081651D01*
X151844583Y-110006256D01*
X151713600Y-109979731D01*
X149986400Y-109979731D01*
X149864035Y-110002756D01*
X149751651Y-110075073D01*
X149676256Y-110185417D01*
X149649731Y-110316400D01*
X149649731Y-112043600D01*
X149659365Y-112094800D01*
X149071788Y-112094800D01*
X149177532Y-112024144D01*
X149436315Y-111636847D01*
X149527188Y-111180000D01*
X149436315Y-110723153D01*
X149177532Y-110335856D01*
X148790235Y-110077073D01*
X148333388Y-109986200D01*
X148286612Y-109986200D01*
X147829765Y-110077073D01*
X147442468Y-110335856D01*
X147405200Y-110391632D01*
X147405200Y-109428368D01*
X147442468Y-109484144D01*
X147829765Y-109742927D01*
X148286612Y-109833800D01*
X148333388Y-109833800D01*
X148790235Y-109742927D01*
X149177532Y-109484144D01*
X149436315Y-109096847D01*
X149527188Y-108640000D01*
X149436315Y-108183153D01*
X149177532Y-107795856D01*
X148790235Y-107537073D01*
X148487802Y-107476915D01*
X148487802Y-107390806D01*
X148710385Y-107491351D01*
X149212354Y-107232220D01*
X149576948Y-106800719D01*
X149580000Y-106793350D01*
X149583052Y-106800719D01*
X149947646Y-107232220D01*
X150449615Y-107491351D01*
X150672198Y-107390806D01*
X150672198Y-107476915D01*
X150369765Y-107537073D01*
X149982468Y-107795856D01*
X149723685Y-108183153D01*
X149632812Y-108640000D01*
X149723685Y-109096847D01*
X149982468Y-109484144D01*
X150369765Y-109742927D01*
X150826612Y-109833800D01*
X150873388Y-109833800D01*
X151330235Y-109742927D01*
X151717532Y-109484144D01*
X151976315Y-109096847D01*
X152067188Y-108640000D01*
X151976315Y-108183153D01*
X151717532Y-107795856D01*
X151330235Y-107537073D01*
X151027802Y-107476915D01*
X151027802Y-107390806D01*
X151250385Y-107491351D01*
X151752354Y-107232220D01*
X152116948Y-106800719D01*
X152241337Y-106500382D01*
X152139550Y-106277800D01*
X151027800Y-106277800D01*
X151027800Y-106297800D01*
X150672200Y-106297800D01*
X150672200Y-106277800D01*
X148487800Y-106277800D01*
X148487800Y-106297800D01*
X148132200Y-106297800D01*
X148132200Y-106277800D01*
X148112200Y-106277800D01*
X148112200Y-105922200D01*
X148132200Y-105922200D01*
X148132200Y-103737800D01*
X148487800Y-103737800D01*
X148487800Y-105922200D01*
X150672200Y-105922200D01*
X150672200Y-103737800D01*
X151027800Y-103737800D01*
X151027800Y-105922200D01*
X152139550Y-105922200D01*
X152241337Y-105699618D01*
X152116948Y-105399281D01*
X151752354Y-104967780D01*
X151485457Y-104830000D01*
X151752354Y-104692220D01*
X152116948Y-104260719D01*
X152241337Y-103960382D01*
X152139550Y-103737800D01*
X151027800Y-103737800D01*
X150672200Y-103737800D01*
X148487800Y-103737800D01*
X148132200Y-103737800D01*
X148112200Y-103737800D01*
X148112200Y-103382200D01*
X148132200Y-103382200D01*
X148132200Y-103362200D01*
X148487800Y-103362200D01*
X148487800Y-103382200D01*
X150672200Y-103382200D01*
X150672200Y-103362200D01*
X151027800Y-103362200D01*
X151027800Y-103382200D01*
X152139550Y-103382200D01*
X152241337Y-103159618D01*
X152116948Y-102859281D01*
X151752354Y-102427780D01*
X151250385Y-102168649D01*
X151027802Y-102269194D01*
X151027802Y-102183085D01*
X151330235Y-102122927D01*
X151717532Y-101864144D01*
X151976315Y-101476847D01*
X152067188Y-101020000D01*
X151976315Y-100563153D01*
X151717532Y-100175856D01*
X151330235Y-99917073D01*
X150873388Y-99826200D01*
X150826612Y-99826200D01*
X150369765Y-99917073D01*
X149982468Y-100175856D01*
X149723685Y-100563153D01*
X149632812Y-101020000D01*
X149723685Y-101476847D01*
X149982468Y-101864144D01*
X150369765Y-102122927D01*
X150672198Y-102183085D01*
X150672198Y-102269194D01*
X150449615Y-102168649D01*
X149947646Y-102427780D01*
X149583052Y-102859281D01*
X149580000Y-102866650D01*
X149576948Y-102859281D01*
X149212354Y-102427780D01*
X148710385Y-102168649D01*
X148487802Y-102269194D01*
X148487802Y-102183085D01*
X148790235Y-102122927D01*
X149177532Y-101864144D01*
X149436315Y-101476847D01*
X149527188Y-101020000D01*
X149436315Y-100563153D01*
X149177532Y-100175856D01*
X148790235Y-99917073D01*
X148333388Y-99826200D01*
X148286612Y-99826200D01*
X147829765Y-99917073D01*
X147442468Y-100175856D01*
X147405200Y-100231632D01*
X147405200Y-99268368D01*
X147442468Y-99324144D01*
X147829765Y-99582927D01*
X148286612Y-99673800D01*
X148333388Y-99673800D01*
X148790235Y-99582927D01*
X149177532Y-99324144D01*
X149436315Y-98936847D01*
X149527188Y-98480000D01*
X149632812Y-98480000D01*
X149723685Y-98936847D01*
X149982468Y-99324144D01*
X150369765Y-99582927D01*
X150826612Y-99673800D01*
X150873388Y-99673800D01*
X151330235Y-99582927D01*
X151717532Y-99324144D01*
X151765139Y-99252894D01*
X151834739Y-99420923D01*
X151999078Y-99585261D01*
X152213796Y-99674200D01*
X152456150Y-99674200D01*
X152602200Y-99528150D01*
X152602200Y-98667800D01*
X152582200Y-98667800D01*
X152582200Y-98312200D01*
X152602200Y-98312200D01*
X152602200Y-97451850D01*
X152456150Y-97305800D01*
X152213796Y-97305800D01*
X151999078Y-97394739D01*
X151834739Y-97559077D01*
X151770253Y-97714759D01*
X151717532Y-97635856D01*
X151330235Y-97377073D01*
X150873388Y-97286200D01*
X150826612Y-97286200D01*
X150369765Y-97377073D01*
X149982468Y-97635856D01*
X149723685Y-98023153D01*
X149632812Y-98480000D01*
X149527188Y-98480000D01*
X149436315Y-98023153D01*
X149177532Y-97635856D01*
X148790235Y-97377073D01*
X148333388Y-97286200D01*
X148286612Y-97286200D01*
X147829765Y-97377073D01*
X147442468Y-97635856D01*
X147405200Y-97691632D01*
X147405200Y-96750000D01*
X147374356Y-96594937D01*
X147286520Y-96463480D01*
X147155063Y-96375644D01*
X147000000Y-96344800D01*
X130539907Y-96344800D01*
X130466761Y-96330251D01*
X130438579Y-96311420D01*
X130419750Y-96283240D01*
X130405200Y-96210093D01*
X130405200Y-94600000D01*
X139427426Y-94600000D01*
X139529899Y-95115168D01*
X139821719Y-95551907D01*
X140258458Y-95843727D01*
X140773626Y-95946200D01*
X140826374Y-95946200D01*
X141341542Y-95843727D01*
X141778281Y-95551907D01*
X142070101Y-95115168D01*
X142172574Y-94600000D01*
X142070101Y-94084832D01*
X141778281Y-93648093D01*
X141425944Y-93412669D01*
X141816000Y-93412669D01*
X141938365Y-93389644D01*
X142050749Y-93317327D01*
X142126144Y-93206983D01*
X142152669Y-93076000D01*
X142152669Y-91044000D01*
X142129644Y-90921635D01*
X142057327Y-90809251D01*
X141946983Y-90733856D01*
X141816000Y-90707331D01*
X139784000Y-90707331D01*
X139661635Y-90730356D01*
X139549251Y-90802673D01*
X139473856Y-90913017D01*
X139447331Y-91044000D01*
X139447331Y-93076000D01*
X139470356Y-93198365D01*
X139542673Y-93310749D01*
X139653017Y-93386144D01*
X139784000Y-93412669D01*
X140174056Y-93412669D01*
X139821719Y-93648093D01*
X139529899Y-94084832D01*
X139427426Y-94600000D01*
X130405200Y-94600000D01*
X130405200Y-93112452D01*
X130919483Y-93112452D01*
X131197527Y-93785371D01*
X131711921Y-94300664D01*
X132384354Y-94579882D01*
X133112452Y-94580517D01*
X133785371Y-94302473D01*
X134300664Y-93788079D01*
X134579882Y-93115646D01*
X134580517Y-92387548D01*
X134302473Y-91714629D01*
X133788079Y-91199336D01*
X133115646Y-90920118D01*
X132387548Y-90919483D01*
X131714629Y-91197527D01*
X131199336Y-91711921D01*
X130920118Y-92384354D01*
X130919483Y-93112452D01*
X130405200Y-93112452D01*
X130405200Y-92789908D01*
X130591021Y-91855723D01*
X131097588Y-91097590D01*
X131855723Y-90591021D01*
X132789907Y-90405200D01*
X157850322Y-90405200D01*
X157624618Y-90630511D01*
X157624618Y-90630511D01*
G37*
X157624618Y-90630511D02*
X157556897Y-90793600D01*
X157486669Y-90793600D01*
X157486669Y-90750000D01*
X157463644Y-90627635D01*
X157391327Y-90515251D01*
X157280983Y-90439856D01*
X157150000Y-90413331D01*
X155950000Y-90413331D01*
X155827635Y-90436356D01*
X155715251Y-90508673D01*
X155639856Y-90619017D01*
X155613331Y-90750000D01*
X155613331Y-91411933D01*
X155264172Y-91761092D01*
X155286669Y-91650000D01*
X155286669Y-90750000D01*
X155263644Y-90627635D01*
X155191327Y-90515251D01*
X155080983Y-90439856D01*
X154950000Y-90413331D01*
X153750000Y-90413331D01*
X153627635Y-90436356D01*
X153515251Y-90508673D01*
X153439856Y-90619017D01*
X153413331Y-90750000D01*
X153413331Y-91650000D01*
X153436356Y-91772365D01*
X153508673Y-91884749D01*
X153619017Y-91960144D01*
X153663166Y-91969085D01*
X153652085Y-91995771D01*
X153651851Y-92263547D01*
X153754109Y-92511029D01*
X153776679Y-92533638D01*
X153373726Y-92533638D01*
X153240691Y-92560100D01*
X153218203Y-92564573D01*
X153086357Y-92652670D01*
X153000477Y-92738550D01*
X152768898Y-92738348D01*
X152521416Y-92840606D01*
X152331905Y-93029787D01*
X152229216Y-93277090D01*
X152228982Y-93544866D01*
X152331240Y-93792348D01*
X152520421Y-93981859D01*
X152767724Y-94084548D01*
X152870626Y-94084638D01*
X152492632Y-94462632D01*
X152404535Y-94594477D01*
X152373600Y-94750000D01*
X152373600Y-95353331D01*
X152330000Y-95353331D01*
X152207635Y-95376356D01*
X152095251Y-95448673D01*
X152019856Y-95559017D01*
X151993331Y-95690000D01*
X151993331Y-96890000D01*
X152016356Y-97012365D01*
X152088673Y-97124749D01*
X152199017Y-97200144D01*
X152330000Y-97226669D01*
X153127759Y-97226669D01*
X153127759Y-97305800D01*
X153103850Y-97305800D01*
X152957800Y-97451850D01*
X152957800Y-98312200D01*
X152977800Y-98312200D01*
X152977800Y-98667800D01*
X152957800Y-98667800D01*
X152957800Y-99528150D01*
X153103850Y-99674200D01*
X153127759Y-99674200D01*
X153127759Y-99832137D01*
X153000661Y-99959235D01*
X152912564Y-100091080D01*
X152881629Y-100246603D01*
X152881629Y-102117932D01*
X152912564Y-102273455D01*
X152981093Y-102376015D01*
X153000661Y-102405300D01*
X154511910Y-103916549D01*
X154643755Y-104004646D01*
X154799278Y-104035581D01*
X155356356Y-104035581D01*
X155511879Y-104004646D01*
X155579776Y-103959278D01*
X155797706Y-103959469D01*
X156603089Y-104764853D01*
X156514662Y-104728135D01*
X156246886Y-104727901D01*
X155999404Y-104830159D01*
X155809893Y-105019340D01*
X155707204Y-105266643D01*
X155706994Y-105507222D01*
X155584679Y-105557762D01*
X155395168Y-105746943D01*
X155292479Y-105994246D01*
X155292245Y-106262022D01*
X155394503Y-106509504D01*
X155583684Y-106699015D01*
X155789110Y-106784315D01*
X155736400Y-106836934D01*
X155633711Y-107084237D01*
X155633477Y-107352013D01*
X155735735Y-107599495D01*
X155924916Y-107789006D01*
X156172219Y-107891695D01*
X156439995Y-107891929D01*
X156459463Y-107883885D01*
X156491691Y-107961883D01*
X156529843Y-108000101D01*
X156492356Y-108037523D01*
X156459617Y-108116366D01*
X156441169Y-108108706D01*
X156173393Y-108108472D01*
X155925911Y-108210730D01*
X155736400Y-108399911D01*
X155633711Y-108647214D01*
X155633477Y-108914990D01*
X155735735Y-109162472D01*
X155789330Y-109216160D01*
X155584679Y-109300721D01*
X155395168Y-109489902D01*
X155292479Y-109737205D01*
X155292245Y-110004981D01*
X155394503Y-110252463D01*
X155448098Y-110306151D01*
X155243448Y-110390711D01*
X155053937Y-110579892D01*
X154951248Y-110827195D01*
X154951014Y-111094971D01*
X155053272Y-111342453D01*
X155106867Y-111396141D01*
X154902216Y-111480702D01*
X154712705Y-111669883D01*
X154610016Y-111917186D01*
X154609782Y-112184962D01*
X154712040Y-112432444D01*
X154765634Y-112486132D01*
X154560984Y-112570692D01*
X154371473Y-112759873D01*
X154268784Y-113007176D01*
X154268550Y-113274952D01*
X154370808Y-113522434D01*
X154424403Y-113576122D01*
X154219752Y-113660683D01*
X154030241Y-113849864D01*
X153927552Y-114097167D01*
X153927318Y-114364943D01*
X154029576Y-114612425D01*
X154083171Y-114666113D01*
X153878520Y-114750674D01*
X153689009Y-114939855D01*
X153586320Y-115187158D01*
X153586086Y-115454934D01*
X153688344Y-115702416D01*
X153877525Y-115891927D01*
X154001019Y-115943206D01*
X154000810Y-116182537D01*
X154103068Y-116430019D01*
X154292249Y-116619530D01*
X154539552Y-116722219D01*
X154807328Y-116722453D01*
X154913268Y-116678679D01*
X154913268Y-117086358D01*
X154944203Y-117241881D01*
X154989571Y-117309778D01*
X154989350Y-117562558D01*
X155091608Y-117810040D01*
X155280789Y-117999551D01*
X155528092Y-118102240D01*
X155795868Y-118102474D01*
X156043350Y-118000216D01*
X156180500Y-117863305D01*
X156229041Y-117980783D01*
X156418222Y-118170294D01*
X156665525Y-118272983D01*
X156933301Y-118273217D01*
X157180783Y-118170959D01*
X157226965Y-118124857D01*
X157226783Y-118333301D01*
X157329041Y-118580783D01*
X157518222Y-118770294D01*
X157765525Y-118872983D01*
X158033301Y-118873217D01*
X158280783Y-118770959D01*
X158470294Y-118581778D01*
X158572983Y-118334475D01*
X158573217Y-118066699D01*
X158557902Y-118029633D01*
X158583870Y-117899080D01*
X158583870Y-117834196D01*
X158552935Y-117678673D01*
X158464838Y-117546828D01*
X158380418Y-117462408D01*
X158401732Y-117453601D01*
X158518222Y-117570294D01*
X158765525Y-117672983D01*
X159033301Y-117673217D01*
X159280783Y-117570959D01*
X159470294Y-117381778D01*
X159572983Y-117134475D01*
X159573217Y-116866699D01*
X159523918Y-116747387D01*
X159523918Y-116407953D01*
X159687812Y-116244344D01*
X159790501Y-115997041D01*
X159790735Y-115729265D01*
X159688477Y-115481783D01*
X159499296Y-115292272D01*
X159251993Y-115189583D01*
X158984217Y-115189349D01*
X158946596Y-115204894D01*
X158945088Y-115196880D01*
X158961669Y-115115000D01*
X158961669Y-114885000D01*
X158945088Y-114796880D01*
X158961669Y-114715000D01*
X158961669Y-114485000D01*
X158945088Y-114396880D01*
X158961669Y-114315000D01*
X158961669Y-114085000D01*
X158945088Y-113996880D01*
X158961669Y-113915000D01*
X158961669Y-113685000D01*
X158945088Y-113596880D01*
X158961669Y-113515000D01*
X158961669Y-113285000D01*
X158945088Y-113196880D01*
X158961669Y-113115000D01*
X158961669Y-112885000D01*
X158945088Y-112796880D01*
X158961669Y-112715000D01*
X158961669Y-112485000D01*
X158945088Y-112396880D01*
X158961669Y-112315000D01*
X158961669Y-112085000D01*
X158945088Y-111996880D01*
X158961669Y-111915000D01*
X158961669Y-111685000D01*
X158945088Y-111596880D01*
X158961669Y-111515000D01*
X158961669Y-111285000D01*
X158945088Y-111196880D01*
X158961669Y-111115000D01*
X158961669Y-110885000D01*
X158945088Y-110796880D01*
X158961669Y-110715000D01*
X158961669Y-110485000D01*
X158945088Y-110396880D01*
X158961669Y-110315000D01*
X158961669Y-110085000D01*
X158945088Y-109996880D01*
X158961669Y-109915000D01*
X158961669Y-109685000D01*
X158945088Y-109596880D01*
X158961669Y-109515000D01*
X158961669Y-109285000D01*
X158945088Y-109196880D01*
X158961669Y-109115000D01*
X158961669Y-108885000D01*
X158945088Y-108796880D01*
X158961669Y-108715000D01*
X158961669Y-108485000D01*
X158945088Y-108396880D01*
X158961669Y-108315000D01*
X158961669Y-108085000D01*
X158945088Y-107996880D01*
X158961669Y-107915000D01*
X158961669Y-107685000D01*
X158945088Y-107596880D01*
X158961669Y-107515000D01*
X158961669Y-107285000D01*
X158945088Y-107196880D01*
X158961669Y-107115000D01*
X158961669Y-106885000D01*
X158945088Y-106796880D01*
X158961669Y-106715000D01*
X158961669Y-106485000D01*
X158945088Y-106396880D01*
X158961669Y-106315000D01*
X158961669Y-106206400D01*
X159531067Y-106206400D01*
X159686590Y-106175465D01*
X159818435Y-106087368D01*
X160232557Y-105673246D01*
X160251780Y-105644477D01*
X160320654Y-105541401D01*
X160338331Y-105452531D01*
X160338331Y-105515000D01*
X160354912Y-105603120D01*
X160338331Y-105685000D01*
X160338331Y-105915000D01*
X160351793Y-105986543D01*
X160344077Y-105989739D01*
X160179739Y-106154078D01*
X160090800Y-106368796D01*
X160090800Y-106396450D01*
X160214083Y-106519733D01*
X160179739Y-106554078D01*
X160090800Y-106768796D01*
X160090800Y-106796450D01*
X160094350Y-106800000D01*
X160090800Y-106803550D01*
X160090800Y-106831204D01*
X160160718Y-107000000D01*
X160090800Y-107168796D01*
X160090800Y-107196450D01*
X160094350Y-107200000D01*
X160090800Y-107203550D01*
X160090800Y-107231204D01*
X160160718Y-107400000D01*
X160090800Y-107568796D01*
X160090800Y-107596450D01*
X160094350Y-107600000D01*
X160090800Y-107603550D01*
X160090800Y-107631204D01*
X160160718Y-107800000D01*
X160090800Y-107968796D01*
X160090800Y-107996450D01*
X160094350Y-108000000D01*
X160090800Y-108003550D01*
X160090800Y-108031204D01*
X160160718Y-108200000D01*
X160090800Y-108368796D01*
X160090800Y-108396450D01*
X160094350Y-108400000D01*
X160090800Y-108403550D01*
X160090800Y-108431204D01*
X160160718Y-108600000D01*
X160090800Y-108768796D01*
X160090800Y-108796450D01*
X160094350Y-108800000D01*
X160090800Y-108803550D01*
X160090800Y-108831204D01*
X160160718Y-109000000D01*
X160090800Y-109168796D01*
X160090800Y-109196450D01*
X160094350Y-109200000D01*
X160090800Y-109203550D01*
X160090800Y-109231204D01*
X160179739Y-109445922D01*
X160214083Y-109480267D01*
X160090800Y-109603550D01*
X160090800Y-109631204D01*
X160179739Y-109845922D01*
X160344077Y-110010261D01*
X160352740Y-110013849D01*
X160338331Y-110085000D01*
X160338331Y-110315000D01*
X160354912Y-110403120D01*
X160338331Y-110485000D01*
X160338331Y-110715000D01*
X160354912Y-110803120D01*
X160338331Y-110885000D01*
X160338331Y-111115000D01*
X160354912Y-111203120D01*
X160338331Y-111285000D01*
X160338331Y-111515000D01*
X160354912Y-111603120D01*
X160338331Y-111685000D01*
X160338331Y-111915000D01*
X160354912Y-112003120D01*
X160338331Y-112085000D01*
X160338331Y-112315000D01*
X160354912Y-112403120D01*
X160338331Y-112485000D01*
X160338331Y-112715000D01*
X160354912Y-112803120D01*
X160338331Y-112885000D01*
X160338331Y-113115000D01*
X160354912Y-113203120D01*
X160338331Y-113285000D01*
X160338331Y-113515000D01*
X160354912Y-113603120D01*
X160338331Y-113685000D01*
X160338331Y-113915000D01*
X160354912Y-114003120D01*
X160338331Y-114085000D01*
X160338331Y-114315000D01*
X160354912Y-114403120D01*
X160338331Y-114485000D01*
X160338331Y-114715000D01*
X160354912Y-114803120D01*
X160338331Y-114885000D01*
X160338331Y-115115000D01*
X160354912Y-115203120D01*
X160338331Y-115285000D01*
X160338331Y-115515000D01*
X160354912Y-115603120D01*
X160338331Y-115685000D01*
X160338331Y-115915000D01*
X160356375Y-116010895D01*
X160338331Y-116100000D01*
X160338331Y-116450000D01*
X160361356Y-116572365D01*
X160428077Y-116676053D01*
X160372032Y-116811026D01*
X160371798Y-117078802D01*
X160474056Y-117326284D01*
X160663237Y-117515795D01*
X160910540Y-117618484D01*
X161178316Y-117618718D01*
X161425798Y-117516460D01*
X161615309Y-117327279D01*
X161717998Y-117079976D01*
X161718232Y-116812200D01*
X161684394Y-116730305D01*
X161838744Y-116794397D01*
X161838593Y-116967746D01*
X161940851Y-117215228D01*
X162130032Y-117404739D01*
X162377335Y-117507428D01*
X162645111Y-117507662D01*
X162892593Y-117405404D01*
X163027879Y-117270353D01*
X163071608Y-117376184D01*
X163260789Y-117565695D01*
X163508092Y-117668384D01*
X163775868Y-117668618D01*
X164023350Y-117566360D01*
X164212861Y-117377179D01*
X164315550Y-117129876D01*
X164315784Y-116862100D01*
X164213526Y-116614618D01*
X164122694Y-116523627D01*
X164125216Y-116506470D01*
X164169713Y-116544285D01*
X164244827Y-116619530D01*
X164492130Y-116722219D01*
X164759906Y-116722453D01*
X165007388Y-116620195D01*
X165196899Y-116431014D01*
X165299588Y-116183711D01*
X165299798Y-115943131D01*
X165422112Y-115892592D01*
X165594800Y-115720205D01*
X165594800Y-123210093D01*
X165408979Y-124144277D01*
X164902410Y-124902412D01*
X164144277Y-125408979D01*
X163210092Y-125594800D01*
X132789907Y-125594800D01*
X131855723Y-125408979D01*
X131097588Y-124902410D01*
X130591021Y-124144277D01*
X130485235Y-123612452D01*
X130919483Y-123612452D01*
X131197527Y-124285371D01*
X131711921Y-124800664D01*
X132384354Y-125079882D01*
X133112452Y-125080517D01*
X133785371Y-124802473D01*
X134300664Y-124288079D01*
X134579882Y-123615646D01*
X134580517Y-122887548D01*
X134426210Y-122514095D01*
X135456819Y-122514095D01*
X135460197Y-122534436D01*
X135458012Y-122554940D01*
X135460309Y-122580340D01*
X135467451Y-122604580D01*
X135468554Y-122629827D01*
X135474029Y-122652200D01*
X135483077Y-122671603D01*
X135483168Y-122673422D01*
X135487699Y-122682983D01*
X135493937Y-122710057D01*
X135502571Y-122729247D01*
X135520891Y-122754956D01*
X135523595Y-122764038D01*
X135529647Y-122771491D01*
X135539182Y-122791609D01*
X135550957Y-122807458D01*
X135569378Y-122824127D01*
X135569863Y-122825100D01*
X135572529Y-122827418D01*
X135578472Y-122835758D01*
X135585303Y-122840031D01*
X135606040Y-122865568D01*
X135620935Y-122877923D01*
X135640577Y-122888553D01*
X135647936Y-122895212D01*
X135652280Y-122896762D01*
X135668559Y-122910917D01*
X135675776Y-122915043D01*
X135688699Y-122919369D01*
X135699670Y-122927458D01*
X135706619Y-122930721D01*
X135716919Y-122933271D01*
X135725837Y-122939023D01*
X135733414Y-122942019D01*
X135743793Y-122943910D01*
X135752992Y-122949065D01*
X135761444Y-122951814D01*
X135771053Y-122952954D01*
X135779750Y-122957197D01*
X135789321Y-122959718D01*
X135797667Y-122960229D01*
X135805354Y-122963522D01*
X135816289Y-122965834D01*
X135823221Y-122965917D01*
X135829701Y-122968386D01*
X135842247Y-122970508D01*
X135847833Y-122970348D01*
X135853122Y-122972166D01*
X135867521Y-122974119D01*
X135871960Y-122973845D01*
X135876201Y-122975181D01*
X135892701Y-122976982D01*
X135896155Y-122976679D01*
X135899481Y-122977652D01*
X135918324Y-122979322D01*
X135921009Y-122979031D01*
X135923615Y-122979749D01*
X135945049Y-122981307D01*
X135947126Y-122981049D01*
X135949151Y-122981580D01*
X135973418Y-122983045D01*
X135975022Y-122982825D01*
X135976590Y-122983221D01*
X136003937Y-122984612D01*
X136005169Y-122984431D01*
X136006378Y-122984727D01*
X136037050Y-122986063D01*
X136037982Y-122985920D01*
X136038901Y-122986139D01*
X136073143Y-122987441D01*
X136073855Y-122987327D01*
X136074558Y-122987492D01*
X136112615Y-122988778D01*
X136113152Y-122988690D01*
X136113681Y-122988812D01*
X136155797Y-122990101D01*
X136156191Y-122990035D01*
X136156581Y-122990124D01*
X136203001Y-122991436D01*
X136203286Y-122991388D01*
X136203570Y-122991452D01*
X136254541Y-122992806D01*
X136254669Y-122992784D01*
X136254793Y-122992812D01*
X136263694Y-122993042D01*
X136263695Y-122993042D01*
X136346953Y-122995319D01*
X136424762Y-122997729D01*
X136498349Y-123000314D01*
X136568193Y-123003098D01*
X136634574Y-123006097D01*
X136697733Y-123009318D01*
X136758268Y-123012795D01*
X136816400Y-123016533D01*
X136872691Y-123020564D01*
X136927369Y-123024895D01*
X136981095Y-123029566D01*
X137034579Y-123034633D01*
X137051134Y-123036286D01*
X137135838Y-123045389D01*
X137216339Y-123055153D01*
X137294163Y-123065788D01*
X137369583Y-123077356D01*
X137443425Y-123090002D01*
X137516237Y-123103837D01*
X137588699Y-123119002D01*
X137661410Y-123135630D01*
X137734988Y-123153869D01*
X137810115Y-123173890D01*
X137887321Y-123195832D01*
X137967237Y-123219864D01*
X138050267Y-123246089D01*
X138137318Y-123274770D01*
X138206272Y-123298231D01*
X138236690Y-123308912D01*
X138264601Y-123319145D01*
X138290695Y-123329192D01*
X138315641Y-123339322D01*
X138340239Y-123349865D01*
X138365115Y-123361110D01*
X138391125Y-123373468D01*
X138418753Y-123387195D01*
X138448633Y-123402634D01*
X138481295Y-123420075D01*
X138517153Y-123439744D01*
X138556807Y-123461969D01*
X138600542Y-123486890D01*
X138614235Y-123494761D01*
X138614237Y-123494762D01*
X138654434Y-123517891D01*
X138654550Y-123517930D01*
X138654644Y-123518012D01*
X138690967Y-123538877D01*
X138691133Y-123538933D01*
X138691264Y-123539047D01*
X138724019Y-123557818D01*
X138724257Y-123557898D01*
X138724448Y-123558064D01*
X138753943Y-123574908D01*
X138754260Y-123575014D01*
X138754514Y-123575234D01*
X138781055Y-123590323D01*
X138781475Y-123590462D01*
X138781809Y-123590750D01*
X138805702Y-123604252D01*
X138806246Y-123604431D01*
X138806682Y-123604804D01*
X138828236Y-123616889D01*
X138828923Y-123617113D01*
X138829472Y-123617578D01*
X138848993Y-123628415D01*
X138849840Y-123628687D01*
X138850521Y-123629258D01*
X138868316Y-123639016D01*
X138869327Y-123639335D01*
X138870145Y-123640012D01*
X138886521Y-123648860D01*
X138887678Y-123649217D01*
X138888614Y-123649981D01*
X138903878Y-123658090D01*
X138905149Y-123658472D01*
X138906182Y-123659302D01*
X138920641Y-123666839D01*
X138921948Y-123667221D01*
X138923015Y-123668064D01*
X138936975Y-123675200D01*
X138938266Y-123675566D01*
X138939324Y-123676389D01*
X138953093Y-123683292D01*
X138954232Y-123683605D01*
X138955168Y-123684323D01*
X138969053Y-123691164D01*
X138970005Y-123691419D01*
X138970792Y-123692015D01*
X138985100Y-123698962D01*
X138985457Y-123699055D01*
X138985751Y-123699277D01*
X138987007Y-123699883D01*
X138989259Y-123700466D01*
X138991137Y-123701843D01*
X139037381Y-123723400D01*
X139042589Y-123724674D01*
X139047011Y-123727706D01*
X139090635Y-123746394D01*
X139097040Y-123747748D01*
X139102578Y-123751241D01*
X139144521Y-123767330D01*
X139151908Y-123768597D01*
X139158413Y-123772310D01*
X139199618Y-123786068D01*
X139207541Y-123787071D01*
X139214656Y-123790700D01*
X139256061Y-123802396D01*
X139263968Y-123803022D01*
X139271196Y-123806293D01*
X139313743Y-123816196D01*
X139321076Y-123816433D01*
X139327880Y-123819166D01*
X139372512Y-123827546D01*
X139378840Y-123827478D01*
X139384794Y-123829616D01*
X139432449Y-123836741D01*
X139437267Y-123836510D01*
X139441851Y-123838011D01*
X139486313Y-123843377D01*
X139491177Y-123843005D01*
X139495857Y-123844391D01*
X139523963Y-123846969D01*
X139528563Y-123846485D01*
X139533028Y-123847676D01*
X139564534Y-123849706D01*
X139568133Y-123849228D01*
X139571660Y-123850089D01*
X139605156Y-123851532D01*
X139608357Y-123851037D01*
X139611519Y-123851746D01*
X139645597Y-123852566D01*
X139648836Y-123852002D01*
X139652057Y-123852659D01*
X139685303Y-123852818D01*
X139689019Y-123852097D01*
X139692743Y-123852771D01*
X139723749Y-123852231D01*
X139727826Y-123851346D01*
X139731950Y-123851988D01*
X139752181Y-123851140D01*
X139759033Y-123849476D01*
X139766038Y-123850271D01*
X139820584Y-123845716D01*
X139829414Y-123843180D01*
X139838586Y-123843722D01*
X139893757Y-123836096D01*
X139901986Y-123833243D01*
X139910693Y-123833311D01*
X139965672Y-123822819D01*
X139973625Y-123819597D01*
X139982197Y-123819231D01*
X140036169Y-123806080D01*
X140044151Y-123802367D01*
X140052916Y-123801537D01*
X140105068Y-123785929D01*
X140113386Y-123781522D01*
X140122692Y-123780118D01*
X140172209Y-123762259D01*
X140181189Y-123756846D01*
X140191437Y-123754645D01*
X140237504Y-123734740D01*
X140243749Y-123730429D01*
X140251095Y-123728505D01*
X140263512Y-123722469D01*
X140269972Y-123717570D01*
X140277708Y-123715145D01*
X140333236Y-123684800D01*
X140342547Y-123677013D01*
X140353843Y-123672563D01*
X140408167Y-123637617D01*
X140416461Y-123629607D01*
X140426874Y-123624664D01*
X140479897Y-123585225D01*
X140487222Y-123577120D01*
X140496768Y-123571812D01*
X140548393Y-123527988D01*
X140554821Y-123519884D01*
X140563538Y-123514317D01*
X140613670Y-123466216D01*
X140619277Y-123458188D01*
X140627213Y-123452451D01*
X140675756Y-123400182D01*
X140680624Y-123392280D01*
X140687837Y-123386440D01*
X140734695Y-123330110D01*
X140738897Y-123322373D01*
X140745445Y-123316485D01*
X140790522Y-123256204D01*
X140794132Y-123248648D01*
X140800075Y-123242750D01*
X140843276Y-123178624D01*
X140846358Y-123171262D01*
X140851753Y-123165381D01*
X140892981Y-123097519D01*
X140895593Y-123090355D01*
X140900489Y-123084512D01*
X140939649Y-123013022D01*
X140941661Y-123006627D01*
X140945761Y-123001323D01*
X140976681Y-122939188D01*
X140978069Y-122934080D01*
X140981175Y-122929794D01*
X140993750Y-122902424D01*
X140994856Y-122897789D01*
X140997544Y-122893853D01*
X141009627Y-122865489D01*
X141010561Y-122861026D01*
X141013030Y-122857194D01*
X141024969Y-122826949D01*
X141025685Y-122823004D01*
X141027777Y-122819583D01*
X141039919Y-122786571D01*
X141040428Y-122783339D01*
X141042082Y-122780513D01*
X141054774Y-122743849D01*
X141054999Y-122742216D01*
X141055763Y-122740882D01*
X141070525Y-122734914D01*
X141070703Y-122734797D01*
X141070913Y-122734757D01*
X141094232Y-122725296D01*
X141094420Y-122725172D01*
X141094644Y-122725129D01*
X141116227Y-122716339D01*
X141116453Y-122716190D01*
X141116719Y-122716138D01*
X141136183Y-122708175D01*
X141136451Y-122707997D01*
X141136769Y-122707935D01*
X141153729Y-122700958D01*
X141154109Y-122700705D01*
X141154558Y-122700616D01*
X141168632Y-122694783D01*
X141169220Y-122694390D01*
X141169917Y-122694248D01*
X141180719Y-122689718D01*
X141181940Y-122688894D01*
X141183382Y-122688588D01*
X141190532Y-122685516D01*
X141194923Y-122682499D01*
X141200099Y-122681229D01*
X141203212Y-122679775D01*
X141231606Y-122658928D01*
X141263317Y-122643599D01*
X141263419Y-122643522D01*
X141272099Y-122633780D01*
X141283373Y-122627217D01*
X141292153Y-122615690D01*
X141298326Y-122611448D01*
X141300197Y-122608568D01*
X141308636Y-122602372D01*
X141326819Y-122572365D01*
X141350425Y-122545871D01*
X141354716Y-122533549D01*
X141362620Y-122523172D01*
X141367249Y-122505644D01*
X141376416Y-122490517D01*
X141381693Y-122456086D01*
X141393439Y-122422358D01*
X141392688Y-122409331D01*
X141396019Y-122396719D01*
X141393568Y-122378605D01*
X141396230Y-122361238D01*
X141387976Y-122327596D01*
X141385911Y-122291787D01*
X141380233Y-122280042D01*
X141378484Y-122267111D01*
X141369796Y-122252187D01*
X141367274Y-122240562D01*
X141366263Y-122239104D01*
X141365064Y-122234217D01*
X141344625Y-122206378D01*
X141328990Y-122174035D01*
X141319249Y-122165356D01*
X141312685Y-122154080D01*
X141311081Y-122152263D01*
X141300396Y-122144125D01*
X141292742Y-122133088D01*
X141287804Y-122128318D01*
X141285423Y-122126786D01*
X141283772Y-122124488D01*
X141275783Y-122117023D01*
X141274718Y-122116363D01*
X141273981Y-122115352D01*
X141263228Y-122105450D01*
X141262578Y-122105054D01*
X141262128Y-122104442D01*
X141248892Y-122092363D01*
X141248447Y-122092094D01*
X141248137Y-122091676D01*
X141232704Y-122077678D01*
X141232356Y-122077469D01*
X141232113Y-122077143D01*
X141214766Y-122061484D01*
X141214472Y-122061309D01*
X141214269Y-122061037D01*
X141195294Y-122043977D01*
X141195029Y-122043820D01*
X141194844Y-122043573D01*
X141174523Y-122025369D01*
X141174293Y-122025233D01*
X141174132Y-122025019D01*
X141156729Y-122009479D01*
X141156656Y-122009436D01*
X141156603Y-122009366D01*
X141131906Y-121987334D01*
X141110735Y-121968422D01*
X141093035Y-121952565D01*
X141090987Y-121950721D01*
X141090713Y-121949449D01*
X141082270Y-121929946D01*
X141079597Y-121926080D01*
X141078480Y-121921511D01*
X141069681Y-121902632D01*
X141067210Y-121899260D01*
X141066118Y-121895226D01*
X141061596Y-121886114D01*
X141056622Y-121879665D01*
X141054121Y-121871916D01*
X141031871Y-121832000D01*
X141023390Y-121822031D01*
X141018423Y-121809923D01*
X140992895Y-121771437D01*
X140983970Y-121762452D01*
X140978302Y-121751124D01*
X140949028Y-121713430D01*
X140940296Y-121705862D01*
X140934433Y-121695901D01*
X140900948Y-121658361D01*
X140895784Y-121654467D01*
X140892294Y-121649022D01*
X140883281Y-121639659D01*
X140878094Y-121636048D01*
X140874490Y-121630860D01*
X140836427Y-121594148D01*
X140827151Y-121588190D01*
X140820289Y-121579564D01*
X140781012Y-121546317D01*
X140770837Y-121540678D01*
X140762988Y-121532091D01*
X140721670Y-121501717D01*
X140711289Y-121496861D01*
X140703005Y-121488943D01*
X140658823Y-121460846D01*
X140648962Y-121457020D01*
X140640879Y-121450205D01*
X140593008Y-121423792D01*
X140587205Y-121421947D01*
X140582410Y-121418189D01*
X140568020Y-121410908D01*
X140563026Y-121409515D01*
X140558851Y-121406443D01*
X140512185Y-121384588D01*
X140504007Y-121382573D01*
X140496983Y-121377922D01*
X140450344Y-121358835D01*
X140441596Y-121357133D01*
X140433916Y-121352609D01*
X140386463Y-121336034D01*
X140377650Y-121334795D01*
X140369755Y-121330684D01*
X140320644Y-121316365D01*
X140312278Y-121315632D01*
X140304648Y-121312127D01*
X140253038Y-121299807D01*
X140245526Y-121299522D01*
X140238563Y-121296688D01*
X140183609Y-121286111D01*
X140178530Y-121286142D01*
X140173768Y-121284368D01*
X140141904Y-121279215D01*
X140139483Y-121279302D01*
X140137202Y-121278489D01*
X140123599Y-121276487D01*
X140120857Y-121276625D01*
X140118258Y-121275745D01*
X140106376Y-121274191D01*
X140101984Y-121274483D01*
X140097775Y-121273178D01*
X140086654Y-121272015D01*
X140081412Y-121272499D01*
X140076338Y-121271097D01*
X140065024Y-121270266D01*
X140060147Y-121270869D01*
X140055379Y-121269698D01*
X140042913Y-121269143D01*
X140039333Y-121269691D01*
X140035799Y-121268902D01*
X140021224Y-121268563D01*
X140019022Y-121268948D01*
X140016831Y-121268489D01*
X139999190Y-121268310D01*
X139998135Y-121268509D01*
X139997081Y-121268295D01*
X139978921Y-121268225D01*
X139977925Y-121268419D01*
X139976933Y-121268224D01*
X139951414Y-121268277D01*
X139949105Y-121268741D01*
X139946786Y-121268318D01*
X139925069Y-121268663D01*
X139921394Y-121269455D01*
X139917683Y-121268862D01*
X139898735Y-121269581D01*
X139893684Y-121270786D01*
X139888535Y-121270124D01*
X139871325Y-121271303D01*
X139865480Y-121272888D01*
X139859452Y-121272329D01*
X139842947Y-121274051D01*
X139837300Y-121275800D01*
X139831397Y-121275459D01*
X139814566Y-121277808D01*
X139810063Y-121279376D01*
X139805295Y-121279234D01*
X139787104Y-121282294D01*
X139784416Y-121283315D01*
X139781542Y-121283278D01*
X139766482Y-121286073D01*
X139761733Y-121287969D01*
X139756618Y-121288057D01*
X139716258Y-121296808D01*
X139709446Y-121299768D01*
X139702034Y-121300219D01*
X139660139Y-121311237D01*
X139653961Y-121314248D01*
X139647126Y-121314942D01*
X139605673Y-121327653D01*
X139599228Y-121331123D01*
X139591982Y-121332175D01*
X139552948Y-121346007D01*
X139548523Y-121348641D01*
X139543454Y-121349534D01*
X139535652Y-121352567D01*
X139534473Y-121353318D01*
X139533097Y-121353572D01*
X139503489Y-121365362D01*
X139502722Y-121365860D01*
X139501826Y-121366030D01*
X139472769Y-121377781D01*
X139471913Y-121378343D01*
X139470908Y-121378540D01*
X139442136Y-121390377D01*
X139441218Y-121390988D01*
X139440137Y-121391207D01*
X139411386Y-121403253D01*
X139410437Y-121403893D01*
X139409313Y-121404129D01*
X139380315Y-121416508D01*
X139379357Y-121417163D01*
X139378226Y-121417409D01*
X139348716Y-121430244D01*
X139347778Y-121430895D01*
X139346663Y-121431145D01*
X139316375Y-121444560D01*
X139315477Y-121445192D01*
X139314404Y-121445440D01*
X139283073Y-121459559D01*
X139282233Y-121460158D01*
X139281232Y-121460396D01*
X139248590Y-121475343D01*
X139247820Y-121475899D01*
X139246897Y-121476124D01*
X139212681Y-121492023D01*
X139211996Y-121492524D01*
X139211171Y-121492729D01*
X139175114Y-121509702D01*
X139174505Y-121510152D01*
X139173771Y-121510338D01*
X139135607Y-121528510D01*
X139135075Y-121528906D01*
X139134432Y-121529072D01*
X139093896Y-121548567D01*
X139093441Y-121548909D01*
X139092893Y-121549052D01*
X139049719Y-121569992D01*
X139049332Y-121570285D01*
X139048865Y-121570408D01*
X139002786Y-121592919D01*
X139002462Y-121593165D01*
X139002070Y-121593270D01*
X138952820Y-121617475D01*
X138952555Y-121617678D01*
X138952234Y-121617764D01*
X138899548Y-121643786D01*
X138899328Y-121643955D01*
X138899062Y-121644027D01*
X138842676Y-121671990D01*
X138842503Y-121672123D01*
X138842290Y-121672181D01*
X138781935Y-121702209D01*
X138781837Y-121702284D01*
X138781718Y-121702317D01*
X138766334Y-121709986D01*
X138766333Y-121709986D01*
X138714519Y-121735769D01*
X138667288Y-121759170D01*
X138623510Y-121780738D01*
X138583044Y-121800531D01*
X138546055Y-121818463D01*
X138511689Y-121834942D01*
X138480045Y-121849922D01*
X138450176Y-121863849D01*
X138422265Y-121876640D01*
X138395552Y-121888651D01*
X138369934Y-121899935D01*
X138344888Y-121910733D01*
X138319746Y-121921342D01*
X138294397Y-121931818D01*
X138268163Y-121942454D01*
X138240780Y-121953369D01*
X138235029Y-121955643D01*
X138234627Y-121955902D01*
X138234153Y-121955990D01*
X138216696Y-121962945D01*
X138215668Y-121963612D01*
X138214467Y-121963843D01*
X138198505Y-121970335D01*
X138197345Y-121971099D01*
X138195981Y-121971373D01*
X138182062Y-121977168D01*
X138180481Y-121978229D01*
X138178614Y-121978625D01*
X138167285Y-121983490D01*
X138164644Y-121985305D01*
X138161523Y-121986029D01*
X138153328Y-121989732D01*
X138147452Y-121993934D01*
X138142632Y-121995144D01*
X138141526Y-121995965D01*
X138138731Y-121996758D01*
X138134218Y-121999066D01*
X138117120Y-122012586D01*
X138101995Y-122011763D01*
X138095846Y-122012642D01*
X138087990Y-122015406D01*
X138079662Y-122015361D01*
X138070066Y-122017216D01*
X138015011Y-122026467D01*
X137965694Y-122031402D01*
X137915762Y-122033050D01*
X137860192Y-122031221D01*
X137857662Y-122031043D01*
X137804692Y-122026602D01*
X137747276Y-122020892D01*
X137684758Y-122013838D01*
X137617677Y-122005489D01*
X137546135Y-121995852D01*
X137470571Y-121984979D01*
X137391257Y-121972910D01*
X137308001Y-121959612D01*
X137221673Y-121945222D01*
X137131734Y-121929648D01*
X137038974Y-121913024D01*
X136943410Y-121895350D01*
X136845168Y-121876646D01*
X136744295Y-121856916D01*
X136641250Y-121836246D01*
X136536308Y-121814684D01*
X136429068Y-121792143D01*
X136320439Y-121768805D01*
X136216963Y-121746116D01*
X136186618Y-121739396D01*
X136185865Y-121739380D01*
X136185175Y-121739080D01*
X136158968Y-121733397D01*
X136156578Y-121733356D01*
X136154370Y-121732433D01*
X136132033Y-121727916D01*
X136127121Y-121727900D01*
X136122534Y-121726137D01*
X136103632Y-121722879D01*
X136094916Y-121723103D01*
X136086628Y-121720395D01*
X136070727Y-121718487D01*
X136056429Y-121719589D01*
X136042475Y-121716304D01*
X136029142Y-121715839D01*
X136007446Y-121719373D01*
X135985578Y-121717155D01*
X135974379Y-121718225D01*
X135964552Y-121721175D01*
X135963423Y-121721065D01*
X135943519Y-121727134D01*
X135914685Y-121729456D01*
X135905185Y-121732155D01*
X135891894Y-121738958D01*
X135887316Y-121739465D01*
X135867755Y-121750229D01*
X135849112Y-121755825D01*
X135848925Y-121755978D01*
X135838321Y-121759211D01*
X135830086Y-121763628D01*
X135807713Y-121782043D01*
X135788760Y-121791744D01*
X135785631Y-121795421D01*
X135772731Y-121802520D01*
X135765327Y-121808749D01*
X135748451Y-121829832D01*
X135727172Y-121846459D01*
X135720165Y-121854592D01*
X135711531Y-121869855D01*
X135698905Y-121882021D01*
X135691862Y-121892150D01*
X135688042Y-121900909D01*
X135681546Y-121907914D01*
X135674031Y-121920132D01*
X135672709Y-121923697D01*
X135670190Y-121926538D01*
X135661771Y-121940937D01*
X135661644Y-121941303D01*
X135661387Y-121941595D01*
X135658452Y-121946641D01*
X135657824Y-121948470D01*
X135656560Y-121949936D01*
X135631006Y-121995039D01*
X135629725Y-121998915D01*
X135627134Y-122002068D01*
X135603179Y-122046812D01*
X135601953Y-122050845D01*
X135599359Y-122054165D01*
X135577279Y-122097977D01*
X135576074Y-122102322D01*
X135573393Y-122105948D01*
X135553456Y-122148257D01*
X135552234Y-122153166D01*
X135549350Y-122157318D01*
X135531829Y-122197555D01*
X135530568Y-122203347D01*
X135527358Y-122208331D01*
X135512521Y-122245926D01*
X135511371Y-122252265D01*
X135508089Y-122257810D01*
X135498582Y-122284855D01*
X135497353Y-122293472D01*
X135493310Y-122301177D01*
X135482708Y-122337117D01*
X135481616Y-122349152D01*
X135476777Y-122360224D01*
X135469429Y-122393763D01*
X135469155Y-122407946D01*
X135464579Y-122421377D01*
X135460465Y-122452360D01*
X135461556Y-122469296D01*
X135457718Y-122485827D01*
X135456819Y-122514095D01*
X134426210Y-122514095D01*
X134302473Y-122214629D01*
X133788079Y-121699336D01*
X133115646Y-121420118D01*
X132387548Y-121419483D01*
X131714629Y-121697527D01*
X131199336Y-122211921D01*
X130920118Y-122884354D01*
X130919483Y-123612452D01*
X130485235Y-123612452D01*
X130405200Y-123210092D01*
X130405200Y-119789907D01*
X130419750Y-119716760D01*
X130438579Y-119688580D01*
X130466761Y-119669749D01*
X130539907Y-119655200D01*
X145093087Y-119655200D01*
X144890470Y-119752637D01*
X144500148Y-120160284D01*
X144380269Y-120468455D01*
X144380269Y-120074000D01*
X144357244Y-119951635D01*
X144284927Y-119839251D01*
X144174583Y-119763856D01*
X144043600Y-119737331D01*
X142316400Y-119737331D01*
X142194035Y-119760356D01*
X142081651Y-119832673D01*
X142006256Y-119943017D01*
X141979731Y-120074000D01*
X141979731Y-122106000D01*
X142002756Y-122228365D01*
X142075073Y-122340749D01*
X142185417Y-122416144D01*
X142316400Y-122442669D01*
X144043600Y-122442669D01*
X144165965Y-122419644D01*
X144278349Y-122347327D01*
X144353744Y-122236983D01*
X144380269Y-122106000D01*
X144380269Y-121711545D01*
X144500148Y-122019716D01*
X144890470Y-122427363D01*
X145319618Y-122633737D01*
X145542200Y-122531950D01*
X145542200Y-121267800D01*
X145522200Y-121267800D01*
X145522200Y-120912200D01*
X145542200Y-120912200D01*
X145542200Y-120892200D01*
X145897800Y-120892200D01*
X145897800Y-120912200D01*
X145917800Y-120912200D01*
X145917800Y-121267800D01*
X145897800Y-121267800D01*
X145897800Y-122531950D01*
X146120382Y-122633737D01*
X146549530Y-122427363D01*
X146939852Y-122019716D01*
X147122286Y-121550736D01*
X147157073Y-121725621D01*
X147415856Y-122112918D01*
X147803153Y-122371701D01*
X148260000Y-122462574D01*
X148716847Y-122371701D01*
X149104144Y-122112918D01*
X149362927Y-121725621D01*
X149453800Y-121268774D01*
X149453800Y-120911226D01*
X149606200Y-120911226D01*
X149606200Y-121268774D01*
X149697073Y-121725621D01*
X149955856Y-122112918D01*
X150343153Y-122371701D01*
X150800000Y-122462574D01*
X151256847Y-122371701D01*
X151644144Y-122112918D01*
X151902927Y-121725621D01*
X151993800Y-121268774D01*
X151993800Y-120911226D01*
X151902927Y-120454379D01*
X151644144Y-120067082D01*
X151256847Y-119808299D01*
X150800000Y-119717426D01*
X150343153Y-119808299D01*
X149955856Y-120067082D01*
X149697073Y-120454379D01*
X149606200Y-120911226D01*
X149453800Y-120911226D01*
X149362927Y-120454379D01*
X149104144Y-120067082D01*
X148716847Y-119808299D01*
X148260000Y-119717426D01*
X147803153Y-119808299D01*
X147415856Y-120067082D01*
X147157073Y-120454379D01*
X147122286Y-120629264D01*
X146939852Y-120160284D01*
X146549530Y-119752637D01*
X146346913Y-119655200D01*
X152170000Y-119655200D01*
X152325063Y-119624356D01*
X152456520Y-119536520D01*
X152544356Y-119405063D01*
X152575200Y-119250000D01*
X152575200Y-119035477D01*
X152665525Y-119072983D01*
X152898451Y-119073187D01*
X153614808Y-119789544D01*
X153519217Y-119829041D01*
X153329706Y-120018222D01*
X153227017Y-120265525D01*
X153226783Y-120533301D01*
X153329041Y-120780783D01*
X153380895Y-120832728D01*
X153282127Y-120873538D01*
X152974618Y-121180511D01*
X152807990Y-121581795D01*
X152807611Y-122016299D01*
X152973538Y-122417873D01*
X153280511Y-122725382D01*
X153369812Y-122762463D01*
X153327017Y-122865525D01*
X153326783Y-123133301D01*
X153429041Y-123380783D01*
X153618222Y-123570294D01*
X153865525Y-123672983D01*
X154133301Y-123673217D01*
X154280362Y-123612452D01*
X161419483Y-123612452D01*
X161697527Y-124285371D01*
X162211921Y-124800664D01*
X162884354Y-125079882D01*
X163612452Y-125080517D01*
X164285371Y-124802473D01*
X164800664Y-124288079D01*
X165079882Y-123615646D01*
X165080517Y-122887548D01*
X164802473Y-122214629D01*
X164288079Y-121699336D01*
X163615646Y-121420118D01*
X162887548Y-121419483D01*
X162214629Y-121697527D01*
X161699336Y-122211921D01*
X161420118Y-122884354D01*
X161419483Y-123612452D01*
X154280362Y-123612452D01*
X154380783Y-123570959D01*
X154570294Y-123381778D01*
X154672983Y-123134475D01*
X154673217Y-122866699D01*
X154586829Y-122657626D01*
X154825382Y-122419489D01*
X154992010Y-122018205D01*
X154992389Y-121583701D01*
X154826462Y-121182127D01*
X154719700Y-121075178D01*
X154935451Y-121075367D01*
X155182933Y-120973109D01*
X155372444Y-120783928D01*
X155475133Y-120536625D01*
X155475367Y-120268849D01*
X155373109Y-120021367D01*
X155183928Y-119831856D01*
X154936625Y-119729167D01*
X154703699Y-119728963D01*
X153473015Y-118498279D01*
X153473217Y-118266699D01*
X153370959Y-118019217D01*
X153181778Y-117829706D01*
X152934475Y-117727017D01*
X152666699Y-117726783D01*
X152575200Y-117764590D01*
X152575200Y-112500000D01*
X152544356Y-112344937D01*
X152456520Y-112213480D01*
X152325063Y-112125644D01*
X152170000Y-112094800D01*
X152039901Y-112094800D01*
X152050269Y-112043600D01*
X152050269Y-110316400D01*
X152027244Y-110194035D01*
X151954927Y-110081651D01*
X151844583Y-110006256D01*
X151713600Y-109979731D01*
X149986400Y-109979731D01*
X149864035Y-110002756D01*
X149751651Y-110075073D01*
X149676256Y-110185417D01*
X149649731Y-110316400D01*
X149649731Y-112043600D01*
X149659365Y-112094800D01*
X149071788Y-112094800D01*
X149177532Y-112024144D01*
X149436315Y-111636847D01*
X149527188Y-111180000D01*
X149436315Y-110723153D01*
X149177532Y-110335856D01*
X148790235Y-110077073D01*
X148333388Y-109986200D01*
X148286612Y-109986200D01*
X147829765Y-110077073D01*
X147442468Y-110335856D01*
X147405200Y-110391632D01*
X147405200Y-109428368D01*
X147442468Y-109484144D01*
X147829765Y-109742927D01*
X148286612Y-109833800D01*
X148333388Y-109833800D01*
X148790235Y-109742927D01*
X149177532Y-109484144D01*
X149436315Y-109096847D01*
X149527188Y-108640000D01*
X149436315Y-108183153D01*
X149177532Y-107795856D01*
X148790235Y-107537073D01*
X148487802Y-107476915D01*
X148487802Y-107390806D01*
X148710385Y-107491351D01*
X149212354Y-107232220D01*
X149576948Y-106800719D01*
X149580000Y-106793350D01*
X149583052Y-106800719D01*
X149947646Y-107232220D01*
X150449615Y-107491351D01*
X150672198Y-107390806D01*
X150672198Y-107476915D01*
X150369765Y-107537073D01*
X149982468Y-107795856D01*
X149723685Y-108183153D01*
X149632812Y-108640000D01*
X149723685Y-109096847D01*
X149982468Y-109484144D01*
X150369765Y-109742927D01*
X150826612Y-109833800D01*
X150873388Y-109833800D01*
X151330235Y-109742927D01*
X151717532Y-109484144D01*
X151976315Y-109096847D01*
X152067188Y-108640000D01*
X151976315Y-108183153D01*
X151717532Y-107795856D01*
X151330235Y-107537073D01*
X151027802Y-107476915D01*
X151027802Y-107390806D01*
X151250385Y-107491351D01*
X151752354Y-107232220D01*
X152116948Y-106800719D01*
X152241337Y-106500382D01*
X152139550Y-106277800D01*
X151027800Y-106277800D01*
X151027800Y-106297800D01*
X150672200Y-106297800D01*
X150672200Y-106277800D01*
X148487800Y-106277800D01*
X148487800Y-106297800D01*
X148132200Y-106297800D01*
X148132200Y-106277800D01*
X148112200Y-106277800D01*
X148112200Y-105922200D01*
X148132200Y-105922200D01*
X148132200Y-103737800D01*
X148487800Y-103737800D01*
X148487800Y-105922200D01*
X150672200Y-105922200D01*
X150672200Y-103737800D01*
X151027800Y-103737800D01*
X151027800Y-105922200D01*
X152139550Y-105922200D01*
X152241337Y-105699618D01*
X152116948Y-105399281D01*
X151752354Y-104967780D01*
X151485457Y-104830000D01*
X151752354Y-104692220D01*
X152116948Y-104260719D01*
X152241337Y-103960382D01*
X152139550Y-103737800D01*
X151027800Y-103737800D01*
X150672200Y-103737800D01*
X148487800Y-103737800D01*
X148132200Y-103737800D01*
X148112200Y-103737800D01*
X148112200Y-103382200D01*
X148132200Y-103382200D01*
X148132200Y-103362200D01*
X148487800Y-103362200D01*
X148487800Y-103382200D01*
X150672200Y-103382200D01*
X150672200Y-103362200D01*
X151027800Y-103362200D01*
X151027800Y-103382200D01*
X152139550Y-103382200D01*
X152241337Y-103159618D01*
X152116948Y-102859281D01*
X151752354Y-102427780D01*
X151250385Y-102168649D01*
X151027802Y-102269194D01*
X151027802Y-102183085D01*
X151330235Y-102122927D01*
X151717532Y-101864144D01*
X151976315Y-101476847D01*
X152067188Y-101020000D01*
X151976315Y-100563153D01*
X151717532Y-100175856D01*
X151330235Y-99917073D01*
X150873388Y-99826200D01*
X150826612Y-99826200D01*
X150369765Y-99917073D01*
X149982468Y-100175856D01*
X149723685Y-100563153D01*
X149632812Y-101020000D01*
X149723685Y-101476847D01*
X149982468Y-101864144D01*
X150369765Y-102122927D01*
X150672198Y-102183085D01*
X150672198Y-102269194D01*
X150449615Y-102168649D01*
X149947646Y-102427780D01*
X149583052Y-102859281D01*
X149580000Y-102866650D01*
X149576948Y-102859281D01*
X149212354Y-102427780D01*
X148710385Y-102168649D01*
X148487802Y-102269194D01*
X148487802Y-102183085D01*
X148790235Y-102122927D01*
X149177532Y-101864144D01*
X149436315Y-101476847D01*
X149527188Y-101020000D01*
X149436315Y-100563153D01*
X149177532Y-100175856D01*
X148790235Y-99917073D01*
X148333388Y-99826200D01*
X148286612Y-99826200D01*
X147829765Y-99917073D01*
X147442468Y-100175856D01*
X147405200Y-100231632D01*
X147405200Y-99268368D01*
X147442468Y-99324144D01*
X147829765Y-99582927D01*
X148286612Y-99673800D01*
X148333388Y-99673800D01*
X148790235Y-99582927D01*
X149177532Y-99324144D01*
X149436315Y-98936847D01*
X149527188Y-98480000D01*
X149632812Y-98480000D01*
X149723685Y-98936847D01*
X149982468Y-99324144D01*
X150369765Y-99582927D01*
X150826612Y-99673800D01*
X150873388Y-99673800D01*
X151330235Y-99582927D01*
X151717532Y-99324144D01*
X151765139Y-99252894D01*
X151834739Y-99420923D01*
X151999078Y-99585261D01*
X152213796Y-99674200D01*
X152456150Y-99674200D01*
X152602200Y-99528150D01*
X152602200Y-98667800D01*
X152582200Y-98667800D01*
X152582200Y-98312200D01*
X152602200Y-98312200D01*
X152602200Y-97451850D01*
X152456150Y-97305800D01*
X152213796Y-97305800D01*
X151999078Y-97394739D01*
X151834739Y-97559077D01*
X151770253Y-97714759D01*
X151717532Y-97635856D01*
X151330235Y-97377073D01*
X150873388Y-97286200D01*
X150826612Y-97286200D01*
X150369765Y-97377073D01*
X149982468Y-97635856D01*
X149723685Y-98023153D01*
X149632812Y-98480000D01*
X149527188Y-98480000D01*
X149436315Y-98023153D01*
X149177532Y-97635856D01*
X148790235Y-97377073D01*
X148333388Y-97286200D01*
X148286612Y-97286200D01*
X147829765Y-97377073D01*
X147442468Y-97635856D01*
X147405200Y-97691632D01*
X147405200Y-96750000D01*
X147374356Y-96594937D01*
X147286520Y-96463480D01*
X147155063Y-96375644D01*
X147000000Y-96344800D01*
X130539907Y-96344800D01*
X130466761Y-96330251D01*
X130438579Y-96311420D01*
X130419750Y-96283240D01*
X130405200Y-96210093D01*
X130405200Y-94600000D01*
X139427426Y-94600000D01*
X139529899Y-95115168D01*
X139821719Y-95551907D01*
X140258458Y-95843727D01*
X140773626Y-95946200D01*
X140826374Y-95946200D01*
X141341542Y-95843727D01*
X141778281Y-95551907D01*
X142070101Y-95115168D01*
X142172574Y-94600000D01*
X142070101Y-94084832D01*
X141778281Y-93648093D01*
X141425944Y-93412669D01*
X141816000Y-93412669D01*
X141938365Y-93389644D01*
X142050749Y-93317327D01*
X142126144Y-93206983D01*
X142152669Y-93076000D01*
X142152669Y-91044000D01*
X142129644Y-90921635D01*
X142057327Y-90809251D01*
X141946983Y-90733856D01*
X141816000Y-90707331D01*
X139784000Y-90707331D01*
X139661635Y-90730356D01*
X139549251Y-90802673D01*
X139473856Y-90913017D01*
X139447331Y-91044000D01*
X139447331Y-93076000D01*
X139470356Y-93198365D01*
X139542673Y-93310749D01*
X139653017Y-93386144D01*
X139784000Y-93412669D01*
X140174056Y-93412669D01*
X139821719Y-93648093D01*
X139529899Y-94084832D01*
X139427426Y-94600000D01*
X130405200Y-94600000D01*
X130405200Y-93112452D01*
X130919483Y-93112452D01*
X131197527Y-93785371D01*
X131711921Y-94300664D01*
X132384354Y-94579882D01*
X133112452Y-94580517D01*
X133785371Y-94302473D01*
X134300664Y-93788079D01*
X134579882Y-93115646D01*
X134580517Y-92387548D01*
X134302473Y-91714629D01*
X133788079Y-91199336D01*
X133115646Y-90920118D01*
X132387548Y-90919483D01*
X131714629Y-91197527D01*
X131199336Y-91711921D01*
X130920118Y-92384354D01*
X130919483Y-93112452D01*
X130405200Y-93112452D01*
X130405200Y-92789908D01*
X130591021Y-91855723D01*
X131097588Y-91097590D01*
X131855723Y-90591021D01*
X132789907Y-90405200D01*
X157850322Y-90405200D01*
X157624618Y-90630511D01*
G36*
X165594800Y-114923331D02*
X165423107Y-114751339D01*
X165217681Y-114666039D01*
X165270391Y-114613420D01*
X165373080Y-114366117D01*
X165373314Y-114098341D01*
X165271056Y-113850859D01*
X165081875Y-113661348D01*
X164876449Y-113576048D01*
X164929160Y-113523429D01*
X165031849Y-113276126D01*
X165032083Y-113008350D01*
X164929825Y-112760868D01*
X164740644Y-112571357D01*
X164535218Y-112486057D01*
X164587928Y-112433439D01*
X164690617Y-112186136D01*
X164690851Y-111918360D01*
X164588593Y-111670878D01*
X164399412Y-111481367D01*
X164193986Y-111396067D01*
X164246696Y-111343448D01*
X164349385Y-111096145D01*
X164349619Y-110828369D01*
X164247361Y-110580887D01*
X164058180Y-110391376D01*
X163810877Y-110288687D01*
X163543101Y-110288453D01*
X163523633Y-110296497D01*
X163491405Y-110218499D01*
X163302224Y-110028988D01*
X163054921Y-109926299D01*
X162787145Y-109926065D01*
X162539663Y-110028323D01*
X162505019Y-110062907D01*
X161806717Y-109469466D01*
X161830261Y-109445922D01*
X161919200Y-109231204D01*
X161919200Y-109203550D01*
X161915650Y-109200000D01*
X161919200Y-109196450D01*
X161919200Y-109168796D01*
X161849282Y-109000000D01*
X161919200Y-108831204D01*
X161919200Y-108803550D01*
X161915650Y-108800000D01*
X161919200Y-108796450D01*
X161919200Y-108768796D01*
X161849282Y-108600000D01*
X161919200Y-108431204D01*
X161919200Y-108403550D01*
X161915650Y-108400000D01*
X161919200Y-108396450D01*
X161919200Y-108368796D01*
X161849282Y-108200000D01*
X161919200Y-108031204D01*
X161919200Y-108003550D01*
X161915650Y-108000000D01*
X161919200Y-107996450D01*
X161919200Y-107968796D01*
X161849282Y-107800000D01*
X161919200Y-107631204D01*
X161919200Y-107603550D01*
X161915650Y-107600000D01*
X161919200Y-107596450D01*
X161919200Y-107568796D01*
X161849282Y-107400000D01*
X161919200Y-107231204D01*
X161919200Y-107203550D01*
X161915650Y-107200000D01*
X161919200Y-107196450D01*
X161919200Y-107168796D01*
X161849282Y-107000000D01*
X161919200Y-106831204D01*
X161919200Y-106803550D01*
X161915650Y-106800000D01*
X161919200Y-106796450D01*
X161919200Y-106768796D01*
X161830261Y-106554078D01*
X161806934Y-106530751D01*
X162504906Y-105937591D01*
X162538668Y-105971412D01*
X162785971Y-106074101D01*
X163053747Y-106074335D01*
X163301229Y-105972077D01*
X163490740Y-105782896D01*
X163523478Y-105704053D01*
X163541927Y-105711714D01*
X163809703Y-105711948D01*
X164057185Y-105609690D01*
X164246696Y-105420509D01*
X164349385Y-105173206D01*
X164349619Y-104905430D01*
X164247361Y-104657948D01*
X164193766Y-104604260D01*
X164398417Y-104519699D01*
X164587928Y-104330518D01*
X164690617Y-104083215D01*
X164690851Y-103815439D01*
X164588593Y-103567957D01*
X164534998Y-103514269D01*
X164739649Y-103429708D01*
X164929160Y-103240527D01*
X165031849Y-102993224D01*
X165032083Y-102725448D01*
X164929825Y-102477966D01*
X164876230Y-102424278D01*
X165080880Y-102339718D01*
X165270391Y-102150537D01*
X165373080Y-101903234D01*
X165373314Y-101635458D01*
X165271056Y-101387976D01*
X165217461Y-101334288D01*
X165422112Y-101249727D01*
X165594800Y-101077340D01*
X165594800Y-114923331D01*
X165594800Y-114923331D01*
G37*
X165594800Y-114923331D02*
X165423107Y-114751339D01*
X165217681Y-114666039D01*
X165270391Y-114613420D01*
X165373080Y-114366117D01*
X165373314Y-114098341D01*
X165271056Y-113850859D01*
X165081875Y-113661348D01*
X164876449Y-113576048D01*
X164929160Y-113523429D01*
X165031849Y-113276126D01*
X165032083Y-113008350D01*
X164929825Y-112760868D01*
X164740644Y-112571357D01*
X164535218Y-112486057D01*
X164587928Y-112433439D01*
X164690617Y-112186136D01*
X164690851Y-111918360D01*
X164588593Y-111670878D01*
X164399412Y-111481367D01*
X164193986Y-111396067D01*
X164246696Y-111343448D01*
X164349385Y-111096145D01*
X164349619Y-110828369D01*
X164247361Y-110580887D01*
X164058180Y-110391376D01*
X163810877Y-110288687D01*
X163543101Y-110288453D01*
X163523633Y-110296497D01*
X163491405Y-110218499D01*
X163302224Y-110028988D01*
X163054921Y-109926299D01*
X162787145Y-109926065D01*
X162539663Y-110028323D01*
X162505019Y-110062907D01*
X161806717Y-109469466D01*
X161830261Y-109445922D01*
X161919200Y-109231204D01*
X161919200Y-109203550D01*
X161915650Y-109200000D01*
X161919200Y-109196450D01*
X161919200Y-109168796D01*
X161849282Y-109000000D01*
X161919200Y-108831204D01*
X161919200Y-108803550D01*
X161915650Y-108800000D01*
X161919200Y-108796450D01*
X161919200Y-108768796D01*
X161849282Y-108600000D01*
X161919200Y-108431204D01*
X161919200Y-108403550D01*
X161915650Y-108400000D01*
X161919200Y-108396450D01*
X161919200Y-108368796D01*
X161849282Y-108200000D01*
X161919200Y-108031204D01*
X161919200Y-108003550D01*
X161915650Y-108000000D01*
X161919200Y-107996450D01*
X161919200Y-107968796D01*
X161849282Y-107800000D01*
X161919200Y-107631204D01*
X161919200Y-107603550D01*
X161915650Y-107600000D01*
X161919200Y-107596450D01*
X161919200Y-107568796D01*
X161849282Y-107400000D01*
X161919200Y-107231204D01*
X161919200Y-107203550D01*
X161915650Y-107200000D01*
X161919200Y-107196450D01*
X161919200Y-107168796D01*
X161849282Y-107000000D01*
X161919200Y-106831204D01*
X161919200Y-106803550D01*
X161915650Y-106800000D01*
X161919200Y-106796450D01*
X161919200Y-106768796D01*
X161830261Y-106554078D01*
X161806934Y-106530751D01*
X162504906Y-105937591D01*
X162538668Y-105971412D01*
X162785971Y-106074101D01*
X163053747Y-106074335D01*
X163301229Y-105972077D01*
X163490740Y-105782896D01*
X163523478Y-105704053D01*
X163541927Y-105711714D01*
X163809703Y-105711948D01*
X164057185Y-105609690D01*
X164246696Y-105420509D01*
X164349385Y-105173206D01*
X164349619Y-104905430D01*
X164247361Y-104657948D01*
X164193766Y-104604260D01*
X164398417Y-104519699D01*
X164587928Y-104330518D01*
X164690617Y-104083215D01*
X164690851Y-103815439D01*
X164588593Y-103567957D01*
X164534998Y-103514269D01*
X164739649Y-103429708D01*
X164929160Y-103240527D01*
X165031849Y-102993224D01*
X165032083Y-102725448D01*
X164929825Y-102477966D01*
X164876230Y-102424278D01*
X165080880Y-102339718D01*
X165270391Y-102150537D01*
X165373080Y-101903234D01*
X165373314Y-101635458D01*
X165271056Y-101387976D01*
X165217461Y-101334288D01*
X165422112Y-101249727D01*
X165594800Y-101077340D01*
X165594800Y-114923331D01*
G36*
X164144277Y-90591021D02*
X164902410Y-91097588D01*
X165408979Y-91855723D01*
X165594800Y-92789907D01*
X165594800Y-100280466D01*
X165423107Y-100108474D01*
X165299613Y-100057195D01*
X165299822Y-99817864D01*
X165197564Y-99570382D01*
X165008383Y-99380871D01*
X164761080Y-99278182D01*
X164493304Y-99277948D01*
X164245822Y-99380206D01*
X164170161Y-99455736D01*
X164125216Y-99493931D01*
X164122696Y-99476786D01*
X164212861Y-99386778D01*
X164315550Y-99139475D01*
X164315784Y-98871699D01*
X164213526Y-98624217D01*
X164024345Y-98434706D01*
X163777042Y-98332017D01*
X163509266Y-98331783D01*
X163357108Y-98394654D01*
X163520294Y-98231752D01*
X163622983Y-97984449D01*
X163623217Y-97716673D01*
X163520959Y-97469191D01*
X163331778Y-97279680D01*
X163217190Y-97232099D01*
X163137368Y-97112638D01*
X163005523Y-97024541D01*
X162850000Y-96993606D01*
X162694477Y-97024541D01*
X162562632Y-97112638D01*
X161986479Y-97688791D01*
X161425292Y-97688791D01*
X161663680Y-97450403D01*
X161674237Y-97434604D01*
X161751777Y-97318558D01*
X161782712Y-97163035D01*
X161782712Y-94472515D01*
X162079193Y-94768996D01*
X161929706Y-94918222D01*
X161827017Y-95165525D01*
X161826783Y-95433301D01*
X161929041Y-95680783D01*
X162118222Y-95870294D01*
X162365525Y-95972983D01*
X162633301Y-95973217D01*
X162880783Y-95870959D01*
X163070294Y-95681778D01*
X163172983Y-95434475D01*
X163173217Y-95166699D01*
X163070959Y-94919217D01*
X162906400Y-94754371D01*
X162906400Y-94615067D01*
X162899404Y-94579895D01*
X163612452Y-94580517D01*
X164285371Y-94302473D01*
X164800664Y-93788079D01*
X165079882Y-93115646D01*
X165080517Y-92387548D01*
X164802473Y-91714629D01*
X164288079Y-91199336D01*
X163615646Y-90920118D01*
X162887548Y-90919483D01*
X162214629Y-91197527D01*
X161699336Y-91711921D01*
X161420118Y-92384354D01*
X161419616Y-92959947D01*
X160732401Y-92272732D01*
X160676798Y-92235579D01*
X160600556Y-92184635D01*
X160445033Y-92153700D01*
X159239900Y-92153700D01*
X159178426Y-92165928D01*
X159475382Y-91869489D01*
X159642010Y-91468205D01*
X159642389Y-91033701D01*
X159476462Y-90632127D01*
X159249931Y-90405200D01*
X163210092Y-90405200D01*
X164144277Y-90591021D01*
X164144277Y-90591021D01*
G37*
X164144277Y-90591021D02*
X164902410Y-91097588D01*
X165408979Y-91855723D01*
X165594800Y-92789907D01*
X165594800Y-100280466D01*
X165423107Y-100108474D01*
X165299613Y-100057195D01*
X165299822Y-99817864D01*
X165197564Y-99570382D01*
X165008383Y-99380871D01*
X164761080Y-99278182D01*
X164493304Y-99277948D01*
X164245822Y-99380206D01*
X164170161Y-99455736D01*
X164125216Y-99493931D01*
X164122696Y-99476786D01*
X164212861Y-99386778D01*
X164315550Y-99139475D01*
X164315784Y-98871699D01*
X164213526Y-98624217D01*
X164024345Y-98434706D01*
X163777042Y-98332017D01*
X163509266Y-98331783D01*
X163357108Y-98394654D01*
X163520294Y-98231752D01*
X163622983Y-97984449D01*
X163623217Y-97716673D01*
X163520959Y-97469191D01*
X163331778Y-97279680D01*
X163217190Y-97232099D01*
X163137368Y-97112638D01*
X163005523Y-97024541D01*
X162850000Y-96993606D01*
X162694477Y-97024541D01*
X162562632Y-97112638D01*
X161986479Y-97688791D01*
X161425292Y-97688791D01*
X161663680Y-97450403D01*
X161674237Y-97434604D01*
X161751777Y-97318558D01*
X161782712Y-97163035D01*
X161782712Y-94472515D01*
X162079193Y-94768996D01*
X161929706Y-94918222D01*
X161827017Y-95165525D01*
X161826783Y-95433301D01*
X161929041Y-95680783D01*
X162118222Y-95870294D01*
X162365525Y-95972983D01*
X162633301Y-95973217D01*
X162880783Y-95870959D01*
X163070294Y-95681778D01*
X163172983Y-95434475D01*
X163173217Y-95166699D01*
X163070959Y-94919217D01*
X162906400Y-94754371D01*
X162906400Y-94615067D01*
X162899404Y-94579895D01*
X163612452Y-94580517D01*
X164285371Y-94302473D01*
X164800664Y-93788079D01*
X165079882Y-93115646D01*
X165080517Y-92387548D01*
X164802473Y-91714629D01*
X164288079Y-91199336D01*
X163615646Y-90920118D01*
X162887548Y-90919483D01*
X162214629Y-91197527D01*
X161699336Y-91711921D01*
X161420118Y-92384354D01*
X161419616Y-92959947D01*
X160732401Y-92272732D01*
X160676798Y-92235579D01*
X160600556Y-92184635D01*
X160445033Y-92153700D01*
X159239900Y-92153700D01*
X159178426Y-92165928D01*
X159475382Y-91869489D01*
X159642010Y-91468205D01*
X159642389Y-91033701D01*
X159476462Y-90632127D01*
X159249931Y-90405200D01*
X163210092Y-90405200D01*
X164144277Y-90591021D01*
G36*
X159940032Y-95137368D02*
X160071877Y-95225465D01*
X160227400Y-95256400D01*
X160577486Y-95256400D01*
X160665101Y-95344015D01*
X160665101Y-96335548D01*
X160437562Y-96241066D01*
X160169786Y-96240832D01*
X159922304Y-96343090D01*
X159732793Y-96532271D01*
X159665803Y-96693600D01*
X159157584Y-96693600D01*
X159245261Y-96605922D01*
X159334200Y-96391204D01*
X159334200Y-96223850D01*
X159188150Y-96077800D01*
X158327800Y-96077800D01*
X158327800Y-96097800D01*
X157972200Y-96097800D01*
X157972200Y-96077800D01*
X157952200Y-96077800D01*
X157952200Y-95722200D01*
X157972200Y-95722200D01*
X157972200Y-95702200D01*
X158327800Y-95702200D01*
X158327800Y-95722200D01*
X159188150Y-95722200D01*
X159334200Y-95576150D01*
X159334200Y-95408796D01*
X159245261Y-95194078D01*
X159147884Y-95096700D01*
X159203705Y-95096700D01*
X159418423Y-95007761D01*
X159582761Y-94843422D01*
X159601308Y-94798644D01*
X159940032Y-95137368D01*
X159940032Y-95137368D01*
G37*
X159940032Y-95137368D02*
X160071877Y-95225465D01*
X160227400Y-95256400D01*
X160577486Y-95256400D01*
X160665101Y-95344015D01*
X160665101Y-96335548D01*
X160437562Y-96241066D01*
X160169786Y-96240832D01*
X159922304Y-96343090D01*
X159732793Y-96532271D01*
X159665803Y-96693600D01*
X159157584Y-96693600D01*
X159245261Y-96605922D01*
X159334200Y-96391204D01*
X159334200Y-96223850D01*
X159188150Y-96077800D01*
X158327800Y-96077800D01*
X158327800Y-96097800D01*
X157972200Y-96097800D01*
X157972200Y-96077800D01*
X157952200Y-96077800D01*
X157952200Y-95722200D01*
X157972200Y-95722200D01*
X157972200Y-95702200D01*
X158327800Y-95702200D01*
X158327800Y-95722200D01*
X159188150Y-95722200D01*
X159334200Y-95576150D01*
X159334200Y-95408796D01*
X159245261Y-95194078D01*
X159147884Y-95096700D01*
X159203705Y-95096700D01*
X159418423Y-95007761D01*
X159582761Y-94843422D01*
X159601308Y-94798644D01*
X159940032Y-95137368D01*
G36*
X158910300Y-94437500D02*
X158890300Y-94437500D01*
X158890300Y-94512500D01*
X158534700Y-94512500D01*
X158534700Y-94437500D01*
X158514700Y-94437500D01*
X158514700Y-94349169D01*
X158910300Y-94349169D01*
X158910300Y-94437500D01*
X158910300Y-94437500D01*
G37*
X158910300Y-94437500D02*
X158890300Y-94437500D01*
X158890300Y-94512500D01*
X158534700Y-94512500D01*
X158534700Y-94437500D01*
X158514700Y-94437500D01*
X158514700Y-94349169D01*
X158910300Y-94349169D01*
X158910300Y-94437500D01*
M02*
