G04 #@! TF.FileFunction,Soldermask,Bot*
%FSLAX46Y46*%
G04 Gerber Fmt 4.6, Leading zero omitted, Abs format (unit mm)*
G04 Created by KiCad (PCBNEW 4.0.1-stable) date Tuesday, April 12, 2016 'PMt' 10:53:03 PM*
%MOMM*%
G01*
G04 APERTURE LIST*
%ADD10C,0.100000*%
%ADD11C,0.010000*%
%ADD12C,2.000000*%
%ADD13R,0.812400X0.382400*%
%ADD14R,0.812400X0.502400*%
%ADD15R,1.352400X0.902400*%
%ADD16R,0.902400X0.452400*%
%ADD17R,1.027400X0.877400*%
%ADD18R,1.352400X1.052400*%
%ADD19C,1.676400*%
%ADD20R,1.879600X2.184400*%
%ADD21O,1.879600X2.184400*%
%ADD22R,1.879600X1.879600*%
%ADD23O,1.879600X1.879600*%
%ADD24R,2.184400X2.184400*%
%ADD25O,2.184400X2.184400*%
%ADD26R,1.052400X1.352400*%
G04 APERTURE END LIST*
D10*
D11*
G36*
X139930436Y-121547271D02*
X139904492Y-121548488D01*
X139879876Y-121550595D01*
X139855432Y-121553681D01*
X139830001Y-121557837D01*
X139812832Y-121561069D01*
X139787483Y-121566313D01*
X139763301Y-121571924D01*
X139739569Y-121578132D01*
X139715571Y-121585164D01*
X139690588Y-121593250D01*
X139663905Y-121602618D01*
X139634804Y-121613498D01*
X139602567Y-121626118D01*
X139578180Y-121635936D01*
X139545800Y-121649238D01*
X139512927Y-121663047D01*
X139479285Y-121677494D01*
X139444596Y-121692708D01*
X139408583Y-121708820D01*
X139370969Y-121725959D01*
X139331476Y-121744255D01*
X139289828Y-121763839D01*
X139245747Y-121784840D01*
X139198956Y-121807389D01*
X139149178Y-121831615D01*
X139096136Y-121857648D01*
X139039552Y-121885619D01*
X138979150Y-121915657D01*
X138939541Y-121935436D01*
X138883510Y-121963404D01*
X138831441Y-121989279D01*
X138783012Y-122013209D01*
X138737898Y-122035343D01*
X138695776Y-122055830D01*
X138656321Y-122074819D01*
X138619210Y-122092457D01*
X138584119Y-122108895D01*
X138550724Y-122124280D01*
X138518701Y-122138762D01*
X138487727Y-122152489D01*
X138457476Y-122165610D01*
X138427626Y-122178274D01*
X138397852Y-122190629D01*
X138367831Y-122202825D01*
X138337239Y-122215009D01*
X138305751Y-122227331D01*
X138293971Y-122231892D01*
X138277521Y-122238261D01*
X138262243Y-122244205D01*
X138248816Y-122249460D01*
X138237915Y-122253759D01*
X138230220Y-122256837D01*
X138226521Y-122258374D01*
X138219547Y-122261501D01*
X138237626Y-122283146D01*
X138266127Y-122314827D01*
X138298908Y-122346893D01*
X138335472Y-122378967D01*
X138375320Y-122410672D01*
X138417956Y-122441630D01*
X138462883Y-122471464D01*
X138509602Y-122499796D01*
X138557616Y-122526249D01*
X138558857Y-122526898D01*
X138621538Y-122557677D01*
X138688125Y-122586709D01*
X138757941Y-122613797D01*
X138830309Y-122638741D01*
X138904552Y-122661345D01*
X138979992Y-122681410D01*
X139055954Y-122698739D01*
X139131758Y-122713134D01*
X139206729Y-122724396D01*
X139253124Y-122729783D01*
X139266878Y-122730864D01*
X139284158Y-122731713D01*
X139304064Y-122732329D01*
X139325696Y-122732713D01*
X139348153Y-122732865D01*
X139370535Y-122732784D01*
X139391942Y-122732470D01*
X139411473Y-122731924D01*
X139428228Y-122731145D01*
X139441307Y-122730133D01*
X139444229Y-122729803D01*
X139492356Y-122722101D01*
X139536722Y-122711442D01*
X139577307Y-122697833D01*
X139614087Y-122681281D01*
X139647044Y-122661793D01*
X139659643Y-122652808D01*
X139687515Y-122629111D01*
X139711293Y-122602997D01*
X139731217Y-122574136D01*
X139747528Y-122542199D01*
X139755725Y-122521296D01*
X139762044Y-122501987D01*
X139766562Y-122484431D01*
X139769522Y-122467095D01*
X139771170Y-122448448D01*
X139771748Y-122426961D01*
X139771752Y-122420593D01*
X139771615Y-122381576D01*
X139787410Y-122379957D01*
X139803205Y-122378339D01*
X139820264Y-122389946D01*
X139837324Y-122401553D01*
X139838029Y-122424534D01*
X139836958Y-122456744D01*
X139832033Y-122490431D01*
X139823555Y-122524588D01*
X139811821Y-122558208D01*
X139797130Y-122590285D01*
X139780343Y-122618962D01*
X139755807Y-122651774D01*
X139727694Y-122681339D01*
X139696016Y-122707649D01*
X139660788Y-122730697D01*
X139622025Y-122750476D01*
X139579740Y-122766978D01*
X139533949Y-122780197D01*
X139484665Y-122790126D01*
X139431902Y-122796756D01*
X139425835Y-122797288D01*
X139406649Y-122798440D01*
X139383734Y-122799063D01*
X139358167Y-122799181D01*
X139331026Y-122798821D01*
X139303387Y-122798010D01*
X139276328Y-122796773D01*
X139250926Y-122795135D01*
X139228258Y-122793124D01*
X139221304Y-122792353D01*
X139144242Y-122781672D01*
X139066100Y-122767752D01*
X138987641Y-122750807D01*
X138909628Y-122731049D01*
X138832821Y-122708691D01*
X138757982Y-122683945D01*
X138685874Y-122657024D01*
X138617258Y-122628141D01*
X138592481Y-122616800D01*
X138532591Y-122587174D01*
X138475110Y-122555605D01*
X138420356Y-122522323D01*
X138368645Y-122487560D01*
X138320292Y-122451548D01*
X138275615Y-122414519D01*
X138234929Y-122376703D01*
X138198551Y-122338332D01*
X138176833Y-122312539D01*
X138166671Y-122300158D01*
X138159019Y-122291607D01*
X138153692Y-122286697D01*
X138150507Y-122285240D01*
X138150270Y-122285285D01*
X138140275Y-122287780D01*
X138126254Y-122290610D01*
X138108997Y-122293661D01*
X138089295Y-122296818D01*
X138067938Y-122299969D01*
X138045717Y-122302997D01*
X138023424Y-122305789D01*
X138001848Y-122308231D01*
X137981780Y-122310208D01*
X137972238Y-122311012D01*
X137951489Y-122312203D01*
X137928508Y-122312670D01*
X137902991Y-122312395D01*
X137874634Y-122311358D01*
X137843131Y-122309543D01*
X137808177Y-122306929D01*
X137769469Y-122303500D01*
X137726700Y-122299236D01*
X137679567Y-122294119D01*
X137665019Y-122292471D01*
X137597865Y-122284370D01*
X137526268Y-122274916D01*
X137450417Y-122264144D01*
X137370503Y-122252088D01*
X137286717Y-122238784D01*
X137199250Y-122224265D01*
X137108292Y-122208566D01*
X137014034Y-122191722D01*
X136916667Y-122173769D01*
X136816381Y-122154740D01*
X136713368Y-122134670D01*
X136607817Y-122113594D01*
X136499920Y-122091547D01*
X136389867Y-122068564D01*
X136277848Y-122044679D01*
X136164055Y-122019926D01*
X136144648Y-122015657D01*
X136123025Y-122010927D01*
X136102407Y-122006482D01*
X136083376Y-122002445D01*
X136066516Y-121998935D01*
X136052411Y-121996074D01*
X136041644Y-121993982D01*
X136034798Y-121992780D01*
X136033371Y-121992585D01*
X136014597Y-121992642D01*
X135994733Y-121996479D01*
X135975026Y-122003639D01*
X135956721Y-122013666D01*
X135941065Y-122026103D01*
X135940576Y-122026581D01*
X135933199Y-122035057D01*
X135924131Y-122047486D01*
X135913630Y-122063394D01*
X135901956Y-122082306D01*
X135889369Y-122103748D01*
X135876129Y-122127247D01*
X135862496Y-122152328D01*
X135848728Y-122178518D01*
X135835087Y-122205341D01*
X135821831Y-122232324D01*
X135809220Y-122258993D01*
X135797515Y-122284874D01*
X135791528Y-122298666D01*
X135772685Y-122345939D01*
X135757683Y-122390460D01*
X135746527Y-122432204D01*
X135739221Y-122471151D01*
X135735766Y-122507277D01*
X135736167Y-122540560D01*
X135740426Y-122570977D01*
X135748078Y-122597272D01*
X135754648Y-122611166D01*
X135763949Y-122626192D01*
X135774782Y-122640659D01*
X135785950Y-122652874D01*
X135790053Y-122656590D01*
X135800606Y-122664757D01*
X135812001Y-122671968D01*
X135824613Y-122678298D01*
X135838815Y-122683822D01*
X135854979Y-122688616D01*
X135873479Y-122692756D01*
X135894687Y-122696316D01*
X135918978Y-122699373D01*
X135946723Y-122702002D01*
X135978297Y-122704278D01*
X136014072Y-122706277D01*
X136041838Y-122707554D01*
X136055395Y-122708088D01*
X136073106Y-122708715D01*
X136094286Y-122709415D01*
X136118253Y-122710168D01*
X136144323Y-122710951D01*
X136171812Y-122711745D01*
X136200038Y-122712528D01*
X136228316Y-122713281D01*
X136242619Y-122713648D01*
X136315281Y-122715565D01*
X136383516Y-122717528D01*
X136447734Y-122719558D01*
X136508348Y-122721674D01*
X136565767Y-122723897D01*
X136620403Y-122726247D01*
X136672667Y-122728745D01*
X136722969Y-122731410D01*
X136771721Y-122734262D01*
X136819333Y-122737322D01*
X136866217Y-122740611D01*
X136912783Y-122744147D01*
X136959443Y-122747952D01*
X136984057Y-122750059D01*
X137088566Y-122759875D01*
X137189029Y-122770858D01*
X137286127Y-122783149D01*
X137380540Y-122796888D01*
X137472947Y-122812215D01*
X137564028Y-122829270D01*
X137654464Y-122848195D01*
X137744934Y-122869128D01*
X137836118Y-122892210D01*
X137928697Y-122917582D01*
X138023349Y-122945384D01*
X138120755Y-122975757D01*
X138194790Y-122999897D01*
X138233637Y-123012856D01*
X138269588Y-123025038D01*
X138303035Y-123036626D01*
X138334370Y-123047802D01*
X138363986Y-123058748D01*
X138392274Y-123069647D01*
X138419626Y-123080682D01*
X138446435Y-123092035D01*
X138473092Y-123103888D01*
X138499989Y-123116425D01*
X138527519Y-123129827D01*
X138556073Y-123144277D01*
X138586044Y-123159959D01*
X138617824Y-123177053D01*
X138651804Y-123195743D01*
X138688376Y-123216212D01*
X138727934Y-123238641D01*
X138770868Y-123263213D01*
X138815276Y-123288788D01*
X138849694Y-123308624D01*
X138880393Y-123326252D01*
X138907825Y-123341919D01*
X138932438Y-123355873D01*
X138954682Y-123368363D01*
X138975007Y-123379636D01*
X138993864Y-123389941D01*
X139011701Y-123399525D01*
X139028969Y-123408636D01*
X139046118Y-123417523D01*
X139063596Y-123426433D01*
X139078952Y-123434162D01*
X139123741Y-123456051D01*
X139165424Y-123475225D01*
X139204718Y-123491930D01*
X139242342Y-123506415D01*
X139279014Y-123518927D01*
X139315450Y-123529716D01*
X139352371Y-123539028D01*
X139390492Y-123547111D01*
X139423045Y-123552979D01*
X139463692Y-123559412D01*
X139501122Y-123564468D01*
X139536722Y-123568258D01*
X139571880Y-123570896D01*
X139607980Y-123572492D01*
X139646411Y-123573158D01*
X139672829Y-123573149D01*
X139691061Y-123573012D01*
X139708234Y-123572835D01*
X139723598Y-123572630D01*
X139736402Y-123572407D01*
X139745898Y-123572178D01*
X139751333Y-123571955D01*
X139751448Y-123571947D01*
X139813879Y-123565765D01*
X139875463Y-123556409D01*
X139935610Y-123544029D01*
X139993736Y-123528776D01*
X140049253Y-123510800D01*
X140101574Y-123490253D01*
X140141114Y-123471875D01*
X140199972Y-123439716D01*
X140257316Y-123403002D01*
X140313094Y-123361788D01*
X140367253Y-123316130D01*
X140419741Y-123266086D01*
X140470506Y-123211710D01*
X140519496Y-123153060D01*
X140566658Y-123090192D01*
X140611940Y-123023161D01*
X140655290Y-122952024D01*
X140696656Y-122876837D01*
X140699623Y-122871140D01*
X140724999Y-122819703D01*
X140748666Y-122766393D01*
X140770868Y-122710569D01*
X140791853Y-122651594D01*
X140811866Y-122588827D01*
X140823182Y-122550234D01*
X140828370Y-122532002D01*
X140996876Y-122464030D01*
X141023946Y-122453076D01*
X141049671Y-122442600D01*
X141073703Y-122432746D01*
X141095696Y-122423662D01*
X141115301Y-122415491D01*
X141132173Y-122408380D01*
X141145962Y-122402474D01*
X141156324Y-122397918D01*
X141162909Y-122394859D01*
X141165372Y-122393441D01*
X141165381Y-122393409D01*
X141163615Y-122391437D01*
X141158493Y-122386490D01*
X141150276Y-122378808D01*
X141139225Y-122368629D01*
X141125604Y-122356189D01*
X141109673Y-122341728D01*
X141091695Y-122325482D01*
X141071931Y-122307690D01*
X141050643Y-122288590D01*
X141028094Y-122268419D01*
X141010562Y-122252777D01*
X140855743Y-122114794D01*
X140845884Y-122087558D01*
X140826454Y-122039507D01*
X140803656Y-121993631D01*
X140777210Y-121949513D01*
X140746838Y-121906736D01*
X140712261Y-121864883D01*
X140673199Y-121823536D01*
X140661961Y-121812515D01*
X140615802Y-121771250D01*
X140566025Y-121733069D01*
X140512811Y-121698064D01*
X140456341Y-121666324D01*
X140396797Y-121637941D01*
X140334361Y-121613004D01*
X140269215Y-121591605D01*
X140201540Y-121573835D01*
X140169943Y-121566972D01*
X140139499Y-121561050D01*
X140112261Y-121556407D01*
X140086814Y-121552888D01*
X140061744Y-121550335D01*
X140035636Y-121548592D01*
X140007075Y-121547501D01*
X139990933Y-121547143D01*
X139958864Y-121546853D01*
X139930436Y-121547271D01*
X139930436Y-121547271D01*
G37*
X139930436Y-121547271D02*
X139904492Y-121548488D01*
X139879876Y-121550595D01*
X139855432Y-121553681D01*
X139830001Y-121557837D01*
X139812832Y-121561069D01*
X139787483Y-121566313D01*
X139763301Y-121571924D01*
X139739569Y-121578132D01*
X139715571Y-121585164D01*
X139690588Y-121593250D01*
X139663905Y-121602618D01*
X139634804Y-121613498D01*
X139602567Y-121626118D01*
X139578180Y-121635936D01*
X139545800Y-121649238D01*
X139512927Y-121663047D01*
X139479285Y-121677494D01*
X139444596Y-121692708D01*
X139408583Y-121708820D01*
X139370969Y-121725959D01*
X139331476Y-121744255D01*
X139289828Y-121763839D01*
X139245747Y-121784840D01*
X139198956Y-121807389D01*
X139149178Y-121831615D01*
X139096136Y-121857648D01*
X139039552Y-121885619D01*
X138979150Y-121915657D01*
X138939541Y-121935436D01*
X138883510Y-121963404D01*
X138831441Y-121989279D01*
X138783012Y-122013209D01*
X138737898Y-122035343D01*
X138695776Y-122055830D01*
X138656321Y-122074819D01*
X138619210Y-122092457D01*
X138584119Y-122108895D01*
X138550724Y-122124280D01*
X138518701Y-122138762D01*
X138487727Y-122152489D01*
X138457476Y-122165610D01*
X138427626Y-122178274D01*
X138397852Y-122190629D01*
X138367831Y-122202825D01*
X138337239Y-122215009D01*
X138305751Y-122227331D01*
X138293971Y-122231892D01*
X138277521Y-122238261D01*
X138262243Y-122244205D01*
X138248816Y-122249460D01*
X138237915Y-122253759D01*
X138230220Y-122256837D01*
X138226521Y-122258374D01*
X138219547Y-122261501D01*
X138237626Y-122283146D01*
X138266127Y-122314827D01*
X138298908Y-122346893D01*
X138335472Y-122378967D01*
X138375320Y-122410672D01*
X138417956Y-122441630D01*
X138462883Y-122471464D01*
X138509602Y-122499796D01*
X138557616Y-122526249D01*
X138558857Y-122526898D01*
X138621538Y-122557677D01*
X138688125Y-122586709D01*
X138757941Y-122613797D01*
X138830309Y-122638741D01*
X138904552Y-122661345D01*
X138979992Y-122681410D01*
X139055954Y-122698739D01*
X139131758Y-122713134D01*
X139206729Y-122724396D01*
X139253124Y-122729783D01*
X139266878Y-122730864D01*
X139284158Y-122731713D01*
X139304064Y-122732329D01*
X139325696Y-122732713D01*
X139348153Y-122732865D01*
X139370535Y-122732784D01*
X139391942Y-122732470D01*
X139411473Y-122731924D01*
X139428228Y-122731145D01*
X139441307Y-122730133D01*
X139444229Y-122729803D01*
X139492356Y-122722101D01*
X139536722Y-122711442D01*
X139577307Y-122697833D01*
X139614087Y-122681281D01*
X139647044Y-122661793D01*
X139659643Y-122652808D01*
X139687515Y-122629111D01*
X139711293Y-122602997D01*
X139731217Y-122574136D01*
X139747528Y-122542199D01*
X139755725Y-122521296D01*
X139762044Y-122501987D01*
X139766562Y-122484431D01*
X139769522Y-122467095D01*
X139771170Y-122448448D01*
X139771748Y-122426961D01*
X139771752Y-122420593D01*
X139771615Y-122381576D01*
X139787410Y-122379957D01*
X139803205Y-122378339D01*
X139820264Y-122389946D01*
X139837324Y-122401553D01*
X139838029Y-122424534D01*
X139836958Y-122456744D01*
X139832033Y-122490431D01*
X139823555Y-122524588D01*
X139811821Y-122558208D01*
X139797130Y-122590285D01*
X139780343Y-122618962D01*
X139755807Y-122651774D01*
X139727694Y-122681339D01*
X139696016Y-122707649D01*
X139660788Y-122730697D01*
X139622025Y-122750476D01*
X139579740Y-122766978D01*
X139533949Y-122780197D01*
X139484665Y-122790126D01*
X139431902Y-122796756D01*
X139425835Y-122797288D01*
X139406649Y-122798440D01*
X139383734Y-122799063D01*
X139358167Y-122799181D01*
X139331026Y-122798821D01*
X139303387Y-122798010D01*
X139276328Y-122796773D01*
X139250926Y-122795135D01*
X139228258Y-122793124D01*
X139221304Y-122792353D01*
X139144242Y-122781672D01*
X139066100Y-122767752D01*
X138987641Y-122750807D01*
X138909628Y-122731049D01*
X138832821Y-122708691D01*
X138757982Y-122683945D01*
X138685874Y-122657024D01*
X138617258Y-122628141D01*
X138592481Y-122616800D01*
X138532591Y-122587174D01*
X138475110Y-122555605D01*
X138420356Y-122522323D01*
X138368645Y-122487560D01*
X138320292Y-122451548D01*
X138275615Y-122414519D01*
X138234929Y-122376703D01*
X138198551Y-122338332D01*
X138176833Y-122312539D01*
X138166671Y-122300158D01*
X138159019Y-122291607D01*
X138153692Y-122286697D01*
X138150507Y-122285240D01*
X138150270Y-122285285D01*
X138140275Y-122287780D01*
X138126254Y-122290610D01*
X138108997Y-122293661D01*
X138089295Y-122296818D01*
X138067938Y-122299969D01*
X138045717Y-122302997D01*
X138023424Y-122305789D01*
X138001848Y-122308231D01*
X137981780Y-122310208D01*
X137972238Y-122311012D01*
X137951489Y-122312203D01*
X137928508Y-122312670D01*
X137902991Y-122312395D01*
X137874634Y-122311358D01*
X137843131Y-122309543D01*
X137808177Y-122306929D01*
X137769469Y-122303500D01*
X137726700Y-122299236D01*
X137679567Y-122294119D01*
X137665019Y-122292471D01*
X137597865Y-122284370D01*
X137526268Y-122274916D01*
X137450417Y-122264144D01*
X137370503Y-122252088D01*
X137286717Y-122238784D01*
X137199250Y-122224265D01*
X137108292Y-122208566D01*
X137014034Y-122191722D01*
X136916667Y-122173769D01*
X136816381Y-122154740D01*
X136713368Y-122134670D01*
X136607817Y-122113594D01*
X136499920Y-122091547D01*
X136389867Y-122068564D01*
X136277848Y-122044679D01*
X136164055Y-122019926D01*
X136144648Y-122015657D01*
X136123025Y-122010927D01*
X136102407Y-122006482D01*
X136083376Y-122002445D01*
X136066516Y-121998935D01*
X136052411Y-121996074D01*
X136041644Y-121993982D01*
X136034798Y-121992780D01*
X136033371Y-121992585D01*
X136014597Y-121992642D01*
X135994733Y-121996479D01*
X135975026Y-122003639D01*
X135956721Y-122013666D01*
X135941065Y-122026103D01*
X135940576Y-122026581D01*
X135933199Y-122035057D01*
X135924131Y-122047486D01*
X135913630Y-122063394D01*
X135901956Y-122082306D01*
X135889369Y-122103748D01*
X135876129Y-122127247D01*
X135862496Y-122152328D01*
X135848728Y-122178518D01*
X135835087Y-122205341D01*
X135821831Y-122232324D01*
X135809220Y-122258993D01*
X135797515Y-122284874D01*
X135791528Y-122298666D01*
X135772685Y-122345939D01*
X135757683Y-122390460D01*
X135746527Y-122432204D01*
X135739221Y-122471151D01*
X135735766Y-122507277D01*
X135736167Y-122540560D01*
X135740426Y-122570977D01*
X135748078Y-122597272D01*
X135754648Y-122611166D01*
X135763949Y-122626192D01*
X135774782Y-122640659D01*
X135785950Y-122652874D01*
X135790053Y-122656590D01*
X135800606Y-122664757D01*
X135812001Y-122671968D01*
X135824613Y-122678298D01*
X135838815Y-122683822D01*
X135854979Y-122688616D01*
X135873479Y-122692756D01*
X135894687Y-122696316D01*
X135918978Y-122699373D01*
X135946723Y-122702002D01*
X135978297Y-122704278D01*
X136014072Y-122706277D01*
X136041838Y-122707554D01*
X136055395Y-122708088D01*
X136073106Y-122708715D01*
X136094286Y-122709415D01*
X136118253Y-122710168D01*
X136144323Y-122710951D01*
X136171812Y-122711745D01*
X136200038Y-122712528D01*
X136228316Y-122713281D01*
X136242619Y-122713648D01*
X136315281Y-122715565D01*
X136383516Y-122717528D01*
X136447734Y-122719558D01*
X136508348Y-122721674D01*
X136565767Y-122723897D01*
X136620403Y-122726247D01*
X136672667Y-122728745D01*
X136722969Y-122731410D01*
X136771721Y-122734262D01*
X136819333Y-122737322D01*
X136866217Y-122740611D01*
X136912783Y-122744147D01*
X136959443Y-122747952D01*
X136984057Y-122750059D01*
X137088566Y-122759875D01*
X137189029Y-122770858D01*
X137286127Y-122783149D01*
X137380540Y-122796888D01*
X137472947Y-122812215D01*
X137564028Y-122829270D01*
X137654464Y-122848195D01*
X137744934Y-122869128D01*
X137836118Y-122892210D01*
X137928697Y-122917582D01*
X138023349Y-122945384D01*
X138120755Y-122975757D01*
X138194790Y-122999897D01*
X138233637Y-123012856D01*
X138269588Y-123025038D01*
X138303035Y-123036626D01*
X138334370Y-123047802D01*
X138363986Y-123058748D01*
X138392274Y-123069647D01*
X138419626Y-123080682D01*
X138446435Y-123092035D01*
X138473092Y-123103888D01*
X138499989Y-123116425D01*
X138527519Y-123129827D01*
X138556073Y-123144277D01*
X138586044Y-123159959D01*
X138617824Y-123177053D01*
X138651804Y-123195743D01*
X138688376Y-123216212D01*
X138727934Y-123238641D01*
X138770868Y-123263213D01*
X138815276Y-123288788D01*
X138849694Y-123308624D01*
X138880393Y-123326252D01*
X138907825Y-123341919D01*
X138932438Y-123355873D01*
X138954682Y-123368363D01*
X138975007Y-123379636D01*
X138993864Y-123389941D01*
X139011701Y-123399525D01*
X139028969Y-123408636D01*
X139046118Y-123417523D01*
X139063596Y-123426433D01*
X139078952Y-123434162D01*
X139123741Y-123456051D01*
X139165424Y-123475225D01*
X139204718Y-123491930D01*
X139242342Y-123506415D01*
X139279014Y-123518927D01*
X139315450Y-123529716D01*
X139352371Y-123539028D01*
X139390492Y-123547111D01*
X139423045Y-123552979D01*
X139463692Y-123559412D01*
X139501122Y-123564468D01*
X139536722Y-123568258D01*
X139571880Y-123570896D01*
X139607980Y-123572492D01*
X139646411Y-123573158D01*
X139672829Y-123573149D01*
X139691061Y-123573012D01*
X139708234Y-123572835D01*
X139723598Y-123572630D01*
X139736402Y-123572407D01*
X139745898Y-123572178D01*
X139751333Y-123571955D01*
X139751448Y-123571947D01*
X139813879Y-123565765D01*
X139875463Y-123556409D01*
X139935610Y-123544029D01*
X139993736Y-123528776D01*
X140049253Y-123510800D01*
X140101574Y-123490253D01*
X140141114Y-123471875D01*
X140199972Y-123439716D01*
X140257316Y-123403002D01*
X140313094Y-123361788D01*
X140367253Y-123316130D01*
X140419741Y-123266086D01*
X140470506Y-123211710D01*
X140519496Y-123153060D01*
X140566658Y-123090192D01*
X140611940Y-123023161D01*
X140655290Y-122952024D01*
X140696656Y-122876837D01*
X140699623Y-122871140D01*
X140724999Y-122819703D01*
X140748666Y-122766393D01*
X140770868Y-122710569D01*
X140791853Y-122651594D01*
X140811866Y-122588827D01*
X140823182Y-122550234D01*
X140828370Y-122532002D01*
X140996876Y-122464030D01*
X141023946Y-122453076D01*
X141049671Y-122442600D01*
X141073703Y-122432746D01*
X141095696Y-122423662D01*
X141115301Y-122415491D01*
X141132173Y-122408380D01*
X141145962Y-122402474D01*
X141156324Y-122397918D01*
X141162909Y-122394859D01*
X141165372Y-122393441D01*
X141165381Y-122393409D01*
X141163615Y-122391437D01*
X141158493Y-122386490D01*
X141150276Y-122378808D01*
X141139225Y-122368629D01*
X141125604Y-122356189D01*
X141109673Y-122341728D01*
X141091695Y-122325482D01*
X141071931Y-122307690D01*
X141050643Y-122288590D01*
X141028094Y-122268419D01*
X141010562Y-122252777D01*
X140855743Y-122114794D01*
X140845884Y-122087558D01*
X140826454Y-122039507D01*
X140803656Y-121993631D01*
X140777210Y-121949513D01*
X140746838Y-121906736D01*
X140712261Y-121864883D01*
X140673199Y-121823536D01*
X140661961Y-121812515D01*
X140615802Y-121771250D01*
X140566025Y-121733069D01*
X140512811Y-121698064D01*
X140456341Y-121666324D01*
X140396797Y-121637941D01*
X140334361Y-121613004D01*
X140269215Y-121591605D01*
X140201540Y-121573835D01*
X140169943Y-121566972D01*
X140139499Y-121561050D01*
X140112261Y-121556407D01*
X140086814Y-121552888D01*
X140061744Y-121550335D01*
X140035636Y-121548592D01*
X140007075Y-121547501D01*
X139990933Y-121547143D01*
X139958864Y-121546853D01*
X139930436Y-121547271D01*
G36*
X149170436Y-90287271D02*
X149144492Y-90288488D01*
X149119876Y-90290595D01*
X149095432Y-90293681D01*
X149070001Y-90297837D01*
X149052832Y-90301069D01*
X149027483Y-90306313D01*
X149003301Y-90311924D01*
X148979569Y-90318132D01*
X148955571Y-90325164D01*
X148930588Y-90333250D01*
X148903905Y-90342618D01*
X148874804Y-90353498D01*
X148842567Y-90366118D01*
X148818180Y-90375936D01*
X148785800Y-90389238D01*
X148752927Y-90403047D01*
X148719285Y-90417494D01*
X148684596Y-90432708D01*
X148648583Y-90448820D01*
X148610969Y-90465959D01*
X148571476Y-90484255D01*
X148529828Y-90503839D01*
X148485747Y-90524840D01*
X148438956Y-90547389D01*
X148389178Y-90571615D01*
X148336136Y-90597648D01*
X148279552Y-90625619D01*
X148219150Y-90655657D01*
X148179541Y-90675436D01*
X148123510Y-90703404D01*
X148071441Y-90729279D01*
X148023012Y-90753209D01*
X147977898Y-90775343D01*
X147935776Y-90795830D01*
X147896321Y-90814819D01*
X147859210Y-90832457D01*
X147824119Y-90848895D01*
X147790724Y-90864280D01*
X147758701Y-90878762D01*
X147727727Y-90892489D01*
X147697476Y-90905610D01*
X147667626Y-90918274D01*
X147637852Y-90930629D01*
X147607831Y-90942825D01*
X147577239Y-90955009D01*
X147545751Y-90967331D01*
X147533971Y-90971892D01*
X147517521Y-90978261D01*
X147502243Y-90984205D01*
X147488816Y-90989460D01*
X147477915Y-90993759D01*
X147470220Y-90996837D01*
X147466521Y-90998374D01*
X147459547Y-91001501D01*
X147477626Y-91023146D01*
X147506127Y-91054827D01*
X147538908Y-91086893D01*
X147575472Y-91118967D01*
X147615320Y-91150672D01*
X147657956Y-91181630D01*
X147702883Y-91211464D01*
X147749602Y-91239796D01*
X147797616Y-91266249D01*
X147798857Y-91266898D01*
X147861538Y-91297677D01*
X147928125Y-91326709D01*
X147997941Y-91353797D01*
X148070309Y-91378741D01*
X148144552Y-91401345D01*
X148219992Y-91421410D01*
X148295954Y-91438739D01*
X148371758Y-91453134D01*
X148446729Y-91464396D01*
X148493124Y-91469783D01*
X148506878Y-91470864D01*
X148524158Y-91471713D01*
X148544064Y-91472329D01*
X148565696Y-91472713D01*
X148588153Y-91472865D01*
X148610535Y-91472784D01*
X148631942Y-91472470D01*
X148651473Y-91471924D01*
X148668228Y-91471145D01*
X148681307Y-91470133D01*
X148684229Y-91469803D01*
X148732356Y-91462101D01*
X148776722Y-91451442D01*
X148817307Y-91437833D01*
X148854087Y-91421281D01*
X148887044Y-91401793D01*
X148899643Y-91392808D01*
X148927515Y-91369111D01*
X148951293Y-91342997D01*
X148971217Y-91314136D01*
X148987528Y-91282199D01*
X148995725Y-91261296D01*
X149002044Y-91241987D01*
X149006562Y-91224431D01*
X149009522Y-91207095D01*
X149011170Y-91188448D01*
X149011748Y-91166961D01*
X149011752Y-91160593D01*
X149011615Y-91121576D01*
X149027410Y-91119957D01*
X149043205Y-91118339D01*
X149060264Y-91129946D01*
X149077324Y-91141553D01*
X149078029Y-91164534D01*
X149076958Y-91196744D01*
X149072033Y-91230431D01*
X149063555Y-91264588D01*
X149051821Y-91298208D01*
X149037130Y-91330285D01*
X149020343Y-91358962D01*
X148995807Y-91391774D01*
X148967694Y-91421339D01*
X148936016Y-91447649D01*
X148900788Y-91470697D01*
X148862025Y-91490476D01*
X148819740Y-91506978D01*
X148773949Y-91520197D01*
X148724665Y-91530126D01*
X148671902Y-91536756D01*
X148665835Y-91537288D01*
X148646649Y-91538440D01*
X148623734Y-91539063D01*
X148598167Y-91539181D01*
X148571026Y-91538821D01*
X148543387Y-91538010D01*
X148516328Y-91536773D01*
X148490926Y-91535135D01*
X148468258Y-91533124D01*
X148461304Y-91532353D01*
X148384242Y-91521672D01*
X148306100Y-91507752D01*
X148227641Y-91490807D01*
X148149628Y-91471049D01*
X148072821Y-91448691D01*
X147997982Y-91423945D01*
X147925874Y-91397024D01*
X147857258Y-91368141D01*
X147832481Y-91356800D01*
X147772591Y-91327174D01*
X147715110Y-91295605D01*
X147660356Y-91262323D01*
X147608645Y-91227560D01*
X147560292Y-91191548D01*
X147515615Y-91154519D01*
X147474929Y-91116703D01*
X147438551Y-91078332D01*
X147416833Y-91052539D01*
X147406671Y-91040158D01*
X147399019Y-91031607D01*
X147393692Y-91026697D01*
X147390507Y-91025240D01*
X147390270Y-91025285D01*
X147380275Y-91027780D01*
X147366254Y-91030610D01*
X147348997Y-91033661D01*
X147329295Y-91036818D01*
X147307938Y-91039969D01*
X147285717Y-91042997D01*
X147263424Y-91045789D01*
X147241848Y-91048231D01*
X147221780Y-91050208D01*
X147212238Y-91051012D01*
X147191489Y-91052203D01*
X147168508Y-91052670D01*
X147142991Y-91052395D01*
X147114634Y-91051358D01*
X147083131Y-91049543D01*
X147048177Y-91046929D01*
X147009469Y-91043500D01*
X146966700Y-91039236D01*
X146919567Y-91034119D01*
X146905019Y-91032471D01*
X146837865Y-91024370D01*
X146766268Y-91014916D01*
X146690417Y-91004144D01*
X146610503Y-90992088D01*
X146526717Y-90978784D01*
X146439250Y-90964265D01*
X146348292Y-90948566D01*
X146254034Y-90931722D01*
X146156667Y-90913769D01*
X146056381Y-90894740D01*
X145953368Y-90874670D01*
X145847817Y-90853594D01*
X145739920Y-90831547D01*
X145629867Y-90808564D01*
X145517848Y-90784679D01*
X145404055Y-90759926D01*
X145384648Y-90755657D01*
X145363025Y-90750927D01*
X145342407Y-90746482D01*
X145323376Y-90742445D01*
X145306516Y-90738935D01*
X145292411Y-90736074D01*
X145281644Y-90733982D01*
X145274798Y-90732780D01*
X145273371Y-90732585D01*
X145254597Y-90732642D01*
X145234733Y-90736479D01*
X145215026Y-90743639D01*
X145196721Y-90753666D01*
X145181065Y-90766103D01*
X145180576Y-90766581D01*
X145173199Y-90775057D01*
X145164131Y-90787486D01*
X145153630Y-90803394D01*
X145141956Y-90822306D01*
X145129369Y-90843748D01*
X145116129Y-90867247D01*
X145102496Y-90892328D01*
X145088728Y-90918518D01*
X145075087Y-90945341D01*
X145061831Y-90972324D01*
X145049220Y-90998993D01*
X145037515Y-91024874D01*
X145031528Y-91038666D01*
X145012685Y-91085939D01*
X144997683Y-91130460D01*
X144986527Y-91172204D01*
X144979221Y-91211151D01*
X144975766Y-91247277D01*
X144976167Y-91280560D01*
X144980426Y-91310977D01*
X144988078Y-91337272D01*
X144994648Y-91351166D01*
X145003949Y-91366192D01*
X145014782Y-91380659D01*
X145025950Y-91392874D01*
X145030053Y-91396590D01*
X145040606Y-91404757D01*
X145052001Y-91411968D01*
X145064613Y-91418298D01*
X145078815Y-91423822D01*
X145094979Y-91428616D01*
X145113479Y-91432756D01*
X145134687Y-91436316D01*
X145158978Y-91439373D01*
X145186723Y-91442002D01*
X145218297Y-91444278D01*
X145254072Y-91446277D01*
X145281838Y-91447554D01*
X145295395Y-91448088D01*
X145313106Y-91448715D01*
X145334286Y-91449415D01*
X145358253Y-91450168D01*
X145384323Y-91450951D01*
X145411812Y-91451745D01*
X145440038Y-91452528D01*
X145468316Y-91453281D01*
X145482619Y-91453648D01*
X145555281Y-91455565D01*
X145623516Y-91457528D01*
X145687734Y-91459558D01*
X145748348Y-91461674D01*
X145805767Y-91463897D01*
X145860403Y-91466247D01*
X145912667Y-91468745D01*
X145962969Y-91471410D01*
X146011721Y-91474262D01*
X146059333Y-91477322D01*
X146106217Y-91480611D01*
X146152783Y-91484147D01*
X146199443Y-91487952D01*
X146224057Y-91490059D01*
X146328566Y-91499875D01*
X146429029Y-91510858D01*
X146526127Y-91523149D01*
X146620540Y-91536888D01*
X146712947Y-91552215D01*
X146804028Y-91569270D01*
X146894464Y-91588195D01*
X146984934Y-91609128D01*
X147076118Y-91632210D01*
X147168697Y-91657582D01*
X147263349Y-91685384D01*
X147360755Y-91715757D01*
X147434790Y-91739897D01*
X147473637Y-91752856D01*
X147509588Y-91765038D01*
X147543035Y-91776626D01*
X147574370Y-91787802D01*
X147603986Y-91798748D01*
X147632274Y-91809647D01*
X147659626Y-91820682D01*
X147686435Y-91832035D01*
X147713092Y-91843888D01*
X147739989Y-91856425D01*
X147767519Y-91869827D01*
X147796073Y-91884277D01*
X147826044Y-91899959D01*
X147857824Y-91917053D01*
X147891804Y-91935743D01*
X147928376Y-91956212D01*
X147967934Y-91978641D01*
X148010868Y-92003213D01*
X148055276Y-92028788D01*
X148089694Y-92048624D01*
X148120393Y-92066252D01*
X148147825Y-92081919D01*
X148172438Y-92095873D01*
X148194682Y-92108363D01*
X148215007Y-92119636D01*
X148233864Y-92129941D01*
X148251701Y-92139525D01*
X148268969Y-92148636D01*
X148286118Y-92157523D01*
X148303596Y-92166433D01*
X148318952Y-92174162D01*
X148363741Y-92196051D01*
X148405424Y-92215225D01*
X148444718Y-92231930D01*
X148482342Y-92246415D01*
X148519014Y-92258927D01*
X148555450Y-92269716D01*
X148592371Y-92279028D01*
X148630492Y-92287111D01*
X148663045Y-92292979D01*
X148703692Y-92299412D01*
X148741122Y-92304468D01*
X148776722Y-92308258D01*
X148811880Y-92310896D01*
X148847980Y-92312492D01*
X148886411Y-92313158D01*
X148912829Y-92313149D01*
X148931061Y-92313012D01*
X148948234Y-92312835D01*
X148963598Y-92312630D01*
X148976402Y-92312407D01*
X148985898Y-92312178D01*
X148991333Y-92311955D01*
X148991448Y-92311947D01*
X149053879Y-92305765D01*
X149115463Y-92296409D01*
X149175610Y-92284029D01*
X149233736Y-92268776D01*
X149289253Y-92250800D01*
X149341574Y-92230253D01*
X149381114Y-92211875D01*
X149439972Y-92179716D01*
X149497316Y-92143002D01*
X149553094Y-92101788D01*
X149607253Y-92056130D01*
X149659741Y-92006086D01*
X149710506Y-91951710D01*
X149759496Y-91893060D01*
X149806658Y-91830192D01*
X149851940Y-91763161D01*
X149895290Y-91692024D01*
X149936656Y-91616837D01*
X149939623Y-91611140D01*
X149964999Y-91559703D01*
X149988666Y-91506393D01*
X150010868Y-91450569D01*
X150031853Y-91391594D01*
X150051866Y-91328827D01*
X150063182Y-91290234D01*
X150068370Y-91272002D01*
X150236876Y-91204030D01*
X150263946Y-91193076D01*
X150289671Y-91182600D01*
X150313703Y-91172746D01*
X150335696Y-91163662D01*
X150355301Y-91155491D01*
X150372173Y-91148380D01*
X150385962Y-91142474D01*
X150396324Y-91137918D01*
X150402909Y-91134859D01*
X150405372Y-91133441D01*
X150405381Y-91133409D01*
X150403615Y-91131437D01*
X150398493Y-91126490D01*
X150390276Y-91118808D01*
X150379225Y-91108629D01*
X150365604Y-91096189D01*
X150349673Y-91081728D01*
X150331695Y-91065482D01*
X150311931Y-91047690D01*
X150290643Y-91028590D01*
X150268094Y-91008419D01*
X150250562Y-90992777D01*
X150095743Y-90854794D01*
X150085884Y-90827558D01*
X150066454Y-90779507D01*
X150043656Y-90733631D01*
X150017210Y-90689513D01*
X149986838Y-90646736D01*
X149952261Y-90604883D01*
X149913199Y-90563536D01*
X149901961Y-90552515D01*
X149855802Y-90511250D01*
X149806025Y-90473069D01*
X149752811Y-90438064D01*
X149696341Y-90406324D01*
X149636797Y-90377941D01*
X149574361Y-90353004D01*
X149509215Y-90331605D01*
X149441540Y-90313835D01*
X149409943Y-90306972D01*
X149379499Y-90301050D01*
X149352261Y-90296407D01*
X149326814Y-90292888D01*
X149301744Y-90290335D01*
X149275636Y-90288592D01*
X149247075Y-90287501D01*
X149230933Y-90287143D01*
X149198864Y-90286853D01*
X149170436Y-90287271D01*
X149170436Y-90287271D01*
G37*
X149170436Y-90287271D02*
X149144492Y-90288488D01*
X149119876Y-90290595D01*
X149095432Y-90293681D01*
X149070001Y-90297837D01*
X149052832Y-90301069D01*
X149027483Y-90306313D01*
X149003301Y-90311924D01*
X148979569Y-90318132D01*
X148955571Y-90325164D01*
X148930588Y-90333250D01*
X148903905Y-90342618D01*
X148874804Y-90353498D01*
X148842567Y-90366118D01*
X148818180Y-90375936D01*
X148785800Y-90389238D01*
X148752927Y-90403047D01*
X148719285Y-90417494D01*
X148684596Y-90432708D01*
X148648583Y-90448820D01*
X148610969Y-90465959D01*
X148571476Y-90484255D01*
X148529828Y-90503839D01*
X148485747Y-90524840D01*
X148438956Y-90547389D01*
X148389178Y-90571615D01*
X148336136Y-90597648D01*
X148279552Y-90625619D01*
X148219150Y-90655657D01*
X148179541Y-90675436D01*
X148123510Y-90703404D01*
X148071441Y-90729279D01*
X148023012Y-90753209D01*
X147977898Y-90775343D01*
X147935776Y-90795830D01*
X147896321Y-90814819D01*
X147859210Y-90832457D01*
X147824119Y-90848895D01*
X147790724Y-90864280D01*
X147758701Y-90878762D01*
X147727727Y-90892489D01*
X147697476Y-90905610D01*
X147667626Y-90918274D01*
X147637852Y-90930629D01*
X147607831Y-90942825D01*
X147577239Y-90955009D01*
X147545751Y-90967331D01*
X147533971Y-90971892D01*
X147517521Y-90978261D01*
X147502243Y-90984205D01*
X147488816Y-90989460D01*
X147477915Y-90993759D01*
X147470220Y-90996837D01*
X147466521Y-90998374D01*
X147459547Y-91001501D01*
X147477626Y-91023146D01*
X147506127Y-91054827D01*
X147538908Y-91086893D01*
X147575472Y-91118967D01*
X147615320Y-91150672D01*
X147657956Y-91181630D01*
X147702883Y-91211464D01*
X147749602Y-91239796D01*
X147797616Y-91266249D01*
X147798857Y-91266898D01*
X147861538Y-91297677D01*
X147928125Y-91326709D01*
X147997941Y-91353797D01*
X148070309Y-91378741D01*
X148144552Y-91401345D01*
X148219992Y-91421410D01*
X148295954Y-91438739D01*
X148371758Y-91453134D01*
X148446729Y-91464396D01*
X148493124Y-91469783D01*
X148506878Y-91470864D01*
X148524158Y-91471713D01*
X148544064Y-91472329D01*
X148565696Y-91472713D01*
X148588153Y-91472865D01*
X148610535Y-91472784D01*
X148631942Y-91472470D01*
X148651473Y-91471924D01*
X148668228Y-91471145D01*
X148681307Y-91470133D01*
X148684229Y-91469803D01*
X148732356Y-91462101D01*
X148776722Y-91451442D01*
X148817307Y-91437833D01*
X148854087Y-91421281D01*
X148887044Y-91401793D01*
X148899643Y-91392808D01*
X148927515Y-91369111D01*
X148951293Y-91342997D01*
X148971217Y-91314136D01*
X148987528Y-91282199D01*
X148995725Y-91261296D01*
X149002044Y-91241987D01*
X149006562Y-91224431D01*
X149009522Y-91207095D01*
X149011170Y-91188448D01*
X149011748Y-91166961D01*
X149011752Y-91160593D01*
X149011615Y-91121576D01*
X149027410Y-91119957D01*
X149043205Y-91118339D01*
X149060264Y-91129946D01*
X149077324Y-91141553D01*
X149078029Y-91164534D01*
X149076958Y-91196744D01*
X149072033Y-91230431D01*
X149063555Y-91264588D01*
X149051821Y-91298208D01*
X149037130Y-91330285D01*
X149020343Y-91358962D01*
X148995807Y-91391774D01*
X148967694Y-91421339D01*
X148936016Y-91447649D01*
X148900788Y-91470697D01*
X148862025Y-91490476D01*
X148819740Y-91506978D01*
X148773949Y-91520197D01*
X148724665Y-91530126D01*
X148671902Y-91536756D01*
X148665835Y-91537288D01*
X148646649Y-91538440D01*
X148623734Y-91539063D01*
X148598167Y-91539181D01*
X148571026Y-91538821D01*
X148543387Y-91538010D01*
X148516328Y-91536773D01*
X148490926Y-91535135D01*
X148468258Y-91533124D01*
X148461304Y-91532353D01*
X148384242Y-91521672D01*
X148306100Y-91507752D01*
X148227641Y-91490807D01*
X148149628Y-91471049D01*
X148072821Y-91448691D01*
X147997982Y-91423945D01*
X147925874Y-91397024D01*
X147857258Y-91368141D01*
X147832481Y-91356800D01*
X147772591Y-91327174D01*
X147715110Y-91295605D01*
X147660356Y-91262323D01*
X147608645Y-91227560D01*
X147560292Y-91191548D01*
X147515615Y-91154519D01*
X147474929Y-91116703D01*
X147438551Y-91078332D01*
X147416833Y-91052539D01*
X147406671Y-91040158D01*
X147399019Y-91031607D01*
X147393692Y-91026697D01*
X147390507Y-91025240D01*
X147390270Y-91025285D01*
X147380275Y-91027780D01*
X147366254Y-91030610D01*
X147348997Y-91033661D01*
X147329295Y-91036818D01*
X147307938Y-91039969D01*
X147285717Y-91042997D01*
X147263424Y-91045789D01*
X147241848Y-91048231D01*
X147221780Y-91050208D01*
X147212238Y-91051012D01*
X147191489Y-91052203D01*
X147168508Y-91052670D01*
X147142991Y-91052395D01*
X147114634Y-91051358D01*
X147083131Y-91049543D01*
X147048177Y-91046929D01*
X147009469Y-91043500D01*
X146966700Y-91039236D01*
X146919567Y-91034119D01*
X146905019Y-91032471D01*
X146837865Y-91024370D01*
X146766268Y-91014916D01*
X146690417Y-91004144D01*
X146610503Y-90992088D01*
X146526717Y-90978784D01*
X146439250Y-90964265D01*
X146348292Y-90948566D01*
X146254034Y-90931722D01*
X146156667Y-90913769D01*
X146056381Y-90894740D01*
X145953368Y-90874670D01*
X145847817Y-90853594D01*
X145739920Y-90831547D01*
X145629867Y-90808564D01*
X145517848Y-90784679D01*
X145404055Y-90759926D01*
X145384648Y-90755657D01*
X145363025Y-90750927D01*
X145342407Y-90746482D01*
X145323376Y-90742445D01*
X145306516Y-90738935D01*
X145292411Y-90736074D01*
X145281644Y-90733982D01*
X145274798Y-90732780D01*
X145273371Y-90732585D01*
X145254597Y-90732642D01*
X145234733Y-90736479D01*
X145215026Y-90743639D01*
X145196721Y-90753666D01*
X145181065Y-90766103D01*
X145180576Y-90766581D01*
X145173199Y-90775057D01*
X145164131Y-90787486D01*
X145153630Y-90803394D01*
X145141956Y-90822306D01*
X145129369Y-90843748D01*
X145116129Y-90867247D01*
X145102496Y-90892328D01*
X145088728Y-90918518D01*
X145075087Y-90945341D01*
X145061831Y-90972324D01*
X145049220Y-90998993D01*
X145037515Y-91024874D01*
X145031528Y-91038666D01*
X145012685Y-91085939D01*
X144997683Y-91130460D01*
X144986527Y-91172204D01*
X144979221Y-91211151D01*
X144975766Y-91247277D01*
X144976167Y-91280560D01*
X144980426Y-91310977D01*
X144988078Y-91337272D01*
X144994648Y-91351166D01*
X145003949Y-91366192D01*
X145014782Y-91380659D01*
X145025950Y-91392874D01*
X145030053Y-91396590D01*
X145040606Y-91404757D01*
X145052001Y-91411968D01*
X145064613Y-91418298D01*
X145078815Y-91423822D01*
X145094979Y-91428616D01*
X145113479Y-91432756D01*
X145134687Y-91436316D01*
X145158978Y-91439373D01*
X145186723Y-91442002D01*
X145218297Y-91444278D01*
X145254072Y-91446277D01*
X145281838Y-91447554D01*
X145295395Y-91448088D01*
X145313106Y-91448715D01*
X145334286Y-91449415D01*
X145358253Y-91450168D01*
X145384323Y-91450951D01*
X145411812Y-91451745D01*
X145440038Y-91452528D01*
X145468316Y-91453281D01*
X145482619Y-91453648D01*
X145555281Y-91455565D01*
X145623516Y-91457528D01*
X145687734Y-91459558D01*
X145748348Y-91461674D01*
X145805767Y-91463897D01*
X145860403Y-91466247D01*
X145912667Y-91468745D01*
X145962969Y-91471410D01*
X146011721Y-91474262D01*
X146059333Y-91477322D01*
X146106217Y-91480611D01*
X146152783Y-91484147D01*
X146199443Y-91487952D01*
X146224057Y-91490059D01*
X146328566Y-91499875D01*
X146429029Y-91510858D01*
X146526127Y-91523149D01*
X146620540Y-91536888D01*
X146712947Y-91552215D01*
X146804028Y-91569270D01*
X146894464Y-91588195D01*
X146984934Y-91609128D01*
X147076118Y-91632210D01*
X147168697Y-91657582D01*
X147263349Y-91685384D01*
X147360755Y-91715757D01*
X147434790Y-91739897D01*
X147473637Y-91752856D01*
X147509588Y-91765038D01*
X147543035Y-91776626D01*
X147574370Y-91787802D01*
X147603986Y-91798748D01*
X147632274Y-91809647D01*
X147659626Y-91820682D01*
X147686435Y-91832035D01*
X147713092Y-91843888D01*
X147739989Y-91856425D01*
X147767519Y-91869827D01*
X147796073Y-91884277D01*
X147826044Y-91899959D01*
X147857824Y-91917053D01*
X147891804Y-91935743D01*
X147928376Y-91956212D01*
X147967934Y-91978641D01*
X148010868Y-92003213D01*
X148055276Y-92028788D01*
X148089694Y-92048624D01*
X148120393Y-92066252D01*
X148147825Y-92081919D01*
X148172438Y-92095873D01*
X148194682Y-92108363D01*
X148215007Y-92119636D01*
X148233864Y-92129941D01*
X148251701Y-92139525D01*
X148268969Y-92148636D01*
X148286118Y-92157523D01*
X148303596Y-92166433D01*
X148318952Y-92174162D01*
X148363741Y-92196051D01*
X148405424Y-92215225D01*
X148444718Y-92231930D01*
X148482342Y-92246415D01*
X148519014Y-92258927D01*
X148555450Y-92269716D01*
X148592371Y-92279028D01*
X148630492Y-92287111D01*
X148663045Y-92292979D01*
X148703692Y-92299412D01*
X148741122Y-92304468D01*
X148776722Y-92308258D01*
X148811880Y-92310896D01*
X148847980Y-92312492D01*
X148886411Y-92313158D01*
X148912829Y-92313149D01*
X148931061Y-92313012D01*
X148948234Y-92312835D01*
X148963598Y-92312630D01*
X148976402Y-92312407D01*
X148985898Y-92312178D01*
X148991333Y-92311955D01*
X148991448Y-92311947D01*
X149053879Y-92305765D01*
X149115463Y-92296409D01*
X149175610Y-92284029D01*
X149233736Y-92268776D01*
X149289253Y-92250800D01*
X149341574Y-92230253D01*
X149381114Y-92211875D01*
X149439972Y-92179716D01*
X149497316Y-92143002D01*
X149553094Y-92101788D01*
X149607253Y-92056130D01*
X149659741Y-92006086D01*
X149710506Y-91951710D01*
X149759496Y-91893060D01*
X149806658Y-91830192D01*
X149851940Y-91763161D01*
X149895290Y-91692024D01*
X149936656Y-91616837D01*
X149939623Y-91611140D01*
X149964999Y-91559703D01*
X149988666Y-91506393D01*
X150010868Y-91450569D01*
X150031853Y-91391594D01*
X150051866Y-91328827D01*
X150063182Y-91290234D01*
X150068370Y-91272002D01*
X150236876Y-91204030D01*
X150263946Y-91193076D01*
X150289671Y-91182600D01*
X150313703Y-91172746D01*
X150335696Y-91163662D01*
X150355301Y-91155491D01*
X150372173Y-91148380D01*
X150385962Y-91142474D01*
X150396324Y-91137918D01*
X150402909Y-91134859D01*
X150405372Y-91133441D01*
X150405381Y-91133409D01*
X150403615Y-91131437D01*
X150398493Y-91126490D01*
X150390276Y-91118808D01*
X150379225Y-91108629D01*
X150365604Y-91096189D01*
X150349673Y-91081728D01*
X150331695Y-91065482D01*
X150311931Y-91047690D01*
X150290643Y-91028590D01*
X150268094Y-91008419D01*
X150250562Y-90992777D01*
X150095743Y-90854794D01*
X150085884Y-90827558D01*
X150066454Y-90779507D01*
X150043656Y-90733631D01*
X150017210Y-90689513D01*
X149986838Y-90646736D01*
X149952261Y-90604883D01*
X149913199Y-90563536D01*
X149901961Y-90552515D01*
X149855802Y-90511250D01*
X149806025Y-90473069D01*
X149752811Y-90438064D01*
X149696341Y-90406324D01*
X149636797Y-90377941D01*
X149574361Y-90353004D01*
X149509215Y-90331605D01*
X149441540Y-90313835D01*
X149409943Y-90306972D01*
X149379499Y-90301050D01*
X149352261Y-90296407D01*
X149326814Y-90292888D01*
X149301744Y-90290335D01*
X149275636Y-90288592D01*
X149247075Y-90287501D01*
X149230933Y-90287143D01*
X149198864Y-90286853D01*
X149170436Y-90287271D01*
D12*
X131440000Y-120700000D03*
X131350000Y-95380000D03*
X164660000Y-95240000D03*
D13*
X161005000Y-115800000D03*
X158295000Y-115800000D03*
X161005000Y-100200000D03*
X158295000Y-100200000D03*
X161005000Y-115400000D03*
X161005000Y-115000000D03*
X161005000Y-114600000D03*
X161005000Y-114200000D03*
X161005000Y-113800000D03*
X161005000Y-113400000D03*
X161005000Y-113000000D03*
X161005000Y-112600000D03*
X161005000Y-112200000D03*
X161005000Y-111800000D03*
X161005000Y-111400000D03*
X161005000Y-111000000D03*
X161005000Y-110600000D03*
X161005000Y-110200000D03*
X161005000Y-109800000D03*
X161005000Y-109400000D03*
X161005000Y-109000000D03*
X161005000Y-108600000D03*
X161005000Y-108200000D03*
X161005000Y-107800000D03*
X161005000Y-107400000D03*
X161005000Y-107000000D03*
X161005000Y-106600000D03*
X161005000Y-106200000D03*
X161005000Y-105800000D03*
X161005000Y-105400000D03*
X161005000Y-105000000D03*
X161005000Y-104600000D03*
X161005000Y-104200000D03*
X161005000Y-103800000D03*
X161005000Y-103400000D03*
X161005000Y-103000000D03*
X161005000Y-102600000D03*
X161005000Y-102200000D03*
X161005000Y-101800000D03*
X161005000Y-101400000D03*
X161005000Y-101000000D03*
X161005000Y-100600000D03*
D14*
X161005000Y-99725000D03*
X158295000Y-99725000D03*
X161005000Y-116275000D03*
X158295000Y-116275000D03*
D13*
X158295000Y-100600000D03*
X158295000Y-101000000D03*
X158295000Y-101400000D03*
X158295000Y-101800000D03*
X158295000Y-102200000D03*
X158295000Y-102600000D03*
X158295000Y-103000000D03*
X158295000Y-103400000D03*
X158295000Y-103800000D03*
X158295000Y-104200000D03*
X158295000Y-104600000D03*
X158295000Y-105000000D03*
X158295000Y-105400000D03*
X158295000Y-105800000D03*
X158295000Y-106200000D03*
X158295000Y-106600000D03*
X158295000Y-107000000D03*
X158295000Y-107400000D03*
X158295000Y-107800000D03*
X158295000Y-108200000D03*
X158295000Y-108600000D03*
X158295000Y-109000000D03*
X158295000Y-109400000D03*
X158295000Y-109800000D03*
X158295000Y-110200000D03*
X158295000Y-110600000D03*
X158295000Y-111000000D03*
X158295000Y-111400000D03*
X158295000Y-111800000D03*
X158295000Y-112200000D03*
X158295000Y-112600000D03*
X158295000Y-113000000D03*
X158295000Y-113400000D03*
X158295000Y-113800000D03*
X158295000Y-114200000D03*
X158295000Y-114600000D03*
X158295000Y-115000000D03*
X158295000Y-115400000D03*
D15*
X156250000Y-95900000D03*
X158150000Y-95900000D03*
D16*
X158712500Y-92862500D03*
X158712500Y-93362500D03*
X158712500Y-93862500D03*
X158712500Y-94362500D03*
X155812500Y-94362500D03*
X155812500Y-93862500D03*
X155812500Y-93362500D03*
X155812500Y-92862500D03*
D17*
X156825000Y-93975000D03*
X156825000Y-93250000D03*
X157700000Y-93975000D03*
X157700000Y-93250000D03*
D18*
X156550000Y-91200000D03*
X154350000Y-91200000D03*
D19*
X158550000Y-91250000D03*
D20*
X143180000Y-121090000D03*
D21*
X145720000Y-121090000D03*
X148260000Y-121090000D03*
X150800000Y-121090000D03*
D22*
X150850000Y-111180000D03*
D23*
X148310000Y-111180000D03*
X150850000Y-108640000D03*
X148310000Y-108640000D03*
X150850000Y-106100000D03*
X148310000Y-106100000D03*
X150850000Y-103560000D03*
X148310000Y-103560000D03*
X150850000Y-101020000D03*
X148310000Y-101020000D03*
X150850000Y-98480000D03*
X148310000Y-98480000D03*
D24*
X140800000Y-92060000D03*
D25*
X140800000Y-94600000D03*
D26*
X152780000Y-96290000D03*
X152780000Y-98490000D03*
D19*
X153900000Y-121800000D03*
M02*
