G04 #@! TF.FileFunction,Copper,L1,Top,Signal*
%FSLAX46Y46*%
G04 Gerber Fmt 4.6, Leading zero omitted, Abs format (unit mm)*
G04 Created by KiCad (PCBNEW 4.0.1-stable) date Tuesday, March 08, 2016 'PMt' 12:04:07 PM*
%MOMM*%
G01*
G04 APERTURE LIST*
%ADD10C,0.100000*%
%ADD11C,0.010000*%
%ADD12C,1.000000*%
%ADD13O,0.280000X0.990000*%
%ADD14O,0.990000X0.280000*%
%ADD15R,2.050000X2.050000*%
%ADD16R,1.501140X0.398780*%
%ADD17R,1.600000X2.000000*%
%ADD18R,0.600000X0.700000*%
%ADD19R,1.727200X2.032000*%
%ADD20O,1.727200X2.032000*%
%ADD21R,1.727200X1.727200*%
%ADD22O,1.727200X1.727200*%
%ADD23R,2.032000X2.032000*%
%ADD24O,2.032000X2.032000*%
%ADD25R,0.800100X1.800860*%
%ADD26R,0.700000X0.200000*%
%ADD27C,1.524000*%
%ADD28C,0.685800*%
%ADD29C,0.685801*%
%ADD30C,0.152400*%
%ADD31C,0.254000*%
G04 APERTURE END LIST*
D10*
D11*
G36*
X136947890Y-121603476D02*
X136969607Y-121603821D01*
X136988555Y-121604540D01*
X137005765Y-121605719D01*
X137022270Y-121607441D01*
X137039101Y-121609790D01*
X137057292Y-121612850D01*
X137072352Y-121615645D01*
X137112711Y-121624396D01*
X137154606Y-121635414D01*
X137196059Y-121648125D01*
X137235093Y-121661957D01*
X137242895Y-121664990D01*
X137272503Y-121676780D01*
X137301560Y-121688531D01*
X137330332Y-121700368D01*
X137359083Y-121712414D01*
X137388081Y-121724793D01*
X137417591Y-121737628D01*
X137447879Y-121751043D01*
X137479210Y-121765162D01*
X137511851Y-121780109D01*
X137546067Y-121796008D01*
X137582124Y-121812981D01*
X137620288Y-121831153D01*
X137660824Y-121850648D01*
X137703999Y-121871589D01*
X137750078Y-121894100D01*
X137799327Y-121918305D01*
X137852013Y-121944327D01*
X137908399Y-121972290D01*
X137968754Y-122002318D01*
X137984333Y-122010083D01*
X138036341Y-122035963D01*
X138084400Y-122059774D01*
X138128855Y-122081675D01*
X138170050Y-122101825D01*
X138208331Y-122120383D01*
X138244043Y-122137509D01*
X138277531Y-122153361D01*
X138309140Y-122168099D01*
X138339214Y-122181882D01*
X138368099Y-122194869D01*
X138396140Y-122207221D01*
X138423682Y-122219095D01*
X138451069Y-122230651D01*
X138478648Y-122242048D01*
X138506761Y-122253446D01*
X138535756Y-122265004D01*
X138541784Y-122267386D01*
X138559241Y-122274341D01*
X138575202Y-122280833D01*
X138589121Y-122286627D01*
X138600450Y-122291492D01*
X138608645Y-122295195D01*
X138613158Y-122297503D01*
X138613869Y-122298075D01*
X138612563Y-122300832D01*
X138608180Y-122306251D01*
X138601270Y-122313795D01*
X138592385Y-122322924D01*
X138582075Y-122333099D01*
X138570890Y-122343782D01*
X138559380Y-122354433D01*
X138548096Y-122364515D01*
X138537588Y-122373487D01*
X138533204Y-122377062D01*
X138482211Y-122415188D01*
X138426855Y-122451379D01*
X138367225Y-122485598D01*
X138303406Y-122517810D01*
X138235487Y-122547978D01*
X138163555Y-122576066D01*
X138087696Y-122602040D01*
X138007998Y-122625862D01*
X137924549Y-122647496D01*
X137837435Y-122666907D01*
X137823467Y-122669744D01*
X137763669Y-122680927D01*
X137707688Y-122689711D01*
X137655154Y-122696122D01*
X137605698Y-122700187D01*
X137558950Y-122701931D01*
X137514542Y-122701382D01*
X137472103Y-122698567D01*
X137452375Y-122696425D01*
X137407479Y-122689163D01*
X137366093Y-122678835D01*
X137328274Y-122665475D01*
X137294079Y-122649116D01*
X137263565Y-122629792D01*
X137236788Y-122607535D01*
X137213805Y-122582379D01*
X137194673Y-122554357D01*
X137187520Y-122541186D01*
X137178869Y-122522070D01*
X137171870Y-122501992D01*
X137166258Y-122479947D01*
X137161770Y-122454928D01*
X137158778Y-122431810D01*
X137157017Y-122416104D01*
X137109847Y-122411992D01*
X137095104Y-122410714D01*
X137081916Y-122409583D01*
X137071079Y-122408667D01*
X137063388Y-122408033D01*
X137059639Y-122407747D01*
X137059510Y-122407741D01*
X137057469Y-122406313D01*
X137057773Y-122405286D01*
X137056528Y-122404251D01*
X137051914Y-122403987D01*
X137045321Y-122404379D01*
X137038137Y-122405312D01*
X137031751Y-122406672D01*
X137028810Y-122407675D01*
X137025033Y-122408715D01*
X137017280Y-122410402D01*
X137006345Y-122412577D01*
X136993022Y-122415085D01*
X136978107Y-122417768D01*
X136974381Y-122418420D01*
X136918505Y-122427682D01*
X136865420Y-122435481D01*
X136813382Y-122442048D01*
X136760652Y-122447618D01*
X136744571Y-122449116D01*
X136729191Y-122450209D01*
X136710536Y-122451055D01*
X136689533Y-122451653D01*
X136667109Y-122452003D01*
X136644192Y-122452105D01*
X136621706Y-122451958D01*
X136600581Y-122451562D01*
X136581741Y-122450917D01*
X136566114Y-122450022D01*
X136557095Y-122449190D01*
X136507156Y-122442570D01*
X136458568Y-122434418D01*
X136410046Y-122424468D01*
X136360304Y-122412450D01*
X136308055Y-122398096D01*
X136297445Y-122394996D01*
X136281948Y-122390341D01*
X136270529Y-122386674D01*
X136262586Y-122383756D01*
X136257514Y-122381346D01*
X136254714Y-122379204D01*
X136253722Y-122377578D01*
X136253066Y-122374072D01*
X136251989Y-122366328D01*
X136250557Y-122354920D01*
X136248841Y-122340422D01*
X136246906Y-122323409D01*
X136244823Y-122304456D01*
X136242704Y-122284582D01*
X136240241Y-122260806D01*
X136238316Y-122241429D01*
X136236901Y-122226043D01*
X136235968Y-122214244D01*
X136235489Y-122205623D01*
X136235436Y-122199776D01*
X136235783Y-122196294D01*
X136236500Y-122194773D01*
X136236565Y-122194728D01*
X136240819Y-122193159D01*
X136247571Y-122191623D01*
X136249605Y-122191280D01*
X136257317Y-122189889D01*
X136269009Y-122187518D01*
X136283961Y-122184332D01*
X136301451Y-122180495D01*
X136320760Y-122176171D01*
X136341165Y-122171523D01*
X136361946Y-122166716D01*
X136382383Y-122161914D01*
X136401754Y-122157280D01*
X136419339Y-122152979D01*
X136432514Y-122149664D01*
X136502888Y-122130903D01*
X136568710Y-122111815D01*
X136630260Y-122092305D01*
X136687819Y-122072280D01*
X136741666Y-122051646D01*
X136792082Y-122030309D01*
X136800210Y-122026661D01*
X136848672Y-122003036D01*
X136898023Y-121975787D01*
X136947083Y-121945663D01*
X136994673Y-121913417D01*
X137039616Y-121879797D01*
X137069933Y-121854939D01*
X137082045Y-121844405D01*
X137094616Y-121833151D01*
X137107155Y-121821653D01*
X137119170Y-121810384D01*
X137130171Y-121799818D01*
X137139665Y-121790429D01*
X137147161Y-121782691D01*
X137152168Y-121777077D01*
X137154194Y-121774062D01*
X137154151Y-121773738D01*
X137150610Y-121771991D01*
X137143091Y-121769332D01*
X137132321Y-121765973D01*
X137119025Y-121762129D01*
X137103931Y-121758015D01*
X137087765Y-121753845D01*
X137080819Y-121752125D01*
X137032885Y-121742245D01*
X136984747Y-121736066D01*
X136935937Y-121733600D01*
X136885987Y-121734860D01*
X136834427Y-121739857D01*
X136780790Y-121748605D01*
X136724605Y-121761115D01*
X136723269Y-121761449D01*
X136666150Y-121777728D01*
X136611384Y-121797221D01*
X136559173Y-121819771D01*
X136509722Y-121845220D01*
X136463232Y-121873411D01*
X136419907Y-121904186D01*
X136379950Y-121937388D01*
X136343562Y-121972858D01*
X136310948Y-122010440D01*
X136282311Y-122049977D01*
X136257852Y-122091309D01*
X136237775Y-122134281D01*
X136235373Y-122140296D01*
X136227804Y-122159648D01*
X136126354Y-122256202D01*
X136107831Y-122273846D01*
X136090380Y-122290497D01*
X136074311Y-122305857D01*
X136059936Y-122319627D01*
X136047566Y-122331508D01*
X136037512Y-122341202D01*
X136030085Y-122348409D01*
X136025596Y-122352832D01*
X136024324Y-122354174D01*
X136026351Y-122355404D01*
X136032387Y-122358401D01*
X136042016Y-122362971D01*
X136054824Y-122368924D01*
X136070395Y-122376069D01*
X136088314Y-122384213D01*
X136108164Y-122393165D01*
X136129531Y-122402735D01*
X136134640Y-122405013D01*
X136245536Y-122454436D01*
X136257083Y-122495728D01*
X136262641Y-122514900D01*
X136269390Y-122537059D01*
X136276912Y-122560919D01*
X136284791Y-122585195D01*
X136292611Y-122608602D01*
X136299953Y-122629855D01*
X136306122Y-122646919D01*
X136309858Y-122656304D01*
X136312957Y-122662115D01*
X136316150Y-122665417D01*
X136320055Y-122667241D01*
X136325062Y-122668040D01*
X136334196Y-122668683D01*
X136346750Y-122669172D01*
X136362014Y-122669507D01*
X136379280Y-122669690D01*
X136397842Y-122669724D01*
X136416989Y-122669608D01*
X136436014Y-122669345D01*
X136454209Y-122668937D01*
X136470866Y-122668384D01*
X136485276Y-122667689D01*
X136496619Y-122666863D01*
X136608351Y-122654774D01*
X136676838Y-122645603D01*
X136706132Y-122641189D01*
X136731379Y-122636868D01*
X136753360Y-122632428D01*
X136772857Y-122627653D01*
X136790651Y-122622331D01*
X136807523Y-122616246D01*
X136824255Y-122609184D01*
X136841628Y-122600933D01*
X136843752Y-122599873D01*
X136882076Y-122578252D01*
X136919659Y-122552307D01*
X136955869Y-122522553D01*
X136990073Y-122489502D01*
X137017363Y-122458880D01*
X137030019Y-122443635D01*
X137030019Y-122451987D01*
X137030712Y-122462188D01*
X137032625Y-122475800D01*
X137035512Y-122491624D01*
X137039127Y-122508462D01*
X137043222Y-122525114D01*
X137047550Y-122540381D01*
X137049405Y-122546173D01*
X137065445Y-122586904D01*
X137085322Y-122624716D01*
X137108978Y-122659558D01*
X137136350Y-122691374D01*
X137167380Y-122720111D01*
X137202006Y-122745717D01*
X137240168Y-122768137D01*
X137281805Y-122787319D01*
X137326857Y-122803209D01*
X137346914Y-122808923D01*
X137382741Y-122817339D01*
X137419615Y-122823721D01*
X137458407Y-122828166D01*
X137499988Y-122830775D01*
X137545228Y-122831646D01*
X137546486Y-122831647D01*
X137581578Y-122831229D01*
X137615663Y-122829929D01*
X137649533Y-122827658D01*
X137683982Y-122824326D01*
X137719803Y-122819845D01*
X137757790Y-122814126D01*
X137798735Y-122807080D01*
X137843433Y-122798618D01*
X137846448Y-122798025D01*
X137931094Y-122779934D01*
X138013037Y-122759615D01*
X138092112Y-122737142D01*
X138168153Y-122712591D01*
X138240995Y-122686036D01*
X138310474Y-122657553D01*
X138376424Y-122627216D01*
X138438680Y-122595101D01*
X138497077Y-122561282D01*
X138551450Y-122525834D01*
X138601633Y-122488833D01*
X138647462Y-122450352D01*
X138679810Y-122419632D01*
X138690875Y-122408214D01*
X138702189Y-122396029D01*
X138712638Y-122384311D01*
X138721104Y-122374294D01*
X138723352Y-122371469D01*
X138730273Y-122362594D01*
X138736408Y-122354754D01*
X138740943Y-122348989D01*
X138742705Y-122346775D01*
X138744587Y-122344749D01*
X138746870Y-122343686D01*
X138750577Y-122343591D01*
X138756727Y-122344470D01*
X138766345Y-122346329D01*
X138769314Y-122346929D01*
X138840473Y-122358886D01*
X138912069Y-122366051D01*
X138984224Y-122368432D01*
X139057057Y-122366035D01*
X139068067Y-122365262D01*
X139125880Y-122360415D01*
X139188159Y-122354221D01*
X139254730Y-122346710D01*
X139325420Y-122337912D01*
X139400056Y-122327858D01*
X139478464Y-122316576D01*
X139560473Y-122304097D01*
X139645908Y-122290450D01*
X139734598Y-122275667D01*
X139826368Y-122259776D01*
X139921045Y-122242808D01*
X140018458Y-122224792D01*
X140118432Y-122205758D01*
X140220795Y-122185737D01*
X140325373Y-122164759D01*
X140431995Y-122142852D01*
X140540485Y-122120048D01*
X140650672Y-122096376D01*
X140755352Y-122073423D01*
X140785862Y-122066666D01*
X140812069Y-122060983D01*
X140834406Y-122056466D01*
X140853307Y-122053208D01*
X140869208Y-122051300D01*
X140882541Y-122050835D01*
X140893740Y-122051905D01*
X140903240Y-122054603D01*
X140911475Y-122059020D01*
X140918879Y-122065249D01*
X140925886Y-122073382D01*
X140932929Y-122083511D01*
X140940443Y-122095729D01*
X140948862Y-122110128D01*
X140951797Y-122115174D01*
X140977352Y-122160278D01*
X141001306Y-122205021D01*
X141023386Y-122248833D01*
X141043323Y-122291142D01*
X141060844Y-122331379D01*
X141075680Y-122368973D01*
X141085187Y-122396018D01*
X141095789Y-122431958D01*
X141103137Y-122465498D01*
X141107251Y-122496481D01*
X141108150Y-122524750D01*
X141105853Y-122550150D01*
X141100378Y-122572523D01*
X141091744Y-122591713D01*
X141079969Y-122607563D01*
X141065074Y-122619917D01*
X141057857Y-122624043D01*
X141050908Y-122627306D01*
X141043331Y-122630302D01*
X141034879Y-122633051D01*
X141025307Y-122635572D01*
X141014372Y-122637884D01*
X141001826Y-122640007D01*
X140987427Y-122641960D01*
X140970927Y-122643761D01*
X140952084Y-122645431D01*
X140930650Y-122646989D01*
X140906383Y-122648454D01*
X140879035Y-122649845D01*
X140848363Y-122651181D01*
X140814121Y-122652483D01*
X140776065Y-122653769D01*
X140733949Y-122655058D01*
X140687529Y-122656370D01*
X140636558Y-122657724D01*
X140627143Y-122657967D01*
X140543433Y-122660256D01*
X140464179Y-122662711D01*
X140388999Y-122665352D01*
X140317513Y-122668202D01*
X140249340Y-122671281D01*
X140184099Y-122674609D01*
X140121411Y-122678209D01*
X140060893Y-122682101D01*
X140002165Y-122686306D01*
X139944847Y-122690846D01*
X139888558Y-122695740D01*
X139832917Y-122701011D01*
X139814343Y-122702866D01*
X139726092Y-122712350D01*
X139640744Y-122722702D01*
X139557787Y-122734038D01*
X139476707Y-122746474D01*
X139396991Y-122760127D01*
X139318125Y-122775112D01*
X139239598Y-122791546D01*
X139160894Y-122809545D01*
X139081502Y-122829225D01*
X139000908Y-122850703D01*
X138918599Y-122874095D01*
X138834062Y-122899516D01*
X138746783Y-122927083D01*
X138656249Y-122956912D01*
X138584257Y-122981406D01*
X138550067Y-122993412D01*
X138517474Y-123005361D01*
X138486018Y-123017474D01*
X138455241Y-123029971D01*
X138424683Y-123043070D01*
X138393886Y-123056991D01*
X138362390Y-123071955D01*
X138329736Y-123088180D01*
X138295466Y-123105887D01*
X138259120Y-123125295D01*
X138220239Y-123146623D01*
X138178365Y-123170092D01*
X138133038Y-123195920D01*
X138118590Y-123204224D01*
X138078393Y-123227353D01*
X138042070Y-123248218D01*
X138009315Y-123266989D01*
X137979820Y-123283834D01*
X137953279Y-123298923D01*
X137929386Y-123312425D01*
X137907832Y-123324510D01*
X137888311Y-123335347D01*
X137870516Y-123345105D01*
X137854140Y-123353953D01*
X137838876Y-123362061D01*
X137824417Y-123369598D01*
X137810457Y-123376734D01*
X137796687Y-123383637D01*
X137782802Y-123390478D01*
X137768494Y-123397425D01*
X137767239Y-123398031D01*
X137720995Y-123419588D01*
X137677371Y-123438276D01*
X137635428Y-123454365D01*
X137594223Y-123468123D01*
X137552818Y-123479819D01*
X137510270Y-123489722D01*
X137465639Y-123498101D01*
X137417985Y-123505226D01*
X137373524Y-123510592D01*
X137345419Y-123513170D01*
X137313913Y-123515200D01*
X137280417Y-123516643D01*
X137246340Y-123517463D01*
X137213094Y-123517622D01*
X137182088Y-123517082D01*
X137161857Y-123516234D01*
X137107311Y-123511679D01*
X137052141Y-123504053D01*
X136997162Y-123493561D01*
X136943189Y-123480409D01*
X136891036Y-123464801D01*
X136841518Y-123446941D01*
X136795451Y-123427036D01*
X136783034Y-123421000D01*
X136727505Y-123390655D01*
X136673181Y-123355709D01*
X136620159Y-123316270D01*
X136568534Y-123272446D01*
X136518402Y-123224345D01*
X136469859Y-123172076D01*
X136423001Y-123115746D01*
X136377924Y-123055465D01*
X136334723Y-122991339D01*
X136293495Y-122923477D01*
X136254335Y-122851987D01*
X136223415Y-122789852D01*
X136210840Y-122762482D01*
X136198757Y-122734118D01*
X136186818Y-122703873D01*
X136174676Y-122670861D01*
X136161984Y-122634197D01*
X136159005Y-122625315D01*
X136153746Y-122609237D01*
X136148189Y-122591690D01*
X136142577Y-122573490D01*
X136137149Y-122555456D01*
X136132149Y-122538405D01*
X136127818Y-122523156D01*
X136124397Y-122510525D01*
X136122129Y-122501330D01*
X136121573Y-122498669D01*
X136120086Y-122490741D01*
X135979779Y-122434122D01*
X135955107Y-122424148D01*
X135931788Y-122414687D01*
X135910205Y-122405897D01*
X135890741Y-122397934D01*
X135873781Y-122390958D01*
X135859707Y-122385125D01*
X135848904Y-122380595D01*
X135841754Y-122377524D01*
X135838641Y-122376070D01*
X135838539Y-122375993D01*
X135840144Y-122374176D01*
X135845082Y-122369406D01*
X135853071Y-122361941D01*
X135863825Y-122352039D01*
X135877061Y-122339960D01*
X135892494Y-122325962D01*
X135909841Y-122310303D01*
X135928816Y-122293243D01*
X135949137Y-122275039D01*
X135966539Y-122259499D01*
X135991236Y-122237467D01*
X136012571Y-122218409D01*
X136030798Y-122202080D01*
X136046170Y-122188239D01*
X136058940Y-122176642D01*
X136069361Y-122167046D01*
X136077686Y-122159209D01*
X136084169Y-122152887D01*
X136089062Y-122147839D01*
X136092619Y-122143820D01*
X136095092Y-122140588D01*
X136096736Y-122137901D01*
X136097802Y-122135515D01*
X136098545Y-122133187D01*
X136098671Y-122132730D01*
X136103066Y-122118639D01*
X136109307Y-122101530D01*
X136116899Y-122082617D01*
X136125342Y-122063114D01*
X136134141Y-122044235D01*
X136138663Y-122035123D01*
X136160913Y-121995208D01*
X136186441Y-121956722D01*
X136215714Y-121919028D01*
X136249199Y-121881488D01*
X136258212Y-121872125D01*
X136296275Y-121835413D01*
X136335552Y-121802167D01*
X136376870Y-121771793D01*
X136421052Y-121743696D01*
X136468924Y-121717283D01*
X136483314Y-121710002D01*
X136529980Y-121688147D01*
X136576618Y-121669060D01*
X136624071Y-121652485D01*
X136673182Y-121638166D01*
X136724792Y-121625846D01*
X136779745Y-121615269D01*
X136811609Y-121610116D01*
X136825211Y-121608114D01*
X136837093Y-121606560D01*
X136848213Y-121605397D01*
X136859528Y-121604566D01*
X136871995Y-121604011D01*
X136886570Y-121603672D01*
X136904211Y-121603493D01*
X136922371Y-121603423D01*
X136947890Y-121603476D01*
X136947890Y-121603476D01*
G37*
X136947890Y-121603476D02*
X136969607Y-121603821D01*
X136988555Y-121604540D01*
X137005765Y-121605719D01*
X137022270Y-121607441D01*
X137039101Y-121609790D01*
X137057292Y-121612850D01*
X137072352Y-121615645D01*
X137112711Y-121624396D01*
X137154606Y-121635414D01*
X137196059Y-121648125D01*
X137235093Y-121661957D01*
X137242895Y-121664990D01*
X137272503Y-121676780D01*
X137301560Y-121688531D01*
X137330332Y-121700368D01*
X137359083Y-121712414D01*
X137388081Y-121724793D01*
X137417591Y-121737628D01*
X137447879Y-121751043D01*
X137479210Y-121765162D01*
X137511851Y-121780109D01*
X137546067Y-121796008D01*
X137582124Y-121812981D01*
X137620288Y-121831153D01*
X137660824Y-121850648D01*
X137703999Y-121871589D01*
X137750078Y-121894100D01*
X137799327Y-121918305D01*
X137852013Y-121944327D01*
X137908399Y-121972290D01*
X137968754Y-122002318D01*
X137984333Y-122010083D01*
X138036341Y-122035963D01*
X138084400Y-122059774D01*
X138128855Y-122081675D01*
X138170050Y-122101825D01*
X138208331Y-122120383D01*
X138244043Y-122137509D01*
X138277531Y-122153361D01*
X138309140Y-122168099D01*
X138339214Y-122181882D01*
X138368099Y-122194869D01*
X138396140Y-122207221D01*
X138423682Y-122219095D01*
X138451069Y-122230651D01*
X138478648Y-122242048D01*
X138506761Y-122253446D01*
X138535756Y-122265004D01*
X138541784Y-122267386D01*
X138559241Y-122274341D01*
X138575202Y-122280833D01*
X138589121Y-122286627D01*
X138600450Y-122291492D01*
X138608645Y-122295195D01*
X138613158Y-122297503D01*
X138613869Y-122298075D01*
X138612563Y-122300832D01*
X138608180Y-122306251D01*
X138601270Y-122313795D01*
X138592385Y-122322924D01*
X138582075Y-122333099D01*
X138570890Y-122343782D01*
X138559380Y-122354433D01*
X138548096Y-122364515D01*
X138537588Y-122373487D01*
X138533204Y-122377062D01*
X138482211Y-122415188D01*
X138426855Y-122451379D01*
X138367225Y-122485598D01*
X138303406Y-122517810D01*
X138235487Y-122547978D01*
X138163555Y-122576066D01*
X138087696Y-122602040D01*
X138007998Y-122625862D01*
X137924549Y-122647496D01*
X137837435Y-122666907D01*
X137823467Y-122669744D01*
X137763669Y-122680927D01*
X137707688Y-122689711D01*
X137655154Y-122696122D01*
X137605698Y-122700187D01*
X137558950Y-122701931D01*
X137514542Y-122701382D01*
X137472103Y-122698567D01*
X137452375Y-122696425D01*
X137407479Y-122689163D01*
X137366093Y-122678835D01*
X137328274Y-122665475D01*
X137294079Y-122649116D01*
X137263565Y-122629792D01*
X137236788Y-122607535D01*
X137213805Y-122582379D01*
X137194673Y-122554357D01*
X137187520Y-122541186D01*
X137178869Y-122522070D01*
X137171870Y-122501992D01*
X137166258Y-122479947D01*
X137161770Y-122454928D01*
X137158778Y-122431810D01*
X137157017Y-122416104D01*
X137109847Y-122411992D01*
X137095104Y-122410714D01*
X137081916Y-122409583D01*
X137071079Y-122408667D01*
X137063388Y-122408033D01*
X137059639Y-122407747D01*
X137059510Y-122407741D01*
X137057469Y-122406313D01*
X137057773Y-122405286D01*
X137056528Y-122404251D01*
X137051914Y-122403987D01*
X137045321Y-122404379D01*
X137038137Y-122405312D01*
X137031751Y-122406672D01*
X137028810Y-122407675D01*
X137025033Y-122408715D01*
X137017280Y-122410402D01*
X137006345Y-122412577D01*
X136993022Y-122415085D01*
X136978107Y-122417768D01*
X136974381Y-122418420D01*
X136918505Y-122427682D01*
X136865420Y-122435481D01*
X136813382Y-122442048D01*
X136760652Y-122447618D01*
X136744571Y-122449116D01*
X136729191Y-122450209D01*
X136710536Y-122451055D01*
X136689533Y-122451653D01*
X136667109Y-122452003D01*
X136644192Y-122452105D01*
X136621706Y-122451958D01*
X136600581Y-122451562D01*
X136581741Y-122450917D01*
X136566114Y-122450022D01*
X136557095Y-122449190D01*
X136507156Y-122442570D01*
X136458568Y-122434418D01*
X136410046Y-122424468D01*
X136360304Y-122412450D01*
X136308055Y-122398096D01*
X136297445Y-122394996D01*
X136281948Y-122390341D01*
X136270529Y-122386674D01*
X136262586Y-122383756D01*
X136257514Y-122381346D01*
X136254714Y-122379204D01*
X136253722Y-122377578D01*
X136253066Y-122374072D01*
X136251989Y-122366328D01*
X136250557Y-122354920D01*
X136248841Y-122340422D01*
X136246906Y-122323409D01*
X136244823Y-122304456D01*
X136242704Y-122284582D01*
X136240241Y-122260806D01*
X136238316Y-122241429D01*
X136236901Y-122226043D01*
X136235968Y-122214244D01*
X136235489Y-122205623D01*
X136235436Y-122199776D01*
X136235783Y-122196294D01*
X136236500Y-122194773D01*
X136236565Y-122194728D01*
X136240819Y-122193159D01*
X136247571Y-122191623D01*
X136249605Y-122191280D01*
X136257317Y-122189889D01*
X136269009Y-122187518D01*
X136283961Y-122184332D01*
X136301451Y-122180495D01*
X136320760Y-122176171D01*
X136341165Y-122171523D01*
X136361946Y-122166716D01*
X136382383Y-122161914D01*
X136401754Y-122157280D01*
X136419339Y-122152979D01*
X136432514Y-122149664D01*
X136502888Y-122130903D01*
X136568710Y-122111815D01*
X136630260Y-122092305D01*
X136687819Y-122072280D01*
X136741666Y-122051646D01*
X136792082Y-122030309D01*
X136800210Y-122026661D01*
X136848672Y-122003036D01*
X136898023Y-121975787D01*
X136947083Y-121945663D01*
X136994673Y-121913417D01*
X137039616Y-121879797D01*
X137069933Y-121854939D01*
X137082045Y-121844405D01*
X137094616Y-121833151D01*
X137107155Y-121821653D01*
X137119170Y-121810384D01*
X137130171Y-121799818D01*
X137139665Y-121790429D01*
X137147161Y-121782691D01*
X137152168Y-121777077D01*
X137154194Y-121774062D01*
X137154151Y-121773738D01*
X137150610Y-121771991D01*
X137143091Y-121769332D01*
X137132321Y-121765973D01*
X137119025Y-121762129D01*
X137103931Y-121758015D01*
X137087765Y-121753845D01*
X137080819Y-121752125D01*
X137032885Y-121742245D01*
X136984747Y-121736066D01*
X136935937Y-121733600D01*
X136885987Y-121734860D01*
X136834427Y-121739857D01*
X136780790Y-121748605D01*
X136724605Y-121761115D01*
X136723269Y-121761449D01*
X136666150Y-121777728D01*
X136611384Y-121797221D01*
X136559173Y-121819771D01*
X136509722Y-121845220D01*
X136463232Y-121873411D01*
X136419907Y-121904186D01*
X136379950Y-121937388D01*
X136343562Y-121972858D01*
X136310948Y-122010440D01*
X136282311Y-122049977D01*
X136257852Y-122091309D01*
X136237775Y-122134281D01*
X136235373Y-122140296D01*
X136227804Y-122159648D01*
X136126354Y-122256202D01*
X136107831Y-122273846D01*
X136090380Y-122290497D01*
X136074311Y-122305857D01*
X136059936Y-122319627D01*
X136047566Y-122331508D01*
X136037512Y-122341202D01*
X136030085Y-122348409D01*
X136025596Y-122352832D01*
X136024324Y-122354174D01*
X136026351Y-122355404D01*
X136032387Y-122358401D01*
X136042016Y-122362971D01*
X136054824Y-122368924D01*
X136070395Y-122376069D01*
X136088314Y-122384213D01*
X136108164Y-122393165D01*
X136129531Y-122402735D01*
X136134640Y-122405013D01*
X136245536Y-122454436D01*
X136257083Y-122495728D01*
X136262641Y-122514900D01*
X136269390Y-122537059D01*
X136276912Y-122560919D01*
X136284791Y-122585195D01*
X136292611Y-122608602D01*
X136299953Y-122629855D01*
X136306122Y-122646919D01*
X136309858Y-122656304D01*
X136312957Y-122662115D01*
X136316150Y-122665417D01*
X136320055Y-122667241D01*
X136325062Y-122668040D01*
X136334196Y-122668683D01*
X136346750Y-122669172D01*
X136362014Y-122669507D01*
X136379280Y-122669690D01*
X136397842Y-122669724D01*
X136416989Y-122669608D01*
X136436014Y-122669345D01*
X136454209Y-122668937D01*
X136470866Y-122668384D01*
X136485276Y-122667689D01*
X136496619Y-122666863D01*
X136608351Y-122654774D01*
X136676838Y-122645603D01*
X136706132Y-122641189D01*
X136731379Y-122636868D01*
X136753360Y-122632428D01*
X136772857Y-122627653D01*
X136790651Y-122622331D01*
X136807523Y-122616246D01*
X136824255Y-122609184D01*
X136841628Y-122600933D01*
X136843752Y-122599873D01*
X136882076Y-122578252D01*
X136919659Y-122552307D01*
X136955869Y-122522553D01*
X136990073Y-122489502D01*
X137017363Y-122458880D01*
X137030019Y-122443635D01*
X137030019Y-122451987D01*
X137030712Y-122462188D01*
X137032625Y-122475800D01*
X137035512Y-122491624D01*
X137039127Y-122508462D01*
X137043222Y-122525114D01*
X137047550Y-122540381D01*
X137049405Y-122546173D01*
X137065445Y-122586904D01*
X137085322Y-122624716D01*
X137108978Y-122659558D01*
X137136350Y-122691374D01*
X137167380Y-122720111D01*
X137202006Y-122745717D01*
X137240168Y-122768137D01*
X137281805Y-122787319D01*
X137326857Y-122803209D01*
X137346914Y-122808923D01*
X137382741Y-122817339D01*
X137419615Y-122823721D01*
X137458407Y-122828166D01*
X137499988Y-122830775D01*
X137545228Y-122831646D01*
X137546486Y-122831647D01*
X137581578Y-122831229D01*
X137615663Y-122829929D01*
X137649533Y-122827658D01*
X137683982Y-122824326D01*
X137719803Y-122819845D01*
X137757790Y-122814126D01*
X137798735Y-122807080D01*
X137843433Y-122798618D01*
X137846448Y-122798025D01*
X137931094Y-122779934D01*
X138013037Y-122759615D01*
X138092112Y-122737142D01*
X138168153Y-122712591D01*
X138240995Y-122686036D01*
X138310474Y-122657553D01*
X138376424Y-122627216D01*
X138438680Y-122595101D01*
X138497077Y-122561282D01*
X138551450Y-122525834D01*
X138601633Y-122488833D01*
X138647462Y-122450352D01*
X138679810Y-122419632D01*
X138690875Y-122408214D01*
X138702189Y-122396029D01*
X138712638Y-122384311D01*
X138721104Y-122374294D01*
X138723352Y-122371469D01*
X138730273Y-122362594D01*
X138736408Y-122354754D01*
X138740943Y-122348989D01*
X138742705Y-122346775D01*
X138744587Y-122344749D01*
X138746870Y-122343686D01*
X138750577Y-122343591D01*
X138756727Y-122344470D01*
X138766345Y-122346329D01*
X138769314Y-122346929D01*
X138840473Y-122358886D01*
X138912069Y-122366051D01*
X138984224Y-122368432D01*
X139057057Y-122366035D01*
X139068067Y-122365262D01*
X139125880Y-122360415D01*
X139188159Y-122354221D01*
X139254730Y-122346710D01*
X139325420Y-122337912D01*
X139400056Y-122327858D01*
X139478464Y-122316576D01*
X139560473Y-122304097D01*
X139645908Y-122290450D01*
X139734598Y-122275667D01*
X139826368Y-122259776D01*
X139921045Y-122242808D01*
X140018458Y-122224792D01*
X140118432Y-122205758D01*
X140220795Y-122185737D01*
X140325373Y-122164759D01*
X140431995Y-122142852D01*
X140540485Y-122120048D01*
X140650672Y-122096376D01*
X140755352Y-122073423D01*
X140785862Y-122066666D01*
X140812069Y-122060983D01*
X140834406Y-122056466D01*
X140853307Y-122053208D01*
X140869208Y-122051300D01*
X140882541Y-122050835D01*
X140893740Y-122051905D01*
X140903240Y-122054603D01*
X140911475Y-122059020D01*
X140918879Y-122065249D01*
X140925886Y-122073382D01*
X140932929Y-122083511D01*
X140940443Y-122095729D01*
X140948862Y-122110128D01*
X140951797Y-122115174D01*
X140977352Y-122160278D01*
X141001306Y-122205021D01*
X141023386Y-122248833D01*
X141043323Y-122291142D01*
X141060844Y-122331379D01*
X141075680Y-122368973D01*
X141085187Y-122396018D01*
X141095789Y-122431958D01*
X141103137Y-122465498D01*
X141107251Y-122496481D01*
X141108150Y-122524750D01*
X141105853Y-122550150D01*
X141100378Y-122572523D01*
X141091744Y-122591713D01*
X141079969Y-122607563D01*
X141065074Y-122619917D01*
X141057857Y-122624043D01*
X141050908Y-122627306D01*
X141043331Y-122630302D01*
X141034879Y-122633051D01*
X141025307Y-122635572D01*
X141014372Y-122637884D01*
X141001826Y-122640007D01*
X140987427Y-122641960D01*
X140970927Y-122643761D01*
X140952084Y-122645431D01*
X140930650Y-122646989D01*
X140906383Y-122648454D01*
X140879035Y-122649845D01*
X140848363Y-122651181D01*
X140814121Y-122652483D01*
X140776065Y-122653769D01*
X140733949Y-122655058D01*
X140687529Y-122656370D01*
X140636558Y-122657724D01*
X140627143Y-122657967D01*
X140543433Y-122660256D01*
X140464179Y-122662711D01*
X140388999Y-122665352D01*
X140317513Y-122668202D01*
X140249340Y-122671281D01*
X140184099Y-122674609D01*
X140121411Y-122678209D01*
X140060893Y-122682101D01*
X140002165Y-122686306D01*
X139944847Y-122690846D01*
X139888558Y-122695740D01*
X139832917Y-122701011D01*
X139814343Y-122702866D01*
X139726092Y-122712350D01*
X139640744Y-122722702D01*
X139557787Y-122734038D01*
X139476707Y-122746474D01*
X139396991Y-122760127D01*
X139318125Y-122775112D01*
X139239598Y-122791546D01*
X139160894Y-122809545D01*
X139081502Y-122829225D01*
X139000908Y-122850703D01*
X138918599Y-122874095D01*
X138834062Y-122899516D01*
X138746783Y-122927083D01*
X138656249Y-122956912D01*
X138584257Y-122981406D01*
X138550067Y-122993412D01*
X138517474Y-123005361D01*
X138486018Y-123017474D01*
X138455241Y-123029971D01*
X138424683Y-123043070D01*
X138393886Y-123056991D01*
X138362390Y-123071955D01*
X138329736Y-123088180D01*
X138295466Y-123105887D01*
X138259120Y-123125295D01*
X138220239Y-123146623D01*
X138178365Y-123170092D01*
X138133038Y-123195920D01*
X138118590Y-123204224D01*
X138078393Y-123227353D01*
X138042070Y-123248218D01*
X138009315Y-123266989D01*
X137979820Y-123283834D01*
X137953279Y-123298923D01*
X137929386Y-123312425D01*
X137907832Y-123324510D01*
X137888311Y-123335347D01*
X137870516Y-123345105D01*
X137854140Y-123353953D01*
X137838876Y-123362061D01*
X137824417Y-123369598D01*
X137810457Y-123376734D01*
X137796687Y-123383637D01*
X137782802Y-123390478D01*
X137768494Y-123397425D01*
X137767239Y-123398031D01*
X137720995Y-123419588D01*
X137677371Y-123438276D01*
X137635428Y-123454365D01*
X137594223Y-123468123D01*
X137552818Y-123479819D01*
X137510270Y-123489722D01*
X137465639Y-123498101D01*
X137417985Y-123505226D01*
X137373524Y-123510592D01*
X137345419Y-123513170D01*
X137313913Y-123515200D01*
X137280417Y-123516643D01*
X137246340Y-123517463D01*
X137213094Y-123517622D01*
X137182088Y-123517082D01*
X137161857Y-123516234D01*
X137107311Y-123511679D01*
X137052141Y-123504053D01*
X136997162Y-123493561D01*
X136943189Y-123480409D01*
X136891036Y-123464801D01*
X136841518Y-123446941D01*
X136795451Y-123427036D01*
X136783034Y-123421000D01*
X136727505Y-123390655D01*
X136673181Y-123355709D01*
X136620159Y-123316270D01*
X136568534Y-123272446D01*
X136518402Y-123224345D01*
X136469859Y-123172076D01*
X136423001Y-123115746D01*
X136377924Y-123055465D01*
X136334723Y-122991339D01*
X136293495Y-122923477D01*
X136254335Y-122851987D01*
X136223415Y-122789852D01*
X136210840Y-122762482D01*
X136198757Y-122734118D01*
X136186818Y-122703873D01*
X136174676Y-122670861D01*
X136161984Y-122634197D01*
X136159005Y-122625315D01*
X136153746Y-122609237D01*
X136148189Y-122591690D01*
X136142577Y-122573490D01*
X136137149Y-122555456D01*
X136132149Y-122538405D01*
X136127818Y-122523156D01*
X136124397Y-122510525D01*
X136122129Y-122501330D01*
X136121573Y-122498669D01*
X136120086Y-122490741D01*
X135979779Y-122434122D01*
X135955107Y-122424148D01*
X135931788Y-122414687D01*
X135910205Y-122405897D01*
X135890741Y-122397934D01*
X135873781Y-122390958D01*
X135859707Y-122385125D01*
X135848904Y-122380595D01*
X135841754Y-122377524D01*
X135838641Y-122376070D01*
X135838539Y-122375993D01*
X135840144Y-122374176D01*
X135845082Y-122369406D01*
X135853071Y-122361941D01*
X135863825Y-122352039D01*
X135877061Y-122339960D01*
X135892494Y-122325962D01*
X135909841Y-122310303D01*
X135928816Y-122293243D01*
X135949137Y-122275039D01*
X135966539Y-122259499D01*
X135991236Y-122237467D01*
X136012571Y-122218409D01*
X136030798Y-122202080D01*
X136046170Y-122188239D01*
X136058940Y-122176642D01*
X136069361Y-122167046D01*
X136077686Y-122159209D01*
X136084169Y-122152887D01*
X136089062Y-122147839D01*
X136092619Y-122143820D01*
X136095092Y-122140588D01*
X136096736Y-122137901D01*
X136097802Y-122135515D01*
X136098545Y-122133187D01*
X136098671Y-122132730D01*
X136103066Y-122118639D01*
X136109307Y-122101530D01*
X136116899Y-122082617D01*
X136125342Y-122063114D01*
X136134141Y-122044235D01*
X136138663Y-122035123D01*
X136160913Y-121995208D01*
X136186441Y-121956722D01*
X136215714Y-121919028D01*
X136249199Y-121881488D01*
X136258212Y-121872125D01*
X136296275Y-121835413D01*
X136335552Y-121802167D01*
X136376870Y-121771793D01*
X136421052Y-121743696D01*
X136468924Y-121717283D01*
X136483314Y-121710002D01*
X136529980Y-121688147D01*
X136576618Y-121669060D01*
X136624071Y-121652485D01*
X136673182Y-121638166D01*
X136724792Y-121625846D01*
X136779745Y-121615269D01*
X136811609Y-121610116D01*
X136825211Y-121608114D01*
X136837093Y-121606560D01*
X136848213Y-121605397D01*
X136859528Y-121604566D01*
X136871995Y-121604011D01*
X136886570Y-121603672D01*
X136904211Y-121603493D01*
X136922371Y-121603423D01*
X136947890Y-121603476D01*
G36*
X164231591Y-117335240D02*
X164259611Y-117335249D01*
X164284284Y-117335268D01*
X164305829Y-117335302D01*
X164324469Y-117335355D01*
X164340425Y-117335430D01*
X164353918Y-117335531D01*
X164365170Y-117335663D01*
X164374402Y-117335829D01*
X164381836Y-117336032D01*
X164387692Y-117336278D01*
X164392193Y-117336569D01*
X164395559Y-117336910D01*
X164398012Y-117337305D01*
X164399774Y-117337757D01*
X164401066Y-117338270D01*
X164402025Y-117338797D01*
X164406687Y-117342808D01*
X164409928Y-117347608D01*
X164410003Y-117347794D01*
X164410644Y-117350393D01*
X164411921Y-117356460D01*
X164413784Y-117365734D01*
X164416183Y-117377954D01*
X164419068Y-117392861D01*
X164422390Y-117410194D01*
X164426099Y-117429691D01*
X164430144Y-117451093D01*
X164434477Y-117474138D01*
X164439046Y-117498566D01*
X164443803Y-117524117D01*
X164446387Y-117538044D01*
X164451235Y-117564204D01*
X164455919Y-117589463D01*
X164460389Y-117613552D01*
X164464595Y-117636203D01*
X164468487Y-117657145D01*
X164472014Y-117676110D01*
X164475126Y-117692829D01*
X164477774Y-117707031D01*
X164479908Y-117718448D01*
X164481476Y-117726810D01*
X164482430Y-117731848D01*
X164482660Y-117733035D01*
X164483317Y-117736423D01*
X164483996Y-117739424D01*
X164484923Y-117742157D01*
X164486328Y-117744744D01*
X164488437Y-117747304D01*
X164491480Y-117749956D01*
X164495683Y-117752822D01*
X164501276Y-117756022D01*
X164508486Y-117759675D01*
X164517540Y-117763901D01*
X164528668Y-117768820D01*
X164542097Y-117774553D01*
X164558055Y-117781220D01*
X164576770Y-117788941D01*
X164598470Y-117797835D01*
X164623384Y-117808023D01*
X164630854Y-117811078D01*
X164656819Y-117821707D01*
X164679515Y-117830993D01*
X164699193Y-117839006D01*
X164716101Y-117845817D01*
X164730489Y-117851493D01*
X164742607Y-117856105D01*
X164752706Y-117859723D01*
X164761034Y-117862415D01*
X164767841Y-117864250D01*
X164773377Y-117865300D01*
X164777892Y-117865632D01*
X164781635Y-117865317D01*
X164784856Y-117864423D01*
X164787805Y-117863021D01*
X164790732Y-117861180D01*
X164793886Y-117858968D01*
X164796496Y-117857146D01*
X164799892Y-117854822D01*
X164806177Y-117850514D01*
X164815116Y-117844385D01*
X164826473Y-117836597D01*
X164840011Y-117827312D01*
X164855495Y-117816691D01*
X164872689Y-117804896D01*
X164891356Y-117792090D01*
X164911260Y-117778434D01*
X164932166Y-117764091D01*
X164953838Y-117749221D01*
X164962300Y-117743415D01*
X164987625Y-117726042D01*
X165010019Y-117710695D01*
X165029675Y-117697248D01*
X165046783Y-117685575D01*
X165061537Y-117675554D01*
X165074127Y-117667057D01*
X165084745Y-117659961D01*
X165093584Y-117654141D01*
X165100835Y-117649471D01*
X165106690Y-117645827D01*
X165111340Y-117643083D01*
X165114978Y-117641116D01*
X165117796Y-117639800D01*
X165119984Y-117639010D01*
X165121736Y-117638621D01*
X165123243Y-117638508D01*
X165123405Y-117638507D01*
X165131621Y-117638507D01*
X165272378Y-117779264D01*
X165294857Y-117801745D01*
X165314806Y-117821705D01*
X165332375Y-117839304D01*
X165347716Y-117854700D01*
X165360980Y-117868053D01*
X165372319Y-117879522D01*
X165381882Y-117889266D01*
X165389821Y-117897444D01*
X165396287Y-117904216D01*
X165401431Y-117909740D01*
X165405405Y-117914177D01*
X165408359Y-117917684D01*
X165410444Y-117920422D01*
X165411811Y-117922549D01*
X165412612Y-117924225D01*
X165412998Y-117925608D01*
X165413119Y-117926859D01*
X165413128Y-117927589D01*
X165412188Y-117934225D01*
X165409901Y-117940402D01*
X165409568Y-117940981D01*
X165407995Y-117943369D01*
X165404432Y-117948652D01*
X165399035Y-117956602D01*
X165391962Y-117966990D01*
X165383368Y-117979586D01*
X165373410Y-117994162D01*
X165362245Y-118010489D01*
X165350029Y-118028338D01*
X165336918Y-118047479D01*
X165323069Y-118067684D01*
X165308639Y-118088723D01*
X165306613Y-118091675D01*
X165291976Y-118113009D01*
X165277797Y-118133675D01*
X165264244Y-118153431D01*
X165251484Y-118172033D01*
X165239685Y-118189236D01*
X165229014Y-118204796D01*
X165219638Y-118218469D01*
X165211726Y-118230010D01*
X165205444Y-118239177D01*
X165200959Y-118245724D01*
X165198440Y-118249407D01*
X165198336Y-118249560D01*
X165195884Y-118253059D01*
X165193747Y-118256138D01*
X165191999Y-118259041D01*
X165190713Y-118262018D01*
X165189960Y-118265316D01*
X165189815Y-118269181D01*
X165190349Y-118273861D01*
X165191636Y-118279604D01*
X165193748Y-118286657D01*
X165196758Y-118295267D01*
X165200740Y-118305681D01*
X165205765Y-118318148D01*
X165211907Y-118332914D01*
X165219238Y-118350227D01*
X165227832Y-118370334D01*
X165237760Y-118393482D01*
X165247110Y-118415283D01*
X165256324Y-118436768D01*
X165265160Y-118457341D01*
X165273495Y-118476721D01*
X165281209Y-118494626D01*
X165288180Y-118510777D01*
X165294287Y-118524892D01*
X165299408Y-118536689D01*
X165303422Y-118545889D01*
X165306207Y-118552209D01*
X165307642Y-118555370D01*
X165307738Y-118555562D01*
X165311478Y-118560791D01*
X165316308Y-118565307D01*
X165316340Y-118565330D01*
X165317224Y-118565971D01*
X165318099Y-118566561D01*
X165319167Y-118567138D01*
X165320629Y-118567744D01*
X165322687Y-118568417D01*
X165325543Y-118569200D01*
X165329399Y-118570131D01*
X165334456Y-118571251D01*
X165340917Y-118572600D01*
X165348982Y-118574218D01*
X165358855Y-118576145D01*
X165370736Y-118578422D01*
X165384827Y-118581089D01*
X165401331Y-118584185D01*
X165420449Y-118587751D01*
X165442382Y-118591827D01*
X165467333Y-118596453D01*
X165495504Y-118601670D01*
X165527095Y-118607517D01*
X165544874Y-118610808D01*
X165567949Y-118615084D01*
X165590108Y-118619200D01*
X165611043Y-118623098D01*
X165630447Y-118626721D01*
X165648012Y-118630011D01*
X165663431Y-118632910D01*
X165676396Y-118635360D01*
X165686600Y-118637304D01*
X165693735Y-118638684D01*
X165697494Y-118639442D01*
X165697740Y-118639497D01*
X165704344Y-118641847D01*
X165709875Y-118645223D01*
X165711008Y-118646271D01*
X165715471Y-118651021D01*
X165715952Y-118849424D01*
X165716028Y-118881182D01*
X165716088Y-118909370D01*
X165716131Y-118934207D01*
X165716152Y-118955914D01*
X165716149Y-118974712D01*
X165716117Y-118990821D01*
X165716053Y-119004461D01*
X165715954Y-119015852D01*
X165715817Y-119025216D01*
X165715637Y-119032772D01*
X165715413Y-119038741D01*
X165715139Y-119043343D01*
X165714813Y-119046799D01*
X165714431Y-119049329D01*
X165713991Y-119051153D01*
X165713488Y-119052492D01*
X165712919Y-119053566D01*
X165712782Y-119053793D01*
X165708047Y-119058913D01*
X165702822Y-119061805D01*
X165699905Y-119062497D01*
X165693587Y-119063812D01*
X165684197Y-119065686D01*
X165672064Y-119068056D01*
X165657516Y-119070860D01*
X165640880Y-119074034D01*
X165622486Y-119077515D01*
X165602662Y-119081239D01*
X165581736Y-119085145D01*
X165573306Y-119086711D01*
X165538686Y-119093135D01*
X165507599Y-119098906D01*
X165479849Y-119104061D01*
X165455242Y-119108637D01*
X165433584Y-119112670D01*
X165414679Y-119116199D01*
X165398332Y-119119259D01*
X165384348Y-119121887D01*
X165372533Y-119124121D01*
X165362692Y-119125997D01*
X165354629Y-119127552D01*
X165348150Y-119128824D01*
X165343059Y-119129849D01*
X165339163Y-119130663D01*
X165336266Y-119131305D01*
X165334173Y-119131810D01*
X165332689Y-119132216D01*
X165332163Y-119132378D01*
X165326674Y-119135239D01*
X165321710Y-119139508D01*
X165321498Y-119139755D01*
X165320087Y-119142344D01*
X165317389Y-119148203D01*
X165313510Y-119157074D01*
X165308557Y-119168703D01*
X165302635Y-119182832D01*
X165295852Y-119199206D01*
X165288313Y-119217568D01*
X165280125Y-119237662D01*
X165271395Y-119259232D01*
X165262229Y-119282021D01*
X165257631Y-119293506D01*
X165247129Y-119319779D01*
X165237949Y-119342768D01*
X165230007Y-119362705D01*
X165223216Y-119379827D01*
X165217490Y-119394366D01*
X165212743Y-119406559D01*
X165208890Y-119416638D01*
X165205846Y-119424839D01*
X165203523Y-119431396D01*
X165201836Y-119436544D01*
X165200700Y-119440516D01*
X165200029Y-119443548D01*
X165199736Y-119445874D01*
X165199736Y-119447728D01*
X165199944Y-119449345D01*
X165200173Y-119450493D01*
X165200891Y-119452570D01*
X165202445Y-119455745D01*
X165204946Y-119460185D01*
X165208505Y-119466058D01*
X165213232Y-119473530D01*
X165219239Y-119482769D01*
X165226636Y-119493942D01*
X165235533Y-119507217D01*
X165246042Y-119522760D01*
X165258273Y-119540739D01*
X165272338Y-119561321D01*
X165288346Y-119584674D01*
X165306408Y-119610964D01*
X165306946Y-119611746D01*
X165321809Y-119633399D01*
X165336061Y-119654241D01*
X165349555Y-119674049D01*
X165362142Y-119692605D01*
X165373675Y-119709687D01*
X165384005Y-119725074D01*
X165392985Y-119738546D01*
X165400467Y-119749883D01*
X165406303Y-119758863D01*
X165410345Y-119765266D01*
X165412445Y-119768872D01*
X165412718Y-119769524D01*
X165412897Y-119775508D01*
X165412287Y-119779949D01*
X165410829Y-119782148D01*
X165406933Y-119786710D01*
X165400572Y-119793665D01*
X165391715Y-119803044D01*
X165380333Y-119814876D01*
X165366396Y-119829192D01*
X165349875Y-119846023D01*
X165330740Y-119865398D01*
X165308963Y-119887348D01*
X165284513Y-119911904D01*
X165274176Y-119922265D01*
X165255171Y-119941280D01*
X165236849Y-119959566D01*
X165219398Y-119976939D01*
X165203002Y-119993217D01*
X165187847Y-120008216D01*
X165174119Y-120021755D01*
X165162004Y-120033649D01*
X165151688Y-120043716D01*
X165143355Y-120051774D01*
X165137193Y-120057638D01*
X165133387Y-120061126D01*
X165132218Y-120062060D01*
X165124703Y-120064519D01*
X165116999Y-120063735D01*
X165108465Y-120059617D01*
X165106747Y-120058485D01*
X165103827Y-120056487D01*
X165098023Y-120052510D01*
X165089576Y-120046720D01*
X165078728Y-120039283D01*
X165065720Y-120030364D01*
X165050794Y-120020129D01*
X165034192Y-120008743D01*
X165016155Y-119996373D01*
X164996924Y-119983184D01*
X164976743Y-119969342D01*
X164958209Y-119956629D01*
X164937464Y-119942412D01*
X164917506Y-119928757D01*
X164898571Y-119915824D01*
X164880894Y-119903774D01*
X164864710Y-119892766D01*
X164850257Y-119882961D01*
X164837768Y-119874517D01*
X164827481Y-119867596D01*
X164819630Y-119862356D01*
X164814451Y-119858959D01*
X164812254Y-119857599D01*
X164803350Y-119854938D01*
X164798544Y-119855016D01*
X164794998Y-119856161D01*
X164788390Y-119859032D01*
X164778968Y-119863506D01*
X164766981Y-119869461D01*
X164752676Y-119876774D01*
X164736302Y-119885322D01*
X164723511Y-119892099D01*
X164705629Y-119901598D01*
X164690757Y-119909411D01*
X164678576Y-119915663D01*
X164668767Y-119920481D01*
X164661010Y-119923991D01*
X164654986Y-119926317D01*
X164650375Y-119927587D01*
X164646858Y-119927927D01*
X164644117Y-119927461D01*
X164641830Y-119926316D01*
X164640096Y-119924981D01*
X164638906Y-119922834D01*
X164636324Y-119917284D01*
X164632397Y-119908438D01*
X164627168Y-119896402D01*
X164620683Y-119881282D01*
X164612985Y-119863184D01*
X164604120Y-119842214D01*
X164594133Y-119818480D01*
X164583067Y-119792086D01*
X164570968Y-119763139D01*
X164557881Y-119731745D01*
X164543850Y-119698011D01*
X164528920Y-119662043D01*
X164513135Y-119623946D01*
X164500429Y-119593232D01*
X164483937Y-119553340D01*
X164468836Y-119516799D01*
X164455066Y-119483461D01*
X164442567Y-119453176D01*
X164431279Y-119425792D01*
X164421143Y-119401161D01*
X164412097Y-119379131D01*
X164404083Y-119359554D01*
X164397041Y-119342278D01*
X164390909Y-119327154D01*
X164385630Y-119314032D01*
X164381141Y-119302762D01*
X164377385Y-119293193D01*
X164374300Y-119285176D01*
X164371827Y-119278561D01*
X164369906Y-119273196D01*
X164368476Y-119268934D01*
X164367479Y-119265622D01*
X164366853Y-119263112D01*
X164366540Y-119261252D01*
X164366478Y-119259894D01*
X164366609Y-119258887D01*
X164366725Y-119258477D01*
X164368534Y-119254217D01*
X164371280Y-119250407D01*
X164375554Y-119246519D01*
X164381948Y-119242027D01*
X164391053Y-119236403D01*
X164392396Y-119235603D01*
X164401349Y-119230038D01*
X164411085Y-119223602D01*
X164419706Y-119217554D01*
X164420829Y-119216727D01*
X164428117Y-119211307D01*
X164437103Y-119204628D01*
X164446443Y-119197688D01*
X164452105Y-119193482D01*
X164483197Y-119168058D01*
X164511680Y-119139951D01*
X164537369Y-119109367D01*
X164560076Y-119076514D01*
X164564448Y-119069346D01*
X164581615Y-119037155D01*
X164596183Y-119002727D01*
X164607900Y-118966801D01*
X164616518Y-118930114D01*
X164620758Y-118902870D01*
X164621962Y-118888905D01*
X164622614Y-118872303D01*
X164622731Y-118854175D01*
X164622332Y-118835633D01*
X164621434Y-118817786D01*
X164620055Y-118801747D01*
X164619010Y-118793496D01*
X164611347Y-118754071D01*
X164600229Y-118715990D01*
X164585790Y-118679440D01*
X164568165Y-118644607D01*
X164547489Y-118611676D01*
X164523897Y-118580832D01*
X164497523Y-118552263D01*
X164468502Y-118526152D01*
X164436969Y-118502686D01*
X164403058Y-118482051D01*
X164386909Y-118473664D01*
X164351234Y-118458019D01*
X164314916Y-118445980D01*
X164277668Y-118437481D01*
X164239202Y-118432455D01*
X164200000Y-118430835D01*
X164165964Y-118431947D01*
X164134030Y-118435386D01*
X164103193Y-118441310D01*
X164072446Y-118449876D01*
X164067314Y-118451553D01*
X164030189Y-118465868D01*
X163994874Y-118483374D01*
X163961552Y-118503890D01*
X163930405Y-118527236D01*
X163901615Y-118553230D01*
X163875364Y-118581692D01*
X163851835Y-118612440D01*
X163831210Y-118645296D01*
X163813672Y-118680076D01*
X163799401Y-118716602D01*
X163799072Y-118717584D01*
X163790654Y-118745262D01*
X163784443Y-118771699D01*
X163780249Y-118798083D01*
X163777885Y-118825599D01*
X163777160Y-118855332D01*
X163777903Y-118883778D01*
X163780215Y-118909969D01*
X163784300Y-118935187D01*
X163790364Y-118960716D01*
X163798078Y-118986224D01*
X163812357Y-119023661D01*
X163829914Y-119059255D01*
X163850639Y-119092849D01*
X163874417Y-119124288D01*
X163901138Y-119153418D01*
X163930690Y-119180083D01*
X163947896Y-119193485D01*
X163956305Y-119199717D01*
X163964808Y-119206051D01*
X163972251Y-119211624D01*
X163976329Y-119214700D01*
X163982527Y-119219142D01*
X163990713Y-119224658D01*
X163999609Y-119230395D01*
X164004762Y-119233595D01*
X164014710Y-119239781D01*
X164021884Y-119244603D01*
X164026824Y-119248532D01*
X164030072Y-119252040D01*
X164032170Y-119255601D01*
X164033279Y-119258487D01*
X164033483Y-119259377D01*
X164033525Y-119260542D01*
X164033345Y-119262132D01*
X164032883Y-119264297D01*
X164032080Y-119267188D01*
X164030875Y-119270954D01*
X164029208Y-119275745D01*
X164027020Y-119281712D01*
X164024250Y-119289004D01*
X164020839Y-119297772D01*
X164016726Y-119308166D01*
X164011852Y-119320336D01*
X164006157Y-119334432D01*
X163999580Y-119350604D01*
X163992062Y-119369002D01*
X163983543Y-119389776D01*
X163973963Y-119413076D01*
X163963262Y-119439053D01*
X163951379Y-119467856D01*
X163938256Y-119499636D01*
X163923832Y-119534542D01*
X163908046Y-119572725D01*
X163899563Y-119593242D01*
X163883313Y-119632507D01*
X163867851Y-119669806D01*
X163853223Y-119705025D01*
X163839476Y-119738055D01*
X163826658Y-119768784D01*
X163814814Y-119797099D01*
X163803993Y-119822891D01*
X163794240Y-119846048D01*
X163785603Y-119866458D01*
X163778128Y-119884009D01*
X163771863Y-119898592D01*
X163766855Y-119910094D01*
X163763149Y-119918403D01*
X163760794Y-119923410D01*
X163759893Y-119924981D01*
X163755115Y-119927451D01*
X163750343Y-119928298D01*
X163746908Y-119927354D01*
X163740235Y-119924535D01*
X163730368Y-119919864D01*
X163717353Y-119913363D01*
X163701233Y-119905054D01*
X163682053Y-119894958D01*
X163677102Y-119892326D01*
X163662164Y-119884421D01*
X163648071Y-119877057D01*
X163635217Y-119870433D01*
X163623998Y-119864749D01*
X163614806Y-119860203D01*
X163608036Y-119856994D01*
X163604083Y-119855323D01*
X163603479Y-119855145D01*
X163597126Y-119854916D01*
X163591573Y-119855972D01*
X163589165Y-119857330D01*
X163583871Y-119860682D01*
X163575925Y-119865870D01*
X163565563Y-119872734D01*
X163553020Y-119881118D01*
X163538531Y-119890864D01*
X163522331Y-119901812D01*
X163504655Y-119913806D01*
X163485739Y-119926687D01*
X163465816Y-119940297D01*
X163447893Y-119952577D01*
X163427076Y-119966858D01*
X163406920Y-119980685D01*
X163387678Y-119993884D01*
X163369601Y-120006283D01*
X163352940Y-120017710D01*
X163337947Y-120027992D01*
X163324873Y-120036956D01*
X163313970Y-120044431D01*
X163305490Y-120050243D01*
X163299683Y-120054220D01*
X163297138Y-120055961D01*
X163288046Y-120061501D01*
X163280662Y-120064285D01*
X163274235Y-120064442D01*
X163268011Y-120062098D01*
X163266456Y-120061172D01*
X163264346Y-120059351D01*
X163259750Y-120055027D01*
X163252857Y-120048384D01*
X163243853Y-120039609D01*
X163232926Y-120028886D01*
X163220264Y-120016400D01*
X163206053Y-120002336D01*
X163190482Y-119986879D01*
X163173737Y-119970216D01*
X163156007Y-119952529D01*
X163137479Y-119934006D01*
X163124877Y-119921385D01*
X163099450Y-119895865D01*
X163076707Y-119872963D01*
X163056620Y-119852649D01*
X163039159Y-119834895D01*
X163024296Y-119819670D01*
X163012003Y-119806944D01*
X163002250Y-119796689D01*
X162995008Y-119788874D01*
X162990250Y-119783469D01*
X162987945Y-119780446D01*
X162987714Y-119779949D01*
X162987036Y-119773945D01*
X162987273Y-119769524D01*
X162988447Y-119767254D01*
X162991629Y-119762087D01*
X162996672Y-119754244D01*
X163003428Y-119743944D01*
X163011749Y-119731410D01*
X163021487Y-119716860D01*
X163032495Y-119700517D01*
X163044624Y-119682600D01*
X163057726Y-119663330D01*
X163071654Y-119642928D01*
X163086260Y-119621614D01*
X163093040Y-119611746D01*
X163111169Y-119585362D01*
X163127239Y-119561921D01*
X163141362Y-119541256D01*
X163153649Y-119523199D01*
X163164209Y-119507583D01*
X163173153Y-119494242D01*
X163180593Y-119483009D01*
X163186638Y-119473716D01*
X163191399Y-119466197D01*
X163194987Y-119460284D01*
X163197513Y-119455811D01*
X163199086Y-119452610D01*
X163199818Y-119450515D01*
X163199823Y-119450493D01*
X163200128Y-119448901D01*
X163200287Y-119447242D01*
X163200216Y-119445281D01*
X163199827Y-119442784D01*
X163199036Y-119439515D01*
X163197756Y-119435240D01*
X163195902Y-119429726D01*
X163193387Y-119422736D01*
X163190126Y-119414036D01*
X163186033Y-119403392D01*
X163181022Y-119390569D01*
X163175007Y-119375333D01*
X163167902Y-119357448D01*
X163159623Y-119336681D01*
X163150081Y-119312796D01*
X163142444Y-119293690D01*
X163133365Y-119271040D01*
X163124619Y-119249328D01*
X163116315Y-119228823D01*
X163108565Y-119209792D01*
X163101480Y-119192507D01*
X163095170Y-119177235D01*
X163089746Y-119164246D01*
X163085320Y-119153808D01*
X163082003Y-119146191D01*
X163079905Y-119141664D01*
X163079268Y-119140531D01*
X163074557Y-119136118D01*
X163069477Y-119133085D01*
X163066810Y-119132399D01*
X163060679Y-119131078D01*
X163051350Y-119129172D01*
X163039088Y-119126734D01*
X163024157Y-119123815D01*
X163006824Y-119120464D01*
X162987352Y-119116735D01*
X162966007Y-119112677D01*
X162943053Y-119108342D01*
X162918757Y-119103781D01*
X162893383Y-119099045D01*
X162883560Y-119097219D01*
X162857837Y-119092434D01*
X162833082Y-119087812D01*
X162809563Y-119083404D01*
X162787545Y-119079262D01*
X162767294Y-119075434D01*
X162749076Y-119071973D01*
X162733156Y-119068928D01*
X162719801Y-119066350D01*
X162709277Y-119064290D01*
X162701848Y-119062799D01*
X162697782Y-119061926D01*
X162697178Y-119061768D01*
X162691215Y-119058319D01*
X162687219Y-119053793D01*
X162686635Y-119052748D01*
X162686117Y-119051488D01*
X162685663Y-119049792D01*
X162685268Y-119047439D01*
X162684930Y-119044210D01*
X162684645Y-119039884D01*
X162684410Y-119034241D01*
X162684221Y-119027060D01*
X162684074Y-119018121D01*
X162683967Y-119007203D01*
X162683896Y-118994087D01*
X162683857Y-118978551D01*
X162683847Y-118960375D01*
X162683863Y-118939340D01*
X162683901Y-118915224D01*
X162683958Y-118887807D01*
X162684031Y-118856869D01*
X162684049Y-118849424D01*
X162684530Y-118651021D01*
X162689049Y-118646211D01*
X162689710Y-118645398D01*
X162690174Y-118644698D01*
X162690648Y-118644068D01*
X162691341Y-118643465D01*
X162692463Y-118642844D01*
X162694223Y-118642164D01*
X162696829Y-118641380D01*
X162700490Y-118640450D01*
X162705416Y-118639330D01*
X162711815Y-118637977D01*
X162719896Y-118636347D01*
X162729869Y-118634398D01*
X162741942Y-118632086D01*
X162756324Y-118629368D01*
X162773224Y-118626200D01*
X162792851Y-118622540D01*
X162815415Y-118618343D01*
X162841123Y-118613567D01*
X162870186Y-118608169D01*
X162895316Y-118603499D01*
X162926115Y-118597773D01*
X162953407Y-118592693D01*
X162977412Y-118588205D01*
X162998349Y-118584255D01*
X163016438Y-118580791D01*
X163031898Y-118577757D01*
X163044949Y-118575102D01*
X163055809Y-118572771D01*
X163064700Y-118570712D01*
X163071839Y-118568871D01*
X163077447Y-118567194D01*
X163081743Y-118565628D01*
X163084947Y-118564120D01*
X163087277Y-118562616D01*
X163088954Y-118561062D01*
X163090197Y-118559406D01*
X163091225Y-118557594D01*
X163092257Y-118555573D01*
X163092263Y-118555562D01*
X163093472Y-118552930D01*
X163096051Y-118547093D01*
X163099878Y-118538332D01*
X163104831Y-118526929D01*
X163110789Y-118513164D01*
X163117631Y-118497318D01*
X163125235Y-118479673D01*
X163133480Y-118460508D01*
X163142244Y-118440106D01*
X163151406Y-118418747D01*
X163152891Y-118415283D01*
X163163988Y-118389410D01*
X163173689Y-118366786D01*
X163182067Y-118347162D01*
X163189195Y-118330290D01*
X163195146Y-118315924D01*
X163199992Y-118303817D01*
X163203807Y-118293720D01*
X163206663Y-118285386D01*
X163208634Y-118278568D01*
X163209791Y-118273019D01*
X163210208Y-118268491D01*
X163209957Y-118264737D01*
X163209112Y-118261509D01*
X163207745Y-118258560D01*
X163205930Y-118255643D01*
X163203738Y-118252510D01*
X163201679Y-118249560D01*
X163199323Y-118246111D01*
X163194989Y-118239779D01*
X163188842Y-118230806D01*
X163181048Y-118219432D01*
X163171773Y-118205901D01*
X163161182Y-118190454D01*
X163149443Y-118173334D01*
X163136721Y-118154782D01*
X163123181Y-118135041D01*
X163108991Y-118114353D01*
X163094315Y-118092960D01*
X163092038Y-118089641D01*
X163077474Y-118068402D01*
X163063495Y-118047997D01*
X163050253Y-118028650D01*
X163037902Y-118010584D01*
X163026593Y-117994024D01*
X163016481Y-117979194D01*
X163007716Y-117966317D01*
X163000452Y-117955618D01*
X162994842Y-117947319D01*
X162991038Y-117941646D01*
X162989193Y-117938822D01*
X162989061Y-117938598D01*
X162987581Y-117933904D01*
X162986876Y-117927930D01*
X162986866Y-117927239D01*
X162986928Y-117926024D01*
X162987213Y-117924715D01*
X162987874Y-117923153D01*
X162989060Y-117921180D01*
X162990923Y-117918636D01*
X162993614Y-117915363D01*
X162997285Y-117911202D01*
X163002085Y-117905994D01*
X163008166Y-117899581D01*
X163015680Y-117891804D01*
X163024776Y-117882504D01*
X163035607Y-117871522D01*
X163048322Y-117858700D01*
X163063074Y-117843878D01*
X163080013Y-117826899D01*
X163099290Y-117807602D01*
X163121057Y-117785830D01*
X163268380Y-117638507D01*
X163276659Y-117638507D01*
X163277711Y-117638440D01*
X163278557Y-117638307D01*
X163279350Y-117638208D01*
X163280243Y-117638245D01*
X163281388Y-117638520D01*
X163282939Y-117639134D01*
X163285050Y-117640187D01*
X163287873Y-117641782D01*
X163291562Y-117644020D01*
X163296269Y-117647002D01*
X163302147Y-117650829D01*
X163309351Y-117655602D01*
X163318032Y-117661424D01*
X163328345Y-117668395D01*
X163340442Y-117676616D01*
X163354476Y-117686189D01*
X163370601Y-117697216D01*
X163388969Y-117709797D01*
X163409734Y-117724034D01*
X163433049Y-117740027D01*
X163459067Y-117757880D01*
X163487941Y-117777692D01*
X163512622Y-117794625D01*
X163533198Y-117808736D01*
X163550890Y-117820852D01*
X163565941Y-117831125D01*
X163578591Y-117839708D01*
X163589083Y-117846751D01*
X163597657Y-117852408D01*
X163604555Y-117856830D01*
X163610019Y-117860169D01*
X163614290Y-117862577D01*
X163617610Y-117864206D01*
X163620220Y-117865207D01*
X163622361Y-117865734D01*
X163624275Y-117865937D01*
X163625998Y-117865970D01*
X163628225Y-117865792D01*
X163631233Y-117865198D01*
X163635261Y-117864096D01*
X163640547Y-117862396D01*
X163647330Y-117860006D01*
X163655847Y-117856836D01*
X163666338Y-117852794D01*
X163679040Y-117847790D01*
X163694192Y-117841732D01*
X163712032Y-117834529D01*
X163732799Y-117826090D01*
X163756731Y-117816325D01*
X163767465Y-117811936D01*
X163788799Y-117803189D01*
X163809187Y-117794792D01*
X163828344Y-117786863D01*
X163845987Y-117779522D01*
X163861832Y-117772888D01*
X163875595Y-117767081D01*
X163886992Y-117762219D01*
X163895740Y-117758423D01*
X163901554Y-117755810D01*
X163904150Y-117754502D01*
X163904182Y-117754479D01*
X163905883Y-117753210D01*
X163907425Y-117751923D01*
X163908856Y-117750401D01*
X163910226Y-117748427D01*
X163911586Y-117745786D01*
X163912985Y-117742262D01*
X163914473Y-117737638D01*
X163916099Y-117731698D01*
X163917914Y-117724225D01*
X163919967Y-117715003D01*
X163922309Y-117703817D01*
X163924988Y-117690449D01*
X163928054Y-117674684D01*
X163931558Y-117656305D01*
X163935550Y-117635096D01*
X163940078Y-117610841D01*
X163945193Y-117583323D01*
X163950945Y-117552326D01*
X163951850Y-117547446D01*
X163956814Y-117520748D01*
X163961616Y-117495031D01*
X163966208Y-117470551D01*
X163970540Y-117447561D01*
X163974565Y-117426314D01*
X163978233Y-117407065D01*
X163981497Y-117390066D01*
X163984308Y-117375572D01*
X163986618Y-117363837D01*
X163988378Y-117355114D01*
X163989539Y-117349656D01*
X163990011Y-117347794D01*
X163993139Y-117343011D01*
X163997775Y-117338922D01*
X163997976Y-117338797D01*
X163999031Y-117338224D01*
X164000354Y-117337716D01*
X164002166Y-117337269D01*
X164004688Y-117336879D01*
X164008141Y-117336542D01*
X164012748Y-117336255D01*
X164018729Y-117336013D01*
X164026306Y-117335813D01*
X164035700Y-117335651D01*
X164047132Y-117335522D01*
X164060825Y-117335423D01*
X164076999Y-117335350D01*
X164095876Y-117335299D01*
X164117677Y-117335266D01*
X164142624Y-117335248D01*
X164170937Y-117335239D01*
X164200000Y-117335238D01*
X164231591Y-117335240D01*
X164231591Y-117335240D01*
G37*
X164231591Y-117335240D02*
X164259611Y-117335249D01*
X164284284Y-117335268D01*
X164305829Y-117335302D01*
X164324469Y-117335355D01*
X164340425Y-117335430D01*
X164353918Y-117335531D01*
X164365170Y-117335663D01*
X164374402Y-117335829D01*
X164381836Y-117336032D01*
X164387692Y-117336278D01*
X164392193Y-117336569D01*
X164395559Y-117336910D01*
X164398012Y-117337305D01*
X164399774Y-117337757D01*
X164401066Y-117338270D01*
X164402025Y-117338797D01*
X164406687Y-117342808D01*
X164409928Y-117347608D01*
X164410003Y-117347794D01*
X164410644Y-117350393D01*
X164411921Y-117356460D01*
X164413784Y-117365734D01*
X164416183Y-117377954D01*
X164419068Y-117392861D01*
X164422390Y-117410194D01*
X164426099Y-117429691D01*
X164430144Y-117451093D01*
X164434477Y-117474138D01*
X164439046Y-117498566D01*
X164443803Y-117524117D01*
X164446387Y-117538044D01*
X164451235Y-117564204D01*
X164455919Y-117589463D01*
X164460389Y-117613552D01*
X164464595Y-117636203D01*
X164468487Y-117657145D01*
X164472014Y-117676110D01*
X164475126Y-117692829D01*
X164477774Y-117707031D01*
X164479908Y-117718448D01*
X164481476Y-117726810D01*
X164482430Y-117731848D01*
X164482660Y-117733035D01*
X164483317Y-117736423D01*
X164483996Y-117739424D01*
X164484923Y-117742157D01*
X164486328Y-117744744D01*
X164488437Y-117747304D01*
X164491480Y-117749956D01*
X164495683Y-117752822D01*
X164501276Y-117756022D01*
X164508486Y-117759675D01*
X164517540Y-117763901D01*
X164528668Y-117768820D01*
X164542097Y-117774553D01*
X164558055Y-117781220D01*
X164576770Y-117788941D01*
X164598470Y-117797835D01*
X164623384Y-117808023D01*
X164630854Y-117811078D01*
X164656819Y-117821707D01*
X164679515Y-117830993D01*
X164699193Y-117839006D01*
X164716101Y-117845817D01*
X164730489Y-117851493D01*
X164742607Y-117856105D01*
X164752706Y-117859723D01*
X164761034Y-117862415D01*
X164767841Y-117864250D01*
X164773377Y-117865300D01*
X164777892Y-117865632D01*
X164781635Y-117865317D01*
X164784856Y-117864423D01*
X164787805Y-117863021D01*
X164790732Y-117861180D01*
X164793886Y-117858968D01*
X164796496Y-117857146D01*
X164799892Y-117854822D01*
X164806177Y-117850514D01*
X164815116Y-117844385D01*
X164826473Y-117836597D01*
X164840011Y-117827312D01*
X164855495Y-117816691D01*
X164872689Y-117804896D01*
X164891356Y-117792090D01*
X164911260Y-117778434D01*
X164932166Y-117764091D01*
X164953838Y-117749221D01*
X164962300Y-117743415D01*
X164987625Y-117726042D01*
X165010019Y-117710695D01*
X165029675Y-117697248D01*
X165046783Y-117685575D01*
X165061537Y-117675554D01*
X165074127Y-117667057D01*
X165084745Y-117659961D01*
X165093584Y-117654141D01*
X165100835Y-117649471D01*
X165106690Y-117645827D01*
X165111340Y-117643083D01*
X165114978Y-117641116D01*
X165117796Y-117639800D01*
X165119984Y-117639010D01*
X165121736Y-117638621D01*
X165123243Y-117638508D01*
X165123405Y-117638507D01*
X165131621Y-117638507D01*
X165272378Y-117779264D01*
X165294857Y-117801745D01*
X165314806Y-117821705D01*
X165332375Y-117839304D01*
X165347716Y-117854700D01*
X165360980Y-117868053D01*
X165372319Y-117879522D01*
X165381882Y-117889266D01*
X165389821Y-117897444D01*
X165396287Y-117904216D01*
X165401431Y-117909740D01*
X165405405Y-117914177D01*
X165408359Y-117917684D01*
X165410444Y-117920422D01*
X165411811Y-117922549D01*
X165412612Y-117924225D01*
X165412998Y-117925608D01*
X165413119Y-117926859D01*
X165413128Y-117927589D01*
X165412188Y-117934225D01*
X165409901Y-117940402D01*
X165409568Y-117940981D01*
X165407995Y-117943369D01*
X165404432Y-117948652D01*
X165399035Y-117956602D01*
X165391962Y-117966990D01*
X165383368Y-117979586D01*
X165373410Y-117994162D01*
X165362245Y-118010489D01*
X165350029Y-118028338D01*
X165336918Y-118047479D01*
X165323069Y-118067684D01*
X165308639Y-118088723D01*
X165306613Y-118091675D01*
X165291976Y-118113009D01*
X165277797Y-118133675D01*
X165264244Y-118153431D01*
X165251484Y-118172033D01*
X165239685Y-118189236D01*
X165229014Y-118204796D01*
X165219638Y-118218469D01*
X165211726Y-118230010D01*
X165205444Y-118239177D01*
X165200959Y-118245724D01*
X165198440Y-118249407D01*
X165198336Y-118249560D01*
X165195884Y-118253059D01*
X165193747Y-118256138D01*
X165191999Y-118259041D01*
X165190713Y-118262018D01*
X165189960Y-118265316D01*
X165189815Y-118269181D01*
X165190349Y-118273861D01*
X165191636Y-118279604D01*
X165193748Y-118286657D01*
X165196758Y-118295267D01*
X165200740Y-118305681D01*
X165205765Y-118318148D01*
X165211907Y-118332914D01*
X165219238Y-118350227D01*
X165227832Y-118370334D01*
X165237760Y-118393482D01*
X165247110Y-118415283D01*
X165256324Y-118436768D01*
X165265160Y-118457341D01*
X165273495Y-118476721D01*
X165281209Y-118494626D01*
X165288180Y-118510777D01*
X165294287Y-118524892D01*
X165299408Y-118536689D01*
X165303422Y-118545889D01*
X165306207Y-118552209D01*
X165307642Y-118555370D01*
X165307738Y-118555562D01*
X165311478Y-118560791D01*
X165316308Y-118565307D01*
X165316340Y-118565330D01*
X165317224Y-118565971D01*
X165318099Y-118566561D01*
X165319167Y-118567138D01*
X165320629Y-118567744D01*
X165322687Y-118568417D01*
X165325543Y-118569200D01*
X165329399Y-118570131D01*
X165334456Y-118571251D01*
X165340917Y-118572600D01*
X165348982Y-118574218D01*
X165358855Y-118576145D01*
X165370736Y-118578422D01*
X165384827Y-118581089D01*
X165401331Y-118584185D01*
X165420449Y-118587751D01*
X165442382Y-118591827D01*
X165467333Y-118596453D01*
X165495504Y-118601670D01*
X165527095Y-118607517D01*
X165544874Y-118610808D01*
X165567949Y-118615084D01*
X165590108Y-118619200D01*
X165611043Y-118623098D01*
X165630447Y-118626721D01*
X165648012Y-118630011D01*
X165663431Y-118632910D01*
X165676396Y-118635360D01*
X165686600Y-118637304D01*
X165693735Y-118638684D01*
X165697494Y-118639442D01*
X165697740Y-118639497D01*
X165704344Y-118641847D01*
X165709875Y-118645223D01*
X165711008Y-118646271D01*
X165715471Y-118651021D01*
X165715952Y-118849424D01*
X165716028Y-118881182D01*
X165716088Y-118909370D01*
X165716131Y-118934207D01*
X165716152Y-118955914D01*
X165716149Y-118974712D01*
X165716117Y-118990821D01*
X165716053Y-119004461D01*
X165715954Y-119015852D01*
X165715817Y-119025216D01*
X165715637Y-119032772D01*
X165715413Y-119038741D01*
X165715139Y-119043343D01*
X165714813Y-119046799D01*
X165714431Y-119049329D01*
X165713991Y-119051153D01*
X165713488Y-119052492D01*
X165712919Y-119053566D01*
X165712782Y-119053793D01*
X165708047Y-119058913D01*
X165702822Y-119061805D01*
X165699905Y-119062497D01*
X165693587Y-119063812D01*
X165684197Y-119065686D01*
X165672064Y-119068056D01*
X165657516Y-119070860D01*
X165640880Y-119074034D01*
X165622486Y-119077515D01*
X165602662Y-119081239D01*
X165581736Y-119085145D01*
X165573306Y-119086711D01*
X165538686Y-119093135D01*
X165507599Y-119098906D01*
X165479849Y-119104061D01*
X165455242Y-119108637D01*
X165433584Y-119112670D01*
X165414679Y-119116199D01*
X165398332Y-119119259D01*
X165384348Y-119121887D01*
X165372533Y-119124121D01*
X165362692Y-119125997D01*
X165354629Y-119127552D01*
X165348150Y-119128824D01*
X165343059Y-119129849D01*
X165339163Y-119130663D01*
X165336266Y-119131305D01*
X165334173Y-119131810D01*
X165332689Y-119132216D01*
X165332163Y-119132378D01*
X165326674Y-119135239D01*
X165321710Y-119139508D01*
X165321498Y-119139755D01*
X165320087Y-119142344D01*
X165317389Y-119148203D01*
X165313510Y-119157074D01*
X165308557Y-119168703D01*
X165302635Y-119182832D01*
X165295852Y-119199206D01*
X165288313Y-119217568D01*
X165280125Y-119237662D01*
X165271395Y-119259232D01*
X165262229Y-119282021D01*
X165257631Y-119293506D01*
X165247129Y-119319779D01*
X165237949Y-119342768D01*
X165230007Y-119362705D01*
X165223216Y-119379827D01*
X165217490Y-119394366D01*
X165212743Y-119406559D01*
X165208890Y-119416638D01*
X165205846Y-119424839D01*
X165203523Y-119431396D01*
X165201836Y-119436544D01*
X165200700Y-119440516D01*
X165200029Y-119443548D01*
X165199736Y-119445874D01*
X165199736Y-119447728D01*
X165199944Y-119449345D01*
X165200173Y-119450493D01*
X165200891Y-119452570D01*
X165202445Y-119455745D01*
X165204946Y-119460185D01*
X165208505Y-119466058D01*
X165213232Y-119473530D01*
X165219239Y-119482769D01*
X165226636Y-119493942D01*
X165235533Y-119507217D01*
X165246042Y-119522760D01*
X165258273Y-119540739D01*
X165272338Y-119561321D01*
X165288346Y-119584674D01*
X165306408Y-119610964D01*
X165306946Y-119611746D01*
X165321809Y-119633399D01*
X165336061Y-119654241D01*
X165349555Y-119674049D01*
X165362142Y-119692605D01*
X165373675Y-119709687D01*
X165384005Y-119725074D01*
X165392985Y-119738546D01*
X165400467Y-119749883D01*
X165406303Y-119758863D01*
X165410345Y-119765266D01*
X165412445Y-119768872D01*
X165412718Y-119769524D01*
X165412897Y-119775508D01*
X165412287Y-119779949D01*
X165410829Y-119782148D01*
X165406933Y-119786710D01*
X165400572Y-119793665D01*
X165391715Y-119803044D01*
X165380333Y-119814876D01*
X165366396Y-119829192D01*
X165349875Y-119846023D01*
X165330740Y-119865398D01*
X165308963Y-119887348D01*
X165284513Y-119911904D01*
X165274176Y-119922265D01*
X165255171Y-119941280D01*
X165236849Y-119959566D01*
X165219398Y-119976939D01*
X165203002Y-119993217D01*
X165187847Y-120008216D01*
X165174119Y-120021755D01*
X165162004Y-120033649D01*
X165151688Y-120043716D01*
X165143355Y-120051774D01*
X165137193Y-120057638D01*
X165133387Y-120061126D01*
X165132218Y-120062060D01*
X165124703Y-120064519D01*
X165116999Y-120063735D01*
X165108465Y-120059617D01*
X165106747Y-120058485D01*
X165103827Y-120056487D01*
X165098023Y-120052510D01*
X165089576Y-120046720D01*
X165078728Y-120039283D01*
X165065720Y-120030364D01*
X165050794Y-120020129D01*
X165034192Y-120008743D01*
X165016155Y-119996373D01*
X164996924Y-119983184D01*
X164976743Y-119969342D01*
X164958209Y-119956629D01*
X164937464Y-119942412D01*
X164917506Y-119928757D01*
X164898571Y-119915824D01*
X164880894Y-119903774D01*
X164864710Y-119892766D01*
X164850257Y-119882961D01*
X164837768Y-119874517D01*
X164827481Y-119867596D01*
X164819630Y-119862356D01*
X164814451Y-119858959D01*
X164812254Y-119857599D01*
X164803350Y-119854938D01*
X164798544Y-119855016D01*
X164794998Y-119856161D01*
X164788390Y-119859032D01*
X164778968Y-119863506D01*
X164766981Y-119869461D01*
X164752676Y-119876774D01*
X164736302Y-119885322D01*
X164723511Y-119892099D01*
X164705629Y-119901598D01*
X164690757Y-119909411D01*
X164678576Y-119915663D01*
X164668767Y-119920481D01*
X164661010Y-119923991D01*
X164654986Y-119926317D01*
X164650375Y-119927587D01*
X164646858Y-119927927D01*
X164644117Y-119927461D01*
X164641830Y-119926316D01*
X164640096Y-119924981D01*
X164638906Y-119922834D01*
X164636324Y-119917284D01*
X164632397Y-119908438D01*
X164627168Y-119896402D01*
X164620683Y-119881282D01*
X164612985Y-119863184D01*
X164604120Y-119842214D01*
X164594133Y-119818480D01*
X164583067Y-119792086D01*
X164570968Y-119763139D01*
X164557881Y-119731745D01*
X164543850Y-119698011D01*
X164528920Y-119662043D01*
X164513135Y-119623946D01*
X164500429Y-119593232D01*
X164483937Y-119553340D01*
X164468836Y-119516799D01*
X164455066Y-119483461D01*
X164442567Y-119453176D01*
X164431279Y-119425792D01*
X164421143Y-119401161D01*
X164412097Y-119379131D01*
X164404083Y-119359554D01*
X164397041Y-119342278D01*
X164390909Y-119327154D01*
X164385630Y-119314032D01*
X164381141Y-119302762D01*
X164377385Y-119293193D01*
X164374300Y-119285176D01*
X164371827Y-119278561D01*
X164369906Y-119273196D01*
X164368476Y-119268934D01*
X164367479Y-119265622D01*
X164366853Y-119263112D01*
X164366540Y-119261252D01*
X164366478Y-119259894D01*
X164366609Y-119258887D01*
X164366725Y-119258477D01*
X164368534Y-119254217D01*
X164371280Y-119250407D01*
X164375554Y-119246519D01*
X164381948Y-119242027D01*
X164391053Y-119236403D01*
X164392396Y-119235603D01*
X164401349Y-119230038D01*
X164411085Y-119223602D01*
X164419706Y-119217554D01*
X164420829Y-119216727D01*
X164428117Y-119211307D01*
X164437103Y-119204628D01*
X164446443Y-119197688D01*
X164452105Y-119193482D01*
X164483197Y-119168058D01*
X164511680Y-119139951D01*
X164537369Y-119109367D01*
X164560076Y-119076514D01*
X164564448Y-119069346D01*
X164581615Y-119037155D01*
X164596183Y-119002727D01*
X164607900Y-118966801D01*
X164616518Y-118930114D01*
X164620758Y-118902870D01*
X164621962Y-118888905D01*
X164622614Y-118872303D01*
X164622731Y-118854175D01*
X164622332Y-118835633D01*
X164621434Y-118817786D01*
X164620055Y-118801747D01*
X164619010Y-118793496D01*
X164611347Y-118754071D01*
X164600229Y-118715990D01*
X164585790Y-118679440D01*
X164568165Y-118644607D01*
X164547489Y-118611676D01*
X164523897Y-118580832D01*
X164497523Y-118552263D01*
X164468502Y-118526152D01*
X164436969Y-118502686D01*
X164403058Y-118482051D01*
X164386909Y-118473664D01*
X164351234Y-118458019D01*
X164314916Y-118445980D01*
X164277668Y-118437481D01*
X164239202Y-118432455D01*
X164200000Y-118430835D01*
X164165964Y-118431947D01*
X164134030Y-118435386D01*
X164103193Y-118441310D01*
X164072446Y-118449876D01*
X164067314Y-118451553D01*
X164030189Y-118465868D01*
X163994874Y-118483374D01*
X163961552Y-118503890D01*
X163930405Y-118527236D01*
X163901615Y-118553230D01*
X163875364Y-118581692D01*
X163851835Y-118612440D01*
X163831210Y-118645296D01*
X163813672Y-118680076D01*
X163799401Y-118716602D01*
X163799072Y-118717584D01*
X163790654Y-118745262D01*
X163784443Y-118771699D01*
X163780249Y-118798083D01*
X163777885Y-118825599D01*
X163777160Y-118855332D01*
X163777903Y-118883778D01*
X163780215Y-118909969D01*
X163784300Y-118935187D01*
X163790364Y-118960716D01*
X163798078Y-118986224D01*
X163812357Y-119023661D01*
X163829914Y-119059255D01*
X163850639Y-119092849D01*
X163874417Y-119124288D01*
X163901138Y-119153418D01*
X163930690Y-119180083D01*
X163947896Y-119193485D01*
X163956305Y-119199717D01*
X163964808Y-119206051D01*
X163972251Y-119211624D01*
X163976329Y-119214700D01*
X163982527Y-119219142D01*
X163990713Y-119224658D01*
X163999609Y-119230395D01*
X164004762Y-119233595D01*
X164014710Y-119239781D01*
X164021884Y-119244603D01*
X164026824Y-119248532D01*
X164030072Y-119252040D01*
X164032170Y-119255601D01*
X164033279Y-119258487D01*
X164033483Y-119259377D01*
X164033525Y-119260542D01*
X164033345Y-119262132D01*
X164032883Y-119264297D01*
X164032080Y-119267188D01*
X164030875Y-119270954D01*
X164029208Y-119275745D01*
X164027020Y-119281712D01*
X164024250Y-119289004D01*
X164020839Y-119297772D01*
X164016726Y-119308166D01*
X164011852Y-119320336D01*
X164006157Y-119334432D01*
X163999580Y-119350604D01*
X163992062Y-119369002D01*
X163983543Y-119389776D01*
X163973963Y-119413076D01*
X163963262Y-119439053D01*
X163951379Y-119467856D01*
X163938256Y-119499636D01*
X163923832Y-119534542D01*
X163908046Y-119572725D01*
X163899563Y-119593242D01*
X163883313Y-119632507D01*
X163867851Y-119669806D01*
X163853223Y-119705025D01*
X163839476Y-119738055D01*
X163826658Y-119768784D01*
X163814814Y-119797099D01*
X163803993Y-119822891D01*
X163794240Y-119846048D01*
X163785603Y-119866458D01*
X163778128Y-119884009D01*
X163771863Y-119898592D01*
X163766855Y-119910094D01*
X163763149Y-119918403D01*
X163760794Y-119923410D01*
X163759893Y-119924981D01*
X163755115Y-119927451D01*
X163750343Y-119928298D01*
X163746908Y-119927354D01*
X163740235Y-119924535D01*
X163730368Y-119919864D01*
X163717353Y-119913363D01*
X163701233Y-119905054D01*
X163682053Y-119894958D01*
X163677102Y-119892326D01*
X163662164Y-119884421D01*
X163648071Y-119877057D01*
X163635217Y-119870433D01*
X163623998Y-119864749D01*
X163614806Y-119860203D01*
X163608036Y-119856994D01*
X163604083Y-119855323D01*
X163603479Y-119855145D01*
X163597126Y-119854916D01*
X163591573Y-119855972D01*
X163589165Y-119857330D01*
X163583871Y-119860682D01*
X163575925Y-119865870D01*
X163565563Y-119872734D01*
X163553020Y-119881118D01*
X163538531Y-119890864D01*
X163522331Y-119901812D01*
X163504655Y-119913806D01*
X163485739Y-119926687D01*
X163465816Y-119940297D01*
X163447893Y-119952577D01*
X163427076Y-119966858D01*
X163406920Y-119980685D01*
X163387678Y-119993884D01*
X163369601Y-120006283D01*
X163352940Y-120017710D01*
X163337947Y-120027992D01*
X163324873Y-120036956D01*
X163313970Y-120044431D01*
X163305490Y-120050243D01*
X163299683Y-120054220D01*
X163297138Y-120055961D01*
X163288046Y-120061501D01*
X163280662Y-120064285D01*
X163274235Y-120064442D01*
X163268011Y-120062098D01*
X163266456Y-120061172D01*
X163264346Y-120059351D01*
X163259750Y-120055027D01*
X163252857Y-120048384D01*
X163243853Y-120039609D01*
X163232926Y-120028886D01*
X163220264Y-120016400D01*
X163206053Y-120002336D01*
X163190482Y-119986879D01*
X163173737Y-119970216D01*
X163156007Y-119952529D01*
X163137479Y-119934006D01*
X163124877Y-119921385D01*
X163099450Y-119895865D01*
X163076707Y-119872963D01*
X163056620Y-119852649D01*
X163039159Y-119834895D01*
X163024296Y-119819670D01*
X163012003Y-119806944D01*
X163002250Y-119796689D01*
X162995008Y-119788874D01*
X162990250Y-119783469D01*
X162987945Y-119780446D01*
X162987714Y-119779949D01*
X162987036Y-119773945D01*
X162987273Y-119769524D01*
X162988447Y-119767254D01*
X162991629Y-119762087D01*
X162996672Y-119754244D01*
X163003428Y-119743944D01*
X163011749Y-119731410D01*
X163021487Y-119716860D01*
X163032495Y-119700517D01*
X163044624Y-119682600D01*
X163057726Y-119663330D01*
X163071654Y-119642928D01*
X163086260Y-119621614D01*
X163093040Y-119611746D01*
X163111169Y-119585362D01*
X163127239Y-119561921D01*
X163141362Y-119541256D01*
X163153649Y-119523199D01*
X163164209Y-119507583D01*
X163173153Y-119494242D01*
X163180593Y-119483009D01*
X163186638Y-119473716D01*
X163191399Y-119466197D01*
X163194987Y-119460284D01*
X163197513Y-119455811D01*
X163199086Y-119452610D01*
X163199818Y-119450515D01*
X163199823Y-119450493D01*
X163200128Y-119448901D01*
X163200287Y-119447242D01*
X163200216Y-119445281D01*
X163199827Y-119442784D01*
X163199036Y-119439515D01*
X163197756Y-119435240D01*
X163195902Y-119429726D01*
X163193387Y-119422736D01*
X163190126Y-119414036D01*
X163186033Y-119403392D01*
X163181022Y-119390569D01*
X163175007Y-119375333D01*
X163167902Y-119357448D01*
X163159623Y-119336681D01*
X163150081Y-119312796D01*
X163142444Y-119293690D01*
X163133365Y-119271040D01*
X163124619Y-119249328D01*
X163116315Y-119228823D01*
X163108565Y-119209792D01*
X163101480Y-119192507D01*
X163095170Y-119177235D01*
X163089746Y-119164246D01*
X163085320Y-119153808D01*
X163082003Y-119146191D01*
X163079905Y-119141664D01*
X163079268Y-119140531D01*
X163074557Y-119136118D01*
X163069477Y-119133085D01*
X163066810Y-119132399D01*
X163060679Y-119131078D01*
X163051350Y-119129172D01*
X163039088Y-119126734D01*
X163024157Y-119123815D01*
X163006824Y-119120464D01*
X162987352Y-119116735D01*
X162966007Y-119112677D01*
X162943053Y-119108342D01*
X162918757Y-119103781D01*
X162893383Y-119099045D01*
X162883560Y-119097219D01*
X162857837Y-119092434D01*
X162833082Y-119087812D01*
X162809563Y-119083404D01*
X162787545Y-119079262D01*
X162767294Y-119075434D01*
X162749076Y-119071973D01*
X162733156Y-119068928D01*
X162719801Y-119066350D01*
X162709277Y-119064290D01*
X162701848Y-119062799D01*
X162697782Y-119061926D01*
X162697178Y-119061768D01*
X162691215Y-119058319D01*
X162687219Y-119053793D01*
X162686635Y-119052748D01*
X162686117Y-119051488D01*
X162685663Y-119049792D01*
X162685268Y-119047439D01*
X162684930Y-119044210D01*
X162684645Y-119039884D01*
X162684410Y-119034241D01*
X162684221Y-119027060D01*
X162684074Y-119018121D01*
X162683967Y-119007203D01*
X162683896Y-118994087D01*
X162683857Y-118978551D01*
X162683847Y-118960375D01*
X162683863Y-118939340D01*
X162683901Y-118915224D01*
X162683958Y-118887807D01*
X162684031Y-118856869D01*
X162684049Y-118849424D01*
X162684530Y-118651021D01*
X162689049Y-118646211D01*
X162689710Y-118645398D01*
X162690174Y-118644698D01*
X162690648Y-118644068D01*
X162691341Y-118643465D01*
X162692463Y-118642844D01*
X162694223Y-118642164D01*
X162696829Y-118641380D01*
X162700490Y-118640450D01*
X162705416Y-118639330D01*
X162711815Y-118637977D01*
X162719896Y-118636347D01*
X162729869Y-118634398D01*
X162741942Y-118632086D01*
X162756324Y-118629368D01*
X162773224Y-118626200D01*
X162792851Y-118622540D01*
X162815415Y-118618343D01*
X162841123Y-118613567D01*
X162870186Y-118608169D01*
X162895316Y-118603499D01*
X162926115Y-118597773D01*
X162953407Y-118592693D01*
X162977412Y-118588205D01*
X162998349Y-118584255D01*
X163016438Y-118580791D01*
X163031898Y-118577757D01*
X163044949Y-118575102D01*
X163055809Y-118572771D01*
X163064700Y-118570712D01*
X163071839Y-118568871D01*
X163077447Y-118567194D01*
X163081743Y-118565628D01*
X163084947Y-118564120D01*
X163087277Y-118562616D01*
X163088954Y-118561062D01*
X163090197Y-118559406D01*
X163091225Y-118557594D01*
X163092257Y-118555573D01*
X163092263Y-118555562D01*
X163093472Y-118552930D01*
X163096051Y-118547093D01*
X163099878Y-118538332D01*
X163104831Y-118526929D01*
X163110789Y-118513164D01*
X163117631Y-118497318D01*
X163125235Y-118479673D01*
X163133480Y-118460508D01*
X163142244Y-118440106D01*
X163151406Y-118418747D01*
X163152891Y-118415283D01*
X163163988Y-118389410D01*
X163173689Y-118366786D01*
X163182067Y-118347162D01*
X163189195Y-118330290D01*
X163195146Y-118315924D01*
X163199992Y-118303817D01*
X163203807Y-118293720D01*
X163206663Y-118285386D01*
X163208634Y-118278568D01*
X163209791Y-118273019D01*
X163210208Y-118268491D01*
X163209957Y-118264737D01*
X163209112Y-118261509D01*
X163207745Y-118258560D01*
X163205930Y-118255643D01*
X163203738Y-118252510D01*
X163201679Y-118249560D01*
X163199323Y-118246111D01*
X163194989Y-118239779D01*
X163188842Y-118230806D01*
X163181048Y-118219432D01*
X163171773Y-118205901D01*
X163161182Y-118190454D01*
X163149443Y-118173334D01*
X163136721Y-118154782D01*
X163123181Y-118135041D01*
X163108991Y-118114353D01*
X163094315Y-118092960D01*
X163092038Y-118089641D01*
X163077474Y-118068402D01*
X163063495Y-118047997D01*
X163050253Y-118028650D01*
X163037902Y-118010584D01*
X163026593Y-117994024D01*
X163016481Y-117979194D01*
X163007716Y-117966317D01*
X163000452Y-117955618D01*
X162994842Y-117947319D01*
X162991038Y-117941646D01*
X162989193Y-117938822D01*
X162989061Y-117938598D01*
X162987581Y-117933904D01*
X162986876Y-117927930D01*
X162986866Y-117927239D01*
X162986928Y-117926024D01*
X162987213Y-117924715D01*
X162987874Y-117923153D01*
X162989060Y-117921180D01*
X162990923Y-117918636D01*
X162993614Y-117915363D01*
X162997285Y-117911202D01*
X163002085Y-117905994D01*
X163008166Y-117899581D01*
X163015680Y-117891804D01*
X163024776Y-117882504D01*
X163035607Y-117871522D01*
X163048322Y-117858700D01*
X163063074Y-117843878D01*
X163080013Y-117826899D01*
X163099290Y-117807602D01*
X163121057Y-117785830D01*
X163268380Y-117638507D01*
X163276659Y-117638507D01*
X163277711Y-117638440D01*
X163278557Y-117638307D01*
X163279350Y-117638208D01*
X163280243Y-117638245D01*
X163281388Y-117638520D01*
X163282939Y-117639134D01*
X163285050Y-117640187D01*
X163287873Y-117641782D01*
X163291562Y-117644020D01*
X163296269Y-117647002D01*
X163302147Y-117650829D01*
X163309351Y-117655602D01*
X163318032Y-117661424D01*
X163328345Y-117668395D01*
X163340442Y-117676616D01*
X163354476Y-117686189D01*
X163370601Y-117697216D01*
X163388969Y-117709797D01*
X163409734Y-117724034D01*
X163433049Y-117740027D01*
X163459067Y-117757880D01*
X163487941Y-117777692D01*
X163512622Y-117794625D01*
X163533198Y-117808736D01*
X163550890Y-117820852D01*
X163565941Y-117831125D01*
X163578591Y-117839708D01*
X163589083Y-117846751D01*
X163597657Y-117852408D01*
X163604555Y-117856830D01*
X163610019Y-117860169D01*
X163614290Y-117862577D01*
X163617610Y-117864206D01*
X163620220Y-117865207D01*
X163622361Y-117865734D01*
X163624275Y-117865937D01*
X163625998Y-117865970D01*
X163628225Y-117865792D01*
X163631233Y-117865198D01*
X163635261Y-117864096D01*
X163640547Y-117862396D01*
X163647330Y-117860006D01*
X163655847Y-117856836D01*
X163666338Y-117852794D01*
X163679040Y-117847790D01*
X163694192Y-117841732D01*
X163712032Y-117834529D01*
X163732799Y-117826090D01*
X163756731Y-117816325D01*
X163767465Y-117811936D01*
X163788799Y-117803189D01*
X163809187Y-117794792D01*
X163828344Y-117786863D01*
X163845987Y-117779522D01*
X163861832Y-117772888D01*
X163875595Y-117767081D01*
X163886992Y-117762219D01*
X163895740Y-117758423D01*
X163901554Y-117755810D01*
X163904150Y-117754502D01*
X163904182Y-117754479D01*
X163905883Y-117753210D01*
X163907425Y-117751923D01*
X163908856Y-117750401D01*
X163910226Y-117748427D01*
X163911586Y-117745786D01*
X163912985Y-117742262D01*
X163914473Y-117737638D01*
X163916099Y-117731698D01*
X163917914Y-117724225D01*
X163919967Y-117715003D01*
X163922309Y-117703817D01*
X163924988Y-117690449D01*
X163928054Y-117674684D01*
X163931558Y-117656305D01*
X163935550Y-117635096D01*
X163940078Y-117610841D01*
X163945193Y-117583323D01*
X163950945Y-117552326D01*
X163951850Y-117547446D01*
X163956814Y-117520748D01*
X163961616Y-117495031D01*
X163966208Y-117470551D01*
X163970540Y-117447561D01*
X163974565Y-117426314D01*
X163978233Y-117407065D01*
X163981497Y-117390066D01*
X163984308Y-117375572D01*
X163986618Y-117363837D01*
X163988378Y-117355114D01*
X163989539Y-117349656D01*
X163990011Y-117347794D01*
X163993139Y-117343011D01*
X163997775Y-117338922D01*
X163997976Y-117338797D01*
X163999031Y-117338224D01*
X164000354Y-117337716D01*
X164002166Y-117337269D01*
X164004688Y-117336879D01*
X164008141Y-117336542D01*
X164012748Y-117336255D01*
X164018729Y-117336013D01*
X164026306Y-117335813D01*
X164035700Y-117335651D01*
X164047132Y-117335522D01*
X164060825Y-117335423D01*
X164076999Y-117335350D01*
X164095876Y-117335299D01*
X164117677Y-117335266D01*
X164142624Y-117335248D01*
X164170937Y-117335239D01*
X164200000Y-117335238D01*
X164231591Y-117335240D01*
D12*
X160690000Y-91250000D03*
X131350000Y-95380000D03*
D13*
X158450000Y-123495000D03*
D14*
X159495000Y-122700000D03*
X159495000Y-122200000D03*
X159495000Y-121700000D03*
X159495000Y-121200000D03*
X159495000Y-120700000D03*
D13*
X158450000Y-119905000D03*
X156950000Y-119905000D03*
D14*
X155905000Y-120700000D03*
X155905000Y-121200000D03*
X155905000Y-121700000D03*
X155905000Y-122200000D03*
X155905000Y-122700000D03*
D13*
X156950000Y-123495000D03*
D15*
X157700000Y-121700000D03*
D16*
X158461920Y-94250000D03*
X158461920Y-93599760D03*
X158461920Y-92949520D03*
X155800000Y-92949520D03*
X155800000Y-93599760D03*
X155800000Y-94250000D03*
X164300000Y-98250000D03*
X164300000Y-97599760D03*
X164300000Y-96949520D03*
X161638080Y-96949520D03*
X161638080Y-97599760D03*
X161638080Y-98250000D03*
X158611920Y-96700000D03*
X158611920Y-96049760D03*
X158611920Y-95399520D03*
X155950000Y-95399520D03*
X155950000Y-96049760D03*
X155950000Y-96700000D03*
D17*
X153810000Y-109650000D03*
X153810000Y-105650000D03*
D18*
X154500000Y-121800000D03*
X153100000Y-121800000D03*
D19*
X143180000Y-121090000D03*
D20*
X145720000Y-121090000D03*
X148260000Y-121090000D03*
X150800000Y-121090000D03*
D21*
X150850000Y-111180000D03*
D22*
X148310000Y-111180000D03*
X150850000Y-108640000D03*
X148310000Y-108640000D03*
X150850000Y-106100000D03*
X148310000Y-106100000D03*
X150850000Y-103560000D03*
X148310000Y-103560000D03*
X150850000Y-101020000D03*
X148310000Y-101020000D03*
X150850000Y-98480000D03*
X148310000Y-98480000D03*
D23*
X140800000Y-92060000D03*
D24*
X140800000Y-94600000D03*
D25*
X136780000Y-94751140D03*
X138680000Y-94751140D03*
X137730000Y-91748860D03*
D26*
X161190000Y-100200000D03*
X161190000Y-100600000D03*
X161190000Y-101000000D03*
X161190000Y-101400000D03*
X161190000Y-101800000D03*
X161190000Y-102200000D03*
X161190000Y-102600000D03*
X161190000Y-103000000D03*
X161190000Y-103400000D03*
X161190000Y-103800000D03*
X161190000Y-107800000D03*
X161190000Y-107400000D03*
X161190000Y-107000000D03*
X161190000Y-106600000D03*
X161190000Y-106200000D03*
X161190000Y-105800000D03*
X161190000Y-105400000D03*
X161190000Y-105000000D03*
X161190000Y-104600000D03*
X161190000Y-104200000D03*
X161190000Y-108200000D03*
X161190000Y-108600000D03*
X161190000Y-109000000D03*
X161190000Y-109400000D03*
X161190000Y-109800000D03*
X161190000Y-110200000D03*
X161190000Y-110600000D03*
X161190000Y-111000000D03*
X161190000Y-111400000D03*
X161190000Y-111800000D03*
X161190000Y-115800000D03*
X161190000Y-115400000D03*
X161190000Y-115000000D03*
X161190000Y-114600000D03*
X161190000Y-114200000D03*
X161190000Y-113800000D03*
X161190000Y-113400000D03*
X161190000Y-113000000D03*
X161190000Y-112600000D03*
X161190000Y-112200000D03*
X158110000Y-112200000D03*
X158110000Y-112600000D03*
X158110000Y-113000000D03*
X158110000Y-113400000D03*
X158110000Y-113800000D03*
X158110000Y-114200000D03*
X158110000Y-114600000D03*
X158110000Y-115000000D03*
X158110000Y-115400000D03*
X158110000Y-115800000D03*
X158110000Y-111800000D03*
X158110000Y-111400000D03*
X158110000Y-111000000D03*
X158110000Y-110600000D03*
X158110000Y-110200000D03*
X158110000Y-109800000D03*
X158110000Y-109400000D03*
X158110000Y-109000000D03*
X158110000Y-108600000D03*
X158110000Y-108200000D03*
X158110000Y-104200000D03*
X158110000Y-104600000D03*
X158110000Y-105000000D03*
X158110000Y-105400000D03*
X158110000Y-105800000D03*
X158110000Y-106200000D03*
X158110000Y-106600000D03*
X158110000Y-107000000D03*
X158110000Y-107400000D03*
X158110000Y-107800000D03*
X158110000Y-103800000D03*
X158110000Y-103400000D03*
X158110000Y-103000000D03*
X158110000Y-102600000D03*
X158110000Y-102200000D03*
X158110000Y-101800000D03*
X158110000Y-101400000D03*
X158110000Y-101000000D03*
X158110000Y-100600000D03*
X158110000Y-100200000D03*
D27*
X153600000Y-117100000D03*
X155600000Y-119400000D03*
X161400000Y-119600000D03*
X135700000Y-91100000D03*
D12*
X131440000Y-120700000D03*
D28*
X162950000Y-97849974D03*
X162500000Y-95300000D03*
X159100000Y-98150000D03*
X159950000Y-93400000D03*
X154548089Y-92940038D03*
X152902199Y-93411565D03*
X160729126Y-94320874D03*
D29*
X156306694Y-107218712D03*
X157062650Y-107581100D03*
X157062650Y-108419301D03*
X156306694Y-108781689D03*
X156721418Y-109509292D03*
X155965462Y-109871680D03*
D28*
X158900000Y-117000000D03*
X159117518Y-115862566D03*
D29*
X156721418Y-106491109D03*
D28*
X152800000Y-118400000D03*
X154802150Y-120402150D03*
X154803578Y-94899560D03*
X154325068Y-92130246D03*
X160303087Y-96914049D03*
X157300000Y-97100000D03*
X156750000Y-92200000D03*
D29*
X156380187Y-105401118D03*
X154913879Y-102902092D03*
X155699255Y-103286282D03*
X161045015Y-116945501D03*
D28*
X158030302Y-116878777D03*
D29*
X161045015Y-99054899D03*
X158255617Y-99054899D03*
X158255617Y-99054899D03*
X162035617Y-116147324D03*
X162511810Y-116834445D03*
X163166374Y-116308281D03*
X163642567Y-116995401D03*
X164626605Y-116049236D03*
X165041329Y-115321633D03*
X164285373Y-114959245D03*
X164700097Y-114231642D03*
X163944142Y-113869254D03*
X164358866Y-113141651D03*
X163602910Y-112779264D03*
X164017634Y-112051661D03*
X163261678Y-111689273D03*
X163676402Y-110961670D03*
X162920446Y-110599282D03*
X162920446Y-105401118D03*
X163676402Y-105038731D03*
X163261678Y-104311128D03*
X164017634Y-103948740D03*
X163602910Y-103221137D03*
X164358866Y-102858749D03*
X163944142Y-102131146D03*
X164700097Y-101768759D03*
X164285373Y-101041156D03*
X165041329Y-100678768D03*
X164626605Y-99951165D03*
X163642567Y-99005000D03*
X163166374Y-99692120D03*
X162511810Y-99165956D03*
X162035617Y-99853076D03*
X157426095Y-99696345D03*
X156970000Y-98910000D03*
X156227435Y-99454691D03*
D28*
X154404883Y-95893410D03*
X153670000Y-93860000D03*
D29*
X155090000Y-99310000D03*
X154810000Y-100140000D03*
X154961415Y-101039360D03*
X154564974Y-101774722D03*
X155418244Y-102148905D03*
X155965462Y-106128721D03*
X156380187Y-110599282D03*
X155624231Y-110961670D03*
X156038955Y-111689273D03*
X155282999Y-112051661D03*
X155697723Y-112779264D03*
X154941767Y-113141651D03*
X155356491Y-113869254D03*
X154600535Y-114231642D03*
X155015259Y-114959245D03*
X154259303Y-115321633D03*
X154674027Y-116049236D03*
D28*
X155662567Y-117429257D03*
X154000000Y-123000000D03*
X153900000Y-120400000D03*
X156800000Y-117600000D03*
X157900000Y-118200000D03*
X163360000Y-95810000D03*
X157700000Y-121700000D03*
X160500000Y-121400000D03*
X150140000Y-93830000D03*
X138830000Y-93100000D03*
X139700000Y-95770000D03*
X153790000Y-107240000D03*
X155370000Y-104730000D03*
X153840000Y-103970000D03*
D29*
X163335170Y-106128721D03*
X162579214Y-106491109D03*
X162993938Y-107218712D03*
X162237982Y-107581100D03*
X162237982Y-108419301D03*
X162993938Y-108781689D03*
X162579214Y-109509292D03*
X163335170Y-109871680D03*
D28*
X160500000Y-95450000D03*
X157300000Y-95000000D03*
D30*
X162950000Y-97849974D02*
X162950000Y-96450000D01*
X162950000Y-96450000D02*
X162850000Y-96350000D01*
X162950000Y-97849974D02*
X163350266Y-98250240D01*
X163350266Y-98250240D02*
X163350506Y-98250000D01*
X163350506Y-98250000D02*
X164300000Y-98250000D01*
X162850000Y-96350000D02*
X162550000Y-96050000D01*
X158461920Y-94250000D02*
X158461920Y-95249520D01*
X158461920Y-95249520D02*
X158611920Y-95399520D01*
X159353696Y-95399520D02*
X159975678Y-96021502D01*
X158611920Y-95399520D02*
X159353696Y-95399520D01*
X160771502Y-96021502D02*
X160528498Y-96021502D01*
X162550000Y-96050000D02*
X160800000Y-96050000D01*
X160800000Y-96050000D02*
X160771502Y-96021502D01*
X160528498Y-96021502D02*
X159914476Y-96021502D01*
X159235978Y-96700000D02*
X158611920Y-96700000D01*
X159975678Y-96021502D02*
X160528498Y-96021502D01*
X159914476Y-96021502D02*
X159235978Y-96700000D01*
X162500000Y-96000000D02*
X162500000Y-95784933D01*
X162550000Y-96050000D02*
X162500000Y-96000000D01*
X162500000Y-95784933D02*
X162500000Y-95300000D01*
X158611920Y-94261920D02*
X158600000Y-94250000D01*
X159502970Y-92949520D02*
X158461920Y-92949520D01*
X158265067Y-97800000D02*
X156698210Y-97800000D01*
X155950000Y-97051790D02*
X155950000Y-96700000D01*
X156698210Y-97800000D02*
X155950000Y-97051790D01*
X159100000Y-98150000D02*
X158615067Y-98150000D01*
X158615067Y-98150000D02*
X158265067Y-97800000D01*
X159950000Y-93396550D02*
X159950000Y-93400000D01*
X159502970Y-92949520D02*
X159950000Y-93396550D01*
X156470220Y-96800240D02*
X155919040Y-96800240D01*
X152902199Y-95803241D02*
X152902199Y-93896498D01*
X153849917Y-96750959D02*
X152902199Y-95803241D01*
X152902199Y-93896498D02*
X152902199Y-93411565D01*
X153849918Y-102680960D02*
X153849917Y-96750959D01*
X158110000Y-105000000D02*
X157428930Y-105000000D01*
X157428930Y-105000000D02*
X156377670Y-103948740D01*
X156377670Y-103948740D02*
X155117698Y-103948740D01*
X155117698Y-103948740D02*
X153849918Y-102680960D01*
X155800000Y-92949520D02*
X154557571Y-92949520D01*
X154557571Y-92949520D02*
X154548089Y-92940038D01*
X155938080Y-92949520D02*
X155937600Y-92950000D01*
X160729126Y-94320874D02*
X160729126Y-92679126D01*
X160729126Y-92679126D02*
X160500000Y-92450000D01*
X156917251Y-93032749D02*
X156917251Y-94173799D01*
X156917251Y-94173799D02*
X156841050Y-94250000D01*
X156841050Y-94250000D02*
X155800000Y-94250000D01*
X160500000Y-92450000D02*
X157500000Y-92450000D01*
X157500000Y-92450000D02*
X156917251Y-93032749D01*
X159450000Y-105800000D02*
X158110000Y-105800000D01*
X159750000Y-105500000D02*
X159450000Y-105800000D01*
X159700000Y-96671314D02*
X159700000Y-99250000D01*
X159750000Y-99300000D02*
X159750000Y-105500000D01*
X159700000Y-99250000D02*
X159750000Y-99300000D01*
X159885657Y-96485657D02*
X159700000Y-96671314D01*
X161638080Y-96949520D02*
X160874588Y-96949520D01*
X160874588Y-96949520D02*
X160874588Y-96639728D01*
X160874588Y-96639728D02*
X160577408Y-96342548D01*
X160577408Y-96342548D02*
X160028766Y-96342548D01*
X160028766Y-96342548D02*
X159885657Y-96485657D01*
X155121540Y-98341292D02*
X154973623Y-98193375D01*
X158612400Y-105400000D02*
X159445190Y-104567210D01*
X159445190Y-99426256D02*
X158360226Y-98341292D01*
X158360226Y-98341292D02*
X155121540Y-98341292D01*
X154973623Y-98193375D02*
X154973623Y-95571170D01*
X158110000Y-105400000D02*
X158612400Y-105400000D01*
X154973623Y-95571170D02*
X155145273Y-95399520D01*
X155145273Y-95399520D02*
X155950000Y-95399520D01*
X159445190Y-104567210D02*
X159445190Y-99426256D01*
D31*
X140800000Y-94600000D02*
X149240000Y-94600000D01*
X149240000Y-94600000D02*
X152246384Y-97606384D01*
X152246384Y-97606384D02*
X152246384Y-102416384D01*
X152246384Y-102416384D02*
X152390000Y-102560000D01*
X157062650Y-107581100D02*
X156669082Y-107581100D01*
X156669082Y-107581100D02*
X156306694Y-107218712D01*
X157062650Y-108419301D02*
X157062650Y-107581100D01*
X156306694Y-108781689D02*
X156700262Y-108781689D01*
X156700262Y-108781689D02*
X157062650Y-108419301D01*
X156721418Y-109509292D02*
X156721418Y-109196413D01*
X156721418Y-109196413D02*
X156306694Y-108781689D01*
X155965462Y-109871680D02*
X156359030Y-109871680D01*
X156359030Y-109871680D02*
X156721418Y-109509292D01*
X153810000Y-109650000D02*
X155743782Y-109650000D01*
X155743782Y-109650000D02*
X155965462Y-109871680D01*
X153810000Y-109650000D02*
X153810000Y-109450000D01*
X153810000Y-109450000D02*
X152390000Y-108030000D01*
X152390000Y-108030000D02*
X152390000Y-102560000D01*
X152390000Y-102560000D02*
X151713599Y-101883599D01*
X151713599Y-101883599D02*
X150850000Y-101020000D01*
X150850000Y-108640000D02*
X152800000Y-108640000D01*
X152800000Y-108640000D02*
X153810000Y-109650000D01*
X148310000Y-108640000D02*
X150850000Y-108640000D01*
X150850000Y-101020000D02*
X148310000Y-101020000D01*
D30*
X158110316Y-107424000D02*
X157760316Y-107424000D01*
X157760316Y-107424000D02*
X157180872Y-106931569D01*
X157180872Y-106931569D02*
X156892034Y-107036104D01*
X156892034Y-107036104D02*
X156306694Y-107218712D01*
X158110316Y-107824000D02*
X157760316Y-107824000D01*
X157760316Y-107824000D02*
X157235359Y-107377873D01*
X157235359Y-107377873D02*
X157062650Y-107581100D01*
X158110316Y-108176401D02*
X157760316Y-108176401D01*
X157760316Y-108176401D02*
X157235359Y-108622527D01*
X157235359Y-108622527D02*
X157062650Y-108419301D01*
X158110316Y-108576401D02*
X157760316Y-108576401D01*
X157760316Y-108576401D02*
X157180872Y-109068832D01*
X157180872Y-109068832D02*
X156892034Y-108964297D01*
X156892034Y-108964297D02*
X156306694Y-108781689D01*
X158110316Y-108976401D02*
X157760316Y-108976401D01*
X157760316Y-108976401D02*
X156894127Y-109712518D01*
X156894127Y-109712518D02*
X156721418Y-109509292D01*
X158110316Y-109376401D02*
X157760316Y-109376401D01*
X157760316Y-109376401D02*
X156839640Y-110158823D01*
X156839640Y-110158823D02*
X156550802Y-110054287D01*
X156550802Y-110054287D02*
X155965462Y-109871680D01*
X155905000Y-121700000D02*
X154600000Y-121700000D01*
X154600000Y-121700000D02*
X154500000Y-121800000D01*
X153100000Y-121800000D02*
X153100000Y-121850000D01*
X153100000Y-121850000D02*
X152647600Y-122302400D01*
X160300000Y-122872884D02*
X160300000Y-122800000D01*
X160200000Y-122700000D02*
X159495000Y-122700000D01*
X152647600Y-122302400D02*
X152647600Y-123016403D01*
X152647600Y-123016403D02*
X154233213Y-124602016D01*
X154233213Y-124602016D02*
X158570868Y-124602016D01*
X158570868Y-124602016D02*
X160300000Y-122872884D01*
X160300000Y-122800000D02*
X160200000Y-122700000D01*
X150800000Y-121090000D02*
X152440000Y-121090000D01*
X152440000Y-121090000D02*
X153100000Y-121750000D01*
X153100000Y-121750000D02*
X153100000Y-121800000D01*
X151470000Y-121760000D02*
X150800000Y-121090000D01*
X143180000Y-121090000D02*
X143180000Y-121242400D01*
X143180000Y-121242400D02*
X146841633Y-124904033D01*
X146841633Y-124904033D02*
X158695967Y-124904033D01*
X158695967Y-124904033D02*
X162600000Y-121000000D01*
X159562594Y-117662594D02*
X159242899Y-117342899D01*
X162600000Y-121000000D02*
X162600000Y-119338045D01*
X160924549Y-117662594D02*
X159562594Y-117662594D01*
X162600000Y-119338045D02*
X160924549Y-117662594D01*
X159242899Y-117342899D02*
X158900000Y-117000000D01*
X158612400Y-107000000D02*
X159226257Y-107613857D01*
X159117518Y-115377633D02*
X159117518Y-115862566D01*
X158110000Y-107000000D02*
X158612400Y-107000000D01*
X159226257Y-107613857D02*
X159226257Y-115268894D01*
X159226257Y-115268894D02*
X159117518Y-115377633D01*
X158110316Y-107024000D02*
X157760316Y-107024000D01*
X157760316Y-107024000D02*
X156894127Y-106287883D01*
X156894127Y-106287883D02*
X156721418Y-106491109D01*
X152900000Y-111800000D02*
X152280000Y-111180000D01*
X152280000Y-111180000D02*
X150850000Y-111180000D01*
X152900000Y-115322370D02*
X152900000Y-111800000D01*
X153600000Y-117100000D02*
X153600000Y-116022370D01*
X153600000Y-116022370D02*
X152900000Y-115322370D01*
X152800000Y-117915067D02*
X152800000Y-118400000D01*
X152800000Y-117900000D02*
X152800000Y-117915067D01*
X153600000Y-117100000D02*
X152800000Y-117900000D01*
X155905000Y-120700000D02*
X155100000Y-120700000D01*
X155100000Y-120700000D02*
X154802150Y-120402150D01*
X155974901Y-117997983D02*
X155074900Y-117997984D01*
X153331292Y-119741592D02*
X153331292Y-120672981D01*
X156231293Y-117327020D02*
X156231293Y-117741591D01*
X156231293Y-117741591D02*
X155974901Y-117997983D01*
X159686226Y-116135547D02*
X159390481Y-116431292D01*
X153658311Y-121000000D02*
X153800000Y-121000000D01*
X153331292Y-120672981D02*
X153658311Y-121000000D01*
X159531067Y-115434426D02*
X159686226Y-115589585D01*
X159531067Y-106200000D02*
X159531067Y-115434426D01*
X157031962Y-117031293D02*
X156527020Y-117031293D01*
X158304624Y-116307275D02*
X157755980Y-116307275D01*
X159686226Y-115589585D02*
X159686226Y-116135547D01*
X158428641Y-116431292D02*
X158304624Y-116307275D01*
X159390481Y-116431292D02*
X158428641Y-116431292D01*
X155074900Y-117997984D02*
X153331292Y-119741592D01*
X156527020Y-117031293D02*
X156231293Y-117327020D01*
X157755980Y-116307275D02*
X157031962Y-117031293D01*
X153800000Y-121000000D02*
X153800000Y-122300000D01*
X153800000Y-122300000D02*
X153331293Y-122768707D01*
X153331293Y-122768707D02*
X153331293Y-123272980D01*
X153331293Y-123272980D02*
X153627020Y-123568707D01*
X153968707Y-123568707D02*
X154500000Y-124100000D01*
X153627020Y-123568707D02*
X153968707Y-123568707D01*
X154500000Y-124100000D02*
X154500000Y-123500000D01*
X154500000Y-123500000D02*
X155300000Y-122700000D01*
X155300000Y-122700000D02*
X155905000Y-122700000D01*
X154500000Y-124100000D02*
X154700000Y-124300000D01*
X155700000Y-124300000D02*
X157000000Y-124300000D01*
X154700000Y-124300000D02*
X155700000Y-124300000D01*
X156950000Y-124250000D02*
X157000000Y-124300000D01*
X157000000Y-124300000D02*
X158400000Y-124300000D01*
X156950000Y-123495000D02*
X156950000Y-124250000D01*
X158400000Y-124300000D02*
X158450000Y-124250000D01*
X158450000Y-124250000D02*
X158450000Y-123495000D01*
X155905000Y-121200000D02*
X155100000Y-121200000D01*
X155100000Y-121200000D02*
X154900000Y-121000000D01*
X154900000Y-121000000D02*
X153800000Y-121000000D01*
X153982169Y-92473145D02*
X154325068Y-92130246D01*
X153972017Y-92483297D02*
X153982169Y-92473145D01*
X154650000Y-93945822D02*
X153972017Y-93267839D01*
X153972017Y-93267839D02*
X153972017Y-92483297D01*
X154803578Y-94099400D02*
X154803578Y-94414627D01*
X154803578Y-94414627D02*
X154803578Y-94899560D01*
X154650000Y-93945822D02*
X154803578Y-94099400D01*
X161638080Y-98250000D02*
X160346552Y-98250000D01*
X160346552Y-98250000D02*
X160303087Y-98206535D01*
X160303087Y-98206535D02*
X160303087Y-97700000D01*
X160303087Y-97700000D02*
X160303087Y-97398982D01*
X161638080Y-97599760D02*
X160735110Y-97599760D01*
X160735110Y-97599760D02*
X160634870Y-97700000D01*
X160634870Y-97700000D02*
X160303087Y-97700000D01*
X158110000Y-106200000D02*
X159531067Y-106200000D01*
X154650000Y-93945822D02*
X154650000Y-93846790D01*
X154650000Y-93846790D02*
X154897030Y-93599760D01*
X154897030Y-93599760D02*
X155800000Y-93599760D01*
X154394822Y-92200000D02*
X154325068Y-92130246D01*
X156750000Y-92200000D02*
X154394822Y-92200000D01*
X160303087Y-97398982D02*
X160303087Y-96914049D01*
X160239234Y-98270388D02*
X160303087Y-98206535D01*
X156957101Y-96757101D02*
X156957101Y-96153891D01*
X157300000Y-97100000D02*
X156957101Y-96757101D01*
X156957101Y-96153891D02*
X156852970Y-96049760D01*
X156852970Y-96049760D02*
X155950000Y-96049760D01*
X160054811Y-98454811D02*
X160239234Y-98270388D01*
X160054811Y-98454811D02*
X160050000Y-98450000D01*
X160059620Y-104997487D02*
X160054811Y-104992678D01*
X159531067Y-106200000D02*
X160059620Y-105671447D01*
X160054811Y-104992678D02*
X160054811Y-98454811D01*
X160059620Y-105671447D02*
X160059620Y-104997487D01*
X158110316Y-106224000D02*
X157760316Y-106224000D01*
X157760316Y-106224000D02*
X156552895Y-105197892D01*
X156552895Y-105197892D02*
X156380187Y-105401118D01*
X155098358Y-102717613D02*
X154913879Y-102902092D01*
X158110316Y-104224000D02*
X157507162Y-104224000D01*
X155691225Y-102717613D02*
X155098358Y-102717613D01*
X155881936Y-102598774D02*
X155810064Y-102598774D01*
X157507162Y-104224000D02*
X155881936Y-102598774D01*
X155810064Y-102598774D02*
X155691225Y-102717613D01*
X158110316Y-104624000D02*
X157480046Y-104624000D01*
X157480046Y-104624000D02*
X156485227Y-103629181D01*
X156042154Y-103629181D02*
X155699255Y-103286282D01*
X156485227Y-103629181D02*
X156042154Y-103629181D01*
X161045015Y-115800200D02*
X161045015Y-116945501D01*
X158030302Y-116878777D02*
X157687403Y-117221676D01*
X157687403Y-117470910D02*
X157331293Y-117827020D01*
X157687403Y-117221676D02*
X157687403Y-117470910D01*
X157331293Y-117827020D02*
X157331293Y-118218707D01*
X157331293Y-118218707D02*
X156950000Y-118600000D01*
X156677630Y-119400000D02*
X156950000Y-119127630D01*
X155600000Y-119400000D02*
X156677630Y-119400000D01*
X156950000Y-119127630D02*
X156950000Y-118600000D01*
X156950000Y-118600000D02*
X156950000Y-119257600D01*
X156950000Y-119257600D02*
X156950000Y-119905000D01*
X161045015Y-100200200D02*
X161045015Y-99054899D01*
X158255617Y-100200200D02*
X158255617Y-99054899D01*
X158255617Y-100200200D02*
X158255617Y-99054899D01*
X161190316Y-115376401D02*
X161540316Y-115376401D01*
X161540316Y-115376401D02*
X162208326Y-115944098D01*
X162208326Y-115944098D02*
X162035617Y-116147324D01*
X161190316Y-114976401D02*
X161540316Y-114976401D01*
X161540316Y-114976401D02*
X162657575Y-115925886D01*
X162657575Y-115925886D02*
X162600996Y-116227803D01*
X162600996Y-116227803D02*
X162511810Y-116834445D01*
X161190316Y-114576401D02*
X161540316Y-114576401D01*
X161540316Y-114576401D02*
X163339083Y-116105055D01*
X163339083Y-116105055D02*
X163166374Y-116308281D01*
X161190316Y-114176401D02*
X161540316Y-114176401D01*
X161540316Y-114176401D02*
X163788332Y-116086842D01*
X163788332Y-116086842D02*
X163731753Y-116388759D01*
X163731753Y-116388759D02*
X163642567Y-116995401D01*
X161190316Y-113776401D02*
X161540316Y-113776401D01*
X161540316Y-113776401D02*
X164453897Y-116252462D01*
X164453897Y-116252462D02*
X164626605Y-116049236D01*
X161190316Y-113376401D02*
X161540316Y-113376401D01*
X161540316Y-113376401D02*
X164167151Y-115608776D01*
X164167151Y-115608776D02*
X164455989Y-115504240D01*
X164455989Y-115504240D02*
X165041329Y-115321633D01*
X161190316Y-112976401D02*
X161540316Y-112976401D01*
X161540316Y-112976401D02*
X164112665Y-115162471D01*
X164112665Y-115162471D02*
X164285373Y-114959245D01*
X161190316Y-112576401D02*
X161540316Y-112576401D01*
X161540316Y-112576401D02*
X163825920Y-114518785D01*
X163825920Y-114518785D02*
X164114757Y-114414250D01*
X164114757Y-114414250D02*
X164700097Y-114231642D01*
X161190316Y-112176401D02*
X161540316Y-112176401D01*
X161540316Y-112176401D02*
X163771433Y-114072481D01*
X163771433Y-114072481D02*
X163944142Y-113869254D01*
X161190316Y-111776401D02*
X161540316Y-111776401D01*
X161540316Y-111776401D02*
X163484688Y-113428795D01*
X163484688Y-113428795D02*
X163773526Y-113324259D01*
X163773526Y-113324259D02*
X164358866Y-113141651D01*
X161190316Y-111376401D02*
X161540316Y-111376401D01*
X161540316Y-111376401D02*
X163430201Y-112982490D01*
X163430201Y-112982490D02*
X163602910Y-112779264D01*
X161190316Y-110976401D02*
X161540316Y-110976401D01*
X161540316Y-110976401D02*
X163143456Y-112338804D01*
X163143456Y-112338804D02*
X163432294Y-112234268D01*
X163432294Y-112234268D02*
X164017634Y-112051661D01*
X161190316Y-110576401D02*
X161540316Y-110576401D01*
X161540316Y-110576401D02*
X163088969Y-111892499D01*
X163088969Y-111892499D02*
X163261678Y-111689273D01*
X161190316Y-110176401D02*
X161540316Y-110176401D01*
X161540316Y-110176401D02*
X162802224Y-111248813D01*
X162802224Y-111248813D02*
X163091062Y-111144278D01*
X163091062Y-111144278D02*
X163676402Y-110961670D01*
X161190316Y-109776401D02*
X161540316Y-109776401D01*
X161540316Y-109776401D02*
X162747737Y-110802509D01*
X162747737Y-110802509D02*
X162920446Y-110599282D01*
X161190316Y-106224000D02*
X161540316Y-106224000D01*
X161540316Y-106224000D02*
X162747737Y-105197892D01*
X162747737Y-105197892D02*
X162920446Y-105401118D01*
X161190316Y-105824000D02*
X161540316Y-105824000D01*
X161540316Y-105824000D02*
X162802224Y-104751587D01*
X162802224Y-104751587D02*
X163091062Y-104856123D01*
X163091062Y-104856123D02*
X163676402Y-105038731D01*
X161190316Y-105424000D02*
X161540316Y-105424000D01*
X161540316Y-105424000D02*
X163088969Y-104107901D01*
X163088969Y-104107901D02*
X163261678Y-104311128D01*
X161190316Y-105024000D02*
X161540316Y-105024000D01*
X161540316Y-105024000D02*
X163143456Y-103661597D01*
X163143456Y-103661597D02*
X163432294Y-103766132D01*
X163432294Y-103766132D02*
X164017634Y-103948740D01*
X161190316Y-104624000D02*
X161540316Y-104624000D01*
X161540316Y-104624000D02*
X163430201Y-103017911D01*
X163430201Y-103017911D02*
X163602910Y-103221137D01*
X161190316Y-104224000D02*
X161540316Y-104224000D01*
X161540316Y-104224000D02*
X163484688Y-102571606D01*
X163484688Y-102571606D02*
X163773526Y-102676142D01*
X163773526Y-102676142D02*
X164358866Y-102858749D01*
X161190316Y-103824000D02*
X161540316Y-103824000D01*
X161540316Y-103824000D02*
X163771433Y-101927920D01*
X163771433Y-101927920D02*
X163944142Y-102131146D01*
X161190316Y-103424000D02*
X161540316Y-103424000D01*
X161540316Y-103424000D02*
X163825920Y-101481616D01*
X163825920Y-101481616D02*
X164114757Y-101586151D01*
X164114757Y-101586151D02*
X164700097Y-101768759D01*
X161190316Y-103024000D02*
X161540316Y-103024000D01*
X161540316Y-103024000D02*
X164112665Y-100837930D01*
X164112665Y-100837930D02*
X164285373Y-101041156D01*
X161190316Y-102624000D02*
X161540316Y-102624000D01*
X161540316Y-102624000D02*
X164167151Y-100391625D01*
X164167151Y-100391625D02*
X164455989Y-100496161D01*
X164455989Y-100496161D02*
X165041329Y-100678768D01*
X161190316Y-102224000D02*
X161540316Y-102224000D01*
X161540316Y-102224000D02*
X164453897Y-99747939D01*
X164453897Y-99747939D02*
X164626605Y-99951165D01*
X161190316Y-101824000D02*
X161540316Y-101824000D01*
X161540316Y-101824000D02*
X163788332Y-99913558D01*
X163788332Y-99913558D02*
X163731753Y-99611642D01*
X163731753Y-99611642D02*
X163642567Y-99005000D01*
X161190316Y-101424000D02*
X161540316Y-101424000D01*
X161540316Y-101424000D02*
X163339083Y-99895346D01*
X163339083Y-99895346D02*
X163166374Y-99692120D01*
X161190316Y-101024000D02*
X161540316Y-101024000D01*
X161540316Y-101024000D02*
X162657575Y-100074515D01*
X162657575Y-100074515D02*
X162600996Y-99772598D01*
X162600996Y-99772598D02*
X162511810Y-99165956D01*
X161190316Y-100624000D02*
X161540316Y-100624000D01*
X161540316Y-100624000D02*
X162208326Y-100056303D01*
X162208326Y-100056303D02*
X162035617Y-99853076D01*
X158110316Y-100624000D02*
X157760316Y-100624000D01*
X157760316Y-100624000D02*
X157426095Y-100289779D01*
X157426095Y-100289779D02*
X157426095Y-100181278D01*
X157426095Y-100181278D02*
X157426095Y-99696345D01*
X156796143Y-100187675D02*
X156796143Y-99083857D01*
X157760316Y-101024000D02*
X156908935Y-100300467D01*
X156908935Y-100300467D02*
X156796143Y-100187675D01*
X158110316Y-101024000D02*
X157760316Y-101024000D01*
X156796143Y-99083857D02*
X156970000Y-98910000D01*
X156227435Y-99939624D02*
X156227435Y-99454691D01*
X156728354Y-100547002D02*
X156227435Y-100046083D01*
X157760316Y-101424000D02*
X156728354Y-100547002D01*
X156227435Y-100046083D02*
X156227435Y-99939624D01*
X158110316Y-101424000D02*
X157760316Y-101424000D01*
X136780000Y-90670000D02*
X136780000Y-91100000D01*
X136780000Y-91100000D02*
X136780000Y-93698310D01*
X136777630Y-91100000D02*
X136780000Y-91100000D01*
X135700000Y-91100000D02*
X136777630Y-91100000D01*
X153670000Y-93860000D02*
X153670000Y-93375067D01*
X153670000Y-93375067D02*
X150724933Y-90430000D01*
X150724933Y-90430000D02*
X137020000Y-90430000D01*
X137020000Y-90430000D02*
X136780000Y-90670000D01*
X136780000Y-93698310D02*
X136780000Y-94751140D01*
X154012899Y-95501426D02*
X154061984Y-95550511D01*
X153670000Y-93860000D02*
X154012899Y-94202899D01*
X154012899Y-94202899D02*
X154012899Y-95501426D01*
X154061984Y-95550511D02*
X154404883Y-95893410D01*
X158110316Y-101824000D02*
X157578236Y-101824000D01*
X155432899Y-99678663D02*
X155432899Y-99652899D01*
X155432899Y-99652899D02*
X155090000Y-99310000D01*
X157578236Y-101824000D02*
X155432899Y-99678663D01*
X155294933Y-100140000D02*
X154810000Y-100140000D01*
X157551120Y-102224000D02*
X155467120Y-100140000D01*
X158110316Y-102224000D02*
X157551120Y-102224000D01*
X155467120Y-100140000D02*
X155294933Y-100140000D01*
X155939364Y-101039360D02*
X155446348Y-101039360D01*
X155446348Y-101039360D02*
X154961415Y-101039360D01*
X157524004Y-102624000D02*
X155939364Y-101039360D01*
X158110316Y-102624000D02*
X157524004Y-102624000D01*
X155232646Y-101611315D02*
X154728381Y-101611315D01*
X158110316Y-103024000D02*
X157459501Y-103024000D01*
X154728381Y-101611315D02*
X154564974Y-101774722D01*
X155409788Y-101434173D02*
X155232646Y-101611315D01*
X157459501Y-103024000D02*
X155869674Y-101434173D01*
X155869674Y-101434173D02*
X155409788Y-101434173D01*
X155903177Y-102148905D02*
X155418244Y-102148905D01*
X155977144Y-102148905D02*
X155903177Y-102148905D01*
X157252239Y-103424000D02*
X155977144Y-102148905D01*
X158110316Y-103424000D02*
X157252239Y-103424000D01*
X158110316Y-106624000D02*
X157760316Y-106624000D01*
X157760316Y-106624000D02*
X156839640Y-105841578D01*
X156839640Y-105841578D02*
X156550802Y-105946114D01*
X156550802Y-105946114D02*
X155965462Y-106128721D01*
X156723086Y-110942181D02*
X156380187Y-110599282D01*
X158110316Y-111376401D02*
X157157306Y-111376401D01*
X157157306Y-111376401D02*
X156723086Y-110942181D01*
X156498409Y-111248813D02*
X156209571Y-111144278D01*
X157025997Y-111776401D02*
X156498409Y-111248813D01*
X158110316Y-111776401D02*
X157025997Y-111776401D01*
X156209571Y-111144278D02*
X155624231Y-110961670D01*
X156526083Y-112176401D02*
X156381854Y-112032172D01*
X158110316Y-112176401D02*
X156526083Y-112176401D01*
X156381854Y-112032172D02*
X156038955Y-111689273D01*
X155868339Y-112234268D02*
X155282999Y-112051661D01*
X156394774Y-112576401D02*
X156157177Y-112338804D01*
X156157177Y-112338804D02*
X155868339Y-112234268D01*
X158110316Y-112576401D02*
X156394774Y-112576401D01*
X155870431Y-112982490D02*
X155697723Y-112779264D01*
X158104227Y-112982490D02*
X155870431Y-112982490D01*
X158110316Y-112976401D02*
X158104227Y-112982490D01*
X158110316Y-113376401D02*
X158057922Y-113428795D01*
X155527107Y-113324259D02*
X154941767Y-113141651D01*
X155815945Y-113428795D02*
X155527107Y-113324259D01*
X158057922Y-113428795D02*
X155815945Y-113428795D01*
X155841424Y-113869254D02*
X155356491Y-113869254D01*
X158110316Y-113776401D02*
X158017463Y-113869254D01*
X158017463Y-113869254D02*
X155841424Y-113869254D01*
X155185875Y-114414250D02*
X154600535Y-114231642D01*
X158110316Y-114176401D02*
X157535656Y-114176401D01*
X157535656Y-114176401D02*
X157193272Y-114518785D01*
X155474713Y-114518785D02*
X155185875Y-114414250D01*
X157193272Y-114518785D02*
X155474713Y-114518785D01*
X155500192Y-114959245D02*
X155015259Y-114959245D01*
X157291968Y-114959245D02*
X155500192Y-114959245D01*
X158110316Y-114576401D02*
X157674812Y-114576401D01*
X157674812Y-114576401D02*
X157291968Y-114959245D01*
X158110316Y-114976401D02*
X157701928Y-114976401D01*
X155649949Y-116125244D02*
X155133481Y-115608776D01*
X157701928Y-114976401D02*
X157371495Y-115306834D01*
X154844643Y-115504240D02*
X154259303Y-115321633D01*
X156408472Y-116125244D02*
X155649949Y-116125244D01*
X155133481Y-115608776D02*
X154844643Y-115504240D01*
X157371495Y-115306834D02*
X156408472Y-116125244D01*
X155016926Y-116392135D02*
X154674027Y-116049236D01*
X155052052Y-116427261D02*
X155016926Y-116392135D01*
X156523769Y-116427261D02*
X155052052Y-116427261D01*
X158110316Y-115376401D02*
X157729044Y-115376401D01*
X157729044Y-115376401D02*
X157552066Y-115553379D01*
X157552066Y-115553379D02*
X156523769Y-116427261D01*
X156362548Y-116729276D02*
X156005466Y-117086358D01*
X156005466Y-117086358D02*
X155662567Y-117429257D01*
X156803285Y-116729276D02*
X156362548Y-116729276D01*
X157732561Y-115800000D02*
X156803285Y-116729276D01*
X158110000Y-115800000D02*
X157732561Y-115800000D01*
X155905000Y-122200000D02*
X155300000Y-122200000D01*
X155300000Y-122200000D02*
X154842899Y-122657101D01*
X154842899Y-122657101D02*
X154342899Y-122657101D01*
X154342899Y-122657101D02*
X154000000Y-123000000D01*
X155200000Y-118300000D02*
X153900000Y-119600000D01*
X153900000Y-119600000D02*
X153900000Y-120400000D01*
X156584933Y-118300000D02*
X155200000Y-118300000D01*
X156800000Y-118084933D02*
X156584933Y-118300000D01*
X156800000Y-117600000D02*
X156800000Y-118084933D01*
X158400000Y-118100000D02*
X157915067Y-118100000D01*
X161068708Y-120768708D02*
X158400000Y-118100000D01*
X157900000Y-118115067D02*
X157900000Y-118200000D01*
X157915067Y-118100000D02*
X157900000Y-118115067D01*
X161400000Y-119600000D02*
X161400000Y-120677630D01*
X161308922Y-120768708D02*
X161068708Y-120768708D01*
X161400000Y-120677630D02*
X161308922Y-120768708D01*
X160541689Y-122200000D02*
X161068708Y-121672981D01*
X159495000Y-122200000D02*
X160541689Y-122200000D01*
X161068708Y-121672981D02*
X161068708Y-120768708D01*
D31*
X137730000Y-91748860D02*
X140488860Y-91748860D01*
X140488860Y-91748860D02*
X140800000Y-92060000D01*
D30*
X158110316Y-103824000D02*
X157760316Y-103824000D01*
X163512270Y-95810000D02*
X163360000Y-95810000D01*
X164300000Y-96597730D02*
X163512270Y-95810000D01*
X164300000Y-96949520D02*
X164300000Y-96597730D01*
X161450000Y-94500000D02*
X162534933Y-94500000D01*
X160500000Y-95450000D02*
X161450000Y-94500000D01*
X163360000Y-95325067D02*
X163360000Y-95810000D01*
X162534933Y-94500000D02*
X163360000Y-95325067D01*
X160056313Y-115532556D02*
X160056313Y-117360578D01*
X159840000Y-115316243D02*
X160056313Y-115532556D01*
X159840000Y-109650000D02*
X159840000Y-115316243D01*
X158567341Y-119132659D02*
X158450000Y-119250000D01*
X158450000Y-119250000D02*
X158450000Y-119905000D01*
X158800000Y-119132659D02*
X158567341Y-119132659D01*
X160500000Y-121400000D02*
X160500000Y-120832659D01*
X160500000Y-120832659D02*
X158800000Y-119132659D01*
X159495000Y-121700000D02*
X160200000Y-121700000D01*
X160200000Y-121700000D02*
X160500000Y-121400000D01*
X159495000Y-121200000D02*
X160300000Y-121200000D01*
X160300000Y-121200000D02*
X160500000Y-121400000D01*
D31*
X150610000Y-94010000D02*
X150430000Y-93830000D01*
X150430000Y-93830000D02*
X150140000Y-93830000D01*
X153497101Y-96897101D02*
X150610000Y-94010000D01*
X153840000Y-103970000D02*
X153497101Y-103627101D01*
X153497101Y-103627101D02*
X153497101Y-96897101D01*
X138680000Y-94751140D02*
X138680000Y-93250000D01*
X138680000Y-93250000D02*
X138830000Y-93100000D01*
X138680000Y-94751140D02*
X138681140Y-94751140D01*
X138681140Y-94751140D02*
X139700000Y-95770000D01*
D30*
X159840000Y-106840000D02*
X159840000Y-107050000D01*
X159840000Y-107050000D02*
X159840000Y-107390000D01*
X161190000Y-107000000D02*
X159890000Y-107000000D01*
X159890000Y-107000000D02*
X159840000Y-107050000D01*
X159840000Y-107390000D02*
X159840000Y-107790000D01*
X161190000Y-107400000D02*
X159850000Y-107400000D01*
X159850000Y-107400000D02*
X159840000Y-107390000D01*
X159840000Y-107790000D02*
X159840000Y-108200000D01*
X161190000Y-107800000D02*
X159850000Y-107800000D01*
X159850000Y-107800000D02*
X159840000Y-107790000D01*
X159840000Y-108200000D02*
X159840000Y-108650000D01*
X161190000Y-108200000D02*
X160687600Y-108200000D01*
X160687600Y-108200000D02*
X159840000Y-108200000D01*
X159840000Y-108650000D02*
X159840000Y-109130000D01*
X161190000Y-108600000D02*
X160687600Y-108600000D01*
X160687600Y-108600000D02*
X160637600Y-108650000D01*
X160637600Y-108650000D02*
X159840000Y-108650000D01*
X159840000Y-109130000D02*
X159840000Y-109650000D01*
X161190000Y-109000000D02*
X160687600Y-109000000D01*
X160687600Y-109000000D02*
X160557600Y-109130000D01*
X160557600Y-109130000D02*
X159840000Y-109130000D01*
X161190000Y-109400000D02*
X160687600Y-109400000D01*
X160687600Y-109400000D02*
X160437600Y-109650000D01*
X160437600Y-109650000D02*
X159840000Y-109650000D01*
X160080000Y-106600000D02*
X159840000Y-106840000D01*
X161190000Y-106600000D02*
X160080000Y-106600000D01*
X150850000Y-106100000D02*
X148310000Y-103560000D01*
X150850000Y-103560000D02*
X149986401Y-104423599D01*
X149986401Y-104423599D02*
X148310000Y-106100000D01*
X150850000Y-106100000D02*
X150850000Y-103560000D01*
X148310000Y-103560000D02*
X148310000Y-106100000D01*
X150850000Y-103560000D02*
X148310000Y-103560000D01*
X150850000Y-106100000D02*
X148310000Y-106100000D01*
X153810000Y-105650000D02*
X153810000Y-105450000D01*
X153810000Y-105650000D02*
X153810000Y-107220000D01*
X153810000Y-107220000D02*
X153790000Y-107240000D01*
X153810000Y-105650000D02*
X154762400Y-105650000D01*
X154762400Y-105650000D02*
X155370000Y-105042400D01*
X155370000Y-105042400D02*
X155370000Y-104730000D01*
X153810000Y-105650000D02*
X153810000Y-104000000D01*
X153810000Y-104000000D02*
X153840000Y-103970000D01*
X161190316Y-106624000D02*
X161540316Y-106624000D01*
X161540316Y-106624000D02*
X162460992Y-105841578D01*
X162460992Y-105841578D02*
X162749830Y-105946114D01*
X162749830Y-105946114D02*
X163335170Y-106128721D01*
X161190316Y-107024000D02*
X161540316Y-107024000D01*
X161540316Y-107024000D02*
X162406505Y-106287883D01*
X162406505Y-106287883D02*
X162579214Y-106491109D01*
X161190316Y-107424000D02*
X161540316Y-107424000D01*
X161540316Y-107424000D02*
X162119760Y-106931569D01*
X162119760Y-106931569D02*
X162408598Y-107036104D01*
X162408598Y-107036104D02*
X162993938Y-107218712D01*
X161190316Y-107824000D02*
X161540316Y-107824000D01*
X161540316Y-107824000D02*
X162065274Y-107377873D01*
X162065274Y-107377873D02*
X162237982Y-107581100D01*
X161190316Y-108176401D02*
X161540316Y-108176401D01*
X161540316Y-108176401D02*
X162065274Y-108622527D01*
X162065274Y-108622527D02*
X162237982Y-108419301D01*
X161190316Y-108576401D02*
X161540316Y-108576401D01*
X161540316Y-108576401D02*
X162119760Y-109068832D01*
X162119760Y-109068832D02*
X162408598Y-108964297D01*
X162408598Y-108964297D02*
X162993938Y-108781689D01*
X161190316Y-108976401D02*
X161540316Y-108976401D01*
X161540316Y-108976401D02*
X162406505Y-109712518D01*
X162406505Y-109712518D02*
X162579214Y-109509292D01*
X161190316Y-109376401D02*
X161540316Y-109376401D01*
X161540316Y-109376401D02*
X162460992Y-110158823D01*
X162460992Y-110158823D02*
X162749830Y-110054287D01*
X162749830Y-110054287D02*
X163335170Y-109871680D01*
X164300000Y-97599760D02*
X164300000Y-96949520D01*
X160500000Y-95450000D02*
X160500000Y-94965067D01*
X160500000Y-94965067D02*
X159134693Y-93599760D01*
X159134693Y-93599760D02*
X158461920Y-93599760D01*
X157300000Y-93996790D02*
X157300000Y-94515067D01*
X157300000Y-94515067D02*
X157300000Y-95000000D01*
X158611920Y-96049760D02*
X157708950Y-96049760D01*
X157708950Y-96049760D02*
X157300000Y-95640810D01*
X157300000Y-95640810D02*
X157300000Y-95000000D01*
M02*
