G04 #@! TF.FileFunction,Copper,L2,Bot,Signal*
%FSLAX46Y46*%
G04 Gerber Fmt 4.6, Leading zero omitted, Abs format (unit mm)*
G04 Created by KiCad (PCBNEW 4.0.1-stable) date Tuesday, January 12, 2016 'PMt' 12:54:15 PM*
%MOMM*%
G01*
G04 APERTURE LIST*
%ADD10C,0.100000*%
%ADD11C,0.010000*%
%ADD12R,0.660000X0.230000*%
%ADD13R,0.660000X0.350000*%
%ADD14R,1.200000X0.750000*%
%ADD15R,0.750000X0.300000*%
%ADD16R,0.875000X0.725000*%
%ADD17R,1.200000X0.900000*%
%ADD18C,1.524000*%
%ADD19R,1.727200X2.032000*%
%ADD20O,1.727200X2.032000*%
%ADD21R,1.727200X1.727200*%
%ADD22O,1.727200X1.727200*%
%ADD23R,2.032000X2.032000*%
%ADD24O,2.032000X2.032000*%
%ADD25R,0.900000X1.200000*%
%ADD26C,0.685800*%
%ADD27C,0.685801*%
%ADD28C,0.152400*%
%ADD29C,0.254000*%
G04 APERTURE END LIST*
D10*
D11*
G36*
X139952110Y-123703476D02*
X139930393Y-123703821D01*
X139911445Y-123704540D01*
X139894235Y-123705719D01*
X139877730Y-123707441D01*
X139860899Y-123709790D01*
X139842708Y-123712850D01*
X139827648Y-123715645D01*
X139787289Y-123724396D01*
X139745394Y-123735414D01*
X139703941Y-123748125D01*
X139664907Y-123761957D01*
X139657105Y-123764990D01*
X139627497Y-123776780D01*
X139598440Y-123788531D01*
X139569668Y-123800368D01*
X139540917Y-123812414D01*
X139511919Y-123824793D01*
X139482409Y-123837628D01*
X139452121Y-123851043D01*
X139420790Y-123865162D01*
X139388149Y-123880109D01*
X139353933Y-123896008D01*
X139317876Y-123912981D01*
X139279712Y-123931153D01*
X139239176Y-123950648D01*
X139196001Y-123971589D01*
X139149922Y-123994100D01*
X139100673Y-124018305D01*
X139047987Y-124044327D01*
X138991601Y-124072290D01*
X138931246Y-124102318D01*
X138915667Y-124110083D01*
X138863659Y-124135963D01*
X138815600Y-124159774D01*
X138771145Y-124181675D01*
X138729950Y-124201825D01*
X138691669Y-124220383D01*
X138655957Y-124237509D01*
X138622469Y-124253361D01*
X138590860Y-124268099D01*
X138560786Y-124281882D01*
X138531901Y-124294869D01*
X138503860Y-124307221D01*
X138476318Y-124319095D01*
X138448931Y-124330651D01*
X138421352Y-124342048D01*
X138393239Y-124353446D01*
X138364244Y-124365004D01*
X138358216Y-124367386D01*
X138340759Y-124374341D01*
X138324798Y-124380833D01*
X138310879Y-124386627D01*
X138299550Y-124391492D01*
X138291355Y-124395195D01*
X138286842Y-124397503D01*
X138286131Y-124398075D01*
X138287437Y-124400832D01*
X138291820Y-124406251D01*
X138298730Y-124413795D01*
X138307615Y-124422924D01*
X138317925Y-124433099D01*
X138329110Y-124443782D01*
X138340620Y-124454433D01*
X138351904Y-124464515D01*
X138362412Y-124473487D01*
X138366796Y-124477062D01*
X138417789Y-124515188D01*
X138473145Y-124551379D01*
X138532775Y-124585598D01*
X138596594Y-124617810D01*
X138664513Y-124647978D01*
X138736445Y-124676066D01*
X138812304Y-124702040D01*
X138892002Y-124725862D01*
X138975451Y-124747496D01*
X139062565Y-124766907D01*
X139076533Y-124769744D01*
X139136331Y-124780927D01*
X139192312Y-124789711D01*
X139244846Y-124796122D01*
X139294302Y-124800187D01*
X139341050Y-124801931D01*
X139385458Y-124801382D01*
X139427897Y-124798567D01*
X139447625Y-124796425D01*
X139492521Y-124789163D01*
X139533907Y-124778835D01*
X139571726Y-124765475D01*
X139605921Y-124749116D01*
X139636435Y-124729792D01*
X139663212Y-124707535D01*
X139686195Y-124682379D01*
X139705327Y-124654357D01*
X139712480Y-124641186D01*
X139721131Y-124622070D01*
X139728130Y-124601992D01*
X139733742Y-124579947D01*
X139738230Y-124554928D01*
X139741222Y-124531810D01*
X139742983Y-124516104D01*
X139790153Y-124511992D01*
X139804896Y-124510714D01*
X139818084Y-124509583D01*
X139828921Y-124508667D01*
X139836612Y-124508033D01*
X139840361Y-124507747D01*
X139840490Y-124507741D01*
X139842531Y-124506313D01*
X139842227Y-124505286D01*
X139843472Y-124504251D01*
X139848086Y-124503987D01*
X139854679Y-124504379D01*
X139861863Y-124505312D01*
X139868249Y-124506672D01*
X139871190Y-124507675D01*
X139874967Y-124508715D01*
X139882720Y-124510402D01*
X139893655Y-124512577D01*
X139906978Y-124515085D01*
X139921893Y-124517768D01*
X139925619Y-124518420D01*
X139981495Y-124527682D01*
X140034580Y-124535481D01*
X140086618Y-124542048D01*
X140139348Y-124547618D01*
X140155429Y-124549116D01*
X140170809Y-124550209D01*
X140189464Y-124551055D01*
X140210467Y-124551653D01*
X140232891Y-124552003D01*
X140255808Y-124552105D01*
X140278294Y-124551958D01*
X140299419Y-124551562D01*
X140318259Y-124550917D01*
X140333886Y-124550022D01*
X140342905Y-124549190D01*
X140392844Y-124542570D01*
X140441432Y-124534418D01*
X140489954Y-124524468D01*
X140539696Y-124512450D01*
X140591945Y-124498096D01*
X140602555Y-124494996D01*
X140618052Y-124490341D01*
X140629471Y-124486674D01*
X140637414Y-124483756D01*
X140642486Y-124481346D01*
X140645286Y-124479204D01*
X140646278Y-124477578D01*
X140646934Y-124474072D01*
X140648011Y-124466328D01*
X140649443Y-124454920D01*
X140651159Y-124440422D01*
X140653094Y-124423409D01*
X140655177Y-124404456D01*
X140657296Y-124384582D01*
X140659759Y-124360806D01*
X140661684Y-124341429D01*
X140663099Y-124326043D01*
X140664032Y-124314244D01*
X140664511Y-124305623D01*
X140664564Y-124299776D01*
X140664217Y-124296294D01*
X140663500Y-124294773D01*
X140663435Y-124294728D01*
X140659181Y-124293159D01*
X140652429Y-124291623D01*
X140650395Y-124291280D01*
X140642683Y-124289889D01*
X140630991Y-124287518D01*
X140616039Y-124284332D01*
X140598549Y-124280495D01*
X140579240Y-124276171D01*
X140558835Y-124271523D01*
X140538054Y-124266716D01*
X140517617Y-124261914D01*
X140498246Y-124257280D01*
X140480661Y-124252979D01*
X140467486Y-124249664D01*
X140397112Y-124230903D01*
X140331290Y-124211815D01*
X140269740Y-124192305D01*
X140212181Y-124172280D01*
X140158334Y-124151646D01*
X140107918Y-124130309D01*
X140099790Y-124126661D01*
X140051328Y-124103036D01*
X140001977Y-124075787D01*
X139952917Y-124045663D01*
X139905327Y-124013417D01*
X139860384Y-123979797D01*
X139830067Y-123954939D01*
X139817955Y-123944405D01*
X139805384Y-123933151D01*
X139792845Y-123921653D01*
X139780830Y-123910384D01*
X139769829Y-123899818D01*
X139760335Y-123890429D01*
X139752839Y-123882691D01*
X139747832Y-123877077D01*
X139745806Y-123874062D01*
X139745849Y-123873738D01*
X139749390Y-123871991D01*
X139756909Y-123869332D01*
X139767679Y-123865973D01*
X139780975Y-123862129D01*
X139796069Y-123858015D01*
X139812235Y-123853845D01*
X139819181Y-123852125D01*
X139867115Y-123842245D01*
X139915253Y-123836066D01*
X139964063Y-123833600D01*
X140014013Y-123834860D01*
X140065573Y-123839857D01*
X140119210Y-123848605D01*
X140175395Y-123861115D01*
X140176731Y-123861449D01*
X140233850Y-123877728D01*
X140288616Y-123897221D01*
X140340827Y-123919771D01*
X140390278Y-123945220D01*
X140436768Y-123973411D01*
X140480093Y-124004186D01*
X140520050Y-124037388D01*
X140556438Y-124072858D01*
X140589052Y-124110440D01*
X140617689Y-124149977D01*
X140642148Y-124191309D01*
X140662225Y-124234281D01*
X140664627Y-124240296D01*
X140672196Y-124259648D01*
X140773646Y-124356202D01*
X140792169Y-124373846D01*
X140809620Y-124390497D01*
X140825689Y-124405857D01*
X140840064Y-124419627D01*
X140852434Y-124431508D01*
X140862488Y-124441202D01*
X140869915Y-124448409D01*
X140874404Y-124452832D01*
X140875676Y-124454174D01*
X140873649Y-124455404D01*
X140867613Y-124458401D01*
X140857984Y-124462971D01*
X140845176Y-124468924D01*
X140829605Y-124476069D01*
X140811686Y-124484213D01*
X140791836Y-124493165D01*
X140770469Y-124502735D01*
X140765360Y-124505013D01*
X140654464Y-124554436D01*
X140642917Y-124595728D01*
X140637359Y-124614900D01*
X140630610Y-124637059D01*
X140623088Y-124660919D01*
X140615209Y-124685195D01*
X140607389Y-124708602D01*
X140600047Y-124729855D01*
X140593878Y-124746919D01*
X140590142Y-124756304D01*
X140587043Y-124762115D01*
X140583850Y-124765417D01*
X140579945Y-124767241D01*
X140574938Y-124768040D01*
X140565804Y-124768683D01*
X140553250Y-124769172D01*
X140537986Y-124769507D01*
X140520720Y-124769690D01*
X140502158Y-124769724D01*
X140483011Y-124769608D01*
X140463986Y-124769345D01*
X140445791Y-124768937D01*
X140429134Y-124768384D01*
X140414724Y-124767689D01*
X140403381Y-124766863D01*
X140291649Y-124754774D01*
X140223162Y-124745603D01*
X140193868Y-124741189D01*
X140168621Y-124736868D01*
X140146640Y-124732428D01*
X140127143Y-124727653D01*
X140109349Y-124722331D01*
X140092477Y-124716246D01*
X140075745Y-124709184D01*
X140058372Y-124700933D01*
X140056248Y-124699873D01*
X140017924Y-124678252D01*
X139980341Y-124652307D01*
X139944131Y-124622553D01*
X139909927Y-124589502D01*
X139882637Y-124558880D01*
X139869981Y-124543635D01*
X139869981Y-124551987D01*
X139869288Y-124562188D01*
X139867375Y-124575800D01*
X139864488Y-124591624D01*
X139860873Y-124608462D01*
X139856778Y-124625114D01*
X139852450Y-124640381D01*
X139850595Y-124646173D01*
X139834555Y-124686904D01*
X139814678Y-124724716D01*
X139791022Y-124759558D01*
X139763650Y-124791374D01*
X139732620Y-124820111D01*
X139697994Y-124845717D01*
X139659832Y-124868137D01*
X139618195Y-124887319D01*
X139573143Y-124903209D01*
X139553086Y-124908923D01*
X139517259Y-124917339D01*
X139480385Y-124923721D01*
X139441593Y-124928166D01*
X139400012Y-124930775D01*
X139354772Y-124931646D01*
X139353514Y-124931647D01*
X139318422Y-124931229D01*
X139284337Y-124929929D01*
X139250467Y-124927658D01*
X139216018Y-124924326D01*
X139180197Y-124919845D01*
X139142210Y-124914126D01*
X139101265Y-124907080D01*
X139056567Y-124898618D01*
X139053552Y-124898025D01*
X138968906Y-124879934D01*
X138886963Y-124859615D01*
X138807888Y-124837142D01*
X138731847Y-124812591D01*
X138659005Y-124786036D01*
X138589526Y-124757553D01*
X138523576Y-124727216D01*
X138461320Y-124695101D01*
X138402923Y-124661282D01*
X138348550Y-124625834D01*
X138298367Y-124588833D01*
X138252538Y-124550352D01*
X138220190Y-124519632D01*
X138209125Y-124508214D01*
X138197811Y-124496029D01*
X138187362Y-124484311D01*
X138178896Y-124474294D01*
X138176648Y-124471469D01*
X138169727Y-124462594D01*
X138163592Y-124454754D01*
X138159057Y-124448989D01*
X138157295Y-124446775D01*
X138155413Y-124444749D01*
X138153130Y-124443686D01*
X138149423Y-124443591D01*
X138143273Y-124444470D01*
X138133655Y-124446329D01*
X138130686Y-124446929D01*
X138059527Y-124458886D01*
X137987931Y-124466051D01*
X137915776Y-124468432D01*
X137842943Y-124466035D01*
X137831933Y-124465262D01*
X137774120Y-124460415D01*
X137711841Y-124454221D01*
X137645270Y-124446710D01*
X137574580Y-124437912D01*
X137499944Y-124427858D01*
X137421536Y-124416576D01*
X137339527Y-124404097D01*
X137254092Y-124390450D01*
X137165402Y-124375667D01*
X137073632Y-124359776D01*
X136978955Y-124342808D01*
X136881542Y-124324792D01*
X136781568Y-124305758D01*
X136679205Y-124285737D01*
X136574627Y-124264759D01*
X136468005Y-124242852D01*
X136359515Y-124220048D01*
X136249328Y-124196376D01*
X136144648Y-124173423D01*
X136114138Y-124166666D01*
X136087931Y-124160983D01*
X136065594Y-124156466D01*
X136046693Y-124153208D01*
X136030792Y-124151300D01*
X136017459Y-124150835D01*
X136006260Y-124151905D01*
X135996760Y-124154603D01*
X135988525Y-124159020D01*
X135981121Y-124165249D01*
X135974114Y-124173382D01*
X135967071Y-124183511D01*
X135959557Y-124195729D01*
X135951138Y-124210128D01*
X135948203Y-124215174D01*
X135922648Y-124260278D01*
X135898694Y-124305021D01*
X135876614Y-124348833D01*
X135856677Y-124391142D01*
X135839156Y-124431379D01*
X135824320Y-124468973D01*
X135814813Y-124496018D01*
X135804211Y-124531958D01*
X135796863Y-124565498D01*
X135792749Y-124596481D01*
X135791850Y-124624750D01*
X135794147Y-124650150D01*
X135799622Y-124672523D01*
X135808256Y-124691713D01*
X135820031Y-124707563D01*
X135834926Y-124719917D01*
X135842143Y-124724043D01*
X135849092Y-124727306D01*
X135856669Y-124730302D01*
X135865121Y-124733051D01*
X135874693Y-124735572D01*
X135885628Y-124737884D01*
X135898174Y-124740007D01*
X135912573Y-124741960D01*
X135929073Y-124743761D01*
X135947916Y-124745431D01*
X135969350Y-124746989D01*
X135993617Y-124748454D01*
X136020965Y-124749845D01*
X136051637Y-124751181D01*
X136085879Y-124752483D01*
X136123935Y-124753769D01*
X136166051Y-124755058D01*
X136212471Y-124756370D01*
X136263442Y-124757724D01*
X136272857Y-124757967D01*
X136356567Y-124760256D01*
X136435821Y-124762711D01*
X136511001Y-124765352D01*
X136582487Y-124768202D01*
X136650660Y-124771281D01*
X136715901Y-124774609D01*
X136778589Y-124778209D01*
X136839107Y-124782101D01*
X136897835Y-124786306D01*
X136955153Y-124790846D01*
X137011442Y-124795740D01*
X137067083Y-124801011D01*
X137085657Y-124802866D01*
X137173908Y-124812350D01*
X137259256Y-124822702D01*
X137342213Y-124834038D01*
X137423293Y-124846474D01*
X137503009Y-124860127D01*
X137581875Y-124875112D01*
X137660402Y-124891546D01*
X137739106Y-124909545D01*
X137818498Y-124929225D01*
X137899092Y-124950703D01*
X137981401Y-124974095D01*
X138065938Y-124999516D01*
X138153217Y-125027083D01*
X138243751Y-125056912D01*
X138315743Y-125081406D01*
X138349933Y-125093412D01*
X138382526Y-125105361D01*
X138413982Y-125117474D01*
X138444759Y-125129971D01*
X138475317Y-125143070D01*
X138506114Y-125156991D01*
X138537610Y-125171955D01*
X138570264Y-125188180D01*
X138604534Y-125205887D01*
X138640880Y-125225295D01*
X138679761Y-125246623D01*
X138721635Y-125270092D01*
X138766962Y-125295920D01*
X138781410Y-125304224D01*
X138821607Y-125327353D01*
X138857930Y-125348218D01*
X138890685Y-125366989D01*
X138920180Y-125383834D01*
X138946721Y-125398923D01*
X138970614Y-125412425D01*
X138992168Y-125424510D01*
X139011689Y-125435347D01*
X139029484Y-125445105D01*
X139045860Y-125453953D01*
X139061124Y-125462061D01*
X139075583Y-125469598D01*
X139089543Y-125476734D01*
X139103313Y-125483637D01*
X139117198Y-125490478D01*
X139131506Y-125497425D01*
X139132761Y-125498031D01*
X139179005Y-125519588D01*
X139222629Y-125538276D01*
X139264572Y-125554365D01*
X139305777Y-125568123D01*
X139347182Y-125579819D01*
X139389730Y-125589722D01*
X139434361Y-125598101D01*
X139482015Y-125605226D01*
X139526476Y-125610592D01*
X139554581Y-125613170D01*
X139586087Y-125615200D01*
X139619583Y-125616643D01*
X139653660Y-125617463D01*
X139686906Y-125617622D01*
X139717912Y-125617082D01*
X139738143Y-125616234D01*
X139792689Y-125611679D01*
X139847859Y-125604053D01*
X139902838Y-125593561D01*
X139956811Y-125580409D01*
X140008964Y-125564801D01*
X140058482Y-125546941D01*
X140104549Y-125527036D01*
X140116966Y-125521000D01*
X140172495Y-125490655D01*
X140226819Y-125455709D01*
X140279841Y-125416270D01*
X140331466Y-125372446D01*
X140381598Y-125324345D01*
X140430141Y-125272076D01*
X140476999Y-125215746D01*
X140522076Y-125155465D01*
X140565277Y-125091339D01*
X140606505Y-125023477D01*
X140645665Y-124951987D01*
X140676585Y-124889852D01*
X140689160Y-124862482D01*
X140701243Y-124834118D01*
X140713182Y-124803873D01*
X140725324Y-124770861D01*
X140738016Y-124734197D01*
X140740995Y-124725315D01*
X140746254Y-124709237D01*
X140751811Y-124691690D01*
X140757423Y-124673490D01*
X140762851Y-124655456D01*
X140767851Y-124638405D01*
X140772182Y-124623156D01*
X140775603Y-124610525D01*
X140777871Y-124601330D01*
X140778427Y-124598669D01*
X140779914Y-124590741D01*
X140920221Y-124534122D01*
X140944893Y-124524148D01*
X140968212Y-124514687D01*
X140989795Y-124505897D01*
X141009259Y-124497934D01*
X141026219Y-124490958D01*
X141040293Y-124485125D01*
X141051096Y-124480595D01*
X141058246Y-124477524D01*
X141061359Y-124476070D01*
X141061461Y-124475993D01*
X141059856Y-124474176D01*
X141054918Y-124469406D01*
X141046929Y-124461941D01*
X141036175Y-124452039D01*
X141022939Y-124439960D01*
X141007506Y-124425962D01*
X140990159Y-124410303D01*
X140971184Y-124393243D01*
X140950863Y-124375039D01*
X140933461Y-124359499D01*
X140908764Y-124337467D01*
X140887429Y-124318409D01*
X140869202Y-124302080D01*
X140853830Y-124288239D01*
X140841060Y-124276642D01*
X140830639Y-124267046D01*
X140822314Y-124259209D01*
X140815831Y-124252887D01*
X140810938Y-124247839D01*
X140807381Y-124243820D01*
X140804908Y-124240588D01*
X140803264Y-124237901D01*
X140802198Y-124235515D01*
X140801455Y-124233187D01*
X140801329Y-124232730D01*
X140796934Y-124218639D01*
X140790693Y-124201530D01*
X140783101Y-124182617D01*
X140774658Y-124163114D01*
X140765859Y-124144235D01*
X140761337Y-124135123D01*
X140739087Y-124095208D01*
X140713559Y-124056722D01*
X140684286Y-124019028D01*
X140650801Y-123981488D01*
X140641788Y-123972125D01*
X140603725Y-123935413D01*
X140564448Y-123902167D01*
X140523130Y-123871793D01*
X140478948Y-123843696D01*
X140431076Y-123817283D01*
X140416686Y-123810002D01*
X140370020Y-123788147D01*
X140323382Y-123769060D01*
X140275929Y-123752485D01*
X140226818Y-123738166D01*
X140175208Y-123725846D01*
X140120255Y-123715269D01*
X140088391Y-123710116D01*
X140074789Y-123708114D01*
X140062907Y-123706560D01*
X140051787Y-123705397D01*
X140040472Y-123704566D01*
X140028005Y-123704011D01*
X140013430Y-123703672D01*
X139995789Y-123703493D01*
X139977629Y-123703423D01*
X139952110Y-123703476D01*
X139952110Y-123703476D01*
G37*
X139952110Y-123703476D02*
X139930393Y-123703821D01*
X139911445Y-123704540D01*
X139894235Y-123705719D01*
X139877730Y-123707441D01*
X139860899Y-123709790D01*
X139842708Y-123712850D01*
X139827648Y-123715645D01*
X139787289Y-123724396D01*
X139745394Y-123735414D01*
X139703941Y-123748125D01*
X139664907Y-123761957D01*
X139657105Y-123764990D01*
X139627497Y-123776780D01*
X139598440Y-123788531D01*
X139569668Y-123800368D01*
X139540917Y-123812414D01*
X139511919Y-123824793D01*
X139482409Y-123837628D01*
X139452121Y-123851043D01*
X139420790Y-123865162D01*
X139388149Y-123880109D01*
X139353933Y-123896008D01*
X139317876Y-123912981D01*
X139279712Y-123931153D01*
X139239176Y-123950648D01*
X139196001Y-123971589D01*
X139149922Y-123994100D01*
X139100673Y-124018305D01*
X139047987Y-124044327D01*
X138991601Y-124072290D01*
X138931246Y-124102318D01*
X138915667Y-124110083D01*
X138863659Y-124135963D01*
X138815600Y-124159774D01*
X138771145Y-124181675D01*
X138729950Y-124201825D01*
X138691669Y-124220383D01*
X138655957Y-124237509D01*
X138622469Y-124253361D01*
X138590860Y-124268099D01*
X138560786Y-124281882D01*
X138531901Y-124294869D01*
X138503860Y-124307221D01*
X138476318Y-124319095D01*
X138448931Y-124330651D01*
X138421352Y-124342048D01*
X138393239Y-124353446D01*
X138364244Y-124365004D01*
X138358216Y-124367386D01*
X138340759Y-124374341D01*
X138324798Y-124380833D01*
X138310879Y-124386627D01*
X138299550Y-124391492D01*
X138291355Y-124395195D01*
X138286842Y-124397503D01*
X138286131Y-124398075D01*
X138287437Y-124400832D01*
X138291820Y-124406251D01*
X138298730Y-124413795D01*
X138307615Y-124422924D01*
X138317925Y-124433099D01*
X138329110Y-124443782D01*
X138340620Y-124454433D01*
X138351904Y-124464515D01*
X138362412Y-124473487D01*
X138366796Y-124477062D01*
X138417789Y-124515188D01*
X138473145Y-124551379D01*
X138532775Y-124585598D01*
X138596594Y-124617810D01*
X138664513Y-124647978D01*
X138736445Y-124676066D01*
X138812304Y-124702040D01*
X138892002Y-124725862D01*
X138975451Y-124747496D01*
X139062565Y-124766907D01*
X139076533Y-124769744D01*
X139136331Y-124780927D01*
X139192312Y-124789711D01*
X139244846Y-124796122D01*
X139294302Y-124800187D01*
X139341050Y-124801931D01*
X139385458Y-124801382D01*
X139427897Y-124798567D01*
X139447625Y-124796425D01*
X139492521Y-124789163D01*
X139533907Y-124778835D01*
X139571726Y-124765475D01*
X139605921Y-124749116D01*
X139636435Y-124729792D01*
X139663212Y-124707535D01*
X139686195Y-124682379D01*
X139705327Y-124654357D01*
X139712480Y-124641186D01*
X139721131Y-124622070D01*
X139728130Y-124601992D01*
X139733742Y-124579947D01*
X139738230Y-124554928D01*
X139741222Y-124531810D01*
X139742983Y-124516104D01*
X139790153Y-124511992D01*
X139804896Y-124510714D01*
X139818084Y-124509583D01*
X139828921Y-124508667D01*
X139836612Y-124508033D01*
X139840361Y-124507747D01*
X139840490Y-124507741D01*
X139842531Y-124506313D01*
X139842227Y-124505286D01*
X139843472Y-124504251D01*
X139848086Y-124503987D01*
X139854679Y-124504379D01*
X139861863Y-124505312D01*
X139868249Y-124506672D01*
X139871190Y-124507675D01*
X139874967Y-124508715D01*
X139882720Y-124510402D01*
X139893655Y-124512577D01*
X139906978Y-124515085D01*
X139921893Y-124517768D01*
X139925619Y-124518420D01*
X139981495Y-124527682D01*
X140034580Y-124535481D01*
X140086618Y-124542048D01*
X140139348Y-124547618D01*
X140155429Y-124549116D01*
X140170809Y-124550209D01*
X140189464Y-124551055D01*
X140210467Y-124551653D01*
X140232891Y-124552003D01*
X140255808Y-124552105D01*
X140278294Y-124551958D01*
X140299419Y-124551562D01*
X140318259Y-124550917D01*
X140333886Y-124550022D01*
X140342905Y-124549190D01*
X140392844Y-124542570D01*
X140441432Y-124534418D01*
X140489954Y-124524468D01*
X140539696Y-124512450D01*
X140591945Y-124498096D01*
X140602555Y-124494996D01*
X140618052Y-124490341D01*
X140629471Y-124486674D01*
X140637414Y-124483756D01*
X140642486Y-124481346D01*
X140645286Y-124479204D01*
X140646278Y-124477578D01*
X140646934Y-124474072D01*
X140648011Y-124466328D01*
X140649443Y-124454920D01*
X140651159Y-124440422D01*
X140653094Y-124423409D01*
X140655177Y-124404456D01*
X140657296Y-124384582D01*
X140659759Y-124360806D01*
X140661684Y-124341429D01*
X140663099Y-124326043D01*
X140664032Y-124314244D01*
X140664511Y-124305623D01*
X140664564Y-124299776D01*
X140664217Y-124296294D01*
X140663500Y-124294773D01*
X140663435Y-124294728D01*
X140659181Y-124293159D01*
X140652429Y-124291623D01*
X140650395Y-124291280D01*
X140642683Y-124289889D01*
X140630991Y-124287518D01*
X140616039Y-124284332D01*
X140598549Y-124280495D01*
X140579240Y-124276171D01*
X140558835Y-124271523D01*
X140538054Y-124266716D01*
X140517617Y-124261914D01*
X140498246Y-124257280D01*
X140480661Y-124252979D01*
X140467486Y-124249664D01*
X140397112Y-124230903D01*
X140331290Y-124211815D01*
X140269740Y-124192305D01*
X140212181Y-124172280D01*
X140158334Y-124151646D01*
X140107918Y-124130309D01*
X140099790Y-124126661D01*
X140051328Y-124103036D01*
X140001977Y-124075787D01*
X139952917Y-124045663D01*
X139905327Y-124013417D01*
X139860384Y-123979797D01*
X139830067Y-123954939D01*
X139817955Y-123944405D01*
X139805384Y-123933151D01*
X139792845Y-123921653D01*
X139780830Y-123910384D01*
X139769829Y-123899818D01*
X139760335Y-123890429D01*
X139752839Y-123882691D01*
X139747832Y-123877077D01*
X139745806Y-123874062D01*
X139745849Y-123873738D01*
X139749390Y-123871991D01*
X139756909Y-123869332D01*
X139767679Y-123865973D01*
X139780975Y-123862129D01*
X139796069Y-123858015D01*
X139812235Y-123853845D01*
X139819181Y-123852125D01*
X139867115Y-123842245D01*
X139915253Y-123836066D01*
X139964063Y-123833600D01*
X140014013Y-123834860D01*
X140065573Y-123839857D01*
X140119210Y-123848605D01*
X140175395Y-123861115D01*
X140176731Y-123861449D01*
X140233850Y-123877728D01*
X140288616Y-123897221D01*
X140340827Y-123919771D01*
X140390278Y-123945220D01*
X140436768Y-123973411D01*
X140480093Y-124004186D01*
X140520050Y-124037388D01*
X140556438Y-124072858D01*
X140589052Y-124110440D01*
X140617689Y-124149977D01*
X140642148Y-124191309D01*
X140662225Y-124234281D01*
X140664627Y-124240296D01*
X140672196Y-124259648D01*
X140773646Y-124356202D01*
X140792169Y-124373846D01*
X140809620Y-124390497D01*
X140825689Y-124405857D01*
X140840064Y-124419627D01*
X140852434Y-124431508D01*
X140862488Y-124441202D01*
X140869915Y-124448409D01*
X140874404Y-124452832D01*
X140875676Y-124454174D01*
X140873649Y-124455404D01*
X140867613Y-124458401D01*
X140857984Y-124462971D01*
X140845176Y-124468924D01*
X140829605Y-124476069D01*
X140811686Y-124484213D01*
X140791836Y-124493165D01*
X140770469Y-124502735D01*
X140765360Y-124505013D01*
X140654464Y-124554436D01*
X140642917Y-124595728D01*
X140637359Y-124614900D01*
X140630610Y-124637059D01*
X140623088Y-124660919D01*
X140615209Y-124685195D01*
X140607389Y-124708602D01*
X140600047Y-124729855D01*
X140593878Y-124746919D01*
X140590142Y-124756304D01*
X140587043Y-124762115D01*
X140583850Y-124765417D01*
X140579945Y-124767241D01*
X140574938Y-124768040D01*
X140565804Y-124768683D01*
X140553250Y-124769172D01*
X140537986Y-124769507D01*
X140520720Y-124769690D01*
X140502158Y-124769724D01*
X140483011Y-124769608D01*
X140463986Y-124769345D01*
X140445791Y-124768937D01*
X140429134Y-124768384D01*
X140414724Y-124767689D01*
X140403381Y-124766863D01*
X140291649Y-124754774D01*
X140223162Y-124745603D01*
X140193868Y-124741189D01*
X140168621Y-124736868D01*
X140146640Y-124732428D01*
X140127143Y-124727653D01*
X140109349Y-124722331D01*
X140092477Y-124716246D01*
X140075745Y-124709184D01*
X140058372Y-124700933D01*
X140056248Y-124699873D01*
X140017924Y-124678252D01*
X139980341Y-124652307D01*
X139944131Y-124622553D01*
X139909927Y-124589502D01*
X139882637Y-124558880D01*
X139869981Y-124543635D01*
X139869981Y-124551987D01*
X139869288Y-124562188D01*
X139867375Y-124575800D01*
X139864488Y-124591624D01*
X139860873Y-124608462D01*
X139856778Y-124625114D01*
X139852450Y-124640381D01*
X139850595Y-124646173D01*
X139834555Y-124686904D01*
X139814678Y-124724716D01*
X139791022Y-124759558D01*
X139763650Y-124791374D01*
X139732620Y-124820111D01*
X139697994Y-124845717D01*
X139659832Y-124868137D01*
X139618195Y-124887319D01*
X139573143Y-124903209D01*
X139553086Y-124908923D01*
X139517259Y-124917339D01*
X139480385Y-124923721D01*
X139441593Y-124928166D01*
X139400012Y-124930775D01*
X139354772Y-124931646D01*
X139353514Y-124931647D01*
X139318422Y-124931229D01*
X139284337Y-124929929D01*
X139250467Y-124927658D01*
X139216018Y-124924326D01*
X139180197Y-124919845D01*
X139142210Y-124914126D01*
X139101265Y-124907080D01*
X139056567Y-124898618D01*
X139053552Y-124898025D01*
X138968906Y-124879934D01*
X138886963Y-124859615D01*
X138807888Y-124837142D01*
X138731847Y-124812591D01*
X138659005Y-124786036D01*
X138589526Y-124757553D01*
X138523576Y-124727216D01*
X138461320Y-124695101D01*
X138402923Y-124661282D01*
X138348550Y-124625834D01*
X138298367Y-124588833D01*
X138252538Y-124550352D01*
X138220190Y-124519632D01*
X138209125Y-124508214D01*
X138197811Y-124496029D01*
X138187362Y-124484311D01*
X138178896Y-124474294D01*
X138176648Y-124471469D01*
X138169727Y-124462594D01*
X138163592Y-124454754D01*
X138159057Y-124448989D01*
X138157295Y-124446775D01*
X138155413Y-124444749D01*
X138153130Y-124443686D01*
X138149423Y-124443591D01*
X138143273Y-124444470D01*
X138133655Y-124446329D01*
X138130686Y-124446929D01*
X138059527Y-124458886D01*
X137987931Y-124466051D01*
X137915776Y-124468432D01*
X137842943Y-124466035D01*
X137831933Y-124465262D01*
X137774120Y-124460415D01*
X137711841Y-124454221D01*
X137645270Y-124446710D01*
X137574580Y-124437912D01*
X137499944Y-124427858D01*
X137421536Y-124416576D01*
X137339527Y-124404097D01*
X137254092Y-124390450D01*
X137165402Y-124375667D01*
X137073632Y-124359776D01*
X136978955Y-124342808D01*
X136881542Y-124324792D01*
X136781568Y-124305758D01*
X136679205Y-124285737D01*
X136574627Y-124264759D01*
X136468005Y-124242852D01*
X136359515Y-124220048D01*
X136249328Y-124196376D01*
X136144648Y-124173423D01*
X136114138Y-124166666D01*
X136087931Y-124160983D01*
X136065594Y-124156466D01*
X136046693Y-124153208D01*
X136030792Y-124151300D01*
X136017459Y-124150835D01*
X136006260Y-124151905D01*
X135996760Y-124154603D01*
X135988525Y-124159020D01*
X135981121Y-124165249D01*
X135974114Y-124173382D01*
X135967071Y-124183511D01*
X135959557Y-124195729D01*
X135951138Y-124210128D01*
X135948203Y-124215174D01*
X135922648Y-124260278D01*
X135898694Y-124305021D01*
X135876614Y-124348833D01*
X135856677Y-124391142D01*
X135839156Y-124431379D01*
X135824320Y-124468973D01*
X135814813Y-124496018D01*
X135804211Y-124531958D01*
X135796863Y-124565498D01*
X135792749Y-124596481D01*
X135791850Y-124624750D01*
X135794147Y-124650150D01*
X135799622Y-124672523D01*
X135808256Y-124691713D01*
X135820031Y-124707563D01*
X135834926Y-124719917D01*
X135842143Y-124724043D01*
X135849092Y-124727306D01*
X135856669Y-124730302D01*
X135865121Y-124733051D01*
X135874693Y-124735572D01*
X135885628Y-124737884D01*
X135898174Y-124740007D01*
X135912573Y-124741960D01*
X135929073Y-124743761D01*
X135947916Y-124745431D01*
X135969350Y-124746989D01*
X135993617Y-124748454D01*
X136020965Y-124749845D01*
X136051637Y-124751181D01*
X136085879Y-124752483D01*
X136123935Y-124753769D01*
X136166051Y-124755058D01*
X136212471Y-124756370D01*
X136263442Y-124757724D01*
X136272857Y-124757967D01*
X136356567Y-124760256D01*
X136435821Y-124762711D01*
X136511001Y-124765352D01*
X136582487Y-124768202D01*
X136650660Y-124771281D01*
X136715901Y-124774609D01*
X136778589Y-124778209D01*
X136839107Y-124782101D01*
X136897835Y-124786306D01*
X136955153Y-124790846D01*
X137011442Y-124795740D01*
X137067083Y-124801011D01*
X137085657Y-124802866D01*
X137173908Y-124812350D01*
X137259256Y-124822702D01*
X137342213Y-124834038D01*
X137423293Y-124846474D01*
X137503009Y-124860127D01*
X137581875Y-124875112D01*
X137660402Y-124891546D01*
X137739106Y-124909545D01*
X137818498Y-124929225D01*
X137899092Y-124950703D01*
X137981401Y-124974095D01*
X138065938Y-124999516D01*
X138153217Y-125027083D01*
X138243751Y-125056912D01*
X138315743Y-125081406D01*
X138349933Y-125093412D01*
X138382526Y-125105361D01*
X138413982Y-125117474D01*
X138444759Y-125129971D01*
X138475317Y-125143070D01*
X138506114Y-125156991D01*
X138537610Y-125171955D01*
X138570264Y-125188180D01*
X138604534Y-125205887D01*
X138640880Y-125225295D01*
X138679761Y-125246623D01*
X138721635Y-125270092D01*
X138766962Y-125295920D01*
X138781410Y-125304224D01*
X138821607Y-125327353D01*
X138857930Y-125348218D01*
X138890685Y-125366989D01*
X138920180Y-125383834D01*
X138946721Y-125398923D01*
X138970614Y-125412425D01*
X138992168Y-125424510D01*
X139011689Y-125435347D01*
X139029484Y-125445105D01*
X139045860Y-125453953D01*
X139061124Y-125462061D01*
X139075583Y-125469598D01*
X139089543Y-125476734D01*
X139103313Y-125483637D01*
X139117198Y-125490478D01*
X139131506Y-125497425D01*
X139132761Y-125498031D01*
X139179005Y-125519588D01*
X139222629Y-125538276D01*
X139264572Y-125554365D01*
X139305777Y-125568123D01*
X139347182Y-125579819D01*
X139389730Y-125589722D01*
X139434361Y-125598101D01*
X139482015Y-125605226D01*
X139526476Y-125610592D01*
X139554581Y-125613170D01*
X139586087Y-125615200D01*
X139619583Y-125616643D01*
X139653660Y-125617463D01*
X139686906Y-125617622D01*
X139717912Y-125617082D01*
X139738143Y-125616234D01*
X139792689Y-125611679D01*
X139847859Y-125604053D01*
X139902838Y-125593561D01*
X139956811Y-125580409D01*
X140008964Y-125564801D01*
X140058482Y-125546941D01*
X140104549Y-125527036D01*
X140116966Y-125521000D01*
X140172495Y-125490655D01*
X140226819Y-125455709D01*
X140279841Y-125416270D01*
X140331466Y-125372446D01*
X140381598Y-125324345D01*
X140430141Y-125272076D01*
X140476999Y-125215746D01*
X140522076Y-125155465D01*
X140565277Y-125091339D01*
X140606505Y-125023477D01*
X140645665Y-124951987D01*
X140676585Y-124889852D01*
X140689160Y-124862482D01*
X140701243Y-124834118D01*
X140713182Y-124803873D01*
X140725324Y-124770861D01*
X140738016Y-124734197D01*
X140740995Y-124725315D01*
X140746254Y-124709237D01*
X140751811Y-124691690D01*
X140757423Y-124673490D01*
X140762851Y-124655456D01*
X140767851Y-124638405D01*
X140772182Y-124623156D01*
X140775603Y-124610525D01*
X140777871Y-124601330D01*
X140778427Y-124598669D01*
X140779914Y-124590741D01*
X140920221Y-124534122D01*
X140944893Y-124524148D01*
X140968212Y-124514687D01*
X140989795Y-124505897D01*
X141009259Y-124497934D01*
X141026219Y-124490958D01*
X141040293Y-124485125D01*
X141051096Y-124480595D01*
X141058246Y-124477524D01*
X141061359Y-124476070D01*
X141061461Y-124475993D01*
X141059856Y-124474176D01*
X141054918Y-124469406D01*
X141046929Y-124461941D01*
X141036175Y-124452039D01*
X141022939Y-124439960D01*
X141007506Y-124425962D01*
X140990159Y-124410303D01*
X140971184Y-124393243D01*
X140950863Y-124375039D01*
X140933461Y-124359499D01*
X140908764Y-124337467D01*
X140887429Y-124318409D01*
X140869202Y-124302080D01*
X140853830Y-124288239D01*
X140841060Y-124276642D01*
X140830639Y-124267046D01*
X140822314Y-124259209D01*
X140815831Y-124252887D01*
X140810938Y-124247839D01*
X140807381Y-124243820D01*
X140804908Y-124240588D01*
X140803264Y-124237901D01*
X140802198Y-124235515D01*
X140801455Y-124233187D01*
X140801329Y-124232730D01*
X140796934Y-124218639D01*
X140790693Y-124201530D01*
X140783101Y-124182617D01*
X140774658Y-124163114D01*
X140765859Y-124144235D01*
X140761337Y-124135123D01*
X140739087Y-124095208D01*
X140713559Y-124056722D01*
X140684286Y-124019028D01*
X140650801Y-123981488D01*
X140641788Y-123972125D01*
X140603725Y-123935413D01*
X140564448Y-123902167D01*
X140523130Y-123871793D01*
X140478948Y-123843696D01*
X140431076Y-123817283D01*
X140416686Y-123810002D01*
X140370020Y-123788147D01*
X140323382Y-123769060D01*
X140275929Y-123752485D01*
X140226818Y-123738166D01*
X140175208Y-123725846D01*
X140120255Y-123715269D01*
X140088391Y-123710116D01*
X140074789Y-123708114D01*
X140062907Y-123706560D01*
X140051787Y-123705397D01*
X140040472Y-123704566D01*
X140028005Y-123704011D01*
X140013430Y-123703672D01*
X139995789Y-123703493D01*
X139977629Y-123703423D01*
X139952110Y-123703476D01*
D12*
X161005000Y-115800000D03*
X158295000Y-115800000D03*
X161005000Y-100200000D03*
X158295000Y-100200000D03*
X161005000Y-115400000D03*
X161005000Y-115000000D03*
X161005000Y-114600000D03*
X161005000Y-114200000D03*
X161005000Y-113800000D03*
X161005000Y-113400000D03*
X161005000Y-113000000D03*
X161005000Y-112600000D03*
X161005000Y-112200000D03*
X161005000Y-111800000D03*
X161005000Y-111400000D03*
X161005000Y-111000000D03*
X161005000Y-110600000D03*
X161005000Y-110200000D03*
X161005000Y-109800000D03*
X161005000Y-109400000D03*
X161005000Y-109000000D03*
X161005000Y-108600000D03*
X161005000Y-108200000D03*
X161005000Y-107800000D03*
X161005000Y-107400000D03*
X161005000Y-107000000D03*
X161005000Y-106600000D03*
X161005000Y-106200000D03*
X161005000Y-105800000D03*
X161005000Y-105400000D03*
X161005000Y-105000000D03*
X161005000Y-104600000D03*
X161005000Y-104200000D03*
X161005000Y-103800000D03*
X161005000Y-103400000D03*
X161005000Y-103000000D03*
X161005000Y-102600000D03*
X161005000Y-102200000D03*
X161005000Y-101800000D03*
X161005000Y-101400000D03*
X161005000Y-101000000D03*
X161005000Y-100600000D03*
D13*
X161005000Y-99725000D03*
X158295000Y-99725000D03*
X161005000Y-116275000D03*
X158295000Y-116275000D03*
D12*
X158295000Y-100600000D03*
X158295000Y-101000000D03*
X158295000Y-101400000D03*
X158295000Y-101800000D03*
X158295000Y-102200000D03*
X158295000Y-102600000D03*
X158295000Y-103000000D03*
X158295000Y-103400000D03*
X158295000Y-103800000D03*
X158295000Y-104200000D03*
X158295000Y-104600000D03*
X158295000Y-105000000D03*
X158295000Y-105400000D03*
X158295000Y-105800000D03*
X158295000Y-106200000D03*
X158295000Y-106600000D03*
X158295000Y-107000000D03*
X158295000Y-107400000D03*
X158295000Y-107800000D03*
X158295000Y-108200000D03*
X158295000Y-108600000D03*
X158295000Y-109000000D03*
X158295000Y-109400000D03*
X158295000Y-109800000D03*
X158295000Y-110200000D03*
X158295000Y-110600000D03*
X158295000Y-111000000D03*
X158295000Y-111400000D03*
X158295000Y-111800000D03*
X158295000Y-112200000D03*
X158295000Y-112600000D03*
X158295000Y-113000000D03*
X158295000Y-113400000D03*
X158295000Y-113800000D03*
X158295000Y-114200000D03*
X158295000Y-114600000D03*
X158295000Y-115000000D03*
X158295000Y-115400000D03*
D14*
X156250000Y-95900000D03*
X158150000Y-95900000D03*
D15*
X158712500Y-92862500D03*
X158712500Y-93362500D03*
X158712500Y-93862500D03*
X158712500Y-94362500D03*
X155812500Y-94362500D03*
X155812500Y-93862500D03*
X155812500Y-93362500D03*
X155812500Y-92862500D03*
D16*
X156825000Y-93975000D03*
X156825000Y-93250000D03*
X157700000Y-93975000D03*
X157700000Y-93250000D03*
D17*
X156550000Y-91200000D03*
X154350000Y-91200000D03*
D18*
X158550000Y-91250000D03*
D19*
X143180000Y-121090000D03*
D20*
X145720000Y-121090000D03*
X148260000Y-121090000D03*
X150800000Y-121090000D03*
D21*
X150850000Y-111180000D03*
D22*
X148310000Y-111180000D03*
X150850000Y-108640000D03*
X148310000Y-108640000D03*
X150850000Y-106100000D03*
X148310000Y-106100000D03*
X150850000Y-103560000D03*
X148310000Y-103560000D03*
X150850000Y-101020000D03*
X148310000Y-101020000D03*
X150850000Y-98480000D03*
X148310000Y-98480000D03*
D23*
X141070000Y-92060000D03*
D24*
X141070000Y-94600000D03*
D25*
X152780000Y-96290000D03*
X152780000Y-98490000D03*
D26*
X162950000Y-97849974D03*
X162500000Y-95300000D03*
X150140000Y-93830000D03*
X138830000Y-93100000D03*
X139700000Y-95770000D03*
X153790000Y-107240000D03*
X155370000Y-104730000D03*
X153840000Y-103970000D03*
D27*
X163335170Y-106128721D03*
X162579214Y-106491109D03*
X162993938Y-107218712D03*
X162237982Y-107581100D03*
X162237982Y-108419301D03*
X162993938Y-108781689D03*
X162579214Y-109509292D03*
X163335170Y-109871680D03*
D26*
X164264956Y-95352566D03*
X160500000Y-95450000D03*
X157300000Y-95000000D03*
X159100000Y-98150000D03*
X159950000Y-93400000D03*
X154548089Y-92940038D03*
X152902199Y-93411565D03*
X160729126Y-94320874D03*
D27*
X156306694Y-107218712D03*
X157062650Y-107581100D03*
X157062650Y-108419301D03*
X156306694Y-108781689D03*
X156721418Y-109509292D03*
X155965462Y-109871680D03*
D26*
X159210000Y-119010000D03*
X159180000Y-116960000D03*
D27*
X156721418Y-106491109D03*
D26*
X154803578Y-94899560D03*
X154325068Y-92130246D03*
X160303087Y-96914049D03*
X157300000Y-97100000D03*
X156750000Y-92200000D03*
D27*
X156380187Y-105401118D03*
X154913879Y-102902092D03*
X155699255Y-103286282D03*
X161045015Y-116945501D03*
D26*
X158030302Y-116878777D03*
D27*
X161045015Y-99054899D03*
X158255617Y-99054899D03*
X158255617Y-99054899D03*
X162035617Y-116147324D03*
X162511810Y-116834445D03*
X163166374Y-116308281D03*
X163642567Y-116995401D03*
X164626605Y-116049236D03*
X165041329Y-115321633D03*
X164285373Y-114959245D03*
X164700097Y-114231642D03*
X163944142Y-113869254D03*
X164358866Y-113141651D03*
X163602910Y-112779264D03*
X164017634Y-112051661D03*
X163261678Y-111689273D03*
X163676402Y-110961670D03*
X162920446Y-110599282D03*
X162920446Y-105401118D03*
X163676402Y-105038731D03*
X163261678Y-104311128D03*
X164017634Y-103948740D03*
X163602910Y-103221137D03*
X164358866Y-102858749D03*
X163944142Y-102131146D03*
X164700097Y-101768759D03*
X164285373Y-101041156D03*
X165041329Y-100678768D03*
X164626605Y-99951165D03*
X163642567Y-99005000D03*
X163166374Y-99692120D03*
X162511810Y-99165956D03*
X162035617Y-99853076D03*
X157426095Y-99696345D03*
X156970000Y-98910000D03*
X156227435Y-99454691D03*
D26*
X154404883Y-95893410D03*
X153670000Y-93860000D03*
D27*
X155090000Y-99310000D03*
X154810000Y-100140000D03*
X154961415Y-101039360D03*
X154564974Y-101774722D03*
X155418244Y-102148905D03*
X155965462Y-106128721D03*
X156380187Y-110599282D03*
X155624231Y-110961670D03*
X156038955Y-111689273D03*
X155282999Y-112051661D03*
X155697723Y-112779264D03*
X154941767Y-113141651D03*
X155356491Y-113869254D03*
X154600535Y-114231642D03*
X155015259Y-114959245D03*
X154259303Y-115321633D03*
X154674027Y-116049236D03*
D26*
X155832671Y-117473728D03*
X157341719Y-117834887D03*
X158177470Y-117899080D03*
D28*
X162154815Y-98095191D02*
X162850000Y-97400006D01*
X162850000Y-97400006D02*
X162850000Y-97749974D01*
X162850000Y-97749974D02*
X162950000Y-97849974D01*
X159945189Y-105385878D02*
X159945189Y-98623744D01*
X160473743Y-98095191D02*
X162154815Y-98095191D01*
X159531067Y-105800000D02*
X159945189Y-105385878D01*
X159945189Y-98623744D02*
X160473743Y-98095191D01*
X158295000Y-105800000D02*
X159531067Y-105800000D01*
X162500000Y-94815067D02*
X162500000Y-95300000D01*
X159239900Y-92560100D02*
X160445033Y-92560100D01*
X158937500Y-92862500D02*
X159239900Y-92560100D01*
X160445033Y-92560100D02*
X162500000Y-94615067D01*
X158712500Y-92862500D02*
X158937500Y-92862500D01*
X162500000Y-94615067D02*
X162500000Y-94815067D01*
D29*
X138830000Y-93100000D02*
X139314933Y-93100000D01*
X139314933Y-93100000D02*
X139334933Y-93120000D01*
X139730000Y-95740000D02*
X139700000Y-95770000D01*
D28*
X159810000Y-107110000D02*
X159810000Y-107400000D01*
X159810000Y-107400000D02*
X159810000Y-107790000D01*
X161005000Y-107400000D02*
X160522600Y-107400000D01*
X160522600Y-107400000D02*
X159810000Y-107400000D01*
X159810000Y-107790000D02*
X159810000Y-108200000D01*
X161005000Y-107800000D02*
X159820000Y-107800000D01*
X159820000Y-107800000D02*
X159810000Y-107790000D01*
X159810000Y-108200000D02*
X159810000Y-108870000D01*
X161005000Y-108200000D02*
X160522600Y-108200000D01*
X160522600Y-108200000D02*
X159810000Y-108200000D01*
X159810000Y-108870000D02*
X159810000Y-109220000D01*
X160080000Y-108600000D02*
X159810000Y-108870000D01*
X161005000Y-108600000D02*
X160080000Y-108600000D01*
X159810000Y-109220000D02*
X159810000Y-109810000D01*
X161005000Y-109000000D02*
X160030000Y-109000000D01*
X160030000Y-109000000D02*
X159810000Y-109220000D01*
X159810000Y-109810000D02*
X160220000Y-109400000D01*
X160220000Y-109400000D02*
X161005000Y-109400000D01*
X159920000Y-107000000D02*
X159810000Y-107110000D01*
X161005000Y-107000000D02*
X159920000Y-107000000D01*
X153840000Y-103970000D02*
X153180000Y-103970000D01*
X160522600Y-106600000D02*
X160250000Y-106327400D01*
X161005000Y-106600000D02*
X160522600Y-106600000D01*
X160250000Y-99550000D02*
X160473514Y-99326486D01*
X160473514Y-99326486D02*
X160473514Y-98780578D01*
X160770694Y-98483398D02*
X163362426Y-98483398D01*
X163362426Y-98483398D02*
X164200000Y-97645824D01*
X164200000Y-97645824D02*
X164200000Y-97400000D01*
X160250000Y-106327400D02*
X160250000Y-99550000D01*
X160473514Y-98780578D02*
X160770694Y-98483398D01*
X161190316Y-106624000D02*
X161540316Y-106624000D01*
X161540316Y-106624000D02*
X162460992Y-105841578D01*
X162460992Y-105841578D02*
X162749830Y-105946114D01*
X162749830Y-105946114D02*
X163335170Y-106128721D01*
X161190316Y-107024000D02*
X161540316Y-107024000D01*
X161540316Y-107024000D02*
X162406505Y-106287883D01*
X162406505Y-106287883D02*
X162579214Y-106491109D01*
X161190316Y-107424000D02*
X161540316Y-107424000D01*
X161540316Y-107424000D02*
X162119760Y-106931569D01*
X162119760Y-106931569D02*
X162408598Y-107036104D01*
X162408598Y-107036104D02*
X162993938Y-107218712D01*
X161190316Y-107824000D02*
X161540316Y-107824000D01*
X161540316Y-107824000D02*
X162065274Y-107377873D01*
X162065274Y-107377873D02*
X162237982Y-107581100D01*
X161190316Y-108176401D02*
X161540316Y-108176401D01*
X161540316Y-108176401D02*
X162065274Y-108622527D01*
X162065274Y-108622527D02*
X162237982Y-108419301D01*
X161190316Y-108576401D02*
X161540316Y-108576401D01*
X161540316Y-108576401D02*
X162119760Y-109068832D01*
X162119760Y-109068832D02*
X162408598Y-108964297D01*
X162408598Y-108964297D02*
X162993938Y-108781689D01*
X161190316Y-108976401D02*
X161540316Y-108976401D01*
X161540316Y-108976401D02*
X162406505Y-109712518D01*
X162406505Y-109712518D02*
X162579214Y-109509292D01*
X161190316Y-109376401D02*
X161540316Y-109376401D01*
X161540316Y-109376401D02*
X162460992Y-110158823D01*
X162460992Y-110158823D02*
X162749830Y-110054287D01*
X162749830Y-110054287D02*
X163335170Y-109871680D01*
X163750000Y-95382589D02*
X163780023Y-95352566D01*
X163780023Y-95352566D02*
X164264956Y-95352566D01*
X163750000Y-95450000D02*
X163750000Y-95382589D01*
X160500000Y-95450000D02*
X160050000Y-95900000D01*
X160050000Y-95900000D02*
X158150000Y-95900000D01*
X160500000Y-95450000D02*
X159497600Y-95450000D01*
X159497600Y-95450000D02*
X158712500Y-94664900D01*
X158712500Y-94664900D02*
X158712500Y-94362500D01*
X157300000Y-95000000D02*
X158377400Y-95000000D01*
X158377400Y-95000000D02*
X158712500Y-94664900D01*
X157300000Y-95000000D02*
X157300000Y-95050000D01*
X157300000Y-95050000D02*
X158150000Y-95900000D01*
X158808467Y-105400000D02*
X159300000Y-104908467D01*
X158295000Y-105400000D02*
X158808467Y-105400000D01*
X160228028Y-93749372D02*
X159927400Y-94050000D01*
X159589348Y-98950000D02*
X159589348Y-98548519D01*
X161003448Y-93749372D02*
X160228028Y-93749372D01*
X161376312Y-97163035D02*
X161376312Y-94122236D01*
X161376312Y-94122236D02*
X161003448Y-93749372D01*
X160748967Y-97790380D02*
X161376312Y-97163035D01*
X159589348Y-98548519D02*
X160347487Y-97790380D01*
X160347487Y-97790380D02*
X160748967Y-97790380D01*
X159589348Y-98639348D02*
X159100000Y-98150000D01*
X159300000Y-99239348D02*
X159589348Y-98950000D01*
X159589348Y-98950000D02*
X159589348Y-98639348D01*
X159300000Y-104908467D02*
X159300000Y-99239348D01*
X159950000Y-94027400D02*
X159927400Y-94050000D01*
X159950000Y-93400000D02*
X159950000Y-94027400D01*
X159927400Y-94050000D02*
X159239900Y-93362500D01*
X159239900Y-93362500D02*
X158712500Y-93362500D01*
X153245098Y-93068666D02*
X152902199Y-93411565D01*
X153373726Y-92940038D02*
X153245098Y-93068666D01*
X154548089Y-92940038D02*
X153373726Y-92940038D01*
X158295000Y-105000000D02*
X158777400Y-105000000D01*
X158777400Y-105000000D02*
X158950000Y-104827400D01*
X161071501Y-97036738D02*
X161071501Y-95175679D01*
X158528498Y-98474322D02*
X158528498Y-97875678D01*
X161071501Y-95175679D02*
X160745822Y-94850000D01*
X160745822Y-94850000D02*
X160227400Y-94850000D01*
X160622670Y-97485569D02*
X161071501Y-97036738D01*
X158950000Y-104827400D02*
X158950000Y-98895824D01*
X158528498Y-97875678D02*
X158918607Y-97485569D01*
X158918607Y-97485569D02*
X160622670Y-97485569D01*
X158950000Y-98895824D02*
X158528498Y-98474322D01*
X160227400Y-94850000D02*
X160227400Y-94822600D01*
X160227400Y-94822600D02*
X160386227Y-94663773D01*
X160386227Y-94663773D02*
X160729126Y-94320874D01*
X160227400Y-94850000D02*
X159239900Y-93862500D01*
X159239900Y-93862500D02*
X158712500Y-93862500D01*
X156400000Y-91200000D02*
X156550000Y-91200000D01*
X155812500Y-93362500D02*
X155285100Y-93362500D01*
X155208899Y-93286299D02*
X155208899Y-92391101D01*
X155208899Y-92391101D02*
X156400000Y-91200000D01*
X155285100Y-93362500D02*
X155208899Y-93286299D01*
X156550000Y-91200000D02*
X158500000Y-91200000D01*
X158500000Y-91200000D02*
X158550000Y-91250000D01*
X158110316Y-107424000D02*
X157760316Y-107424000D01*
X157760316Y-107424000D02*
X157180872Y-106931569D01*
X157180872Y-106931569D02*
X156892034Y-107036104D01*
X156892034Y-107036104D02*
X156306694Y-107218712D01*
X158110316Y-107824000D02*
X157760316Y-107824000D01*
X157760316Y-107824000D02*
X157235359Y-107377873D01*
X157235359Y-107377873D02*
X157062650Y-107581100D01*
X158110316Y-108176401D02*
X157760316Y-108176401D01*
X157760316Y-108176401D02*
X157235359Y-108622527D01*
X157235359Y-108622527D02*
X157062650Y-108419301D01*
X158110316Y-108576401D02*
X157760316Y-108576401D01*
X157760316Y-108576401D02*
X157180872Y-109068832D01*
X157180872Y-109068832D02*
X156892034Y-108964297D01*
X156892034Y-108964297D02*
X156306694Y-108781689D01*
X158110316Y-108976401D02*
X157760316Y-108976401D01*
X157760316Y-108976401D02*
X156894127Y-109712518D01*
X156894127Y-109712518D02*
X156721418Y-109509292D01*
X158110316Y-109376401D02*
X157760316Y-109376401D01*
X157760316Y-109376401D02*
X156839640Y-110158823D01*
X156839640Y-110158823D02*
X156550802Y-110054287D01*
X156550802Y-110054287D02*
X155965462Y-109871680D01*
X159180000Y-116960000D02*
X159180000Y-118980000D01*
X159180000Y-118980000D02*
X159210000Y-119010000D01*
X158110316Y-107024000D02*
X157760316Y-107024000D01*
X157760316Y-107024000D02*
X156894127Y-106287883D01*
X156894127Y-106287883D02*
X156721418Y-106491109D01*
X156250000Y-95900000D02*
X156025000Y-95900000D01*
X155024560Y-94899560D02*
X154803578Y-94899560D01*
X156025000Y-95900000D02*
X155024560Y-94899560D01*
X154350000Y-92105314D02*
X154325068Y-92130246D01*
X154350000Y-91200000D02*
X154350000Y-92105314D01*
X157300000Y-97100000D02*
X160117136Y-97100000D01*
X160117136Y-97100000D02*
X160303087Y-96914049D01*
X156250000Y-96050000D02*
X156250000Y-95900000D01*
X157300000Y-97100000D02*
X156250000Y-96050000D01*
X156750000Y-92200000D02*
X156475000Y-92200000D01*
X156475000Y-92200000D02*
X155812500Y-92862500D01*
X158110316Y-106224000D02*
X157760316Y-106224000D01*
X157760316Y-106224000D02*
X156552895Y-105197892D01*
X156552895Y-105197892D02*
X156380187Y-105401118D01*
X154594335Y-94304522D02*
X153931134Y-94967723D01*
X155812500Y-94362500D02*
X155285100Y-94362500D01*
X154545146Y-102559193D02*
X154570980Y-102559193D01*
X153836176Y-95620430D02*
X153836176Y-96166390D01*
X154570980Y-102559193D02*
X154913879Y-102902092D01*
X153836189Y-101850236D02*
X154545146Y-102559193D01*
X155227122Y-94304522D02*
X154594335Y-94304522D01*
X153931134Y-94967723D02*
X153931133Y-95525473D01*
X153836176Y-96166390D02*
X153836189Y-96166403D01*
X155285100Y-94362500D02*
X155227122Y-94304522D01*
X153931133Y-95525473D02*
X153836176Y-95620430D01*
X153836189Y-96166403D02*
X153836189Y-101850236D01*
X155098357Y-102717614D02*
X154913879Y-102902092D01*
X157733200Y-104224000D02*
X157579742Y-104070542D01*
X158110316Y-104224000D02*
X157733200Y-104224000D01*
X157579742Y-104070542D02*
X155827454Y-102581386D01*
X155827454Y-102581386D02*
X155691226Y-102717614D01*
X155691226Y-102717614D02*
X155098357Y-102717614D01*
X155356356Y-103629181D02*
X155699255Y-103286282D01*
X154799278Y-103629181D02*
X155356356Y-103629181D01*
X153534159Y-100000473D02*
X153288029Y-100246603D01*
X153288029Y-102117932D02*
X154799278Y-103629181D01*
X153288029Y-100246603D02*
X153288029Y-102117932D01*
X153534159Y-95495331D02*
X153534159Y-100000473D01*
X153629117Y-95400373D02*
X153534159Y-95495331D01*
X154609250Y-93862500D02*
X153629117Y-94842633D01*
X153629117Y-94842633D02*
X153629117Y-95400373D01*
X155812500Y-93862500D02*
X154609250Y-93862500D01*
X157036973Y-104624000D02*
X156042154Y-103629181D01*
X156042154Y-103629181D02*
X155699255Y-103286282D01*
X158110316Y-104624000D02*
X157036973Y-104624000D01*
X161005000Y-116200000D02*
X161005000Y-115800000D01*
X161045015Y-116945501D02*
X161045015Y-116240015D01*
X161045015Y-116240015D02*
X161005000Y-116200000D01*
X158295000Y-116200000D02*
X158224146Y-116200000D01*
X158030302Y-116393844D02*
X158030302Y-116878777D01*
X158224146Y-116200000D02*
X158030302Y-116393844D01*
X158295000Y-115800000D02*
X158295000Y-116200000D01*
X161005000Y-99800000D02*
X161005000Y-99094914D01*
X161005000Y-99094914D02*
X161045015Y-99054899D01*
X161005000Y-100200000D02*
X161005000Y-99800000D01*
X158295000Y-99800000D02*
X158295000Y-99094282D01*
X158295000Y-99094282D02*
X158255617Y-99054899D01*
X158295000Y-100200000D02*
X158295000Y-99800000D01*
X161190316Y-115376401D02*
X161540316Y-115376401D01*
X161540316Y-115376401D02*
X162208326Y-115944098D01*
X162208326Y-115944098D02*
X162035617Y-116147324D01*
X161190316Y-114976401D02*
X161540316Y-114976401D01*
X161540316Y-114976401D02*
X162657575Y-115925886D01*
X162657575Y-115925886D02*
X162600996Y-116227803D01*
X162600996Y-116227803D02*
X162511810Y-116834445D01*
X161190316Y-114576401D02*
X161540316Y-114576401D01*
X161540316Y-114576401D02*
X163339083Y-116105055D01*
X163339083Y-116105055D02*
X163166374Y-116308281D01*
X161190316Y-114176401D02*
X161540316Y-114176401D01*
X161540316Y-114176401D02*
X163788332Y-116086842D01*
X163788332Y-116086842D02*
X163731753Y-116388759D01*
X163731753Y-116388759D02*
X163642567Y-116995401D01*
X161190316Y-113776401D02*
X161540316Y-113776401D01*
X161540316Y-113776401D02*
X164453897Y-116252462D01*
X164453897Y-116252462D02*
X164626605Y-116049236D01*
X161190316Y-113376401D02*
X161540316Y-113376401D01*
X161540316Y-113376401D02*
X164167151Y-115608776D01*
X164167151Y-115608776D02*
X164455989Y-115504240D01*
X164455989Y-115504240D02*
X165041329Y-115321633D01*
X161190316Y-112976401D02*
X161540316Y-112976401D01*
X161540316Y-112976401D02*
X164112665Y-115162471D01*
X164112665Y-115162471D02*
X164285373Y-114959245D01*
X161190316Y-112576401D02*
X161540316Y-112576401D01*
X161540316Y-112576401D02*
X163825920Y-114518785D01*
X163825920Y-114518785D02*
X164114757Y-114414250D01*
X164114757Y-114414250D02*
X164700097Y-114231642D01*
X161190316Y-112176401D02*
X161540316Y-112176401D01*
X161540316Y-112176401D02*
X163771433Y-114072481D01*
X163771433Y-114072481D02*
X163944142Y-113869254D01*
X161190316Y-111776401D02*
X161540316Y-111776401D01*
X161540316Y-111776401D02*
X163484688Y-113428795D01*
X163484688Y-113428795D02*
X163773526Y-113324259D01*
X163773526Y-113324259D02*
X164358866Y-113141651D01*
X161190316Y-111376401D02*
X161540316Y-111376401D01*
X161540316Y-111376401D02*
X163430201Y-112982490D01*
X163430201Y-112982490D02*
X163602910Y-112779264D01*
X161190316Y-110976401D02*
X161540316Y-110976401D01*
X161540316Y-110976401D02*
X163143456Y-112338804D01*
X163143456Y-112338804D02*
X163432294Y-112234268D01*
X163432294Y-112234268D02*
X164017634Y-112051661D01*
X161190316Y-110576401D02*
X161540316Y-110576401D01*
X161540316Y-110576401D02*
X163088969Y-111892499D01*
X163088969Y-111892499D02*
X163261678Y-111689273D01*
X161190316Y-110176401D02*
X161540316Y-110176401D01*
X161540316Y-110176401D02*
X162802224Y-111248813D01*
X162802224Y-111248813D02*
X163091062Y-111144278D01*
X163091062Y-111144278D02*
X163676402Y-110961670D01*
X161190316Y-109776401D02*
X161540316Y-109776401D01*
X161540316Y-109776401D02*
X162747737Y-110802509D01*
X162747737Y-110802509D02*
X162920446Y-110599282D01*
X161190316Y-106224000D02*
X161540316Y-106224000D01*
X161540316Y-106224000D02*
X162747737Y-105197892D01*
X162747737Y-105197892D02*
X162920446Y-105401118D01*
X161190316Y-105824000D02*
X161540316Y-105824000D01*
X161540316Y-105824000D02*
X162802224Y-104751587D01*
X162802224Y-104751587D02*
X163091062Y-104856123D01*
X163091062Y-104856123D02*
X163676402Y-105038731D01*
X161190316Y-105424000D02*
X161540316Y-105424000D01*
X161540316Y-105424000D02*
X163088969Y-104107901D01*
X163088969Y-104107901D02*
X163261678Y-104311128D01*
X161190316Y-105024000D02*
X161540316Y-105024000D01*
X161540316Y-105024000D02*
X163143456Y-103661597D01*
X163143456Y-103661597D02*
X163432294Y-103766132D01*
X163432294Y-103766132D02*
X164017634Y-103948740D01*
X161190316Y-104624000D02*
X161540316Y-104624000D01*
X161540316Y-104624000D02*
X163430201Y-103017911D01*
X163430201Y-103017911D02*
X163602910Y-103221137D01*
X161190316Y-104224000D02*
X161540316Y-104224000D01*
X161540316Y-104224000D02*
X163484688Y-102571606D01*
X163484688Y-102571606D02*
X163773526Y-102676142D01*
X163773526Y-102676142D02*
X164358866Y-102858749D01*
X161190316Y-103824000D02*
X161540316Y-103824000D01*
X161540316Y-103824000D02*
X163771433Y-101927920D01*
X163771433Y-101927920D02*
X163944142Y-102131146D01*
X161190316Y-103424000D02*
X161540316Y-103424000D01*
X161540316Y-103424000D02*
X163825920Y-101481616D01*
X163825920Y-101481616D02*
X164114757Y-101586151D01*
X164114757Y-101586151D02*
X164700097Y-101768759D01*
X161190316Y-103024000D02*
X161540316Y-103024000D01*
X161540316Y-103024000D02*
X164112665Y-100837930D01*
X164112665Y-100837930D02*
X164285373Y-101041156D01*
X161190316Y-102624000D02*
X161540316Y-102624000D01*
X161540316Y-102624000D02*
X164167151Y-100391625D01*
X164167151Y-100391625D02*
X164455989Y-100496161D01*
X164455989Y-100496161D02*
X165041329Y-100678768D01*
X161190316Y-102224000D02*
X161540316Y-102224000D01*
X161540316Y-102224000D02*
X164453897Y-99747939D01*
X164453897Y-99747939D02*
X164626605Y-99951165D01*
X161190316Y-101824000D02*
X161540316Y-101824000D01*
X161540316Y-101824000D02*
X163788332Y-99913558D01*
X163788332Y-99913558D02*
X163731753Y-99611642D01*
X163731753Y-99611642D02*
X163642567Y-99005000D01*
X161190316Y-101424000D02*
X161540316Y-101424000D01*
X161540316Y-101424000D02*
X163339083Y-99895346D01*
X163339083Y-99895346D02*
X163166374Y-99692120D01*
X161190316Y-101024000D02*
X161540316Y-101024000D01*
X161540316Y-101024000D02*
X162657575Y-100074515D01*
X162657575Y-100074515D02*
X162600996Y-99772598D01*
X162600996Y-99772598D02*
X162511810Y-99165956D01*
X161190316Y-100624000D02*
X161540316Y-100624000D01*
X161540316Y-100624000D02*
X162208326Y-100056303D01*
X162208326Y-100056303D02*
X162035617Y-99853076D01*
X157426095Y-100181278D02*
X157426095Y-99696345D01*
X158110316Y-100624000D02*
X158027123Y-100540807D01*
X157785624Y-100540807D02*
X157426095Y-100181278D01*
X158027123Y-100540807D02*
X157785624Y-100540807D01*
X156796144Y-99979713D02*
X156796144Y-99083856D01*
X157768950Y-100842822D02*
X157659253Y-100842822D01*
X156796144Y-99083856D02*
X156970000Y-98910000D01*
X157950128Y-101024000D02*
X157768950Y-100842822D01*
X158110316Y-101024000D02*
X157950128Y-101024000D01*
X157659253Y-100842822D02*
X156796144Y-99979713D01*
X156227435Y-99838120D02*
X156227435Y-99454691D01*
X157534154Y-101144839D02*
X156227435Y-99838120D01*
X157923012Y-101424000D02*
X157643851Y-101144839D01*
X157643851Y-101144839D02*
X157534154Y-101144839D01*
X158110316Y-101424000D02*
X157923012Y-101424000D01*
X154747782Y-96236309D02*
X154404883Y-95893410D01*
X155658709Y-99005643D02*
X155658709Y-97147236D01*
X155658709Y-97147236D02*
X154747782Y-96236309D01*
X153670000Y-93860000D02*
X152780000Y-94750000D01*
X152780000Y-94750000D02*
X152780000Y-96290000D01*
X157518750Y-101446854D02*
X157409053Y-101446854D01*
X158110316Y-101824000D02*
X157895896Y-101824000D01*
X155658709Y-99005643D02*
X155658066Y-99005000D01*
X155658709Y-99696510D02*
X155658709Y-99005643D01*
X157409053Y-101446854D02*
X155658709Y-99696510D01*
X157895896Y-101824000D02*
X157518750Y-101446854D01*
X157283954Y-101748871D02*
X155090000Y-99554917D01*
X157393651Y-101748871D02*
X157283954Y-101748871D01*
X158110316Y-102224000D02*
X157868780Y-102224000D01*
X155090000Y-99554917D02*
X155090000Y-99310000D01*
X157868780Y-102224000D02*
X157393651Y-101748871D01*
X157158854Y-102050887D02*
X155590866Y-100482899D01*
X157268552Y-102050888D02*
X157158854Y-102050887D01*
X155152899Y-100482899D02*
X154810000Y-100140000D01*
X158110316Y-102624000D02*
X157841664Y-102624000D01*
X155590866Y-100482899D02*
X155152899Y-100482899D01*
X157841664Y-102624000D02*
X157268552Y-102050888D01*
X155720211Y-101039360D02*
X155446348Y-101039360D01*
X155446348Y-101039360D02*
X154961415Y-101039360D01*
X157033754Y-102352903D02*
X155720211Y-101039360D01*
X158110316Y-103024000D02*
X157814548Y-103024000D01*
X157814548Y-103024000D02*
X157143451Y-102352903D01*
X157143451Y-102352903D02*
X157033754Y-102352903D01*
X154728380Y-101611316D02*
X154564974Y-101774722D01*
X156908654Y-102654919D02*
X155715093Y-101461358D01*
X155382605Y-101461358D02*
X155232647Y-101611316D01*
X158110316Y-103424000D02*
X157787432Y-103424000D01*
X155715093Y-101461358D02*
X155382605Y-101461358D01*
X155232647Y-101611316D02*
X154728380Y-101611316D01*
X157018352Y-102654920D02*
X156908654Y-102654919D01*
X157787432Y-103424000D02*
X157018352Y-102654920D01*
X156783554Y-102956935D02*
X155975524Y-102148905D01*
X157760316Y-103824000D02*
X156893251Y-102956935D01*
X158110316Y-103824000D02*
X157760316Y-103824000D01*
X155975524Y-102148905D02*
X155903177Y-102148905D01*
X155903177Y-102148905D02*
X155418244Y-102148905D01*
X156893251Y-102956935D02*
X156783554Y-102956935D01*
X158110316Y-106624000D02*
X157760316Y-106624000D01*
X157760316Y-106624000D02*
X156839640Y-105841578D01*
X156839640Y-105841578D02*
X156550802Y-105946114D01*
X156550802Y-105946114D02*
X155965462Y-106128721D01*
X158110316Y-109776401D02*
X157760316Y-109776401D01*
X157760316Y-109776401D02*
X156552895Y-110802509D01*
X156552895Y-110802509D02*
X156380187Y-110599282D01*
X158110316Y-110176401D02*
X157760316Y-110176401D01*
X157760316Y-110176401D02*
X156498409Y-111248813D01*
X156498409Y-111248813D02*
X156209571Y-111144278D01*
X156209571Y-111144278D02*
X155624231Y-110961670D01*
X158110316Y-110576401D02*
X157760316Y-110576401D01*
X157760316Y-110576401D02*
X156211663Y-111892499D01*
X156211663Y-111892499D02*
X156038955Y-111689273D01*
X158110316Y-110976401D02*
X157760316Y-110976401D01*
X157760316Y-110976401D02*
X156157177Y-112338804D01*
X156157177Y-112338804D02*
X155868339Y-112234268D01*
X155868339Y-112234268D02*
X155282999Y-112051661D01*
X158110316Y-111376401D02*
X157760316Y-111376401D01*
X157760316Y-111376401D02*
X155870431Y-112982490D01*
X155870431Y-112982490D02*
X155697723Y-112779264D01*
X158110316Y-111776401D02*
X157760316Y-111776401D01*
X157760316Y-111776401D02*
X155815945Y-113428795D01*
X155815945Y-113428795D02*
X155527107Y-113324259D01*
X155527107Y-113324259D02*
X154941767Y-113141651D01*
X158110316Y-112176401D02*
X157760316Y-112176401D01*
X157760316Y-112176401D02*
X155529200Y-114072481D01*
X155529200Y-114072481D02*
X155356491Y-113869254D01*
X158110316Y-112576401D02*
X157760316Y-112576401D01*
X157760316Y-112576401D02*
X155474713Y-114518785D01*
X155474713Y-114518785D02*
X155185875Y-114414250D01*
X155185875Y-114414250D02*
X154600535Y-114231642D01*
X158110316Y-112976401D02*
X157760316Y-112976401D01*
X157760316Y-112976401D02*
X155187968Y-115162471D01*
X155187968Y-115162471D02*
X155015259Y-114959245D01*
X158110316Y-113376401D02*
X157760316Y-113376401D01*
X157760316Y-113376401D02*
X155133481Y-115608776D01*
X155133481Y-115608776D02*
X154844643Y-115504240D01*
X154844643Y-115504240D02*
X154259303Y-115321633D01*
X158110316Y-113776401D02*
X157760316Y-113776401D01*
X157760316Y-113776401D02*
X154846736Y-116252462D01*
X154846736Y-116252462D02*
X154674027Y-116049236D01*
X157760316Y-114176401D02*
X155512300Y-116086842D01*
X155489772Y-116109370D02*
X155489772Y-117130829D01*
X155489772Y-117130829D02*
X155832671Y-117473728D01*
X155512300Y-116086842D02*
X155489772Y-116109370D01*
X158110316Y-114176401D02*
X157760316Y-114176401D01*
X156134258Y-116308281D02*
X156134258Y-116627426D01*
X156134258Y-116627426D02*
X157341719Y-117834887D01*
X158110316Y-114576401D02*
X157760316Y-114576401D01*
X157760316Y-114576401D02*
X155961549Y-116105055D01*
X155961549Y-116105055D02*
X156134258Y-116308281D01*
X158110316Y-114976401D02*
X157760316Y-114976401D01*
X156643057Y-116299783D02*
X158177470Y-117834196D01*
X158177470Y-117834196D02*
X158177470Y-117899080D01*
X156643057Y-115925886D02*
X156643057Y-116299783D01*
X157760316Y-114976401D02*
X156643057Y-115925886D01*
G36*
X157624618Y-90630511D02*
X157556897Y-90793600D01*
X157486669Y-90793600D01*
X157486669Y-90750000D01*
X157463644Y-90627635D01*
X157391327Y-90515251D01*
X157280983Y-90439856D01*
X157150000Y-90413331D01*
X155950000Y-90413331D01*
X155827635Y-90436356D01*
X155715251Y-90508673D01*
X155639856Y-90619017D01*
X155613331Y-90750000D01*
X155613331Y-91411933D01*
X155264172Y-91761092D01*
X155286669Y-91650000D01*
X155286669Y-90750000D01*
X155263644Y-90627635D01*
X155191327Y-90515251D01*
X155080983Y-90439856D01*
X154950000Y-90413331D01*
X153750000Y-90413331D01*
X153627635Y-90436356D01*
X153515251Y-90508673D01*
X153439856Y-90619017D01*
X153413331Y-90750000D01*
X153413331Y-91650000D01*
X153436356Y-91772365D01*
X153508673Y-91884749D01*
X153619017Y-91960144D01*
X153663166Y-91969085D01*
X153652085Y-91995771D01*
X153651851Y-92263547D01*
X153754109Y-92511029D01*
X153776679Y-92533638D01*
X153373726Y-92533638D01*
X153240691Y-92560100D01*
X153218203Y-92564573D01*
X153086357Y-92652670D01*
X153000477Y-92738550D01*
X152768898Y-92738348D01*
X152521416Y-92840606D01*
X152331905Y-93029787D01*
X152229216Y-93277090D01*
X152228982Y-93544866D01*
X152331240Y-93792348D01*
X152520421Y-93981859D01*
X152767724Y-94084548D01*
X152870626Y-94084638D01*
X152492632Y-94462632D01*
X152404535Y-94594477D01*
X152373600Y-94750000D01*
X152373600Y-95353331D01*
X152330000Y-95353331D01*
X152207635Y-95376356D01*
X152095251Y-95448673D01*
X152019856Y-95559017D01*
X151993331Y-95690000D01*
X151993331Y-96890000D01*
X152016356Y-97012365D01*
X152088673Y-97124749D01*
X152199017Y-97200144D01*
X152330000Y-97226669D01*
X153127759Y-97226669D01*
X153127759Y-97305800D01*
X153103850Y-97305800D01*
X152957800Y-97451850D01*
X152957800Y-98312200D01*
X152977800Y-98312200D01*
X152977800Y-98667800D01*
X152957800Y-98667800D01*
X152957800Y-99528150D01*
X153103850Y-99674200D01*
X153127759Y-99674200D01*
X153127759Y-99832137D01*
X153000661Y-99959235D01*
X152912564Y-100091080D01*
X152881629Y-100246603D01*
X152881629Y-102117932D01*
X152912564Y-102273455D01*
X152981093Y-102376015D01*
X153000661Y-102405300D01*
X154511910Y-103916549D01*
X154643755Y-104004646D01*
X154799278Y-104035581D01*
X155356356Y-104035581D01*
X155511879Y-104004646D01*
X155579776Y-103959278D01*
X155797706Y-103959469D01*
X156603089Y-104764853D01*
X156514662Y-104728135D01*
X156246886Y-104727901D01*
X155999404Y-104830159D01*
X155809893Y-105019340D01*
X155707204Y-105266643D01*
X155706994Y-105507222D01*
X155584679Y-105557762D01*
X155395168Y-105746943D01*
X155292479Y-105994246D01*
X155292245Y-106262022D01*
X155394503Y-106509504D01*
X155583684Y-106699015D01*
X155789110Y-106784315D01*
X155736400Y-106836934D01*
X155633711Y-107084237D01*
X155633477Y-107352013D01*
X155735735Y-107599495D01*
X155924916Y-107789006D01*
X156172219Y-107891695D01*
X156439995Y-107891929D01*
X156459463Y-107883885D01*
X156491691Y-107961883D01*
X156529843Y-108000101D01*
X156492356Y-108037523D01*
X156459617Y-108116366D01*
X156441169Y-108108706D01*
X156173393Y-108108472D01*
X155925911Y-108210730D01*
X155736400Y-108399911D01*
X155633711Y-108647214D01*
X155633477Y-108914990D01*
X155735735Y-109162472D01*
X155789330Y-109216160D01*
X155584679Y-109300721D01*
X155395168Y-109489902D01*
X155292479Y-109737205D01*
X155292245Y-110004981D01*
X155394503Y-110252463D01*
X155448098Y-110306151D01*
X155243448Y-110390711D01*
X155053937Y-110579892D01*
X154951248Y-110827195D01*
X154951014Y-111094971D01*
X155053272Y-111342453D01*
X155106867Y-111396141D01*
X154902216Y-111480702D01*
X154712705Y-111669883D01*
X154610016Y-111917186D01*
X154609782Y-112184962D01*
X154712040Y-112432444D01*
X154765634Y-112486132D01*
X154560984Y-112570692D01*
X154371473Y-112759873D01*
X154268784Y-113007176D01*
X154268550Y-113274952D01*
X154370808Y-113522434D01*
X154424403Y-113576122D01*
X154219752Y-113660683D01*
X154030241Y-113849864D01*
X153927552Y-114097167D01*
X153927318Y-114364943D01*
X154029576Y-114612425D01*
X154083171Y-114666113D01*
X153878520Y-114750674D01*
X153689009Y-114939855D01*
X153586320Y-115187158D01*
X153586086Y-115454934D01*
X153688344Y-115702416D01*
X153877525Y-115891927D01*
X154001019Y-115943206D01*
X154000810Y-116182537D01*
X154103068Y-116430019D01*
X154292249Y-116619530D01*
X154539552Y-116722219D01*
X154807328Y-116722453D01*
X155054810Y-116620195D01*
X155083372Y-116591683D01*
X155083372Y-117130829D01*
X155114307Y-117286352D01*
X155159675Y-117354249D01*
X155159454Y-117607029D01*
X155261712Y-117854511D01*
X155450893Y-118044022D01*
X155698196Y-118146711D01*
X155965972Y-118146945D01*
X156213454Y-118044687D01*
X156402965Y-117855506D01*
X156505654Y-117608203D01*
X156505684Y-117573588D01*
X156668704Y-117736608D01*
X156668502Y-117968188D01*
X156770760Y-118215670D01*
X156959941Y-118405181D01*
X157207244Y-118507870D01*
X157475020Y-118508104D01*
X157722502Y-118405846D01*
X157727397Y-118400960D01*
X157795692Y-118469374D01*
X158042995Y-118572063D01*
X158310771Y-118572297D01*
X158558253Y-118470039D01*
X158747764Y-118280858D01*
X158773600Y-118218638D01*
X158773600Y-118494561D01*
X158639706Y-118628222D01*
X158537017Y-118875525D01*
X158536783Y-119143301D01*
X158639041Y-119390783D01*
X158828222Y-119580294D01*
X159075525Y-119682983D01*
X159343301Y-119683217D01*
X159590783Y-119580959D01*
X159780294Y-119391778D01*
X159882983Y-119144475D01*
X159883217Y-118876699D01*
X159780959Y-118629217D01*
X159591778Y-118439706D01*
X159586400Y-118437473D01*
X159586400Y-117505387D01*
X159750294Y-117341778D01*
X159852983Y-117094475D01*
X159853217Y-116826699D01*
X159750959Y-116579217D01*
X159561778Y-116389706D01*
X159314475Y-116287017D01*
X159046699Y-116286783D01*
X158961669Y-116321917D01*
X158961669Y-116100000D01*
X158943625Y-116004105D01*
X158961669Y-115915000D01*
X158961669Y-115685000D01*
X158945088Y-115596880D01*
X158961669Y-115515000D01*
X158961669Y-115285000D01*
X158945088Y-115196880D01*
X158961669Y-115115000D01*
X158961669Y-114885000D01*
X158945088Y-114796880D01*
X158961669Y-114715000D01*
X158961669Y-114485000D01*
X158945088Y-114396880D01*
X158961669Y-114315000D01*
X158961669Y-114085000D01*
X158945088Y-113996880D01*
X158961669Y-113915000D01*
X158961669Y-113685000D01*
X158945088Y-113596880D01*
X158961669Y-113515000D01*
X158961669Y-113285000D01*
X158945088Y-113196880D01*
X158961669Y-113115000D01*
X158961669Y-112885000D01*
X158945088Y-112796880D01*
X158961669Y-112715000D01*
X158961669Y-112485000D01*
X158945088Y-112396880D01*
X158961669Y-112315000D01*
X158961669Y-112085000D01*
X158945088Y-111996880D01*
X158961669Y-111915000D01*
X158961669Y-111685000D01*
X158945088Y-111596880D01*
X158961669Y-111515000D01*
X158961669Y-111285000D01*
X158945088Y-111196880D01*
X158961669Y-111115000D01*
X158961669Y-110885000D01*
X158945088Y-110796880D01*
X158961669Y-110715000D01*
X158961669Y-110485000D01*
X158945088Y-110396880D01*
X158961669Y-110315000D01*
X158961669Y-110085000D01*
X158945088Y-109996880D01*
X158961669Y-109915000D01*
X158961669Y-109685000D01*
X158945088Y-109596880D01*
X158961669Y-109515000D01*
X158961669Y-109285000D01*
X158945088Y-109196880D01*
X158961669Y-109115000D01*
X158961669Y-108885000D01*
X158945088Y-108796880D01*
X158961669Y-108715000D01*
X158961669Y-108485000D01*
X158945088Y-108396880D01*
X158961669Y-108315000D01*
X158961669Y-108085000D01*
X158945088Y-107996880D01*
X158961669Y-107915000D01*
X158961669Y-107685000D01*
X158945088Y-107596880D01*
X158961669Y-107515000D01*
X158961669Y-107285000D01*
X158945088Y-107196880D01*
X158961669Y-107115000D01*
X158961669Y-106885000D01*
X158945088Y-106796880D01*
X158961669Y-106715000D01*
X158961669Y-106485000D01*
X158945088Y-106396880D01*
X158961669Y-106315000D01*
X158961669Y-106206400D01*
X159531067Y-106206400D01*
X159686590Y-106175465D01*
X159818435Y-106087368D01*
X160232557Y-105673246D01*
X160251780Y-105644477D01*
X160320654Y-105541401D01*
X160338331Y-105452531D01*
X160338331Y-105515000D01*
X160354912Y-105603120D01*
X160338331Y-105685000D01*
X160338331Y-105915000D01*
X160351793Y-105986543D01*
X160344077Y-105989739D01*
X160179739Y-106154078D01*
X160090800Y-106368796D01*
X160090800Y-106396450D01*
X160214083Y-106519733D01*
X160179739Y-106554078D01*
X160090800Y-106768796D01*
X160090800Y-106796450D01*
X160094350Y-106800000D01*
X160090800Y-106803550D01*
X160090800Y-106831204D01*
X160160718Y-107000000D01*
X160090800Y-107168796D01*
X160090800Y-107196450D01*
X160094350Y-107200000D01*
X160090800Y-107203550D01*
X160090800Y-107231204D01*
X160160718Y-107400000D01*
X160090800Y-107568796D01*
X160090800Y-107596450D01*
X160094350Y-107600000D01*
X160090800Y-107603550D01*
X160090800Y-107631204D01*
X160160718Y-107800000D01*
X160090800Y-107968796D01*
X160090800Y-107996450D01*
X160094350Y-108000000D01*
X160090800Y-108003550D01*
X160090800Y-108031204D01*
X160160718Y-108200000D01*
X160090800Y-108368796D01*
X160090800Y-108396450D01*
X160094350Y-108400000D01*
X160090800Y-108403550D01*
X160090800Y-108431204D01*
X160160718Y-108600000D01*
X160090800Y-108768796D01*
X160090800Y-108796450D01*
X160094350Y-108800000D01*
X160090800Y-108803550D01*
X160090800Y-108831204D01*
X160160718Y-109000000D01*
X160090800Y-109168796D01*
X160090800Y-109196450D01*
X160094350Y-109200000D01*
X160090800Y-109203550D01*
X160090800Y-109231204D01*
X160179739Y-109445922D01*
X160214083Y-109480267D01*
X160090800Y-109603550D01*
X160090800Y-109631204D01*
X160179739Y-109845922D01*
X160344077Y-110010261D01*
X160352740Y-110013849D01*
X160338331Y-110085000D01*
X160338331Y-110315000D01*
X160354912Y-110403120D01*
X160338331Y-110485000D01*
X160338331Y-110715000D01*
X160354912Y-110803120D01*
X160338331Y-110885000D01*
X160338331Y-111115000D01*
X160354912Y-111203120D01*
X160338331Y-111285000D01*
X160338331Y-111515000D01*
X160354912Y-111603120D01*
X160338331Y-111685000D01*
X160338331Y-111915000D01*
X160354912Y-112003120D01*
X160338331Y-112085000D01*
X160338331Y-112315000D01*
X160354912Y-112403120D01*
X160338331Y-112485000D01*
X160338331Y-112715000D01*
X160354912Y-112803120D01*
X160338331Y-112885000D01*
X160338331Y-113115000D01*
X160354912Y-113203120D01*
X160338331Y-113285000D01*
X160338331Y-113515000D01*
X160354912Y-113603120D01*
X160338331Y-113685000D01*
X160338331Y-113915000D01*
X160354912Y-114003120D01*
X160338331Y-114085000D01*
X160338331Y-114315000D01*
X160354912Y-114403120D01*
X160338331Y-114485000D01*
X160338331Y-114715000D01*
X160354912Y-114803120D01*
X160338331Y-114885000D01*
X160338331Y-115115000D01*
X160354912Y-115203120D01*
X160338331Y-115285000D01*
X160338331Y-115515000D01*
X160354912Y-115603120D01*
X160338331Y-115685000D01*
X160338331Y-115915000D01*
X160356375Y-116010895D01*
X160338331Y-116100000D01*
X160338331Y-116450000D01*
X160361356Y-116572365D01*
X160428077Y-116676053D01*
X160372032Y-116811026D01*
X160371798Y-117078802D01*
X160474056Y-117326284D01*
X160663237Y-117515795D01*
X160910540Y-117618484D01*
X161178316Y-117618718D01*
X161425798Y-117516460D01*
X161615309Y-117327279D01*
X161717998Y-117079976D01*
X161718232Y-116812200D01*
X161684394Y-116730305D01*
X161838744Y-116794397D01*
X161838593Y-116967746D01*
X161940851Y-117215228D01*
X162130032Y-117404739D01*
X162377335Y-117507428D01*
X162645111Y-117507662D01*
X162892593Y-117405404D01*
X163027879Y-117270353D01*
X163071608Y-117376184D01*
X163260789Y-117565695D01*
X163508092Y-117668384D01*
X163775868Y-117668618D01*
X164023350Y-117566360D01*
X164212861Y-117377179D01*
X164315550Y-117129876D01*
X164315784Y-116862100D01*
X164213526Y-116614618D01*
X164122694Y-116523627D01*
X164125216Y-116506470D01*
X164169713Y-116544285D01*
X164244827Y-116619530D01*
X164492130Y-116722219D01*
X164759906Y-116722453D01*
X165007388Y-116620195D01*
X165196899Y-116431014D01*
X165299588Y-116183711D01*
X165299798Y-115943131D01*
X165422112Y-115892592D01*
X165594800Y-115720205D01*
X165594800Y-123210093D01*
X165408979Y-124144277D01*
X164902410Y-124902412D01*
X164144277Y-125408979D01*
X163210092Y-125594800D01*
X140583879Y-125594800D01*
X140613670Y-125566216D01*
X140619277Y-125558188D01*
X140627213Y-125552451D01*
X140675756Y-125500182D01*
X140680624Y-125492280D01*
X140687837Y-125486440D01*
X140734695Y-125430110D01*
X140738897Y-125422373D01*
X140745445Y-125416485D01*
X140790522Y-125356204D01*
X140794132Y-125348648D01*
X140800075Y-125342750D01*
X140843276Y-125278624D01*
X140846358Y-125271262D01*
X140851753Y-125265381D01*
X140892981Y-125197519D01*
X140895593Y-125190355D01*
X140900489Y-125184512D01*
X140939649Y-125113022D01*
X140941661Y-125106627D01*
X140945761Y-125101323D01*
X140976681Y-125039188D01*
X140978069Y-125034080D01*
X140981175Y-125029794D01*
X140993750Y-125002424D01*
X140994856Y-124997789D01*
X140997544Y-124993853D01*
X141009627Y-124965489D01*
X141010561Y-124961026D01*
X141013030Y-124957194D01*
X141024969Y-124926949D01*
X141025685Y-124923004D01*
X141027777Y-124919583D01*
X141039919Y-124886571D01*
X141040428Y-124883339D01*
X141042082Y-124880513D01*
X141054774Y-124843849D01*
X141054999Y-124842216D01*
X141055763Y-124840882D01*
X141070525Y-124834914D01*
X141070703Y-124834797D01*
X141070913Y-124834757D01*
X141094232Y-124825296D01*
X141094420Y-124825172D01*
X141094644Y-124825129D01*
X141116227Y-124816339D01*
X141116453Y-124816190D01*
X141116719Y-124816138D01*
X141136183Y-124808175D01*
X141136451Y-124807997D01*
X141136769Y-124807935D01*
X141153729Y-124800958D01*
X141154109Y-124800705D01*
X141154558Y-124800616D01*
X141168632Y-124794783D01*
X141169220Y-124794390D01*
X141169917Y-124794248D01*
X141180719Y-124789718D01*
X141181940Y-124788894D01*
X141183382Y-124788588D01*
X141190532Y-124785516D01*
X141194923Y-124782499D01*
X141200099Y-124781229D01*
X141203212Y-124779775D01*
X141231606Y-124758928D01*
X141263317Y-124743599D01*
X141263419Y-124743522D01*
X141272099Y-124733780D01*
X141283373Y-124727217D01*
X141292153Y-124715690D01*
X141298326Y-124711448D01*
X141300197Y-124708568D01*
X141308636Y-124702372D01*
X141326819Y-124672365D01*
X141350425Y-124645871D01*
X141354716Y-124633549D01*
X141362620Y-124623172D01*
X141367249Y-124605644D01*
X141376416Y-124590517D01*
X141381693Y-124556086D01*
X141393439Y-124522358D01*
X141392688Y-124509331D01*
X141396019Y-124496719D01*
X141393568Y-124478605D01*
X141396230Y-124461238D01*
X141387976Y-124427596D01*
X141385911Y-124391787D01*
X141380233Y-124380042D01*
X141378484Y-124367111D01*
X141369796Y-124352187D01*
X141367274Y-124340562D01*
X141366263Y-124339104D01*
X141365064Y-124334217D01*
X141344625Y-124306378D01*
X141328990Y-124274035D01*
X141319249Y-124265356D01*
X141312685Y-124254080D01*
X141311081Y-124252263D01*
X141300396Y-124244125D01*
X141292742Y-124233088D01*
X141287804Y-124228318D01*
X141285423Y-124226786D01*
X141283772Y-124224488D01*
X141275783Y-124217023D01*
X141274718Y-124216363D01*
X141273981Y-124215352D01*
X141263228Y-124205450D01*
X141262578Y-124205054D01*
X141262128Y-124204442D01*
X141248892Y-124192363D01*
X141248447Y-124192094D01*
X141248137Y-124191676D01*
X141232704Y-124177678D01*
X141232356Y-124177469D01*
X141232113Y-124177143D01*
X141214766Y-124161484D01*
X141214472Y-124161309D01*
X141214269Y-124161037D01*
X141195294Y-124143977D01*
X141195029Y-124143820D01*
X141194844Y-124143573D01*
X141174523Y-124125369D01*
X141174293Y-124125233D01*
X141174132Y-124125019D01*
X141156729Y-124109479D01*
X141156656Y-124109436D01*
X141156603Y-124109366D01*
X141131906Y-124087334D01*
X141110735Y-124068422D01*
X141093035Y-124052565D01*
X141090987Y-124050721D01*
X141090713Y-124049449D01*
X141082270Y-124029946D01*
X141079597Y-124026080D01*
X141078480Y-124021511D01*
X141069681Y-124002632D01*
X141067210Y-123999260D01*
X141066118Y-123995226D01*
X141061596Y-123986114D01*
X141056622Y-123979665D01*
X141054121Y-123971916D01*
X141031871Y-123932000D01*
X141023390Y-123922031D01*
X141018423Y-123909923D01*
X140992895Y-123871437D01*
X140983970Y-123862452D01*
X140978302Y-123851124D01*
X140949028Y-123813430D01*
X140940296Y-123805862D01*
X140934433Y-123795901D01*
X140900948Y-123758361D01*
X140895784Y-123754467D01*
X140892294Y-123749022D01*
X140883281Y-123739659D01*
X140878094Y-123736048D01*
X140874490Y-123730860D01*
X140836427Y-123694148D01*
X140827151Y-123688190D01*
X140820289Y-123679564D01*
X140781012Y-123646317D01*
X140770837Y-123640678D01*
X140762988Y-123632091D01*
X140736273Y-123612452D01*
X161419483Y-123612452D01*
X161697527Y-124285371D01*
X162211921Y-124800664D01*
X162884354Y-125079882D01*
X163612452Y-125080517D01*
X164285371Y-124802473D01*
X164800664Y-124288079D01*
X165079882Y-123615646D01*
X165080517Y-122887548D01*
X164802473Y-122214629D01*
X164288079Y-121699336D01*
X163615646Y-121420118D01*
X162887548Y-121419483D01*
X162214629Y-121697527D01*
X161699336Y-122211921D01*
X161420118Y-122884354D01*
X161419483Y-123612452D01*
X140736273Y-123612452D01*
X140721670Y-123601717D01*
X140711289Y-123596861D01*
X140703005Y-123588943D01*
X140658823Y-123560846D01*
X140648962Y-123557020D01*
X140640879Y-123550205D01*
X140593008Y-123523792D01*
X140587205Y-123521947D01*
X140582410Y-123518189D01*
X140568020Y-123510908D01*
X140563026Y-123509515D01*
X140558851Y-123506443D01*
X140512185Y-123484588D01*
X140504007Y-123482573D01*
X140496983Y-123477922D01*
X140450344Y-123458835D01*
X140441596Y-123457133D01*
X140433916Y-123452609D01*
X140386463Y-123436034D01*
X140377650Y-123434795D01*
X140369755Y-123430684D01*
X140320644Y-123416365D01*
X140312278Y-123415632D01*
X140304648Y-123412127D01*
X140253038Y-123399807D01*
X140245526Y-123399522D01*
X140238563Y-123396688D01*
X140183609Y-123386111D01*
X140178530Y-123386142D01*
X140173768Y-123384368D01*
X140141904Y-123379215D01*
X140139483Y-123379302D01*
X140137202Y-123378489D01*
X140123599Y-123376487D01*
X140120857Y-123376625D01*
X140118258Y-123375745D01*
X140106376Y-123374191D01*
X140101984Y-123374483D01*
X140097775Y-123373178D01*
X140086654Y-123372015D01*
X140081412Y-123372499D01*
X140076338Y-123371097D01*
X140065024Y-123370266D01*
X140060147Y-123370869D01*
X140055379Y-123369698D01*
X140042913Y-123369143D01*
X140039333Y-123369691D01*
X140035799Y-123368902D01*
X140021224Y-123368563D01*
X140019022Y-123368948D01*
X140016831Y-123368489D01*
X139999190Y-123368310D01*
X139998135Y-123368509D01*
X139997081Y-123368295D01*
X139978921Y-123368225D01*
X139977925Y-123368419D01*
X139976933Y-123368224D01*
X139951414Y-123368277D01*
X139949105Y-123368741D01*
X139946786Y-123368318D01*
X139925069Y-123368663D01*
X139921394Y-123369455D01*
X139917683Y-123368862D01*
X139898735Y-123369581D01*
X139893684Y-123370786D01*
X139888535Y-123370124D01*
X139871325Y-123371303D01*
X139865480Y-123372888D01*
X139859452Y-123372329D01*
X139842947Y-123374051D01*
X139837300Y-123375800D01*
X139831397Y-123375459D01*
X139814566Y-123377808D01*
X139810063Y-123379376D01*
X139805295Y-123379234D01*
X139787104Y-123382294D01*
X139784416Y-123383315D01*
X139781542Y-123383278D01*
X139766482Y-123386073D01*
X139761733Y-123387969D01*
X139756618Y-123388057D01*
X139716258Y-123396808D01*
X139709446Y-123399768D01*
X139702034Y-123400219D01*
X139660139Y-123411237D01*
X139653961Y-123414248D01*
X139647126Y-123414942D01*
X139605673Y-123427653D01*
X139599228Y-123431123D01*
X139591982Y-123432175D01*
X139552948Y-123446007D01*
X139548523Y-123448641D01*
X139543454Y-123449534D01*
X139535652Y-123452567D01*
X139534473Y-123453318D01*
X139533097Y-123453572D01*
X139503489Y-123465362D01*
X139502722Y-123465860D01*
X139501826Y-123466030D01*
X139472769Y-123477781D01*
X139471913Y-123478343D01*
X139470908Y-123478540D01*
X139442136Y-123490377D01*
X139441218Y-123490988D01*
X139440137Y-123491207D01*
X139411386Y-123503253D01*
X139410437Y-123503893D01*
X139409313Y-123504129D01*
X139380315Y-123516508D01*
X139379357Y-123517163D01*
X139378226Y-123517409D01*
X139348716Y-123530244D01*
X139347778Y-123530895D01*
X139346663Y-123531145D01*
X139316375Y-123544560D01*
X139315477Y-123545192D01*
X139314404Y-123545440D01*
X139283073Y-123559559D01*
X139282233Y-123560158D01*
X139281232Y-123560396D01*
X139248590Y-123575343D01*
X139247820Y-123575899D01*
X139246897Y-123576124D01*
X139212681Y-123592023D01*
X139211996Y-123592524D01*
X139211171Y-123592729D01*
X139175114Y-123609702D01*
X139174505Y-123610152D01*
X139173771Y-123610338D01*
X139135607Y-123628510D01*
X139135075Y-123628906D01*
X139134432Y-123629072D01*
X139093896Y-123648567D01*
X139093441Y-123648909D01*
X139092893Y-123649052D01*
X139049719Y-123669992D01*
X139049332Y-123670285D01*
X139048865Y-123670408D01*
X139002786Y-123692919D01*
X139002462Y-123693165D01*
X139002070Y-123693270D01*
X138952820Y-123717475D01*
X138952555Y-123717678D01*
X138952234Y-123717764D01*
X138899548Y-123743786D01*
X138899328Y-123743955D01*
X138899062Y-123744027D01*
X138842676Y-123771990D01*
X138842503Y-123772123D01*
X138842290Y-123772181D01*
X138781935Y-123802209D01*
X138781837Y-123802284D01*
X138781718Y-123802317D01*
X138766334Y-123809986D01*
X138766333Y-123809986D01*
X138714519Y-123835769D01*
X138667288Y-123859170D01*
X138623510Y-123880738D01*
X138583044Y-123900531D01*
X138546055Y-123918463D01*
X138511689Y-123934942D01*
X138480045Y-123949922D01*
X138450176Y-123963849D01*
X138422265Y-123976640D01*
X138395552Y-123988651D01*
X138369934Y-123999935D01*
X138344888Y-124010733D01*
X138319746Y-124021342D01*
X138294397Y-124031818D01*
X138268163Y-124042454D01*
X138240780Y-124053369D01*
X138235029Y-124055643D01*
X138234627Y-124055902D01*
X138234153Y-124055990D01*
X138216696Y-124062945D01*
X138215668Y-124063612D01*
X138214467Y-124063843D01*
X138198505Y-124070335D01*
X138197345Y-124071099D01*
X138195981Y-124071373D01*
X138182062Y-124077168D01*
X138180481Y-124078229D01*
X138178614Y-124078625D01*
X138167285Y-124083490D01*
X138164644Y-124085305D01*
X138161523Y-124086029D01*
X138153328Y-124089732D01*
X138147452Y-124093934D01*
X138142632Y-124095144D01*
X138141526Y-124095965D01*
X138138731Y-124096758D01*
X138134218Y-124099066D01*
X138117120Y-124112586D01*
X138101995Y-124111763D01*
X138095846Y-124112642D01*
X138087990Y-124115406D01*
X138079662Y-124115361D01*
X138070066Y-124117216D01*
X138015011Y-124126467D01*
X137965694Y-124131402D01*
X137915762Y-124133050D01*
X137860192Y-124131221D01*
X137857662Y-124131043D01*
X137804692Y-124126602D01*
X137747276Y-124120892D01*
X137684758Y-124113838D01*
X137617677Y-124105489D01*
X137546135Y-124095852D01*
X137470571Y-124084979D01*
X137391257Y-124072910D01*
X137308001Y-124059612D01*
X137221673Y-124045222D01*
X137131734Y-124029648D01*
X137038974Y-124013024D01*
X136943410Y-123995350D01*
X136845168Y-123976646D01*
X136744295Y-123956916D01*
X136641250Y-123936246D01*
X136536308Y-123914684D01*
X136429068Y-123892143D01*
X136320439Y-123868805D01*
X136216963Y-123846116D01*
X136186618Y-123839396D01*
X136185865Y-123839380D01*
X136185175Y-123839080D01*
X136158968Y-123833397D01*
X136156578Y-123833356D01*
X136154370Y-123832433D01*
X136132033Y-123827916D01*
X136127121Y-123827900D01*
X136122534Y-123826137D01*
X136103632Y-123822879D01*
X136094916Y-123823103D01*
X136086628Y-123820395D01*
X136070727Y-123818487D01*
X136056429Y-123819589D01*
X136042475Y-123816304D01*
X136029142Y-123815839D01*
X136007446Y-123819373D01*
X135985578Y-123817155D01*
X135974379Y-123818225D01*
X135964552Y-123821175D01*
X135963423Y-123821065D01*
X135943519Y-123827134D01*
X135914685Y-123829456D01*
X135905185Y-123832155D01*
X135891894Y-123838958D01*
X135887316Y-123839465D01*
X135867755Y-123850229D01*
X135849112Y-123855825D01*
X135848925Y-123855978D01*
X135838321Y-123859211D01*
X135830086Y-123863628D01*
X135807713Y-123882043D01*
X135788760Y-123891744D01*
X135785631Y-123895421D01*
X135772731Y-123902520D01*
X135765327Y-123908749D01*
X135748451Y-123929832D01*
X135727172Y-123946459D01*
X135720165Y-123954592D01*
X135711531Y-123969855D01*
X135698905Y-123982021D01*
X135691862Y-123992150D01*
X135688042Y-124000909D01*
X135681546Y-124007914D01*
X135674031Y-124020132D01*
X135672709Y-124023697D01*
X135670190Y-124026538D01*
X135661771Y-124040937D01*
X135661644Y-124041303D01*
X135661387Y-124041595D01*
X135658452Y-124046641D01*
X135657824Y-124048470D01*
X135656560Y-124049936D01*
X135631006Y-124095039D01*
X135629725Y-124098915D01*
X135627134Y-124102068D01*
X135603179Y-124146812D01*
X135601953Y-124150845D01*
X135599359Y-124154165D01*
X135577279Y-124197977D01*
X135576074Y-124202322D01*
X135573393Y-124205948D01*
X135553456Y-124248257D01*
X135552234Y-124253166D01*
X135549350Y-124257318D01*
X135531829Y-124297555D01*
X135530568Y-124303347D01*
X135527358Y-124308331D01*
X135512521Y-124345926D01*
X135511371Y-124352265D01*
X135508089Y-124357810D01*
X135498582Y-124384855D01*
X135497353Y-124393472D01*
X135493310Y-124401177D01*
X135482708Y-124437117D01*
X135481616Y-124449152D01*
X135476777Y-124460224D01*
X135469429Y-124493763D01*
X135469155Y-124507946D01*
X135464579Y-124521377D01*
X135460465Y-124552360D01*
X135461556Y-124569296D01*
X135457718Y-124585827D01*
X135456819Y-124614095D01*
X135460197Y-124634436D01*
X135458012Y-124654940D01*
X135460309Y-124680340D01*
X135467451Y-124704580D01*
X135468554Y-124729827D01*
X135474029Y-124752200D01*
X135483077Y-124771603D01*
X135483168Y-124773422D01*
X135487699Y-124782983D01*
X135493937Y-124810057D01*
X135502571Y-124829247D01*
X135520891Y-124854956D01*
X135523595Y-124864038D01*
X135529647Y-124871491D01*
X135539182Y-124891609D01*
X135550957Y-124907458D01*
X135569378Y-124924127D01*
X135569863Y-124925100D01*
X135572529Y-124927418D01*
X135578472Y-124935758D01*
X135585303Y-124940031D01*
X135606040Y-124965568D01*
X135620935Y-124977923D01*
X135640577Y-124988553D01*
X135647936Y-124995212D01*
X135652280Y-124996762D01*
X135668559Y-125010917D01*
X135675776Y-125015043D01*
X135688699Y-125019369D01*
X135699670Y-125027458D01*
X135706619Y-125030721D01*
X135716919Y-125033271D01*
X135725837Y-125039023D01*
X135733414Y-125042019D01*
X135743793Y-125043910D01*
X135752992Y-125049065D01*
X135761444Y-125051814D01*
X135771053Y-125052954D01*
X135779750Y-125057197D01*
X135789321Y-125059718D01*
X135797667Y-125060229D01*
X135805354Y-125063522D01*
X135816289Y-125065834D01*
X135823221Y-125065917D01*
X135829701Y-125068386D01*
X135842247Y-125070508D01*
X135847833Y-125070348D01*
X135853122Y-125072166D01*
X135867521Y-125074119D01*
X135871960Y-125073845D01*
X135876201Y-125075181D01*
X135892701Y-125076982D01*
X135896155Y-125076679D01*
X135899481Y-125077652D01*
X135918324Y-125079322D01*
X135921009Y-125079031D01*
X135923615Y-125079749D01*
X135945049Y-125081307D01*
X135947126Y-125081049D01*
X135949151Y-125081580D01*
X135973418Y-125083045D01*
X135975022Y-125082825D01*
X135976590Y-125083221D01*
X136003937Y-125084612D01*
X136005169Y-125084431D01*
X136006378Y-125084727D01*
X136037050Y-125086063D01*
X136037982Y-125085920D01*
X136038901Y-125086139D01*
X136073143Y-125087441D01*
X136073855Y-125087327D01*
X136074558Y-125087492D01*
X136112615Y-125088778D01*
X136113152Y-125088690D01*
X136113681Y-125088812D01*
X136155797Y-125090101D01*
X136156191Y-125090035D01*
X136156581Y-125090124D01*
X136203001Y-125091436D01*
X136203286Y-125091388D01*
X136203570Y-125091452D01*
X136254541Y-125092806D01*
X136254669Y-125092784D01*
X136254793Y-125092812D01*
X136263694Y-125093042D01*
X136263695Y-125093042D01*
X136346953Y-125095319D01*
X136424762Y-125097729D01*
X136498349Y-125100314D01*
X136568193Y-125103098D01*
X136634574Y-125106097D01*
X136697733Y-125109318D01*
X136758268Y-125112795D01*
X136816400Y-125116533D01*
X136872691Y-125120564D01*
X136927369Y-125124895D01*
X136981095Y-125129566D01*
X137034579Y-125134633D01*
X137051134Y-125136286D01*
X137135838Y-125145389D01*
X137216339Y-125155153D01*
X137294163Y-125165788D01*
X137369583Y-125177356D01*
X137443425Y-125190002D01*
X137516237Y-125203837D01*
X137588699Y-125219002D01*
X137661410Y-125235630D01*
X137734988Y-125253869D01*
X137810115Y-125273890D01*
X137887321Y-125295832D01*
X137967237Y-125319864D01*
X138050267Y-125346089D01*
X138137318Y-125374770D01*
X138206272Y-125398231D01*
X138236690Y-125408912D01*
X138264601Y-125419145D01*
X138290695Y-125429192D01*
X138315641Y-125439322D01*
X138340239Y-125449865D01*
X138365115Y-125461110D01*
X138391125Y-125473468D01*
X138418753Y-125487195D01*
X138448633Y-125502634D01*
X138481295Y-125520075D01*
X138517153Y-125539744D01*
X138556807Y-125561969D01*
X138600542Y-125586890D01*
X138614235Y-125594761D01*
X138614237Y-125594762D01*
X138614303Y-125594800D01*
X132789907Y-125594800D01*
X131855723Y-125408979D01*
X131097588Y-124902410D01*
X130591021Y-124144277D01*
X130485235Y-123612452D01*
X130919483Y-123612452D01*
X131197527Y-124285371D01*
X131711921Y-124800664D01*
X132384354Y-125079882D01*
X133112452Y-125080517D01*
X133785371Y-124802473D01*
X134300664Y-124288079D01*
X134579882Y-123615646D01*
X134580517Y-122887548D01*
X134302473Y-122214629D01*
X133788079Y-121699336D01*
X133115646Y-121420118D01*
X132387548Y-121419483D01*
X131714629Y-121697527D01*
X131199336Y-122211921D01*
X130920118Y-122884354D01*
X130919483Y-123612452D01*
X130485235Y-123612452D01*
X130405200Y-123210092D01*
X130405200Y-119789907D01*
X130419750Y-119716760D01*
X130438579Y-119688580D01*
X130466761Y-119669749D01*
X130539907Y-119655200D01*
X145093087Y-119655200D01*
X144890470Y-119752637D01*
X144500148Y-120160284D01*
X144380269Y-120468455D01*
X144380269Y-120074000D01*
X144357244Y-119951635D01*
X144284927Y-119839251D01*
X144174583Y-119763856D01*
X144043600Y-119737331D01*
X142316400Y-119737331D01*
X142194035Y-119760356D01*
X142081651Y-119832673D01*
X142006256Y-119943017D01*
X141979731Y-120074000D01*
X141979731Y-122106000D01*
X142002756Y-122228365D01*
X142075073Y-122340749D01*
X142185417Y-122416144D01*
X142316400Y-122442669D01*
X144043600Y-122442669D01*
X144165965Y-122419644D01*
X144278349Y-122347327D01*
X144353744Y-122236983D01*
X144380269Y-122106000D01*
X144380269Y-121711545D01*
X144500148Y-122019716D01*
X144890470Y-122427363D01*
X145319618Y-122633737D01*
X145542200Y-122531950D01*
X145542200Y-121267800D01*
X145522200Y-121267800D01*
X145522200Y-120912200D01*
X145542200Y-120912200D01*
X145542200Y-120892200D01*
X145897800Y-120892200D01*
X145897800Y-120912200D01*
X145917800Y-120912200D01*
X145917800Y-121267800D01*
X145897800Y-121267800D01*
X145897800Y-122531950D01*
X146120382Y-122633737D01*
X146549530Y-122427363D01*
X146939852Y-122019716D01*
X147122286Y-121550736D01*
X147157073Y-121725621D01*
X147415856Y-122112918D01*
X147803153Y-122371701D01*
X148260000Y-122462574D01*
X148716847Y-122371701D01*
X149104144Y-122112918D01*
X149362927Y-121725621D01*
X149453800Y-121268774D01*
X149453800Y-120911226D01*
X149606200Y-120911226D01*
X149606200Y-121268774D01*
X149697073Y-121725621D01*
X149955856Y-122112918D01*
X150343153Y-122371701D01*
X150800000Y-122462574D01*
X151256847Y-122371701D01*
X151644144Y-122112918D01*
X151902927Y-121725621D01*
X151993800Y-121268774D01*
X151993800Y-120911226D01*
X151902927Y-120454379D01*
X151644144Y-120067082D01*
X151256847Y-119808299D01*
X150800000Y-119717426D01*
X150343153Y-119808299D01*
X149955856Y-120067082D01*
X149697073Y-120454379D01*
X149606200Y-120911226D01*
X149453800Y-120911226D01*
X149362927Y-120454379D01*
X149104144Y-120067082D01*
X148716847Y-119808299D01*
X148260000Y-119717426D01*
X147803153Y-119808299D01*
X147415856Y-120067082D01*
X147157073Y-120454379D01*
X147122286Y-120629264D01*
X146939852Y-120160284D01*
X146549530Y-119752637D01*
X146346913Y-119655200D01*
X152170000Y-119655200D01*
X152325063Y-119624356D01*
X152456520Y-119536520D01*
X152544356Y-119405063D01*
X152575200Y-119250000D01*
X152575200Y-112500000D01*
X152544356Y-112344937D01*
X152456520Y-112213480D01*
X152325063Y-112125644D01*
X152170000Y-112094800D01*
X152039901Y-112094800D01*
X152050269Y-112043600D01*
X152050269Y-110316400D01*
X152027244Y-110194035D01*
X151954927Y-110081651D01*
X151844583Y-110006256D01*
X151713600Y-109979731D01*
X149986400Y-109979731D01*
X149864035Y-110002756D01*
X149751651Y-110075073D01*
X149676256Y-110185417D01*
X149649731Y-110316400D01*
X149649731Y-112043600D01*
X149659365Y-112094800D01*
X149071788Y-112094800D01*
X149177532Y-112024144D01*
X149436315Y-111636847D01*
X149527188Y-111180000D01*
X149436315Y-110723153D01*
X149177532Y-110335856D01*
X148790235Y-110077073D01*
X148333388Y-109986200D01*
X148286612Y-109986200D01*
X147829765Y-110077073D01*
X147442468Y-110335856D01*
X147405200Y-110391632D01*
X147405200Y-109428368D01*
X147442468Y-109484144D01*
X147829765Y-109742927D01*
X148286612Y-109833800D01*
X148333388Y-109833800D01*
X148790235Y-109742927D01*
X149177532Y-109484144D01*
X149436315Y-109096847D01*
X149527188Y-108640000D01*
X149436315Y-108183153D01*
X149177532Y-107795856D01*
X148790235Y-107537073D01*
X148487802Y-107476915D01*
X148487802Y-107390806D01*
X148710385Y-107491351D01*
X149212354Y-107232220D01*
X149576948Y-106800719D01*
X149580000Y-106793350D01*
X149583052Y-106800719D01*
X149947646Y-107232220D01*
X150449615Y-107491351D01*
X150672198Y-107390806D01*
X150672198Y-107476915D01*
X150369765Y-107537073D01*
X149982468Y-107795856D01*
X149723685Y-108183153D01*
X149632812Y-108640000D01*
X149723685Y-109096847D01*
X149982468Y-109484144D01*
X150369765Y-109742927D01*
X150826612Y-109833800D01*
X150873388Y-109833800D01*
X151330235Y-109742927D01*
X151717532Y-109484144D01*
X151976315Y-109096847D01*
X152067188Y-108640000D01*
X151976315Y-108183153D01*
X151717532Y-107795856D01*
X151330235Y-107537073D01*
X151027802Y-107476915D01*
X151027802Y-107390806D01*
X151250385Y-107491351D01*
X151752354Y-107232220D01*
X152116948Y-106800719D01*
X152241337Y-106500382D01*
X152139550Y-106277800D01*
X151027800Y-106277800D01*
X151027800Y-106297800D01*
X150672200Y-106297800D01*
X150672200Y-106277800D01*
X148487800Y-106277800D01*
X148487800Y-106297800D01*
X148132200Y-106297800D01*
X148132200Y-106277800D01*
X148112200Y-106277800D01*
X148112200Y-105922200D01*
X148132200Y-105922200D01*
X148132200Y-103737800D01*
X148487800Y-103737800D01*
X148487800Y-105922200D01*
X150672200Y-105922200D01*
X150672200Y-103737800D01*
X151027800Y-103737800D01*
X151027800Y-105922200D01*
X152139550Y-105922200D01*
X152241337Y-105699618D01*
X152116948Y-105399281D01*
X151752354Y-104967780D01*
X151485457Y-104830000D01*
X151752354Y-104692220D01*
X152116948Y-104260719D01*
X152241337Y-103960382D01*
X152139550Y-103737800D01*
X151027800Y-103737800D01*
X150672200Y-103737800D01*
X148487800Y-103737800D01*
X148132200Y-103737800D01*
X148112200Y-103737800D01*
X148112200Y-103382200D01*
X148132200Y-103382200D01*
X148132200Y-103362200D01*
X148487800Y-103362200D01*
X148487800Y-103382200D01*
X150672200Y-103382200D01*
X150672200Y-103362200D01*
X151027800Y-103362200D01*
X151027800Y-103382200D01*
X152139550Y-103382200D01*
X152241337Y-103159618D01*
X152116948Y-102859281D01*
X151752354Y-102427780D01*
X151250385Y-102168649D01*
X151027802Y-102269194D01*
X151027802Y-102183085D01*
X151330235Y-102122927D01*
X151717532Y-101864144D01*
X151976315Y-101476847D01*
X152067188Y-101020000D01*
X151976315Y-100563153D01*
X151717532Y-100175856D01*
X151330235Y-99917073D01*
X150873388Y-99826200D01*
X150826612Y-99826200D01*
X150369765Y-99917073D01*
X149982468Y-100175856D01*
X149723685Y-100563153D01*
X149632812Y-101020000D01*
X149723685Y-101476847D01*
X149982468Y-101864144D01*
X150369765Y-102122927D01*
X150672198Y-102183085D01*
X150672198Y-102269194D01*
X150449615Y-102168649D01*
X149947646Y-102427780D01*
X149583052Y-102859281D01*
X149580000Y-102866650D01*
X149576948Y-102859281D01*
X149212354Y-102427780D01*
X148710385Y-102168649D01*
X148487802Y-102269194D01*
X148487802Y-102183085D01*
X148790235Y-102122927D01*
X149177532Y-101864144D01*
X149436315Y-101476847D01*
X149527188Y-101020000D01*
X149436315Y-100563153D01*
X149177532Y-100175856D01*
X148790235Y-99917073D01*
X148333388Y-99826200D01*
X148286612Y-99826200D01*
X147829765Y-99917073D01*
X147442468Y-100175856D01*
X147405200Y-100231632D01*
X147405200Y-99268368D01*
X147442468Y-99324144D01*
X147829765Y-99582927D01*
X148286612Y-99673800D01*
X148333388Y-99673800D01*
X148790235Y-99582927D01*
X149177532Y-99324144D01*
X149436315Y-98936847D01*
X149527188Y-98480000D01*
X149632812Y-98480000D01*
X149723685Y-98936847D01*
X149982468Y-99324144D01*
X150369765Y-99582927D01*
X150826612Y-99673800D01*
X150873388Y-99673800D01*
X151330235Y-99582927D01*
X151717532Y-99324144D01*
X151765139Y-99252894D01*
X151834739Y-99420923D01*
X151999078Y-99585261D01*
X152213796Y-99674200D01*
X152456150Y-99674200D01*
X152602200Y-99528150D01*
X152602200Y-98667800D01*
X152582200Y-98667800D01*
X152582200Y-98312200D01*
X152602200Y-98312200D01*
X152602200Y-97451850D01*
X152456150Y-97305800D01*
X152213796Y-97305800D01*
X151999078Y-97394739D01*
X151834739Y-97559077D01*
X151770253Y-97714759D01*
X151717532Y-97635856D01*
X151330235Y-97377073D01*
X150873388Y-97286200D01*
X150826612Y-97286200D01*
X150369765Y-97377073D01*
X149982468Y-97635856D01*
X149723685Y-98023153D01*
X149632812Y-98480000D01*
X149527188Y-98480000D01*
X149436315Y-98023153D01*
X149177532Y-97635856D01*
X148790235Y-97377073D01*
X148333388Y-97286200D01*
X148286612Y-97286200D01*
X147829765Y-97377073D01*
X147442468Y-97635856D01*
X147405200Y-97691632D01*
X147405200Y-96750000D01*
X147374356Y-96594937D01*
X147286520Y-96463480D01*
X147155063Y-96375644D01*
X147000000Y-96344800D01*
X130539907Y-96344800D01*
X130466761Y-96330251D01*
X130438579Y-96311420D01*
X130419750Y-96283240D01*
X130405200Y-96210093D01*
X130405200Y-94600000D01*
X139697426Y-94600000D01*
X139799899Y-95115168D01*
X140091719Y-95551907D01*
X140528458Y-95843727D01*
X141043626Y-95946200D01*
X141096374Y-95946200D01*
X141611542Y-95843727D01*
X142048281Y-95551907D01*
X142340101Y-95115168D01*
X142442574Y-94600000D01*
X142340101Y-94084832D01*
X142048281Y-93648093D01*
X141695944Y-93412669D01*
X142086000Y-93412669D01*
X142208365Y-93389644D01*
X142320749Y-93317327D01*
X142396144Y-93206983D01*
X142422669Y-93076000D01*
X142422669Y-91044000D01*
X142399644Y-90921635D01*
X142327327Y-90809251D01*
X142216983Y-90733856D01*
X142086000Y-90707331D01*
X140054000Y-90707331D01*
X139931635Y-90730356D01*
X139819251Y-90802673D01*
X139743856Y-90913017D01*
X139717331Y-91044000D01*
X139717331Y-93076000D01*
X139740356Y-93198365D01*
X139812673Y-93310749D01*
X139923017Y-93386144D01*
X140054000Y-93412669D01*
X140444056Y-93412669D01*
X140091719Y-93648093D01*
X139799899Y-94084832D01*
X139697426Y-94600000D01*
X130405200Y-94600000D01*
X130405200Y-93112452D01*
X130919483Y-93112452D01*
X131197527Y-93785371D01*
X131711921Y-94300664D01*
X132384354Y-94579882D01*
X133112452Y-94580517D01*
X133785371Y-94302473D01*
X134300664Y-93788079D01*
X134579882Y-93115646D01*
X134580517Y-92387548D01*
X134302473Y-91714629D01*
X133788079Y-91199336D01*
X133115646Y-90920118D01*
X132387548Y-90919483D01*
X131714629Y-91197527D01*
X131199336Y-91711921D01*
X130920118Y-92384354D01*
X130919483Y-93112452D01*
X130405200Y-93112452D01*
X130405200Y-92789908D01*
X130591021Y-91855723D01*
X131097588Y-91097590D01*
X131855723Y-90591021D01*
X132789907Y-90405200D01*
X157850322Y-90405200D01*
X157624618Y-90630511D01*
X157624618Y-90630511D01*
G37*
X157624618Y-90630511D02*
X157556897Y-90793600D01*
X157486669Y-90793600D01*
X157486669Y-90750000D01*
X157463644Y-90627635D01*
X157391327Y-90515251D01*
X157280983Y-90439856D01*
X157150000Y-90413331D01*
X155950000Y-90413331D01*
X155827635Y-90436356D01*
X155715251Y-90508673D01*
X155639856Y-90619017D01*
X155613331Y-90750000D01*
X155613331Y-91411933D01*
X155264172Y-91761092D01*
X155286669Y-91650000D01*
X155286669Y-90750000D01*
X155263644Y-90627635D01*
X155191327Y-90515251D01*
X155080983Y-90439856D01*
X154950000Y-90413331D01*
X153750000Y-90413331D01*
X153627635Y-90436356D01*
X153515251Y-90508673D01*
X153439856Y-90619017D01*
X153413331Y-90750000D01*
X153413331Y-91650000D01*
X153436356Y-91772365D01*
X153508673Y-91884749D01*
X153619017Y-91960144D01*
X153663166Y-91969085D01*
X153652085Y-91995771D01*
X153651851Y-92263547D01*
X153754109Y-92511029D01*
X153776679Y-92533638D01*
X153373726Y-92533638D01*
X153240691Y-92560100D01*
X153218203Y-92564573D01*
X153086357Y-92652670D01*
X153000477Y-92738550D01*
X152768898Y-92738348D01*
X152521416Y-92840606D01*
X152331905Y-93029787D01*
X152229216Y-93277090D01*
X152228982Y-93544866D01*
X152331240Y-93792348D01*
X152520421Y-93981859D01*
X152767724Y-94084548D01*
X152870626Y-94084638D01*
X152492632Y-94462632D01*
X152404535Y-94594477D01*
X152373600Y-94750000D01*
X152373600Y-95353331D01*
X152330000Y-95353331D01*
X152207635Y-95376356D01*
X152095251Y-95448673D01*
X152019856Y-95559017D01*
X151993331Y-95690000D01*
X151993331Y-96890000D01*
X152016356Y-97012365D01*
X152088673Y-97124749D01*
X152199017Y-97200144D01*
X152330000Y-97226669D01*
X153127759Y-97226669D01*
X153127759Y-97305800D01*
X153103850Y-97305800D01*
X152957800Y-97451850D01*
X152957800Y-98312200D01*
X152977800Y-98312200D01*
X152977800Y-98667800D01*
X152957800Y-98667800D01*
X152957800Y-99528150D01*
X153103850Y-99674200D01*
X153127759Y-99674200D01*
X153127759Y-99832137D01*
X153000661Y-99959235D01*
X152912564Y-100091080D01*
X152881629Y-100246603D01*
X152881629Y-102117932D01*
X152912564Y-102273455D01*
X152981093Y-102376015D01*
X153000661Y-102405300D01*
X154511910Y-103916549D01*
X154643755Y-104004646D01*
X154799278Y-104035581D01*
X155356356Y-104035581D01*
X155511879Y-104004646D01*
X155579776Y-103959278D01*
X155797706Y-103959469D01*
X156603089Y-104764853D01*
X156514662Y-104728135D01*
X156246886Y-104727901D01*
X155999404Y-104830159D01*
X155809893Y-105019340D01*
X155707204Y-105266643D01*
X155706994Y-105507222D01*
X155584679Y-105557762D01*
X155395168Y-105746943D01*
X155292479Y-105994246D01*
X155292245Y-106262022D01*
X155394503Y-106509504D01*
X155583684Y-106699015D01*
X155789110Y-106784315D01*
X155736400Y-106836934D01*
X155633711Y-107084237D01*
X155633477Y-107352013D01*
X155735735Y-107599495D01*
X155924916Y-107789006D01*
X156172219Y-107891695D01*
X156439995Y-107891929D01*
X156459463Y-107883885D01*
X156491691Y-107961883D01*
X156529843Y-108000101D01*
X156492356Y-108037523D01*
X156459617Y-108116366D01*
X156441169Y-108108706D01*
X156173393Y-108108472D01*
X155925911Y-108210730D01*
X155736400Y-108399911D01*
X155633711Y-108647214D01*
X155633477Y-108914990D01*
X155735735Y-109162472D01*
X155789330Y-109216160D01*
X155584679Y-109300721D01*
X155395168Y-109489902D01*
X155292479Y-109737205D01*
X155292245Y-110004981D01*
X155394503Y-110252463D01*
X155448098Y-110306151D01*
X155243448Y-110390711D01*
X155053937Y-110579892D01*
X154951248Y-110827195D01*
X154951014Y-111094971D01*
X155053272Y-111342453D01*
X155106867Y-111396141D01*
X154902216Y-111480702D01*
X154712705Y-111669883D01*
X154610016Y-111917186D01*
X154609782Y-112184962D01*
X154712040Y-112432444D01*
X154765634Y-112486132D01*
X154560984Y-112570692D01*
X154371473Y-112759873D01*
X154268784Y-113007176D01*
X154268550Y-113274952D01*
X154370808Y-113522434D01*
X154424403Y-113576122D01*
X154219752Y-113660683D01*
X154030241Y-113849864D01*
X153927552Y-114097167D01*
X153927318Y-114364943D01*
X154029576Y-114612425D01*
X154083171Y-114666113D01*
X153878520Y-114750674D01*
X153689009Y-114939855D01*
X153586320Y-115187158D01*
X153586086Y-115454934D01*
X153688344Y-115702416D01*
X153877525Y-115891927D01*
X154001019Y-115943206D01*
X154000810Y-116182537D01*
X154103068Y-116430019D01*
X154292249Y-116619530D01*
X154539552Y-116722219D01*
X154807328Y-116722453D01*
X155054810Y-116620195D01*
X155083372Y-116591683D01*
X155083372Y-117130829D01*
X155114307Y-117286352D01*
X155159675Y-117354249D01*
X155159454Y-117607029D01*
X155261712Y-117854511D01*
X155450893Y-118044022D01*
X155698196Y-118146711D01*
X155965972Y-118146945D01*
X156213454Y-118044687D01*
X156402965Y-117855506D01*
X156505654Y-117608203D01*
X156505684Y-117573588D01*
X156668704Y-117736608D01*
X156668502Y-117968188D01*
X156770760Y-118215670D01*
X156959941Y-118405181D01*
X157207244Y-118507870D01*
X157475020Y-118508104D01*
X157722502Y-118405846D01*
X157727397Y-118400960D01*
X157795692Y-118469374D01*
X158042995Y-118572063D01*
X158310771Y-118572297D01*
X158558253Y-118470039D01*
X158747764Y-118280858D01*
X158773600Y-118218638D01*
X158773600Y-118494561D01*
X158639706Y-118628222D01*
X158537017Y-118875525D01*
X158536783Y-119143301D01*
X158639041Y-119390783D01*
X158828222Y-119580294D01*
X159075525Y-119682983D01*
X159343301Y-119683217D01*
X159590783Y-119580959D01*
X159780294Y-119391778D01*
X159882983Y-119144475D01*
X159883217Y-118876699D01*
X159780959Y-118629217D01*
X159591778Y-118439706D01*
X159586400Y-118437473D01*
X159586400Y-117505387D01*
X159750294Y-117341778D01*
X159852983Y-117094475D01*
X159853217Y-116826699D01*
X159750959Y-116579217D01*
X159561778Y-116389706D01*
X159314475Y-116287017D01*
X159046699Y-116286783D01*
X158961669Y-116321917D01*
X158961669Y-116100000D01*
X158943625Y-116004105D01*
X158961669Y-115915000D01*
X158961669Y-115685000D01*
X158945088Y-115596880D01*
X158961669Y-115515000D01*
X158961669Y-115285000D01*
X158945088Y-115196880D01*
X158961669Y-115115000D01*
X158961669Y-114885000D01*
X158945088Y-114796880D01*
X158961669Y-114715000D01*
X158961669Y-114485000D01*
X158945088Y-114396880D01*
X158961669Y-114315000D01*
X158961669Y-114085000D01*
X158945088Y-113996880D01*
X158961669Y-113915000D01*
X158961669Y-113685000D01*
X158945088Y-113596880D01*
X158961669Y-113515000D01*
X158961669Y-113285000D01*
X158945088Y-113196880D01*
X158961669Y-113115000D01*
X158961669Y-112885000D01*
X158945088Y-112796880D01*
X158961669Y-112715000D01*
X158961669Y-112485000D01*
X158945088Y-112396880D01*
X158961669Y-112315000D01*
X158961669Y-112085000D01*
X158945088Y-111996880D01*
X158961669Y-111915000D01*
X158961669Y-111685000D01*
X158945088Y-111596880D01*
X158961669Y-111515000D01*
X158961669Y-111285000D01*
X158945088Y-111196880D01*
X158961669Y-111115000D01*
X158961669Y-110885000D01*
X158945088Y-110796880D01*
X158961669Y-110715000D01*
X158961669Y-110485000D01*
X158945088Y-110396880D01*
X158961669Y-110315000D01*
X158961669Y-110085000D01*
X158945088Y-109996880D01*
X158961669Y-109915000D01*
X158961669Y-109685000D01*
X158945088Y-109596880D01*
X158961669Y-109515000D01*
X158961669Y-109285000D01*
X158945088Y-109196880D01*
X158961669Y-109115000D01*
X158961669Y-108885000D01*
X158945088Y-108796880D01*
X158961669Y-108715000D01*
X158961669Y-108485000D01*
X158945088Y-108396880D01*
X158961669Y-108315000D01*
X158961669Y-108085000D01*
X158945088Y-107996880D01*
X158961669Y-107915000D01*
X158961669Y-107685000D01*
X158945088Y-107596880D01*
X158961669Y-107515000D01*
X158961669Y-107285000D01*
X158945088Y-107196880D01*
X158961669Y-107115000D01*
X158961669Y-106885000D01*
X158945088Y-106796880D01*
X158961669Y-106715000D01*
X158961669Y-106485000D01*
X158945088Y-106396880D01*
X158961669Y-106315000D01*
X158961669Y-106206400D01*
X159531067Y-106206400D01*
X159686590Y-106175465D01*
X159818435Y-106087368D01*
X160232557Y-105673246D01*
X160251780Y-105644477D01*
X160320654Y-105541401D01*
X160338331Y-105452531D01*
X160338331Y-105515000D01*
X160354912Y-105603120D01*
X160338331Y-105685000D01*
X160338331Y-105915000D01*
X160351793Y-105986543D01*
X160344077Y-105989739D01*
X160179739Y-106154078D01*
X160090800Y-106368796D01*
X160090800Y-106396450D01*
X160214083Y-106519733D01*
X160179739Y-106554078D01*
X160090800Y-106768796D01*
X160090800Y-106796450D01*
X160094350Y-106800000D01*
X160090800Y-106803550D01*
X160090800Y-106831204D01*
X160160718Y-107000000D01*
X160090800Y-107168796D01*
X160090800Y-107196450D01*
X160094350Y-107200000D01*
X160090800Y-107203550D01*
X160090800Y-107231204D01*
X160160718Y-107400000D01*
X160090800Y-107568796D01*
X160090800Y-107596450D01*
X160094350Y-107600000D01*
X160090800Y-107603550D01*
X160090800Y-107631204D01*
X160160718Y-107800000D01*
X160090800Y-107968796D01*
X160090800Y-107996450D01*
X160094350Y-108000000D01*
X160090800Y-108003550D01*
X160090800Y-108031204D01*
X160160718Y-108200000D01*
X160090800Y-108368796D01*
X160090800Y-108396450D01*
X160094350Y-108400000D01*
X160090800Y-108403550D01*
X160090800Y-108431204D01*
X160160718Y-108600000D01*
X160090800Y-108768796D01*
X160090800Y-108796450D01*
X160094350Y-108800000D01*
X160090800Y-108803550D01*
X160090800Y-108831204D01*
X160160718Y-109000000D01*
X160090800Y-109168796D01*
X160090800Y-109196450D01*
X160094350Y-109200000D01*
X160090800Y-109203550D01*
X160090800Y-109231204D01*
X160179739Y-109445922D01*
X160214083Y-109480267D01*
X160090800Y-109603550D01*
X160090800Y-109631204D01*
X160179739Y-109845922D01*
X160344077Y-110010261D01*
X160352740Y-110013849D01*
X160338331Y-110085000D01*
X160338331Y-110315000D01*
X160354912Y-110403120D01*
X160338331Y-110485000D01*
X160338331Y-110715000D01*
X160354912Y-110803120D01*
X160338331Y-110885000D01*
X160338331Y-111115000D01*
X160354912Y-111203120D01*
X160338331Y-111285000D01*
X160338331Y-111515000D01*
X160354912Y-111603120D01*
X160338331Y-111685000D01*
X160338331Y-111915000D01*
X160354912Y-112003120D01*
X160338331Y-112085000D01*
X160338331Y-112315000D01*
X160354912Y-112403120D01*
X160338331Y-112485000D01*
X160338331Y-112715000D01*
X160354912Y-112803120D01*
X160338331Y-112885000D01*
X160338331Y-113115000D01*
X160354912Y-113203120D01*
X160338331Y-113285000D01*
X160338331Y-113515000D01*
X160354912Y-113603120D01*
X160338331Y-113685000D01*
X160338331Y-113915000D01*
X160354912Y-114003120D01*
X160338331Y-114085000D01*
X160338331Y-114315000D01*
X160354912Y-114403120D01*
X160338331Y-114485000D01*
X160338331Y-114715000D01*
X160354912Y-114803120D01*
X160338331Y-114885000D01*
X160338331Y-115115000D01*
X160354912Y-115203120D01*
X160338331Y-115285000D01*
X160338331Y-115515000D01*
X160354912Y-115603120D01*
X160338331Y-115685000D01*
X160338331Y-115915000D01*
X160356375Y-116010895D01*
X160338331Y-116100000D01*
X160338331Y-116450000D01*
X160361356Y-116572365D01*
X160428077Y-116676053D01*
X160372032Y-116811026D01*
X160371798Y-117078802D01*
X160474056Y-117326284D01*
X160663237Y-117515795D01*
X160910540Y-117618484D01*
X161178316Y-117618718D01*
X161425798Y-117516460D01*
X161615309Y-117327279D01*
X161717998Y-117079976D01*
X161718232Y-116812200D01*
X161684394Y-116730305D01*
X161838744Y-116794397D01*
X161838593Y-116967746D01*
X161940851Y-117215228D01*
X162130032Y-117404739D01*
X162377335Y-117507428D01*
X162645111Y-117507662D01*
X162892593Y-117405404D01*
X163027879Y-117270353D01*
X163071608Y-117376184D01*
X163260789Y-117565695D01*
X163508092Y-117668384D01*
X163775868Y-117668618D01*
X164023350Y-117566360D01*
X164212861Y-117377179D01*
X164315550Y-117129876D01*
X164315784Y-116862100D01*
X164213526Y-116614618D01*
X164122694Y-116523627D01*
X164125216Y-116506470D01*
X164169713Y-116544285D01*
X164244827Y-116619530D01*
X164492130Y-116722219D01*
X164759906Y-116722453D01*
X165007388Y-116620195D01*
X165196899Y-116431014D01*
X165299588Y-116183711D01*
X165299798Y-115943131D01*
X165422112Y-115892592D01*
X165594800Y-115720205D01*
X165594800Y-123210093D01*
X165408979Y-124144277D01*
X164902410Y-124902412D01*
X164144277Y-125408979D01*
X163210092Y-125594800D01*
X140583879Y-125594800D01*
X140613670Y-125566216D01*
X140619277Y-125558188D01*
X140627213Y-125552451D01*
X140675756Y-125500182D01*
X140680624Y-125492280D01*
X140687837Y-125486440D01*
X140734695Y-125430110D01*
X140738897Y-125422373D01*
X140745445Y-125416485D01*
X140790522Y-125356204D01*
X140794132Y-125348648D01*
X140800075Y-125342750D01*
X140843276Y-125278624D01*
X140846358Y-125271262D01*
X140851753Y-125265381D01*
X140892981Y-125197519D01*
X140895593Y-125190355D01*
X140900489Y-125184512D01*
X140939649Y-125113022D01*
X140941661Y-125106627D01*
X140945761Y-125101323D01*
X140976681Y-125039188D01*
X140978069Y-125034080D01*
X140981175Y-125029794D01*
X140993750Y-125002424D01*
X140994856Y-124997789D01*
X140997544Y-124993853D01*
X141009627Y-124965489D01*
X141010561Y-124961026D01*
X141013030Y-124957194D01*
X141024969Y-124926949D01*
X141025685Y-124923004D01*
X141027777Y-124919583D01*
X141039919Y-124886571D01*
X141040428Y-124883339D01*
X141042082Y-124880513D01*
X141054774Y-124843849D01*
X141054999Y-124842216D01*
X141055763Y-124840882D01*
X141070525Y-124834914D01*
X141070703Y-124834797D01*
X141070913Y-124834757D01*
X141094232Y-124825296D01*
X141094420Y-124825172D01*
X141094644Y-124825129D01*
X141116227Y-124816339D01*
X141116453Y-124816190D01*
X141116719Y-124816138D01*
X141136183Y-124808175D01*
X141136451Y-124807997D01*
X141136769Y-124807935D01*
X141153729Y-124800958D01*
X141154109Y-124800705D01*
X141154558Y-124800616D01*
X141168632Y-124794783D01*
X141169220Y-124794390D01*
X141169917Y-124794248D01*
X141180719Y-124789718D01*
X141181940Y-124788894D01*
X141183382Y-124788588D01*
X141190532Y-124785516D01*
X141194923Y-124782499D01*
X141200099Y-124781229D01*
X141203212Y-124779775D01*
X141231606Y-124758928D01*
X141263317Y-124743599D01*
X141263419Y-124743522D01*
X141272099Y-124733780D01*
X141283373Y-124727217D01*
X141292153Y-124715690D01*
X141298326Y-124711448D01*
X141300197Y-124708568D01*
X141308636Y-124702372D01*
X141326819Y-124672365D01*
X141350425Y-124645871D01*
X141354716Y-124633549D01*
X141362620Y-124623172D01*
X141367249Y-124605644D01*
X141376416Y-124590517D01*
X141381693Y-124556086D01*
X141393439Y-124522358D01*
X141392688Y-124509331D01*
X141396019Y-124496719D01*
X141393568Y-124478605D01*
X141396230Y-124461238D01*
X141387976Y-124427596D01*
X141385911Y-124391787D01*
X141380233Y-124380042D01*
X141378484Y-124367111D01*
X141369796Y-124352187D01*
X141367274Y-124340562D01*
X141366263Y-124339104D01*
X141365064Y-124334217D01*
X141344625Y-124306378D01*
X141328990Y-124274035D01*
X141319249Y-124265356D01*
X141312685Y-124254080D01*
X141311081Y-124252263D01*
X141300396Y-124244125D01*
X141292742Y-124233088D01*
X141287804Y-124228318D01*
X141285423Y-124226786D01*
X141283772Y-124224488D01*
X141275783Y-124217023D01*
X141274718Y-124216363D01*
X141273981Y-124215352D01*
X141263228Y-124205450D01*
X141262578Y-124205054D01*
X141262128Y-124204442D01*
X141248892Y-124192363D01*
X141248447Y-124192094D01*
X141248137Y-124191676D01*
X141232704Y-124177678D01*
X141232356Y-124177469D01*
X141232113Y-124177143D01*
X141214766Y-124161484D01*
X141214472Y-124161309D01*
X141214269Y-124161037D01*
X141195294Y-124143977D01*
X141195029Y-124143820D01*
X141194844Y-124143573D01*
X141174523Y-124125369D01*
X141174293Y-124125233D01*
X141174132Y-124125019D01*
X141156729Y-124109479D01*
X141156656Y-124109436D01*
X141156603Y-124109366D01*
X141131906Y-124087334D01*
X141110735Y-124068422D01*
X141093035Y-124052565D01*
X141090987Y-124050721D01*
X141090713Y-124049449D01*
X141082270Y-124029946D01*
X141079597Y-124026080D01*
X141078480Y-124021511D01*
X141069681Y-124002632D01*
X141067210Y-123999260D01*
X141066118Y-123995226D01*
X141061596Y-123986114D01*
X141056622Y-123979665D01*
X141054121Y-123971916D01*
X141031871Y-123932000D01*
X141023390Y-123922031D01*
X141018423Y-123909923D01*
X140992895Y-123871437D01*
X140983970Y-123862452D01*
X140978302Y-123851124D01*
X140949028Y-123813430D01*
X140940296Y-123805862D01*
X140934433Y-123795901D01*
X140900948Y-123758361D01*
X140895784Y-123754467D01*
X140892294Y-123749022D01*
X140883281Y-123739659D01*
X140878094Y-123736048D01*
X140874490Y-123730860D01*
X140836427Y-123694148D01*
X140827151Y-123688190D01*
X140820289Y-123679564D01*
X140781012Y-123646317D01*
X140770837Y-123640678D01*
X140762988Y-123632091D01*
X140736273Y-123612452D01*
X161419483Y-123612452D01*
X161697527Y-124285371D01*
X162211921Y-124800664D01*
X162884354Y-125079882D01*
X163612452Y-125080517D01*
X164285371Y-124802473D01*
X164800664Y-124288079D01*
X165079882Y-123615646D01*
X165080517Y-122887548D01*
X164802473Y-122214629D01*
X164288079Y-121699336D01*
X163615646Y-121420118D01*
X162887548Y-121419483D01*
X162214629Y-121697527D01*
X161699336Y-122211921D01*
X161420118Y-122884354D01*
X161419483Y-123612452D01*
X140736273Y-123612452D01*
X140721670Y-123601717D01*
X140711289Y-123596861D01*
X140703005Y-123588943D01*
X140658823Y-123560846D01*
X140648962Y-123557020D01*
X140640879Y-123550205D01*
X140593008Y-123523792D01*
X140587205Y-123521947D01*
X140582410Y-123518189D01*
X140568020Y-123510908D01*
X140563026Y-123509515D01*
X140558851Y-123506443D01*
X140512185Y-123484588D01*
X140504007Y-123482573D01*
X140496983Y-123477922D01*
X140450344Y-123458835D01*
X140441596Y-123457133D01*
X140433916Y-123452609D01*
X140386463Y-123436034D01*
X140377650Y-123434795D01*
X140369755Y-123430684D01*
X140320644Y-123416365D01*
X140312278Y-123415632D01*
X140304648Y-123412127D01*
X140253038Y-123399807D01*
X140245526Y-123399522D01*
X140238563Y-123396688D01*
X140183609Y-123386111D01*
X140178530Y-123386142D01*
X140173768Y-123384368D01*
X140141904Y-123379215D01*
X140139483Y-123379302D01*
X140137202Y-123378489D01*
X140123599Y-123376487D01*
X140120857Y-123376625D01*
X140118258Y-123375745D01*
X140106376Y-123374191D01*
X140101984Y-123374483D01*
X140097775Y-123373178D01*
X140086654Y-123372015D01*
X140081412Y-123372499D01*
X140076338Y-123371097D01*
X140065024Y-123370266D01*
X140060147Y-123370869D01*
X140055379Y-123369698D01*
X140042913Y-123369143D01*
X140039333Y-123369691D01*
X140035799Y-123368902D01*
X140021224Y-123368563D01*
X140019022Y-123368948D01*
X140016831Y-123368489D01*
X139999190Y-123368310D01*
X139998135Y-123368509D01*
X139997081Y-123368295D01*
X139978921Y-123368225D01*
X139977925Y-123368419D01*
X139976933Y-123368224D01*
X139951414Y-123368277D01*
X139949105Y-123368741D01*
X139946786Y-123368318D01*
X139925069Y-123368663D01*
X139921394Y-123369455D01*
X139917683Y-123368862D01*
X139898735Y-123369581D01*
X139893684Y-123370786D01*
X139888535Y-123370124D01*
X139871325Y-123371303D01*
X139865480Y-123372888D01*
X139859452Y-123372329D01*
X139842947Y-123374051D01*
X139837300Y-123375800D01*
X139831397Y-123375459D01*
X139814566Y-123377808D01*
X139810063Y-123379376D01*
X139805295Y-123379234D01*
X139787104Y-123382294D01*
X139784416Y-123383315D01*
X139781542Y-123383278D01*
X139766482Y-123386073D01*
X139761733Y-123387969D01*
X139756618Y-123388057D01*
X139716258Y-123396808D01*
X139709446Y-123399768D01*
X139702034Y-123400219D01*
X139660139Y-123411237D01*
X139653961Y-123414248D01*
X139647126Y-123414942D01*
X139605673Y-123427653D01*
X139599228Y-123431123D01*
X139591982Y-123432175D01*
X139552948Y-123446007D01*
X139548523Y-123448641D01*
X139543454Y-123449534D01*
X139535652Y-123452567D01*
X139534473Y-123453318D01*
X139533097Y-123453572D01*
X139503489Y-123465362D01*
X139502722Y-123465860D01*
X139501826Y-123466030D01*
X139472769Y-123477781D01*
X139471913Y-123478343D01*
X139470908Y-123478540D01*
X139442136Y-123490377D01*
X139441218Y-123490988D01*
X139440137Y-123491207D01*
X139411386Y-123503253D01*
X139410437Y-123503893D01*
X139409313Y-123504129D01*
X139380315Y-123516508D01*
X139379357Y-123517163D01*
X139378226Y-123517409D01*
X139348716Y-123530244D01*
X139347778Y-123530895D01*
X139346663Y-123531145D01*
X139316375Y-123544560D01*
X139315477Y-123545192D01*
X139314404Y-123545440D01*
X139283073Y-123559559D01*
X139282233Y-123560158D01*
X139281232Y-123560396D01*
X139248590Y-123575343D01*
X139247820Y-123575899D01*
X139246897Y-123576124D01*
X139212681Y-123592023D01*
X139211996Y-123592524D01*
X139211171Y-123592729D01*
X139175114Y-123609702D01*
X139174505Y-123610152D01*
X139173771Y-123610338D01*
X139135607Y-123628510D01*
X139135075Y-123628906D01*
X139134432Y-123629072D01*
X139093896Y-123648567D01*
X139093441Y-123648909D01*
X139092893Y-123649052D01*
X139049719Y-123669992D01*
X139049332Y-123670285D01*
X139048865Y-123670408D01*
X139002786Y-123692919D01*
X139002462Y-123693165D01*
X139002070Y-123693270D01*
X138952820Y-123717475D01*
X138952555Y-123717678D01*
X138952234Y-123717764D01*
X138899548Y-123743786D01*
X138899328Y-123743955D01*
X138899062Y-123744027D01*
X138842676Y-123771990D01*
X138842503Y-123772123D01*
X138842290Y-123772181D01*
X138781935Y-123802209D01*
X138781837Y-123802284D01*
X138781718Y-123802317D01*
X138766334Y-123809986D01*
X138766333Y-123809986D01*
X138714519Y-123835769D01*
X138667288Y-123859170D01*
X138623510Y-123880738D01*
X138583044Y-123900531D01*
X138546055Y-123918463D01*
X138511689Y-123934942D01*
X138480045Y-123949922D01*
X138450176Y-123963849D01*
X138422265Y-123976640D01*
X138395552Y-123988651D01*
X138369934Y-123999935D01*
X138344888Y-124010733D01*
X138319746Y-124021342D01*
X138294397Y-124031818D01*
X138268163Y-124042454D01*
X138240780Y-124053369D01*
X138235029Y-124055643D01*
X138234627Y-124055902D01*
X138234153Y-124055990D01*
X138216696Y-124062945D01*
X138215668Y-124063612D01*
X138214467Y-124063843D01*
X138198505Y-124070335D01*
X138197345Y-124071099D01*
X138195981Y-124071373D01*
X138182062Y-124077168D01*
X138180481Y-124078229D01*
X138178614Y-124078625D01*
X138167285Y-124083490D01*
X138164644Y-124085305D01*
X138161523Y-124086029D01*
X138153328Y-124089732D01*
X138147452Y-124093934D01*
X138142632Y-124095144D01*
X138141526Y-124095965D01*
X138138731Y-124096758D01*
X138134218Y-124099066D01*
X138117120Y-124112586D01*
X138101995Y-124111763D01*
X138095846Y-124112642D01*
X138087990Y-124115406D01*
X138079662Y-124115361D01*
X138070066Y-124117216D01*
X138015011Y-124126467D01*
X137965694Y-124131402D01*
X137915762Y-124133050D01*
X137860192Y-124131221D01*
X137857662Y-124131043D01*
X137804692Y-124126602D01*
X137747276Y-124120892D01*
X137684758Y-124113838D01*
X137617677Y-124105489D01*
X137546135Y-124095852D01*
X137470571Y-124084979D01*
X137391257Y-124072910D01*
X137308001Y-124059612D01*
X137221673Y-124045222D01*
X137131734Y-124029648D01*
X137038974Y-124013024D01*
X136943410Y-123995350D01*
X136845168Y-123976646D01*
X136744295Y-123956916D01*
X136641250Y-123936246D01*
X136536308Y-123914684D01*
X136429068Y-123892143D01*
X136320439Y-123868805D01*
X136216963Y-123846116D01*
X136186618Y-123839396D01*
X136185865Y-123839380D01*
X136185175Y-123839080D01*
X136158968Y-123833397D01*
X136156578Y-123833356D01*
X136154370Y-123832433D01*
X136132033Y-123827916D01*
X136127121Y-123827900D01*
X136122534Y-123826137D01*
X136103632Y-123822879D01*
X136094916Y-123823103D01*
X136086628Y-123820395D01*
X136070727Y-123818487D01*
X136056429Y-123819589D01*
X136042475Y-123816304D01*
X136029142Y-123815839D01*
X136007446Y-123819373D01*
X135985578Y-123817155D01*
X135974379Y-123818225D01*
X135964552Y-123821175D01*
X135963423Y-123821065D01*
X135943519Y-123827134D01*
X135914685Y-123829456D01*
X135905185Y-123832155D01*
X135891894Y-123838958D01*
X135887316Y-123839465D01*
X135867755Y-123850229D01*
X135849112Y-123855825D01*
X135848925Y-123855978D01*
X135838321Y-123859211D01*
X135830086Y-123863628D01*
X135807713Y-123882043D01*
X135788760Y-123891744D01*
X135785631Y-123895421D01*
X135772731Y-123902520D01*
X135765327Y-123908749D01*
X135748451Y-123929832D01*
X135727172Y-123946459D01*
X135720165Y-123954592D01*
X135711531Y-123969855D01*
X135698905Y-123982021D01*
X135691862Y-123992150D01*
X135688042Y-124000909D01*
X135681546Y-124007914D01*
X135674031Y-124020132D01*
X135672709Y-124023697D01*
X135670190Y-124026538D01*
X135661771Y-124040937D01*
X135661644Y-124041303D01*
X135661387Y-124041595D01*
X135658452Y-124046641D01*
X135657824Y-124048470D01*
X135656560Y-124049936D01*
X135631006Y-124095039D01*
X135629725Y-124098915D01*
X135627134Y-124102068D01*
X135603179Y-124146812D01*
X135601953Y-124150845D01*
X135599359Y-124154165D01*
X135577279Y-124197977D01*
X135576074Y-124202322D01*
X135573393Y-124205948D01*
X135553456Y-124248257D01*
X135552234Y-124253166D01*
X135549350Y-124257318D01*
X135531829Y-124297555D01*
X135530568Y-124303347D01*
X135527358Y-124308331D01*
X135512521Y-124345926D01*
X135511371Y-124352265D01*
X135508089Y-124357810D01*
X135498582Y-124384855D01*
X135497353Y-124393472D01*
X135493310Y-124401177D01*
X135482708Y-124437117D01*
X135481616Y-124449152D01*
X135476777Y-124460224D01*
X135469429Y-124493763D01*
X135469155Y-124507946D01*
X135464579Y-124521377D01*
X135460465Y-124552360D01*
X135461556Y-124569296D01*
X135457718Y-124585827D01*
X135456819Y-124614095D01*
X135460197Y-124634436D01*
X135458012Y-124654940D01*
X135460309Y-124680340D01*
X135467451Y-124704580D01*
X135468554Y-124729827D01*
X135474029Y-124752200D01*
X135483077Y-124771603D01*
X135483168Y-124773422D01*
X135487699Y-124782983D01*
X135493937Y-124810057D01*
X135502571Y-124829247D01*
X135520891Y-124854956D01*
X135523595Y-124864038D01*
X135529647Y-124871491D01*
X135539182Y-124891609D01*
X135550957Y-124907458D01*
X135569378Y-124924127D01*
X135569863Y-124925100D01*
X135572529Y-124927418D01*
X135578472Y-124935758D01*
X135585303Y-124940031D01*
X135606040Y-124965568D01*
X135620935Y-124977923D01*
X135640577Y-124988553D01*
X135647936Y-124995212D01*
X135652280Y-124996762D01*
X135668559Y-125010917D01*
X135675776Y-125015043D01*
X135688699Y-125019369D01*
X135699670Y-125027458D01*
X135706619Y-125030721D01*
X135716919Y-125033271D01*
X135725837Y-125039023D01*
X135733414Y-125042019D01*
X135743793Y-125043910D01*
X135752992Y-125049065D01*
X135761444Y-125051814D01*
X135771053Y-125052954D01*
X135779750Y-125057197D01*
X135789321Y-125059718D01*
X135797667Y-125060229D01*
X135805354Y-125063522D01*
X135816289Y-125065834D01*
X135823221Y-125065917D01*
X135829701Y-125068386D01*
X135842247Y-125070508D01*
X135847833Y-125070348D01*
X135853122Y-125072166D01*
X135867521Y-125074119D01*
X135871960Y-125073845D01*
X135876201Y-125075181D01*
X135892701Y-125076982D01*
X135896155Y-125076679D01*
X135899481Y-125077652D01*
X135918324Y-125079322D01*
X135921009Y-125079031D01*
X135923615Y-125079749D01*
X135945049Y-125081307D01*
X135947126Y-125081049D01*
X135949151Y-125081580D01*
X135973418Y-125083045D01*
X135975022Y-125082825D01*
X135976590Y-125083221D01*
X136003937Y-125084612D01*
X136005169Y-125084431D01*
X136006378Y-125084727D01*
X136037050Y-125086063D01*
X136037982Y-125085920D01*
X136038901Y-125086139D01*
X136073143Y-125087441D01*
X136073855Y-125087327D01*
X136074558Y-125087492D01*
X136112615Y-125088778D01*
X136113152Y-125088690D01*
X136113681Y-125088812D01*
X136155797Y-125090101D01*
X136156191Y-125090035D01*
X136156581Y-125090124D01*
X136203001Y-125091436D01*
X136203286Y-125091388D01*
X136203570Y-125091452D01*
X136254541Y-125092806D01*
X136254669Y-125092784D01*
X136254793Y-125092812D01*
X136263694Y-125093042D01*
X136263695Y-125093042D01*
X136346953Y-125095319D01*
X136424762Y-125097729D01*
X136498349Y-125100314D01*
X136568193Y-125103098D01*
X136634574Y-125106097D01*
X136697733Y-125109318D01*
X136758268Y-125112795D01*
X136816400Y-125116533D01*
X136872691Y-125120564D01*
X136927369Y-125124895D01*
X136981095Y-125129566D01*
X137034579Y-125134633D01*
X137051134Y-125136286D01*
X137135838Y-125145389D01*
X137216339Y-125155153D01*
X137294163Y-125165788D01*
X137369583Y-125177356D01*
X137443425Y-125190002D01*
X137516237Y-125203837D01*
X137588699Y-125219002D01*
X137661410Y-125235630D01*
X137734988Y-125253869D01*
X137810115Y-125273890D01*
X137887321Y-125295832D01*
X137967237Y-125319864D01*
X138050267Y-125346089D01*
X138137318Y-125374770D01*
X138206272Y-125398231D01*
X138236690Y-125408912D01*
X138264601Y-125419145D01*
X138290695Y-125429192D01*
X138315641Y-125439322D01*
X138340239Y-125449865D01*
X138365115Y-125461110D01*
X138391125Y-125473468D01*
X138418753Y-125487195D01*
X138448633Y-125502634D01*
X138481295Y-125520075D01*
X138517153Y-125539744D01*
X138556807Y-125561969D01*
X138600542Y-125586890D01*
X138614235Y-125594761D01*
X138614237Y-125594762D01*
X138614303Y-125594800D01*
X132789907Y-125594800D01*
X131855723Y-125408979D01*
X131097588Y-124902410D01*
X130591021Y-124144277D01*
X130485235Y-123612452D01*
X130919483Y-123612452D01*
X131197527Y-124285371D01*
X131711921Y-124800664D01*
X132384354Y-125079882D01*
X133112452Y-125080517D01*
X133785371Y-124802473D01*
X134300664Y-124288079D01*
X134579882Y-123615646D01*
X134580517Y-122887548D01*
X134302473Y-122214629D01*
X133788079Y-121699336D01*
X133115646Y-121420118D01*
X132387548Y-121419483D01*
X131714629Y-121697527D01*
X131199336Y-122211921D01*
X130920118Y-122884354D01*
X130919483Y-123612452D01*
X130485235Y-123612452D01*
X130405200Y-123210092D01*
X130405200Y-119789907D01*
X130419750Y-119716760D01*
X130438579Y-119688580D01*
X130466761Y-119669749D01*
X130539907Y-119655200D01*
X145093087Y-119655200D01*
X144890470Y-119752637D01*
X144500148Y-120160284D01*
X144380269Y-120468455D01*
X144380269Y-120074000D01*
X144357244Y-119951635D01*
X144284927Y-119839251D01*
X144174583Y-119763856D01*
X144043600Y-119737331D01*
X142316400Y-119737331D01*
X142194035Y-119760356D01*
X142081651Y-119832673D01*
X142006256Y-119943017D01*
X141979731Y-120074000D01*
X141979731Y-122106000D01*
X142002756Y-122228365D01*
X142075073Y-122340749D01*
X142185417Y-122416144D01*
X142316400Y-122442669D01*
X144043600Y-122442669D01*
X144165965Y-122419644D01*
X144278349Y-122347327D01*
X144353744Y-122236983D01*
X144380269Y-122106000D01*
X144380269Y-121711545D01*
X144500148Y-122019716D01*
X144890470Y-122427363D01*
X145319618Y-122633737D01*
X145542200Y-122531950D01*
X145542200Y-121267800D01*
X145522200Y-121267800D01*
X145522200Y-120912200D01*
X145542200Y-120912200D01*
X145542200Y-120892200D01*
X145897800Y-120892200D01*
X145897800Y-120912200D01*
X145917800Y-120912200D01*
X145917800Y-121267800D01*
X145897800Y-121267800D01*
X145897800Y-122531950D01*
X146120382Y-122633737D01*
X146549530Y-122427363D01*
X146939852Y-122019716D01*
X147122286Y-121550736D01*
X147157073Y-121725621D01*
X147415856Y-122112918D01*
X147803153Y-122371701D01*
X148260000Y-122462574D01*
X148716847Y-122371701D01*
X149104144Y-122112918D01*
X149362927Y-121725621D01*
X149453800Y-121268774D01*
X149453800Y-120911226D01*
X149606200Y-120911226D01*
X149606200Y-121268774D01*
X149697073Y-121725621D01*
X149955856Y-122112918D01*
X150343153Y-122371701D01*
X150800000Y-122462574D01*
X151256847Y-122371701D01*
X151644144Y-122112918D01*
X151902927Y-121725621D01*
X151993800Y-121268774D01*
X151993800Y-120911226D01*
X151902927Y-120454379D01*
X151644144Y-120067082D01*
X151256847Y-119808299D01*
X150800000Y-119717426D01*
X150343153Y-119808299D01*
X149955856Y-120067082D01*
X149697073Y-120454379D01*
X149606200Y-120911226D01*
X149453800Y-120911226D01*
X149362927Y-120454379D01*
X149104144Y-120067082D01*
X148716847Y-119808299D01*
X148260000Y-119717426D01*
X147803153Y-119808299D01*
X147415856Y-120067082D01*
X147157073Y-120454379D01*
X147122286Y-120629264D01*
X146939852Y-120160284D01*
X146549530Y-119752637D01*
X146346913Y-119655200D01*
X152170000Y-119655200D01*
X152325063Y-119624356D01*
X152456520Y-119536520D01*
X152544356Y-119405063D01*
X152575200Y-119250000D01*
X152575200Y-112500000D01*
X152544356Y-112344937D01*
X152456520Y-112213480D01*
X152325063Y-112125644D01*
X152170000Y-112094800D01*
X152039901Y-112094800D01*
X152050269Y-112043600D01*
X152050269Y-110316400D01*
X152027244Y-110194035D01*
X151954927Y-110081651D01*
X151844583Y-110006256D01*
X151713600Y-109979731D01*
X149986400Y-109979731D01*
X149864035Y-110002756D01*
X149751651Y-110075073D01*
X149676256Y-110185417D01*
X149649731Y-110316400D01*
X149649731Y-112043600D01*
X149659365Y-112094800D01*
X149071788Y-112094800D01*
X149177532Y-112024144D01*
X149436315Y-111636847D01*
X149527188Y-111180000D01*
X149436315Y-110723153D01*
X149177532Y-110335856D01*
X148790235Y-110077073D01*
X148333388Y-109986200D01*
X148286612Y-109986200D01*
X147829765Y-110077073D01*
X147442468Y-110335856D01*
X147405200Y-110391632D01*
X147405200Y-109428368D01*
X147442468Y-109484144D01*
X147829765Y-109742927D01*
X148286612Y-109833800D01*
X148333388Y-109833800D01*
X148790235Y-109742927D01*
X149177532Y-109484144D01*
X149436315Y-109096847D01*
X149527188Y-108640000D01*
X149436315Y-108183153D01*
X149177532Y-107795856D01*
X148790235Y-107537073D01*
X148487802Y-107476915D01*
X148487802Y-107390806D01*
X148710385Y-107491351D01*
X149212354Y-107232220D01*
X149576948Y-106800719D01*
X149580000Y-106793350D01*
X149583052Y-106800719D01*
X149947646Y-107232220D01*
X150449615Y-107491351D01*
X150672198Y-107390806D01*
X150672198Y-107476915D01*
X150369765Y-107537073D01*
X149982468Y-107795856D01*
X149723685Y-108183153D01*
X149632812Y-108640000D01*
X149723685Y-109096847D01*
X149982468Y-109484144D01*
X150369765Y-109742927D01*
X150826612Y-109833800D01*
X150873388Y-109833800D01*
X151330235Y-109742927D01*
X151717532Y-109484144D01*
X151976315Y-109096847D01*
X152067188Y-108640000D01*
X151976315Y-108183153D01*
X151717532Y-107795856D01*
X151330235Y-107537073D01*
X151027802Y-107476915D01*
X151027802Y-107390806D01*
X151250385Y-107491351D01*
X151752354Y-107232220D01*
X152116948Y-106800719D01*
X152241337Y-106500382D01*
X152139550Y-106277800D01*
X151027800Y-106277800D01*
X151027800Y-106297800D01*
X150672200Y-106297800D01*
X150672200Y-106277800D01*
X148487800Y-106277800D01*
X148487800Y-106297800D01*
X148132200Y-106297800D01*
X148132200Y-106277800D01*
X148112200Y-106277800D01*
X148112200Y-105922200D01*
X148132200Y-105922200D01*
X148132200Y-103737800D01*
X148487800Y-103737800D01*
X148487800Y-105922200D01*
X150672200Y-105922200D01*
X150672200Y-103737800D01*
X151027800Y-103737800D01*
X151027800Y-105922200D01*
X152139550Y-105922200D01*
X152241337Y-105699618D01*
X152116948Y-105399281D01*
X151752354Y-104967780D01*
X151485457Y-104830000D01*
X151752354Y-104692220D01*
X152116948Y-104260719D01*
X152241337Y-103960382D01*
X152139550Y-103737800D01*
X151027800Y-103737800D01*
X150672200Y-103737800D01*
X148487800Y-103737800D01*
X148132200Y-103737800D01*
X148112200Y-103737800D01*
X148112200Y-103382200D01*
X148132200Y-103382200D01*
X148132200Y-103362200D01*
X148487800Y-103362200D01*
X148487800Y-103382200D01*
X150672200Y-103382200D01*
X150672200Y-103362200D01*
X151027800Y-103362200D01*
X151027800Y-103382200D01*
X152139550Y-103382200D01*
X152241337Y-103159618D01*
X152116948Y-102859281D01*
X151752354Y-102427780D01*
X151250385Y-102168649D01*
X151027802Y-102269194D01*
X151027802Y-102183085D01*
X151330235Y-102122927D01*
X151717532Y-101864144D01*
X151976315Y-101476847D01*
X152067188Y-101020000D01*
X151976315Y-100563153D01*
X151717532Y-100175856D01*
X151330235Y-99917073D01*
X150873388Y-99826200D01*
X150826612Y-99826200D01*
X150369765Y-99917073D01*
X149982468Y-100175856D01*
X149723685Y-100563153D01*
X149632812Y-101020000D01*
X149723685Y-101476847D01*
X149982468Y-101864144D01*
X150369765Y-102122927D01*
X150672198Y-102183085D01*
X150672198Y-102269194D01*
X150449615Y-102168649D01*
X149947646Y-102427780D01*
X149583052Y-102859281D01*
X149580000Y-102866650D01*
X149576948Y-102859281D01*
X149212354Y-102427780D01*
X148710385Y-102168649D01*
X148487802Y-102269194D01*
X148487802Y-102183085D01*
X148790235Y-102122927D01*
X149177532Y-101864144D01*
X149436315Y-101476847D01*
X149527188Y-101020000D01*
X149436315Y-100563153D01*
X149177532Y-100175856D01*
X148790235Y-99917073D01*
X148333388Y-99826200D01*
X148286612Y-99826200D01*
X147829765Y-99917073D01*
X147442468Y-100175856D01*
X147405200Y-100231632D01*
X147405200Y-99268368D01*
X147442468Y-99324144D01*
X147829765Y-99582927D01*
X148286612Y-99673800D01*
X148333388Y-99673800D01*
X148790235Y-99582927D01*
X149177532Y-99324144D01*
X149436315Y-98936847D01*
X149527188Y-98480000D01*
X149632812Y-98480000D01*
X149723685Y-98936847D01*
X149982468Y-99324144D01*
X150369765Y-99582927D01*
X150826612Y-99673800D01*
X150873388Y-99673800D01*
X151330235Y-99582927D01*
X151717532Y-99324144D01*
X151765139Y-99252894D01*
X151834739Y-99420923D01*
X151999078Y-99585261D01*
X152213796Y-99674200D01*
X152456150Y-99674200D01*
X152602200Y-99528150D01*
X152602200Y-98667800D01*
X152582200Y-98667800D01*
X152582200Y-98312200D01*
X152602200Y-98312200D01*
X152602200Y-97451850D01*
X152456150Y-97305800D01*
X152213796Y-97305800D01*
X151999078Y-97394739D01*
X151834739Y-97559077D01*
X151770253Y-97714759D01*
X151717532Y-97635856D01*
X151330235Y-97377073D01*
X150873388Y-97286200D01*
X150826612Y-97286200D01*
X150369765Y-97377073D01*
X149982468Y-97635856D01*
X149723685Y-98023153D01*
X149632812Y-98480000D01*
X149527188Y-98480000D01*
X149436315Y-98023153D01*
X149177532Y-97635856D01*
X148790235Y-97377073D01*
X148333388Y-97286200D01*
X148286612Y-97286200D01*
X147829765Y-97377073D01*
X147442468Y-97635856D01*
X147405200Y-97691632D01*
X147405200Y-96750000D01*
X147374356Y-96594937D01*
X147286520Y-96463480D01*
X147155063Y-96375644D01*
X147000000Y-96344800D01*
X130539907Y-96344800D01*
X130466761Y-96330251D01*
X130438579Y-96311420D01*
X130419750Y-96283240D01*
X130405200Y-96210093D01*
X130405200Y-94600000D01*
X139697426Y-94600000D01*
X139799899Y-95115168D01*
X140091719Y-95551907D01*
X140528458Y-95843727D01*
X141043626Y-95946200D01*
X141096374Y-95946200D01*
X141611542Y-95843727D01*
X142048281Y-95551907D01*
X142340101Y-95115168D01*
X142442574Y-94600000D01*
X142340101Y-94084832D01*
X142048281Y-93648093D01*
X141695944Y-93412669D01*
X142086000Y-93412669D01*
X142208365Y-93389644D01*
X142320749Y-93317327D01*
X142396144Y-93206983D01*
X142422669Y-93076000D01*
X142422669Y-91044000D01*
X142399644Y-90921635D01*
X142327327Y-90809251D01*
X142216983Y-90733856D01*
X142086000Y-90707331D01*
X140054000Y-90707331D01*
X139931635Y-90730356D01*
X139819251Y-90802673D01*
X139743856Y-90913017D01*
X139717331Y-91044000D01*
X139717331Y-93076000D01*
X139740356Y-93198365D01*
X139812673Y-93310749D01*
X139923017Y-93386144D01*
X140054000Y-93412669D01*
X140444056Y-93412669D01*
X140091719Y-93648093D01*
X139799899Y-94084832D01*
X139697426Y-94600000D01*
X130405200Y-94600000D01*
X130405200Y-93112452D01*
X130919483Y-93112452D01*
X131197527Y-93785371D01*
X131711921Y-94300664D01*
X132384354Y-94579882D01*
X133112452Y-94580517D01*
X133785371Y-94302473D01*
X134300664Y-93788079D01*
X134579882Y-93115646D01*
X134580517Y-92387548D01*
X134302473Y-91714629D01*
X133788079Y-91199336D01*
X133115646Y-90920118D01*
X132387548Y-90919483D01*
X131714629Y-91197527D01*
X131199336Y-91711921D01*
X130920118Y-92384354D01*
X130919483Y-93112452D01*
X130405200Y-93112452D01*
X130405200Y-92789908D01*
X130591021Y-91855723D01*
X131097588Y-91097590D01*
X131855723Y-90591021D01*
X132789907Y-90405200D01*
X157850322Y-90405200D01*
X157624618Y-90630511D01*
G36*
X165594800Y-114923331D02*
X165423107Y-114751339D01*
X165217681Y-114666039D01*
X165270391Y-114613420D01*
X165373080Y-114366117D01*
X165373314Y-114098341D01*
X165271056Y-113850859D01*
X165081875Y-113661348D01*
X164876449Y-113576048D01*
X164929160Y-113523429D01*
X165031849Y-113276126D01*
X165032083Y-113008350D01*
X164929825Y-112760868D01*
X164740644Y-112571357D01*
X164535218Y-112486057D01*
X164587928Y-112433439D01*
X164690617Y-112186136D01*
X164690851Y-111918360D01*
X164588593Y-111670878D01*
X164399412Y-111481367D01*
X164193986Y-111396067D01*
X164246696Y-111343448D01*
X164349385Y-111096145D01*
X164349619Y-110828369D01*
X164247361Y-110580887D01*
X164058180Y-110391376D01*
X163810877Y-110288687D01*
X163543101Y-110288453D01*
X163523633Y-110296497D01*
X163491405Y-110218499D01*
X163302224Y-110028988D01*
X163054921Y-109926299D01*
X162787145Y-109926065D01*
X162539663Y-110028323D01*
X162505019Y-110062907D01*
X161806717Y-109469466D01*
X161830261Y-109445922D01*
X161919200Y-109231204D01*
X161919200Y-109203550D01*
X161915650Y-109200000D01*
X161919200Y-109196450D01*
X161919200Y-109168796D01*
X161849282Y-109000000D01*
X161919200Y-108831204D01*
X161919200Y-108803550D01*
X161915650Y-108800000D01*
X161919200Y-108796450D01*
X161919200Y-108768796D01*
X161849282Y-108600000D01*
X161919200Y-108431204D01*
X161919200Y-108403550D01*
X161915650Y-108400000D01*
X161919200Y-108396450D01*
X161919200Y-108368796D01*
X161849282Y-108200000D01*
X161919200Y-108031204D01*
X161919200Y-108003550D01*
X161915650Y-108000000D01*
X161919200Y-107996450D01*
X161919200Y-107968796D01*
X161849282Y-107800000D01*
X161919200Y-107631204D01*
X161919200Y-107603550D01*
X161915650Y-107600000D01*
X161919200Y-107596450D01*
X161919200Y-107568796D01*
X161849282Y-107400000D01*
X161919200Y-107231204D01*
X161919200Y-107203550D01*
X161915650Y-107200000D01*
X161919200Y-107196450D01*
X161919200Y-107168796D01*
X161849282Y-107000000D01*
X161919200Y-106831204D01*
X161919200Y-106803550D01*
X161915650Y-106800000D01*
X161919200Y-106796450D01*
X161919200Y-106768796D01*
X161830261Y-106554078D01*
X161806934Y-106530751D01*
X162504906Y-105937591D01*
X162538668Y-105971412D01*
X162785971Y-106074101D01*
X163053747Y-106074335D01*
X163301229Y-105972077D01*
X163490740Y-105782896D01*
X163523478Y-105704053D01*
X163541927Y-105711714D01*
X163809703Y-105711948D01*
X164057185Y-105609690D01*
X164246696Y-105420509D01*
X164349385Y-105173206D01*
X164349619Y-104905430D01*
X164247361Y-104657948D01*
X164193766Y-104604260D01*
X164398417Y-104519699D01*
X164587928Y-104330518D01*
X164690617Y-104083215D01*
X164690851Y-103815439D01*
X164588593Y-103567957D01*
X164534998Y-103514269D01*
X164739649Y-103429708D01*
X164929160Y-103240527D01*
X165031849Y-102993224D01*
X165032083Y-102725448D01*
X164929825Y-102477966D01*
X164876230Y-102424278D01*
X165080880Y-102339718D01*
X165270391Y-102150537D01*
X165373080Y-101903234D01*
X165373314Y-101635458D01*
X165271056Y-101387976D01*
X165217461Y-101334288D01*
X165422112Y-101249727D01*
X165594800Y-101077340D01*
X165594800Y-114923331D01*
X165594800Y-114923331D01*
G37*
X165594800Y-114923331D02*
X165423107Y-114751339D01*
X165217681Y-114666039D01*
X165270391Y-114613420D01*
X165373080Y-114366117D01*
X165373314Y-114098341D01*
X165271056Y-113850859D01*
X165081875Y-113661348D01*
X164876449Y-113576048D01*
X164929160Y-113523429D01*
X165031849Y-113276126D01*
X165032083Y-113008350D01*
X164929825Y-112760868D01*
X164740644Y-112571357D01*
X164535218Y-112486057D01*
X164587928Y-112433439D01*
X164690617Y-112186136D01*
X164690851Y-111918360D01*
X164588593Y-111670878D01*
X164399412Y-111481367D01*
X164193986Y-111396067D01*
X164246696Y-111343448D01*
X164349385Y-111096145D01*
X164349619Y-110828369D01*
X164247361Y-110580887D01*
X164058180Y-110391376D01*
X163810877Y-110288687D01*
X163543101Y-110288453D01*
X163523633Y-110296497D01*
X163491405Y-110218499D01*
X163302224Y-110028988D01*
X163054921Y-109926299D01*
X162787145Y-109926065D01*
X162539663Y-110028323D01*
X162505019Y-110062907D01*
X161806717Y-109469466D01*
X161830261Y-109445922D01*
X161919200Y-109231204D01*
X161919200Y-109203550D01*
X161915650Y-109200000D01*
X161919200Y-109196450D01*
X161919200Y-109168796D01*
X161849282Y-109000000D01*
X161919200Y-108831204D01*
X161919200Y-108803550D01*
X161915650Y-108800000D01*
X161919200Y-108796450D01*
X161919200Y-108768796D01*
X161849282Y-108600000D01*
X161919200Y-108431204D01*
X161919200Y-108403550D01*
X161915650Y-108400000D01*
X161919200Y-108396450D01*
X161919200Y-108368796D01*
X161849282Y-108200000D01*
X161919200Y-108031204D01*
X161919200Y-108003550D01*
X161915650Y-108000000D01*
X161919200Y-107996450D01*
X161919200Y-107968796D01*
X161849282Y-107800000D01*
X161919200Y-107631204D01*
X161919200Y-107603550D01*
X161915650Y-107600000D01*
X161919200Y-107596450D01*
X161919200Y-107568796D01*
X161849282Y-107400000D01*
X161919200Y-107231204D01*
X161919200Y-107203550D01*
X161915650Y-107200000D01*
X161919200Y-107196450D01*
X161919200Y-107168796D01*
X161849282Y-107000000D01*
X161919200Y-106831204D01*
X161919200Y-106803550D01*
X161915650Y-106800000D01*
X161919200Y-106796450D01*
X161919200Y-106768796D01*
X161830261Y-106554078D01*
X161806934Y-106530751D01*
X162504906Y-105937591D01*
X162538668Y-105971412D01*
X162785971Y-106074101D01*
X163053747Y-106074335D01*
X163301229Y-105972077D01*
X163490740Y-105782896D01*
X163523478Y-105704053D01*
X163541927Y-105711714D01*
X163809703Y-105711948D01*
X164057185Y-105609690D01*
X164246696Y-105420509D01*
X164349385Y-105173206D01*
X164349619Y-104905430D01*
X164247361Y-104657948D01*
X164193766Y-104604260D01*
X164398417Y-104519699D01*
X164587928Y-104330518D01*
X164690617Y-104083215D01*
X164690851Y-103815439D01*
X164588593Y-103567957D01*
X164534998Y-103514269D01*
X164739649Y-103429708D01*
X164929160Y-103240527D01*
X165031849Y-102993224D01*
X165032083Y-102725448D01*
X164929825Y-102477966D01*
X164876230Y-102424278D01*
X165080880Y-102339718D01*
X165270391Y-102150537D01*
X165373080Y-101903234D01*
X165373314Y-101635458D01*
X165271056Y-101387976D01*
X165217461Y-101334288D01*
X165422112Y-101249727D01*
X165594800Y-101077340D01*
X165594800Y-114923331D01*
G36*
X164144277Y-90591021D02*
X164902410Y-91097588D01*
X165408979Y-91855723D01*
X165594800Y-92789907D01*
X165594800Y-100280466D01*
X165423107Y-100108474D01*
X165299613Y-100057195D01*
X165299822Y-99817864D01*
X165197564Y-99570382D01*
X165008383Y-99380871D01*
X164761080Y-99278182D01*
X164493304Y-99277948D01*
X164245822Y-99380206D01*
X164170161Y-99455736D01*
X164125216Y-99493931D01*
X164122696Y-99476786D01*
X164212861Y-99386778D01*
X164315550Y-99139475D01*
X164315784Y-98871699D01*
X164213526Y-98624217D01*
X164024345Y-98434706D01*
X163777042Y-98332017D01*
X163509266Y-98331783D01*
X163357108Y-98394654D01*
X163520294Y-98231752D01*
X163622983Y-97984449D01*
X163623217Y-97716673D01*
X163520959Y-97469191D01*
X163331778Y-97279680D01*
X163217190Y-97232099D01*
X163137368Y-97112638D01*
X163005523Y-97024541D01*
X162850000Y-96993606D01*
X162694477Y-97024541D01*
X162562632Y-97112638D01*
X161986479Y-97688791D01*
X161425292Y-97688791D01*
X161663680Y-97450403D01*
X161674237Y-97434604D01*
X161751777Y-97318558D01*
X161782712Y-97163035D01*
X161782712Y-94472515D01*
X162079193Y-94768996D01*
X161929706Y-94918222D01*
X161827017Y-95165525D01*
X161826783Y-95433301D01*
X161929041Y-95680783D01*
X162118222Y-95870294D01*
X162365525Y-95972983D01*
X162633301Y-95973217D01*
X162880783Y-95870959D01*
X163070294Y-95681778D01*
X163172983Y-95434475D01*
X163173217Y-95166699D01*
X163070959Y-94919217D01*
X162906400Y-94754371D01*
X162906400Y-94615067D01*
X162899404Y-94579895D01*
X163612452Y-94580517D01*
X164285371Y-94302473D01*
X164800664Y-93788079D01*
X165079882Y-93115646D01*
X165080517Y-92387548D01*
X164802473Y-91714629D01*
X164288079Y-91199336D01*
X163615646Y-90920118D01*
X162887548Y-90919483D01*
X162214629Y-91197527D01*
X161699336Y-91711921D01*
X161420118Y-92384354D01*
X161419616Y-92959947D01*
X160732401Y-92272732D01*
X160676798Y-92235579D01*
X160600556Y-92184635D01*
X160445033Y-92153700D01*
X159239900Y-92153700D01*
X159178426Y-92165928D01*
X159475382Y-91869489D01*
X159642010Y-91468205D01*
X159642389Y-91033701D01*
X159476462Y-90632127D01*
X159249931Y-90405200D01*
X163210092Y-90405200D01*
X164144277Y-90591021D01*
X164144277Y-90591021D01*
G37*
X164144277Y-90591021D02*
X164902410Y-91097588D01*
X165408979Y-91855723D01*
X165594800Y-92789907D01*
X165594800Y-100280466D01*
X165423107Y-100108474D01*
X165299613Y-100057195D01*
X165299822Y-99817864D01*
X165197564Y-99570382D01*
X165008383Y-99380871D01*
X164761080Y-99278182D01*
X164493304Y-99277948D01*
X164245822Y-99380206D01*
X164170161Y-99455736D01*
X164125216Y-99493931D01*
X164122696Y-99476786D01*
X164212861Y-99386778D01*
X164315550Y-99139475D01*
X164315784Y-98871699D01*
X164213526Y-98624217D01*
X164024345Y-98434706D01*
X163777042Y-98332017D01*
X163509266Y-98331783D01*
X163357108Y-98394654D01*
X163520294Y-98231752D01*
X163622983Y-97984449D01*
X163623217Y-97716673D01*
X163520959Y-97469191D01*
X163331778Y-97279680D01*
X163217190Y-97232099D01*
X163137368Y-97112638D01*
X163005523Y-97024541D01*
X162850000Y-96993606D01*
X162694477Y-97024541D01*
X162562632Y-97112638D01*
X161986479Y-97688791D01*
X161425292Y-97688791D01*
X161663680Y-97450403D01*
X161674237Y-97434604D01*
X161751777Y-97318558D01*
X161782712Y-97163035D01*
X161782712Y-94472515D01*
X162079193Y-94768996D01*
X161929706Y-94918222D01*
X161827017Y-95165525D01*
X161826783Y-95433301D01*
X161929041Y-95680783D01*
X162118222Y-95870294D01*
X162365525Y-95972983D01*
X162633301Y-95973217D01*
X162880783Y-95870959D01*
X163070294Y-95681778D01*
X163172983Y-95434475D01*
X163173217Y-95166699D01*
X163070959Y-94919217D01*
X162906400Y-94754371D01*
X162906400Y-94615067D01*
X162899404Y-94579895D01*
X163612452Y-94580517D01*
X164285371Y-94302473D01*
X164800664Y-93788079D01*
X165079882Y-93115646D01*
X165080517Y-92387548D01*
X164802473Y-91714629D01*
X164288079Y-91199336D01*
X163615646Y-90920118D01*
X162887548Y-90919483D01*
X162214629Y-91197527D01*
X161699336Y-91711921D01*
X161420118Y-92384354D01*
X161419616Y-92959947D01*
X160732401Y-92272732D01*
X160676798Y-92235579D01*
X160600556Y-92184635D01*
X160445033Y-92153700D01*
X159239900Y-92153700D01*
X159178426Y-92165928D01*
X159475382Y-91869489D01*
X159642010Y-91468205D01*
X159642389Y-91033701D01*
X159476462Y-90632127D01*
X159249931Y-90405200D01*
X163210092Y-90405200D01*
X164144277Y-90591021D01*
G36*
X159940032Y-95137368D02*
X160071877Y-95225465D01*
X160227400Y-95256400D01*
X160577486Y-95256400D01*
X160665101Y-95344015D01*
X160665101Y-96335548D01*
X160437562Y-96241066D01*
X160169786Y-96240832D01*
X159922304Y-96343090D01*
X159732793Y-96532271D01*
X159665803Y-96693600D01*
X159157584Y-96693600D01*
X159245261Y-96605922D01*
X159334200Y-96391204D01*
X159334200Y-96223850D01*
X159188150Y-96077800D01*
X158327800Y-96077800D01*
X158327800Y-96097800D01*
X157972200Y-96097800D01*
X157972200Y-96077800D01*
X157952200Y-96077800D01*
X157952200Y-95722200D01*
X157972200Y-95722200D01*
X157972200Y-95702200D01*
X158327800Y-95702200D01*
X158327800Y-95722200D01*
X159188150Y-95722200D01*
X159334200Y-95576150D01*
X159334200Y-95408796D01*
X159245261Y-95194078D01*
X159147884Y-95096700D01*
X159203705Y-95096700D01*
X159418423Y-95007761D01*
X159582761Y-94843422D01*
X159601308Y-94798644D01*
X159940032Y-95137368D01*
X159940032Y-95137368D01*
G37*
X159940032Y-95137368D02*
X160071877Y-95225465D01*
X160227400Y-95256400D01*
X160577486Y-95256400D01*
X160665101Y-95344015D01*
X160665101Y-96335548D01*
X160437562Y-96241066D01*
X160169786Y-96240832D01*
X159922304Y-96343090D01*
X159732793Y-96532271D01*
X159665803Y-96693600D01*
X159157584Y-96693600D01*
X159245261Y-96605922D01*
X159334200Y-96391204D01*
X159334200Y-96223850D01*
X159188150Y-96077800D01*
X158327800Y-96077800D01*
X158327800Y-96097800D01*
X157972200Y-96097800D01*
X157972200Y-96077800D01*
X157952200Y-96077800D01*
X157952200Y-95722200D01*
X157972200Y-95722200D01*
X157972200Y-95702200D01*
X158327800Y-95702200D01*
X158327800Y-95722200D01*
X159188150Y-95722200D01*
X159334200Y-95576150D01*
X159334200Y-95408796D01*
X159245261Y-95194078D01*
X159147884Y-95096700D01*
X159203705Y-95096700D01*
X159418423Y-95007761D01*
X159582761Y-94843422D01*
X159601308Y-94798644D01*
X159940032Y-95137368D01*
G36*
X158910300Y-94437500D02*
X158890300Y-94437500D01*
X158890300Y-94512500D01*
X158534700Y-94512500D01*
X158534700Y-94437500D01*
X158514700Y-94437500D01*
X158514700Y-94349169D01*
X158910300Y-94349169D01*
X158910300Y-94437500D01*
X158910300Y-94437500D01*
G37*
X158910300Y-94437500D02*
X158890300Y-94437500D01*
X158890300Y-94512500D01*
X158534700Y-94512500D01*
X158534700Y-94437500D01*
X158514700Y-94437500D01*
X158514700Y-94349169D01*
X158910300Y-94349169D01*
X158910300Y-94437500D01*
M02*
