G04 #@! TF.FileFunction,Legend,Bot*
%FSLAX46Y46*%
G04 Gerber Fmt 4.6, Leading zero omitted, Abs format (unit mm)*
G04 Created by KiCad (PCBNEW 4.0.1-stable) date Tuesday, April 12, 2016 'PMt' 10:53:03 PM*
%MOMM*%
G01*
G04 APERTURE LIST*
%ADD10C,0.100000*%
%ADD11C,0.200000*%
%ADD12C,0.150000*%
%ADD13C,0.300000*%
G04 APERTURE END LIST*
D10*
D11*
X157019763Y-125385952D02*
X157138810Y-125445476D01*
X157376906Y-125445476D01*
X157495953Y-125385952D01*
X157555477Y-125326429D01*
X157615001Y-125207381D01*
X157615001Y-124850238D01*
X157555477Y-124731190D01*
X157495953Y-124671667D01*
X157376906Y-124612143D01*
X157138810Y-124612143D01*
X157019763Y-124671667D01*
X156484048Y-125445476D02*
X156484048Y-124195476D01*
X156365000Y-124969286D02*
X156007857Y-125445476D01*
X156007857Y-124612143D02*
X156484048Y-125088333D01*
X154936429Y-125445476D02*
X154936429Y-124195476D01*
X154936429Y-125385952D02*
X155055476Y-125445476D01*
X155293572Y-125445476D01*
X155412619Y-125385952D01*
X155472143Y-125326429D01*
X155531667Y-125207381D01*
X155531667Y-124850238D01*
X155472143Y-124731190D01*
X155412619Y-124671667D01*
X155293572Y-124612143D01*
X155055476Y-124612143D01*
X154936429Y-124671667D01*
X154341191Y-125326429D02*
X154281667Y-125385952D01*
X154341191Y-125445476D01*
X154400715Y-125385952D01*
X154341191Y-125326429D01*
X154341191Y-125445476D01*
X153924524Y-124612143D02*
X153448334Y-124612143D01*
X153745953Y-124195476D02*
X153745953Y-125266905D01*
X153686429Y-125385952D01*
X153567382Y-125445476D01*
X153448334Y-125445476D01*
X152555476Y-125385952D02*
X152674524Y-125445476D01*
X152912619Y-125445476D01*
X153031667Y-125385952D01*
X153091191Y-125266905D01*
X153091191Y-124790714D01*
X153031667Y-124671667D01*
X152912619Y-124612143D01*
X152674524Y-124612143D01*
X152555476Y-124671667D01*
X152495953Y-124790714D01*
X152495953Y-124909762D01*
X153091191Y-125028810D01*
X151424524Y-125385952D02*
X151543571Y-125445476D01*
X151781667Y-125445476D01*
X151900714Y-125385952D01*
X151960238Y-125326429D01*
X152019762Y-125207381D01*
X152019762Y-124850238D01*
X151960238Y-124731190D01*
X151900714Y-124671667D01*
X151781667Y-124612143D01*
X151543571Y-124612143D01*
X151424524Y-124671667D01*
X150888809Y-125445476D02*
X150888809Y-124195476D01*
X150353095Y-125445476D02*
X150353095Y-124790714D01*
X150412618Y-124671667D01*
X150531666Y-124612143D01*
X150710238Y-124612143D01*
X150829285Y-124671667D01*
X150888809Y-124731190D01*
X148865000Y-124135952D02*
X149936428Y-125743095D01*
X148567381Y-125445476D02*
X147912619Y-124612143D01*
X148567381Y-124612143D02*
X147912619Y-125445476D01*
X146900714Y-124612143D02*
X146900714Y-125445476D01*
X147198333Y-124135952D02*
X147495952Y-125028810D01*
X146722142Y-125028810D01*
X146245952Y-125445476D02*
X146245952Y-124612143D01*
X146245952Y-124850238D02*
X146186428Y-124731190D01*
X146126904Y-124671667D01*
X146007857Y-124612143D01*
X145888809Y-124612143D01*
X145472142Y-124969286D02*
X144519761Y-124969286D01*
X143984047Y-125385952D02*
X143864999Y-125445476D01*
X143626904Y-125445476D01*
X143507856Y-125385952D01*
X143448332Y-125266905D01*
X143448332Y-125207381D01*
X143507856Y-125088333D01*
X143626904Y-125028810D01*
X143805475Y-125028810D01*
X143924523Y-124969286D01*
X143984047Y-124850238D01*
X143984047Y-124790714D01*
X143924523Y-124671667D01*
X143805475Y-124612143D01*
X143626904Y-124612143D01*
X143507856Y-124671667D01*
X142912618Y-125445476D02*
X142912618Y-124195476D01*
X142912618Y-124671667D02*
X142793570Y-124612143D01*
X142555475Y-124612143D01*
X142436427Y-124671667D01*
X142376904Y-124731190D01*
X142317380Y-124850238D01*
X142317380Y-125207381D01*
X142376904Y-125326429D01*
X142436427Y-125385952D01*
X142555475Y-125445476D01*
X142793570Y-125445476D01*
X142912618Y-125385952D01*
X140888809Y-124135952D02*
X141960237Y-125743095D01*
X140591190Y-124612143D02*
X140293571Y-125445476D01*
X139995951Y-124612143D01*
X138984047Y-124612143D02*
X138984047Y-125445476D01*
X139281666Y-124135952D02*
X139579285Y-125028810D01*
X138805475Y-125028810D01*
D12*
X144120000Y-123536667D02*
X143643809Y-123536667D01*
X144215238Y-123822381D02*
X143881905Y-122822381D01*
X143548571Y-123822381D01*
X143215238Y-123822381D02*
X143215238Y-122822381D01*
X142739048Y-123822381D02*
X142739048Y-122822381D01*
X142167619Y-123822381D01*
X142167619Y-122822381D01*
X146120952Y-123161429D02*
X145359047Y-123161429D01*
X148610952Y-123161429D02*
X147849047Y-123161429D01*
X148229999Y-123542381D02*
X148229999Y-122780476D01*
X153761429Y-123584762D02*
X153618572Y-123632381D01*
X153380476Y-123632381D01*
X153285238Y-123584762D01*
X153237619Y-123537143D01*
X153190000Y-123441905D01*
X153190000Y-123346667D01*
X153237619Y-123251429D01*
X153285238Y-123203810D01*
X153380476Y-123156190D01*
X153570953Y-123108571D01*
X153666191Y-123060952D01*
X153713810Y-123013333D01*
X153761429Y-122918095D01*
X153761429Y-122822857D01*
X153713810Y-122727619D01*
X153666191Y-122680000D01*
X153570953Y-122632381D01*
X153332857Y-122632381D01*
X153190000Y-122680000D01*
X152761429Y-123537143D02*
X152713810Y-123584762D01*
X152761429Y-123632381D01*
X152809048Y-123584762D01*
X152761429Y-123537143D01*
X152761429Y-123632381D01*
X152285239Y-123632381D02*
X152285239Y-122632381D01*
X151904286Y-122632381D01*
X151809048Y-122680000D01*
X151761429Y-122727619D01*
X151713810Y-122822857D01*
X151713810Y-122965714D01*
X151761429Y-123060952D01*
X151809048Y-123108571D01*
X151904286Y-123156190D01*
X152285239Y-123156190D01*
X151142382Y-123632381D02*
X151237620Y-123584762D01*
X151285239Y-123537143D01*
X151332858Y-123441905D01*
X151332858Y-123156190D01*
X151285239Y-123060952D01*
X151237620Y-123013333D01*
X151142382Y-122965714D01*
X150999524Y-122965714D01*
X150904286Y-123013333D01*
X150856667Y-123060952D01*
X150809048Y-123156190D01*
X150809048Y-123441905D01*
X150856667Y-123537143D01*
X150904286Y-123584762D01*
X150999524Y-123632381D01*
X151142382Y-123632381D01*
X150380477Y-123632381D02*
X150380477Y-122965714D01*
X150380477Y-123156190D02*
X150332858Y-123060952D01*
X150285239Y-123013333D01*
X150190001Y-122965714D01*
X150094762Y-122965714D01*
X149904286Y-122965714D02*
X149523334Y-122965714D01*
X149761429Y-122632381D02*
X149761429Y-123489524D01*
X149713810Y-123584762D01*
X149618572Y-123632381D01*
X149523334Y-123632381D01*
X149678571Y-93088571D02*
X149535714Y-93136190D01*
X149488095Y-93183810D01*
X149440476Y-93279048D01*
X149440476Y-93421905D01*
X149488095Y-93517143D01*
X149535714Y-93564762D01*
X149630952Y-93612381D01*
X150011905Y-93612381D01*
X150011905Y-92612381D01*
X149678571Y-92612381D01*
X149583333Y-92660000D01*
X149535714Y-92707619D01*
X149488095Y-92802857D01*
X149488095Y-92898095D01*
X149535714Y-92993333D01*
X149583333Y-93040952D01*
X149678571Y-93088571D01*
X150011905Y-93088571D01*
X148583333Y-92945714D02*
X148583333Y-93612381D01*
X149011905Y-92945714D02*
X149011905Y-93469524D01*
X148964286Y-93564762D01*
X148869048Y-93612381D01*
X148726190Y-93612381D01*
X148630952Y-93564762D01*
X148583333Y-93517143D01*
X148202381Y-92945714D02*
X147678571Y-92945714D01*
X148202381Y-93612381D01*
X147678571Y-93612381D01*
X147392857Y-92945714D02*
X146869047Y-92945714D01*
X147392857Y-93612381D01*
X146869047Y-93612381D01*
X146107142Y-93564762D02*
X146202380Y-93612381D01*
X146392857Y-93612381D01*
X146488095Y-93564762D01*
X146535714Y-93469524D01*
X146535714Y-93088571D01*
X146488095Y-92993333D01*
X146392857Y-92945714D01*
X146202380Y-92945714D01*
X146107142Y-92993333D01*
X146059523Y-93088571D01*
X146059523Y-93183810D01*
X146535714Y-93279048D01*
X145630952Y-93612381D02*
X145630952Y-92945714D01*
X145630952Y-93136190D02*
X145583333Y-93040952D01*
X145535714Y-92993333D01*
X145440476Y-92945714D01*
X145345237Y-92945714D01*
X144377143Y-94751429D02*
X143615238Y-94751429D01*
X143996190Y-95132381D02*
X143996190Y-94370476D01*
X142662857Y-94132381D02*
X143139048Y-94132381D01*
X143186667Y-94608571D01*
X143139048Y-94560952D01*
X143043810Y-94513333D01*
X142805714Y-94513333D01*
X142710476Y-94560952D01*
X142662857Y-94608571D01*
X142615238Y-94703810D01*
X142615238Y-94941905D01*
X142662857Y-95037143D01*
X142710476Y-95084762D01*
X142805714Y-95132381D01*
X143043810Y-95132381D01*
X143139048Y-95084762D01*
X143186667Y-95037143D01*
D13*
X143177143Y-91410000D02*
X143320000Y-91338571D01*
X143534286Y-91338571D01*
X143748571Y-91410000D01*
X143891429Y-91552857D01*
X143962857Y-91695714D01*
X144034286Y-91981429D01*
X144034286Y-92195714D01*
X143962857Y-92481429D01*
X143891429Y-92624286D01*
X143748571Y-92767143D01*
X143534286Y-92838571D01*
X143391429Y-92838571D01*
X143177143Y-92767143D01*
X143105714Y-92695714D01*
X143105714Y-92195714D01*
X143391429Y-92195714D01*
D10*
G36*
X165687579Y-104145562D02*
X164719203Y-104145562D01*
X164601191Y-104373961D01*
X164605263Y-104366814D01*
X164609616Y-104360100D01*
X164614249Y-104353819D01*
X164619164Y-104347971D01*
X164624359Y-104342556D01*
X164629835Y-104337575D01*
X164635592Y-104333027D01*
X164641630Y-104328911D01*
X164647948Y-104325229D01*
X164654548Y-104321981D01*
X164661428Y-104319165D01*
X164668589Y-104316783D01*
X164676031Y-104314833D01*
X164683754Y-104313317D01*
X164691757Y-104312234D01*
X164700041Y-104311585D01*
X164708607Y-104311368D01*
X165174275Y-104311368D01*
X165174263Y-104311368D01*
X165178169Y-104321769D01*
X165181852Y-104332197D01*
X165185312Y-104342653D01*
X165188548Y-104353135D01*
X165191562Y-104363645D01*
X165194352Y-104374182D01*
X165196919Y-104384746D01*
X165199263Y-104395338D01*
X165201383Y-104405957D01*
X165203281Y-104416602D01*
X165204955Y-104427276D01*
X165206406Y-104437976D01*
X165207633Y-104448704D01*
X165208638Y-104459458D01*
X165209419Y-104470240D01*
X165209977Y-104481050D01*
X165210312Y-104491886D01*
X165210423Y-104502750D01*
X165210293Y-104514890D01*
X165209900Y-104526617D01*
X165209246Y-104537930D01*
X165208330Y-104548829D01*
X165207153Y-104559314D01*
X165205714Y-104569386D01*
X165204013Y-104579044D01*
X165202051Y-104588288D01*
X165199827Y-104597118D01*
X165196875Y-104607012D01*
X165193318Y-104616851D01*
X165189155Y-104626636D01*
X165184387Y-104636365D01*
X165179013Y-104646038D01*
X165173034Y-104655657D01*
X165166449Y-104665221D01*
X165159259Y-104674729D01*
X165153529Y-104681471D01*
X165147244Y-104687907D01*
X165140406Y-104694037D01*
X165133015Y-104699861D01*
X165125069Y-104705378D01*
X165116570Y-104710590D01*
X165107517Y-104715495D01*
X165097911Y-104720095D01*
X165087751Y-104724388D01*
X165077037Y-104728375D01*
X165065769Y-104732055D01*
X165057035Y-104734670D01*
X165048004Y-104737104D01*
X165038674Y-104739358D01*
X165029047Y-104741432D01*
X165019122Y-104743325D01*
X165008899Y-104745038D01*
X164998378Y-104746570D01*
X164987559Y-104747923D01*
X164976442Y-104749095D01*
X164965027Y-104750086D01*
X164953315Y-104750898D01*
X164941304Y-104751529D01*
X164928996Y-104751980D01*
X164916390Y-104752250D01*
X164903486Y-104752340D01*
X164890510Y-104752261D01*
X164877815Y-104752023D01*
X164865404Y-104751627D01*
X164853275Y-104751072D01*
X164841428Y-104750359D01*
X164829863Y-104749488D01*
X164818581Y-104748458D01*
X164807582Y-104747269D01*
X164796864Y-104745922D01*
X164786430Y-104744416D01*
X164776277Y-104742753D01*
X164766407Y-104740930D01*
X164756820Y-104738949D01*
X164747515Y-104736810D01*
X164738492Y-104734512D01*
X164729752Y-104732055D01*
X164717395Y-104728382D01*
X164705666Y-104724417D01*
X164694564Y-104720160D01*
X164684089Y-104715612D01*
X164674242Y-104710772D01*
X164665021Y-104705641D01*
X164656428Y-104700218D01*
X164648462Y-104694504D01*
X164641123Y-104688498D01*
X164634411Y-104682200D01*
X164628326Y-104675611D01*
X164620705Y-104666364D01*
X164613718Y-104657145D01*
X164607364Y-104647954D01*
X164601645Y-104638790D01*
X164596560Y-104629653D01*
X164592109Y-104620545D01*
X164588292Y-104611463D01*
X164585109Y-104602410D01*
X164582428Y-104593204D01*
X164580105Y-104583668D01*
X164578138Y-104573802D01*
X164576530Y-104563604D01*
X164575279Y-104553076D01*
X164574385Y-104542217D01*
X164573849Y-104531027D01*
X164573670Y-104519507D01*
X164573810Y-104506295D01*
X164574231Y-104493517D01*
X164574934Y-104481171D01*
X164575916Y-104469259D01*
X164577180Y-104457780D01*
X164578725Y-104446734D01*
X164580550Y-104436121D01*
X164582656Y-104425942D01*
X164585043Y-104416195D01*
X164587711Y-104406882D01*
X164590660Y-104398002D01*
X164593889Y-104389555D01*
X164597400Y-104381542D01*
X164601191Y-104373961D01*
X164719203Y-104145562D01*
X164709526Y-104145709D01*
X164699898Y-104146150D01*
X164690319Y-104146885D01*
X164680788Y-104147914D01*
X164671307Y-104149237D01*
X164661874Y-104150854D01*
X164653252Y-104152690D01*
X164644019Y-104155174D01*
X164634174Y-104158306D01*
X164623716Y-104162085D01*
X164612647Y-104166513D01*
X164600966Y-104171589D01*
X164588674Y-104177312D01*
X164579005Y-104182397D01*
X164569598Y-104187852D01*
X164560452Y-104193677D01*
X164551568Y-104199873D01*
X164542945Y-104206438D01*
X164534583Y-104213374D01*
X164526483Y-104220680D01*
X164518644Y-104228356D01*
X164511066Y-104236403D01*
X164505546Y-104242834D01*
X164500162Y-104249779D01*
X164494912Y-104257239D01*
X164489797Y-104265213D01*
X164484817Y-104273702D01*
X164479972Y-104282705D01*
X164475262Y-104292222D01*
X164470687Y-104302255D01*
X164466247Y-104312801D01*
X164461942Y-104323862D01*
X164457772Y-104335438D01*
X164453737Y-104347528D01*
X164450746Y-104356881D01*
X164447948Y-104366421D01*
X164445344Y-104376146D01*
X164442932Y-104386058D01*
X164440713Y-104396155D01*
X164438687Y-104406439D01*
X164436854Y-104416908D01*
X164435214Y-104427564D01*
X164433767Y-104438406D01*
X164432513Y-104449434D01*
X164431451Y-104460647D01*
X164430583Y-104472047D01*
X164429908Y-104483633D01*
X164429425Y-104495405D01*
X164429136Y-104507363D01*
X164429040Y-104519507D01*
X164429148Y-104530645D01*
X164429474Y-104541719D01*
X164430016Y-104552727D01*
X164430776Y-104563669D01*
X164431753Y-104574547D01*
X164432946Y-104585359D01*
X164434357Y-104596105D01*
X164435985Y-104606787D01*
X164437830Y-104617403D01*
X164439611Y-104626288D01*
X164441757Y-104635304D01*
X164444269Y-104644451D01*
X164447146Y-104653730D01*
X164450389Y-104663140D01*
X164453997Y-104672681D01*
X164457970Y-104682353D01*
X164462309Y-104692157D01*
X164467014Y-104702091D01*
X164472083Y-104712157D01*
X164477519Y-104722354D01*
X164482793Y-104731798D01*
X164488324Y-104741022D01*
X164494113Y-104750025D01*
X164500158Y-104758808D01*
X164506460Y-104767370D01*
X164513020Y-104775712D01*
X164519836Y-104783833D01*
X164526910Y-104791734D01*
X164534241Y-104799414D01*
X164541828Y-104806874D01*
X164549673Y-104814113D01*
X164557775Y-104821132D01*
X164564541Y-104826596D01*
X164571668Y-104831935D01*
X164579155Y-104837148D01*
X164587003Y-104842236D01*
X164595212Y-104847198D01*
X164603781Y-104852035D01*
X164612711Y-104856747D01*
X164622001Y-104861333D01*
X164631652Y-104865794D01*
X164641664Y-104870129D01*
X164652036Y-104874339D01*
X164662769Y-104878423D01*
X164673863Y-104882382D01*
X164685317Y-104886215D01*
X164697131Y-104889924D01*
X164706585Y-104892816D01*
X164716196Y-104895552D01*
X164725962Y-104898132D01*
X164735886Y-104900556D01*
X164745965Y-104902823D01*
X164756201Y-104904934D01*
X164766593Y-104906888D01*
X164777142Y-104908686D01*
X164787847Y-104910328D01*
X164798709Y-104911813D01*
X164809726Y-104913142D01*
X164820900Y-104914315D01*
X164832231Y-104915331D01*
X164843718Y-104916191D01*
X164855361Y-104916895D01*
X164867161Y-104917442D01*
X164879117Y-104917833D01*
X164891229Y-104918068D01*
X164903498Y-104918146D01*
X164916177Y-104918062D01*
X164928681Y-104917810D01*
X164941008Y-104917390D01*
X164953160Y-104916802D01*
X164965135Y-104916046D01*
X164976934Y-104915122D01*
X164988558Y-104914030D01*
X165000005Y-104912770D01*
X165011276Y-104911342D01*
X165022372Y-104909746D01*
X165033291Y-104907982D01*
X165044034Y-104906050D01*
X165054602Y-104903951D01*
X165064993Y-104901683D01*
X165075208Y-104899247D01*
X165085248Y-104896643D01*
X165095111Y-104893871D01*
X165104798Y-104890931D01*
X165114309Y-104887824D01*
X165123645Y-104884548D01*
X165132804Y-104881104D01*
X165144411Y-104876474D01*
X165155638Y-104871623D01*
X165166487Y-104866552D01*
X165176957Y-104861260D01*
X165187048Y-104855748D01*
X165196760Y-104850016D01*
X165206093Y-104844062D01*
X165215047Y-104837889D01*
X165223623Y-104831495D01*
X165231819Y-104824880D01*
X165239636Y-104818045D01*
X165247075Y-104810990D01*
X165254134Y-104803713D01*
X165260815Y-104796217D01*
X165267116Y-104788500D01*
X165273039Y-104780562D01*
X165279459Y-104771352D01*
X165285618Y-104762114D01*
X165291517Y-104752849D01*
X165297154Y-104743557D01*
X165302531Y-104734238D01*
X165307647Y-104724892D01*
X165312502Y-104715519D01*
X165317096Y-104706119D01*
X165321429Y-104696692D01*
X165325502Y-104687238D01*
X165329313Y-104677757D01*
X165332864Y-104668250D01*
X165336154Y-104658715D01*
X165339183Y-104649153D01*
X165341855Y-104639631D01*
X165344330Y-104629966D01*
X165346606Y-104620157D01*
X165348684Y-104610203D01*
X165350565Y-104600106D01*
X165352247Y-104589864D01*
X165353732Y-104579479D01*
X165355019Y-104568950D01*
X165356107Y-104558276D01*
X165356998Y-104547459D01*
X165357691Y-104536498D01*
X165358186Y-104525392D01*
X165358483Y-104514143D01*
X165358582Y-104502750D01*
X165358500Y-104491701D01*
X165358255Y-104480701D01*
X165357847Y-104469751D01*
X165357275Y-104458849D01*
X165356540Y-104447996D01*
X165355642Y-104437192D01*
X165354581Y-104426437D01*
X165353356Y-104415731D01*
X165351968Y-104405075D01*
X165350417Y-104394467D01*
X165348702Y-104383908D01*
X165346824Y-104373398D01*
X165344783Y-104362937D01*
X165342578Y-104352525D01*
X165340210Y-104342163D01*
X165337679Y-104331849D01*
X165334984Y-104321584D01*
X165332127Y-104311368D01*
X165687555Y-104311368D01*
X165687555Y-104145562D01*
X165687579Y-104145562D01*
X165687579Y-104145562D01*
G37*
G36*
X165128421Y-105143042D02*
X164728018Y-105291208D01*
X164736317Y-105288859D01*
X164744899Y-105286661D01*
X164753763Y-105284614D01*
X164762910Y-105282720D01*
X164772339Y-105280976D01*
X164782051Y-105279385D01*
X164792046Y-105277945D01*
X164802323Y-105276656D01*
X164812882Y-105275519D01*
X164823724Y-105274534D01*
X164834848Y-105273700D01*
X164846255Y-105273018D01*
X164857945Y-105272488D01*
X164869916Y-105272109D01*
X164882171Y-105271881D01*
X164894708Y-105271806D01*
X164907248Y-105271881D01*
X164919513Y-105272109D01*
X164931502Y-105272488D01*
X164943215Y-105273018D01*
X164954653Y-105273700D01*
X164965815Y-105274534D01*
X164976702Y-105275519D01*
X164987313Y-105276656D01*
X164997648Y-105277945D01*
X165007708Y-105279385D01*
X165017492Y-105280976D01*
X165027000Y-105282720D01*
X165036233Y-105284614D01*
X165045190Y-105286661D01*
X165053871Y-105288859D01*
X165062277Y-105291208D01*
X165073866Y-105295057D01*
X165084902Y-105299226D01*
X165095383Y-105303716D01*
X165105311Y-105308527D01*
X165114685Y-105313658D01*
X165123505Y-105319110D01*
X165131771Y-105324883D01*
X165139483Y-105330976D01*
X165146641Y-105337390D01*
X165153245Y-105344125D01*
X165159295Y-105351181D01*
X165166088Y-105360011D01*
X165172358Y-105368863D01*
X165178105Y-105377737D01*
X165183331Y-105386633D01*
X165188033Y-105395550D01*
X165192214Y-105404489D01*
X165195872Y-105413450D01*
X165199008Y-105422433D01*
X165201621Y-105431438D01*
X165203845Y-105440660D01*
X165205807Y-105450296D01*
X165207508Y-105460346D01*
X165208947Y-105470809D01*
X165210124Y-105481687D01*
X165211040Y-105492978D01*
X165211694Y-105504682D01*
X165212087Y-105516801D01*
X165212218Y-105529333D01*
X165212087Y-105542051D01*
X165211694Y-105554333D01*
X165211040Y-105566179D01*
X165210124Y-105577590D01*
X165208947Y-105588565D01*
X165207508Y-105599105D01*
X165205807Y-105609209D01*
X165203845Y-105618878D01*
X165201621Y-105628111D01*
X165199005Y-105637116D01*
X165195868Y-105646098D01*
X165192209Y-105655059D01*
X165188028Y-105663999D01*
X165183325Y-105672916D01*
X165178100Y-105681812D01*
X165172354Y-105690686D01*
X165166085Y-105699538D01*
X165159295Y-105708368D01*
X165153245Y-105715416D01*
X165146641Y-105722129D01*
X165139483Y-105728507D01*
X165131771Y-105734549D01*
X165123505Y-105740257D01*
X165114685Y-105745628D01*
X165105311Y-105750665D01*
X165095383Y-105755366D01*
X165084902Y-105759732D01*
X165073866Y-105763763D01*
X165062277Y-105767458D01*
X165053871Y-105769915D01*
X165045190Y-105772213D01*
X165036233Y-105774352D01*
X165027000Y-105776333D01*
X165017492Y-105778155D01*
X165007708Y-105779819D01*
X164997648Y-105781325D01*
X164987313Y-105782672D01*
X164976702Y-105783860D01*
X164965815Y-105784891D01*
X164954653Y-105785762D01*
X164943215Y-105786475D01*
X164931502Y-105787030D01*
X164919513Y-105787426D01*
X164907248Y-105787664D01*
X164894708Y-105787743D01*
X164882171Y-105787664D01*
X164869916Y-105787426D01*
X164857945Y-105787030D01*
X164846255Y-105786475D01*
X164834848Y-105785762D01*
X164823724Y-105784891D01*
X164812882Y-105783860D01*
X164802323Y-105782672D01*
X164792046Y-105781325D01*
X164782051Y-105779819D01*
X164772339Y-105778155D01*
X164762910Y-105776333D01*
X164753763Y-105774352D01*
X164744899Y-105772213D01*
X164736317Y-105769915D01*
X164728018Y-105767458D01*
X164716276Y-105763763D01*
X164705102Y-105759732D01*
X164694497Y-105755366D01*
X164684460Y-105750665D01*
X164674992Y-105745628D01*
X164666092Y-105740257D01*
X164657761Y-105734549D01*
X164649998Y-105728507D01*
X164642804Y-105722129D01*
X164636178Y-105715416D01*
X164630120Y-105708368D01*
X164623328Y-105699538D01*
X164617058Y-105690686D01*
X164611310Y-105681812D01*
X164606085Y-105672916D01*
X164601382Y-105663999D01*
X164597202Y-105655059D01*
X164593543Y-105646098D01*
X164590408Y-105637116D01*
X164587794Y-105628111D01*
X164585571Y-105618878D01*
X164583608Y-105609209D01*
X164581908Y-105599105D01*
X164580469Y-105588565D01*
X164579291Y-105577590D01*
X164578375Y-105566179D01*
X164577721Y-105554333D01*
X164577329Y-105542051D01*
X164577198Y-105529333D01*
X164577329Y-105516801D01*
X164577721Y-105504682D01*
X164578375Y-105492978D01*
X164579291Y-105481687D01*
X164580469Y-105470809D01*
X164581908Y-105460346D01*
X164583608Y-105450296D01*
X164585571Y-105440660D01*
X164587794Y-105431438D01*
X164590410Y-105422433D01*
X164593548Y-105413450D01*
X164597207Y-105404489D01*
X164601388Y-105395550D01*
X164606091Y-105386633D01*
X164611316Y-105377737D01*
X164617062Y-105368863D01*
X164623330Y-105360011D01*
X164630120Y-105351181D01*
X164636178Y-105344125D01*
X164642804Y-105337390D01*
X164649998Y-105330976D01*
X164657761Y-105324883D01*
X164666092Y-105319110D01*
X164674992Y-105313658D01*
X164684460Y-105308527D01*
X164694497Y-105303716D01*
X164705102Y-105299226D01*
X164716276Y-105295057D01*
X164728018Y-105291208D01*
X165128421Y-105143042D01*
X165119596Y-105139672D01*
X165110601Y-105136460D01*
X165101433Y-105133404D01*
X165092095Y-105130505D01*
X165082585Y-105127763D01*
X165072904Y-105125177D01*
X165063052Y-105122748D01*
X165053028Y-105120476D01*
X165042833Y-105118360D01*
X165032467Y-105116401D01*
X165021929Y-105114599D01*
X165011220Y-105112954D01*
X165000340Y-105111465D01*
X164989288Y-105110133D01*
X164978065Y-105108957D01*
X164966671Y-105107939D01*
X164955105Y-105107077D01*
X164943368Y-105106372D01*
X164931460Y-105105823D01*
X164919381Y-105105431D01*
X164907130Y-105105196D01*
X164894708Y-105105118D01*
X164882287Y-105105196D01*
X164870042Y-105105431D01*
X164857972Y-105105823D01*
X164846076Y-105106372D01*
X164834356Y-105107077D01*
X164822810Y-105107939D01*
X164811439Y-105108957D01*
X164800244Y-105110133D01*
X164789223Y-105111465D01*
X164778377Y-105112954D01*
X164767706Y-105114599D01*
X164757210Y-105116401D01*
X164746889Y-105118360D01*
X164736743Y-105120476D01*
X164726772Y-105122748D01*
X164716976Y-105125177D01*
X164707355Y-105127763D01*
X164697909Y-105130505D01*
X164688638Y-105133404D01*
X164679541Y-105136460D01*
X164670620Y-105139672D01*
X164661874Y-105143042D01*
X164650732Y-105147598D01*
X164639927Y-105152343D01*
X164629457Y-105157278D01*
X164619322Y-105162402D01*
X164609523Y-105167715D01*
X164600060Y-105173217D01*
X164590932Y-105178908D01*
X164582140Y-105184789D01*
X164573683Y-105190859D01*
X164565562Y-105197118D01*
X164557776Y-105203566D01*
X164550326Y-105210204D01*
X164543212Y-105217030D01*
X164536433Y-105224046D01*
X164529990Y-105231251D01*
X164523882Y-105238646D01*
X164518110Y-105246229D01*
X164511451Y-105255566D01*
X164505080Y-105264930D01*
X164498996Y-105274321D01*
X164493201Y-105283739D01*
X164487693Y-105293184D01*
X164482474Y-105302656D01*
X164477543Y-105312155D01*
X164472899Y-105321680D01*
X164468544Y-105331233D01*
X164464477Y-105340813D01*
X164460697Y-105350420D01*
X164457206Y-105360054D01*
X164454003Y-105369715D01*
X164451088Y-105379403D01*
X164448294Y-105389293D01*
X164445708Y-105399310D01*
X164443328Y-105409452D01*
X164441156Y-105419720D01*
X164439190Y-105430115D01*
X164437431Y-105440635D01*
X164435879Y-105451281D01*
X164434534Y-105462054D01*
X164433396Y-105472952D01*
X164432465Y-105483976D01*
X164431741Y-105495126D01*
X164431224Y-105506403D01*
X164430913Y-105517805D01*
X164430810Y-105529333D01*
X164430913Y-105540979D01*
X164431224Y-105552480D01*
X164431741Y-105563837D01*
X164432465Y-105575050D01*
X164433396Y-105586120D01*
X164434534Y-105597045D01*
X164435879Y-105607826D01*
X164437431Y-105618464D01*
X164439190Y-105628957D01*
X164441156Y-105639306D01*
X164443328Y-105649512D01*
X164445708Y-105659573D01*
X164448294Y-105669490D01*
X164451088Y-105679264D01*
X164454003Y-105689073D01*
X164457206Y-105698847D01*
X164460697Y-105708584D01*
X164464477Y-105718285D01*
X164468544Y-105727951D01*
X164472899Y-105737580D01*
X164477543Y-105747174D01*
X164482474Y-105756731D01*
X164487693Y-105766252D01*
X164493201Y-105775738D01*
X164498996Y-105785187D01*
X164505080Y-105794601D01*
X164511451Y-105803978D01*
X164518110Y-105813319D01*
X164523882Y-105820903D01*
X164529990Y-105828297D01*
X164536433Y-105835502D01*
X164543212Y-105842518D01*
X164550326Y-105849345D01*
X164557776Y-105855982D01*
X164565562Y-105862431D01*
X164573683Y-105868690D01*
X164582140Y-105874760D01*
X164590932Y-105880640D01*
X164600060Y-105886332D01*
X164609523Y-105891834D01*
X164619322Y-105897147D01*
X164629457Y-105902271D01*
X164639927Y-105907205D01*
X164650732Y-105911951D01*
X164661874Y-105916507D01*
X164670620Y-105919876D01*
X164679541Y-105923089D01*
X164688638Y-105926145D01*
X164697909Y-105929044D01*
X164707355Y-105931786D01*
X164716976Y-105934372D01*
X164726772Y-105936801D01*
X164736743Y-105939073D01*
X164746889Y-105941189D01*
X164757210Y-105943147D01*
X164767706Y-105944950D01*
X164778377Y-105946595D01*
X164789223Y-105948084D01*
X164800244Y-105949416D01*
X164811439Y-105950591D01*
X164822810Y-105951610D01*
X164834356Y-105952472D01*
X164846076Y-105953177D01*
X164857972Y-105953725D01*
X164870042Y-105954117D01*
X164882287Y-105954352D01*
X164894708Y-105954431D01*
X164907130Y-105954352D01*
X164919381Y-105954117D01*
X164931460Y-105953725D01*
X164943368Y-105953177D01*
X164955105Y-105952472D01*
X164966671Y-105951610D01*
X164978065Y-105950591D01*
X164989288Y-105949416D01*
X165000340Y-105948084D01*
X165011220Y-105946595D01*
X165021929Y-105944950D01*
X165032467Y-105943147D01*
X165042833Y-105941189D01*
X165053028Y-105939073D01*
X165063052Y-105936801D01*
X165072904Y-105934372D01*
X165082585Y-105931786D01*
X165092095Y-105929044D01*
X165101433Y-105926145D01*
X165110601Y-105923089D01*
X165119596Y-105919876D01*
X165128421Y-105916507D01*
X165139462Y-105911951D01*
X165150173Y-105907205D01*
X165160555Y-105902271D01*
X165170607Y-105897147D01*
X165180329Y-105891834D01*
X165189722Y-105886332D01*
X165198786Y-105880640D01*
X165207520Y-105874760D01*
X165215924Y-105868690D01*
X165223999Y-105862431D01*
X165231744Y-105855982D01*
X165239159Y-105849345D01*
X165246245Y-105842518D01*
X165253001Y-105835502D01*
X165259428Y-105828297D01*
X165265525Y-105820903D01*
X165271293Y-105813319D01*
X165277957Y-105803978D01*
X165284342Y-105794601D01*
X165290448Y-105785187D01*
X165296275Y-105775738D01*
X165301824Y-105766252D01*
X165307093Y-105756731D01*
X165312084Y-105747174D01*
X165316795Y-105737580D01*
X165321228Y-105727951D01*
X165325381Y-105718285D01*
X165329256Y-105708584D01*
X165332852Y-105698847D01*
X165336169Y-105689073D01*
X165339207Y-105679264D01*
X165341879Y-105669490D01*
X165344354Y-105659573D01*
X165346630Y-105649512D01*
X165348708Y-105639306D01*
X165350589Y-105628957D01*
X165352272Y-105618464D01*
X165353756Y-105607826D01*
X165355043Y-105597045D01*
X165356131Y-105586120D01*
X165357022Y-105575050D01*
X165357715Y-105563837D01*
X165358210Y-105552480D01*
X165358507Y-105540979D01*
X165358606Y-105529333D01*
X165358507Y-105517805D01*
X165358210Y-105506403D01*
X165357715Y-105495126D01*
X165357022Y-105483976D01*
X165356131Y-105472952D01*
X165355043Y-105462054D01*
X165353756Y-105451281D01*
X165352272Y-105440635D01*
X165350589Y-105430115D01*
X165348708Y-105419720D01*
X165346630Y-105409452D01*
X165344354Y-105399310D01*
X165341879Y-105389293D01*
X165339207Y-105379403D01*
X165336169Y-105369715D01*
X165332852Y-105360054D01*
X165329256Y-105350420D01*
X165325381Y-105340813D01*
X165321228Y-105331233D01*
X165316795Y-105321680D01*
X165312084Y-105312155D01*
X165307093Y-105302656D01*
X165301824Y-105293184D01*
X165296275Y-105283739D01*
X165290448Y-105274321D01*
X165284342Y-105264930D01*
X165277957Y-105255566D01*
X165271293Y-105246229D01*
X165265525Y-105238646D01*
X165259428Y-105231251D01*
X165253001Y-105224046D01*
X165246245Y-105217030D01*
X165239159Y-105210204D01*
X165231744Y-105203566D01*
X165223999Y-105197118D01*
X165215924Y-105190859D01*
X165207520Y-105184789D01*
X165198786Y-105178908D01*
X165189722Y-105173217D01*
X165180329Y-105167715D01*
X165170607Y-105162402D01*
X165160555Y-105157278D01*
X165150173Y-105152343D01*
X165139462Y-105147598D01*
X165128421Y-105143042D01*
X165128421Y-105143042D01*
G37*
G36*
X165344493Y-106194319D02*
X164100078Y-106194319D01*
X164100078Y-106360125D01*
X165344493Y-106360125D01*
X165344493Y-106194319D01*
X165344493Y-106194319D01*
G37*
G36*
X164443152Y-106557681D02*
X164443152Y-106734951D01*
X165118715Y-106977486D01*
X164443152Y-107215611D01*
X164443152Y-107392882D01*
X165440632Y-107022465D01*
X165453126Y-107017724D01*
X165465312Y-107012879D01*
X165477189Y-107007930D01*
X165488757Y-107002877D01*
X165500018Y-106997720D01*
X165510969Y-106992459D01*
X165521612Y-106987095D01*
X165531947Y-106981626D01*
X165541973Y-106976054D01*
X165551690Y-106970378D01*
X165561099Y-106964597D01*
X165570200Y-106958713D01*
X165578992Y-106952726D01*
X165587476Y-106946634D01*
X165595651Y-106940438D01*
X165603517Y-106934139D01*
X165611075Y-106927735D01*
X165618325Y-106921228D01*
X165625266Y-106914617D01*
X165631899Y-106907902D01*
X165638223Y-106901083D01*
X165644238Y-106894160D01*
X165649946Y-106887133D01*
X165655344Y-106880003D01*
X165660434Y-106872768D01*
X165665216Y-106865430D01*
X165669689Y-106857988D01*
X165673854Y-106850442D01*
X165677710Y-106842792D01*
X165681258Y-106835038D01*
X165684497Y-106827180D01*
X165687428Y-106819218D01*
X165690050Y-106811153D01*
X165692364Y-106802983D01*
X165694369Y-106794710D01*
X165696065Y-106786333D01*
X165697454Y-106777852D01*
X165698533Y-106769267D01*
X165699305Y-106760578D01*
X165699767Y-106751785D01*
X165699922Y-106742889D01*
X165699922Y-106742010D01*
X165699824Y-106731972D01*
X165699530Y-106721848D01*
X165699040Y-106711638D01*
X165698354Y-106701342D01*
X165697472Y-106690961D01*
X165696393Y-106680494D01*
X165695119Y-106669942D01*
X165693649Y-106659303D01*
X165691983Y-106648579D01*
X165690121Y-106637769D01*
X165688063Y-106626873D01*
X165685809Y-106615892D01*
X165537639Y-106615892D01*
X165540329Y-106626590D01*
X165542755Y-106637164D01*
X165544916Y-106647615D01*
X165546813Y-106657943D01*
X165548446Y-106668147D01*
X165549814Y-106678228D01*
X165550918Y-106688185D01*
X165551757Y-106698018D01*
X165552332Y-106707729D01*
X165552642Y-106717315D01*
X165552411Y-106724735D01*
X165551717Y-106732058D01*
X165550561Y-106739285D01*
X165548942Y-106746416D01*
X165546860Y-106753451D01*
X165544316Y-106760390D01*
X165541310Y-106767232D01*
X165537841Y-106773979D01*
X165533909Y-106780630D01*
X165529515Y-106787185D01*
X165524658Y-106793644D01*
X165519338Y-106800006D01*
X165513556Y-106806273D01*
X165507312Y-106812444D01*
X165500605Y-106818518D01*
X165493435Y-106824497D01*
X165485803Y-106830380D01*
X165477709Y-106836166D01*
X165469151Y-106841857D01*
X165460132Y-106847451D01*
X165450649Y-106852950D01*
X165440704Y-106858352D01*
X165430297Y-106863658D01*
X165419427Y-106868869D01*
X165408094Y-106873983D01*
X165396299Y-106879001D01*
X165384042Y-106883923D01*
X165371321Y-106888750D01*
X165358139Y-106893480D01*
X165344493Y-106898114D01*
X164443152Y-106557683D01*
X164443152Y-106557681D01*
X164443152Y-106557681D01*
G37*
G36*
X164698034Y-107512826D02*
X164686917Y-107513025D01*
X164675968Y-107513620D01*
X164665186Y-107514612D01*
X164654571Y-107516001D01*
X164644125Y-107517787D01*
X164633845Y-107519970D01*
X164623734Y-107522550D01*
X164613790Y-107525526D01*
X164604014Y-107528900D01*
X164594405Y-107532670D01*
X164584964Y-107536837D01*
X164575691Y-107541401D01*
X164566585Y-107546362D01*
X164557647Y-107551720D01*
X164548876Y-107557475D01*
X164540274Y-107563626D01*
X164531838Y-107570175D01*
X164523571Y-107577120D01*
X164515470Y-107584462D01*
X164507538Y-107592201D01*
X164501384Y-107598756D01*
X164495481Y-107605579D01*
X164489829Y-107612670D01*
X164484428Y-107620029D01*
X164479279Y-107627656D01*
X164474380Y-107635551D01*
X164469733Y-107643714D01*
X164465337Y-107652145D01*
X164461193Y-107660845D01*
X164457299Y-107669813D01*
X164453657Y-107679048D01*
X164450266Y-107688552D01*
X164447126Y-107698324D01*
X164444237Y-107708364D01*
X164441599Y-107718672D01*
X164439213Y-107729248D01*
X164437078Y-107740093D01*
X164435194Y-107751205D01*
X164433561Y-107762586D01*
X164432180Y-107774235D01*
X164431049Y-107786152D01*
X164430170Y-107798336D01*
X164429542Y-107810790D01*
X164429165Y-107823511D01*
X164429040Y-107836500D01*
X164429151Y-107847153D01*
X164429486Y-107857793D01*
X164430045Y-107868420D01*
X164430827Y-107879033D01*
X164431832Y-107889633D01*
X164433061Y-107900220D01*
X164434513Y-107910793D01*
X164436188Y-107921353D01*
X164438087Y-107931900D01*
X164440209Y-107942433D01*
X164442555Y-107952953D01*
X164445124Y-107963460D01*
X164447916Y-107973953D01*
X164450932Y-107984433D01*
X164454171Y-107994900D01*
X164457634Y-108005353D01*
X164461320Y-108015793D01*
X164465229Y-108026220D01*
X164469362Y-108036633D01*
X164473718Y-108047033D01*
X164478298Y-108057420D01*
X164483101Y-108067793D01*
X164488127Y-108078153D01*
X164630999Y-108078153D01*
X164625999Y-108067011D01*
X164621242Y-108055930D01*
X164616729Y-108044909D01*
X164612460Y-108033948D01*
X164608435Y-108023046D01*
X164604654Y-108012205D01*
X164601116Y-108001424D01*
X164597823Y-107990702D01*
X164594774Y-107980041D01*
X164591969Y-107969440D01*
X164589407Y-107958898D01*
X164587090Y-107948417D01*
X164585016Y-107937996D01*
X164583187Y-107927634D01*
X164581601Y-107917333D01*
X164580259Y-107907092D01*
X164579162Y-107896910D01*
X164578308Y-107886789D01*
X164577698Y-107876727D01*
X164577332Y-107866726D01*
X164577210Y-107856785D01*
X164577369Y-107843768D01*
X164577844Y-107831243D01*
X164578636Y-107819210D01*
X164579746Y-107807667D01*
X164581172Y-107796615D01*
X164582915Y-107786055D01*
X164584975Y-107775986D01*
X164587352Y-107766408D01*
X164590046Y-107757321D01*
X164593057Y-107748725D01*
X164596385Y-107740621D01*
X164600030Y-107733008D01*
X164603992Y-107725886D01*
X164608271Y-107719255D01*
X164612866Y-107713115D01*
X164617779Y-107707466D01*
X164623008Y-107702309D01*
X164628555Y-107697643D01*
X164634418Y-107693468D01*
X164640599Y-107689784D01*
X164647096Y-107686591D01*
X164653910Y-107683890D01*
X164661042Y-107681679D01*
X164668490Y-107679960D01*
X164676255Y-107678732D01*
X164684337Y-107677996D01*
X164692736Y-107677750D01*
X164701013Y-107678338D01*
X164708984Y-107680102D01*
X164716650Y-107683042D01*
X164724012Y-107687157D01*
X164731068Y-107692449D01*
X164737819Y-107698917D01*
X164744266Y-107706560D01*
X164750407Y-107715380D01*
X164756243Y-107725375D01*
X164760689Y-107734194D01*
X164765048Y-107743335D01*
X164769320Y-107752795D01*
X164773504Y-107762577D01*
X164777600Y-107772679D01*
X164781609Y-107783102D01*
X164785530Y-107793846D01*
X164789363Y-107804910D01*
X164793109Y-107816295D01*
X164796768Y-107828001D01*
X164800339Y-107840028D01*
X164803240Y-107850340D01*
X164806246Y-107860652D01*
X164809356Y-107870964D01*
X164812571Y-107881276D01*
X164815890Y-107891588D01*
X164819314Y-107901900D01*
X164822842Y-107912212D01*
X164826475Y-107922524D01*
X164830212Y-107932835D01*
X164834053Y-107943147D01*
X164837999Y-107953459D01*
X164842050Y-107963771D01*
X164846205Y-107974083D01*
X164850173Y-107983681D01*
X164854519Y-107993072D01*
X164859243Y-108002256D01*
X164864346Y-108011233D01*
X164869826Y-108020003D01*
X164875684Y-108028566D01*
X164881920Y-108036922D01*
X164888534Y-108045071D01*
X164895526Y-108053013D01*
X164902895Y-108060748D01*
X164910643Y-108068276D01*
X164918769Y-108075597D01*
X164927273Y-108082711D01*
X164936155Y-108089618D01*
X164944210Y-108095492D01*
X164952500Y-108100987D01*
X164961023Y-108106103D01*
X164969781Y-108110840D01*
X164978773Y-108115198D01*
X164987999Y-108119177D01*
X164997460Y-108122777D01*
X165007154Y-108125998D01*
X165017083Y-108128841D01*
X165027246Y-108131304D01*
X165037642Y-108133388D01*
X165048274Y-108135093D01*
X165059139Y-108136420D01*
X165070238Y-108137367D01*
X165081572Y-108137936D01*
X165093139Y-108138125D01*
X165103913Y-108137920D01*
X165114536Y-108137305D01*
X165125009Y-108136280D01*
X165135333Y-108134844D01*
X165145506Y-108132999D01*
X165155530Y-108130743D01*
X165165404Y-108128077D01*
X165175127Y-108125002D01*
X165184701Y-108121516D01*
X165194125Y-108117620D01*
X165203399Y-108113314D01*
X165212523Y-108108598D01*
X165221498Y-108103471D01*
X165230322Y-108097935D01*
X165238996Y-108091988D01*
X165247521Y-108085632D01*
X165255895Y-108078865D01*
X165264120Y-108071688D01*
X165272195Y-108064101D01*
X165280119Y-108056104D01*
X165286041Y-108049662D01*
X165291730Y-108042953D01*
X165297187Y-108035979D01*
X165302411Y-108028738D01*
X165307404Y-108021231D01*
X165312164Y-108013458D01*
X165316692Y-108005418D01*
X165320988Y-107997113D01*
X165325052Y-107988542D01*
X165328883Y-107979704D01*
X165332482Y-107970600D01*
X165335849Y-107961230D01*
X165338984Y-107951594D01*
X165341887Y-107941691D01*
X165344557Y-107931523D01*
X165346995Y-107921088D01*
X165349201Y-107910388D01*
X165351175Y-107899421D01*
X165352917Y-107888188D01*
X165354426Y-107876689D01*
X165355703Y-107864923D01*
X165356748Y-107852892D01*
X165357561Y-107840594D01*
X165358141Y-107828030D01*
X165358490Y-107815200D01*
X165358606Y-107802104D01*
X165358506Y-107790580D01*
X165358205Y-107779148D01*
X165357704Y-107767810D01*
X165357003Y-107756565D01*
X165356101Y-107745413D01*
X165354999Y-107734354D01*
X165353697Y-107723388D01*
X165352194Y-107712516D01*
X165350491Y-107701736D01*
X165348587Y-107691050D01*
X165346483Y-107680457D01*
X165344179Y-107669956D01*
X165341675Y-107659550D01*
X165338970Y-107649236D01*
X165336064Y-107639015D01*
X165332958Y-107628887D01*
X165329652Y-107618853D01*
X165326146Y-107608912D01*
X165322439Y-107599064D01*
X165318532Y-107589309D01*
X165314424Y-107579647D01*
X165310116Y-107570078D01*
X165305608Y-107560602D01*
X165300899Y-107551220D01*
X165295990Y-107541931D01*
X165146062Y-107541931D01*
X165151459Y-107551731D01*
X165156626Y-107561584D01*
X165161564Y-107571489D01*
X165166272Y-107581447D01*
X165170751Y-107591456D01*
X165175000Y-107601517D01*
X165179019Y-107611630D01*
X165182808Y-107621796D01*
X165186368Y-107632013D01*
X165189698Y-107642282D01*
X165192799Y-107652604D01*
X165195670Y-107662977D01*
X165198311Y-107673403D01*
X165200722Y-107683881D01*
X165202904Y-107694410D01*
X165204856Y-107704992D01*
X165206579Y-107715626D01*
X165208072Y-107726312D01*
X165209335Y-107737050D01*
X165210368Y-107747840D01*
X165211172Y-107758682D01*
X165211746Y-107769576D01*
X165212091Y-107780523D01*
X165212206Y-107791521D01*
X165212206Y-107795049D01*
X165212023Y-107808101D01*
X165211475Y-107820662D01*
X165210562Y-107832733D01*
X165209284Y-107844313D01*
X165207640Y-107855402D01*
X165205631Y-107866001D01*
X165203257Y-107876110D01*
X165200518Y-107885727D01*
X165197414Y-107894855D01*
X165193944Y-107903492D01*
X165190109Y-107911638D01*
X165185909Y-107919294D01*
X165181343Y-107926459D01*
X165174825Y-107935172D01*
X165167972Y-107942969D01*
X165160784Y-107949848D01*
X165153261Y-107955810D01*
X165145402Y-107960855D01*
X165137209Y-107964982D01*
X165128681Y-107968192D01*
X165119818Y-107970485D01*
X165110620Y-107971861D01*
X165101087Y-107972320D01*
X165091165Y-107971926D01*
X165081608Y-107970745D01*
X165072416Y-107968777D01*
X165063588Y-107966022D01*
X165055125Y-107962480D01*
X165047027Y-107958150D01*
X165039293Y-107953034D01*
X165031924Y-107947130D01*
X165024919Y-107940439D01*
X165018279Y-107932960D01*
X165012004Y-107924695D01*
X165006382Y-107916757D01*
X165000981Y-107908526D01*
X164995801Y-107900000D01*
X164990840Y-107891181D01*
X164986100Y-107882067D01*
X164981581Y-107872660D01*
X164977282Y-107862959D01*
X164973204Y-107852963D01*
X164969345Y-107842674D01*
X164965708Y-107832091D01*
X164962290Y-107821213D01*
X164959094Y-107810042D01*
X164956086Y-107799594D01*
X164953038Y-107789147D01*
X164949947Y-107778699D01*
X164946816Y-107768251D01*
X164943642Y-107757804D01*
X164940427Y-107747356D01*
X164937170Y-107736909D01*
X164933872Y-107726461D01*
X164930532Y-107716013D01*
X164927150Y-107705566D01*
X164923727Y-107695118D01*
X164920262Y-107684670D01*
X164916756Y-107674223D01*
X164912914Y-107664025D01*
X164908718Y-107654058D01*
X164904167Y-107644320D01*
X164899261Y-107634812D01*
X164894001Y-107625533D01*
X164888385Y-107616484D01*
X164882416Y-107607664D01*
X164876091Y-107599075D01*
X164869412Y-107590714D01*
X164862378Y-107582584D01*
X164854990Y-107574683D01*
X164847246Y-107567012D01*
X164839148Y-107559570D01*
X164831717Y-107553545D01*
X164824002Y-107547936D01*
X164816006Y-107542742D01*
X164807727Y-107537964D01*
X164799167Y-107533601D01*
X164790324Y-107529654D01*
X164781198Y-107526123D01*
X164771791Y-107523006D01*
X164762101Y-107520306D01*
X164752129Y-107518020D01*
X164741874Y-107516151D01*
X164731338Y-107514697D01*
X164720519Y-107513658D01*
X164709418Y-107513035D01*
X164698034Y-107512827D01*
X164698034Y-107512826D01*
X164698034Y-107512826D01*
G37*
G36*
X164582496Y-108266889D02*
X164443152Y-108266889D01*
X164443152Y-108423875D01*
X164174158Y-108423875D01*
X164174158Y-108588799D01*
X164443152Y-108588799D01*
X164443152Y-108828688D01*
X164582496Y-108828688D01*
X164582496Y-108588799D01*
X165106373Y-108588799D01*
X165115775Y-108589074D01*
X165124741Y-108589899D01*
X165133268Y-108591275D01*
X165141359Y-108593201D01*
X165149012Y-108595677D01*
X165156228Y-108598704D01*
X165163006Y-108602281D01*
X165169348Y-108606408D01*
X165175252Y-108611086D01*
X165180718Y-108616314D01*
X165185747Y-108622092D01*
X165190339Y-108628421D01*
X165194494Y-108635299D01*
X165198211Y-108642728D01*
X165201491Y-108650708D01*
X165204334Y-108659238D01*
X165206739Y-108668318D01*
X165208707Y-108677948D01*
X165210238Y-108688129D01*
X165211331Y-108698860D01*
X165211987Y-108710141D01*
X165212206Y-108721972D01*
X165212206Y-108723736D01*
X165211941Y-108735898D01*
X165211147Y-108747690D01*
X165209825Y-108759111D01*
X165207973Y-108770162D01*
X165205592Y-108780842D01*
X165202682Y-108791152D01*
X165199242Y-108801092D01*
X165195274Y-108810661D01*
X165190777Y-108819860D01*
X165185750Y-108828688D01*
X165333921Y-108828688D01*
X165337864Y-108818398D01*
X165341463Y-108808109D01*
X165344721Y-108797820D01*
X165347635Y-108787530D01*
X165350206Y-108777241D01*
X165352435Y-108766952D01*
X165354320Y-108756662D01*
X165355863Y-108746373D01*
X165357063Y-108736084D01*
X165357920Y-108725794D01*
X165358434Y-108715505D01*
X165358606Y-108705216D01*
X165358606Y-108700806D01*
X165358444Y-108691393D01*
X165357957Y-108681799D01*
X165357146Y-108672026D01*
X165356011Y-108662072D01*
X165354551Y-108651939D01*
X165352767Y-108641626D01*
X165350658Y-108631132D01*
X165348708Y-108622716D01*
X165346387Y-108613929D01*
X165343697Y-108604772D01*
X165340638Y-108595245D01*
X165337208Y-108585347D01*
X165333410Y-108575080D01*
X165329241Y-108564442D01*
X165324704Y-108553434D01*
X165319796Y-108542056D01*
X165315189Y-108532901D01*
X165310027Y-108524038D01*
X165304312Y-108515466D01*
X165298043Y-108507186D01*
X165291220Y-108499198D01*
X165283842Y-108491501D01*
X165275912Y-108484095D01*
X165267427Y-108476982D01*
X165258388Y-108470159D01*
X165248795Y-108463628D01*
X165238649Y-108457389D01*
X165230194Y-108452773D01*
X165221460Y-108448498D01*
X165212447Y-108444565D01*
X165203155Y-108440974D01*
X165193585Y-108437726D01*
X165183735Y-108434819D01*
X165173607Y-108432254D01*
X165163199Y-108430031D01*
X165152513Y-108428150D01*
X165141548Y-108426611D01*
X165130303Y-108425414D01*
X165118780Y-108424559D01*
X165106978Y-108424046D01*
X165094897Y-108423875D01*
X164582484Y-108423875D01*
X164582484Y-108266889D01*
X164582496Y-108266889D01*
X164582496Y-108266889D01*
G37*
G36*
X165060507Y-108995375D02*
X165058713Y-109159416D01*
X165067872Y-109159615D01*
X165076750Y-109160213D01*
X165085346Y-109161209D01*
X165093660Y-109162604D01*
X165101692Y-109164397D01*
X165109442Y-109166588D01*
X165116911Y-109169178D01*
X165124097Y-109172167D01*
X165131002Y-109175553D01*
X165137625Y-109179339D01*
X165143966Y-109183523D01*
X165150026Y-109188105D01*
X165155803Y-109193085D01*
X165161299Y-109198465D01*
X165166513Y-109204242D01*
X165171445Y-109210418D01*
X165176095Y-109216993D01*
X165180463Y-109223966D01*
X165184550Y-109231337D01*
X165188355Y-109239107D01*
X165191878Y-109247275D01*
X165195119Y-109255842D01*
X165198078Y-109264807D01*
X165200755Y-109274171D01*
X165203151Y-109283933D01*
X165205265Y-109294094D01*
X165207096Y-109304653D01*
X165208647Y-109315610D01*
X165209915Y-109326966D01*
X165210901Y-109338721D01*
X165211606Y-109350873D01*
X165212028Y-109363425D01*
X165212169Y-109376374D01*
X165212169Y-109379020D01*
X165212026Y-109391608D01*
X165211594Y-109403797D01*
X165210875Y-109415586D01*
X165209868Y-109426976D01*
X165208574Y-109437966D01*
X165206992Y-109448556D01*
X165205122Y-109458746D01*
X165202964Y-109468537D01*
X165200519Y-109477929D01*
X165197787Y-109486920D01*
X165194766Y-109495512D01*
X165191458Y-109503705D01*
X165187863Y-109511498D01*
X165183979Y-109518891D01*
X165179808Y-109525884D01*
X165175350Y-109532478D01*
X165170603Y-109538673D01*
X165165569Y-109544467D01*
X165160248Y-109549862D01*
X165154638Y-109554858D01*
X165148741Y-109559453D01*
X165142557Y-109563649D01*
X165136085Y-109567446D01*
X165129325Y-109570843D01*
X165122277Y-109573840D01*
X165114942Y-109576438D01*
X165107319Y-109578636D01*
X165099409Y-109580434D01*
X165091210Y-109581833D01*
X165082725Y-109582832D01*
X165073951Y-109583431D01*
X165064890Y-109583631D01*
X164918478Y-109583631D01*
X164917014Y-109574173D01*
X164915649Y-109564444D01*
X164914384Y-109554446D01*
X164913219Y-109544177D01*
X164912153Y-109533639D01*
X164911186Y-109522831D01*
X164910320Y-109511753D01*
X164909552Y-109500404D01*
X164908884Y-109488786D01*
X164908316Y-109476898D01*
X164907847Y-109464740D01*
X164907478Y-109452311D01*
X164907208Y-109439613D01*
X164907038Y-109426645D01*
X164907183Y-109416242D01*
X164907618Y-109405694D01*
X164908343Y-109395003D01*
X164909358Y-109384168D01*
X164910663Y-109373188D01*
X164912258Y-109362065D01*
X164914143Y-109350798D01*
X164915803Y-109340779D01*
X164917714Y-109330568D01*
X164919875Y-109320164D01*
X164922286Y-109309567D01*
X164924947Y-109298777D01*
X164927859Y-109287794D01*
X164931021Y-109276618D01*
X164934433Y-109265249D01*
X164937797Y-109255254D01*
X164941619Y-109245650D01*
X164945899Y-109236439D01*
X164950635Y-109227619D01*
X164955829Y-109219192D01*
X164961480Y-109211157D01*
X164967589Y-109203513D01*
X164974155Y-109196261D01*
X164981178Y-109189402D01*
X164989529Y-109182374D01*
X164998265Y-109176283D01*
X165007388Y-109171129D01*
X165016896Y-109166912D01*
X165026789Y-109163633D01*
X165037069Y-109161290D01*
X165047734Y-109159884D01*
X165058785Y-109159416D01*
X165058713Y-109159416D01*
X165060507Y-108995375D01*
X165049439Y-108995571D01*
X165038576Y-108996159D01*
X165027919Y-108997139D01*
X165017466Y-108998511D01*
X165007219Y-109000275D01*
X164997176Y-109002431D01*
X164987339Y-109004978D01*
X164977707Y-109007918D01*
X164968280Y-109011250D01*
X164959058Y-109014974D01*
X164950042Y-109019090D01*
X164941230Y-109023597D01*
X164932624Y-109028497D01*
X164924222Y-109033789D01*
X164916026Y-109039472D01*
X164908035Y-109045548D01*
X164900249Y-109052016D01*
X164892668Y-109058875D01*
X164885293Y-109066127D01*
X164878122Y-109073770D01*
X164871157Y-109081806D01*
X164864396Y-109090233D01*
X164857841Y-109099053D01*
X164851491Y-109108264D01*
X164846519Y-109115885D01*
X164841715Y-109123696D01*
X164837080Y-109131697D01*
X164832613Y-109139889D01*
X164828315Y-109148270D01*
X164824185Y-109156841D01*
X164820224Y-109165603D01*
X164816432Y-109174555D01*
X164812808Y-109183697D01*
X164809352Y-109193029D01*
X164806066Y-109202551D01*
X164802947Y-109212263D01*
X164799998Y-109222165D01*
X164797217Y-109232258D01*
X164794604Y-109242540D01*
X164792160Y-109253013D01*
X164789884Y-109263675D01*
X164787777Y-109274528D01*
X164785839Y-109285571D01*
X164784069Y-109296804D01*
X164782468Y-109308227D01*
X164781035Y-109319840D01*
X164779771Y-109331644D01*
X164778676Y-109343637D01*
X164777749Y-109355821D01*
X164776990Y-109368195D01*
X164776400Y-109380758D01*
X164775979Y-109393512D01*
X164775726Y-109406456D01*
X164775642Y-109419590D01*
X164775689Y-109430856D01*
X164775830Y-109442074D01*
X164776065Y-109453245D01*
X164776395Y-109464370D01*
X164776819Y-109475447D01*
X164777337Y-109486477D01*
X164777949Y-109497460D01*
X164778656Y-109508396D01*
X164779456Y-109519285D01*
X164780351Y-109530127D01*
X164781340Y-109540922D01*
X164782423Y-109551670D01*
X164783601Y-109562371D01*
X164784872Y-109573025D01*
X164786238Y-109583632D01*
X164773076Y-109582829D01*
X164760360Y-109581667D01*
X164748089Y-109580144D01*
X164736264Y-109578261D01*
X164724884Y-109576018D01*
X164713950Y-109573415D01*
X164703461Y-109570451D01*
X164693418Y-109567128D01*
X164683820Y-109563445D01*
X164674668Y-109559401D01*
X164665961Y-109554998D01*
X164657700Y-109550234D01*
X164649884Y-109545110D01*
X164642514Y-109539626D01*
X164635589Y-109533782D01*
X164629110Y-109527578D01*
X164623076Y-109521014D01*
X164618015Y-109514870D01*
X164613227Y-109508320D01*
X164608713Y-109501364D01*
X164604472Y-109494003D01*
X164600505Y-109486237D01*
X164596812Y-109478065D01*
X164593392Y-109469487D01*
X164590246Y-109460504D01*
X164587373Y-109451116D01*
X164584774Y-109441321D01*
X164582449Y-109431122D01*
X164580397Y-109420516D01*
X164578618Y-109409505D01*
X164577114Y-109398089D01*
X164575883Y-109386267D01*
X164574925Y-109374040D01*
X164574241Y-109361406D01*
X164573831Y-109348368D01*
X164573694Y-109334924D01*
X164573779Y-109324695D01*
X164574034Y-109314411D01*
X164574459Y-109304069D01*
X164575054Y-109293671D01*
X164575819Y-109283216D01*
X164576755Y-109272704D01*
X164577860Y-109262136D01*
X164579135Y-109251511D01*
X164580580Y-109240829D01*
X164582196Y-109230091D01*
X164583981Y-109219296D01*
X164585937Y-109208444D01*
X164588062Y-109197535D01*
X164590358Y-109186570D01*
X164592823Y-109175548D01*
X164595459Y-109164470D01*
X164598264Y-109153335D01*
X164601240Y-109142143D01*
X164604386Y-109130894D01*
X164607701Y-109119589D01*
X164611187Y-109108227D01*
X164614843Y-109096809D01*
X164618669Y-109085333D01*
X164477555Y-109085333D01*
X164473752Y-109095591D01*
X164470105Y-109105902D01*
X164466612Y-109116266D01*
X164463275Y-109126685D01*
X164460094Y-109137156D01*
X164457067Y-109147682D01*
X164454196Y-109158261D01*
X164451479Y-109168894D01*
X164448919Y-109179580D01*
X164446513Y-109190320D01*
X164444262Y-109201114D01*
X164442167Y-109211961D01*
X164440227Y-109222862D01*
X164438442Y-109233816D01*
X164436812Y-109244824D01*
X164435338Y-109255886D01*
X164434018Y-109267001D01*
X164432854Y-109278170D01*
X164431845Y-109289393D01*
X164430992Y-109300669D01*
X164430293Y-109311999D01*
X164429750Y-109323382D01*
X164429362Y-109334819D01*
X164429129Y-109346310D01*
X164429052Y-109357854D01*
X164429160Y-109370283D01*
X164429487Y-109382521D01*
X164430031Y-109394570D01*
X164430792Y-109406428D01*
X164431771Y-109418096D01*
X164432968Y-109429574D01*
X164434382Y-109440862D01*
X164436013Y-109451960D01*
X164437862Y-109462867D01*
X164439929Y-109473585D01*
X164442213Y-109484112D01*
X164444715Y-109494450D01*
X164447435Y-109504597D01*
X164450371Y-109514554D01*
X164453526Y-109524321D01*
X164456898Y-109533898D01*
X164460488Y-109543285D01*
X164464295Y-109552482D01*
X164468319Y-109561488D01*
X164472562Y-109570305D01*
X164477021Y-109578931D01*
X164481699Y-109587367D01*
X164486593Y-109595614D01*
X164491706Y-109603670D01*
X164497036Y-109611536D01*
X164502583Y-109619212D01*
X164508348Y-109626697D01*
X164514331Y-109633993D01*
X164520531Y-109641098D01*
X164526949Y-109648014D01*
X164533742Y-109654948D01*
X164540738Y-109661638D01*
X164547937Y-109668086D01*
X164555340Y-109674290D01*
X164562946Y-109680251D01*
X164570756Y-109685968D01*
X164578769Y-109691442D01*
X164586986Y-109696673D01*
X164595406Y-109701660D01*
X164604030Y-109706405D01*
X164612856Y-109710906D01*
X164621887Y-109715163D01*
X164631121Y-109719178D01*
X164640558Y-109722949D01*
X164650199Y-109726477D01*
X164660043Y-109729761D01*
X164670090Y-109732802D01*
X164680341Y-109735600D01*
X164690795Y-109738155D01*
X164701453Y-109740466D01*
X164712315Y-109742534D01*
X164723379Y-109744359D01*
X164734647Y-109745940D01*
X164746119Y-109747278D01*
X164757794Y-109748373D01*
X164769672Y-109749225D01*
X164781754Y-109749833D01*
X164794039Y-109750198D01*
X164806528Y-109750320D01*
X165066696Y-109750320D01*
X165076398Y-109750148D01*
X165086099Y-109749634D01*
X165095801Y-109748776D01*
X165105502Y-109747576D01*
X165115203Y-109746032D01*
X165124905Y-109744146D01*
X165133311Y-109742292D01*
X165142401Y-109739754D01*
X165152174Y-109736532D01*
X165162631Y-109732626D01*
X165173772Y-109728037D01*
X165185597Y-109722763D01*
X165198105Y-109716806D01*
X165207960Y-109711906D01*
X165217532Y-109706614D01*
X165226821Y-109700931D01*
X165235827Y-109694855D01*
X165244549Y-109688387D01*
X165252987Y-109681528D01*
X165261143Y-109674276D01*
X165269015Y-109666633D01*
X165276603Y-109658597D01*
X165282127Y-109652166D01*
X165287529Y-109645221D01*
X165292808Y-109637761D01*
X165297965Y-109629787D01*
X165302999Y-109621298D01*
X165307911Y-109612295D01*
X165312701Y-109602778D01*
X165317368Y-109592745D01*
X165321912Y-109582199D01*
X165326335Y-109571138D01*
X165330634Y-109559562D01*
X165334812Y-109547472D01*
X165337695Y-109538122D01*
X165340391Y-109528593D01*
X165342902Y-109518885D01*
X165345227Y-109508997D01*
X165347366Y-109498931D01*
X165349319Y-109488685D01*
X165351086Y-109478260D01*
X165352666Y-109467656D01*
X165354061Y-109456873D01*
X165355270Y-109445911D01*
X165356293Y-109434769D01*
X165357130Y-109423449D01*
X165357781Y-109411949D01*
X165358246Y-109400270D01*
X165358525Y-109388412D01*
X165358618Y-109376375D01*
X165358521Y-109364014D01*
X165358232Y-109351846D01*
X165357750Y-109339871D01*
X165357075Y-109328089D01*
X165356207Y-109316499D01*
X165355147Y-109305103D01*
X165353893Y-109293899D01*
X165352447Y-109282889D01*
X165350807Y-109272071D01*
X165348975Y-109261447D01*
X165346950Y-109251015D01*
X165344733Y-109240776D01*
X165342322Y-109230730D01*
X165339718Y-109220877D01*
X165336922Y-109211217D01*
X165333933Y-109201750D01*
X165329613Y-109189513D01*
X165325183Y-109177791D01*
X165320644Y-109166583D01*
X165315994Y-109155889D01*
X165311234Y-109145710D01*
X165306364Y-109136045D01*
X165301384Y-109126895D01*
X165296294Y-109118259D01*
X165291094Y-109110138D01*
X165285784Y-109102531D01*
X165280363Y-109095439D01*
X165274833Y-109088861D01*
X165268007Y-109081426D01*
X165260934Y-109074291D01*
X165253614Y-109067456D01*
X165246047Y-109060921D01*
X165238233Y-109054686D01*
X165230172Y-109048750D01*
X165221863Y-109043115D01*
X165213308Y-109037779D01*
X165204505Y-109032743D01*
X165195456Y-109028007D01*
X165184240Y-109022757D01*
X165173521Y-109018030D01*
X165163297Y-109013827D01*
X165153570Y-109010148D01*
X165144338Y-109006992D01*
X165135602Y-109004360D01*
X165127362Y-109002251D01*
X165119619Y-109000667D01*
X165109645Y-108999050D01*
X165099721Y-108997727D01*
X165089846Y-108996698D01*
X165080021Y-108995963D01*
X165070245Y-108995521D01*
X165060519Y-108995374D01*
X165060507Y-108995375D01*
X165060507Y-108995375D01*
G37*
G36*
X165238661Y-110046653D02*
X165231720Y-110040493D01*
X165224607Y-110034511D01*
X165217321Y-110028709D01*
X165209862Y-110023084D01*
X165202231Y-110017639D01*
X165194426Y-110012371D01*
X165186449Y-110007283D01*
X165178299Y-110002373D01*
X165169977Y-109997641D01*
X165161481Y-109993088D01*
X165152813Y-109988714D01*
X165143972Y-109984518D01*
X165134958Y-109980500D01*
X165125771Y-109976662D01*
X165116412Y-109973001D01*
X165106880Y-109969520D01*
X165097175Y-109966217D01*
X165087297Y-109963092D01*
X165077246Y-109960146D01*
X165067023Y-109957378D01*
X165056627Y-109954789D01*
X165046058Y-109952379D01*
X165035316Y-109950147D01*
X165024401Y-109948094D01*
X165013314Y-109946219D01*
X165002054Y-109944523D01*
X164990621Y-109943005D01*
X164979015Y-109941666D01*
X164967237Y-109940506D01*
X164955286Y-109939524D01*
X164943162Y-109938720D01*
X164930865Y-109938095D01*
X164918395Y-109937649D01*
X164905753Y-109937381D01*
X164892938Y-109937292D01*
X164880123Y-109937381D01*
X164867483Y-109937649D01*
X164855017Y-109938095D01*
X164842725Y-109938720D01*
X164830608Y-109939524D01*
X164818665Y-109940506D01*
X164806896Y-109941666D01*
X164795301Y-109943005D01*
X164783880Y-109944523D01*
X164772634Y-109946219D01*
X164761562Y-109948094D01*
X164750664Y-109950147D01*
X164739941Y-109952379D01*
X164729391Y-109954789D01*
X164719016Y-109957378D01*
X164708815Y-109960146D01*
X164698789Y-109963092D01*
X164688936Y-109966217D01*
X164679258Y-109969520D01*
X164669754Y-109973001D01*
X164660425Y-109976662D01*
X164651269Y-109980500D01*
X164642288Y-109984518D01*
X164633481Y-109988714D01*
X164624849Y-109993088D01*
X164616390Y-109997641D01*
X164608106Y-110002373D01*
X164599996Y-110007283D01*
X164592061Y-110012371D01*
X164584299Y-110017639D01*
X164576712Y-110023084D01*
X164569299Y-110028709D01*
X164562060Y-110034511D01*
X164554996Y-110040493D01*
X164548106Y-110046653D01*
X164540999Y-110053369D01*
X164534111Y-110060262D01*
X164527441Y-110067331D01*
X164520991Y-110074577D01*
X164514759Y-110081999D01*
X164508745Y-110089598D01*
X164502950Y-110097374D01*
X164497374Y-110105326D01*
X164492017Y-110113455D01*
X164486878Y-110121760D01*
X164481958Y-110130242D01*
X164477256Y-110138900D01*
X164472774Y-110147735D01*
X164468510Y-110156746D01*
X164464464Y-110165934D01*
X164460638Y-110175298D01*
X164457029Y-110184839D01*
X164453640Y-110194557D01*
X164450469Y-110204451D01*
X164447517Y-110214522D01*
X164444784Y-110224769D01*
X164442269Y-110235193D01*
X164439973Y-110245793D01*
X164437896Y-110256570D01*
X164436037Y-110267524D01*
X164434397Y-110278654D01*
X164432976Y-110289960D01*
X164431773Y-110301443D01*
X164430789Y-110313103D01*
X164430024Y-110324939D01*
X164429477Y-110336952D01*
X164429149Y-110349141D01*
X164429040Y-110361507D01*
X164429120Y-110372498D01*
X164429361Y-110383458D01*
X164429764Y-110394387D01*
X164430327Y-110405285D01*
X164431051Y-110416152D01*
X164431935Y-110426988D01*
X164432981Y-110437793D01*
X164434188Y-110448567D01*
X164435555Y-110459310D01*
X164437083Y-110470021D01*
X164438772Y-110480702D01*
X164440623Y-110491352D01*
X164442633Y-110501970D01*
X164444805Y-110512558D01*
X164447138Y-110523115D01*
X164449632Y-110533640D01*
X164452286Y-110544134D01*
X164455101Y-110554598D01*
X164458077Y-110565030D01*
X164461214Y-110575431D01*
X164464512Y-110585802D01*
X164467971Y-110596141D01*
X164471591Y-110606449D01*
X164475371Y-110616726D01*
X164479313Y-110626972D01*
X164636298Y-110626972D01*
X164631476Y-110616752D01*
X164626860Y-110606522D01*
X164622449Y-110596283D01*
X164618243Y-110586035D01*
X164614242Y-110575778D01*
X164610447Y-110565512D01*
X164606856Y-110555236D01*
X164603471Y-110544951D01*
X164600291Y-110534658D01*
X164597316Y-110524354D01*
X164594546Y-110514042D01*
X164591982Y-110503721D01*
X164589623Y-110493390D01*
X164587468Y-110483050D01*
X164585519Y-110472701D01*
X164583775Y-110462343D01*
X164582237Y-110451975D01*
X164580903Y-110441599D01*
X164579775Y-110431213D01*
X164578851Y-110420818D01*
X164578133Y-110410414D01*
X164577620Y-110400000D01*
X164577313Y-110389578D01*
X164577210Y-110379146D01*
X164577210Y-110375618D01*
X164577371Y-110363317D01*
X164577854Y-110351285D01*
X164578658Y-110339522D01*
X164579785Y-110328028D01*
X164581233Y-110316803D01*
X164583004Y-110305847D01*
X164585096Y-110295160D01*
X164587510Y-110284742D01*
X164590246Y-110274593D01*
X164593303Y-110264713D01*
X164596683Y-110255102D01*
X164600385Y-110245760D01*
X164604408Y-110236687D01*
X164608753Y-110227883D01*
X164613420Y-110219348D01*
X164618409Y-110211082D01*
X164623720Y-110203085D01*
X164629353Y-110195357D01*
X164635307Y-110187898D01*
X164641584Y-110180708D01*
X164646653Y-110175385D01*
X164652090Y-110170271D01*
X164657895Y-110165365D01*
X164664067Y-110160669D01*
X164670608Y-110156181D01*
X164677516Y-110151901D01*
X164684793Y-110147831D01*
X164692437Y-110143969D01*
X164700449Y-110140316D01*
X164708829Y-110136872D01*
X164717576Y-110133636D01*
X164726692Y-110130609D01*
X164736176Y-110127791D01*
X164746027Y-110125182D01*
X164756246Y-110122782D01*
X164766833Y-110120590D01*
X164777788Y-110118607D01*
X164789111Y-110116832D01*
X164800802Y-110115267D01*
X164812861Y-110113910D01*
X164825287Y-110112762D01*
X164838082Y-110111822D01*
X164851244Y-110111092D01*
X164864774Y-110110570D01*
X164878672Y-110110257D01*
X164892938Y-110110152D01*
X164906078Y-110110243D01*
X164918920Y-110110513D01*
X164931464Y-110110964D01*
X164943710Y-110111595D01*
X164955658Y-110112406D01*
X164967308Y-110113398D01*
X164978660Y-110114570D01*
X164989714Y-110115922D01*
X165000470Y-110117455D01*
X165010928Y-110119168D01*
X165021088Y-110121061D01*
X165030950Y-110123135D01*
X165040515Y-110125389D01*
X165049781Y-110127823D01*
X165058749Y-110130437D01*
X165070338Y-110134446D01*
X165081374Y-110138776D01*
X165091855Y-110143426D01*
X165101783Y-110148397D01*
X165111157Y-110153688D01*
X165119977Y-110159301D01*
X165128242Y-110165234D01*
X165135954Y-110171488D01*
X165143113Y-110178062D01*
X165149717Y-110184957D01*
X165155767Y-110192173D01*
X165162560Y-110201385D01*
X165168830Y-110210596D01*
X165174577Y-110219808D01*
X165179802Y-110229019D01*
X165184505Y-110238230D01*
X165188686Y-110247442D01*
X165192344Y-110256653D01*
X165195480Y-110265865D01*
X165198093Y-110275076D01*
X165200106Y-110283702D01*
X165201908Y-110292644D01*
X165203497Y-110301905D01*
X165204875Y-110311483D01*
X165206040Y-110321378D01*
X165206994Y-110331591D01*
X165207736Y-110342121D01*
X165208266Y-110352969D01*
X165208583Y-110364135D01*
X165208689Y-110375618D01*
X165208590Y-110386408D01*
X165208291Y-110397170D01*
X165207794Y-110407905D01*
X165207097Y-110418613D01*
X165206201Y-110429292D01*
X165205106Y-110439945D01*
X165203812Y-110450569D01*
X165202319Y-110461166D01*
X165200627Y-110471736D01*
X165198736Y-110482278D01*
X165196646Y-110492792D01*
X165194357Y-110503279D01*
X165191869Y-110513739D01*
X165189181Y-110524170D01*
X165186295Y-110534574D01*
X165183210Y-110544951D01*
X165179925Y-110555300D01*
X165176442Y-110565622D01*
X165172759Y-110575916D01*
X165168877Y-110586182D01*
X165164796Y-110596421D01*
X165160517Y-110606632D01*
X165156038Y-110616816D01*
X165151360Y-110626972D01*
X165308345Y-110626972D01*
X165312286Y-110616726D01*
X165316067Y-110606449D01*
X165319686Y-110596141D01*
X165323145Y-110585801D01*
X165326443Y-110575431D01*
X165329580Y-110565030D01*
X165332556Y-110554597D01*
X165335372Y-110544134D01*
X165338026Y-110533640D01*
X165340520Y-110523114D01*
X165342852Y-110512558D01*
X165345024Y-110501970D01*
X165347035Y-110491351D01*
X165348885Y-110480702D01*
X165350574Y-110470021D01*
X165352102Y-110459309D01*
X165353470Y-110448567D01*
X165354676Y-110437793D01*
X165355722Y-110426988D01*
X165356607Y-110416152D01*
X165357331Y-110405285D01*
X165357894Y-110394387D01*
X165358296Y-110383458D01*
X165358537Y-110372498D01*
X165358618Y-110361507D01*
X165358508Y-110349141D01*
X165358177Y-110336951D01*
X165357627Y-110324939D01*
X165356856Y-110313103D01*
X165355864Y-110301443D01*
X165354653Y-110289960D01*
X165353221Y-110278653D01*
X165351569Y-110267523D01*
X165349696Y-110256570D01*
X165347604Y-110245793D01*
X165345291Y-110235193D01*
X165342757Y-110224769D01*
X165340004Y-110214522D01*
X165337030Y-110204451D01*
X165333836Y-110194557D01*
X165330421Y-110184839D01*
X165326787Y-110175298D01*
X165322932Y-110165934D01*
X165318856Y-110156746D01*
X165314561Y-110147734D01*
X165310045Y-110138899D01*
X165305309Y-110130241D01*
X165300352Y-110121759D01*
X165295176Y-110113454D01*
X165289779Y-110105326D01*
X165284162Y-110097374D01*
X165278324Y-110089598D01*
X165272266Y-110081999D01*
X165265988Y-110074577D01*
X165259490Y-110067331D01*
X165252771Y-110060261D01*
X165245832Y-110053369D01*
X165238673Y-110046652D01*
X165238661Y-110046653D01*
X165238661Y-110046653D01*
G37*
G36*
X165344493Y-110823646D02*
X164100078Y-110823646D01*
X164100078Y-110988570D01*
X164820629Y-110988570D01*
X164443152Y-111378389D01*
X164443152Y-111602403D01*
X164818858Y-111210820D01*
X165344493Y-111654438D01*
X165344493Y-111434833D01*
X164925570Y-111100577D01*
X165034052Y-110988570D01*
X165344493Y-110988570D01*
X165344493Y-110823646D01*
X165344493Y-110823646D01*
G37*
D12*
X158725000Y-99240000D02*
X160575000Y-99240000D01*
X158725000Y-116760000D02*
X160575000Y-116760000D01*
X159650000Y-115800000D02*
X159650000Y-100200000D01*
X156850000Y-96500000D02*
X157550000Y-96500000D01*
X157550000Y-95300000D02*
X156850000Y-95300000D01*
X158337500Y-94737500D02*
X156187500Y-94737500D01*
X159162500Y-92487500D02*
X156187500Y-92487500D01*
X154950000Y-91875000D02*
X155950000Y-91875000D01*
X155950000Y-90525000D02*
X154950000Y-90525000D01*
X153455000Y-97890000D02*
X153455000Y-96890000D01*
X152105000Y-96890000D02*
X152105000Y-97890000D01*
X133733333Y-120608571D02*
X134066667Y-120608571D01*
X134066667Y-121132381D02*
X134066667Y-120132381D01*
X133590476Y-120132381D01*
X132780952Y-120465714D02*
X132780952Y-121132381D01*
X133019048Y-120084762D02*
X133257143Y-120799048D01*
X132638095Y-120799048D01*
X133643333Y-95288571D02*
X133976667Y-95288571D01*
X133976667Y-95812381D02*
X133976667Y-94812381D01*
X133500476Y-94812381D01*
X132643333Y-94812381D02*
X133119524Y-94812381D01*
X133167143Y-95288571D01*
X133119524Y-95240952D01*
X133024286Y-95193333D01*
X132786190Y-95193333D01*
X132690952Y-95240952D01*
X132643333Y-95288571D01*
X132595714Y-95383810D01*
X132595714Y-95621905D01*
X132643333Y-95717143D01*
X132690952Y-95764762D01*
X132786190Y-95812381D01*
X133024286Y-95812381D01*
X133119524Y-95764762D01*
X133167143Y-95717143D01*
X165013333Y-96878571D02*
X165346667Y-96878571D01*
X165346667Y-97402381D02*
X165346667Y-96402381D01*
X164870476Y-96402381D01*
X164060952Y-96402381D02*
X164251429Y-96402381D01*
X164346667Y-96450000D01*
X164394286Y-96497619D01*
X164489524Y-96640476D01*
X164537143Y-96830952D01*
X164537143Y-97211905D01*
X164489524Y-97307143D01*
X164441905Y-97354762D01*
X164346667Y-97402381D01*
X164156190Y-97402381D01*
X164060952Y-97354762D01*
X164013333Y-97307143D01*
X163965714Y-97211905D01*
X163965714Y-96973810D01*
X164013333Y-96878571D01*
X164060952Y-96830952D01*
X164156190Y-96783333D01*
X164346667Y-96783333D01*
X164441905Y-96830952D01*
X164489524Y-96878571D01*
X164537143Y-96973810D01*
X151352381Y-96033334D02*
X150876190Y-95700000D01*
X151352381Y-95461905D02*
X150352381Y-95461905D01*
X150352381Y-95842858D01*
X150400000Y-95938096D01*
X150447619Y-95985715D01*
X150542857Y-96033334D01*
X150685714Y-96033334D01*
X150780952Y-95985715D01*
X150828571Y-95938096D01*
X150876190Y-95842858D01*
X150876190Y-95461905D01*
X151352381Y-96985715D02*
X151352381Y-96414286D01*
X151352381Y-96700000D02*
X150352381Y-96700000D01*
X150495238Y-96604762D01*
X150590476Y-96509524D01*
X150638095Y-96414286D01*
M02*
